<svg xmlns="http://www.w3.org/2000/svg" width="107" height="107" viewBox="0 0 107 107">
  <g id="Grupo_53040" data-name="Grupo 53040" transform="translate(13434 7179)">
    <rect id="Rectángulo_28709" data-name="Rectángulo 28709" width="107" height="107" transform="translate(-13434 -7179)" fill="none"/>
    <g id="Grupo_53035" data-name="Grupo 53035" transform="translate(-13869.5 -11756)">
      <rect id="Line" width="13.177" height="2" transform="translate(451.5 4590)" fill="#ea3065"/>
      <g id="Outline" transform="translate(452 4614)">
        <g id="Grupo_49643" data-name="Grupo 49643" transform="translate(0)">
          <path id="Trazado_100531" data-name="Trazado 100531" d="M89.187,94.2a1.241,1.241,0,0,0-1.24,1.24V140.1H81.211a105.544,105.544,0,0,0-23.718,2.7,2.471,2.471,0,0,1-2.6-1.035A28.2,28.2,0,0,1,69.6,137.619H84.226a1.241,1.241,0,0,0,1.24-1.24V127.7a1.24,1.24,0,1,0-2.481,0v7.443H69.6a30.675,30.675,0,0,0-15.147,3.984V105.367a1.24,1.24,0,1,0-2.481,0v33.754a30.671,30.671,0,0,0-15.147-3.983H23.443V90.481h19.1a9.434,9.434,0,0,1,9.428,9.434,1.24,1.24,0,1,0,2.481,0,9.434,9.434,0,0,1,9.428-9.434h19.1v32.252a1.24,1.24,0,1,0,2.481,0V89.24A1.241,1.241,0,0,0,84.226,88H63.882a11.925,11.925,0,0,0-10.668,6.614A11.925,11.925,0,0,0,42.546,88H22.2a1.241,1.241,0,0,0-1.24,1.24v47.138a1.241,1.241,0,0,0,1.24,1.24H36.826a28.2,28.2,0,0,1,14.716,4.148,2.481,2.481,0,0,1-2.6,1.035,105.527,105.527,0,0,0-23.72-2.7H18.481V95.443a1.24,1.24,0,0,0-2.481,0v45.9a1.241,1.241,0,0,0,1.24,1.24h7.976a103.1,103.1,0,0,1,23.159,2.638,4.937,4.937,0,0,0,4.838-1.573,4.934,4.934,0,0,0,4.838,1.573,103.138,103.138,0,0,1,23.159-2.638h7.976a1.241,1.241,0,0,0,1.24-1.24v-45.9A1.241,1.241,0,0,0,89.187,94.2Z" transform="translate(-16 -88)" fill="#12263f"/>
          <path id="Trazado_100532" data-name="Trazado 100532" d="M109.985,146a11.883,11.883,0,0,0-6.6-2H89.24a1.24,1.24,0,0,0,0,2.481h14.141a9.4,9.4,0,0,1,5.232,1.584A1.241,1.241,0,1,0,109.991,146Z" transform="translate(-76.836 -135.317)" fill="#12263f"/>
          <path id="Trazado_100533" data-name="Trazado 100533" d="M299.917,144H285.776a11.885,11.885,0,0,0-6.609,2,1.241,1.241,0,0,0,1.377,2.064,9.4,9.4,0,0,1,5.232-1.584h14.141a1.24,1.24,0,0,0,0-2.481Z" transform="translate(-237.894 -135.317)" fill="#12263f"/>
          <path id="Trazado_100534" data-name="Trazado 100534" d="M109.985,186a11.883,11.883,0,0,0-6.6-2H89.24a1.24,1.24,0,0,0,0,2.481h14.141a9.4,9.4,0,0,1,5.232,1.584A1.241,1.241,0,1,0,109.991,186Z" transform="translate(-76.836 -169.114)" fill="#12263f"/>
          <path id="Trazado_100535" data-name="Trazado 100535" d="M299.917,184H285.776a11.885,11.885,0,0,0-6.609,2,1.241,1.241,0,0,0,1.377,2.064h0a9.4,9.4,0,0,1,5.232-1.584h14.141a1.24,1.24,0,0,0,0-2.481Z" transform="translate(-237.894 -169.114)" fill="#12263f"/>
          <path id="Trazado_100536" data-name="Trazado 100536" d="M109.985,226a11.883,11.883,0,0,0-6.6-2H89.24a1.24,1.24,0,0,0,0,2.481h14.141a9.4,9.4,0,0,1,5.232,1.584A1.241,1.241,0,1,0,109.991,226h-.006Z" transform="translate(-76.836 -202.912)" fill="#12263f"/>
          <path id="Trazado_100537" data-name="Trazado 100537" d="M299.917,224H285.776a11.885,11.885,0,0,0-6.609,2,1.241,1.241,0,0,0,1.377,2.064h0a9.4,9.4,0,0,1,5.232-1.584h14.141a1.24,1.24,0,0,0,0-2.481Z" transform="translate(-237.894 -202.912)" fill="#12263f"/>
          <path id="Trazado_100538" data-name="Trazado 100538" d="M109.985,266a11.883,11.883,0,0,0-6.6-2H89.24a1.24,1.24,0,0,0,0,2.481h14.141a9.4,9.4,0,0,1,5.232,1.584A1.241,1.241,0,1,0,109.991,266Z" transform="translate(-76.836 -236.71)" fill="#12263f"/>
          <path id="Trazado_100539" data-name="Trazado 100539" d="M299.917,264H285.776a11.885,11.885,0,0,0-6.609,2,1.241,1.241,0,0,0,1.377,2.064,9.4,9.4,0,0,1,5.232-1.584h14.141a1.24,1.24,0,0,0,0-2.481Z" transform="translate(-237.894 -236.71)" fill="#12263f"/>
          <path id="Trazado_100540" data-name="Trazado 100540" d="M109.985,306a11.883,11.883,0,0,0-6.6-2H89.24a1.24,1.24,0,1,0,0,2.481h14.141a9.4,9.4,0,0,1,5.232,1.584A1.241,1.241,0,0,0,109.991,306h-.006Z" transform="translate(-76.836 -270.507)" fill="#12263f"/>
          <path id="Trazado_100541" data-name="Trazado 100541" d="M299.917,304H285.776a11.885,11.885,0,0,0-6.609,2,1.241,1.241,0,0,0,1.377,2.064,9.4,9.4,0,0,1,5.232-1.584h14.141a1.24,1.24,0,0,0,0-2.481Z" transform="translate(-237.894 -270.507)" fill="#12263f"/>
          <path id="Trazado_100542" data-name="Trazado 100542" d="M103.382,344H89.24a1.24,1.24,0,1,0,0,2.481h14.141a9.4,9.4,0,0,1,5.232,1.584A1.241,1.241,0,1,0,109.991,346h0A11.882,11.882,0,0,0,103.382,344Z" transform="translate(-76.836 -304.305)" fill="#12263f"/>
          <path id="Trazado_100543" data-name="Trazado 100543" d="M299.917,344H285.776a11.885,11.885,0,0,0-6.609,2,1.241,1.241,0,0,0,1.377,2.064h0a9.4,9.4,0,0,1,5.232-1.584h14.141a1.24,1.24,0,0,0,0-2.481Z" transform="translate(-237.894 -304.305)" fill="#12263f"/>
        </g>
      </g>
    </g>
  </g>
</svg>
