<svg xmlns="http://www.w3.org/2000/svg" width="88" height="88" viewBox="0 0 88 88">
  <g id="Grupo_53048" data-name="Grupo 53048" transform="translate(-196 -5893)">
    <g id="Grupo_53044" data-name="Grupo 53044">
      <g id="Grupo_52908" data-name="Grupo 52908" transform="translate(0 33)">
        <circle id="Elipse_5302" data-name="Elipse 5302" cx="44" cy="44" r="44" transform="translate(196 5860)" fill="#ea3065"/>
        <g id="Grupo_52906" data-name="Grupo 52906" transform="translate(215 5874)">
          <path id="Trazado_100544" data-name="Trazado 100544" d="M137.029,175.964v-1.488a.874.874,0,1,0-1.748,0v1.488a.874.874,0,1,0,1.748,0Z" transform="translate(-124.456 -153.373)" fill="#fff"/>
          <path id="Trazado_100545" data-name="Trazado 100545" d="M87.5,38.147h.714a3.965,3.965,0,0,0,3.95-3.971v-.025a3.983,3.983,0,0,0-2.4-3.658v-2.06h.524a1.225,1.225,0,0,0,1.224-1.224v-.816a3.207,3.207,0,0,0-1.748-2.853V21.15A7.874,7.874,0,0,0,81.9,13.284h-8.21q.666-.476,1.286-1.009A5.9,5.9,0,0,0,76.4,5.906l-.066-.159a5.048,5.048,0,0,0-6.481-2.794c-.07.027-.1-.042-.1-.1A2.933,2.933,0,0,0,66.81,0h-.83C57.465,0,53.091,3.827,51.241,6.107a2.849,2.849,0,0,1-2.152,1.044.828.828,0,0,0-.109-.006,4.653,4.653,0,0,0-4.659,4.647v5.814a3.983,3.983,0,0,0-1.936,3.419v.025a3.965,3.965,0,0,0,3.95,3.971h.981a12.079,12.079,0,0,0,7.247,8.943V36.4H49.348a6.294,6.294,0,0,0-6.286,6.287.874.874,0,0,0,1.748,0,4.544,4.544,0,0,1,4.539-4.539h5.3a4.6,4.6,0,0,0,4.511,3.72h.011a4.6,4.6,0,0,0,4.5-3.72h.16a12.078,12.078,0,0,0,7.243,8.941v2.721H65.856A6.294,6.294,0,0,0,59.57,56.1v1.818H44.809V46.764a.874.874,0,0,0-1.748,0V58.206a1.458,1.458,0,0,0,1.457,1.457h38.2a.874.874,0,1,0,0-1.748h-21.4V56.1a4.544,4.544,0,0,1,4.539-4.539h5.3a4.6,4.6,0,0,0,4.512,3.721h.011a4.6,4.6,0,0,0,4.5-3.721h5.3A4.544,4.544,0,0,1,90.015,56.1v1.818H86.8a.874.874,0,1,0,0,1.748h3.507a1.458,1.458,0,0,0,1.457-1.457V56.1a6.294,6.294,0,0,0-6.286-6.287H80.262V47.088A12.078,12.078,0,0,0,87.5,38.147Zm2.916-4v.025a2.215,2.215,0,0,1-2.2,2.223H87.7c.005-.145.009-.29.009-.436V31.923h.515A2.218,2.218,0,0,1,90.421,34.151Zm-2.4-3.976h-1.98a1.833,1.833,0,0,1-1.828-1.742h3.808v1.742Zm1.748-3.49h-28.2v-.291a1.458,1.458,0,0,1,1.457-1.457H88.31a1.458,1.458,0,0,1,1.457,1.457ZM62.9,36.4h-.056a2.215,2.215,0,0,1-2.2-2.223v-.025a2.218,2.218,0,0,1,2.2-2.228h.786v4.041c0,.146,0,.291.009.436Zm2.4-6.224h-2V28.433h3.825A1.828,1.828,0,0,1,65.3,30.175ZM77.269,15.032a3.791,3.791,0,0,1,3.787,3.787v4.37H70.277v-4.37a3.791,3.791,0,0,1,3.787-3.787Zm-7.236,0a5.513,5.513,0,0,0-1.5,3.787v4.37H63.315V21.15a6.125,6.125,0,0,1,6.118-6.118ZM88.018,21.15v2.039H82.8v-4.37a5.514,5.514,0,0,0-1.5-3.787h.6A6.125,6.125,0,0,1,88.018,21.15ZM46.069,11.793A2.905,2.905,0,0,1,48.9,8.9a1.021,1.021,0,0,0,.109.005A4.593,4.593,0,0,0,52.6,7.208c1.654-2.039,5.591-5.46,13.382-5.46h.83A1.168,1.168,0,0,1,68,2.915c0,.021,0,.041,0,.061a1.819,1.819,0,0,0,2.476,1.608l.032-.013a3.294,3.294,0,0,1,4.2,1.84l.066.159a4.17,4.17,0,0,1-.942,4.381A16.658,16.658,0,0,1,70.465,13.2a.879.879,0,0,0-.136.086h-.9A7.825,7.825,0,0,0,64.6,14.951a.885.885,0,0,0-.223-.008c-.607.059-1.232.089-1.857.089H52.3a2.042,2.042,0,0,0-2.039,2.039v3.215a.579.579,0,0,1-.572.572h-.828V17.923a.874.874,0,0,0-.874-.874H46.335c-.089,0-.178,0-.266.01Zm.266,11.481a2.215,2.215,0,0,1-2.2-2.223v-.025a2.218,2.218,0,0,1,2.2-2.228h.782v4.041c0,.146,0,.291.009.436Zm2.53-.436v-.232h.828a2.322,2.322,0,0,0,2.32-2.32V17.071a.3.3,0,0,1,.291-.291H62.519c.127,0,.253,0,.379,0a7.82,7.82,0,0,0-1.332,4.374v2.391a3.207,3.207,0,0,0-1.748,2.853v.792a4.782,4.782,0,0,1-3.78-1.118A.874.874,0,1,0,54.907,27.4a6.553,6.553,0,0,0,4.248,1.584,6.438,6.438,0,0,0,2.4-.466v1.877a3.981,3.981,0,0,0-2.526,2.732A10.3,10.3,0,0,1,48.865,22.838Zm10.3,17.282h-.007a2.847,2.847,0,0,1-2.847-2.847V34.535a12.014,12.014,0,0,0,2.644.338,3.973,3.973,0,0,0,2.946,3.16,2.853,2.853,0,0,1-2.737,2.087Zm6.212-4.156V31.921a3.576,3.576,0,0,0,3.5-3.488H82.46a3.583,3.583,0,0,0,3.5,3.488v4.043a10.289,10.289,0,1,1-20.579,0Zm13.137,14.72a2.847,2.847,0,1,1-5.694,0V47.66a12.055,12.055,0,0,0,5.694,0v3.024Z" transform="translate(-42.385 0)" fill="#fff"/>
          <path id="Trazado_100546" data-name="Trazado 100546" d="M297.781,334.868a.874.874,0,0,0-1.231-.106,4.763,4.763,0,0,1-6.243,0,.874.874,0,0,0-1.131,1.332,6.485,6.485,0,0,0,8.5,0,.874.874,0,0,0,.106-1.231Z" transform="translate(-260.145 -295.572)" fill="#fff"/>
          <path id="Trazado_100547" data-name="Trazado 100547" d="M364.915,289.476a.874.874,0,0,0,.874-.874v-1.488a.874.874,0,0,0-1.748,0V288.6A.874.874,0,0,0,364.915,289.476Z" transform="translate(-326.559 -252.885)" fill="#fff"/>
          <path id="Trazado_100548" data-name="Trazado 100548" d="M278.7,288.6v-1.488a.874.874,0,1,0-1.748,0V288.6a.874.874,0,1,0,1.748,0Z" transform="translate(-249.616 -252.885)" fill="#fff"/>
        </g>
      </g>
    </g>
  </g>
</svg>
