<svg xmlns="http://www.w3.org/2000/svg" width="107" height="107" viewBox="0 0 107 107">
  <g id="Grupo_53039" data-name="Grupo 53039" transform="translate(13434 7333)">
    <rect id="Rectángulo_28708" data-name="Rectángulo 28708" width="107" height="107" transform="translate(-13434 -7333)" fill="none"/>
    <g id="Grupo_53034" data-name="Grupo 53034" transform="translate(-13612.729 -11911)">
      <rect id="Line" width="13.177" height="2" transform="translate(196.729 4590)" fill="#ea3065"/>
      <g id="Grupo_49642" data-name="Grupo 49642" transform="translate(197 4614)">
        <path id="Trazado_100519" data-name="Trazado 100519" d="M77.027,65.772a8.606,8.606,0,0,0,7.159-3.8,4.548,4.548,0,0,0,2.931,1.257,12.822,12.822,0,0,0,11.649,7.382h3.155a12.824,12.824,0,0,0,11.65-7.386,4.506,4.506,0,0,0,2.875-1.278,8.591,8.591,0,0,0,7.178,3.82,1.7,1.7,0,0,0,1.7-1.7V52.438a7.183,7.183,0,0,0-7.175-7.176H115.66a2.767,2.767,0,0,0-2.544-1.684h-.5a2.762,2.762,0,0,0-1.407.389A12.847,12.847,0,0,0,101.921,40H98.766a12.847,12.847,0,0,0-9.3,3.979,2.762,2.762,0,0,0-1.43-.4h-.5a2.767,2.767,0,0,0-2.544,1.684H82.508a7.184,7.184,0,0,0-7.176,7.176V64.077A1.7,1.7,0,0,0,77.027,65.772Zm36.266-4.624a1.784,1.784,0,0,1-.246-.021,1.043,1.043,0,0,0-1.118.643,10.748,10.748,0,0,1-10.009,6.755H98.766A10.746,10.746,0,0,1,88.754,61.76a1.045,1.045,0,0,0-.969-.655,1.09,1.09,0,0,0-.186.016,1.469,1.469,0,0,1-.266.026,2.476,2.476,0,0,1-2.474-2.474V57.506a1.489,1.489,0,0,1,1.487-1.487h.583a1.045,1.045,0,0,0,1.045-1.045v-.12a10.842,10.842,0,0,1,8.481-4.122h7.774a10.843,10.843,0,0,1,8.482,4.122v.12a1.045,1.045,0,0,0,1.045,1.045h.26a1.707,1.707,0,0,1,1.7,1.705v.995A2.431,2.431,0,0,1,113.293,61.148Zm9.936-8.71V63.67a6.511,6.511,0,0,1-5.564-3.811,4.528,4.528,0,0,0,.146-1.14v-1a3.772,3.772,0,0,0-.742-2.246s-.012-1.946-.036-2.186a1.045,1.045,0,0,0-2.08.208,5.145,5.145,0,0,1,.026.516v.04c-.059-.016-.118-.033-.178-.046v-1.13a13,13,0,0,0-.151-1.975,2.776,2.776,0,0,0,1.229-2.293V47.352h2.264A5.092,5.092,0,0,1,123.23,52.438Zm-10.613-6.77h.5a.674.674,0,0,1,.674.673v1.534a12.9,12.9,0,0,0-1.2-2.206ZM98.766,42.09h3.155a10.806,10.806,0,0,1,10.736,9.7,12.937,12.937,0,0,0-8.426-3.147H96.457a12.937,12.937,0,0,0-8.427,3.147A10.807,10.807,0,0,1,98.766,42.09ZM87.535,45.668h.5c.021,0,.041,0,.062,0a12.845,12.845,0,0,0-1.234,2.291V46.341A.674.674,0,0,1,87.535,45.668Zm-10.113,6.77a5.091,5.091,0,0,1,5.086-5.086h2.264v1.261a2.763,2.763,0,0,0,1.261,2.317,12.97,12.97,0,0,0-.148,1.952v1.077c-.072.009-.143.021-.214.035,0-.164.009-.329.025-.49a1.045,1.045,0,0,0-2.08-.208c-.024.238-.036,1.946-.036,1.946a3.56,3.56,0,0,0-.81,2.265v1.168a4.535,4.535,0,0,0,.179,1.264,6.526,6.526,0,0,1-5.527,3.732Z" transform="translate(-64.947 -40)" fill="#00223d"/>
        <path id="Trazado_100520" data-name="Trazado 100520" d="M212.082,150.52a1.555,1.555,0,1,1-1.555-1.555A1.554,1.554,0,0,1,212.082,150.52Z" transform="translate(-180.165 -133.944)" fill="#00223d"/>
        <path id="Trazado_100521" data-name="Trazado 100521" d="M285.113,150.52a1.555,1.555,0,1,1-1.555-1.555A1.555,1.555,0,0,1,285.113,150.52Z" transform="translate(-243.128 -133.944)" fill="#00223d"/>
        <path id="Trazado_100522" data-name="Trazado 100522" d="M222.344,179.957H212.96a1.564,1.564,0,0,0-1.553,1.733,6.283,6.283,0,0,0,12.49,0,1.563,1.563,0,0,0-1.553-1.733Zm-4.692,5.237a4.184,4.184,0,0,1-4.062-3.148h8.124A4.184,4.184,0,0,1,217.652,185.194Z" transform="translate(-182.255 -160.663)" fill="#00223d"/>
        <path id="Trazado_100523" data-name="Trazado 100523" d="M289.833,264.71v-1.13A12.9,12.9,0,0,0,276.953,250.7H273.8a12.9,12.9,0,0,0-12.881,12.882v1.077a3.583,3.583,0,0,0-3.115,3.548v1.167a4.57,4.57,0,0,0,4.348,4.559,12.821,12.821,0,0,0,11.649,7.382h3.155a12.824,12.824,0,0,0,11.65-7.385,4.525,4.525,0,0,0,4.241-4.511v-.995A3.8,3.8,0,0,0,289.833,264.71ZM273.8,252.789h3.155a10.807,10.807,0,0,1,10.736,9.7,12.934,12.934,0,0,0-8.426-3.147h-7.774a12.934,12.934,0,0,0-8.426,3.147A10.806,10.806,0,0,1,273.8,252.789Zm16.956,16.629a2.431,2.431,0,0,1-2.429,2.429,1.745,1.745,0,0,1-.246-.02,1.043,1.043,0,0,0-1.118.643,10.747,10.747,0,0,1-10.008,6.755H273.8a10.746,10.746,0,0,1-10.012-6.765,1.044,1.044,0,0,0-1.155-.639,1.46,1.46,0,0,1-.266.026,2.476,2.476,0,0,1-2.474-2.474v-1.167a1.489,1.489,0,0,1,1.487-1.487h.583a1.045,1.045,0,0,0,1.045-1.045v-.12a10.845,10.845,0,0,1,8.482-4.121h7.774a10.845,10.845,0,0,1,8.482,4.121v.12a1.045,1.045,0,0,0,1.045,1.045h.26a1.707,1.707,0,0,1,1.705,1.7Z" transform="translate(-222.262 -221.653)" fill="#00223d"/>
        <path id="Trazado_100524" data-name="Trazado 100524" d="M340.6,361.223a1.555,1.555,0,1,1-1.555-1.555A1.555,1.555,0,0,1,340.6,361.223Z" transform="translate(-290.963 -315.6)" fill="#00223d"/>
        <path id="Trazado_100525" data-name="Trazado 100525" d="M413.629,361.223a1.555,1.555,0,1,1-1.555-1.555A1.554,1.554,0,0,1,413.629,361.223Z" transform="translate(-353.928 -315.6)" fill="#00223d"/>
        <path id="Trazado_100526" data-name="Trazado 100526" d="M350.859,390.656h-9.383a1.564,1.564,0,0,0-1.554,1.734,6.283,6.283,0,0,0,12.491,0,1.564,1.564,0,0,0-1.554-1.734Zm-4.692,5.238a4.184,4.184,0,0,1-4.062-3.148h8.124A4.185,4.185,0,0,1,346.167,395.894Z" transform="translate(-293.054 -342.316)" fill="#00223d"/>
        <path id="Trazado_100527" data-name="Trazado 100527" d="M32.033,264.71v-1.129A12.9,12.9,0,0,0,19.152,250.7H16A12.9,12.9,0,0,0,3.115,263.581v1.077A3.583,3.583,0,0,0,0,268.206v1.167a4.569,4.569,0,0,0,4.348,4.559A12.821,12.821,0,0,0,16,281.315h3.155a12.824,12.824,0,0,0,11.65-7.386,4.525,4.525,0,0,0,4.241-4.511v-.995A3.8,3.8,0,0,0,32.033,264.71Zm.92,4.709a2.432,2.432,0,0,1-2.429,2.429,1.746,1.746,0,0,1-.246-.02,1.043,1.043,0,0,0-1.118.643,10.748,10.748,0,0,1-10.008,6.755H16A10.746,10.746,0,0,1,5.984,272.46a1.043,1.043,0,0,0-1.155-.639,1.465,1.465,0,0,1-.266.026,2.476,2.476,0,0,1-2.474-2.474v-1.167a1.489,1.489,0,0,1,1.487-1.487H4.16a1.045,1.045,0,0,0,1.045-1.045v-.12a10.845,10.845,0,0,1,8.482-4.121h7.774a10.875,10.875,0,0,1,2.11.206,1.045,1.045,0,1,0,.406-2.05,12.966,12.966,0,0,0-2.516-.246H13.687a12.937,12.937,0,0,0-8.427,3.147A10.807,10.807,0,0,1,16,252.789h3.155a10.807,10.807,0,0,1,10.736,9.694,12.974,12.974,0,0,0-1.535-1.144,1.045,1.045,0,1,0-1.12,1.765,10.81,10.81,0,0,1,2.711,2.453v.116a1.045,1.045,0,0,0,1.045,1.045h.26a1.708,1.708,0,0,1,1.705,1.706Z" transform="translate(0 -221.653)" fill="#00223d"/>
        <path id="Trazado_100528" data-name="Trazado 100528" d="M82.8,361.223a1.555,1.555,0,1,1-1.555-1.555A1.555,1.555,0,0,1,82.8,361.223Z" transform="translate(-68.703 -315.6)" fill="#00223d"/>
        <path id="Trazado_100529" data-name="Trazado 100529" d="M155.828,361.223a1.555,1.555,0,1,1-1.555-1.555A1.554,1.554,0,0,1,155.828,361.223Z" transform="translate(-131.666 -315.6)" fill="#00223d"/>
        <path id="Trazado_100530" data-name="Trazado 100530" d="M93.059,390.656H83.675a1.564,1.564,0,0,0-1.553,1.734,6.283,6.283,0,0,0,12.49,0,1.564,1.564,0,0,0-1.554-1.734Zm-4.692,5.238a4.185,4.185,0,0,1-4.062-3.148h8.124A4.184,4.184,0,0,1,88.366,395.894Z" transform="translate(-70.793 -342.316)" fill="#00223d"/>
      </g>
    </g>
  </g>
</svg>
