<svg xmlns="http://www.w3.org/2000/svg" width="463.057" height="413.241" viewBox="0 0 463.057 413.241">
  <g id="Grupo_50094" data-name="Grupo 50094" transform="translate(-397.83 -6853.955)">
    <g id="Floor">
      <ellipse id="Floor-2" data-name="Floor" cx="231.528" cy="129.834" rx="231.528" ry="129.834" transform="translate(397.83 7007.529)" fill="#7cc5ff"/>
      <g id="Lines">
        <path id="Trazado_110810" data-name="Trazado 110810" d="M833.918,7190.934a9.57,9.57,0,0,0-8.66,0L705.69,7259.966c31.916-6.234,61.884-16.5,87.383-30.8,19.091-10.705,34.135-22.819,45.164-35.74Z" fill="#fafafa"/>
        <path id="Trazado_110811" data-name="Trazado 110811" d="M476.466,7153.184l19.773,11.416a9.576,9.576,0,0,0,8.66,0l137.575-79.427c2.391-1.381,2.392-3.619,0-5L622.7,7068.756a9.57,9.57,0,0,0-8.66,0l-137.573,79.427C474.074,7149.564,474.074,7151.8,476.466,7153.184Z" fill="#fafafa"/>
        <path id="Trazado_110812" data-name="Trazado 110812" d="M589.669,7049.628l-19.775-11.417a9.57,9.57,0,0,0-8.66,0l-137.573,79.428c-2.391,1.381-2.391,3.619,0,5l19.774,11.416a9.57,9.57,0,0,0,8.66,0l137.574-79.427C592.061,7053.248,592.061,7051.009,589.669,7049.628Z" fill="#fafafa"/>
        <path id="Trazado_110813" data-name="Trazado 110813" d="M536.865,7019.084l-.942-.544c-25.5,6.3-49.391,15.3-70.279,27.016-27.186,15.245-46.186,33.34-57.024,52.568l128.245-74.04C539.256,7022.7,539.256,7020.464,536.865,7019.084Z" fill="#fafafa"/>
        <path id="Trazado_110814" data-name="Trazado 110814" d="M634.88,7244.817l19.773,11.416a9.572,9.572,0,0,0,8.661,0l137.574-79.426c2.392-1.381,2.392-3.62,0-5l-19.775-11.418a9.573,9.573,0,0,0-8.66,0L634.88,7239.817C632.488,7241.2,632.488,7243.437,634.88,7244.817Z" fill="#fafafa"/>
        <path id="Trazado_110815" data-name="Trazado 110815" d="M748.083,7141.262l-19.774-11.417a9.569,9.569,0,0,0-8.661,0l-137.573,79.428c-2.391,1.38-2.391,3.619,0,5l19.774,11.416a9.57,9.57,0,0,0,8.66,0l137.574-79.427C750.475,7144.881,750.475,7142.643,748.083,7141.262Z" fill="#fafafa"/>
        <path id="Trazado_110816" data-name="Trazado 110816" d="M675.5,7099.3a9.576,9.576,0,0,0-8.66,0l-137.573,79.428c-2.392,1.381-2.392,3.619,0,5l19.773,11.416a9.57,9.57,0,0,0,8.66,0l137.575-79.427c2.391-1.38,2.391-3.619,0-5Z" fill="#fafafa"/>
      </g>
    </g>
    <path id="Shadow" d="M517.648,7124.335q.768.173,1.534.352c6.932,1.624,13.764,3.735,20.8,4.792,2.028.3,4.08.478,6.127.583a36.32,36.32,0,0,0,11.414-.778c3-.827,6.836-3.743,4.485-7.239-.645-.96-1.5-1.952-1.366-3.1a3.815,3.815,0,0,1,2.134-2.5c7.668-4.646,17.334-5.717,26.132-4.871,7.613.732,15.084,4.989,22.454,7.01,8.1,2.223,16.6,3.513,24.979,2.243,2.878-.437,6.17-1.58,7.009-4.368a5.806,5.806,0,0,0-1.849-5.618,17.094,17.094,0,0,0-5.36-3.09c-5.579-2.368-12.65-4.193-17.58-7.666a94.4,94.4,0,0,1-9.356-7.519c-2.6-2.381-5.106-3.49-8.279-5.056-12.717-6.274-26.339-11.562-40.519-11.715-4.561-.049-9.465.579-12.863,3.621-2.306,2.065-3.627,4.987-5.5,7.45-2.4,3.153-6.327,4.484-9.885,5.938a32.048,32.048,0,0,1-14.817,1.927,81.163,81.163,0,0,1-15.5-3.36c-4.313-1.263-8.829-1.95-12.99-3.5a30.063,30.063,0,0,0-16.982-1.186c-3.728.836-10.638,2.391-11.166,6.967-.312,2.706,1.064,5.316,2.662,7.522,6.068,8.381,15.682,13.558,25.545,16.687C498.279,7120.825,508.062,7122.185,517.648,7124.335Z" opacity="0.07"/>
    <ellipse id="Shadow-2" data-name="Shadow" cx="44.198" cy="25.518" rx="44.198" ry="25.518" transform="translate(732.754 7064.405)" opacity="0.07"/>
    <ellipse id="Shadow-3" data-name="Shadow" cx="53.315" cy="30.782" rx="53.315" ry="30.782" transform="translate(628.833 7144.691)" opacity="0.07"/>
    <g id="Character">
      <g id="Grupo_50028" data-name="Grupo 50028">
        <path id="Trazado_110817" data-name="Trazado 110817" d="M716.445,6924.076s3.058.15,7.245.115,14.158-.706,18.06-1.944c5.922-3.731,14.342-14.788,17.859-18.071,2.626-2.453,5.4-3.957,10.378-3.164,3.27.521,5.592,10,.834,15.047-4.433,4.7-12.909,14.264-22.6,18.634-4.177,1.884-9.113,1.218-20.014.659a97.749,97.749,0,0,1-13.052-1.2C712.264,6933.7,716.445,6924.076,716.445,6924.076Z" fill="#ffaaa8"/>
        <path id="Trazado_110818" data-name="Trazado 110818" d="M718.855,6931.3a16.969,16.969,0,0,0,.893-6.04l-.193-.1a22.459,22.459,0,0,1-6.545-.962l-1.194.582c-1.392,2.017-2.286,8.036-.767,8.467a39.687,39.687,0,0,0,4.107.915C717.388,6934.311,718.362,6932.588,718.855,6931.3Z" fill="#ff9090"/>
        <g id="Grupo_50027" data-name="Grupo 50027">
          <path id="Trazado_110819" data-name="Trazado 110819" d="M713.929,6933.63c-5.892-.2-8.069-3.185-8.889-8.354a106.436,106.436,0,0,1-.746-13.706c-.066-1.8.459-2.4,1.173-2.509.269-.039,1.406.252,1.533,2.162.231,3.485.321,5.63.987,5.606s.556-2.608.5-6.131c-.035-2.371.04-4.373,1.365-4.373,1.408,0,1.759,1.411,1.829,4.625s-.018,5.585.844,5.648c.686.051.545-3.353.7-5.551.156-2.214.151-3.508,1.523-3.48,1.244.026,1.582,1.793,1.531,3.956a84.727,84.727,0,0,0,.224,8.839c.38,1.274,1.7-1.853,2.659-3.136,1.579-2.1,3.5-1.142,2.724.774a37.859,37.859,0,0,0-2.14,7.258C719.333,6927.618,718.336,6933.652,713.929,6933.63Z" fill="#ffaaa8"/>
          <path id="Trazado_110820" data-name="Trazado 110820" d="M713.952,6922.955s-3.549,3.7-2.268,7.642a5.222,5.222,0,0,1-.635-5.291A4.005,4.005,0,0,1,713.952,6922.955Z" fill="#ff9090"/>
        </g>
      </g>
      <g id="Grupo_50030" data-name="Grupo 50030">
        <path id="Trazado_110821" data-name="Trazado 110821" d="M799.389,7088.041h-8.412l-1.12-14.9,9.532,1.491Z" fill="#ffaaa8"/>
        <g id="Grupo_50029" data-name="Grupo 50029">
          <path id="Trazado_110822" data-name="Trazado 110822" d="M780.753,7103.7a3.848,3.848,0,0,0,.114,2.556c.332.521,2.239,2.148,5.689,2.4,3.3.236,6.24-.208,8.175-1.437a5.7,5.7,0,0,0,3.054-4.462c.183-1.878-.026-3.689.869-5.135.827-1.334,2.143-2.838,2.43-3.562a7.312,7.312,0,0,0,.023-3.824Z" fill="#1a2e35"/>
          <path id="Trazado_110823" data-name="Trazado 110823" d="M789.775,7087.308a7.249,7.249,0,0,1-.38,2.091,19.1,19.1,0,0,1-2.019,4.13,16.782,16.782,0,0,1-1.374,1.939c-1,1.187-2.236,2.161-3.291,3.3a6.747,6.747,0,0,0-2.036,4.046c-.14,2.586,2.666,3.464,4.826,3.849a15.866,15.866,0,0,0,7.021-.353,6.447,6.447,0,0,0,4.729-5.152c.119-.717.075-1.451.16-2.174a10.155,10.155,0,0,1,2.011-4.523,13.627,13.627,0,0,0,1.542-2.462c.674-1.6.134-3.4-.3-5-.372-1.377-.794-2.935-1.278-2.8-.006.714,0,.788-.51,1.272-.648.612-.676,1.533-1.36,2.073a9.406,9.406,0,0,0,.48-1.838,1.047,1.047,0,0,0-.146-.732,1.927,1.927,0,0,0-.793-.424,15.831,15.831,0,0,0-3.14-.714,9.38,9.38,0,0,0-3.064-.023,1.331,1.331,0,0,0-.77.446,1.535,1.535,0,0,0-.275.884C789.765,7085.555,789.8,7086.622,789.775,7087.308Z" fill="#69f"/>
          <path id="Trazado_110824" data-name="Trazado 110824" d="M789.775,7087.308a7.249,7.249,0,0,1-.38,2.091,19.1,19.1,0,0,1-2.019,4.13,16.782,16.782,0,0,1-1.374,1.939c-1,1.187-2.236,2.161-3.291,3.3a6.747,6.747,0,0,0-2.036,4.046c-.14,2.586,2.666,3.464,4.826,3.849a15.866,15.866,0,0,0,7.021-.353,6.447,6.447,0,0,0,4.729-5.152c.119-.717.075-1.451.16-2.174a10.155,10.155,0,0,1,2.011-4.523,13.627,13.627,0,0,0,1.542-2.462c.674-1.6.134-3.4-.3-5-.372-1.377-.794-2.935-1.278-2.8-.006.714,0,.788-.51,1.272-.648.612-.676,1.533-1.36,2.073a9.406,9.406,0,0,0,.48-1.838,1.047,1.047,0,0,0-.146-.732,1.927,1.927,0,0,0-.793-.424,15.831,15.831,0,0,0-3.14-.714,9.38,9.38,0,0,0-3.064-.023,1.331,1.331,0,0,0-.77.446,1.535,1.535,0,0,0-.275.884C789.765,7085.555,789.8,7086.622,789.775,7087.308Z" opacity="0.4"/>
          <path id="Trazado_110825" data-name="Trazado 110825" d="M787.028,7094.072c.963-.722,3.12-.731,4.3-.6a7.141,7.141,0,0,1,3.353,1.177.765.765,0,0,0,.987-.078h0a.72.72,0,0,0-.073-1.1,7.286,7.286,0,0,0-3.773-1.4c-2.9-.2-3.754.293-3.754.293S786.743,7093.214,787.028,7094.072Z" fill="#f5f5f5"/>
          <path id="Trazado_110826" data-name="Trazado 110826" d="M784.814,7096.72c1.211-.715,3.583-.612,4.763-.486a6.728,6.728,0,0,1,3.26,1.24.766.766,0,0,0,.988-.078h0a.72.72,0,0,0-.073-1.1,7.555,7.555,0,0,0-3.854-1.509c-2.9-.205-3.66.388-3.66.388A2.4,2.4,0,0,0,784.814,7096.72Z" fill="#f5f5f5"/>
          <path id="Trazado_110827" data-name="Trazado 110827" d="M792.977,7089.291a7.2,7.2,0,0,0-3.649.306c-.511.287-.848,1.095-.519,1.3a6.715,6.715,0,0,1,3.235-.444,9.6,9.6,0,0,1,3.139.863c.248.11.542.264.8.407a.688.688,0,0,0,.955-.3h0a.642.642,0,0,0-.251-.829A9.29,9.29,0,0,0,792.977,7089.291Z" fill="#f5f5f5"/>
        </g>
      </g>
      <g id="Grupo_50032" data-name="Grupo 50032">
        <path id="Trazado_110828" data-name="Trazado 110828" d="M770.276,7079.7l-9.224.317-.144-15.835,10.7-.629Z" fill="#ffaaa8"/>
        <g id="Grupo_50031" data-name="Grupo 50031">
          <path id="Trazado_110829" data-name="Trazado 110829" d="M742.971,7090.78a3.128,3.128,0,0,0,.129,2.3c.321.673,3.838,2.656,8.582,2.336a19.746,19.746,0,0,0,9.81-3.429c1.809-1.2,3.691-1.421,6.041-1.555s5.433-1.306,5.949-2.405a5.2,5.2,0,0,0-.078-2.99Z" fill="#1a2e35"/>
          <path id="Trazado_110830" data-name="Trazado 110830" d="M762.114,7075.975c-.123-.027-.248-.053-.375-.078a1.474,1.474,0,0,0-.625-.033,1.218,1.218,0,0,0-.586.4,11.721,11.721,0,0,0-1.212,1.9c-.994,1.622-3.082,2.965-5.361,4.191-1.55.833-3.068,1.479-4.669,2.2-1.632.734-3.8,1.183-5.075,2.043-1.862,1.255-2.1,4.408.019,5.652,1.829,1.074,6.643,2.238,11.692.808,2.751-.779,5.8-3.718,9.414-4,2.3-.179,6.637-.824,8.115-2.568.547-.773-.183-3.224-.782-5.34-.653-2.309-1.275-5.913-2.04-5.71a1.051,1.051,0,0,1-.4.862c-.283.293-.664.48-.973.743a6.091,6.091,0,0,0-1.27,1.827,1.372,1.372,0,0,1-.652.707c-.386.145-.676-.1-1.015-.255a1.973,1.973,0,0,0-1.372-.1,8.639,8.639,0,0,1,.242-1.355.792.792,0,0,0,.034-.437.7.7,0,0,0-.294-.331A7.346,7.346,0,0,0,762.114,7075.975Z" fill="#69f"/>
          <path id="Trazado_110831" data-name="Trazado 110831" d="M762.114,7075.975c-.123-.027-.248-.053-.375-.078a1.474,1.474,0,0,0-.625-.033,1.218,1.218,0,0,0-.586.4,11.721,11.721,0,0,0-1.212,1.9c-.994,1.622-3.082,2.965-5.361,4.191-1.55.833-3.068,1.479-4.669,2.2-1.632.734-3.8,1.183-5.075,2.043-1.862,1.255-2.1,4.408.019,5.652,1.829,1.074,6.643,2.238,11.692.808,2.751-.779,5.8-3.718,9.414-4,2.3-.179,6.637-.824,8.115-2.568.547-.773-.183-3.224-.782-5.34-.653-2.309-1.275-5.913-2.04-5.71a1.051,1.051,0,0,1-.4.862c-.283.293-.664.48-.973.743a6.091,6.091,0,0,0-1.27,1.827,1.372,1.372,0,0,1-.652.707c-.386.145-.676-.1-1.015-.255a1.973,1.973,0,0,0-1.372-.1,8.639,8.639,0,0,1,.242-1.355.792.792,0,0,0,.034-.437.7.7,0,0,0-.294-.331A7.346,7.346,0,0,0,762.114,7075.975Z" opacity="0.4"/>
          <path id="Trazado_110832" data-name="Trazado 110832" d="M756.1,7081.1a2.127,2.127,0,0,1,1.7-1.135c1.045-.2,2.89.575,4.037,1.52a.857.857,0,0,1-.124,1.415h0a.855.855,0,0,1-.978-.108A6.544,6.544,0,0,0,756.1,7081.1Z" fill="#f5f5f5"/>
          <path id="Trazado_110833" data-name="Trazado 110833" d="M752.861,7082.917a2.45,2.45,0,0,1,2.009-1.035,7.635,7.635,0,0,1,4.416,1.652.837.837,0,0,1-.115,1.368h0a.817.817,0,0,1-.942-.109A6.564,6.564,0,0,0,752.861,7082.917Z" fill="#f5f5f5"/>
          <path id="Trazado_110834" data-name="Trazado 110834" d="M749.286,7084.551a2.748,2.748,0,0,1,2.087-.935,7.34,7.34,0,0,1,4.23,1.669.837.837,0,0,1-.116,1.368h0a.817.817,0,0,1-.942-.109A6.271,6.271,0,0,0,749.286,7084.551Z" fill="#f5f5f5"/>
        </g>
      </g>
      <g id="Grupo_50034" data-name="Grupo 50034">
        <g id="Grupo_50033" data-name="Grupo 50033">
          <path id="Trazado_110835" data-name="Trazado 110835" d="M796.868,6954.728c6.762,15.393.9,62.89.9,62.89.21,2.482,3.048,9.509,4.105,20.431,1.249,12.905-2.306,41.862-2.306,41.862a11.307,11.307,0,0,1-9.226-.307s-8.162-46.831-9.78-59.661c-1.413-11.2-5.363-35.532-5.363-35.532l-.969,35.336s1.4,8.9,1.863,13.677c.731,7.547-4.505,38.409-4.505,38.409s-6.032,1.931-10.918-.046c0,0-3.592-43.314-4.274-52.406-.912-12.175-2.942-47.764-.158-64.841Z" fill="#12263f"/>
          <path id="Trazado_110836" data-name="Trazado 110836" d="M775.2,6984.411l-1.658-11.4s-9.627-1.287-13.989-5.387a15.807,15.807,0,0,0,11.345,7.169l1.7,10.308,1.738,30.865Z" fill="#1a2e35" opacity="0.6"/>
        </g>
      </g>
      <g id="Grupo_50035" data-name="Grupo 50035">
        <path id="Trazado_110837" data-name="Trazado 110837" d="M783.025,6901.352l2.921.225s8.487,1.746,9.177,3.063c1.605,3.064,1.705,3.991,1.745,7.579a31.816,31.816,0,0,1-2.569,12.636l-3.067,12.353c-.616,3.464,5.078,11.19,6.729,19.98-11.531,6.436-27.285,5.293-35.414,1.812a15.946,15.946,0,0,1-6.309-4.46c1.34-7.066,1.617-11.89,3.692-18.432,0,0-.6-4.073-.709-7.392-4.4-4.181-4.457-11.283-1.766-15.084,5.907-8.342,11.417-12.577,12.532-12.62Z" fill="#69f"/>
        <path id="Trazado_110838" data-name="Trazado 110838" d="M783.025,6901.352l2.921.225s8.487,1.746,9.177,3.063c1.605,3.064,1.705,3.991,1.745,7.579a31.816,31.816,0,0,1-2.569,12.636l-3.067,12.353c-.616,3.464,5.078,11.19,6.729,19.98-11.531,6.436-27.285,5.293-35.414,1.812a15.946,15.946,0,0,1-6.309-4.46c1.34-7.066,1.617-11.89,3.692-18.432,0,0-.6-4.073-.709-7.392-4.4-4.181-4.457-11.283-1.766-15.084,5.907-8.342,11.417-12.577,12.532-12.62Z" fill="#fff" opacity="0.7"/>
      </g>
      <g id="Grupo_50046" data-name="Grupo 50046">
        <g id="Grupo_50045" data-name="Grupo 50045">
          <path id="Trazado_110839" data-name="Trazado 110839" d="M783.991,6895.92c0-2.286,5.747-6.854,7.97-10.077s7-12.506.655-16.358c0,0,1.222-6.148-3.25-9.7-5.092-4.043-13.285-3.984-22.236-2.688s-11.843-.531-13.461,3.256,1.671,7.685,3.378,8.465c0,0-3.067,3.783-.488,7.372s9.355,2.482,9.355,2.482Z" fill="#12263f"/>
          <g id="Grupo_50036" data-name="Grupo 50036">
            <path id="Trazado_110840" data-name="Trazado 110840" d="M764.083,6865.163c-2.147,1.268-4.8,6.669-4.539,17.989.222,9.6,3.332,11.965,4.894,12.648s4.573.268,7.5-.22l0,5.633s-3.591,3.277.382,4.05c8.655,1.684,11.672-3.7,11.672-3.7v-13.626s1.6,1.7,4.438-.245a5.23,5.23,0,0,0,1.338-7.593,3.867,3.867,0,0,0-5.875.7s-3.931-.346-10.149-3.762A20.039,20.039,0,0,1,764.083,6865.163Z" fill="#ffaaa8"/>
          </g>
          <path id="Trazado_110841" data-name="Trazado 110841" d="M783.892,6880.8v3.829h0a3.108,3.108,0,0,1-3.108-3.108v-4.483Z" fill="#12263f"/>
          <g id="Grupo_50039" data-name="Grupo 50039">
            <path id="Trazado_110842" data-name="Trazado 110842" d="M756.559,6895.065a5.168,5.168,0,0,1,2.339-4.051,1.649,1.649,0,0,1,1.635-.171l0,0,.015.009,0,0,2.374,1.372-3.34,5.709-2.342-1.352,0,0-.007,0h0A1.646,1.646,0,0,1,756.559,6895.065Z" fill="#0a4b6e"/>
            <path id="Trazado_110843" data-name="Trazado 110843" d="M761.236,6892.364a5.173,5.173,0,0,0-2.339,4.051c0,1.492,1.048,2.1,2.339,1.351a5.171,5.171,0,0,0,2.339-4.051C763.575,6892.223,762.528,6891.618,761.236,6892.364Z" fill="#12263f"/>
            <path id="Trazado_110844" data-name="Trazado 110844" d="M765.914,6889.663v.775a1.1,1.1,0,0,1-.5.864l-4.179,2.413v-1.351Z" fill="#12263f"/>
            <path id="Trazado_110845" data-name="Trazado 110845" d="M763.575,6888.313l2.339,1.351-4.678,2.7-2.339-1.351Z" fill="#0a4b6e"/>
            <g id="Grupo_50037" data-name="Grupo 50037">
              <path id="Trazado_110846" data-name="Trazado 110846" d="M757.047,6890.006s-.146-.406-.364-1.015-.531-1.41-.834-2.215-.594-1.618-.864-2.2l-.19-.4a1.251,1.251,0,0,0-.17-.295.637.637,0,0,0-.374-.153l-.154.071a.634.634,0,0,0-.128.384,1.261,1.261,0,0,0,.113.32l.177.4c.267.586.694,1.335,1.107,2.09s.827,1.511,1.137,2.077.533.937.533.937Z" fill="#e1e1e1"/>
              <path id="Trazado_110847" data-name="Trazado 110847" d="M755.052,6891.882l-.934-.538c-.565-.312-1.318-.73-2.071-1.147s-1.5-.848-2.085-1.118c-.147-.065-.282-.125-.4-.179a1.277,1.277,0,0,0-.321-.115.638.638,0,0,0-.384.127l-.071.153a.633.633,0,0,0,.15.375,1.232,1.232,0,0,0,.295.171l.4.192c.583.274,1.394.568,2.2.876l2.211.846,1.013.368Z" fill="#e1e1e1"/>
              <path id="Trazado_110848" data-name="Trazado 110848" d="M754.92,6894.863l-1.067.148-2.34.363c-.851.133-1.705.25-2.332.4l-.427.1a1.242,1.242,0,0,0-.324.106.639.639,0,0,0-.226.335l.038.165a.639.639,0,0,0,.349.2,1.241,1.241,0,0,0,.337-.045l.43-.091c.629-.141,1.449-.406,2.273-.656l2.266-.687,1.026-.33Z" fill="#e1e1e1"/>
              <path id="Trazado_110849" data-name="Trazado 110849" d="M756,6897.482l-.784.739-1.7,1.651c-.617.6-1.246,1.191-1.673,1.673l-.287.332a1.233,1.233,0,0,0-.2.274.639.639,0,0,0,.01.4l.126.113a.636.636,0,0,0,.4-.036,1.242,1.242,0,0,0,.249-.233l.3-.323c.43-.479.946-1.17,1.473-1.85l1.449-1.873.645-.863Z" fill="#e1e1e1"/>
            </g>
            <g id="Grupo_50038" data-name="Grupo 50038">
              <path id="Trazado_110850" data-name="Trazado 110850" d="M760.024,6890.7l1.594.92-.8.46-1.594-.92Z" fill="#12263f"/>
              <path id="Trazado_110851" data-name="Trazado 110851" d="M761.618,6891.616l-1.594-.92v.3l1.334.771Z" fill="#1a2e35"/>
              <path id="Trazado_110852" data-name="Trazado 110852" d="M760.024,6891l-.537.31-.26-.15.8-.46Z"/>
            </g>
          </g>
          <g id="Grupo_50040" data-name="Grupo 50040">
            <path id="Trazado_110853" data-name="Trazado 110853" d="M771.876,6880.742a1.207,1.207,0,1,0,1.268-1.2A1.227,1.227,0,0,0,771.876,6880.742Z" fill="#1a2e35"/>
          </g>
          <g id="Grupo_50041" data-name="Grupo 50041">
            <path id="Trazado_110854" data-name="Trazado 110854" d="M761.179,6877.037l2.441-1.692a1.425,1.425,0,0,0-2.027-.416A1.559,1.559,0,0,0,761.179,6877.037Z" fill="#1a2e35"/>
          </g>
          <g id="Grupo_50042" data-name="Grupo 50042">
            <path id="Trazado_110855" data-name="Trazado 110855" d="M761.742,6879.87a1.207,1.207,0,1,0,1.268-1.2A1.225,1.225,0,0,0,761.742,6879.87Z" fill="#1a2e35"/>
          </g>
          <g id="Grupo_50043" data-name="Grupo 50043">
            <path id="Trazado_110856" data-name="Trazado 110856" d="M768.439,6879.179l-.192,7.263-3.823-1.184Z" fill="#ff9090"/>
          </g>
          <g id="Grupo_50044" data-name="Grupo 50044">
            <path id="Trazado_110857" data-name="Trazado 110857" d="M771.939,6895.58c3.086-.405,9.434-2.229,10.423-4.738a6.5,6.5,0,0,1-2.226,3.2c-1.9,1.626-8.2,3.457-8.2,3.457Z" fill="#ff9090"/>
          </g>
        </g>
      </g>
      <g id="Grupo_50047" data-name="Grupo 50047">
        <path id="Trazado_110858" data-name="Trazado 110858" d="M785.946,6901.577s-1.306,5.552-7.824,10.822a72.72,72.72,0,0,1-10.992,7.579s-2.836-5.276-1.19-10.509c2.164-6.876,5.357-8.457,5.357-8.457l-2.258-.127s-3.34,1.412-7.783,6.6c-6.624,7.731-6.783,11.472-5.458,16.2a12.941,12.941,0,0,0,3.09,5.135l.156,7.123-3.734,20.684s4.495,5.794,18.005,7.047c19.415,1.8,25.276-5.421,25.276-5.421-.63-6.648-4.184-14.388-4.63-20.71-.514-7.268,3.106-14.335,3.718-22.155a24.958,24.958,0,0,0-.855-8.79,6.308,6.308,0,0,0-5.492-4.509Z" fill="#69f"/>
        <path id="Trazado_110859" data-name="Trazado 110859" d="M797.181,6951.232c-.254-.939-.521-1.881-.791-2.823-7.077,4.863-21.693,5.323-29.26,3.627a15.727,15.727,0,0,1-9.764-6.8l-.629,3.487c1.4,2.38,4.511,5.416,10.393,6.734C774.992,6957.215,790.464,6956.648,797.181,6951.232Z" fill="#fafafa"/>
        <path id="Trazado_110860" data-name="Trazado 110860" d="M795.449,6945.094c-.277-1.013-.533-2.013-.757-3-7.513,3.909-20.557,4.188-27.562,2.618a15.526,15.526,0,0,1-8.7-5.37l-.639,3.539a16.515,16.515,0,0,0,9.34,5.248C774.377,6949.754,788.086,6949.4,795.449,6945.094Z" fill="#fafafa"/>
        <path id="Trazado_110861" data-name="Trazado 110861" d="M767.13,6919.978c-1.623,3.974-2.463,35.7-1.269,45.32l-1.716-.373c-.6-5.772-.068-23.214.6-31.709C765.287,6926.258,765.9,6921.9,767.13,6919.978Z" opacity="0.15"/>
      </g>
      <g id="Grupo_50053" data-name="Grupo 50053">
        <g id="Grupo_50048" data-name="Grupo 50048">
          <path id="Trazado_110862" data-name="Trazado 110862" d="M839.8,6951.829a13.8,13.8,0,0,0-.061-1.69,12.531,12.531,0,0,0-1.35-5.18c-.937-1.634-2.38-1.986-4.055-2.628-2.731-1.047-3.694-.428-6.443-1.426-3.9-1.416-11.606-4.435-16.093-6.512,0,0-8.424-22.906-10.983-27.814-2.276-4.364-4.963-4.338-11.344-4.68-2.675,10.775-2.066,18.514,3.86,24.24,0,0,5.8,10.917,8.256,14.947s2.925,4.736,8.927,6.191c5.562,1.349,16.534,4.546,18.665,5.116,2.8.749,5.187,7.15,10.09,1.717A3.508,3.508,0,0,0,839.8,6951.829Z" fill="#ffaaa8"/>
        </g>
        <g id="Grupo_50051" data-name="Grupo 50051">
          <path id="Trazado_110863" data-name="Trazado 110863" d="M837.485,6915.765a1.273,1.273,0,0,0-.738-1.006,3.96,3.96,0,0,0-3.583,0,1.272,1.272,0,0,0-.737,1.007h-.005v61.125c0,.792,1.133,1.435,2.532,1.435s2.531-.643,2.531-1.435h0v-61.125Z" fill="#12263f"/>
          <g id="Grupo_50050" data-name="Grupo 50050">
            <path id="Trazado_110864" data-name="Trazado 110864" d="M846.048,6866l-18.273-10.55-3.913,2.258-12.921,9.768v24.363l12.921,24.687,18.272,10.55,3.913-2.258,12.921-9.768v-24.363Z" fill="#1a2e35"/>
            <path id="Trazado_110865" data-name="Trazado 110865" d="M842.136,6868.255l-18.273-10.55-12.921,9.768v24.363l12.921,24.687,18.273,10.55,12.921-9.768v-24.363Z" fill="#0a4b6e"/>
            <path id="Trazado_110866" data-name="Trazado 110866" d="M826.4,6914.093l-12.083-23.085V6869.15l9.8-7.408,15.49,8.943,12.082,23.086v21.858l-9.8,7.409Z" fill="#69f"/>
            <g id="Grupo_50049" data-name="Grupo 50049">
              <path id="Trazado_110867" data-name="Trazado 110867" d="M817.52,6885.549c0-.251.17-.344.381-.207l1.577,1.021a.932.932,0,0,1,.381.7v1.429a8.919,8.919,0,0,0,.23,2.345,2.05,2.05,0,0,0,.866,1.192q.634.413.843.025a3.854,3.854,0,0,0,.207-1.567,7.272,7.272,0,0,0-.369-2.3,16.279,16.279,0,0,0-1.169-2.591l-1.2-2.2a19.046,19.046,0,0,1-1.3-2.939,8.783,8.783,0,0,1-.465-2.811q0-2.319.774-2.945t2.661.6a6.2,6.2,0,0,1,2.556,2.968,11.985,11.985,0,0,1,.667,4.265v.7c0,.251-.17.344-.381.207l-1.512-.978a.932.932,0,0,1-.381-.7v-.886a8.171,8.171,0,0,0-.2-2.083,1.838,1.838,0,0,0-.778-1.094q-.576-.372-.829-.089a1.874,1.874,0,0,0-.253,1.176,4.567,4.567,0,0,0,.257,1.591,17.242,17.242,0,0,0,.932,1.964l1.334,2.534a21.689,21.689,0,0,1,1.516,3.522,10.416,10.416,0,0,1,.51,3.138q0,2.626-.764,3.387t-2.675-.477a6.6,6.6,0,0,1-2.661-3.121,12.337,12.337,0,0,1-.751-4.565Z" fill="#fafafa"/>
              <path id="Trazado_110868" data-name="Trazado 110868" d="M827.005,6897.715v-15.342a.932.932,0,0,0-.381-.7l-1.136-.735a.931.931,0,0,1-.38-.7v-1.56c0-.251.17-.343.38-.207l5.419,3.507a.931.931,0,0,1,.381.7v1.56c0,.251-.171.343-.381.207l-1.061-.687c-.211-.136-.381-.044-.381.207v15.342c0,.25-.171.343-.381.207l-1.7-1.1A.927.927,0,0,1,827.005,6897.715Z" fill="#fafafa"/>
              <path id="Trazado_110869" data-name="Trazado 110869" d="M838.766,6904.643q-.848.8-2.712-.405a7.22,7.22,0,0,1-2.735-3.126,11.222,11.222,0,0,1-.87-4.652v-8.56q0-5.148,3.638-2.793a7.063,7.063,0,0,1,2.7,3.058,10.659,10.659,0,0,1,.824,4.372v8.561Q839.614,6903.841,838.766,6904.643Zm-3.614-4.1a2.049,2.049,0,0,0,.889,1.223q.67.434.883-.093a6.869,6.869,0,0,0,.212-2.143v-8.72a7.863,7.863,0,0,0-.216-2.081,1.994,1.994,0,0,0-.848-1.16q-.63-.408-.883.04a4.061,4.061,0,0,0-.254,1.765v8.731A9.975,9.975,0,0,0,835.152,6900.539Z" fill="#fafafa"/>
              <path id="Trazado_110870" data-name="Trazado 110870" d="M841.851,6907.324v-17.809c0-.25.171-.343.381-.207l3.34,2.162a6.341,6.341,0,0,1,2.584,3,12.725,12.725,0,0,1,.732,4.425v.394a7.249,7.249,0,0,1-.686,3.783q-.687,1-2.547-.208l-.955-.618c-.21-.136-.381-.043-.381.207v6.473c0,.251-.17.343-.381.207l-1.706-1.1A.928.928,0,0,1,841.851,6907.324Zm2.849-7.432.467.3q.783.505,1.018-.038a8.05,8.05,0,0,0,.234-2.5v-.362a10.215,10.215,0,0,0-.253-2.535,2.279,2.279,0,0,0-.981-1.348l-.485-.314c-.21-.136-.381-.043-.381.208v5.888A.932.932,0,0,0,844.7,6899.892Z" fill="#fafafa"/>
            </g>
            <path id="Trazado_110871" data-name="Trazado 110871" d="M823.863,6857.705l3.913-2.258L846.048,6866l-3.913,2.258Z" fill="#0a4b6e"/>
            <path id="Trazado_110872" data-name="Trazado 110872" d="M823.863,6857.705l3.913-2.258L846.048,6866l-3.913,2.258Z" fill="#fff" opacity="0.1"/>
            <path id="Trazado_110873" data-name="Trazado 110873" d="M858.969,6890.684l-3.913,2.258-12.921-24.687,3.913-2.258Z" fill="#12263f"/>
            <path id="Trazado_110874" data-name="Trazado 110874" d="M855.056,6917.306l3.913-2.258-12.921,9.768-3.913,2.258Z" opacity="0.1"/>
          </g>
        </g>
        <g id="Grupo_50052" data-name="Grupo 50052">
          <path id="Trazado_110875" data-name="Trazado 110875" d="M826.773,6940.485c3.925.617,5.543-.42,6.846,1.571a36.431,36.431,0,0,0,3.336,4.15,1.051,1.051,0,0,1,.363.78c-.051.363-.449.56-.8.651a4.829,4.829,0,0,1-4.187-1.027,26.237,26.237,0,0,0-4.023-1.8Z" fill="#ffaaa8"/>
          <path id="Trazado_110876" data-name="Trazado 110876" d="M837.489,6941.591a9.273,9.273,0,0,0,1.422.84,10.255,10.255,0,0,1,2.044,1.306,2.806,2.806,0,0,1,.95,2.194,5.473,5.473,0,0,0-.144,1.246c.11.777.974,1.392.812,2.16-.111.522-.664.845-.83,1.352-.279.85.638,1.726.431,2.6a3.02,3.02,0,0,1-.781,1.121c-.384.459-.652,1.011-1.07,1.439a4.089,4.089,0,0,1-2.908.767,4.657,4.657,0,0,1-3.563-1.38,1.379,1.379,0,0,1-.15-1.6,2.013,2.013,0,0,0,.307-.422.831.831,0,0,0-.222-.789,3.21,3.21,0,0,1-.526-.675,2.119,2.119,0,0,1,.17-1.5c.266-.783-.082-1.292-.148-2.051a2.63,2.63,0,0,1,.685-1.988,11.893,11.893,0,0,1,1.063-.845,1.158,1.158,0,0,1,.751-.487c.145-.036,1.7-.753,1.707-1.021Z" fill="#ffaaa8"/>
          <path id="Trazado_110877" data-name="Trazado 110877" d="M832.422,6954.784v-8.1l-.646-.436s-2.289,1.754-4.319,1.636a7.968,7.968,0,0,0,3.857-.017l0,5.941c.35.315.707.647,1.074.963C832.4,6954.772,832.411,6954.779,832.422,6954.784Z" fill="#ff9090"/>
          <path id="Trazado_110878" data-name="Trazado 110878" d="M836.8,6946.327s.721.873-.282,1.31a4.046,4.046,0,0,1-3.127-.38,2.589,2.589,0,0,0-.1.934s2.61,1.039,3.512-.068S836.8,6946.327,836.8,6946.327Z" fill="#ff9090"/>
        </g>
      </g>
    </g>
    <g id="Character-2" data-name="Character">
      <g id="Grupo_50054" data-name="Grupo 50054">
        <path id="Trazado_110879" data-name="Trazado 110879" d="M673.06,7029.775c-6.066.24-10.361,1.624-14.753,5.95-3.225,3.177-11.073,25.465-8.222,40.575,2.194,11.626,15.879,17.766,26.43,12.516,8.322-4.14,9.492-20.943,9.333-28.577S673.06,7029.775,673.06,7029.775Z" fill="#69f"/>
        <path id="Trazado_110880" data-name="Trazado 110880" d="M673.06,7029.775c-6.066.24-10.361,1.624-14.753,5.95-3.225,3.177-11.073,25.465-8.222,40.575,2.194,11.626,15.879,17.766,26.43,12.516,8.322-4.14,9.492-20.943,9.333-28.577S673.06,7029.775,673.06,7029.775Z" opacity="0.3"/>
        <path id="Trazado_110881" data-name="Trazado 110881" d="M665.479,7035.3s-1.618-2.161-5.439-1c0,0-4.06,4.795-7.251,13.9,0,0-.985-.039-.33-2.594s3.23-8.7,4.868-10.852,3.576-5.508,15.194-6.565c3.7-.336,14.519.591,17.79,1.757,5.055,1.8,4.038,4.719,4.038,4.719Z" fill="#69f"/>
        <path id="Trazado_110882" data-name="Trazado 110882" d="M665.479,7035.3s-1.618-2.161-5.439-1c0,0-4.06,4.795-7.251,13.9,0,0-.985-.039-.33-2.594s3.23-8.7,4.868-10.852,3.576-5.508,15.194-6.565c3.7-.336,14.519.591,17.79,1.757,5.055,1.8,4.038,4.719,4.038,4.719Z" opacity="0.5"/>
      </g>
      <g id="Grupo_50055" data-name="Grupo 50055">
        <path id="Trazado_110883" data-name="Trazado 110883" d="M716.675,7178.018c-4.438-3.733-10.913-8.409-12.087-14.384,0,0,.65-4.835.907-7.737.868-9.847,1.233-17.786,2.075-25.55,1.022-9.422,1.358-10.511,1.175-18.545-.062-2.724-.184-5.624-.357-8.606-.156-9.41-.763-18.531-.736-25.546,0,0-13.019.248-23.335.9-11.118,1.361-14.913,3.873-14.585,5.293a97.859,97.859,0,0,0-1.665,15.15c-.3,6.791-1.419,22.767-1.419,22.767-2.589,2.1-4.6,5.112-6.682,9.786-1.223,2.746-4.384,11.819-6.609,19.2-.84,2.784-1.491,4.874-1.756,5.5a10.875,10.875,0,0,1-1.5,2.905,31.247,31.247,0,0,1-2.576,2.318,6.1,6.1,0,0,0-1.781,2.529,3.235,3.235,0,0,0-.154,1.1c.052,1.331.959,2.446,1.6,3.611a12.029,12.029,0,0,1,1.248,6.745,10.054,10.054,0,0,0,6.2,9.653,10.318,10.318,0,0,0,7.056.264c.937-.306,1.958-.93,2.01-1.915a3.094,3.094,0,0,0-.86-1.877,22.181,22.181,0,0,1-3.929-15.508c.506-4.051,2.819-8.639,4.891-12.048,4.77-7.844,9.952-15.574,14.3-22.059,5.336-7.952,5.823-9.343,7.673-16.907.877-3.591,1.831-7.4,2.782-11.225,1.271,5.9,3.158,16.331,3.572,18.639-.032.348-.069.781-.108,1.282-.8,3.558-.822,6.082-.746,10.843.048,3.005,1.988,15.612,3.079,23.241.241,1.69.509,3.383.672,5.082a9.332,9.332,0,0,1-1.173,4.686,6.387,6.387,0,0,0-.611,3.951,4.277,4.277,0,0,0,.41,1.2c.688,1.251,2.08,1.649,3.193,2.361,1.42.909,2.635,2.638,3.81,3.847a15.221,15.221,0,0,0,4.039,3.292,17.472,17.472,0,0,0,5.773,1.185,13.5,13.5,0,0,0,3.374-.245,9.167,9.167,0,0,0,3.049-.664,2.428,2.428,0,0,0,1.407-2.055A3.625,3.625,0,0,0,716.675,7178.018Z" fill="#ffaaa8"/>
        <path id="Trazado_110884" data-name="Trazado 110884" d="M704.588,7163.634c-.491.739-3.115,1.106-4.252,1.548s-.993,3.048-.993,3.048c-1.036-.016-1.13-.782-1.481-2.108-.593-2.243-2.259-2.238-2.8-2.524l-.022-.684s-.569-.169-.693.906a24.882,24.882,0,0,1-.966,4.253c-.323.96-.849,4.466-.108,5.525a6.115,6.115,0,0,0,2.319,1.73,13.658,13.658,0,0,1,4.66,4.067c.948,1.425,3.86,4.738,10.258,4.8s8.177-2.24,8.177-2.24a3.479,3.479,0,0,0-1.087-4.6c-2.642-1.951-4.224-2.307-7.025-5.392A67.359,67.359,0,0,1,704.588,7163.634Z" fill="#12263f"/>
        <path id="Trazado_110885" data-name="Trazado 110885" d="M659.255,7164.261a8.1,8.1,0,0,1-4.524-1.755c-2.107-1.465-2.916,2.753-2.916,2.753-.658-.492-1-1.025-.531-3.017.431-1.823.432-2.9-.611-3.933l.473-.979s-.565-.967-1.832,1.355-4.376,3.189-4.815,6.72a11.191,11.191,0,0,0,1.479,3.651,9.131,9.131,0,0,1,1.656,6.218c-.229,2.686.935,7.243,4.048,9.294a12.116,12.116,0,0,0,11.3,1.34,3.374,3.374,0,0,0,.452-4.86c-2.092-2.95-2.987-4.373-3.668-7.006S659.255,7164.261,659.255,7164.261Z" fill="#12263f"/>
        <path id="Trazado_110886" data-name="Trazado 110886" d="M669.248,7077.269s-.863,10.1-1.176,16.031-2.175,28.45-2.175,28.45c-7.484,6.771-10.806,20.906-13.789,31.407,0,0,4.033,5.657,10.46,4.236-.081-.424,18.957-28.26,21.391-34.25,2.193-5.4,4.579-17.1,4.579-17.1s2.716,13.356,2.3,15.87c-1.675,10.136,2.129,27.194,2.889,34.2,0,0,.772,2.006,5.806,2.072,5.207.069,6.178-1.71,6.178-1.71s3.18-33.708,3.582-40.06-.857-30.481-1.642-38.768Z" fill="#0a4b6e"/>
        <path id="Trazado_110887" data-name="Trazado 110887" d="M688.538,7106.045l1.08-6.329s8.456-.606,12.205-4.793c0,0-1.287,5.534-10.149,6.315l-1.182,6.111.3,12.33C690.187,7115.07,689.356,7111.052,688.538,7106.045Z" fill="#12263f"/>
      </g>
      <g id="Grupo_50062" data-name="Grupo 50062">
        <g id="Grupo_50060" data-name="Grupo 50060">
          <g id="Grupo_50056" data-name="Grupo 50056">
            <path id="Trazado_110888" data-name="Trazado 110888" d="M670.933,7033.938c-4.381.794-5.668,3.49-6.16,7.177a27.2,27.2,0,0,0,.939,10l2.38,14.868.462,17.907c5.446,6.044,27.617,8.184,39.727-.477,0,0-.97-30.949-1.811-37.006-1.46-10.524-8.19-13.12-9.91-13.094l-15.535.147Z" fill="#fafafa"/>
            <g id="Girl">
              <path id="Trazado_110889" data-name="Trazado 110889" d="M721.911,7066.972a133.661,133.661,0,0,0-3.651-13l-8.295,2.9Z" fill="#ff9090"/>
              <path id="Trazado_110890" data-name="Trazado 110890" d="M702.606,7033.9c2.889.222,5.013-.12,8.085,1.951s9.042,21.9,9.042,21.9c-1.665,2.725-9.861,3.618-11.274,3.491,0,0-1.354-8.263-2.964-12.471S702.606,7033.9,702.606,7033.9Z" fill="#f0f0f0"/>
              <g id="Kid">
                <path id="Trazado_110891" data-name="Trazado 110891" d="M696.56,7033.309s8.792,6.168,11.089,31.762c1.213-1.044,3.124-9.92,2.233-15.564-.81-5.129-3.677-13.442-7.276-15.6A8.254,8.254,0,0,0,696.56,7033.309Z" fill="#69f"/>
                <path id="Trazado_110892" data-name="Trazado 110892" d="M696.56,7033.309s8.792,6.168,11.089,31.762c1.213-1.044,3.124-9.92,2.233-15.564-.81-5.129-3.677-13.442-7.276-15.6A8.254,8.254,0,0,0,696.56,7033.309Z" opacity="0.4"/>
              </g>
              <path id="Trazado_110893" data-name="Trazado 110893" d="M722.163,7069.07a12.174,12.174,0,0,1-.844,4.737,3.477,3.477,0,0,1-2.075,2.3,3.544,3.544,0,0,1-2.227-.364,18.883,18.883,0,0,1-7.62-6.547c-2.157-2.973-3.471-6.491-5.263-9.716a33.237,33.237,0,0,1-3.422-7.756,13.9,13.9,0,0,1-.345-5.571,9.376,9.376,0,0,1,.806-2.682c.059-.119,1.149-1.64,1.31-1.271a41,41,0,0,1,1.883,5.126,3.978,3.978,0,0,0,3.751.1,1.7,1.7,0,0,0,1.049-1.274c-.241-.863-.514-1.717-.758-2.579,1.318-.2,2.541,1.776,2.876,2.832a11.981,11.981,0,0,1,.321,4.041,12.35,12.35,0,0,0,.3,4.045c1.15,3.776,5.246,5.73,7.783,8.452A8.706,8.706,0,0,1,722.163,7069.07Z" fill="#ffaaa8"/>
            </g>
            <path id="Trazado_110894" data-name="Trazado 110894" d="M676.357,7033.587s6.184,4.406,6.589,14.523c1.022,25.594-15.827,32.268-15.827,32.268-1.6-3.24-.563-6.342.812-9.425a29.1,29.1,0,0,0,8.148-21.107c-.352-9.323-4.925-14.587-7.25-15.316A13.449,13.449,0,0,1,676.357,7033.587Z" fill="#69f"/>
            <path id="Trazado_110895" data-name="Trazado 110895" d="M676.357,7033.587s6.184,4.406,6.589,14.523c1.022,25.594-15.827,32.268-15.827,32.268-1.6-3.24-.563-6.342.812-9.425a29.1,29.1,0,0,0,8.148-21.107c-.352-9.323-4.925-14.587-7.25-15.316A13.449,13.449,0,0,1,676.357,7033.587Z" opacity="0.4"/>
          </g>
          <g id="Grupo_50059" data-name="Grupo 50059">
            <g id="Grupo_50057" data-name="Grupo 50057">
              <path id="Trazado_110896" data-name="Trazado 110896" d="M708.311,7006.278a7.062,7.062,0,1,1-6.985-7.379A7.186,7.186,0,0,1,708.311,7006.278Z" fill="#1a2e35"/>
              <path id="Trazado_110897" data-name="Trazado 110897" d="M674.66,7014.29s1.776,8.769,2.509,10.214a3.961,3.961,0,0,0,2.272,1.87l-.069-6.158Z" fill="#1a2e35"/>
              <path id="Trazado_110898" data-name="Trazado 110898" d="M677.122,7001.776a4.314,4.314,0,0,0-3.582,1.22c-1.549,1.553-.741,6.469,1.12,11.294l3.505.437Z" fill="#1a2e35"/>
              <path id="Trazado_110899" data-name="Trazado 110899" d="M679.217,7014.741c-.708.413-1.7-.949-2.557-1.865s-3.678-2.185-5.12.778c-1.47,3.02,1.177,7.055,3.4,7.777,3.83,1.244,4.432-1.215,4.432-1.215l.156,13.864a12.368,12.368,0,0,0,9.259,7.173c6.8.991,6.795-4.72,4.584-7.5l.034-3.892a16.609,16.609,0,0,0,5.049-.451c2.175-.568,3.836-1.855,5.294-5.14,1.963-4.42,2.265-9.272.941-18.387-1.533-10.558-14.506-11-21.2-6.875S679.217,7014.741,679.217,7014.741Z" fill="#ffaaa8"/>
              <path id="Trazado_110900" data-name="Trazado 110900" d="M676.341,7005.769c.281-3.224-.875-7.1,1.278-9.906a5.157,5.157,0,0,1,5.89-1.735,5.027,5.027,0,0,1,9.517-1.636,4.893,4.893,0,0,1,4.347-2.569,4.377,4.377,0,0,1,3.82,3.274c-.061-.26,2.18-.137,2.4-.114a5.248,5.248,0,0,1,2.164.687,5.465,5.465,0,0,1,2.573,3.552,6.124,6.124,0,0,1-2.66,6.127,7.148,7.148,0,0,1-6.777.425c-.24-.109-.528-.23-.754-.092a.871.871,0,0,0-.276.379,3.822,3.822,0,0,1-2.445,1.957,5.715,5.715,0,0,1-5.49-1.935,4.2,4.2,0,0,1-6.248.618,3.148,3.148,0,0,1,.05,3.292,3.112,3.112,0,0,1-1.5,1.244,3.038,3.038,0,0,1-1.455.207,4.62,4.62,0,0,1,.934,5.175,2.453,2.453,0,0,1-1.461,1.393c-1.6.432-2.626-2.349-3.582-3.236-.386-.359-.385-1.135-.415-1.614A37.712,37.712,0,0,1,676.341,7005.769Z" fill="#1a2e35"/>
              <path id="Trazado_110901" data-name="Trazado 110901" d="M677.121,7002.554l-4.231-2.326a2.345,2.345,0,0,1,3.231-1.033A2.538,2.538,0,0,1,677.121,7002.554Z" fill="#1a2e35"/>
              <path id="Trazado_110902" data-name="Trazado 110902" d="M693.405,7029.866s-6.774-.767-9.83-2.774a8.57,8.57,0,0,1-3.019-3.047,8.5,8.5,0,0,0,1.7,3.575c3,3.622,11.134,4.39,11.134,4.39Z" fill="#ff9090"/>
            </g>
            <g id="Grupo_50058" data-name="Grupo 50058">
              <path id="Trazado_110903" data-name="Trazado 110903" d="M691.175,7013.305a1.425,1.425,0,1,1-1.41-1.5A1.449,1.449,0,0,1,691.175,7013.305Z" fill="#1a2e35"/>
              <path id="Trazado_110904" data-name="Trazado 110904" d="M689.363,7008.989l-3.043,1.64a1.813,1.813,0,0,1,.729-2.4A1.686,1.686,0,0,1,689.363,7008.989Z" fill="#1a2e35"/>
              <path id="Trazado_110905" data-name="Trazado 110905" d="M690.292,7020.95l5.579,2.157a2.937,2.937,0,0,1-3.822,1.818A3.131,3.131,0,0,1,690.292,7020.95Z" fill="#b0494c"/>
              <path id="Trazado_110906" data-name="Trazado 110906" d="M691.633,7022.642a2.317,2.317,0,0,0-1.349.428,3.035,3.035,0,0,0,1.765,1.855,2.856,2.856,0,0,0,1.923.052A2.364,2.364,0,0,0,691.633,7022.642Z" fill="#ff9090" opacity="0.6"/>
              <path id="Trazado_110907" data-name="Trazado 110907" d="M703.391,7009.914l-2.739-2.153a1.674,1.674,0,0,1,2.4-.344A1.83,1.83,0,0,1,703.391,7009.914Z" fill="#1a2e35"/>
              <path id="Trazado_110908" data-name="Trazado 110908" d="M702.635,7012.757a1.425,1.425,0,1,1-1.409-1.5A1.446,1.446,0,0,1,702.635,7012.757Z" fill="#1a2e35"/>
              <path id="Trazado_110909" data-name="Trazado 110909" d="M695.092,7011.762l.34,7.606,3.983-1.313Z" fill="#ff9090"/>
            </g>
          </g>
        </g>
        <path id="Trazado_110910" data-name="Trazado 110910" d="M691.324,7041.292s-8.506-2.649-11.8-7.879l-.036-3.213c-2.1.238-3.146,3.531-3.146,3.531s.191,4.238,2.713,6.939,6.743,1.731,6.743,1.731,1.756,2.289,2.691,2.6S691.324,7041.292,691.324,7041.292Z" fill="#e1e1e1"/>
        <path id="Trazado_110911" data-name="Trazado 110911" d="M691.324,7041.292c1.253-1.047,2.6-4.572,2.047-7.534,0-.223.019-2.131.019-2.131a2.145,2.145,0,0,1,1.332.534,18.016,18.016,0,0,1,1.512,1.975,32.568,32.568,0,0,1,1.181,4.685,3.017,3.017,0,0,1-1.957,2.73,7.438,7.438,0,0,1-.237,2.592C694.866,7044.81,691.324,7041.292,691.324,7041.292Z" fill="#e1e1e1"/>
        <g id="Grupo_50061" data-name="Grupo 50061">
          <path id="Trazado_110912" data-name="Trazado 110912" d="M661.213,7080.682c2.149-.725,3.733-1.838,8-5.389a70.609,70.609,0,0,0,9.627-9.749,19.7,19.7,0,0,1,1.566-1.657,15.962,15.962,0,0,0,2.64-2.926c1.717-2.553,1.754-4.229,1.95-7.3s.088-7.282-1.236-10.3c-.2-.445-1.32-.711-1.641-.617.186.682.3,1.367.428,2.045a15.793,15.793,0,0,1-2.56,4.241c-1.565,1.809-3.255,2.793-3.431,2.4-.189-.417.384-1.575.211-3.514-.164-1.852-.694-2.641-1.284-2.8-.942-.247-.943.774-1.352,2.317-.487,1.839-1.294,2.844-1.417,5.567-.107,2.386.005,3.348-1.11,4.71a39.868,39.868,0,0,1-3.9,3.117s1.425-4.384,2.834-8.756c2.764-8.574,1.681-16.241-1.7-17.555-4.834.217-7.809,2.149-10.029,9.14-2.361,7.435-3.168,10.594-5.1,25.174C652.263,7079.661,657.632,7081.89,661.213,7080.682Z" fill="#ffaaa8"/>
          <path id="Trazado_110913" data-name="Trazado 110913" d="M667.7,7060.841c-3.067,2.233-9.76,5.44-10.657,9.048,0,0,.144-2.869,4.2-6.274a50.228,50.228,0,0,1,7.233-5.155Z" fill="#ff9090"/>
          <path id="Trazado_110914" data-name="Trazado 110914" d="M668.829,7034.53c-1.664-.388-4.469.188-6.906,2.36s-3.686,6.44-4.877,10.27-3.122,13.966-3.122,13.966a35.626,35.626,0,0,0,10.241,2s2.732-1.734,4.073-2.681c0,0,2.761-8.813,3.551-11.056S673.664,7036.156,668.829,7034.53Z" fill="#f0f0f0"/>
        </g>
      </g>
    </g>
    <g id="Character-3" data-name="Character">
      <g id="Grupo_50063" data-name="Grupo 50063">
        <path id="Trazado_110915" data-name="Trazado 110915" d="M607.138,7101.658c.014.78-.347,1.958.144,2.587a10.156,10.156,0,0,0,2.854,2.183,10.528,10.528,0,0,1,2.118,1.581,15.5,15.5,0,0,1,1.77,2.524c.749,1.093,1.762,3.193,3.691,4.526,2.863,1.979,7.144,2.76,11.433,2.576s6.654-1.427,7.8-2.451A4.714,4.714,0,0,0,638,7110.84C637.607,7109.778,607.138,7101.658,607.138,7101.658Z" fill="#12263f"/>
        <path id="Trazado_110916" data-name="Trazado 110916" d="M608.53,7098.909l11.2-2.181-3.278-16.833-10.71,4.706Z" fill="#ffaaa8"/>
        <path id="Trazado_110917" data-name="Trazado 110917" d="M637.6,7109.032c-2.081-1.623-6.142-3.8-10.8-7.406-2.236-1.733-4.125-4.666-5.564-7.086v-.009c-1.485-2.511-1.1-3.74-1.8-4.647a2.748,2.748,0,0,0-1.22-1.027c.065.147.734,1.742-2.172,2.475-3.034.77-4.207.294-4.509,1.054a8.064,8.064,0,0,0,.155,2.64,6.859,6.859,0,0,1,.147,2.118c-.266.476-.917-.156-1.7-1.394a5.46,5.46,0,0,0-1.8-1.6c-.019-.009-.028-.018-.037-.018a7.708,7.708,0,0,0-.761-.4.028.028,0,0,0-.018-.009l-.211-1.073c-.623-.046-.495,1.916-.614,3.74-.128,1.989-.11,4.308.44,5.261,1.008,1.742,4.1,3.007,5.6,4.381s2.814,4.483,4.712,6.4,6.405,3.289,11.659,3.08C636.116,7115.234,640.373,7111.213,637.6,7109.032Z" fill="#69f"/>
        <path id="Trazado_110918" data-name="Trazado 110918" d="M637.6,7109.032c-2.081-1.623-6.142-3.8-10.8-7.406-2.236-1.733-4.125-4.666-5.564-7.086v-.009c-1.485-2.511-1.1-3.74-1.8-4.647a2.748,2.748,0,0,0-1.22-1.027c.065.147.734,1.742-2.172,2.475-3.034.77-4.207.294-4.509,1.054a8.064,8.064,0,0,0,.155,2.64,6.859,6.859,0,0,1,.147,2.118c-.266.476-.917-.156-1.7-1.394a5.46,5.46,0,0,0-1.8-1.6c-.019-.009-.028-.018-.037-.018a7.708,7.708,0,0,0-.761-.4.028.028,0,0,0-.018-.009l-.211-1.073c-.623-.046-.495,1.916-.614,3.74-.128,1.989-.11,4.308.44,5.261,1.008,1.742,4.1,3.007,5.6,4.381s2.814,4.483,4.712,6.4,6.405,3.289,11.659,3.08C636.116,7115.234,640.373,7111.213,637.6,7109.032Z" opacity="0.3"/>
        <path id="Trazado_110919" data-name="Trazado 110919" d="M617.449,7112.432s.529-4.007,6.3-6.4,7.751-1.378,9.2-.75,6.387,3.38,5.753,5.474-2.423,3.862-7.812,4.777S619.295,7114.812,617.449,7112.432Z" fill="#fafafa"/>
      </g>
      <g id="Grupo_50064" data-name="Grupo 50064">
        <path id="Trazado_110920" data-name="Trazado 110920" d="M549.445,7071.4c1.856,4.333,5.167,5.334,9.236,4.6l11.088-12.143-9.984-8.016Z" fill="#ffaaa8"/>
        <path id="Trazado_110921" data-name="Trazado 110921" d="M547.05,7074.725a21.305,21.305,0,0,0-1.271,1.978,5.849,5.849,0,0,0,.723,2.3,28.263,28.263,0,0,1,1.485,3.173,12.642,12.642,0,0,1,.413,3.4,19.889,19.889,0,0,0,.777,5.928c1.186,3.441,4.127,6.5,7.961,8.646a13.512,13.512,0,0,0,8.718,1.814,3.968,3.968,0,0,0,3.125-2.634C569.213,7098.2,547.113,7074.791,547.05,7074.725Z" fill="#12263f"/>
        <path id="Trazado_110922" data-name="Trazado 110922" d="M569.767,7096.685c-.935-2.539-3.464-5.756-5.573-11.4a29.039,29.039,0,0,1-1.274-9.084,7.062,7.062,0,0,1,1.137-4.317c.642-1.191.44-1.54,0-1.769,0,0-.724.669-3.034.779-1.76.073-3.437-1.283-4.161-1.925-.486-.43-1.485,1.146-2.127,2.567a7.274,7.274,0,0,0-.586,1.714c-.165,1.191-.963,1.631-1.238.632-.266-.935.174-2.96-.962-5.316-.083-.165-.174-.339-.275-.513l.88-1.32c-.523-.376-1.971,1.641-3.053,3.171-1.182,1.659-2.419,3.694-2.447,4.822-.064,2.053,1.952,4.821,2.521,6.828s.33,5.17.944,7.846,4.189,7.287,8.2,9.221C565.194,7101.736,571.014,7100.077,569.767,7096.685Z" fill="#69f"/>
        <path id="Trazado_110923" data-name="Trazado 110923" d="M569.767,7096.685c-.935-2.539-3.464-5.756-5.573-11.4a29.039,29.039,0,0,1-1.274-9.084,7.062,7.062,0,0,1,1.137-4.317c.642-1.191.44-1.54,0-1.769,0,0-.724.669-3.034.779-1.76.073-3.437-1.283-4.161-1.925-.486-.43-1.485,1.146-2.127,2.567a7.274,7.274,0,0,0-.586,1.714c-.165,1.191-.963,1.631-1.238.632-.266-.935.174-2.96-.962-5.316-.083-.165-.174-.339-.275-.513l.88-1.32c-.523-.376-1.971,1.641-3.053,3.171-1.182,1.659-2.419,3.694-2.447,4.822-.064,2.053,1.952,4.821,2.521,6.828s.33,5.17.944,7.846,4.189,7.287,8.2,9.221C565.194,7101.736,571.014,7100.077,569.767,7096.685Z" opacity="0.3"/>
        <path id="Trazado_110924" data-name="Trazado 110924" d="M551.747,7092.116c4.187-2.083,8.109-3.467,11.628-2.948s3.91,1.067,5.385,3.726c1.121,2.022,2.936,5.409.1,6.812S556.271,7100.949,551.747,7092.116Z" fill="#fafafa"/>
      </g>
      <g id="Grupo_50065" data-name="Grupo 50065">
        <path id="Trazado_110925" data-name="Trazado 110925" d="M622.466,6955.455c2.646,16.983-1.331,40.34-5.95,52.457a113.32,113.32,0,0,1-9.616,19.767c-1.377,2.356-39.975,39.293-39.975,39.293s-6.491.463-10.06-7.436c0,0,16.215-25.635,19.734-31.3s15.254-16.065,15.254-16.065l1.878-53.538Z" fill="#12263f"/>
        <path id="Trazado_110926" data-name="Trazado 110926" d="M606.878,6983.472a53.14,53.14,0,0,0,7.666-8.829c6.41-8.857,6.4-16.409,6.4-16.409l-3.6-.313H579.6c-1,12.17-1.435,18.069-.522,24.109,2.578,17.044,13.825,49.065,13.825,49.065-.2,2.363,1.2,11.755,3.451,20.56,3.556,13.892,9.633,35.5,9.633,35.5s8.3.225,11.08-4.088c0,0-2.742-44.186-4.187-56.415C611.321,7013.421,606.878,6983.472,606.878,6983.472Z" fill="#12263f"/>
        <path id="Trazado_110927" data-name="Trazado 110927" d="M623.836,6961.258s.531,6.211,0,6.894-7.568,6.045-17.844,7.473-23.321-1.852-27.622-4.519c-.345-.651-.152-6.488-.152-6.488Z" fill="#69f"/>
        <path id="Trazado_110928" data-name="Trazado 110928" d="M623.836,6961.258s.531,6.211,0,6.894-7.568,6.045-17.844,7.473-23.321-1.852-27.622-4.519c-.345-.651-.152-6.488-.152-6.488Z" opacity="0.3"/>
        <path id="Trazado_110929" data-name="Trazado 110929" d="M611.658,7017.068s-3.828-29.665-4.78-33.6c0,0,4.945-.976,7.135-3.465,0,0-.769,2.149-4.481,4.837Z" fill="#1a2e35"/>
        <path id="Trazado_110930" data-name="Trazado 110930" d="M588.045,7016.486l4.863,14.609s.458,6,1.238,10.068l-2.073,2.114s-1.235-6.964-.586-11.832Z" fill="#1a2e35"/>
      </g>
      <g id="Grupo_50066" data-name="Grupo 50066">
        <path id="Trazado_110931" data-name="Trazado 110931" d="M680.44,6940.94q-1.138.256-2.285.467c-1.024.188-2.062.3-3.085.48a6.61,6.61,0,0,0-1.59.224,16.569,16.569,0,0,0,2.84-2.727,2.366,2.366,0,0,0-.1-3.215c-.4-.326-1.128.727-3,1.64-2.39,1.165-4.526,1.2-6.721,3.059a5.059,5.059,0,0,1-3.746.9l-21.768-2.628s-10.11-18.594-14.816-25.838-7.436-13.317-15.568-12.865l1.681,20.641s11.9,18.25,18.445,27.571c2.2,3.137,4.137,3.791,7.612,3.746,4.061-.052,2.478.479,19.914-.269a118.953,118.953,0,0,1,13.761.068c3.526.243,6.931.278,10-1.769a7.173,7.173,0,0,0,3.27-4.886,7.361,7.361,0,0,1,.416-2.5,12.11,12.11,0,0,1,.865-1.2,1.558,1.558,0,0,0,.288-1.392,1.344,1.344,0,0,0-1.182-.754,4.146,4.146,0,0,0-1.449.255Q682.346,6940.51,680.44,6940.94Z" fill="#c76668"/>
        <path id="Trazado_110932" data-name="Trazado 110932" d="M612.774,6900.485c3.83.174,5.247.749,8.968,5.378s19.563,32.791,19.563,32.791l13.088,1.91s-1.248,7.6,0,11.837c0,0-13.159.719-17.15.628s-4.089-.289-7.594-4.669-17.329-24.466-17.329-24.466Z" fill="#69f"/>
        <path id="Trazado_110933" data-name="Trazado 110933" d="M612.774,6900.485c3.83.174,5.247.749,8.968,5.378s19.563,32.791,19.563,32.791l13.088,1.91s-1.248,7.6,0,11.837c0,0-13.159.719-17.15.628s-4.089-.289-7.594-4.669-17.329-24.466-17.329-24.466Z" opacity="0.3"/>
        <path id="Trazado_110934" data-name="Trazado 110934" d="M654.393,6940.564l7.8,1.141s-.757,6.75.03,10.365l-7.834.331a16.954,16.954,0,0,1-.733-6.19A21.228,21.228,0,0,1,654.393,6940.564Z" fill="#0a4b6e"/>
      </g>
      <g id="Grupo_50067" data-name="Grupo 50067">
        <path id="Trazado_110935" data-name="Trazado 110935" d="M621.957,6920.65c-.534-7-.593-19.583-11.359-20.209l-18.058.956s-6.684.944-11.229,2.092c-4.734,1.088-5.727,12.66-3.809,31.71l.716,29.419c9.783,4.156,31.5,6.678,45.618-3.36C628.1,6958.348,622.67,6929.986,621.957,6920.65Z" fill="#69f"/>
      </g>
      <g id="Grupo_50071" data-name="Grupo 50071">
        <g id="Grupo_50069" data-name="Grupo 50069">
          <path id="Trazado_110936" data-name="Trazado 110936" d="M613.3,6878.705l-2.591,10.553c-.619,2.445-2.035,3.691-4.556,3.691h-3.382v-15.915Z" fill="#1a2e35"/>
          <circle id="Elipse_4021" data-name="Elipse 4021" cx="12.224" cy="12.224" r="12.224" transform="translate(578.23 6859.715)" fill="#1a2e35"/>
          <path id="Trazado_110937" data-name="Trazado 110937" d="M610.05,6866.251a4.645,4.645,0,0,1,3.845,1.352c1.652,1.689,1.406,6.542-1.062,13.078l-4.044-.492Z" fill="#1a2e35"/>
          <path id="Trazado_110938" data-name="Trazado 110938" d="M607.655,6880.192c.758.453,1.84-1,2.774-1.981s3.985-2.314,5.507.893c1.551,3.268-1.132,6.805-3.458,7.766-3.262,1.346-4.45-.722-4.45-.722V6900.4c3.84,4.5-8.912,8.746-15.524,1.5l.011-5.421a33.035,33.035,0,0,1-4.514.194c-2.723-.141-5.135.059-6.625-4.289-1.63-4.759-2.2-13.617-.693-22.457,1.927-11.328,15.374-11.222,22.539-6.712S607.655,6880.192,607.655,6880.192Z" fill="#c76668"/>
          <g id="Grupo_50068" data-name="Grupo 50068">
            <path id="Trazado_110939" data-name="Trazado 110939" d="M606.122,6911.328c-.951-1.791-3.88-4.667-8.021-7.161a35.539,35.539,0,0,1-5.594-3.883V6897.5s-10.565,0-14.623,3.119c-3.529,2.713-3.518,4.68-3.518,4.68s2.5-2.176,7.677-2.122a13.6,13.6,0,0,1,5.234-.642c1.623,0,9.72,3.964,12.211,4.94A44.982,44.982,0,0,1,606.122,6911.328Z" fill="#0a4b6e"/>
            <path id="Trazado_110940" data-name="Trazado 110940" d="M606.122,6911.328c2.667-3.686,1.906-10.932,1.906-10.932l.007-3.17a20.472,20.472,0,0,1,3.139.8c.764.364,1.813,2.326,1.813,2.326S610.6,6907.739,606.122,6911.328Z" fill="#0a4b6e"/>
          </g>
          <path id="Trazado_110941" data-name="Trazado 110941" d="M607.872,6881.711c1.015-.954,1.753-2.769,2.557-3.5,1.307-1.189.5-12.887.5-12.887-.332-4.414-4.261-7.067-8.323-7.723-2.35-.38-4.748-.293-7.124-.437a36.564,36.564,0,0,1-11.433-2.581,7.284,7.284,0,0,0-2.028-.617,2.183,2.183,0,0,0-1.919.693,2.759,2.759,0,0,0-.441,1.761,9.8,9.8,0,0,0,1.5,5.079,4,4,0,0,1-1.72-.568,1.493,1.493,0,0,0-1.7.138,1.645,1.645,0,0,0-.072,1.567c2.925,8.961,13.558,9.843,21.22,7.061q.619-.225,1.225-.487a5.665,5.665,0,0,0,4.248,5.047,13.767,13.767,0,0,0-.1,5.228,4.672,4.672,0,0,0,.663,1.877,2.053,2.053,0,0,0,1.671.956A1.954,1.954,0,0,0,607.872,6881.711Z" fill="#1a2e35"/>
          <path id="Trazado_110942" data-name="Trazado 110942" d="M610.042,6867.089l4.582-2.46a2.526,2.526,0,0,0-3.468-1.147A2.733,2.733,0,0,0,610.042,6867.089Z" fill="#1a2e35"/>
          <path id="Trazado_110943" data-name="Trazado 110943" d="M592.515,6896.472s6.712-1.469,9.088-2.732c1.59-.845,3.729-5.036,4.114-5.975,0,0-1.006,4.523-2.427,6.339-1.737,2.221-10.775,4.176-10.775,4.176Z" fill="#b0494c"/>
        </g>
        <g id="Grupo_50070" data-name="Grupo 50070">
          <path id="Trazado_110944" data-name="Trazado 110944" d="M593.393,6878.938a1.363,1.363,0,1,0,1.362-1.419A1.384,1.384,0,0,0,593.393,6878.938Z" fill="#1a2e35"/>
          <path id="Trazado_110945" data-name="Trazado 110945" d="M594.837,6873.8l2.913,1.608a1.746,1.746,0,0,0-.679-2.32A1.625,1.625,0,0,0,594.837,6873.8Z" fill="#1a2e35"/>
          <path id="Trazado_110946" data-name="Trazado 110946" d="M593.047,6888.241l-3.555,1.334a1.863,1.863,0,0,0,2.414,1.178A1.988,1.988,0,0,0,593.047,6888.241Z" fill="#b0494c"/>
          <path id="Trazado_110947" data-name="Trazado 110947" d="M581.519,6875.26l2.656-2.045a1.61,1.61,0,0,0-2.309-.355A1.76,1.76,0,0,0,581.519,6875.26Z" fill="#1a2e35"/>
          <path id="Trazado_110948" data-name="Trazado 110948" d="M582.331,6878.482a1.363,1.363,0,1,0,1.362-1.419A1.383,1.383,0,0,0,582.331,6878.482Z" fill="#1a2e35"/>
          <path id="Trazado_110949" data-name="Trazado 110949" d="M588.852,6877.7l-.19,8.2-4.319-1.322Z" fill="#b0494c"/>
        </g>
      </g>
      <g id="Grupo_50072" data-name="Grupo 50072">
        <path id="Trazado_110950" data-name="Trazado 110950" d="M617.812,6980.2a30.057,30.057,0,0,1-5.2-1.2.744.744,0,0,1-.249-.113c-.464-.375.4-.34.553-.363a11.7,11.7,0,0,0,1.259-.268,6.11,6.11,0,0,0,2.261-1.087,2.57,2.57,0,0,0,.948-1.374c.093-.418.236-1.012-.117-1.344a1.429,1.429,0,0,0-1.1-.223q-1.48.1-2.965.133a60.063,60.063,0,0,1-7.409-.307,10.289,10.289,0,0,1-3.186-.673,10.877,10.877,0,0,1-1.97-1.091q-3.754-3.1-7.512-6.2-3.527-2.91-7.06-5.814a26.986,26.986,0,0,0-3.271-2.655c-.38-.219,3.149-35.807,3.149-35.807s1.246-15.112-4.63-18.321c-5.425.891-9.985,4.184-11.159,14.2s-2.255,37.125-2.178,40.826c.053,2.545-.493,5.119,4.237,8.582,5.005,3.663,5.52,3.9,22.494,14.1a95.54,95.54,0,0,0,9.757,5.861c8.984,3.99,13.184,3.288,16.025.165.826-.909,1.221-2.056,2-3a8.058,8.058,0,0,0,1.25-1.586,1.428,1.428,0,0,0-.35-1.814,2,2,0,0,0-.905-.2C620.916,6980.511,619.357,6980.4,617.812,6980.2Z" fill="#c76668"/>
        <path id="Trazado_110951" data-name="Trazado 110951" d="M582.2,6903.27c-2.276-.052-7.866-.038-11.012,6.4s-2.79,11.148-3.222,19.346-1.056,30.479-.736,33.164,4.18,5.241,7.054,7c4.294,2.633,11.907,6.9,11.907,6.9.78-3.283,4.132-8.374,7.5-9.525l-10.081-9.574,3.169-33.088S589.261,6909.161,582.2,6903.27Z" fill="#69f"/>
        <path id="Trazado_110952" data-name="Trazado 110952" d="M582.2,6903.27c-2.276-.052-7.866-.038-11.012,6.4s-2.79,11.148-3.222,19.346-1.056,30.479-.736,33.164,4.18,5.241,7.054,7c4.294,2.633,11.907,6.9,11.907,6.9.78-3.283,4.132-8.374,7.5-9.525l-10.081-9.574,3.169-33.088S589.261,6909.161,582.2,6903.27Z" opacity="0.3"/>
        <path id="Trazado_110953" data-name="Trazado 110953" d="M593.693,6966.556s-2.612.242-5.271,3.916-2.227,5.609-2.227,5.609l7.705,4.631s1.3-6.74,5.863-9.143Z" fill="#0a4b6e"/>
        <path id="Trazado_110954" data-name="Trazado 110954" d="M584.748,6968.191c2.047-.187,2.412.113,3.85-.35s.832-1.31.414-1.852-4.7-1.194-3.657-2.047a7.084,7.084,0,0,1,4.292-1.067l-.639-.624a11.97,11.97,0,0,0-1.818-1c-.315-.125-.671-.254-1.083-.384-2.411-.763-13.316-.753-18.951-.571.013.89.038,1.538.078,1.876a6.148,6.148,0,0,0,2.129,3.445,3.945,3.945,0,0,1,2.081-.608c2.232-.14,6.384,1.925,7.652,2.388A14.484,14.484,0,0,0,584.748,6968.191Z" opacity="0.1"/>
      </g>
    </g>
    <g id="Character-4" data-name="Character">
      <g id="Grupo_50073" data-name="Grupo 50073">
        <path id="Trazado_110955" data-name="Trazado 110955" d="M589.008,6962.251l.639.624c.6-2.637-4.569-5.623-8.435-7.021s-29.087-4.768-29.087-4.768-3.118-8.927-6.654-20.585-8.688-13.825-12.268-13.688l-.081,19.3s7.644,17.5,9.571,22.088c1.367,3.251,4.082,4.064,7.136,4.045,4.636-.031,20.515.313,23.314,1.145q.41.123.817.242h0c2.385.6,4.836,2.556,7.235,3.1a11.48,11.48,0,0,0,1.99.234c.857.041,1.715.046,2.573.051l2.778.016a1.135,1.135,0,0,0,.359-.037.735.735,0,0,0,.415-.84,1.609,1.609,0,0,0-.552-.84,10.711,10.711,0,0,0-3.486-1.719,1.051,1.051,0,0,1-.657-.547A5.68,5.68,0,0,1,589.008,6962.251Z" fill="#ffaaa8"/>
        <path id="Trazado_110956" data-name="Trazado 110956" d="M532.246,6916.116s4.117.07,6.727,2.149,4.494,5.33,6.013,9.426,7.516,22.818,7.516,22.818l13.323,2.528a45.082,45.082,0,0,0-.789,9.584s-14.311-.078-17.711,0-3.725-1.376-5.905-5.282-9.894-21.136-9.894-21.136Z" fill="#69f"/>
      </g>
      <g id="Grupo_50078" data-name="Grupo 50078">
        <g id="Grupo_50077" data-name="Grupo 50077">
          <g id="Grupo_50076" data-name="Grupo 50076">
            <g id="Grupo_50074" data-name="Grupo 50074">
              <path id="Trazado_110957" data-name="Trazado 110957" d="M532.9,7112.72c.05,2.049,1.967,7.182,1.967,7.182a7.264,7.264,0,0,0,4.617,2l-.659-7.686Z" fill="#1a2e35"/>
              <path id="Trazado_110958" data-name="Trazado 110958" d="M539.479,7121.9l5.951-3.917v-6.225l-6.331,5.707Z"/>
              <path id="Trazado_110959" data-name="Trazado 110959" d="M542.159,7102.748l-.29-1.272c1,.191,4.371,7.088,8.341,11.273,3.626,3.822,9.081,5.019,11.16,6.546,2.783,2.042-.34,6.5-7.189,6.868-3.4.184-8.823-.551-10.731-2.361s-3.435-5.672-4.946-6.973-4.573-2.442-5.609-4.109c-.569-.916-.657-3.186-.593-5.136.059-1.789.117-3.754.729-3.727.049.206.274,1.063.274,1.063.3.843,1.533,1.6,5.029.813C539.908,7105.379,542.636,7104.463,542.159,7102.748Z" fill="#69f"/>
              <path id="Trazado_110960" data-name="Trazado 110960" d="M542.159,7102.748l-.29-1.272c1,.191,4.371,7.088,8.341,11.273,3.626,3.822,9.081,5.019,11.16,6.546,2.783,2.042-.34,6.5-7.189,6.868-3.4.184-8.823-.551-10.731-2.361s-3.435-5.672-4.946-6.973-4.573-2.442-5.609-4.109c-.569-.916-.657-3.186-.593-5.136.059-1.789.117-3.754.729-3.727.049.206.274,1.063.274,1.063.3.843,1.533,1.6,5.029.813C539.908,7105.379,542.636,7104.463,542.159,7102.748Z" opacity="0.4"/>
            </g>
            <g id="Grupo_50075" data-name="Grupo 50075">
              <path id="Trazado_110961" data-name="Trazado 110961" d="M468.982,7080.275c-.916,1.612-1.634,12.223-1.634,12.223a30.175,30.175,0,0,0,4.476,4.3l3.5-10.339Z" fill="#1a2e35"/>
              <path id="Trazado_110962" data-name="Trazado 110962" d="M471.824,7096.8l8.263-2.914,2.407-6.9-8.557,3.468Z"/>
              <path id="Trazado_110963" data-name="Trazado 110963" d="M474.992,7073.805c-.6-.542-1.356.6-2.879,2.31a21.68,21.68,0,0,0-3.048,3.949c-.869,1.751,1.682,5.61,3.336,7.714,1.75,2.226,2.091,4.123,2.445,7.343.429,3.9,0,6.355,5.184,9.275,4.15,2.336,11.993,1.955,13.524.153,2.613-3.073-4.657-6.059-6.408-11.544-2.418-7.576-2.758-8.841-3.138-14.278Z" fill="#69f"/>
              <path id="Trazado_110964" data-name="Trazado 110964" d="M474.992,7073.805c-.6-.542-1.356.6-2.879,2.31a21.68,21.68,0,0,0-3.048,3.949c-.869,1.751,1.682,5.61,3.336,7.714,1.75,2.226,2.091,4.123,2.445,7.343.429,3.9,0,6.355,5.184,9.275,4.15,2.336,11.993,1.955,13.524.153,2.613-3.073-4.657-6.059-6.408-11.544-2.418-7.576-2.758-8.841-3.138-14.278Z" opacity="0.4"/>
            </g>
            <path id="Trazado_110965" data-name="Trazado 110965" d="M539.708,6964.621c-3.5,2.443-6.635,6.465-22.918,4.867l-1.915,50.58s-13,9.058-16.665,14.966-20.845,35.293-20.845,35.293h0l-2.466,3.614c-1.531,2.245-.754,4.039,1.494,5.566,2.151,1.4,4.843,2.245,6.575.356l2.117-2.31s42-40.747,43.434-43.2,4.634-8.522,7.458-20.861C539.6,6997.659,540.351,6981.926,539.708,6964.621Z" fill="#ffaaa8"/>
            <path id="Trazado_110966" data-name="Trazado 110966" d="M538.559,6997.208a115.392,115.392,0,0,1-2.582,16.281c-2.824,12.339-6.022,18.4-7.458,20.861a42.766,42.766,0,0,1-3.442,3.77h0c-2.976,3.07-7.566,7.653-12.593,12.622.247-6.3,1.248-13.382,1.248-13.382-2.363-3.084-5.569-8.256-7.175-10.9l.026-.022q.367-.308.731-.606l.166-.135c.195-.16.39-.319.584-.475l.208-.167q.271-.219.539-.432l.207-.163.516-.407c.069-.053.137-.107.205-.16.174-.136.344-.268.513-.4l.173-.134q.282-.218.552-.423l.1-.075.613-.464.013-.01c.415-.312.8-.6,1.151-.857l.043-.032c.153-.113.3-.22.438-.321l.1-.072.319-.232.119-.086.26-.188.08-.057c.081-.059.157-.112.225-.161l.063-.045.17-.121.031-.021.123-.087.008,0,.045-.032,1.324-32.439Z" fill="#ff9090"/>
            <path id="Trazado_110967" data-name="Trazado 110967" d="M542.594,7103.719l-.138-.948c-1.718-8.511-5.914-55.9-7.421-68.649-1.63-13.8-7.973-46.963-7.973-46.963s8.052-16.193,12.646-22.538c-7.074,1.76-25.64,3.072-39.242.11.577,4.723-1.3,13.526-1.682,24.01-.659,18.176,17.645,48.607,17.645,48.607-.209,2.464-1.251,12.82,1.1,22,3.708,14.483,13.948,39.679,15.126,43.178l.808,2.971C535.339,7107.249,541.721,7106.222,542.594,7103.719Z" fill="#ffaaa8"/>
          </g>
        </g>
        <path id="Trazado_110968" data-name="Trazado 110968" d="M500.466,6964.731c-.124,2.057-5.831,11.785-5.681,26.338.062,6.015,4.389,24.6.52,37.583-.731,2.455-8.458,20.741-8.458,20.741s3.725,14.2,28.479,17.584c18.114,2.477,25.685-9.959,25.685-9.959s2.839-35.934,2.856-48.468c.021-15.182-4.159-43.929-4.159-43.929Z" fill="#69f"/>
        <path id="Trazado_110969" data-name="Trazado 110969" d="M500.466,6964.926c-.124,2.057-5.831,11.785-5.681,26.338.062,6.015,4.389,24.6.52,37.583-.731,2.455-8.458,20.74-8.458,20.74s3.725,14.2,28.479,17.585c18.114,2.477,25.685-9.96,25.685-9.96s2.839-35.933,2.856-48.467c.021-15.183-4.159-43.929-4.159-43.929Z" opacity="0.3"/>
      </g>
      <g id="Grupo_50080" data-name="Grupo 50080">
        <g id="Grupo_50079" data-name="Grupo 50079">
          <path id="Trazado_110970" data-name="Trazado 110970" d="M541.283,6947.617c-.278,3.126-.965,12.546-1.575,17-7.584,6.631-33.039,6.219-39.242.11l-.223-18.52s-.357-4.276-.344-4.289c.355-.609,11.462-10.978,4.4-24.293l10.372-1.514,13.285.23c3.064.172,5.246.468,5.246.468,1.964,1.836,4.623,5.882,7.268,11.154C542.065,6931.144,546.765,6938.139,541.283,6947.617Z" fill="#69f"/>
        </g>
        <path id="Trazado_110971" data-name="Trazado 110971" d="M541.283,6947.617c-.278,3.126-.965,12.546-1.575,17-7.584,6.631-33.039,6.219-39.242.11l-.223-18.52s-.357-4.276-.344-4.289c.355-.609,11.462-10.978,4.4-24.293l10.372-1.514,13.285.23c3.064.172,5.246.468,5.246.468,1.964,1.836,4.623,5.882,7.268,11.154C542.065,6931.144,546.765,6938.139,541.283,6947.617Z" fill="#fff" opacity="0.6"/>
      </g>
      <g id="Grupo_50081" data-name="Grupo 50081">
        <path id="Trazado_110972" data-name="Trazado 110972" d="M478.332,6982.751a92.718,92.718,0,0,0-.063,11.231c1.131,9.766,3.871,13.025,8,13.884,6.6,1.371,6.986-1.115,4.593-5.821a21.445,21.445,0,0,1-2.119-6.542,16.228,16.228,0,0,0,2.911,2.507,2.31,2.31,0,0,0,3.114-.4c.28-.418-.811-1.029-1.87-2.762-1.353-2.214-1.583-4.285-3.594-6.245a4.681,4.681,0,0,1-.966-2.938c-.152-1.387,3.3-22.808,4.589-26.392l9.24-20.138c2.63-5.38,9.2-17.546,2.585-21.9-9.118-.272-11.959,7.745-22.632,33.282C480.208,6955.112,478.6,6975.336,478.332,6982.751Z" fill="#ffaaa8"/>
        <path id="Trazado_110973" data-name="Trazado 110973" d="M488.7,6982.257s3.5-19.594,4.678-22.547,13.048-27.075,13.048-27.075,3.371-10.54.472-15.094c0,0-6.457-1.3-9.806,2.023s-8.753,14.273-12.8,24.132-4.348,14.435-5.182,21.068-.8,18.57-.8,18.57S481.977,6981.355,488.7,6982.257Z" fill="#69f"/>
      </g>
      <g id="Grupo_50092" data-name="Grupo 50092">
        <path id="Trazado_110974" data-name="Trazado 110974" d="M523.39,6870.462c2.159,3.739-.151,9.114-5.159,12.006s-10.819,2.2-12.977-1.535.151-9.115,5.159-12.006S521.232,6866.722,523.39,6870.462Z" fill="#e1e1e1"/>
        <path id="Trazado_110975" data-name="Trazado 110975" d="M523.39,6870.462c2.159,3.739-.151,9.114-5.159,12.006s-10.819,2.2-12.977-1.535.151-9.115,5.159-12.006S521.232,6866.722,523.39,6870.462Z" opacity="0.05"/>
        <path id="Trazado_110976" data-name="Trazado 110976" d="M516.369,6909.967c-2.73,0-6.25-.8-9.768-5.472-3.139-4.169-5.393-11.251-.791-19.185,3.994-6.884,16.341-15.691,27.312-12.894a15.968,15.968,0,0,1,11.77,12.076,15.514,15.514,0,0,1-4.045,11.71C537.6,6899.783,516.369,6909.967,516.369,6909.967Z" fill="#e1e1e1"/>
        <path id="Trazado_110977" data-name="Trazado 110977" d="M516.369,6909.967c-2.73,0-6.25-.8-9.768-5.472-3.139-4.169-5.393-11.251-.791-19.185,3.994-6.884,16.341-15.691,27.312-12.894a15.968,15.968,0,0,1,11.77,12.076,15.514,15.514,0,0,1-4.045,11.71C537.6,6899.783,516.369,6909.967,516.369,6909.967Z" fill="#e1e1e1"/>
        <g id="Grupo_50082" data-name="Grupo 50082">
          <path id="Trazado_110978" data-name="Trazado 110978" d="M537.66,6883.871c1.418,1.54,3.425,2.984,3.164,14.257-.221,9.554-3.894,11.982-5.449,12.662s-4.554.267-7.47-.219v5.734s1.143,2.947-4.08,3.249c-7.927.458-9.151-2.842-9.151-2.842l-.047-11.345s-2.226.794-4.708-2.149c-2.057-2.439-2.545-6.2-.673-8.1a4.184,4.184,0,0,1,6.658,1.327s1.847-10.153,8.7-11.881C531.325,6882.868,533.394,6889.666,537.66,6883.871Z" fill="#ffaaa8"/>
        </g>
        <g id="Grupo_50083" data-name="Grupo 50083">
          <path id="Trazado_110979" data-name="Trazado 110979" d="M525.166,6894.336a1.332,1.332,0,0,0-.924-.337c-.141-.006-.282-.009-.423,0a1.358,1.358,0,0,0-.287.044.414.414,0,0,0-.052.014.492.492,0,0,0-.087.038c-.076.046-.087.121-.12.193a.328.328,0,0,0,.228.414s.281.019.151.022c.058,0,.087.01.138.007l.1-.006c.051,0,.1-.008.153-.012.11-.009.22-.01.33-.008h.014c.052,0,.1,0,.156,0l.139.006c.04,0,.081.007.121.013a1.435,1.435,0,0,1,.208.027.174.174,0,0,0,.239-.093A.342.342,0,0,0,525.166,6894.336Z" fill="#ff9090"/>
          <path id="Trazado_110980" data-name="Trazado 110980" d="M524.956,6895.346a.816.816,0,0,0-.334.042c-.05.018-.1.037-.151.051l-.034.009-.067.019c-.05.013-.1.024-.149.034a2.888,2.888,0,0,0-.707.136c-.093.044-.083.2-.058.274a.381.381,0,0,0,.233.247,1.28,1.28,0,0,0,.485.035,2.749,2.749,0,0,0,.3-.047,2.09,2.09,0,0,0,.349-.1c.042-.017.083-.036.122-.056a.763.763,0,0,0,.113-.068.355.355,0,0,0,.116-.284A.274.274,0,0,0,524.956,6895.346Z" fill="#ff9090"/>
          <path id="Trazado_110981" data-name="Trazado 110981" d="M540.311,6893.409a.272.272,0,0,0-.385-.106c-.076.033-.156.061-.234.088-.151.051-.306.093-.459.136a.188.188,0,0,0-.084.041.155.155,0,0,0,.008.19c.132.2.37.185.582.169a1.253,1.253,0,0,0,.568-.129.211.211,0,0,0,.077-.17A.385.385,0,0,0,540.311,6893.409Z" fill="#ff9090"/>
          <path id="Trazado_110982" data-name="Trazado 110982" d="M540.4,6895.054a.125.125,0,0,0-.019-.048c0-.009-.012-.016-.016-.025s-.023-.038-.036-.056a.38.38,0,0,0-.026-.039c-.007-.009-.018-.012-.026-.019a.636.636,0,0,0-.116-.085l-.029-.016-.185-.111a2.817,2.817,0,0,0-.544-.258.225.225,0,0,0-.29.23.371.371,0,0,0,.126.192,2.157,2.157,0,0,0,.348.238l.071.047c.13.085.271.161.408.234a.232.232,0,0,0,.344-.147A.4.4,0,0,0,540.4,6895.054Z" fill="#ff9090"/>
          <path id="Trazado_110983" data-name="Trazado 110983" d="M528.3,6903.205c-.01.027-.014.031-.019.043l.007-.009Z" fill="#ff9090"/>
          <path id="Trazado_110984" data-name="Trazado 110984" d="M528.658,6902.429c-.006-.1-.035-.254-.147-.283h0l-.032-.011a.373.373,0,0,0-.147,0,.518.518,0,0,0-.16.055.923.923,0,0,0-.2.125.544.544,0,0,0-.076.089,1.072,1.072,0,0,0-.147.25.712.712,0,0,0-.043.17c0,.019,0,.037,0,.056s0,.062,0,.092a.333.333,0,0,0,.049.129.539.539,0,0,0,.037.109.481.481,0,0,0,.2.2l.053.02a.126.126,0,0,0,.15-.079c.077-.065.089-.076.1-.1l-.026.036a.29.29,0,0,0,.087-.167l-.006.026.007-.026v0l.006-.026c.008-.03.016-.06.023-.09l-.018.075a.727.727,0,0,1,.1-.219l.076-.109-.041.06.059-.081a.785.785,0,0,0,.075-.09A.333.333,0,0,0,528.658,6902.429Z" fill="#ff9090"/>
          <path id="Trazado_110985" data-name="Trazado 110985" d="M528.3,6903.227l-.009.012-.011.031A.335.335,0,0,1,528.3,6903.227Z" fill="#ff9090"/>
        </g>
        <g id="Grupo_50090" data-name="Grupo 50090">
          <g id="Grupo_50084" data-name="Grupo 50084">
            <path id="Trazado_110986" data-name="Trazado 110986" d="M528.782,6894.593a1.2,1.2,0,1,1-1.32-1.126A1.222,1.222,0,0,1,528.782,6894.593Z" fill="#1a2e35"/>
          </g>
          <g id="Grupo_50085" data-name="Grupo 50085" opacity="0.5" style="mix-blend-mode: multiply;isolation: isolate">
            <path id="Trazado_110987" data-name="Trazado 110987" d="M529.379,6903.09l3.487.927a1.772,1.772,0,0,1-2.172,1.341A1.888,1.888,0,0,1,529.379,6903.09Z" fill="#ffaaa8"/>
          </g>
          <g id="Grupo_50086" data-name="Grupo 50086">
            <path id="Trazado_110988" data-name="Trazado 110988" d="M539.255,6890.961l-2.7-1.2a1.421,1.421,0,0,1,1.906-.785A1.555,1.555,0,0,1,539.255,6890.961Z" fill="#e1e1e1"/>
          </g>
          <g id="Grupo_50087" data-name="Grupo 50087">
            <path id="Trazado_110989" data-name="Trazado 110989" d="M527.373,6890.542l-2.529,1.533a1.419,1.419,0,0,1,.444-2.012A1.554,1.554,0,0,1,527.373,6890.542Z" fill="#e1e1e1"/>
          </g>
          <g id="Grupo_50088" data-name="Grupo 50088">
            <path id="Trazado_110990" data-name="Trazado 110990" d="M538.437,6893.853a1.122,1.122,0,1,1-1.231-1.05A1.14,1.14,0,0,1,538.437,6893.853Z" fill="#1a2e35"/>
          </g>
          <g id="Grupo_50089" data-name="Grupo 50089" opacity="0.5" style="mix-blend-mode: multiply;isolation: isolate">
            <path id="Trazado_110991" data-name="Trazado 110991" d="M533.244,6893.995l.625,8.267,4.29-1.563Z" fill="#ffaaa8"/>
          </g>
        </g>
        <g id="Grupo_50091" data-name="Grupo 50091" opacity="0.5" style="mix-blend-mode: multiply;isolation: isolate">
          <path id="Trazado_110992" data-name="Trazado 110992" d="M527.905,6910.571c-3.072-.4-9.393-2.219-10.379-4.719a6.479,6.479,0,0,0,2.216,3.19c1.889,1.618,8.163,3.442,8.163,3.442Z" fill="#ffaaa8"/>
        </g>
      </g>
      <g id="Grupo_50093" data-name="Grupo 50093">
        <path id="Trazado_110993" data-name="Trazado 110993" d="M514.672,6916.115l-4.581.669s17.712,24.245,22.293,36.23c0,0,1.707-27.631-3.057-36.58l-1.422-.129v-.858s6.888.46,9.416,1.36c4.1,1.458,7.722,6.529,11.354,20.473,0,0-6.862,14.982-16.188,19.678,0,0-34.54-6.8-46.754-18.344,0,0,4.679-10.36,7.736-15.573,1.961-3.345,4.537-5.34,9.628-6.234s11.572-1.36,11.572-1.36Z" fill="#0a4b6e"/>
        <path id="Trazado_110994" data-name="Trazado 110994" d="M531.3,6955.849c-1.236.361-2.819,1.765-2.889,4.6a12.9,12.9,0,0,1-.607,4.146,6.033,6.033,0,0,0,4.131-4.247C532.963,6957.3,532.638,6955.458,531.3,6955.849Z" fill="#0a4b6e"/>
        <path id="Trazado_110995" data-name="Trazado 110995" d="M533.576,6954.758c1.236.361,2.819,1.765,2.889,4.6a12.9,12.9,0,0,0,.607,4.147,6.034,6.034,0,0,1-4.131-4.248C531.912,6956.208,532.237,6954.367,533.576,6954.758Z" fill="#0a4b6e"/>
      </g>
    </g>
  </g>
</svg>
