<svg xmlns="http://www.w3.org/2000/svg" width="784.906" height="355.143" viewBox="0 0 784.906 355.143">
  <g id="Grupo_53070" data-name="Grupo 53070" transform="translate(7801 4821.487)">
    <g id="Grupo_53069" data-name="Grupo 53069">
      <path id="Trazado_115073" data-name="Trazado 115073" d="M10,0H133.446a10,10,0,0,1,10,10V67.152a10,10,0,0,1-10,10H10a10,10,0,0,1-10-10V10A10,10,0,0,1,10,0Z" transform="translate(-7801 -4821.487)" fill="#36c"/>
      <path id="Trazado_115074" data-name="Trazado 115074" d="M15.548,15.778a1.885,1.885,0,0,0-.659-1.464,5.558,5.558,0,0,0-2.338-.992A7.737,7.737,0,0,1,9.382,11.9a2.951,2.951,0,0,1-1.138-2.37,3.109,3.109,0,0,1,1.226-2.5,4.852,4.852,0,0,1,3.177-1A4.728,4.728,0,0,1,15.992,7.17a3.4,3.4,0,0,1,1.2,2.672l-.018.053H15.521a2.375,2.375,0,0,0-.743-1.819,3.006,3.006,0,0,0-2.131-.694,2.985,2.985,0,0,0-1.982.584,1.9,1.9,0,0,0-.69,1.525,1.68,1.68,0,0,0,.747,1.393,7.089,7.089,0,0,0,2.426.98,6.922,6.922,0,0,1,3.076,1.477,3.16,3.16,0,0,1,1.055,2.417,2.951,2.951,0,0,1-1.266,2.487,5.4,5.4,0,0,1-3.3.94,5.719,5.719,0,0,1-3.388-1.042,3.139,3.139,0,0,1-1.428-2.782l.018-.053H9.562a2.15,2.15,0,0,0,.905,1.872,3.778,3.778,0,0,0,2.241.642,3.485,3.485,0,0,0,2.074-.55A1.746,1.746,0,0,0,15.548,15.778ZM21.349,19H19.617V9.49h1.731Zm0-11.944H19.617V5.289h1.731ZM26.3,7.2V9.49h1.8v1.283H26.3v5.774a1.293,1.293,0,0,0,.277.94,1,1,0,0,0,.734.272,1.732,1.732,0,0,0,.33-.035,2.017,2.017,0,0,0,.321-.088l.229,1.187a1.528,1.528,0,0,1-.567.259,2.865,2.865,0,0,1-.751.1,2.242,2.242,0,0,1-1.679-.637,2.767,2.767,0,0,1-.624-2V10.773H23.054V9.49h1.512V7.2Zm9.976,10.4a3.221,3.221,0,0,1-1.151,1.178,3.15,3.15,0,0,1-1.626.413,3.055,3.055,0,0,1-2.426-.993A4.611,4.611,0,0,1,30.2,15.1V9.49h1.731v5.625a3.541,3.541,0,0,0,.448,2.092,1.667,1.667,0,0,0,1.4.571A2.848,2.848,0,0,0,35.3,17.4a2.337,2.337,0,0,0,.91-1.059V9.49h1.731V19H36.387ZM46.31,19q-.088-.431-.136-.76a5.58,5.58,0,0,1-.057-.664,4.037,4.037,0,0,1-1.261,1.147,3.225,3.225,0,0,1-1.674.461,3.109,3.109,0,0,1-2.263-.76,2.8,2.8,0,0,1-.778-2.1,2.456,2.456,0,0,1,1.1-2.131,5.151,5.151,0,0,1,2.993-.769h1.881v-.94a1.745,1.745,0,0,0-.51-1.323,2,2,0,0,0-1.441-.488,2.081,2.081,0,0,0-1.358.426,1.282,1.282,0,0,0-.523,1.024H40.632l-.018-.053a2.3,2.3,0,0,1,.98-1.9,4.025,4.025,0,0,1,2.667-.861,3.927,3.927,0,0,1,2.6.822,2.911,2.911,0,0,1,.984,2.369v4.579a8.913,8.913,0,0,0,.053.984,5.062,5.062,0,0,0,.193.932Zm-2.874-1.274a3.088,3.088,0,0,0,1.7-.482,2.293,2.293,0,0,0,.984-1.1V14.6H44.174a2.524,2.524,0,0,0-1.674.526,1.571,1.571,0,0,0-.628,1.236,1.3,1.3,0,0,0,.4,1A1.659,1.659,0,0,0,43.436,17.726Zm10.793.1a2.335,2.335,0,0,0,1.516-.532,1.623,1.623,0,0,0,.655-1.305h1.556l.018.053a2.678,2.678,0,0,1-1.094,2.188,3.99,3.99,0,0,1-2.65.958,3.849,3.849,0,0,1-3.173-1.354,5.222,5.222,0,0,1-1.1-3.4v-.369a5.2,5.2,0,0,1,1.1-3.388,4.33,4.33,0,0,1,5.9-.374,3.061,3.061,0,0,1,1.024,2.417l-.018.053H56.4a2.009,2.009,0,0,0-.615-1.481,2.116,2.116,0,0,0-1.556-.611,2.087,2.087,0,0,0-1.947.979,4.607,4.607,0,0,0-.584,2.4v.369a4.661,4.661,0,0,0,.58,2.427A2.091,2.091,0,0,0,54.228,17.822ZM61.787,19H60.056V9.49h1.731Zm0-11.944H60.056V5.289h1.731Zm2.259,7.1a5.235,5.235,0,0,1,1.143-3.476,4.234,4.234,0,0,1,6.227,0,5.218,5.218,0,0,1,1.147,3.48v.193a5.21,5.21,0,0,1-1.143,3.48,4.253,4.253,0,0,1-6.227,0,5.2,5.2,0,0,1-1.147-3.476Zm1.731.189a4.5,4.5,0,0,0,.637,2.493,2.3,2.3,0,0,0,3.775,0,4.477,4.477,0,0,0,.642-2.493v-.193a4.463,4.463,0,0,0-.646-2.484,2.118,2.118,0,0,0-1.894-.992,2.089,2.089,0,0,0-1.876.992,4.511,4.511,0,0,0-.637,2.484Zm3.366-8.53h2.021l.018.053L68.81,8.154H67.518ZM76.228,9.49l.123,1.415a3.453,3.453,0,0,1,1.191-1.173,3.178,3.178,0,0,1,1.63-.417,3.1,3.1,0,0,1,2.382.9A3.955,3.955,0,0,1,82.4,13v6H80.666V13.032a2.572,2.572,0,0,0-.5-1.784,1.989,1.989,0,0,0-1.516-.527,2.44,2.44,0,0,0-1.323.36,2.631,2.631,0,0,0-.918.984V19H74.681V9.49Zm12.762,4.931a6.346,6.346,0,0,1,.98-3.7,3.158,3.158,0,0,1,2.747-1.406,3.405,3.405,0,0,1,1.481.308,3.036,3.036,0,0,1,1.1.9V5.289h1.731V19H95.616l-.2-1.169a3.082,3.082,0,0,1-1.143,1.011,3.437,3.437,0,0,1-1.573.343,3.264,3.264,0,0,1-2.725-1.261,5.241,5.241,0,0,1-.984-3.318Zm1.731.185a4.037,4.037,0,0,0,.589,2.307,2.056,2.056,0,0,0,1.828.866,2.293,2.293,0,0,0,1.3-.352,2.625,2.625,0,0,0,.861-.984V12a2.666,2.666,0,0,0-.866-.936,2.288,2.288,0,0,0-1.279-.347,1.979,1.979,0,0,0-1.841,1.028,5.308,5.308,0,0,0-.593,2.672Zm12.841,4.579a4.012,4.012,0,0,1-3.16-1.323,4.979,4.979,0,0,1-1.173-3.432v-.387a4.877,4.877,0,0,1,1.208-3.379A3.723,3.723,0,0,1,103.3,9.314a3.6,3.6,0,0,1,2.909,1.16,4.622,4.622,0,0,1,.984,3.094v1.081h-6.17l-.026.044a3.741,3.741,0,0,0,.694,2.248,2.214,2.214,0,0,0,1.872.881,4.356,4.356,0,0,0,1.542-.25,3.546,3.546,0,0,0,1.147-.69l.677,1.126a4.02,4.02,0,0,1-1.345.84A5.415,5.415,0,0,1,103.561,19.185Zm-.264-8.508a1.878,1.878,0,0,0-1.485.731,3.459,3.459,0,0,0-.756,1.835l.018.044h4.386v-.228a2.639,2.639,0,0,0-.545-1.7A1.944,1.944,0,0,0,103.3,10.677ZM34.216,36.205a5.241,5.241,0,0,1-.984,3.318,3.254,3.254,0,0,1-2.716,1.261,3.773,3.773,0,0,1-1.542-.294,2.95,2.95,0,0,1-1.129-.883v4.649H26.112V31.09h1.327l.272,1.23a3.141,3.141,0,0,1,1.16-1.046,3.463,3.463,0,0,1,1.617-.36,3.161,3.161,0,0,1,2.747,1.4,6.342,6.342,0,0,1,.98,3.7Zm-1.731-.189a5.014,5.014,0,0,0-.637-2.655,2.065,2.065,0,0,0-1.876-1.04,2.312,2.312,0,0,0-1.274.338,2.529,2.529,0,0,0-.853.926v4.591a2.457,2.457,0,0,0,.853.917,2.394,2.394,0,0,0,1.292.329,2.132,2.132,0,0,0,1.863-.9,3.947,3.947,0,0,0,.633-2.322Zm3.454-.259a5.235,5.235,0,0,1,1.143-3.476,4.234,4.234,0,0,1,6.227,0,5.218,5.218,0,0,1,1.147,3.48v.193a5.21,5.21,0,0,1-1.143,3.48,4.253,4.253,0,0,1-6.227,0,5.2,5.2,0,0,1-1.147-3.476Zm1.731.189a4.5,4.5,0,0,0,.637,2.493,2.3,2.3,0,0,0,3.775,0,4.477,4.477,0,0,0,.642-2.493v-.193a4.463,4.463,0,0,0-.646-2.484,2.118,2.118,0,0,0-1.894-.992,2.089,2.089,0,0,0-1.876.992,4.511,4.511,0,0,0-.637,2.484Zm17.024.259a5.225,5.225,0,0,1-.989,3.318,3.267,3.267,0,0,1-2.72,1.261,3.468,3.468,0,0,1-1.635-.365A3.04,3.04,0,0,1,48.2,39.343L47.988,40.6H46.573V26.889H48.3v5.326a3,3,0,0,1,1.112-.967,3.409,3.409,0,0,1,1.551-.334,3.16,3.16,0,0,1,2.742,1.406,6.325,6.325,0,0,1,.984,3.7Zm-1.731-.185a5.25,5.25,0,0,0-.6-2.667,1.982,1.982,0,0,0-1.833-1.033,2.266,2.266,0,0,0-1.349.391,2.758,2.758,0,0,0-.875,1.05v4.122a2.831,2.831,0,0,0,.875,1.1,2.254,2.254,0,0,0,1.367.4,2.057,2.057,0,0,0,1.819-.87,4,4,0,0,0,.6-2.3Zm8.341-3.4-.888-.053a1.983,1.983,0,0,0-1.156.325,2.086,2.086,0,0,0-.725.914V40.6H56.8V31.09h1.547l.167,1.389a3.3,3.3,0,0,1,1-1.151,2.333,2.333,0,0,1,1.367-.413,2.139,2.139,0,0,1,.369.031,2.446,2.446,0,0,1,.29.066Zm5.449,8.165a4.012,4.012,0,0,1-3.16-1.323A4.979,4.979,0,0,1,62.42,36.03v-.387a4.877,4.877,0,0,1,1.208-3.379,3.723,3.723,0,0,1,2.861-1.349,3.6,3.6,0,0,1,2.909,1.16,4.622,4.622,0,0,1,.984,3.094v1.081h-6.17l-.026.044a3.741,3.741,0,0,0,.694,2.248,2.214,2.214,0,0,0,1.872.881,4.356,4.356,0,0,0,1.542-.25,3.546,3.546,0,0,0,1.147-.69l.677,1.126a4.02,4.02,0,0,1-1.345.84A5.415,5.415,0,0,1,66.753,40.785Zm-.264-8.508A1.878,1.878,0,0,0,65,33.008a3.459,3.459,0,0,0-.756,1.835l.018.044h4.386v-.228a2.639,2.639,0,0,0-.545-1.7A1.944,1.944,0,0,0,66.489,32.277Zm7.471,6.961h5.493V40.6H71.895V39.378l5.142-6.926h-5.08V31.09h7.2v1.169ZM87.223,40.6q-.088-.431-.136-.76a5.58,5.58,0,0,1-.057-.664,4.037,4.037,0,0,1-1.261,1.147,3.225,3.225,0,0,1-1.674.461,3.109,3.109,0,0,1-2.263-.76,2.8,2.8,0,0,1-.778-2.1,2.456,2.456,0,0,1,1.1-2.131,5.151,5.151,0,0,1,2.993-.769h1.881v-.94a1.745,1.745,0,0,0-.51-1.323,2,2,0,0,0-1.441-.488,2.081,2.081,0,0,0-1.358.426,1.282,1.282,0,0,0-.523,1.024H81.545l-.018-.053a2.3,2.3,0,0,1,.98-1.9,4.025,4.025,0,0,1,2.667-.861,3.927,3.927,0,0,1,2.6.822,2.911,2.911,0,0,1,.984,2.369v4.579a8.913,8.913,0,0,0,.053.984,5.062,5.062,0,0,0,.193.932Zm-2.874-1.274a3.088,3.088,0,0,0,1.7-.482,2.293,2.293,0,0,0,.984-1.1V36.2H85.087a2.524,2.524,0,0,0-1.674.526,1.571,1.571,0,0,0-.628,1.236,1.3,1.3,0,0,0,.4,1A1.659,1.659,0,0,0,84.349,39.326Z" transform="translate(-7786.712 -4804.63)" fill="#fff"/>
      <path id="Trazado_115075" data-name="Trazado 115075" d="M10,0H133.446a10,10,0,0,1,10,10V67.152a10,10,0,0,1-10,10H10a10,10,0,0,1-10-10V10A10,10,0,0,1,10,0Z" transform="translate(-7801 -4728.825)" fill="#36c"/>
      <path id="Trazado_115076" data-name="Trazado 115076" d="M24.486,15.7H19.125L17.912,19H16.145L21.094,6.2h1.485L27.448,19H25.682Zm-4.825-1.45h4.307L21.858,8.427h-.053ZM37,14.605a5.225,5.225,0,0,1-.989,3.318,3.267,3.267,0,0,1-2.72,1.261,3.468,3.468,0,0,1-1.635-.365,3.04,3.04,0,0,1-1.151-1.077L30.3,19H28.881V5.289h1.731v5.326a3,3,0,0,1,1.112-.967,3.409,3.409,0,0,1,1.551-.334,3.16,3.16,0,0,1,2.742,1.406,6.325,6.325,0,0,1,.984,3.7Zm-1.731-.185a5.25,5.25,0,0,0-.6-2.667,1.982,1.982,0,0,0-1.833-1.033,2.266,2.266,0,0,0-1.349.391,2.758,2.758,0,0,0-.875,1.05v4.122a2.831,2.831,0,0,0,.875,1.1,2.254,2.254,0,0,0,1.367.4,2.057,2.057,0,0,0,1.819-.87,4,4,0,0,0,.6-2.3ZM44.956,19q-.088-.431-.136-.76a5.58,5.58,0,0,1-.057-.664A4.037,4.037,0,0,1,43.5,18.723a3.225,3.225,0,0,1-1.674.461,3.109,3.109,0,0,1-2.263-.76,2.8,2.8,0,0,1-.778-2.1,2.456,2.456,0,0,1,1.1-2.131,5.151,5.151,0,0,1,2.993-.769h1.881v-.94a1.745,1.745,0,0,0-.51-1.323,2,2,0,0,0-1.441-.488,2.081,2.081,0,0,0-1.358.426,1.282,1.282,0,0,0-.523,1.024H39.278l-.018-.053a2.3,2.3,0,0,1,.98-1.9,4.025,4.025,0,0,1,2.667-.861,3.927,3.927,0,0,1,2.6.822,2.911,2.911,0,0,1,.984,2.369v4.579a8.913,8.913,0,0,0,.053.984A5.062,5.062,0,0,0,46.74,19Zm-2.874-1.274a3.088,3.088,0,0,0,1.7-.482,2.293,2.293,0,0,0,.984-1.1V14.6H42.82a2.524,2.524,0,0,0-1.674.526,1.571,1.571,0,0,0-.628,1.236,1.3,1.3,0,0,0,.4,1A1.659,1.659,0,0,0,42.082,17.726ZM50.555,9.49l.123,1.415a3.453,3.453,0,0,1,1.191-1.173,3.178,3.178,0,0,1,1.63-.417,3.1,3.1,0,0,1,2.382.9A3.955,3.955,0,0,1,56.725,13v6H54.993V13.032a2.572,2.572,0,0,0-.5-1.784,1.989,1.989,0,0,0-1.516-.527,2.44,2.44,0,0,0-1.323.36,2.631,2.631,0,0,0-.918.984V19H49.008V9.49Zm8.288,4.931a6.346,6.346,0,0,1,.98-3.7,3.158,3.158,0,0,1,2.747-1.406,3.405,3.405,0,0,1,1.481.308,3.036,3.036,0,0,1,1.1.9V5.289h1.731V19H65.47l-.2-1.169a3.082,3.082,0,0,1-1.143,1.011,3.437,3.437,0,0,1-1.573.343,3.264,3.264,0,0,1-2.725-1.261,5.241,5.241,0,0,1-.984-3.318Zm1.731.185a4.037,4.037,0,0,0,.589,2.307,2.056,2.056,0,0,0,1.828.866,2.293,2.293,0,0,0,1.3-.352,2.625,2.625,0,0,0,.861-.984V12a2.666,2.666,0,0,0-.866-.936,2.288,2.288,0,0,0-1.279-.347,1.979,1.979,0,0,0-1.841,1.028,5.308,5.308,0,0,0-.593,2.672Zm8.49-.448a5.235,5.235,0,0,1,1.143-3.476,4.234,4.234,0,0,1,6.227,0,5.218,5.218,0,0,1,1.147,3.48v.193a5.21,5.21,0,0,1-1.143,3.48,4.253,4.253,0,0,1-6.227,0,5.2,5.2,0,0,1-1.147-3.476Zm1.731.189a4.5,4.5,0,0,0,.637,2.493,2.3,2.3,0,0,0,3.775,0,4.477,4.477,0,0,0,.642-2.493v-.193a4.463,4.463,0,0,0-.646-2.484,2.118,2.118,0,0,0-1.894-.992,2.089,2.089,0,0,0-1.876.992,4.511,4.511,0,0,0-.637,2.484ZM81.246,9.49l.123,1.415A3.453,3.453,0,0,1,82.56,9.732a3.178,3.178,0,0,1,1.63-.417,3.1,3.1,0,0,1,2.382.9A3.955,3.955,0,0,1,87.416,13v6H85.685V13.032a2.572,2.572,0,0,0-.5-1.784,1.989,1.989,0,0,0-1.516-.527,2.44,2.44,0,0,0-1.323.36,2.631,2.631,0,0,0-.918.984V19H79.7V9.49Zm8.279,4.667a5.235,5.235,0,0,1,1.143-3.476,4.234,4.234,0,0,1,6.227,0,5.218,5.218,0,0,1,1.147,3.48v.193a5.21,5.21,0,0,1-1.143,3.48,4.253,4.253,0,0,1-6.227,0,5.2,5.2,0,0,1-1.147-3.476Zm1.731.189a4.5,4.5,0,0,0,.637,2.493,2.3,2.3,0,0,0,3.775,0,4.477,4.477,0,0,0,.642-2.493v-.193a4.463,4.463,0,0,0-.646-2.484,2.118,2.118,0,0,0-1.894-.992,2.089,2.089,0,0,0-1.876.992,4.511,4.511,0,0,0-.637,2.484Z" transform="translate(-7786.712 -4701.967)" fill="#fff"/>
      <path id="Trazado_115077" data-name="Trazado 115077" d="M10,0H133.446a10,10,0,0,1,10,10V67.152a10,10,0,0,1-10,10H10a10,10,0,0,1-10-10V10A10,10,0,0,1,10,0Z" transform="translate(-7801 -4636.162)" fill="#36c"/>
      <path id="Trazado_115078" data-name="Trazado 115078" d="M18.655,19H16.923L10.762,9.1l-.053.018V19H8.978V6.2h1.731l6.161,9.879.053-.018V6.2h1.731Zm2.435-4.843a5.235,5.235,0,0,1,1.143-3.476,3.831,3.831,0,0,1,3.1-1.367,3.869,3.869,0,0,1,3.125,1.362,5.218,5.218,0,0,1,1.147,3.48v.193a5.21,5.21,0,0,1-1.143,3.48,3.858,3.858,0,0,1-3.111,1.354,3.865,3.865,0,0,1-3.116-1.358,5.2,5.2,0,0,1-1.147-3.476Zm1.731.189a4.5,4.5,0,0,0,.637,2.493,2.3,2.3,0,0,0,3.775,0,4.477,4.477,0,0,0,.642-2.493v-.193a4.463,4.463,0,0,0-.646-2.484,2.118,2.118,0,0,0-1.894-.992,2.089,2.089,0,0,0-1.876.992,4.511,4.511,0,0,0-.637,2.484ZM42.042,19q-.088-.431-.136-.76a5.58,5.58,0,0,1-.057-.664,4.037,4.037,0,0,1-1.261,1.147,3.225,3.225,0,0,1-1.674.461,3.109,3.109,0,0,1-2.263-.76,2.8,2.8,0,0,1-.778-2.1,2.456,2.456,0,0,1,1.1-2.131,5.151,5.151,0,0,1,2.993-.769h1.881v-.94a1.745,1.745,0,0,0-.51-1.323,2,2,0,0,0-1.441-.488,2.081,2.081,0,0,0-1.358.426,1.282,1.282,0,0,0-.523,1.024H36.365l-.018-.053a2.3,2.3,0,0,1,.98-1.9,4.025,4.025,0,0,1,2.667-.861,3.927,3.927,0,0,1,2.6.822,2.911,2.911,0,0,1,.984,2.369v4.579a8.913,8.913,0,0,0,.053.984,5.062,5.062,0,0,0,.193.932Zm-2.874-1.274a3.088,3.088,0,0,0,1.7-.482,2.293,2.293,0,0,0,.984-1.1V14.6H39.907a2.524,2.524,0,0,0-1.674.526,1.571,1.571,0,0,0-.628,1.236,1.3,1.3,0,0,0,.4,1A1.659,1.659,0,0,0,39.168,17.726Zm10.793.1a2.335,2.335,0,0,0,1.516-.532,1.623,1.623,0,0,0,.655-1.305h1.556l.018.053a2.678,2.678,0,0,1-1.094,2.188,3.99,3.99,0,0,1-2.65.958,3.849,3.849,0,0,1-3.173-1.354,5.222,5.222,0,0,1-1.1-3.4v-.369a5.2,5.2,0,0,1,1.1-3.388,4.33,4.33,0,0,1,5.9-.374,3.061,3.061,0,0,1,1.024,2.417l-.018.053H52.132a2.009,2.009,0,0,0-.615-1.481,2.116,2.116,0,0,0-1.556-.611,2.087,2.087,0,0,0-1.947.979,4.607,4.607,0,0,0-.584,2.4v.369a4.661,4.661,0,0,0,.58,2.427A2.091,2.091,0,0,0,49.961,17.822Zm9.554,0a2.335,2.335,0,0,0,1.516-.532,1.623,1.623,0,0,0,.655-1.305h1.556l.018.053a2.678,2.678,0,0,1-1.094,2.188,3.99,3.99,0,0,1-2.65.958,3.849,3.849,0,0,1-3.173-1.354,5.222,5.222,0,0,1-1.1-3.4v-.369a5.2,5.2,0,0,1,1.1-3.388,4.33,4.33,0,0,1,5.9-.374,3.061,3.061,0,0,1,1.024,2.417l-.018.053H61.686a2.009,2.009,0,0,0-.615-1.481,2.116,2.116,0,0,0-1.556-.611,2.087,2.087,0,0,0-1.947.979,4.607,4.607,0,0,0-.584,2.4v.369a4.661,4.661,0,0,0,.58,2.427A2.091,2.091,0,0,0,59.515,17.822Zm9.633,1.362a4.012,4.012,0,0,1-3.16-1.323,4.979,4.979,0,0,1-1.173-3.432v-.387a4.877,4.877,0,0,1,1.208-3.379,3.723,3.723,0,0,1,2.861-1.349,3.6,3.6,0,0,1,2.909,1.16,4.622,4.622,0,0,1,.984,3.094v1.081h-6.17l-.026.044a3.741,3.741,0,0,0,.694,2.248,2.214,2.214,0,0,0,1.872.881,4.356,4.356,0,0,0,1.542-.25,3.546,3.546,0,0,0,1.147-.69l.677,1.126a4.02,4.02,0,0,1-1.345.84A5.415,5.415,0,0,1,69.148,19.185Zm-.264-8.508a1.878,1.878,0,0,0-1.485.731,3.459,3.459,0,0,0-.756,1.835l.018.044h4.386v-.228a2.639,2.639,0,0,0-.545-1.7A1.944,1.944,0,0,0,68.884,10.677Zm11.364,5.792a1.179,1.179,0,0,0-.435-.94,4.091,4.091,0,0,0-1.648-.642,6.934,6.934,0,0,1-2.606-1.022,2.069,2.069,0,0,1-.875-1.759,2.482,2.482,0,0,1,.984-1.974,4.481,4.481,0,0,1,5.208.036,2.521,2.521,0,0,1,.936,2.074l-.018.053H80.143a1.512,1.512,0,0,0-.523-1.121,1.927,1.927,0,0,0-1.384-.5,2,2,0,0,0-1.371.4,1.268,1.268,0,0,0-.448.976,1.088,1.088,0,0,0,.4.888,4.1,4.1,0,0,0,1.608.58,6.928,6.928,0,0,1,2.681,1.05,2.117,2.117,0,0,1,.879,1.78A2.457,2.457,0,0,1,80.956,18.4a4.29,4.29,0,0,1-2.676.782,4.179,4.179,0,0,1-2.865-.923,2.633,2.633,0,0,1-.993-2.153l.018-.053h1.652a1.591,1.591,0,0,0,.686,1.342,2.662,2.662,0,0,0,1.5.424,2.45,2.45,0,0,0,1.446-.374A1.151,1.151,0,0,0,80.249,16.469Zm3.48-2.312a5.235,5.235,0,0,1,1.143-3.476,4.234,4.234,0,0,1,6.227,0,5.218,5.218,0,0,1,1.147,3.48v.193a5.21,5.21,0,0,1-1.143,3.48,4.253,4.253,0,0,1-6.227,0,5.2,5.2,0,0,1-1.147-3.476Zm1.731.189a4.5,4.5,0,0,0,.637,2.493,2.3,2.3,0,0,0,3.775,0,4.477,4.477,0,0,0,.642-2.493v-.193a4.463,4.463,0,0,0-.646-2.484,2.118,2.118,0,0,0-1.894-.992,2.089,2.089,0,0,0-1.876.992,4.511,4.511,0,0,0-.637,2.484ZM104.682,19q-.088-.431-.136-.76a5.58,5.58,0,0,1-.057-.664,4.037,4.037,0,0,1-1.261,1.147,3.225,3.225,0,0,1-1.674.461,3.109,3.109,0,0,1-2.263-.76,2.8,2.8,0,0,1-.778-2.1,2.456,2.456,0,0,1,1.1-2.131,5.151,5.151,0,0,1,2.993-.769h1.881v-.94a1.745,1.745,0,0,0-.51-1.323,2,2,0,0,0-1.441-.488,2.081,2.081,0,0,0-1.358.426,1.282,1.282,0,0,0-.523,1.024H99l-.018-.053a2.3,2.3,0,0,1,.98-1.9,4.025,4.025,0,0,1,2.667-.861,3.927,3.927,0,0,1,2.6.822,2.911,2.911,0,0,1,.984,2.369v4.579a8.913,8.913,0,0,0,.053.984,5.062,5.062,0,0,0,.193.932Zm-2.874-1.274a3.088,3.088,0,0,0,1.7-.482,2.293,2.293,0,0,0,.984-1.1V14.6h-1.942a2.524,2.524,0,0,0-1.674.526,1.571,1.571,0,0,0-.628,1.236,1.3,1.3,0,0,0,.4,1A1.659,1.659,0,0,0,101.808,17.726ZM20.65,40.785a4.012,4.012,0,0,1-3.16-1.323,4.979,4.979,0,0,1-1.173-3.432v-.387a4.877,4.877,0,0,1,1.208-3.379,3.723,3.723,0,0,1,2.861-1.349,3.6,3.6,0,0,1,2.909,1.16,4.622,4.622,0,0,1,.984,3.094v1.081H18.11l-.026.044a3.741,3.741,0,0,0,.694,2.248,2.214,2.214,0,0,0,1.872.881,4.356,4.356,0,0,0,1.542-.25,3.546,3.546,0,0,0,1.147-.69l.677,1.126a4.02,4.02,0,0,1-1.345.84A5.415,5.415,0,0,1,20.65,40.785Zm-.264-8.508a1.878,1.878,0,0,0-1.485.731,3.459,3.459,0,0,0-.756,1.835l.018.044h4.386v-.228A2.639,2.639,0,0,0,22,32.96,1.944,1.944,0,0,0,20.386,32.277Zm5.44,3.744a6.346,6.346,0,0,1,.98-3.7,3.158,3.158,0,0,1,2.747-1.406,3.405,3.405,0,0,1,1.481.308,3.036,3.036,0,0,1,1.1.9V26.889h1.731V40.6H32.454l-.2-1.169a3.082,3.082,0,0,1-1.143,1.011,3.437,3.437,0,0,1-1.573.343,3.264,3.264,0,0,1-2.725-1.261,5.241,5.241,0,0,1-.984-3.318Zm1.731.185a4.037,4.037,0,0,0,.589,2.307,2.056,2.056,0,0,0,1.828.866,2.293,2.293,0,0,0,1.3-.352,2.625,2.625,0,0,0,.861-.984V33.6a2.666,2.666,0,0,0-.866-.936,2.288,2.288,0,0,0-1.279-.347,1.979,1.979,0,0,0-1.841,1.028,5.308,5.308,0,0,0-.593,2.672Zm14.933,2.988a3.221,3.221,0,0,1-1.151,1.178,3.15,3.15,0,0,1-1.626.413,3.055,3.055,0,0,1-2.426-.993,4.611,4.611,0,0,1-.87-3.094V31.09h1.731v5.625a3.541,3.541,0,0,0,.448,2.092,1.667,1.667,0,0,0,1.4.571A2.848,2.848,0,0,0,41.52,39a2.337,2.337,0,0,0,.91-1.059V31.09h1.731V40.6H42.6Zm8.06.229a2.335,2.335,0,0,0,1.516-.532,1.623,1.623,0,0,0,.655-1.305h1.556l.018.053A2.678,2.678,0,0,1,53.2,39.827a3.99,3.99,0,0,1-2.65.958,3.849,3.849,0,0,1-3.173-1.354,5.222,5.222,0,0,1-1.1-3.4v-.369a5.2,5.2,0,0,1,1.1-3.388,4.33,4.33,0,0,1,5.9-.374A3.061,3.061,0,0,1,54.3,34.316l-.018.053H52.721a2.009,2.009,0,0,0-.615-1.481,2.116,2.116,0,0,0-1.556-.611,2.087,2.087,0,0,0-1.947.979,4.607,4.607,0,0,0-.584,2.4v.369a4.661,4.661,0,0,0,.58,2.427A2.091,2.091,0,0,0,50.55,39.422ZM62.082,40.6q-.088-.431-.136-.76a5.58,5.58,0,0,1-.057-.664,4.037,4.037,0,0,1-1.261,1.147,3.225,3.225,0,0,1-1.674.461,3.109,3.109,0,0,1-2.263-.76,2.8,2.8,0,0,1-.778-2.1,2.456,2.456,0,0,1,1.1-2.131,5.151,5.151,0,0,1,2.993-.769h1.881v-.94a1.745,1.745,0,0,0-.51-1.323,2,2,0,0,0-1.441-.488,2.081,2.081,0,0,0-1.358.426,1.282,1.282,0,0,0-.523,1.024H56.4l-.018-.053a2.3,2.3,0,0,1,.98-1.9,4.025,4.025,0,0,1,2.667-.861,3.927,3.927,0,0,1,2.6.822A2.911,2.911,0,0,1,63.62,34.1v4.579a8.913,8.913,0,0,0,.053.984,5.062,5.062,0,0,0,.193.932Zm-2.874-1.274a3.088,3.088,0,0,0,1.7-.482,2.293,2.293,0,0,0,.984-1.1V36.2H59.946a2.524,2.524,0,0,0-1.674.526,1.571,1.571,0,0,0-.628,1.236,1.3,1.3,0,0,0,.4,1A1.659,1.659,0,0,0,59.207,39.326Zm10.793.1a2.335,2.335,0,0,0,1.516-.532,1.623,1.623,0,0,0,.655-1.305h1.556l.018.053a2.678,2.678,0,0,1-1.094,2.188,3.99,3.99,0,0,1-2.65.958,3.849,3.849,0,0,1-3.173-1.354,5.222,5.222,0,0,1-1.1-3.4v-.369a5.2,5.2,0,0,1,1.1-3.388,4.33,4.33,0,0,1,5.9-.374,3.061,3.061,0,0,1,1.024,2.417l-.018.053H72.171a2.009,2.009,0,0,0-.615-1.481A2.116,2.116,0,0,0,70,32.277a2.087,2.087,0,0,0-1.947.979,4.607,4.607,0,0,0-.584,2.4v.369a4.661,4.661,0,0,0,.58,2.427A2.091,2.091,0,0,0,70,39.422ZM77.559,40.6H75.828V31.09h1.731Zm0-11.944H75.828V26.889h1.731Zm2.259,7.1a5.235,5.235,0,0,1,1.143-3.476,4.234,4.234,0,0,1,6.227,0,5.218,5.218,0,0,1,1.147,3.48v.193a5.21,5.21,0,0,1-1.143,3.48,4.253,4.253,0,0,1-6.227,0,5.2,5.2,0,0,1-1.147-3.476Zm1.731.189a4.5,4.5,0,0,0,.637,2.493,2.3,2.3,0,0,0,3.775,0,4.477,4.477,0,0,0,.642-2.493v-.193a4.463,4.463,0,0,0-.646-2.484,2.118,2.118,0,0,0-1.894-.992,2.089,2.089,0,0,0-1.876.992,4.511,4.511,0,0,0-.637,2.484Zm3.366-8.53h2.021l.018.053-2.373,2.285H83.29ZM92,31.09l.123,1.415a3.453,3.453,0,0,1,1.191-1.173,3.178,3.178,0,0,1,1.63-.417,3.1,3.1,0,0,1,2.382.9,3.955,3.955,0,0,1,.844,2.782v6H96.438V34.632a2.572,2.572,0,0,0-.5-1.784,1.989,1.989,0,0,0-1.516-.527,2.44,2.44,0,0,0-1.323.36,2.631,2.631,0,0,0-.918.984V40.6H90.453V31.09Z" transform="translate(-7786.712 -4620.304)" fill="#fff"/>
      <path id="Trazado_115081" data-name="Trazado 115081" d="M10,0H133.446a10,10,0,0,1,10,10V67.152a10,10,0,0,1-10,10H10a10,10,0,0,1-10-10V10A10,10,0,0,1,10,0Z" transform="translate(-7801 -4543.499)" fill="#36c"/>
      <path id="Trazado_115082" data-name="Trazado 115082" d="M11.193,7.565H7.08V19H5.348V7.565h-4.1V6.2h9.949Zm5.484,3.454-.888-.053a1.983,1.983,0,0,0-1.156.325,2.086,2.086,0,0,0-.725.914V19H12.177V9.49h1.547l.167,1.389a3.3,3.3,0,0,1,1-1.151,2.333,2.333,0,0,1,1.367-.413,2.139,2.139,0,0,1,.369.031,2.446,2.446,0,0,1,.29.066ZM24.192,19q-.088-.431-.136-.76A5.58,5.58,0,0,1,24,17.576a4.037,4.037,0,0,1-1.261,1.147,3.225,3.225,0,0,1-1.674.461,3.109,3.109,0,0,1-2.263-.76,2.8,2.8,0,0,1-.778-2.1,2.456,2.456,0,0,1,1.1-2.131,5.151,5.151,0,0,1,2.993-.769H24v-.94a1.745,1.745,0,0,0-.51-1.323,2,2,0,0,0-1.441-.488,2.081,2.081,0,0,0-1.358.426,1.282,1.282,0,0,0-.523,1.024H18.514l-.018-.053a2.3,2.3,0,0,1,.98-1.9,4.025,4.025,0,0,1,2.667-.861,3.927,3.927,0,0,1,2.6.822A2.911,2.911,0,0,1,25.73,12.5v4.579a8.913,8.913,0,0,0,.053.984,5.062,5.062,0,0,0,.193.932Zm-2.874-1.274a3.088,3.088,0,0,0,1.7-.482,2.293,2.293,0,0,0,.984-1.1V14.6H22.056a2.524,2.524,0,0,0-1.674.526,1.571,1.571,0,0,0-.628,1.236,1.3,1.3,0,0,0,.4,1A1.659,1.659,0,0,0,21.318,17.726ZM30.529,7.2V9.49h1.8v1.283h-1.8v5.774a1.293,1.293,0,0,0,.277.94,1,1,0,0,0,.734.272,1.732,1.732,0,0,0,.33-.035,2.017,2.017,0,0,0,.321-.088l.229,1.187a1.528,1.528,0,0,1-.567.259,2.865,2.865,0,0,1-.751.1,2.242,2.242,0,0,1-1.679-.637,2.767,2.767,0,0,1-.624-2V10.773H27.286V9.49H28.8V7.2ZM40.311,19q-.088-.431-.136-.76a5.58,5.58,0,0,1-.057-.664,4.037,4.037,0,0,1-1.261,1.147,3.225,3.225,0,0,1-1.674.461,3.109,3.109,0,0,1-2.263-.76,2.8,2.8,0,0,1-.778-2.1,2.456,2.456,0,0,1,1.1-2.131,5.151,5.151,0,0,1,2.993-.769h1.881v-.94a1.745,1.745,0,0,0-.51-1.323,2,2,0,0,0-1.441-.488,2.081,2.081,0,0,0-1.358.426,1.282,1.282,0,0,0-.523,1.024H34.633l-.018-.053a2.3,2.3,0,0,1,.98-1.9,4.025,4.025,0,0,1,2.667-.861,3.927,3.927,0,0,1,2.6.822,2.911,2.911,0,0,1,.984,2.369v4.579a8.913,8.913,0,0,0,.053.984A5.062,5.062,0,0,0,42.1,19Zm-2.874-1.274a3.088,3.088,0,0,0,1.7-.482,2.293,2.293,0,0,0,.984-1.1V14.6H38.175a2.524,2.524,0,0,0-1.674.526,1.571,1.571,0,0,0-.628,1.236,1.3,1.3,0,0,0,.4,1A1.659,1.659,0,0,0,37.437,17.726Zm14.309-2.25.308,1.2h.053L54.444,9.49h1.925l-4,10.969a4.931,4.931,0,0,1-1.033,1.67,2.377,2.377,0,0,1-1.815.712,3.783,3.783,0,0,1-.536-.048q-.325-.048-.5-.092l.176-1.362a2.32,2.32,0,0,1,.312.018q.365.026.461.026a1.069,1.069,0,0,0,.905-.492,5.11,5.11,0,0,0,.589-1.09l.413-.993L47.808,9.49h1.934ZM64.648,7.2V9.49h1.8v1.283h-1.8v5.774a1.293,1.293,0,0,0,.277.94,1,1,0,0,0,.734.272,1.732,1.732,0,0,0,.33-.035,2.017,2.017,0,0,0,.321-.088l.229,1.187a1.528,1.528,0,0,1-.567.259,2.865,2.865,0,0,1-.751.1,2.242,2.242,0,0,1-1.679-.637,2.767,2.767,0,0,1-.624-2V10.773H61.4V9.49h1.512V7.2Zm8.438,3.823-.888-.053a1.983,1.983,0,0,0-1.156.325,2.086,2.086,0,0,0-.725.914V19H68.585V9.49h1.547l.167,1.389a3.3,3.3,0,0,1,1-1.151,2.333,2.333,0,0,1,1.367-.413,2.139,2.139,0,0,1,.369.031,2.446,2.446,0,0,1,.29.066ZM80.6,19q-.088-.431-.136-.76a5.58,5.58,0,0,1-.057-.664,4.037,4.037,0,0,1-1.261,1.147,3.225,3.225,0,0,1-1.674.461,3.109,3.109,0,0,1-2.263-.76,2.8,2.8,0,0,1-.778-2.1,2.456,2.456,0,0,1,1.1-2.131,5.151,5.151,0,0,1,2.993-.769h1.881v-.94a1.745,1.745,0,0,0-.51-1.323,2,2,0,0,0-1.441-.488A2.081,2.081,0,0,0,77.1,11.1a1.282,1.282,0,0,0-.523,1.024H74.922l-.018-.053a2.3,2.3,0,0,1,.98-1.9,4.025,4.025,0,0,1,2.667-.861,3.927,3.927,0,0,1,2.6.822,2.911,2.911,0,0,1,.984,2.369v4.579a8.913,8.913,0,0,0,.053.984,5.062,5.062,0,0,0,.193.932Zm-2.874-1.274a3.088,3.088,0,0,0,1.7-.482,2.293,2.293,0,0,0,.984-1.1V14.6H78.464a2.524,2.524,0,0,0-1.674.526,1.571,1.571,0,0,0-.628,1.236,1.3,1.3,0,0,0,.4,1A1.659,1.659,0,0,0,77.726,17.726ZM79.211,5.816h2.021l.018.053L78.877,8.154H77.585ZM85.373,19V10.773H83.887V9.49h1.485v-1.2a3.263,3.263,0,0,1,.8-2.351A2.927,2.927,0,0,1,88.387,5.1a3.819,3.819,0,0,1,.6.048q.3.048.672.136l-.211,1.318q-.158-.035-.382-.062a4.026,4.026,0,0,0-.47-.026,1.366,1.366,0,0,0-1.125.453A2.035,2.035,0,0,0,87.1,8.286v1.2h1.978v1.283H87.1V19Zm7.365,0H91.006V9.49h1.731Zm0-11.944H91.006V5.289h1.731Zm6.53,10.767a2.335,2.335,0,0,0,1.516-.532,1.623,1.623,0,0,0,.655-1.305h1.556l.018.053a2.678,2.678,0,0,1-1.094,2.188,3.99,3.99,0,0,1-2.65.958A3.849,3.849,0,0,1,96.1,17.831a5.222,5.222,0,0,1-1.1-3.4v-.369a5.2,5.2,0,0,1,1.1-3.388A4.33,4.33,0,0,1,102,10.3a3.061,3.061,0,0,1,1.024,2.417l-.018.053h-1.564a2.009,2.009,0,0,0-.615-1.481,2.116,2.116,0,0,0-1.556-.611,2.087,2.087,0,0,0-1.947.979,4.607,4.607,0,0,0-.584,2.4v.369a4.661,4.661,0,0,0,.58,2.427A2.091,2.091,0,0,0,99.268,17.822Zm5.282-3.665a5.235,5.235,0,0,1,1.143-3.476,4.234,4.234,0,0,1,6.227,0,5.218,5.218,0,0,1,1.147,3.48v.193a5.21,5.21,0,0,1-1.143,3.48,4.253,4.253,0,0,1-6.227,0,5.2,5.2,0,0,1-1.147-3.476Zm1.731.189a4.5,4.5,0,0,0,.637,2.493,2.3,2.3,0,0,0,3.775,0,4.477,4.477,0,0,0,.642-2.493v-.193a4.463,4.463,0,0,0-.646-2.484,2.118,2.118,0,0,0-1.894-.992,2.089,2.089,0,0,0-1.876.992,4.511,4.511,0,0,0-.637,2.484ZM8.635,36.021a6.346,6.346,0,0,1,.98-3.7,3.158,3.158,0,0,1,2.747-1.406,3.405,3.405,0,0,1,1.481.308,3.036,3.036,0,0,1,1.1.9V26.889h1.731V40.6H15.262l-.2-1.169a3.082,3.082,0,0,1-1.143,1.011,3.437,3.437,0,0,1-1.573.343A3.264,3.264,0,0,1,9.62,39.523a5.241,5.241,0,0,1-.984-3.318Zm1.731.185a4.037,4.037,0,0,0,.589,2.307,2.056,2.056,0,0,0,1.828.866,2.293,2.293,0,0,0,1.3-.352,2.625,2.625,0,0,0,.861-.984V33.6a2.666,2.666,0,0,0-.866-.936,2.288,2.288,0,0,0-1.279-.347,1.979,1.979,0,0,0-1.841,1.028,5.308,5.308,0,0,0-.593,2.672Zm12.841,4.579a4.012,4.012,0,0,1-3.16-1.323,4.979,4.979,0,0,1-1.173-3.432v-.387a4.877,4.877,0,0,1,1.208-3.379,3.723,3.723,0,0,1,2.861-1.349,3.6,3.6,0,0,1,2.909,1.16,4.622,4.622,0,0,1,.984,3.094v1.081h-6.17l-.026.044a3.741,3.741,0,0,0,.694,2.248,2.214,2.214,0,0,0,1.872.881,4.356,4.356,0,0,0,1.542-.25,3.546,3.546,0,0,0,1.147-.69l.677,1.126a4.02,4.02,0,0,1-1.345.84A5.415,5.415,0,0,1,23.207,40.785Zm-.264-8.508a1.878,1.878,0,0,0-1.485.731,3.459,3.459,0,0,0-.756,1.835l.018.044h4.386v-.228a2.639,2.639,0,0,0-.545-1.7A1.944,1.944,0,0,0,22.944,32.277Zm18.413,3.929a5.241,5.241,0,0,1-.984,3.318,3.254,3.254,0,0,1-2.716,1.261,3.773,3.773,0,0,1-1.542-.294,2.95,2.95,0,0,1-1.129-.883v4.649H33.253V31.09h1.327l.272,1.23a3.141,3.141,0,0,1,1.16-1.046,3.463,3.463,0,0,1,1.617-.36,3.161,3.161,0,0,1,2.747,1.4,6.342,6.342,0,0,1,.98,3.7Zm-1.731-.189a5.014,5.014,0,0,0-.637-2.655,2.065,2.065,0,0,0-1.876-1.04,2.312,2.312,0,0,0-1.274.338,2.529,2.529,0,0,0-.853.926v4.591a2.457,2.457,0,0,0,.853.917,2.394,2.394,0,0,0,1.292.329,2.132,2.132,0,0,0,1.863-.9,3.947,3.947,0,0,0,.633-2.322Zm7.8,4.768a4.012,4.012,0,0,1-3.16-1.323A4.979,4.979,0,0,1,43.1,36.03v-.387a4.877,4.877,0,0,1,1.208-3.379,3.723,3.723,0,0,1,2.861-1.349,3.6,3.6,0,0,1,2.909,1.16,4.622,4.622,0,0,1,.984,3.094v1.081H44.89l-.026.044a3.741,3.741,0,0,0,.694,2.248,2.214,2.214,0,0,0,1.872.881,4.356,4.356,0,0,0,1.542-.25,3.546,3.546,0,0,0,1.147-.69l.677,1.126a4.02,4.02,0,0,1-1.345.84A5.415,5.415,0,0,1,47.43,40.785Zm-.264-8.508a1.878,1.878,0,0,0-1.485.731,3.459,3.459,0,0,0-.756,1.835l.018.044h4.386v-.228a2.639,2.639,0,0,0-.545-1.7A1.944,1.944,0,0,0,47.166,32.277ZM57.5,32.62l-.888-.053a1.983,1.983,0,0,0-1.156.325,2.086,2.086,0,0,0-.725.914V40.6H53V31.09h1.547l.167,1.389a3.3,3.3,0,0,1,1-1.151,2.333,2.333,0,0,1,1.367-.413,2.139,2.139,0,0,1,.369.031,2.446,2.446,0,0,1,.29.066Zm7.2,5.449a1.179,1.179,0,0,0-.435-.94,4.091,4.091,0,0,0-1.648-.642,6.934,6.934,0,0,1-2.606-1.022,2.069,2.069,0,0,1-.875-1.759,2.482,2.482,0,0,1,.984-1.974,4.481,4.481,0,0,1,5.208.036,2.521,2.521,0,0,1,.936,2.074l-.018.053H64.6a1.512,1.512,0,0,0-.523-1.121,1.927,1.927,0,0,0-1.384-.5,2,2,0,0,0-1.371.4,1.268,1.268,0,0,0-.448.976,1.088,1.088,0,0,0,.4.888,4.1,4.1,0,0,0,1.608.58,6.928,6.928,0,0,1,2.681,1.05,2.117,2.117,0,0,1,.879,1.78A2.457,2.457,0,0,1,65.408,40a4.29,4.29,0,0,1-2.676.782,4.179,4.179,0,0,1-2.865-.923,2.633,2.633,0,0,1-.993-2.153l.018-.053h1.652A1.591,1.591,0,0,0,61.229,39a2.662,2.662,0,0,0,1.5.424,2.45,2.45,0,0,0,1.446-.374A1.151,1.151,0,0,0,64.7,38.069Zm3.48-2.312a5.235,5.235,0,0,1,1.143-3.476,4.234,4.234,0,0,1,6.227,0,5.218,5.218,0,0,1,1.147,3.48v.193a5.21,5.21,0,0,1-1.143,3.48,4.253,4.253,0,0,1-6.227,0,5.2,5.2,0,0,1-1.147-3.476Zm1.731.189a4.5,4.5,0,0,0,.637,2.493,2.3,2.3,0,0,0,3.775,0,4.477,4.477,0,0,0,.642-2.493v-.193a4.463,4.463,0,0,0-.646-2.484,2.118,2.118,0,0,0-1.894-.992,2.089,2.089,0,0,0-1.876.992,4.511,4.511,0,0,0-.637,2.484Zm10.45-4.856.123,1.415a3.453,3.453,0,0,1,1.191-1.173,3.178,3.178,0,0,1,1.63-.417,3.1,3.1,0,0,1,2.382.9,3.955,3.955,0,0,1,.844,2.782v6H84.8V34.632a2.572,2.572,0,0,0-.5-1.784,1.989,1.989,0,0,0-1.516-.527,2.44,2.44,0,0,0-1.323.36,2.631,2.631,0,0,0-.918.984V40.6H78.816V31.09ZM94.891,40.6q-.088-.431-.136-.76a5.58,5.58,0,0,1-.057-.664,4.037,4.037,0,0,1-1.261,1.147,3.225,3.225,0,0,1-1.674.461,3.109,3.109,0,0,1-2.263-.76,2.8,2.8,0,0,1-.778-2.1,2.456,2.456,0,0,1,1.1-2.131,5.151,5.151,0,0,1,2.993-.769H94.7v-.94a1.745,1.745,0,0,0-.51-1.323,2,2,0,0,0-1.441-.488,2.081,2.081,0,0,0-1.358.426,1.282,1.282,0,0,0-.523,1.024H89.213l-.018-.053a2.3,2.3,0,0,1,.98-1.9,4.025,4.025,0,0,1,2.667-.861,3.927,3.927,0,0,1,2.6.822,2.911,2.911,0,0,1,.984,2.369v4.579a8.913,8.913,0,0,0,.053.984,5.062,5.062,0,0,0,.193.932Zm-2.874-1.274a3.088,3.088,0,0,0,1.7-.482,2.293,2.293,0,0,0,.984-1.1V36.2H92.755a2.524,2.524,0,0,0-1.674.526,1.571,1.571,0,0,0-.628,1.236,1.3,1.3,0,0,0,.4,1A1.659,1.659,0,0,0,92.017,39.326Zm12.454-1.257a1.179,1.179,0,0,0-.435-.94,4.091,4.091,0,0,0-1.648-.642,6.934,6.934,0,0,1-2.606-1.022,2.069,2.069,0,0,1-.875-1.759,2.482,2.482,0,0,1,.984-1.974,4.481,4.481,0,0,1,5.208.036,2.521,2.521,0,0,1,.936,2.074l-.018.053h-1.652a1.512,1.512,0,0,0-.523-1.121,1.927,1.927,0,0,0-1.384-.5,2,2,0,0,0-1.371.4,1.268,1.268,0,0,0-.448.976,1.088,1.088,0,0,0,.4.888,4.1,4.1,0,0,0,1.608.58,6.928,6.928,0,0,1,2.681,1.05,2.117,2.117,0,0,1,.879,1.78A2.457,2.457,0,0,1,105.179,40a4.29,4.29,0,0,1-2.676.782,4.179,4.179,0,0,1-2.865-.923,2.633,2.633,0,0,1-.993-2.153l.018-.053h1.652A1.591,1.591,0,0,0,101,39a2.662,2.662,0,0,0,1.5.424,2.45,2.45,0,0,0,1.446-.374A1.151,1.151,0,0,0,104.471,38.069Z" transform="translate(-7786.712 -4527.641)" fill="#fff"/>
      <path id="Trazado_115083" data-name="Trazado 115083" d="M10,0H133.446a10,10,0,0,1,10,10V67.152a10,10,0,0,1-10,10H10a10,10,0,0,1-10-10V10A10,10,0,0,1,10,0Z" transform="translate(-7159.542 -4821.487)" fill="#36c"/>
      <path id="Trazado_115088" data-name="Trazado 115088" d="M24.46,17.638h6.056V19H22.728V6.2H24.46Zm11.61,1.547a4.012,4.012,0,0,1-3.16-1.323,4.979,4.979,0,0,1-1.173-3.432v-.387a4.877,4.877,0,0,1,1.208-3.379,3.723,3.723,0,0,1,2.861-1.349,3.6,3.6,0,0,1,2.909,1.16,4.622,4.622,0,0,1,.984,3.094v1.081H33.53l-.026.044a3.741,3.741,0,0,0,.694,2.248,2.214,2.214,0,0,0,1.872.881,4.356,4.356,0,0,0,1.542-.25,3.546,3.546,0,0,0,1.147-.69l.677,1.126a4.02,4.02,0,0,1-1.345.84A5.415,5.415,0,0,1,36.07,19.185Zm-.264-8.508a1.878,1.878,0,0,0-1.485.731,3.459,3.459,0,0,0-.756,1.835l.018.044h4.386v-.228a2.639,2.639,0,0,0-.545-1.7A1.944,1.944,0,0,0,35.807,10.677Zm11.364,5.792a1.179,1.179,0,0,0-.435-.94,4.091,4.091,0,0,0-1.648-.642,6.934,6.934,0,0,1-2.606-1.022,2.069,2.069,0,0,1-.875-1.759,2.482,2.482,0,0,1,.984-1.974,4.481,4.481,0,0,1,5.208.036,2.521,2.521,0,0,1,.936,2.074l-.018.053H47.065a1.512,1.512,0,0,0-.523-1.121,1.927,1.927,0,0,0-1.384-.5,2,2,0,0,0-1.371.4,1.268,1.268,0,0,0-.448.976,1.088,1.088,0,0,0,.4.888,4.1,4.1,0,0,0,1.608.58,6.928,6.928,0,0,1,2.681,1.05,2.117,2.117,0,0,1,.879,1.78A2.457,2.457,0,0,1,47.878,18.4a4.29,4.29,0,0,1-2.676.782,4.179,4.179,0,0,1-2.865-.923,2.633,2.633,0,0,1-.993-2.153l.018-.053h1.652A1.591,1.591,0,0,0,43.7,17.4a2.662,2.662,0,0,0,1.5.424,2.45,2.45,0,0,0,1.446-.374A1.151,1.151,0,0,0,47.171,16.469ZM52.928,19H51.2V9.49h1.731Zm0-11.944H51.2V5.289h1.731Zm2.259,7.1a5.235,5.235,0,0,1,1.143-3.476,4.234,4.234,0,0,1,6.227,0,5.218,5.218,0,0,1,1.147,3.48v.193a5.21,5.21,0,0,1-1.143,3.48,4.253,4.253,0,0,1-6.227,0,5.2,5.2,0,0,1-1.147-3.476Zm1.731.189a4.5,4.5,0,0,0,.637,2.493,2.3,2.3,0,0,0,3.775,0,4.477,4.477,0,0,0,.642-2.493v-.193a4.463,4.463,0,0,0-.646-2.484,2.118,2.118,0,0,0-1.894-.992,2.089,2.089,0,0,0-1.876.992,4.511,4.511,0,0,0-.637,2.484ZM67.368,9.49l.123,1.415a3.453,3.453,0,0,1,1.191-1.173,3.178,3.178,0,0,1,1.63-.417,3.1,3.1,0,0,1,2.382.9A3.955,3.955,0,0,1,73.538,13v6H71.807V13.032a2.572,2.572,0,0,0-.5-1.784,1.989,1.989,0,0,0-1.516-.527,2.44,2.44,0,0,0-1.323.36,2.631,2.631,0,0,0-.918.984V19H65.821V9.49ZM80,19.185a4.012,4.012,0,0,1-3.16-1.323,4.979,4.979,0,0,1-1.173-3.432v-.387a4.877,4.877,0,0,1,1.208-3.379,3.723,3.723,0,0,1,2.861-1.349,3.6,3.6,0,0,1,2.909,1.16,4.622,4.622,0,0,1,.984,3.094v1.081h-6.17l-.026.044a3.741,3.741,0,0,0,.694,2.248A2.214,2.214,0,0,0,80,17.822a4.356,4.356,0,0,0,1.542-.25,3.546,3.546,0,0,0,1.147-.69l.677,1.126a4.02,4.02,0,0,1-1.345.84A5.415,5.415,0,0,1,80,19.185Zm-.264-8.508a1.878,1.878,0,0,0-1.485.731,3.459,3.459,0,0,0-.756,1.835l.018.044H81.9v-.228a2.639,2.639,0,0,0-.545-1.7A1.944,1.944,0,0,0,79.734,10.677ZM91.1,16.469a1.179,1.179,0,0,0-.435-.94,4.091,4.091,0,0,0-1.648-.642,6.934,6.934,0,0,1-2.606-1.022,2.069,2.069,0,0,1-.875-1.759,2.482,2.482,0,0,1,.984-1.974,4.481,4.481,0,0,1,5.208.036,2.521,2.521,0,0,1,.936,2.074l-.018.053H90.993a1.512,1.512,0,0,0-.523-1.121,1.927,1.927,0,0,0-1.384-.5,2,2,0,0,0-1.371.4,1.268,1.268,0,0,0-.448.976,1.088,1.088,0,0,0,.4.888,4.1,4.1,0,0,0,1.608.58,6.928,6.928,0,0,1,2.681,1.05,2.117,2.117,0,0,1,.879,1.78A2.457,2.457,0,0,1,91.806,18.4a4.29,4.29,0,0,1-2.676.782,4.179,4.179,0,0,1-2.865-.923,2.633,2.633,0,0,1-.993-2.153l.018-.053h1.652a1.591,1.591,0,0,0,.686,1.342,2.662,2.662,0,0,0,1.5.424,2.45,2.45,0,0,0,1.446-.374A1.151,1.151,0,0,0,91.1,16.469ZM32.634,40.6V32.373H31.148V31.09h1.485v-1.2a3.263,3.263,0,0,1,.8-2.351,2.927,2.927,0,0,1,2.219-.831,3.82,3.82,0,0,1,.6.048q.3.048.672.136l-.211,1.318q-.158-.035-.382-.062a4.026,4.026,0,0,0-.47-.026,1.366,1.366,0,0,0-1.125.453,2.035,2.035,0,0,0-.369,1.314v1.2h1.978v1.283H34.365V40.6ZM40,40.6H38.268V31.09H40Zm0-11.944H38.268V26.889H40Zm8.191,9.413a1.179,1.179,0,0,0-.435-.94,4.091,4.091,0,0,0-1.648-.642A6.934,6.934,0,0,1,43.5,35.464a2.069,2.069,0,0,1-.875-1.759,2.482,2.482,0,0,1,.984-1.974,4.481,4.481,0,0,1,5.208.036,2.521,2.521,0,0,1,.936,2.074l-.018.053H48.085a1.512,1.512,0,0,0-.523-1.121,1.927,1.927,0,0,0-1.384-.5,2,2,0,0,0-1.371.4,1.268,1.268,0,0,0-.448.976,1.088,1.088,0,0,0,.4.888,4.1,4.1,0,0,0,1.608.58,6.928,6.928,0,0,1,2.681,1.05,2.117,2.117,0,0,1,.879,1.78A2.457,2.457,0,0,1,48.9,40a4.29,4.29,0,0,1-2.676.782,4.179,4.179,0,0,1-2.865-.923,2.633,2.633,0,0,1-.993-2.153l.018-.053h1.652A1.591,1.591,0,0,0,44.719,39a2.662,2.662,0,0,0,1.5.424,2.45,2.45,0,0,0,1.446-.374A1.151,1.151,0,0,0,48.19,38.069ZM53.947,40.6H52.216V31.09h1.731Zm0-11.944H52.216V26.889h1.731Zm6.53,10.767a2.335,2.335,0,0,0,1.516-.532,1.623,1.623,0,0,0,.655-1.305H64.2l.018.053a2.678,2.678,0,0,1-1.094,2.188,3.99,3.99,0,0,1-2.65.958A3.849,3.849,0,0,1,57.3,39.431a5.222,5.222,0,0,1-1.1-3.4v-.369a5.2,5.2,0,0,1,1.1-3.388,4.33,4.33,0,0,1,5.9-.374,3.061,3.061,0,0,1,1.024,2.417l-.018.053H62.648a2.009,2.009,0,0,0-.615-1.481,2.116,2.116,0,0,0-1.556-.611,2.087,2.087,0,0,0-1.947.979,4.607,4.607,0,0,0-.584,2.4v.369a4.661,4.661,0,0,0,.58,2.427A2.091,2.091,0,0,0,60.478,39.422ZM72.009,40.6q-.088-.431-.136-.76a5.58,5.58,0,0,1-.057-.664,4.037,4.037,0,0,1-1.261,1.147,3.225,3.225,0,0,1-1.674.461,3.109,3.109,0,0,1-2.263-.76,2.8,2.8,0,0,1-.778-2.1,2.456,2.456,0,0,1,1.1-2.131,5.151,5.151,0,0,1,2.993-.769h1.881v-.94a1.745,1.745,0,0,0-.51-1.323,2,2,0,0,0-1.441-.488,2.081,2.081,0,0,0-1.358.426,1.282,1.282,0,0,0-.523,1.024H66.331l-.018-.053a2.3,2.3,0,0,1,.98-1.9,4.025,4.025,0,0,1,2.667-.861,3.927,3.927,0,0,1,2.6.822,2.911,2.911,0,0,1,.984,2.369v4.579a8.913,8.913,0,0,0,.053.984,5.062,5.062,0,0,0,.193.932Zm-2.874-1.274a3.088,3.088,0,0,0,1.7-.482,2.293,2.293,0,0,0,.984-1.1V36.2H69.873a2.524,2.524,0,0,0-1.674.526,1.571,1.571,0,0,0-.628,1.236,1.3,1.3,0,0,0,.4,1A1.659,1.659,0,0,0,69.135,39.326Zm12.454-1.257a1.179,1.179,0,0,0-.435-.94,4.091,4.091,0,0,0-1.648-.642A6.934,6.934,0,0,1,76.9,35.464a2.069,2.069,0,0,1-.875-1.759,2.482,2.482,0,0,1,.984-1.974,4.481,4.481,0,0,1,5.208.036,2.521,2.521,0,0,1,.936,2.074l-.018.053H81.483a1.512,1.512,0,0,0-.523-1.121,1.927,1.927,0,0,0-1.384-.5,2,2,0,0,0-1.371.4,1.268,1.268,0,0,0-.448.976,1.088,1.088,0,0,0,.4.888,4.1,4.1,0,0,0,1.608.58,6.928,6.928,0,0,1,2.681,1.05,2.117,2.117,0,0,1,.879,1.78A2.457,2.457,0,0,1,82.3,40a4.29,4.29,0,0,1-2.676.782,4.179,4.179,0,0,1-2.865-.923,2.633,2.633,0,0,1-.993-2.153l.018-.053h1.652A1.591,1.591,0,0,0,78.117,39a2.662,2.662,0,0,0,1.5.424,2.45,2.45,0,0,0,1.446-.374A1.151,1.151,0,0,0,81.589,38.069Z" transform="translate(-7145.254 -4804.63)" fill="#fff"/>
      <path id="Trazado_115084" data-name="Trazado 115084" d="M10,0H133.446a10,10,0,0,1,10,10V67.152a10,10,0,0,1-10,10H10a10,10,0,0,1-10-10V10A10,10,0,0,1,10,0Z" transform="translate(-7159.542 -4728.825)" fill="#36c"/>
      <path id="Trazado_115089" data-name="Trazado 115089" d="M14.726,13.067H8.864v4.57h6.759V19H7.132V6.2h8.394V7.565H8.864v4.14h5.862Zm8.13,3.4a1.179,1.179,0,0,0-.435-.94,4.091,4.091,0,0,0-1.648-.642,6.934,6.934,0,0,1-2.606-1.022,2.069,2.069,0,0,1-.875-1.759,2.482,2.482,0,0,1,.984-1.974,3.889,3.889,0,0,1,2.566-.816,3.884,3.884,0,0,1,2.641.853,2.521,2.521,0,0,1,.936,2.074l-.018.053H22.75a1.512,1.512,0,0,0-.523-1.121,1.927,1.927,0,0,0-1.384-.5,2,2,0,0,0-1.371.4,1.268,1.268,0,0,0-.448.976,1.088,1.088,0,0,0,.4.888,4.1,4.1,0,0,0,1.608.58,6.928,6.928,0,0,1,2.681,1.05,2.117,2.117,0,0,1,.879,1.78A2.457,2.457,0,0,1,23.563,18.4a4.29,4.29,0,0,1-2.676.782,4.179,4.179,0,0,1-2.865-.923,2.633,2.633,0,0,1-.993-2.153l.018-.053H18.7a1.591,1.591,0,0,0,.686,1.342,2.662,2.662,0,0,0,1.5.424,2.45,2.45,0,0,0,1.446-.374A1.151,1.151,0,0,0,22.856,16.469ZM29.026,7.2V9.49h1.8v1.283h-1.8v5.774a1.293,1.293,0,0,0,.277.94,1,1,0,0,0,.734.272,1.732,1.732,0,0,0,.33-.035,2.017,2.017,0,0,0,.321-.088l.229,1.187a1.528,1.528,0,0,1-.567.259,2.865,2.865,0,0,1-.751.1,2.242,2.242,0,0,1-1.679-.637,2.767,2.767,0,0,1-.624-2V10.773H25.783V9.49h1.512V7.2Zm8.438,3.823-.888-.053a1.983,1.983,0,0,0-1.156.325,2.086,2.086,0,0,0-.725.914V19H32.963V9.49H34.51l.167,1.389a3.3,3.3,0,0,1,1-1.151,2.333,2.333,0,0,1,1.367-.413,2.139,2.139,0,0,1,.369.031,2.446,2.446,0,0,1,.29.066Zm5.449,8.165a4.012,4.012,0,0,1-3.16-1.323A4.979,4.979,0,0,1,38.58,14.43v-.387a4.877,4.877,0,0,1,1.208-3.379,3.723,3.723,0,0,1,2.861-1.349,3.6,3.6,0,0,1,2.909,1.16,4.622,4.622,0,0,1,.984,3.094v1.081h-6.17l-.026.044a3.741,3.741,0,0,0,.694,2.248,2.214,2.214,0,0,0,1.872.881,4.356,4.356,0,0,0,1.542-.25,3.546,3.546,0,0,0,1.147-.69l.677,1.126a4.02,4.02,0,0,1-1.345.84A5.415,5.415,0,0,1,42.913,19.185Zm-.264-8.508a1.878,1.878,0,0,0-1.485.731,3.459,3.459,0,0,0-.756,1.835l.018.044h4.386v-.228a2.639,2.639,0,0,0-.545-1.7A1.944,1.944,0,0,0,42.649,10.677Zm.8-4.869H45.47l.018.053L43.115,8.146H41.823ZM54.013,16.469a1.179,1.179,0,0,0-.435-.94,4.091,4.091,0,0,0-1.648-.642,6.934,6.934,0,0,1-2.606-1.022A2.069,2.069,0,0,1,48.45,12.1a2.482,2.482,0,0,1,.984-1.974,4.481,4.481,0,0,1,5.208.036,2.521,2.521,0,0,1,.936,2.074l-.018.053H53.908a1.512,1.512,0,0,0-.523-1.121,1.927,1.927,0,0,0-1.384-.5,2,2,0,0,0-1.371.4,1.268,1.268,0,0,0-.448.976,1.088,1.088,0,0,0,.4.888,4.1,4.1,0,0,0,1.608.58,6.928,6.928,0,0,1,2.681,1.05,2.117,2.117,0,0,1,.879,1.78A2.457,2.457,0,0,1,54.721,18.4a4.29,4.29,0,0,1-2.676.782,4.179,4.179,0,0,1-2.865-.923,2.633,2.633,0,0,1-.993-2.153l.018-.053h1.652a1.591,1.591,0,0,0,.686,1.342,2.662,2.662,0,0,0,1.5.424,2.45,2.45,0,0,0,1.446-.374A1.151,1.151,0,0,0,54.013,16.469Zm11.268-.993.308,1.2h.053L67.979,9.49H69.9l-4,10.969a4.931,4.931,0,0,1-1.033,1.67,2.377,2.377,0,0,1-1.815.712,3.783,3.783,0,0,1-.536-.048q-.325-.048-.5-.092l.176-1.362a2.32,2.32,0,0,1,.312.018q.365.026.461.026a1.069,1.069,0,0,0,.905-.492,5.11,5.11,0,0,0,.589-1.09l.413-.993L61.343,9.49h1.934Zm18.738-.87a5.225,5.225,0,0,1-.989,3.318,3.267,3.267,0,0,1-2.72,1.261,3.468,3.468,0,0,1-1.635-.365,3.04,3.04,0,0,1-1.151-1.077L77.313,19H75.9V5.289h1.731v5.326a3,3,0,0,1,1.112-.967,3.409,3.409,0,0,1,1.551-.334,3.16,3.16,0,0,1,2.742,1.406,6.325,6.325,0,0,1,.984,3.7Zm-1.731-.185a5.25,5.25,0,0,0-.6-2.667,1.982,1.982,0,0,0-1.833-1.033,2.266,2.266,0,0,0-1.349.391,2.758,2.758,0,0,0-.875,1.05v4.122a2.831,2.831,0,0,0,.875,1.1,2.254,2.254,0,0,0,1.367.4,2.057,2.057,0,0,0,1.819-.87,4,4,0,0,0,.6-2.3ZM91.973,19q-.088-.431-.136-.76a5.58,5.58,0,0,1-.057-.664,4.037,4.037,0,0,1-1.261,1.147,3.225,3.225,0,0,1-1.674.461,3.109,3.109,0,0,1-2.263-.76,2.8,2.8,0,0,1-.778-2.1,2.456,2.456,0,0,1,1.1-2.131,5.151,5.151,0,0,1,2.993-.769H91.78v-.94a1.745,1.745,0,0,0-.51-1.323,2,2,0,0,0-1.441-.488,2.081,2.081,0,0,0-1.358.426,1.282,1.282,0,0,0-.523,1.024H86.3l-.018-.053a2.3,2.3,0,0,1,.98-1.9,4.025,4.025,0,0,1,2.667-.861,3.927,3.927,0,0,1,2.6.822,2.911,2.911,0,0,1,.984,2.369v4.579a8.913,8.913,0,0,0,.053.984,5.062,5.062,0,0,0,.193.932ZM89.1,17.726a3.088,3.088,0,0,0,1.7-.482,2.293,2.293,0,0,0,.984-1.1V14.6H89.837a2.524,2.524,0,0,0-1.674.526,1.571,1.571,0,0,0-.628,1.236,1.3,1.3,0,0,0,.4,1A1.659,1.659,0,0,0,89.1,17.726ZM98.02,9.49V19.782a3.158,3.158,0,0,1-.756,2.263,2.759,2.759,0,0,1-2.1.8,2.868,2.868,0,0,1-.5-.04,3.926,3.926,0,0,1-.479-.119l.123-1.362a1.823,1.823,0,0,0,.352.075,2.934,2.934,0,0,0,.378.031,1.148,1.148,0,0,0,.91-.387,1.892,1.892,0,0,0,.338-1.257V9.49Zm-.053-2.47H96.236V5.289h1.731ZM106.528,19q-.088-.431-.136-.76a5.58,5.58,0,0,1-.057-.664,4.037,4.037,0,0,1-1.261,1.147,3.225,3.225,0,0,1-1.674.461,3.109,3.109,0,0,1-2.263-.76,2.8,2.8,0,0,1-.778-2.1,2.456,2.456,0,0,1,1.1-2.131,5.151,5.151,0,0,1,2.993-.769h1.881v-.94a1.745,1.745,0,0,0-.51-1.323,2,2,0,0,0-1.441-.488,2.081,2.081,0,0,0-1.358.426,1.282,1.282,0,0,0-.523,1.024H100.85l-.018-.053a2.3,2.3,0,0,1,.98-1.9,4.025,4.025,0,0,1,2.667-.861,3.927,3.927,0,0,1,2.6.822,2.911,2.911,0,0,1,.984,2.369v4.579a8.913,8.913,0,0,0,.053.984,5.062,5.062,0,0,0,.193.932Zm-2.874-1.274a3.088,3.088,0,0,0,1.7-.482,2.293,2.293,0,0,0,.984-1.1V14.6h-1.942a2.524,2.524,0,0,0-1.674.526,1.571,1.571,0,0,0-.628,1.236,1.3,1.3,0,0,0,.4,1A1.659,1.659,0,0,0,103.654,17.726ZM18.589,40.6q-.088-.431-.136-.76a5.58,5.58,0,0,1-.057-.664,4.037,4.037,0,0,1-1.261,1.147,3.225,3.225,0,0,1-1.674.461,3.109,3.109,0,0,1-2.263-.76,2.8,2.8,0,0,1-.778-2.1,2.456,2.456,0,0,1,1.1-2.131,5.151,5.151,0,0,1,2.993-.769H18.4v-.94a1.745,1.745,0,0,0-.51-1.323,2,2,0,0,0-1.441-.488,2.081,2.081,0,0,0-1.358.426,1.282,1.282,0,0,0-.523,1.024H12.911l-.018-.053a2.3,2.3,0,0,1,.98-1.9,4.025,4.025,0,0,1,2.667-.861,3.927,3.927,0,0,1,2.6.822,2.911,2.911,0,0,1,.984,2.369v4.579a8.913,8.913,0,0,0,.053.984,5.062,5.062,0,0,0,.193.932Zm-2.874-1.274a3.088,3.088,0,0,0,1.7-.482,2.293,2.293,0,0,0,.984-1.1V36.2H16.453a2.524,2.524,0,0,0-1.674.526,1.571,1.571,0,0,0-.628,1.236,1.3,1.3,0,0,0,.4,1A1.659,1.659,0,0,0,15.715,39.326Zm12.964-.132a3.221,3.221,0,0,1-1.151,1.178,3.15,3.15,0,0,1-1.626.413,3.055,3.055,0,0,1-2.426-.993,4.611,4.611,0,0,1-.87-3.094V31.09h1.731v5.625a3.541,3.541,0,0,0,.448,2.092,1.667,1.667,0,0,0,1.4.571A2.848,2.848,0,0,0,27.707,39a2.337,2.337,0,0,0,.91-1.059V31.09h1.731V40.6H28.793Zm6.478-10.4V31.09h1.8v1.283h-1.8v5.774a1.293,1.293,0,0,0,.277.94,1,1,0,0,0,.734.272,1.732,1.732,0,0,0,.33-.035,2.017,2.017,0,0,0,.321-.088l.229,1.187a1.528,1.528,0,0,1-.567.259,2.865,2.865,0,0,1-.751.1,2.242,2.242,0,0,1-1.679-.637,2.767,2.767,0,0,1-.624-2V32.373H31.913V31.09h1.512V28.8Zm3.533,6.961a5.235,5.235,0,0,1,1.143-3.476,4.234,4.234,0,0,1,6.227,0,5.218,5.218,0,0,1,1.147,3.48v.193a5.21,5.21,0,0,1-1.143,3.48,4.253,4.253,0,0,1-6.227,0,5.2,5.2,0,0,1-1.147-3.476Zm1.731.189a4.5,4.5,0,0,0,.637,2.493,2.3,2.3,0,0,0,3.775,0,4.477,4.477,0,0,0,.642-2.493v-.193a4.463,4.463,0,0,0-.646-2.484,2.118,2.118,0,0,0-1.894-.992,2.089,2.089,0,0,0-1.876.992,4.511,4.511,0,0,0-.637,2.484Zm12.85,4.839a4.012,4.012,0,0,1-3.16-1.323,4.979,4.979,0,0,1-1.173-3.432v-.387a4.877,4.877,0,0,1,1.208-3.379,3.723,3.723,0,0,1,2.861-1.349,3.6,3.6,0,0,1,2.909,1.16,4.622,4.622,0,0,1,.984,3.094v1.081H50.73l-.026.044a3.741,3.741,0,0,0,.694,2.248,2.214,2.214,0,0,0,1.872.881,4.356,4.356,0,0,0,1.542-.25,3.546,3.546,0,0,0,1.147-.69l.677,1.126a4.02,4.02,0,0,1-1.345.84A5.415,5.415,0,0,1,53.27,40.785Zm-.264-8.508a1.878,1.878,0,0,0-1.485.731,3.459,3.459,0,0,0-.756,1.835l.018.044h4.386v-.228a2.639,2.639,0,0,0-.545-1.7A1.944,1.944,0,0,0,53.007,32.277Zm11.364,5.792a1.179,1.179,0,0,0-.435-.94,4.091,4.091,0,0,0-1.648-.642,6.934,6.934,0,0,1-2.606-1.022,2.069,2.069,0,0,1-.875-1.759,2.482,2.482,0,0,1,.984-1.974A4.481,4.481,0,0,1,65,31.767a2.521,2.521,0,0,1,.936,2.074l-.018.053H64.266a1.512,1.512,0,0,0-.523-1.121,1.927,1.927,0,0,0-1.384-.5,2,2,0,0,0-1.371.4,1.268,1.268,0,0,0-.448.976,1.088,1.088,0,0,0,.4.888,4.1,4.1,0,0,0,1.608.58,6.928,6.928,0,0,1,2.681,1.05,2.117,2.117,0,0,1,.879,1.78A2.457,2.457,0,0,1,65.079,40a4.29,4.29,0,0,1-2.676.782,4.179,4.179,0,0,1-2.865-.923,2.633,2.633,0,0,1-.993-2.153l.018-.053h1.652A1.591,1.591,0,0,0,60.9,39a2.662,2.662,0,0,0,1.5.424,2.45,2.45,0,0,0,1.446-.374A1.151,1.151,0,0,0,64.371,38.069Zm6.17-9.272V31.09h1.8v1.283h-1.8v5.774a1.293,1.293,0,0,0,.277.94,1,1,0,0,0,.734.272,1.732,1.732,0,0,0,.33-.035,2.017,2.017,0,0,0,.321-.088l.229,1.187a1.528,1.528,0,0,1-.567.259,2.865,2.865,0,0,1-.751.1,2.242,2.242,0,0,1-1.679-.637,2.767,2.767,0,0,1-.624-2V32.373H67.3V31.09H68.81V28.8Zm5.81,11.8H74.619V31.09h1.731Zm0-11.944H74.619V26.889h1.731Zm4.21,2.435.123,1.248a3.23,3.23,0,0,1,1.182-1.05,3.552,3.552,0,0,1,1.666-.374,2.942,2.942,0,0,1,1.63.439,2.658,2.658,0,0,1,1.024,1.318,3.528,3.528,0,0,1,1.187-1.283,3.115,3.115,0,0,1,1.723-.475,2.847,2.847,0,0,1,2.294,1,4.557,4.557,0,0,1,.844,3V40.6H90.5V34.9a3.161,3.161,0,0,0-.483-1.991,1.763,1.763,0,0,0-1.441-.584,1.835,1.835,0,0,0-1.437.615,2.678,2.678,0,0,0-.646,1.556V40.6h-1.74V34.9a3.118,3.118,0,0,0-.5-1.956,1.723,1.723,0,0,0-1.428-.62,2.379,2.379,0,0,0-1.3.325,2.1,2.1,0,0,0-.782.914V40.6H79.014V31.09Zm20.03,9.51q-.088-.431-.136-.76a5.58,5.58,0,0,1-.057-.664,4.037,4.037,0,0,1-1.261,1.147,3.225,3.225,0,0,1-1.674.461,3.109,3.109,0,0,1-2.263-.76,2.8,2.8,0,0,1-.778-2.1,2.456,2.456,0,0,1,1.1-2.131,5.151,5.151,0,0,1,2.993-.769H100.4v-.94a1.745,1.745,0,0,0-.51-1.323,2,2,0,0,0-1.441-.488,2.081,2.081,0,0,0-1.358.426,1.282,1.282,0,0,0-.523,1.024H94.913l-.018-.053a2.3,2.3,0,0,1,.98-1.9,4.025,4.025,0,0,1,2.667-.861,3.927,3.927,0,0,1,2.6.822,2.911,2.911,0,0,1,.984,2.369v4.579a8.913,8.913,0,0,0,.053.984,5.062,5.062,0,0,0,.193.932Zm-2.874-1.274a3.088,3.088,0,0,0,1.7-.482,2.293,2.293,0,0,0,.984-1.1V36.2H98.455a2.524,2.524,0,0,0-1.674.526,1.571,1.571,0,0,0-.628,1.236,1.3,1.3,0,0,0,.4,1A1.659,1.659,0,0,0,97.717,39.326Z" transform="translate(-7145.254 -4712.973)" fill="#fff"/>
      <path id="Trazado_115079" data-name="Trazado 115079" d="M10,0H205.446a10,10,0,0,1,10,10V67.152a10,10,0,0,1-10,10H10a10,10,0,0,1-10-10V10A10,10,0,0,1,10,0Z" transform="translate(-7516.271 -4684.264)" fill="#36c"/>
      <path id="Trazado_115080" data-name="Trazado 115080" d="M18.395,7.565H14.281V19H12.55V7.565h-4.1V6.2h9.949Zm5.484,3.454-.888-.053a1.983,1.983,0,0,0-1.156.325,2.086,2.086,0,0,0-.725.914V19H19.379V9.49h1.547l.167,1.389a3.3,3.3,0,0,1,1-1.151,2.333,2.333,0,0,1,1.367-.413,2.139,2.139,0,0,1,.369.031,2.446,2.446,0,0,1,.29.066ZM31.394,19q-.088-.431-.136-.76a5.58,5.58,0,0,1-.057-.664,4.037,4.037,0,0,1-1.261,1.147,3.225,3.225,0,0,1-1.674.461A3.109,3.109,0,0,1,26,18.424a2.8,2.8,0,0,1-.778-2.1,2.456,2.456,0,0,1,1.1-2.131,5.151,5.151,0,0,1,2.993-.769H31.2v-.94a1.745,1.745,0,0,0-.51-1.323,2,2,0,0,0-1.441-.488,2.081,2.081,0,0,0-1.358.426,1.282,1.282,0,0,0-.523,1.024H25.716l-.018-.053a2.3,2.3,0,0,1,.98-1.9,4.025,4.025,0,0,1,2.667-.861,3.927,3.927,0,0,1,2.6.822,2.911,2.911,0,0,1,.984,2.369v4.579a8.913,8.913,0,0,0,.053.984,5.062,5.062,0,0,0,.193.932ZM28.52,17.726a3.088,3.088,0,0,0,1.7-.482,2.293,2.293,0,0,0,.984-1.1V14.6H29.258a2.524,2.524,0,0,0-1.674.526,1.571,1.571,0,0,0-.628,1.236,1.3,1.3,0,0,0,.4,1A1.659,1.659,0,0,0,28.52,17.726Zm15.047-3.12a5.225,5.225,0,0,1-.989,3.318,3.267,3.267,0,0,1-2.72,1.261,3.468,3.468,0,0,1-1.635-.365,3.04,3.04,0,0,1-1.151-1.077L36.86,19H35.445V5.289h1.731v5.326a3,3,0,0,1,1.112-.967,3.409,3.409,0,0,1,1.551-.334,3.16,3.16,0,0,1,2.742,1.406,6.325,6.325,0,0,1,.984,3.7Zm-1.731-.185a5.25,5.25,0,0,0-.6-2.667A1.982,1.982,0,0,0,39.4,10.721a2.266,2.266,0,0,0-1.349.391,2.758,2.758,0,0,0-.875,1.05v4.122a2.831,2.831,0,0,0,.875,1.1,2.254,2.254,0,0,0,1.367.4,2.057,2.057,0,0,0,1.819-.87,4,4,0,0,0,.6-2.3ZM51.521,19q-.088-.431-.136-.76a5.58,5.58,0,0,1-.057-.664,4.037,4.037,0,0,1-1.261,1.147,3.225,3.225,0,0,1-1.674.461,3.109,3.109,0,0,1-2.263-.76,2.8,2.8,0,0,1-.778-2.1,2.456,2.456,0,0,1,1.1-2.131,5.151,5.151,0,0,1,2.993-.769h1.881v-.94a1.745,1.745,0,0,0-.51-1.323,2,2,0,0,0-1.441-.488,2.081,2.081,0,0,0-1.358.426,1.282,1.282,0,0,0-.523,1.024H45.843l-.018-.053a2.3,2.3,0,0,1,.98-1.9,4.025,4.025,0,0,1,2.667-.861,3.927,3.927,0,0,1,2.6.822,2.911,2.911,0,0,1,.984,2.369v4.579a8.913,8.913,0,0,0,.053.984A5.062,5.062,0,0,0,53.3,19Zm-2.874-1.274a3.088,3.088,0,0,0,1.7-.482,2.293,2.293,0,0,0,.984-1.1V14.6H49.385a2.524,2.524,0,0,0-1.674.526,1.571,1.571,0,0,0-.628,1.236,1.3,1.3,0,0,0,.4,1A1.659,1.659,0,0,0,48.646,17.726ZM57.567,9.49V19.782a3.158,3.158,0,0,1-.756,2.263,2.759,2.759,0,0,1-2.1.8,2.868,2.868,0,0,1-.5-.04,3.926,3.926,0,0,1-.479-.119l.123-1.362a1.823,1.823,0,0,0,.352.075,2.934,2.934,0,0,0,.378.031,1.148,1.148,0,0,0,.91-.387,1.892,1.892,0,0,0,.338-1.257V9.49Zm-.053-2.47H55.783V5.289h1.731Zm2.312,7.137a5.235,5.235,0,0,1,1.143-3.476,4.234,4.234,0,0,1,6.227,0,5.218,5.218,0,0,1,1.147,3.48v.193a5.21,5.21,0,0,1-1.143,3.48,4.253,4.253,0,0,1-6.227,0,5.2,5.2,0,0,1-1.147-3.476Zm1.731.189a4.5,4.5,0,0,0,.637,2.493,2.3,2.3,0,0,0,3.775,0,4.477,4.477,0,0,0,.642-2.493v-.193a4.463,4.463,0,0,0-.646-2.484,2.118,2.118,0,0,0-1.894-.992,2.089,2.089,0,0,0-1.876.992,4.511,4.511,0,0,0-.637,2.484ZM77.088,19h-1.74V6.2h1.74ZM81.57,9.49l.123,1.415a3.453,3.453,0,0,1,1.191-1.173,3.178,3.178,0,0,1,1.63-.417,3.1,3.1,0,0,1,2.382.9A3.955,3.955,0,0,1,87.74,13v6H86.009V13.032a2.572,2.572,0,0,0-.5-1.784A1.989,1.989,0,0,0,84,10.721a2.44,2.44,0,0,0-1.323.36,2.631,2.631,0,0,0-.918.984V19H80.023V9.49Zm9.4,9.51V10.773H89.489V9.49h1.485v-1.2a3.263,3.263,0,0,1,.8-2.351A2.927,2.927,0,0,1,93.989,5.1a3.819,3.819,0,0,1,.6.048q.3.048.672.136l-.211,1.318q-.158-.035-.382-.062a4.026,4.026,0,0,0-.47-.026,1.366,1.366,0,0,0-1.125.453,2.035,2.035,0,0,0-.369,1.314v1.2h1.978v1.283H92.706V19Zm11.338,0q-.088-.431-.136-.76a5.58,5.58,0,0,1-.057-.664,4.037,4.037,0,0,1-1.261,1.147,3.225,3.225,0,0,1-1.674.461,3.109,3.109,0,0,1-2.263-.76,2.8,2.8,0,0,1-.778-2.1,2.456,2.456,0,0,1,1.1-2.131,5.151,5.151,0,0,1,2.993-.769h1.881v-.94a1.745,1.745,0,0,0-.51-1.323,2,2,0,0,0-1.441-.488,2.081,2.081,0,0,0-1.358.426,1.282,1.282,0,0,0-.523,1.024H96.635l-.018-.053a2.3,2.3,0,0,1,.98-1.9,4.025,4.025,0,0,1,2.667-.861,3.927,3.927,0,0,1,2.6.822,2.911,2.911,0,0,1,.984,2.369v4.579a8.913,8.913,0,0,0,.053.984A5.062,5.062,0,0,0,104.1,19Zm-2.874-1.274a3.088,3.088,0,0,0,1.7-.482,2.293,2.293,0,0,0,.984-1.1V14.6h-1.942a2.524,2.524,0,0,0-1.674.526,1.571,1.571,0,0,0-.628,1.236,1.3,1.3,0,0,0,.4,1A1.659,1.659,0,0,0,99.438,17.726Zm8.473-8.235.123,1.415a3.453,3.453,0,0,1,1.191-1.173,3.178,3.178,0,0,1,1.63-.417,3.1,3.1,0,0,1,2.382.9A3.955,3.955,0,0,1,114.081,13v6H112.35V13.032a2.572,2.572,0,0,0-.5-1.784,1.989,1.989,0,0,0-1.516-.527,2.44,2.44,0,0,0-1.323.36,2.631,2.631,0,0,0-.918.984V19h-1.731V9.49ZM118.88,7.2V9.49h1.8v1.283h-1.8v5.774a1.293,1.293,0,0,0,.277.94,1,1,0,0,0,.734.272,1.732,1.732,0,0,0,.33-.035,2.017,2.017,0,0,0,.321-.088l.229,1.187a1.528,1.528,0,0,1-.567.259,2.865,2.865,0,0,1-.751.1,2.242,2.242,0,0,1-1.679-.637,2.767,2.767,0,0,1-.624-2V10.773h-1.512V9.49h1.512V7.2Zm5.81,11.8h-1.731V9.49h1.731Zm0-11.944h-1.731V5.289h1.731ZM129.225,19h-1.731V5.289h1.731Zm11.083.185a4.012,4.012,0,0,1-3.16-1.323,4.979,4.979,0,0,1-1.173-3.432v-.387a4.877,4.877,0,0,1,1.208-3.379,3.723,3.723,0,0,1,2.861-1.349,3.6,3.6,0,0,1,2.909,1.16,4.622,4.622,0,0,1,.984,3.094v1.081h-6.17l-.026.044a3.741,3.741,0,0,0,.694,2.248,2.214,2.214,0,0,0,1.872.881,4.356,4.356,0,0,0,1.542-.25,3.546,3.546,0,0,0,1.147-.69l.677,1.126a4.02,4.02,0,0,1-1.345.84A5.415,5.415,0,0,1,140.308,19.185Zm-.264-8.508a1.878,1.878,0,0,0-1.485.731,3.459,3.459,0,0,0-.756,1.835l.018.044h4.386v-.228a2.639,2.639,0,0,0-.545-1.7A1.944,1.944,0,0,0,140.044,10.677Zm7.383-1.187.123,1.415a3.453,3.453,0,0,1,1.191-1.173,3.178,3.178,0,0,1,1.63-.417,3.1,3.1,0,0,1,2.382.9A3.955,3.955,0,0,1,153.6,13v6h-1.731V13.032a2.572,2.572,0,0,0-.5-1.784,1.989,1.989,0,0,0-1.516-.527,2.44,2.44,0,0,0-1.323.36,2.631,2.631,0,0,0-.918.984V19H145.88V9.49ZM13,38.069a1.179,1.179,0,0,0-.435-.94,4.091,4.091,0,0,0-1.648-.642,6.934,6.934,0,0,1-2.606-1.022A2.069,2.069,0,0,1,7.435,33.7a2.482,2.482,0,0,1,.984-1.974,3.889,3.889,0,0,1,2.566-.816,3.884,3.884,0,0,1,2.641.853,2.521,2.521,0,0,1,.936,2.074l-.018.053H12.893a1.512,1.512,0,0,0-.523-1.121,1.927,1.927,0,0,0-1.384-.5,2,2,0,0,0-1.371.4,1.268,1.268,0,0,0-.448.976,1.088,1.088,0,0,0,.4.888,4.1,4.1,0,0,0,1.608.58,6.928,6.928,0,0,1,2.681,1.05,2.117,2.117,0,0,1,.879,1.78A2.457,2.457,0,0,1,13.706,40a4.29,4.29,0,0,1-2.676.782,4.179,4.179,0,0,1-2.865-.923,2.633,2.633,0,0,1-.993-2.153l.018-.053H8.841A1.591,1.591,0,0,0,9.526,39a2.662,2.662,0,0,0,1.5.424,2.45,2.45,0,0,0,1.446-.374A1.151,1.151,0,0,0,13,38.069Zm9.923,1.125a3.221,3.221,0,0,1-1.151,1.178,3.15,3.15,0,0,1-1.626.413,3.055,3.055,0,0,1-2.426-.993,4.611,4.611,0,0,1-.87-3.094V31.09h1.731v5.625a3.541,3.541,0,0,0,.448,2.092,1.667,1.667,0,0,0,1.4.571A2.848,2.848,0,0,0,21.95,39a2.337,2.337,0,0,0,.91-1.059V31.09h1.731V40.6H23.035Zm9.721-1.125a1.179,1.179,0,0,0-.435-.94,4.091,4.091,0,0,0-1.648-.642,6.934,6.934,0,0,1-2.606-1.022,2.069,2.069,0,0,1-.875-1.759,2.482,2.482,0,0,1,.984-1.974,3.889,3.889,0,0,1,2.566-.816,3.884,3.884,0,0,1,2.641.853,2.521,2.521,0,0,1,.936,2.074l-.018.053H32.536a1.512,1.512,0,0,0-.523-1.121,1.927,1.927,0,0,0-1.384-.5,2,2,0,0,0-1.371.4,1.268,1.268,0,0,0-.448.976,1.088,1.088,0,0,0,.4.888,4.1,4.1,0,0,0,1.608.58,6.928,6.928,0,0,1,2.681,1.05,2.117,2.117,0,0,1,.879,1.78A2.457,2.457,0,0,1,33.349,40a4.29,4.29,0,0,1-2.676.782,4.179,4.179,0,0,1-2.865-.923,2.633,2.633,0,0,1-.993-2.153l.018-.053h1.652A1.591,1.591,0,0,0,29.17,39a2.662,2.662,0,0,0,1.5.424,2.45,2.45,0,0,0,1.446-.374A1.151,1.151,0,0,0,32.642,38.069ZM49.1,36.205a5.241,5.241,0,0,1-.984,3.318A3.254,3.254,0,0,1,45.4,40.785a3.773,3.773,0,0,1-1.542-.294,2.95,2.95,0,0,1-1.129-.883v4.649H41V31.09h1.327l.272,1.23a3.141,3.141,0,0,1,1.16-1.046,3.463,3.463,0,0,1,1.617-.36,3.161,3.161,0,0,1,2.747,1.4,6.342,6.342,0,0,1,.98,3.7Zm-1.731-.189a5.014,5.014,0,0,0-.637-2.655,2.065,2.065,0,0,0-1.876-1.04,2.312,2.312,0,0,0-1.274.338,2.529,2.529,0,0,0-.853.926v4.591a2.457,2.457,0,0,0,.853.917,2.394,2.394,0,0,0,1.292.329,2.132,2.132,0,0,0,1.863-.9,3.947,3.947,0,0,0,.633-2.322Zm7.8,4.768a4.012,4.012,0,0,1-3.16-1.323,4.979,4.979,0,0,1-1.173-3.432v-.387a4.877,4.877,0,0,1,1.208-3.379,3.723,3.723,0,0,1,2.861-1.349,3.6,3.6,0,0,1,2.909,1.16,4.622,4.622,0,0,1,.984,3.094v1.081h-6.17l-.026.044a3.741,3.741,0,0,0,.694,2.248,2.214,2.214,0,0,0,1.872.881,4.356,4.356,0,0,0,1.542-.25,3.546,3.546,0,0,0,1.147-.69l.677,1.126a4.02,4.02,0,0,1-1.345.84A5.415,5.415,0,0,1,55.177,40.785Zm-.264-8.508a1.878,1.878,0,0,0-1.485.731,3.459,3.459,0,0,0-.756,1.835l.018.044h4.386v-.228a2.639,2.639,0,0,0-.545-1.7A1.944,1.944,0,0,0,54.913,32.277Zm5.432,3.48a5.235,5.235,0,0,1,1.143-3.476,4.234,4.234,0,0,1,6.227,0,5.218,5.218,0,0,1,1.147,3.48v.193a5.21,5.21,0,0,1-1.143,3.48,4.253,4.253,0,0,1-6.227,0,5.2,5.2,0,0,1-1.147-3.476Zm1.731.189a4.5,4.5,0,0,0,.637,2.493,2.3,2.3,0,0,0,3.775,0,4.477,4.477,0,0,0,.642-2.493v-.193a4.463,4.463,0,0,0-.646-2.484,2.118,2.118,0,0,0-1.894-.992,2.089,2.089,0,0,0-1.876.992,4.511,4.511,0,0,0-.637,2.484Zm13.4-3.327-.888-.053a1.983,1.983,0,0,0-1.156.325,2.086,2.086,0,0,0-.725.914V40.6H70.979V31.09h1.547l.167,1.389a3.3,3.3,0,0,1,1-1.151,2.333,2.333,0,0,1,1.367-.413,2.139,2.139,0,0,1,.369.031,2.446,2.446,0,0,1,.29.066Zm5.449,8.165a4.012,4.012,0,0,1-3.16-1.323A4.979,4.979,0,0,1,76.6,36.03v-.387A4.877,4.877,0,0,1,77.8,32.264a3.723,3.723,0,0,1,2.861-1.349,3.6,3.6,0,0,1,2.909,1.16,4.622,4.622,0,0,1,.984,3.094v1.081h-6.17l-.026.044a3.741,3.741,0,0,0,.694,2.248,2.214,2.214,0,0,0,1.872.881,4.356,4.356,0,0,0,1.542-.25,3.546,3.546,0,0,0,1.147-.69l.677,1.126a4.02,4.02,0,0,1-1.345.84A5.415,5.415,0,0,1,80.929,40.785Zm-.264-8.508a1.878,1.878,0,0,0-1.485.731,3.459,3.459,0,0,0-.756,1.835l.018.044h4.386v-.228a2.639,2.639,0,0,0-.545-1.7A1.944,1.944,0,0,0,80.665,32.277Zm11.364,5.792a1.179,1.179,0,0,0-.435-.94,4.091,4.091,0,0,0-1.648-.642,6.934,6.934,0,0,1-2.606-1.022,2.069,2.069,0,0,1-.875-1.759,2.482,2.482,0,0,1,.984-1.974,4.481,4.481,0,0,1,5.208.036,2.521,2.521,0,0,1,.936,2.074l-.018.053H91.924a1.512,1.512,0,0,0-.523-1.121,1.927,1.927,0,0,0-1.384-.5,2,2,0,0,0-1.371.4,1.268,1.268,0,0,0-.448.976,1.088,1.088,0,0,0,.4.888,4.1,4.1,0,0,0,1.608.58,6.928,6.928,0,0,1,2.681,1.05,2.117,2.117,0,0,1,.879,1.78A2.457,2.457,0,0,1,92.737,40a4.29,4.29,0,0,1-2.676.782,4.179,4.179,0,0,1-2.865-.923,2.633,2.633,0,0,1-.993-2.153l.018-.053h1.652A1.591,1.591,0,0,0,88.558,39a2.662,2.662,0,0,0,1.5.424,2.45,2.45,0,0,0,1.446-.374A1.151,1.151,0,0,0,92.029,38.069Zm9.079,2.531V32.373H99.623V31.09h1.485v-1.2a3.263,3.263,0,0,1,.8-2.351,2.927,2.927,0,0,1,2.219-.831,3.82,3.82,0,0,1,.6.048q.3.048.672.136l-.211,1.318q-.158-.035-.382-.062a4.026,4.026,0,0,0-.47-.026,1.366,1.366,0,0,0-1.125.453,2.035,2.035,0,0,0-.369,1.314v1.2h1.978v1.283H102.84V40.6Zm5.089-4.843a5.235,5.235,0,0,1,1.143-3.476,4.234,4.234,0,0,1,6.227,0,5.218,5.218,0,0,1,1.147,3.48v.193a5.21,5.21,0,0,1-1.143,3.48,4.253,4.253,0,0,1-6.227,0,5.2,5.2,0,0,1-1.147-3.476Zm1.731.189a4.5,4.5,0,0,0,.637,2.493,2.3,2.3,0,0,0,3.775,0,4.477,4.477,0,0,0,.642-2.493v-.193a4.463,4.463,0,0,0-.646-2.484,2.118,2.118,0,0,0-1.894-.992,2.089,2.089,0,0,0-1.876.992,4.511,4.511,0,0,0-.637,2.484Zm13.4-3.327-.888-.053a1.983,1.983,0,0,0-1.156.325,2.086,2.086,0,0,0-.725.914V40.6h-1.731V31.09h1.547l.167,1.389a3.3,3.3,0,0,1,1-1.151,2.333,2.333,0,0,1,1.367-.413,2.139,2.139,0,0,1,.369.031,2.446,2.446,0,0,1,.29.066Zm3.217-1.529.123,1.248a3.23,3.23,0,0,1,1.182-1.05,3.552,3.552,0,0,1,1.666-.374,2.942,2.942,0,0,1,1.63.439,2.658,2.658,0,0,1,1.024,1.318,3.528,3.528,0,0,1,1.187-1.283,3.115,3.115,0,0,1,1.723-.475,2.847,2.847,0,0,1,2.294,1,4.557,4.557,0,0,1,.844,3V40.6h-1.731V34.9a3.161,3.161,0,0,0-.483-1.991,1.763,1.763,0,0,0-1.441-.584,1.835,1.835,0,0,0-1.437.615,2.678,2.678,0,0,0-.646,1.556V40.6h-1.74V34.9a3.118,3.118,0,0,0-.5-1.956,1.723,1.723,0,0,0-1.428-.62,2.379,2.379,0,0,0-1.3.325,2.1,2.1,0,0,0-.782.914V40.6H123V31.09Zm20.03,9.51q-.088-.431-.136-.76a5.58,5.58,0,0,1-.057-.664,4.037,4.037,0,0,1-1.261,1.147,3.225,3.225,0,0,1-1.674.461,3.109,3.109,0,0,1-2.263-.76,2.8,2.8,0,0,1-.778-2.1,2.456,2.456,0,0,1,1.1-2.131,5.151,5.151,0,0,1,2.993-.769h1.881v-.94a1.745,1.745,0,0,0-.51-1.323,2,2,0,0,0-1.441-.488,2.081,2.081,0,0,0-1.358.426,1.282,1.282,0,0,0-.523,1.024H138.9l-.018-.053a2.3,2.3,0,0,1,.98-1.9,4.025,4.025,0,0,1,2.667-.861,3.927,3.927,0,0,1,2.6.822,2.911,2.911,0,0,1,.984,2.369v4.579a8.913,8.913,0,0,0,.053.984,5.062,5.062,0,0,0,.193.932Zm-2.874-1.274a3.088,3.088,0,0,0,1.7-.482,2.293,2.293,0,0,0,.984-1.1V36.2h-1.942a2.524,2.524,0,0,0-1.674.526,1.571,1.571,0,0,0-.628,1.236,1.3,1.3,0,0,0,.4,1A1.659,1.659,0,0,0,141.705,39.326Zm12.454-1.257a1.179,1.179,0,0,0-.435-.94,4.091,4.091,0,0,0-1.648-.642,6.934,6.934,0,0,1-2.606-1.022A2.069,2.069,0,0,1,148.6,33.7a2.482,2.482,0,0,1,.984-1.974,4.481,4.481,0,0,1,5.208.036,2.521,2.521,0,0,1,.936,2.074l-.018.053h-1.652a1.512,1.512,0,0,0-.523-1.121,1.927,1.927,0,0,0-1.384-.5,2,2,0,0,0-1.371.4,1.268,1.268,0,0,0-.448.976,1.088,1.088,0,0,0,.4.888,4.1,4.1,0,0,0,1.608.58,6.928,6.928,0,0,1,2.681,1.05,2.117,2.117,0,0,1,.879,1.78A2.457,2.457,0,0,1,154.867,40a4.29,4.29,0,0,1-2.676.782,4.179,4.179,0,0,1-2.865-.923,2.633,2.633,0,0,1-.993-2.153l.018-.053H150A1.591,1.591,0,0,0,150.688,39a2.662,2.662,0,0,0,1.5.424,2.45,2.45,0,0,0,1.446-.374A1.151,1.151,0,0,0,154.159,38.069Z" transform="translate(-7489.983 -4669.113)" fill="#fff"/>
      <path id="Trazado_115085" data-name="Trazado 115085" d="M10,0H133.446a10,10,0,0,1,10,10V67.152a10,10,0,0,1-10,10H10a10,10,0,0,1-10-10V10A10,10,0,0,1,10,0Z" transform="translate(-7159.542 -4636.162)" fill="#36c"/>
      <path id="Trazado_115087" data-name="Trazado 115087" d="M6.725,19V6.2h3.929a5.41,5.41,0,0,1,4.034,1.542,5.436,5.436,0,0,1,1.521,3.986V13.48A5.244,5.244,0,0,1,10.653,19ZM8.456,7.565V17.638h2.2a3.531,3.531,0,0,0,2.8-1.168,4.376,4.376,0,0,0,1.024-2.995V11.71a4.351,4.351,0,0,0-1.024-2.977,3.531,3.531,0,0,0-2.8-1.168ZM22.2,19.185a4.012,4.012,0,0,1-3.16-1.323,4.979,4.979,0,0,1-1.173-3.432v-.387a4.877,4.877,0,0,1,1.208-3.379,3.723,3.723,0,0,1,2.861-1.349,3.6,3.6,0,0,1,2.909,1.16,4.622,4.622,0,0,1,.984,3.094v1.081h-6.17l-.026.044a3.741,3.741,0,0,0,.694,2.248,2.214,2.214,0,0,0,1.872.881,4.356,4.356,0,0,0,1.542-.25,3.546,3.546,0,0,0,1.147-.69l.677,1.126a4.02,4.02,0,0,1-1.345.84A5.415,5.415,0,0,1,22.2,19.185Zm-.264-8.508a1.878,1.878,0,0,0-1.485.731,3.459,3.459,0,0,0-.756,1.835l.018.044H24.1v-.228a2.639,2.639,0,0,0-.545-1.7A1.944,1.944,0,0,0,21.938,10.677ZM33.3,16.469a1.179,1.179,0,0,0-.435-.94,4.091,4.091,0,0,0-1.648-.642,6.934,6.934,0,0,1-2.606-1.022,2.069,2.069,0,0,1-.875-1.759,2.482,2.482,0,0,1,.984-1.974,3.889,3.889,0,0,1,2.566-.816,3.884,3.884,0,0,1,2.641.853,2.521,2.521,0,0,1,.936,2.074l-.018.053H33.2a1.512,1.512,0,0,0-.523-1.121,1.927,1.927,0,0,0-1.384-.5,2,2,0,0,0-1.371.4,1.268,1.268,0,0,0-.448.976,1.088,1.088,0,0,0,.4.888,4.1,4.1,0,0,0,1.608.58,6.928,6.928,0,0,1,2.681,1.05,2.117,2.117,0,0,1,.879,1.78A2.457,2.457,0,0,1,34.01,18.4a4.29,4.29,0,0,1-2.676.782,4.179,4.179,0,0,1-2.865-.923,2.633,2.633,0,0,1-.993-2.153l.018-.053h1.652a1.591,1.591,0,0,0,.686,1.342,2.662,2.662,0,0,0,1.5.424,2.45,2.45,0,0,0,1.446-.374A1.151,1.151,0,0,0,33.3,16.469Zm7.831,2.716a4.012,4.012,0,0,1-3.16-1.323A4.979,4.979,0,0,1,36.8,14.43v-.387a4.877,4.877,0,0,1,1.208-3.379A3.723,3.723,0,0,1,40.87,9.314a3.6,3.6,0,0,1,2.909,1.16,4.622,4.622,0,0,1,.984,3.094v1.081h-6.17l-.026.044a3.741,3.741,0,0,0,.694,2.248,2.214,2.214,0,0,0,1.872.881,4.356,4.356,0,0,0,1.542-.25,3.546,3.546,0,0,0,1.147-.69l.677,1.126a4.02,4.02,0,0,1-1.345.84A5.415,5.415,0,0,1,41.134,19.185Zm-.264-8.508a1.878,1.878,0,0,0-1.485.731,3.459,3.459,0,0,0-.756,1.835l.018.044h4.386v-.228a2.639,2.639,0,0,0-.545-1.7A1.944,1.944,0,0,0,40.87,10.677Zm11.364,5.792a1.179,1.179,0,0,0-.435-.94,4.091,4.091,0,0,0-1.648-.642,6.934,6.934,0,0,1-2.606-1.022,2.069,2.069,0,0,1-.875-1.759,2.482,2.482,0,0,1,.984-1.974,4.481,4.481,0,0,1,5.208.036,2.521,2.521,0,0,1,.936,2.074l-.018.053H52.129a1.512,1.512,0,0,0-.523-1.121,1.927,1.927,0,0,0-1.384-.5,2,2,0,0,0-1.371.4,1.268,1.268,0,0,0-.448.976,1.088,1.088,0,0,0,.4.888,4.1,4.1,0,0,0,1.608.58,6.928,6.928,0,0,1,2.681,1.05,2.117,2.117,0,0,1,.879,1.78A2.457,2.457,0,0,1,52.942,18.4a4.29,4.29,0,0,1-2.676.782,4.179,4.179,0,0,1-2.865-.923,2.633,2.633,0,0,1-.993-2.153l.018-.053h1.652a1.591,1.591,0,0,0,.686,1.342,2.662,2.662,0,0,0,1.5.424,2.45,2.45,0,0,0,1.446-.374A1.151,1.151,0,0,0,52.234,16.469Zm11.988-1.863a5.241,5.241,0,0,1-.984,3.318,3.254,3.254,0,0,1-2.716,1.261,3.773,3.773,0,0,1-1.542-.294,2.95,2.95,0,0,1-1.129-.883v4.649H56.119V9.49h1.327l.272,1.23a3.141,3.141,0,0,1,1.16-1.046,3.463,3.463,0,0,1,1.617-.36,3.161,3.161,0,0,1,2.747,1.4,6.342,6.342,0,0,1,.98,3.7Zm-1.731-.189a5.014,5.014,0,0,0-.637-2.655,2.065,2.065,0,0,0-1.876-1.04,2.312,2.312,0,0,0-1.274.338,2.529,2.529,0,0,0-.853.926v4.591a2.457,2.457,0,0,0,.853.917A2.394,2.394,0,0,0,60,17.822a2.132,2.132,0,0,0,1.863-.9,3.947,3.947,0,0,0,.633-2.322Zm7.8,4.768a4.012,4.012,0,0,1-3.16-1.323,4.979,4.979,0,0,1-1.173-3.432v-.387a4.877,4.877,0,0,1,1.208-3.379,3.723,3.723,0,0,1,2.861-1.349,3.6,3.6,0,0,1,2.909,1.16,4.622,4.622,0,0,1,.984,3.094v1.081h-6.17l-.026.044a3.741,3.741,0,0,0,.694,2.248,2.214,2.214,0,0,0,1.872.881,4.356,4.356,0,0,0,1.542-.25,3.546,3.546,0,0,0,1.147-.69l.677,1.126a4.02,4.02,0,0,1-1.345.84A5.415,5.415,0,0,1,70.3,19.185Zm-.264-8.508a1.878,1.878,0,0,0-1.485.731,3.459,3.459,0,0,0-.756,1.835l.018.044h4.386v-.228a2.639,2.639,0,0,0-.545-1.7A1.944,1.944,0,0,0,70.032,10.677Zm10.336.343-.888-.053a1.983,1.983,0,0,0-1.156.325,2.086,2.086,0,0,0-.725.914V19H75.868V9.49h1.547l.167,1.389a3.3,3.3,0,0,1,1-1.151,2.333,2.333,0,0,1,1.367-.413,2.139,2.139,0,0,1,.369.031,2.446,2.446,0,0,1,.29.066ZM87.883,19q-.088-.431-.136-.76a5.58,5.58,0,0,1-.057-.664,4.037,4.037,0,0,1-1.261,1.147,3.225,3.225,0,0,1-1.674.461,3.109,3.109,0,0,1-2.263-.76,2.8,2.8,0,0,1-.778-2.1,2.456,2.456,0,0,1,1.1-2.131,5.151,5.151,0,0,1,2.993-.769h1.881v-.94a1.745,1.745,0,0,0-.51-1.323,2,2,0,0,0-1.441-.488,2.081,2.081,0,0,0-1.358.426,1.282,1.282,0,0,0-.523,1.024H82.205l-.018-.053a2.3,2.3,0,0,1,.98-1.9,4.025,4.025,0,0,1,2.667-.861,3.927,3.927,0,0,1,2.6.822,2.911,2.911,0,0,1,.984,2.369v4.579a8.913,8.913,0,0,0,.053.984,5.062,5.062,0,0,0,.193.932Zm-2.874-1.274a3.088,3.088,0,0,0,1.7-.482,2.293,2.293,0,0,0,.984-1.1V14.6H85.747a2.524,2.524,0,0,0-1.674.526,1.571,1.571,0,0,0-.628,1.236,1.3,1.3,0,0,0,.4,1A1.659,1.659,0,0,0,85.009,17.726ZM93.481,9.49l.123,1.415A3.453,3.453,0,0,1,94.8,9.732a3.178,3.178,0,0,1,1.63-.417,3.1,3.1,0,0,1,2.382.9A3.955,3.955,0,0,1,99.651,13v6H97.92V13.032a2.572,2.572,0,0,0-.5-1.784,1.989,1.989,0,0,0-1.516-.527,2.44,2.44,0,0,0-1.323.36,2.631,2.631,0,0,0-.918.984V19H91.935V9.49ZM103.8,17.638h5.493V19h-7.559V17.778l5.142-6.926H101.8V9.49h7.2v1.169ZM117.063,19q-.088-.431-.136-.76a5.58,5.58,0,0,1-.057-.664,4.037,4.037,0,0,1-1.261,1.147,3.225,3.225,0,0,1-1.674.461,3.109,3.109,0,0,1-2.263-.76,2.8,2.8,0,0,1-.778-2.1A2.456,2.456,0,0,1,112,14.2a5.151,5.151,0,0,1,2.993-.769h1.881v-.94a1.745,1.745,0,0,0-.51-1.323,2,2,0,0,0-1.441-.488,2.081,2.081,0,0,0-1.358.426,1.282,1.282,0,0,0-.523,1.024h-1.652l-.018-.053a2.3,2.3,0,0,1,.98-1.9,4.025,4.025,0,0,1,2.667-.861,3.927,3.927,0,0,1,2.6.822A2.911,2.911,0,0,1,118.6,12.5v4.579a8.913,8.913,0,0,0,.053.984,5.062,5.062,0,0,0,.193.932Zm-2.874-1.274a3.088,3.088,0,0,0,1.7-.482,2.293,2.293,0,0,0,.984-1.1V14.6h-1.942a2.524,2.524,0,0,0-1.674.526,1.571,1.571,0,0,0-.628,1.236,1.3,1.3,0,0,0,.4,1A1.659,1.659,0,0,0,114.188,17.726Z" transform="translate(-7150.254 -4611.304)" fill="#fff"/>
      <path id="Trazado_115086" data-name="Trazado 115086" d="M10,0H133.446a10,10,0,0,1,10,10V67.152a10,10,0,0,1-10,10H10a10,10,0,0,1-10-10V10A10,10,0,0,1,10,0Z" transform="translate(-7159.542 -4543.499)" fill="#36c"/>
      <path id="Trazado_115090" data-name="Trazado 115090" d="M18.589,19V6.2h3.929a5.257,5.257,0,0,1,5.555,5.528V13.48A5.244,5.244,0,0,1,22.518,19ZM20.32,7.565V17.638h2.2a3.531,3.531,0,0,0,2.8-1.168,4.376,4.376,0,0,0,1.024-2.995V11.71a4.351,4.351,0,0,0-1.024-2.977,3.531,3.531,0,0,0-2.8-1.168ZM34.066,19.185a4.012,4.012,0,0,1-3.16-1.323,4.979,4.979,0,0,1-1.173-3.432v-.387a4.877,4.877,0,0,1,1.208-3.379A3.723,3.723,0,0,1,33.8,9.314a3.6,3.6,0,0,1,2.909,1.16,4.622,4.622,0,0,1,.984,3.094v1.081h-6.17l-.026.044a3.741,3.741,0,0,0,.694,2.248,2.214,2.214,0,0,0,1.872.881,4.356,4.356,0,0,0,1.542-.25,3.546,3.546,0,0,0,1.147-.69l.677,1.126a4.02,4.02,0,0,1-1.345.84A5.415,5.415,0,0,1,34.066,19.185ZM33.8,10.677a1.878,1.878,0,0,0-1.485.731,3.459,3.459,0,0,0-.756,1.835l.018.044h4.386v-.228a2.639,2.639,0,0,0-.545-1.7A1.944,1.944,0,0,0,33.8,10.677Zm11.364,5.792a1.179,1.179,0,0,0-.435-.94,4.091,4.091,0,0,0-1.648-.642,6.934,6.934,0,0,1-2.606-1.022A2.069,2.069,0,0,1,39.6,12.1a2.482,2.482,0,0,1,.984-1.974,4.481,4.481,0,0,1,5.208.036,2.521,2.521,0,0,1,.936,2.074l-.018.053H45.061a1.512,1.512,0,0,0-.523-1.121,1.927,1.927,0,0,0-1.384-.5,2,2,0,0,0-1.371.4,1.268,1.268,0,0,0-.448.976,1.088,1.088,0,0,0,.4.888,4.1,4.1,0,0,0,1.608.58,6.928,6.928,0,0,1,2.681,1.05,2.117,2.117,0,0,1,.879,1.78A2.457,2.457,0,0,1,45.874,18.4a4.29,4.29,0,0,1-2.676.782,4.179,4.179,0,0,1-2.865-.923,2.633,2.633,0,0,1-.993-2.153l.018-.053H41.01A1.591,1.591,0,0,0,41.7,17.4a2.662,2.662,0,0,0,1.5.424,2.45,2.45,0,0,0,1.446-.374A1.151,1.151,0,0,0,45.167,16.469ZM53,19.185a4.012,4.012,0,0,1-3.16-1.323,4.979,4.979,0,0,1-1.173-3.432v-.387a4.877,4.877,0,0,1,1.208-3.379,3.723,3.723,0,0,1,2.861-1.349,3.6,3.6,0,0,1,2.909,1.16,4.622,4.622,0,0,1,.984,3.094v1.081h-6.17l-.026.044a3.741,3.741,0,0,0,.694,2.248A2.214,2.214,0,0,0,53,17.822a4.356,4.356,0,0,0,1.542-.25,3.546,3.546,0,0,0,1.147-.69l.677,1.126a4.02,4.02,0,0,1-1.345.84A5.415,5.415,0,0,1,53,19.185Zm-.264-8.508a1.878,1.878,0,0,0-1.485.731,3.459,3.459,0,0,0-.756,1.835l.018.044H54.9v-.228a2.639,2.639,0,0,0-.545-1.7A1.944,1.944,0,0,0,52.734,10.677Zm10.336.343-.888-.053a1.983,1.983,0,0,0-1.156.325,2.086,2.086,0,0,0-.725.914V19H58.57V9.49h1.547l.167,1.389a3.3,3.3,0,0,1,1-1.151,2.333,2.333,0,0,1,1.367-.413,2.139,2.139,0,0,1,.369.031,2.446,2.446,0,0,1,.29.066Zm5.37,6.8a2.335,2.335,0,0,0,1.516-.532,1.623,1.623,0,0,0,.655-1.305h1.556l.018.053a2.678,2.678,0,0,1-1.094,2.188,3.99,3.99,0,0,1-2.65.958,3.849,3.849,0,0,1-3.173-1.354,5.222,5.222,0,0,1-1.1-3.4v-.369a5.2,5.2,0,0,1,1.1-3.388,4.33,4.33,0,0,1,5.9-.374,3.061,3.061,0,0,1,1.024,2.417l-.018.053H70.611A2.009,2.009,0,0,0,70,11.288a2.116,2.116,0,0,0-1.556-.611,2.087,2.087,0,0,0-1.947.979,4.607,4.607,0,0,0-.584,2.4v.369a4.661,4.661,0,0,0,.58,2.427A2.091,2.091,0,0,0,68.44,17.822ZM76,19H74.268V9.49H76ZM76,7.056H74.268V5.289H76Zm2.259,7.1A5.235,5.235,0,0,1,79.4,10.681a4.234,4.234,0,0,1,6.227,0,5.218,5.218,0,0,1,1.147,3.48v.193a5.21,5.21,0,0,1-1.143,3.48,4.253,4.253,0,0,1-6.227,0,5.2,5.2,0,0,1-1.147-3.476Zm1.731.189a4.5,4.5,0,0,0,.637,2.493,2.3,2.3,0,0,0,3.775,0,4.477,4.477,0,0,0,.642-2.493v-.193a4.463,4.463,0,0,0-.646-2.484,2.118,2.118,0,0,0-1.894-.992,2.089,2.089,0,0,0-1.876.992,4.511,4.511,0,0,0-.637,2.484Zm3.366-8.53h2.021l.018.053L83.021,8.154H81.729ZM90.439,9.49l.123,1.415a3.453,3.453,0,0,1,1.191-1.173,3.178,3.178,0,0,1,1.63-.417,3.1,3.1,0,0,1,2.382.9A3.955,3.955,0,0,1,96.609,13v6H94.878V13.032a2.572,2.572,0,0,0-.5-1.784,1.989,1.989,0,0,0-1.516-.527,2.44,2.44,0,0,0-1.323.36,2.631,2.631,0,0,0-.918.984V19H88.893V9.49ZM32.981,40.785a4.012,4.012,0,0,1-3.16-1.323,4.979,4.979,0,0,1-1.173-3.432v-.387a4.877,4.877,0,0,1,1.208-3.379,3.723,3.723,0,0,1,2.861-1.349,3.6,3.6,0,0,1,2.909,1.16,4.622,4.622,0,0,1,.984,3.094v1.081h-6.17l-.026.044a3.741,3.741,0,0,0,.694,2.248,2.214,2.214,0,0,0,1.872.881,4.356,4.356,0,0,0,1.542-.25,3.546,3.546,0,0,0,1.147-.69l.677,1.126a4.02,4.02,0,0,1-1.345.84A5.415,5.415,0,0,1,32.981,40.785Zm-.264-8.508a1.878,1.878,0,0,0-1.485.731,3.459,3.459,0,0,0-.756,1.835l.018.044h4.386v-.228a2.639,2.639,0,0,0-.545-1.7A1.944,1.944,0,0,0,32.717,32.277Zm11.364,5.792a1.179,1.179,0,0,0-.435-.94A4.091,4.091,0,0,0,42,36.487a6.934,6.934,0,0,1-2.606-1.022,2.069,2.069,0,0,1-.875-1.759,2.482,2.482,0,0,1,.984-1.974,4.481,4.481,0,0,1,5.208.036,2.521,2.521,0,0,1,.936,2.074l-.018.053H43.976a1.512,1.512,0,0,0-.523-1.121,1.927,1.927,0,0,0-1.384-.5,2,2,0,0,0-1.371.4,1.268,1.268,0,0,0-.448.976,1.088,1.088,0,0,0,.4.888,4.1,4.1,0,0,0,1.608.58,6.928,6.928,0,0,1,2.681,1.05,2.117,2.117,0,0,1,.879,1.78A2.457,2.457,0,0,1,44.789,40a4.29,4.29,0,0,1-2.676.782,4.179,4.179,0,0,1-2.865-.923,2.633,2.633,0,0,1-.993-2.153l.018-.053h1.652A1.591,1.591,0,0,0,40.61,39a2.662,2.662,0,0,0,1.5.424,2.45,2.45,0,0,0,1.446-.374A1.151,1.151,0,0,0,44.082,38.069Zm7.752,1.354a2.335,2.335,0,0,0,1.516-.532A1.623,1.623,0,0,0,54,37.585H55.56l.018.053a2.678,2.678,0,0,1-1.094,2.188,3.99,3.99,0,0,1-2.65.958,3.849,3.849,0,0,1-3.173-1.354,5.222,5.222,0,0,1-1.1-3.4v-.369a5.2,5.2,0,0,1,1.1-3.388,4.33,4.33,0,0,1,5.9-.374,3.061,3.061,0,0,1,1.024,2.417l-.018.053H54a2.009,2.009,0,0,0-.615-1.481,2.116,2.116,0,0,0-1.556-.611,2.087,2.087,0,0,0-1.947.979,4.607,4.607,0,0,0-.584,2.4v.369a4.661,4.661,0,0,0,.58,2.427A2.091,2.091,0,0,0,51.833,39.422Zm5.282-3.665a5.235,5.235,0,0,1,1.143-3.476,4.234,4.234,0,0,1,6.227,0,5.218,5.218,0,0,1,1.147,3.48v.193a5.21,5.21,0,0,1-1.143,3.48,4.253,4.253,0,0,1-6.227,0,5.2,5.2,0,0,1-1.147-3.476Zm1.731.189a4.5,4.5,0,0,0,.637,2.493,2.3,2.3,0,0,0,3.775,0,4.477,4.477,0,0,0,.642-2.493v-.193a4.463,4.463,0,0,0-.646-2.484,2.118,2.118,0,0,0-1.894-.992,2.089,2.089,0,0,0-1.876.992,4.511,4.511,0,0,0-.637,2.484ZM69.623,40.6H67.891V26.889h1.731Zm8.508,0q-.088-.431-.136-.76a5.58,5.58,0,0,1-.057-.664,4.037,4.037,0,0,1-1.261,1.147A3.225,3.225,0,0,1,75,40.785a3.109,3.109,0,0,1-2.263-.76,2.8,2.8,0,0,1-.778-2.1,2.456,2.456,0,0,1,1.1-2.131,5.151,5.151,0,0,1,2.993-.769h1.881v-.94a1.745,1.745,0,0,0-.51-1.323,2,2,0,0,0-1.441-.488,2.081,2.081,0,0,0-1.358.426,1.282,1.282,0,0,0-.523,1.024H72.453l-.018-.053a2.3,2.3,0,0,1,.98-1.9,4.025,4.025,0,0,1,2.667-.861,3.927,3.927,0,0,1,2.6.822,2.911,2.911,0,0,1,.984,2.369v4.579a8.913,8.913,0,0,0,.053.984,5.062,5.062,0,0,0,.193.932Zm-2.874-1.274a3.088,3.088,0,0,0,1.7-.482,2.293,2.293,0,0,0,.984-1.1V36.2H75.995a2.524,2.524,0,0,0-1.674.526,1.571,1.571,0,0,0-.628,1.236,1.3,1.3,0,0,0,.4,1A1.659,1.659,0,0,0,75.256,39.326ZM86.682,32.62l-.888-.053a1.983,1.983,0,0,0-1.156.325,2.086,2.086,0,0,0-.725.914V40.6H82.182V31.09h1.547l.167,1.389a3.3,3.3,0,0,1,1-1.151,2.333,2.333,0,0,1,1.367-.413,2.139,2.139,0,0,1,.369.031,2.446,2.446,0,0,1,.29.066Z" transform="translate(-7145.254 -4526.641)" fill="#fff"/>
      <path id="Trazado_112691" data-name="Trazado 112691" d="M458.729,1631.521l-33.564-33.581v12.318h-55.59v42.519h55.59v12.316Z" transform="translate(-7998.32 -6273.413)" fill="#7cc5ff"/>
      <path id="Trazado_115072" data-name="Trazado 115072" d="M458.729,1631.521l-33.564-33.581v12.318h-55.59v42.519h55.59v12.316Z" transform="translate(-7643.32 -6273.413)" fill="#7cc5ff"/>
    </g>
    <path id="Trazado_115091" data-name="Trazado 115091" d="M18.363,14.07H13.6L12.52,17h-1.57l4.4-11.375h1.32L21,17h-1.57Zm-4.289-1.289H17.9L16.027,7.6H15.98ZM27.637,15.75A2.863,2.863,0,0,1,26.613,16.8a2.8,2.8,0,0,1-1.445.367,2.716,2.716,0,0,1-2.156-.883,4.1,4.1,0,0,1-.773-2.75V8.547h1.539v5a3.147,3.147,0,0,0,.4,1.859,1.481,1.481,0,0,0,1.242.508,2.531,2.531,0,0,0,1.355-.332,2.077,2.077,0,0,0,.809-.941V8.547h1.539V17H27.738Zm5.1-7.2.109,1.109A2.871,2.871,0,0,1,33.9,8.723a3.158,3.158,0,0,1,1.48-.332,2.615,2.615,0,0,1,1.449.391,2.363,2.363,0,0,1,.91,1.172,3.136,3.136,0,0,1,1.055-1.141,2.769,2.769,0,0,1,1.531-.422,2.531,2.531,0,0,1,2.039.887,4.051,4.051,0,0,1,.75,2.668V17H41.574V11.93a2.81,2.81,0,0,0-.43-1.77,1.567,1.567,0,0,0-1.281-.52,1.631,1.631,0,0,0-1.277.547,2.381,2.381,0,0,0-.574,1.383V17H36.465V11.93a2.772,2.772,0,0,0-.441-1.738,1.532,1.532,0,0,0-1.27-.551A2.115,2.115,0,0,0,33.6,9.93a1.867,1.867,0,0,0-.7.813V17H31.363V8.547Zm16.117,8.617a3.566,3.566,0,0,1-2.809-1.176A4.426,4.426,0,0,1,45,12.938v-.344a4.335,4.335,0,0,1,1.074-3,3.309,3.309,0,0,1,2.543-1.2,3.2,3.2,0,0,1,2.586,1.031,4.108,4.108,0,0,1,.875,2.75v.961H46.6l-.023.039a3.326,3.326,0,0,0,.617,2,1.968,1.968,0,0,0,1.664.783,3.872,3.872,0,0,0,1.371-.223,3.152,3.152,0,0,0,1.02-.613l.6,1a3.573,3.573,0,0,1-1.2.747A4.814,4.814,0,0,1,48.855,17.164ZM48.621,9.6a1.669,1.669,0,0,0-1.32.65,3.075,3.075,0,0,0-.672,1.631l.016.039h3.9v-.2a2.346,2.346,0,0,0-.484-1.511A1.728,1.728,0,0,0,48.621,9.6Zm6.563-1.055L55.293,9.8a3.069,3.069,0,0,1,1.059-1.043A2.824,2.824,0,0,1,57.8,8.391a2.759,2.759,0,0,1,2.117.8,3.515,3.515,0,0,1,.75,2.473V17H59.129V11.7a2.287,2.287,0,0,0-.441-1.586,1.768,1.768,0,0,0-1.348-.469,2.169,2.169,0,0,0-1.176.32,2.339,2.339,0,0,0-.816.875V17H53.809V8.547Zm9.75-2.039V8.547h1.6V9.688h-1.6V14.82a1.149,1.149,0,0,0,.246.836.89.89,0,0,0,.652.242,1.54,1.54,0,0,0,.293-.031,1.793,1.793,0,0,0,.285-.078l.2,1.055a1.358,1.358,0,0,1-.5.23,2.547,2.547,0,0,1-.668.09,1.993,1.993,0,0,1-1.492-.566,2.46,2.46,0,0,1-.555-1.777V9.688H62.051V8.547h1.344V6.508ZM73.629,17q-.078-.383-.121-.676a4.96,4.96,0,0,1-.051-.59,3.589,3.589,0,0,1-1.121,1.02,2.867,2.867,0,0,1-1.488.41,2.763,2.763,0,0,1-2.012-.676,2.486,2.486,0,0,1-.691-1.863,2.183,2.183,0,0,1,.98-1.895,4.579,4.579,0,0,1,2.66-.684h1.672v-.836A1.551,1.551,0,0,0,73,10.035,1.779,1.779,0,0,0,71.723,9.6a1.85,1.85,0,0,0-1.207.379,1.14,1.14,0,0,0-.465.91H68.582l-.016-.047a2.046,2.046,0,0,1,.871-1.687,3.578,3.578,0,0,1,2.371-.766,3.49,3.49,0,0,1,2.313.73A2.588,2.588,0,0,1,75,11.227V15.3a7.923,7.923,0,0,0,.047.875,4.5,4.5,0,0,0,.172.828Zm-2.555-1.133a2.745,2.745,0,0,0,1.508-.428,2.038,2.038,0,0,0,.875-.982V13.086H71.73a2.244,2.244,0,0,0-1.488.467,1.4,1.4,0,0,0-.559,1.1,1.154,1.154,0,0,0,.352.888A1.474,1.474,0,0,0,71.074,15.867Zm7.531-7.32L78.715,9.8a3.069,3.069,0,0,1,1.059-1.043,2.824,2.824,0,0,1,1.449-.371,2.759,2.759,0,0,1,2.117.8,3.515,3.515,0,0,1,.75,2.473V17H82.551V11.7a2.287,2.287,0,0,0-.441-1.586,1.768,1.768,0,0,0-1.348-.469,2.169,2.169,0,0,0-1.176.32,2.339,2.339,0,0,0-.816.875V17H77.23V8.547ZM22.074,29.906l-.789-.047a1.762,1.762,0,0,0-1.027.289,1.854,1.854,0,0,0-.645.813V37H18.074V28.547h1.375l.148,1.234a2.934,2.934,0,0,1,.887-1.023,2.073,2.073,0,0,1,1.215-.367,1.9,1.9,0,0,1,.328.027,2.174,2.174,0,0,1,.258.059ZM25.223,37H23.684V28.547h1.539Zm0-10.617H23.684v-1.57h1.539ZM31.1,37.164a3.566,3.566,0,0,1-2.809-1.176,4.426,4.426,0,0,1-1.043-3.051v-.344a4.335,4.335,0,0,1,1.074-3,3.309,3.309,0,0,1,2.543-1.2,3.2,3.2,0,0,1,2.586,1.031,4.108,4.108,0,0,1,.875,2.75v.961H28.84l-.023.039a3.326,3.326,0,0,0,.617,2,1.968,1.968,0,0,0,1.664.783,3.872,3.872,0,0,0,1.371-.223,3.152,3.152,0,0,0,1.02-.613l.6,1a3.573,3.573,0,0,1-1.2.747A4.814,4.814,0,0,1,31.1,37.164ZM30.863,29.6a1.669,1.669,0,0,0-1.32.65,3.075,3.075,0,0,0-.672,1.631l.016.039h3.9v-.2a2.346,2.346,0,0,0-.484-1.511A1.728,1.728,0,0,0,30.863,29.6Zm10.1,5.148a1.048,1.048,0,0,0-.387-.836,3.636,3.636,0,0,0-1.465-.57,6.164,6.164,0,0,1-2.316-.909,1.84,1.84,0,0,1-.777-1.564,2.206,2.206,0,0,1,.875-1.755,3.983,3.983,0,0,1,4.629.032,2.241,2.241,0,0,1,.832,1.844l-.016.047H40.871a1.344,1.344,0,0,0-.465-1,1.713,1.713,0,0,0-1.23-.441,1.775,1.775,0,0,0-1.219.359,1.127,1.127,0,0,0-.4.867.967.967,0,0,0,.352.789,3.645,3.645,0,0,0,1.43.516,6.158,6.158,0,0,1,2.383.934,1.881,1.881,0,0,1,.781,1.582,2.184,2.184,0,0,1-.91,1.82,3.813,3.813,0,0,1-2.379.7,3.715,3.715,0,0,1-2.547-.82,2.341,2.341,0,0,1-.883-1.914l.016-.047H37.27a1.414,1.414,0,0,0,.609,1.193,2.366,2.366,0,0,0,1.336.377,2.178,2.178,0,0,0,1.285-.332A1.024,1.024,0,0,0,40.965,34.75Zm3.117-1.82a5.549,5.549,0,0,1,.891-3.289,2.856,2.856,0,0,1,2.461-1.25,2.966,2.966,0,0,1,1.414.324,2.782,2.782,0,0,1,1.016.934l.188-1.1h1.227v8.5a3.225,3.225,0,0,1-.945,2.5,3.884,3.884,0,0,1-2.727.871,5.716,5.716,0,0,1-1.316-.168,5.147,5.147,0,0,1-1.246-.457l.391-1.2a3.95,3.95,0,0,0,1,.379,4.815,4.815,0,0,0,1.156.145,2.242,2.242,0,0,0,1.637-.512,2.12,2.12,0,0,0,.512-1.559v-.953a2.688,2.688,0,0,1-.992.8,3.11,3.11,0,0,1-1.328.27,2.948,2.948,0,0,1-2.445-1.125,4.606,4.606,0,0,1-.891-2.945Zm1.539.164a3.513,3.513,0,0,0,.539,2.047,1.865,1.865,0,0,0,1.641.773,2.034,2.034,0,0,0,1.164-.316,2.4,2.4,0,0,0,.773-.895V30.813a2.388,2.388,0,0,0-.773-.855,2.029,2.029,0,0,0-1.148-.316,1.793,1.793,0,0,0-1.648.922,4.589,4.589,0,0,0-.547,2.367Zm7.531-.4a4.654,4.654,0,0,1,1.016-3.09,3.764,3.764,0,0,1,5.535,0,4.639,4.639,0,0,1,1.02,3.094v.172a4.631,4.631,0,0,1-1.016,3.094,3.781,3.781,0,0,1-5.535,0,4.623,4.623,0,0,1-1.02-3.09Zm1.539.168a4,4,0,0,0,.566,2.216,2.047,2.047,0,0,0,3.355,0,3.98,3.98,0,0,0,.57-2.216v-.172a3.967,3.967,0,0,0-.574-2.208,1.883,1.883,0,0,0-1.684-.882,1.857,1.857,0,0,0-1.668.882,4.009,4.009,0,0,0-.566,2.208Zm11.539.067a5.641,5.641,0,0,1,.871-3.289,2.807,2.807,0,0,1,2.441-1.25,3.027,3.027,0,0,1,1.316.273,2.7,2.7,0,0,1,.98.8V24.813h1.539V37H72.121l-.18-1.039a2.74,2.74,0,0,1-1.016.9,3.056,3.056,0,0,1-1.4.3,2.9,2.9,0,0,1-2.422-1.121,4.659,4.659,0,0,1-.875-2.949Zm1.539.164a3.588,3.588,0,0,0,.523,2.051,1.828,1.828,0,0,0,1.625.77,2.039,2.039,0,0,0,1.156-.312,2.334,2.334,0,0,0,.766-.875V30.781a2.37,2.37,0,0,0-.77-.832,2.033,2.033,0,0,0-1.137-.309,1.759,1.759,0,0,0-1.637.914,4.718,4.718,0,0,0-.527,2.375Zm11.414,4.07a3.566,3.566,0,0,1-2.809-1.176,4.426,4.426,0,0,1-1.043-3.051v-.344a4.335,4.335,0,0,1,1.074-3,3.309,3.309,0,0,1,2.543-1.2,3.2,3.2,0,0,1,2.586,1.031,4.108,4.108,0,0,1,.875,2.75v.961H76.926l-.023.039a3.326,3.326,0,0,0,.617,2,1.968,1.968,0,0,0,1.664.783,3.872,3.872,0,0,0,1.371-.223,3.152,3.152,0,0,0,1.02-.613l.6,1a3.573,3.573,0,0,1-1.2.747A4.814,4.814,0,0,1,79.184,37.164ZM78.949,29.6a1.669,1.669,0,0,0-1.32.65,3.075,3.075,0,0,0-.672,1.631l.016.039h3.9v-.2a2.346,2.346,0,0,0-.484-1.511A1.728,1.728,0,0,0,78.949,29.6Z" transform="translate(-7638 -4736.487)" fill="#12263f"/>
    <path id="Trazado_115092" data-name="Trazado 115092" d="M21.039,12.438V17H19.5V5.625h4.352a4,4,0,0,1,2.828.938,3.213,3.213,0,0,1,1.008,2.469,3.2,3.2,0,0,1-1.008,2.48,4.027,4.027,0,0,1-2.828.926Zm0-1.211h2.813a2.234,2.234,0,0,0,1.727-.62,2.221,2.221,0,0,0,.57-1.564,2.254,2.254,0,0,0-.574-1.575,2.213,2.213,0,0,0-1.723-.632H21.039Zm12.422-1.32-.789-.047a1.762,1.762,0,0,0-1.027.289,1.854,1.854,0,0,0-.645.813V17H29.461V8.547h1.375l.148,1.234a2.934,2.934,0,0,1,.887-1.023,2.073,2.073,0,0,1,1.215-.367,1.9,1.9,0,0,1,.328.027,2.175,2.175,0,0,1,.258.059ZM34.43,12.7a4.654,4.654,0,0,1,1.016-3.09,3.764,3.764,0,0,1,5.535,0A4.639,4.639,0,0,1,42,12.7v.172a4.631,4.631,0,0,1-1.016,3.094,3.781,3.781,0,0,1-5.535,0,4.623,4.623,0,0,1-1.02-3.09Zm1.539.168a4,4,0,0,0,.566,2.216,2.047,2.047,0,0,0,3.355,0,3.98,3.98,0,0,0,.57-2.216v-.172a3.967,3.967,0,0,0-.574-2.208A1.883,1.883,0,0,0,38.2,9.6a1.857,1.857,0,0,0-1.668.882,4.009,4.009,0,0,0-.566,2.208Zm7.563.067A5.641,5.641,0,0,1,44.4,9.641a2.807,2.807,0,0,1,2.441-1.25,3.027,3.027,0,0,1,1.316.273,2.7,2.7,0,0,1,.98.8V4.813H50.68V17H49.422l-.18-1.039a2.74,2.74,0,0,1-1.016.9,3.056,3.056,0,0,1-1.4.3,2.9,2.9,0,0,1-2.422-1.121,4.659,4.659,0,0,1-.875-2.949Zm1.539.164a3.588,3.588,0,0,0,.523,2.051,1.828,1.828,0,0,0,1.625.77,2.039,2.039,0,0,0,1.156-.312,2.334,2.334,0,0,0,.766-.875V10.781a2.37,2.37,0,0,0-.77-.832,2.033,2.033,0,0,0-1.137-.309,1.759,1.759,0,0,0-1.637.914,4.718,4.718,0,0,0-.527,2.375ZM58.344,15.75A2.863,2.863,0,0,1,57.32,16.8a2.8,2.8,0,0,1-1.445.367,2.716,2.716,0,0,1-2.156-.883,4.1,4.1,0,0,1-.773-2.75V8.547h1.539v5a3.147,3.147,0,0,0,.4,1.859,1.481,1.481,0,0,0,1.242.508,2.531,2.531,0,0,0,1.355-.332,2.077,2.077,0,0,0,.809-.941V8.547h1.539V17H58.445Zm7.164.2a2.076,2.076,0,0,0,1.348-.473,1.442,1.442,0,0,0,.582-1.16H68.82l.016.047a2.381,2.381,0,0,1-.973,1.945,3.547,3.547,0,0,1-2.355.852,3.422,3.422,0,0,1-2.82-1.2,4.642,4.642,0,0,1-.977-3.023v-.328a4.622,4.622,0,0,1,.98-3.012,3.849,3.849,0,0,1,5.242-.332,2.721,2.721,0,0,1,.91,2.148l-.016.047H67.438a1.786,1.786,0,0,0-.547-1.316A1.881,1.881,0,0,0,65.508,9.6a1.855,1.855,0,0,0-1.73.87,4.1,4.1,0,0,0-.52,2.134v.328a4.143,4.143,0,0,0,.516,2.158A1.858,1.858,0,0,0,65.508,15.953Zm8.563,1.211a3.566,3.566,0,0,1-2.809-1.176,4.426,4.426,0,0,1-1.043-3.051v-.344a4.335,4.335,0,0,1,1.074-3,3.309,3.309,0,0,1,2.543-1.2,3.2,3.2,0,0,1,2.586,1.031,4.108,4.108,0,0,1,.875,2.75v.961H71.813l-.023.039a3.326,3.326,0,0,0,.617,2,1.968,1.968,0,0,0,1.664.783,3.872,3.872,0,0,0,1.371-.223,3.152,3.152,0,0,0,1.02-.613l.6,1a3.573,3.573,0,0,1-1.2.747A4.814,4.814,0,0,1,74.07,17.164ZM73.836,9.6a1.669,1.669,0,0,0-1.32.65,3.075,3.075,0,0,0-.672,1.631l.016.039h3.9v-.2a2.346,2.346,0,0,0-.484-1.511A1.728,1.728,0,0,0,73.836,9.6Z" transform="translate(-7285 -4724.487)" fill="#12263f"/>
  </g>
</svg>
