<?xml version="1.0" encoding="utf-8"?>
<!-- Generator: Adobe Illustrator 25.2.3, SVG Export Plug-In . SVG Version: 6.00 Build 0)  -->
<svg version="1.1" id="Layer_1" xmlns="http://www.w3.org/2000/svg" xmlns:xlink="http://www.w3.org/1999/xlink" x="0px" y="0px"
	 viewBox="0 0 784.9 355.1" style="enable-background:new 0 0 784.9 355.1;" xml:space="preserve">
<style type="text/css">
	.st0{fill:#3366CC;}
	.st1{fill:#FFFFFF;}
	.st2{fill:#7CC5FF;}
	.st3{fill:#12263F;}
</style>
<g>
	<g id="Grupo_53069">
		<path id="Trazado_115073" class="st0" d="M10,0h123.4c5.5,0,10,4.5,10,10v57.2c0,5.5-4.5,10-10,10H10c-5.5,0-10-4.5-10-10V10
			C0,4.5,4.5,0,10,0z"/>
		<path id="Trazado_115074" class="st1" d="M29.8,32.6c0-0.6-0.2-1.1-0.7-1.5c-0.7-0.5-1.5-0.8-2.3-1c-1.2-0.2-2.2-0.7-3.2-1.4
			c-0.7-0.6-1.2-1.4-1.1-2.4c0-1,0.4-1.9,1.2-2.5c0.9-0.7,2-1.1,3.2-1c1.2-0.1,2.4,0.3,3.3,1.1c0.8,0.7,1.2,1.6,1.2,2.7l0,0.1h-1.7
			c0-0.7-0.2-1.3-0.7-1.8c-0.6-0.5-1.4-0.7-2.1-0.7c-0.7,0-1.4,0.2-2,0.6c-0.5,0.4-0.7,0.9-0.7,1.5c0,0.6,0.3,1.1,0.7,1.4
			c0.7,0.5,1.6,0.8,2.4,1c1.1,0.2,2.2,0.7,3.1,1.5c0.7,0.6,1.1,1.5,1.1,2.4c0,1-0.5,1.9-1.3,2.5c-1,0.7-2.1,1-3.3,0.9
			c-1.2,0-2.4-0.3-3.4-1c-0.9-0.6-1.5-1.7-1.4-2.8l0-0.1h1.6c0,0.7,0.3,1.4,0.9,1.9c0.7,0.4,1.4,0.7,2.2,0.6c0.7,0,1.5-0.2,2.1-0.5
			C29.6,33.8,29.9,33.2,29.8,32.6z M35.6,35.9h-1.7v-9.5h1.7L35.6,35.9z M35.6,23.9h-1.7v-1.8h1.7L35.6,23.9z M40.6,24.1v2.3h1.8
			v1.3h-1.8v5.8c0,0.3,0.1,0.7,0.3,0.9c0.2,0.2,0.5,0.3,0.7,0.3c0.1,0,0.2,0,0.3,0c0.1,0,0.2,0,0.3-0.1l0.2,1.2
			c-0.2,0.1-0.4,0.2-0.6,0.3C41.7,36,41.4,36,41.2,36c-0.6,0-1.2-0.2-1.7-0.6c-0.5-0.6-0.7-1.3-0.6-2v-5.8h-1.5v-1.3h1.5v-2.3H40.6z
			 M50.6,34.5c-0.3,0.5-0.7,0.9-1.2,1.2c-0.5,0.3-1.1,0.4-1.6,0.4c-0.9,0.1-1.8-0.3-2.4-1c-0.7-0.9-1-2-0.9-3.1v-5.6h1.7V32
			c-0.1,0.7,0.1,1.5,0.4,2.1c0.3,0.4,0.9,0.6,1.4,0.6c0.5,0,1.1-0.1,1.5-0.4c0.4-0.3,0.7-0.6,0.9-1.1v-6.9h1.7v9.5h-1.6L50.6,34.5z
			 M60.6,35.9c-0.1-0.3-0.1-0.5-0.1-0.8c0-0.2-0.1-0.4-0.1-0.7c-0.3,0.5-0.8,0.9-1.3,1.1c-0.5,0.3-1.1,0.5-1.7,0.5
			c-0.8,0.1-1.6-0.2-2.3-0.8c-0.5-0.6-0.8-1.3-0.8-2.1c0-0.9,0.4-1.7,1.1-2.1c0.9-0.6,1.9-0.8,3-0.8h1.9v-0.9c0-0.5-0.2-1-0.5-1.3
			c-0.4-0.3-0.9-0.5-1.4-0.5c-0.5,0-1,0.1-1.4,0.4c-0.3,0.2-0.5,0.6-0.5,1h-1.7l0-0.1c0-0.8,0.4-1.5,1-1.9c0.8-0.6,1.7-0.9,2.7-0.9
			c0.9,0,1.9,0.2,2.6,0.8c0.7,0.6,1,1.5,1,2.4v4.6c0,0.3,0,0.7,0.1,1c0,0.3,0.1,0.6,0.2,0.9L60.6,35.9z M57.7,34.6
			c0.6,0,1.2-0.2,1.7-0.5c0.4-0.2,0.8-0.6,1-1.1v-1.5h-1.9c-0.6,0-1.2,0.2-1.7,0.5c-0.4,0.3-0.6,0.7-0.6,1.2c0,0.4,0.1,0.7,0.4,1
			C56.9,34.5,57.3,34.6,57.7,34.6z M68.5,34.7c0.6,0,1.1-0.2,1.5-0.5c0.4-0.3,0.7-0.8,0.7-1.3h1.6l0,0.1c0,0.9-0.4,1.7-1.1,2.2
			c-0.7,0.6-1.7,1-2.7,1c-1.2,0.1-2.4-0.4-3.2-1.4c-0.8-1-1.1-2.2-1.1-3.4v-0.4c0-1.2,0.3-2.4,1.1-3.4c1.6-1.7,4.1-1.8,5.9-0.4
			c0.7,0.6,1.1,1.5,1,2.4l0,0.1h-1.6c0-0.6-0.2-1.1-0.6-1.5c-0.4-0.4-1-0.6-1.6-0.6c-0.8-0.1-1.5,0.3-1.9,1
			c-0.4,0.7-0.6,1.6-0.6,2.4v0.4c0,0.8,0.2,1.7,0.6,2.4C67,34.4,67.7,34.7,68.5,34.7L68.5,34.7z M76.1,35.9h-1.7v-9.5h1.7V35.9z
			 M76.1,23.9h-1.7v-1.8h1.7V23.9z M78.3,31c0-1.3,0.4-2.5,1.1-3.5c1.6-1.7,4.3-1.8,6-0.2c0.1,0.1,0.2,0.2,0.2,0.2
			c0.8,1,1.2,2.2,1.1,3.5v0.2c0.1,1.3-0.4,2.5-1.1,3.5c-1.6,1.7-4.3,1.8-6,0.2c-0.1-0.1-0.1-0.1-0.2-0.2c-0.8-1-1.2-2.2-1.1-3.5V31z
			 M80.1,31.2c0,0.9,0.2,1.7,0.6,2.5c0.7,1,2.2,1.3,3.2,0.6c0.2-0.2,0.4-0.3,0.6-0.6c0.5-0.8,0.7-1.6,0.6-2.5V31
			c0-0.9-0.2-1.7-0.6-2.5c-0.4-0.6-1.1-1-1.9-1c-0.8,0-1.5,0.3-1.9,1c-0.4,0.7-0.7,1.6-0.6,2.5L80.1,31.2z M83.4,22.7h2l0,0.1
			L83.1,25h-1.3L83.4,22.7z M90.5,26.3l0.1,1.4c0.3-0.5,0.7-0.9,1.2-1.2c0.5-0.3,1.1-0.4,1.6-0.4c0.9-0.1,1.8,0.3,2.4,0.9
			c0.6,0.8,0.9,1.8,0.8,2.8v6H95v-6c0.1-0.6-0.1-1.3-0.5-1.8c-0.4-0.4-1-0.6-1.5-0.5c-0.5,0-0.9,0.1-1.3,0.4c-0.4,0.2-0.7,0.6-0.9,1
			v6.9H89v-9.5H90.5z M103.3,31.3c-0.1-1.3,0.3-2.6,1-3.7c0.6-0.9,1.6-1.4,2.7-1.4c0.5,0,1,0.1,1.5,0.3c0.4,0.2,0.8,0.5,1.1,0.9
			v-5.2h1.7v13.7h-1.4l-0.2-1.2c-0.3,0.4-0.7,0.8-1.1,1c-0.5,0.2-1,0.4-1.6,0.3c-1.1,0-2.1-0.4-2.7-1.3c-0.7-1-1-2.1-1-3.3
			L103.3,31.3z M105,31.5c0,0.8,0.2,1.6,0.6,2.3c0.4,0.6,1.1,0.9,1.8,0.9c0.5,0,0.9-0.1,1.3-0.4c0.4-0.3,0.7-0.6,0.9-1v-4.4
			c-0.2-0.4-0.5-0.7-0.9-0.9c-0.4-0.2-0.8-0.4-1.3-0.3c-0.8,0-1.5,0.4-1.8,1c-0.4,0.8-0.6,1.7-0.6,2.7L105,31.5z M117.9,36
			c-1.2,0.1-2.4-0.4-3.2-1.3c-0.8-1-1.2-2.2-1.2-3.4v-0.4c0-1.2,0.4-2.4,1.2-3.4c0.7-0.9,1.8-1.3,2.9-1.4c1.1-0.1,2.2,0.3,2.9,1.2
			c0.7,0.9,1,2,1,3.1v1.1h-6.2l0,0c0,0.8,0.2,1.6,0.7,2.2c0.4,0.6,1.1,0.9,1.9,0.9c0.5,0,1-0.1,1.5-0.2c0.4-0.2,0.8-0.4,1.1-0.7
			l0.7,1.1c-0.4,0.4-0.8,0.7-1.3,0.8C119.2,35.9,118.5,36.1,117.9,36L117.9,36z M117.6,27.5c-0.6,0-1.1,0.3-1.5,0.7
			c-0.4,0.5-0.7,1.2-0.8,1.8l0,0h4.4v-0.2c0-0.6-0.2-1.2-0.5-1.7C118.8,27.7,118.2,27.5,117.6,27.5L117.6,27.5z M48.5,53.1
			c0.1,1.2-0.3,2.4-1,3.3c-0.6,0.8-1.7,1.3-2.7,1.3c-0.5,0-1.1-0.1-1.5-0.3c-0.4-0.2-0.8-0.5-1.1-0.9v4.6h-1.7V47.9h1.3l0.3,1.2
			c0.3-0.4,0.7-0.8,1.2-1c0.5-0.2,1.1-0.4,1.6-0.4c1.1,0,2.1,0.5,2.7,1.4c0.7,1.1,1,2.4,1,3.7L48.5,53.1z M46.8,52.9
			c0-0.9-0.2-1.8-0.6-2.7c-0.4-0.7-1.1-1.1-1.9-1c-0.4,0-0.9,0.1-1.3,0.3c-0.4,0.2-0.7,0.6-0.9,0.9V55c0.2,0.4,0.5,0.7,0.9,0.9
			c0.4,0.2,0.8,0.3,1.3,0.3c0.7,0,1.4-0.3,1.9-0.9c0.4-0.7,0.7-1.5,0.6-2.3L46.8,52.9z M50.2,52.6c0-1.3,0.4-2.5,1.1-3.5
			c1.6-1.7,4.3-1.8,6-0.2c0.1,0.1,0.2,0.2,0.2,0.2c0.8,1,1.2,2.2,1.1,3.5v0.2c0.1,1.3-0.4,2.5-1.1,3.5c-1.6,1.7-4.3,1.8-6,0.2
			c-0.1-0.1-0.1-0.1-0.2-0.2c-0.8-1-1.2-2.2-1.1-3.5V52.6z M52,52.8c0,0.9,0.2,1.7,0.6,2.5c0.7,1,2.2,1.3,3.2,0.6
			c0.2-0.2,0.4-0.3,0.6-0.6c0.5-0.8,0.7-1.6,0.6-2.5v-0.2c0-0.9-0.2-1.7-0.6-2.5c-0.4-0.6-1.1-1-1.9-1c-0.8,0-1.5,0.3-1.9,1
			c-0.4,0.7-0.7,1.6-0.6,2.5L52,52.8z M69,53.1c0.1,1.2-0.3,2.4-1,3.3c-0.6,0.8-1.7,1.3-2.7,1.3c-0.6,0-1.1-0.1-1.6-0.4
			c-0.5-0.3-0.9-0.6-1.2-1.1l-0.2,1.3h-1.4V43.7h1.7v5.3c0.3-0.4,0.7-0.7,1.1-1c0.5-0.2,1-0.3,1.6-0.3c1.1,0,2.1,0.5,2.7,1.4
			c0.7,1.1,1,2.4,1,3.7L69,53.1z M67.3,52.9c0-0.9-0.2-1.8-0.6-2.7c-0.4-0.7-1.1-1.1-1.8-1c-0.5,0-1,0.1-1.3,0.4
			c-0.4,0.3-0.7,0.6-0.9,1v4.1c0.2,0.4,0.5,0.8,0.9,1.1c0.4,0.3,0.9,0.4,1.4,0.4c0.7,0,1.4-0.3,1.8-0.9c0.4-0.7,0.6-1.5,0.6-2.3
			L67.3,52.9z M75.6,49.5l-0.9-0.1c-0.4,0-0.8,0.1-1.2,0.3c-0.3,0.2-0.6,0.5-0.7,0.9v6.8h-1.7v-9.5h1.5l0.2,1.4
			c0.2-0.5,0.6-0.9,1-1.2c0.4-0.3,0.9-0.4,1.4-0.4c0.1,0,0.2,0,0.4,0c0.1,0,0.2,0,0.3,0.1L75.6,49.5z M81,57.6
			c-1.2,0.1-2.4-0.4-3.2-1.3c-0.8-1-1.2-2.2-1.2-3.4v-0.4c0-1.2,0.4-2.4,1.2-3.4c0.7-0.9,1.8-1.3,2.9-1.3c1.1-0.1,2.2,0.3,2.9,1.2
			c0.7,0.9,1,2,1,3.1v1.1h-6.2l0,0c0,0.8,0.2,1.6,0.7,2.2c0.4,0.6,1.1,0.9,1.9,0.9c0.5,0,1-0.1,1.5-0.2c0.4-0.2,0.8-0.4,1.1-0.7
			l0.7,1.1c-0.4,0.4-0.8,0.7-1.3,0.8C82.4,57.5,81.7,57.7,81,57.6z M80.8,49.1c-0.6,0-1.1,0.3-1.5,0.7c-0.4,0.5-0.7,1.2-0.8,1.8l0,0
			h4.4v-0.2c0-0.6-0.2-1.2-0.5-1.7C82,49.3,81.4,49.1,80.8,49.1z M88.2,56.1h5.5v1.4h-7.6v-1.2l5.1-6.9h-5.1v-1.4h7.2v1.2L88.2,56.1
			z M101.5,57.5c-0.1-0.3-0.1-0.5-0.1-0.8c0-0.2-0.1-0.4-0.1-0.7c-0.3,0.5-0.8,0.9-1.3,1.1c-0.5,0.3-1.1,0.5-1.7,0.5
			c-0.8,0.1-1.6-0.2-2.3-0.8c-0.5-0.6-0.8-1.3-0.8-2.1c0-0.9,0.4-1.7,1.1-2.1c0.9-0.6,1.9-0.8,3-0.8h1.9v-0.9c0-0.5-0.2-1-0.5-1.3
			c-0.4-0.3-0.9-0.5-1.4-0.5c-0.5,0-1,0.1-1.4,0.4c-0.3,0.2-0.5,0.6-0.5,1h-1.7l0-0.1c0-0.8,0.4-1.5,1-1.9c0.8-0.6,1.7-0.9,2.7-0.9
			c0.9,0,1.9,0.2,2.6,0.8c0.7,0.6,1,1.5,1,2.4v4.6c0,0.3,0,0.7,0.1,1c0,0.3,0.1,0.6,0.2,0.9L101.5,57.5z M98.6,56.2
			c0.6,0,1.2-0.2,1.7-0.5c0.4-0.2,0.8-0.6,1-1.1v-1.5h-1.9c-0.6,0-1.2,0.2-1.7,0.5c-0.4,0.3-0.6,0.7-0.6,1.2c0,0.4,0.1,0.7,0.4,1
			C97.8,56.1,98.2,56.2,98.6,56.2z"/>
		<path id="Trazado_115075" class="st0" d="M10,92.7h123.4c5.5,0,10,4.5,10,10v57.2c0,5.5-4.5,10-10,10H10c-5.5,0-10-4.5-10-10
			v-57.2C0,97.1,4.5,92.7,10,92.7z"/>
		<path id="Trazado_115076" class="st1" d="M38.8,135.2h-5.4l-1.2,3.3h-1.8l4.9-12.8h1.5l4.9,12.8H40L38.8,135.2z M33.9,133.8h4.3
			l-2.1-5.8h-0.1L33.9,133.8z M51.3,134.1c0.1,1.2-0.3,2.4-1,3.3c-0.6,0.8-1.7,1.3-2.7,1.3c-0.6,0-1.1-0.1-1.6-0.4
			c-0.5-0.3-0.9-0.6-1.2-1.1l-0.2,1.3h-1.4v-13.7h1.7v5.3c0.3-0.4,0.7-0.7,1.1-1c0.5-0.2,1-0.3,1.6-0.3c1.1,0,2.1,0.5,2.7,1.4
			c0.7,1.1,1,2.4,1,3.7L51.3,134.1z M49.6,133.9c0-0.9-0.2-1.8-0.6-2.7c-0.4-0.7-1.1-1.1-1.8-1c-0.5,0-1,0.1-1.3,0.4
			c-0.4,0.3-0.7,0.6-0.9,1.1v4.1c0.2,0.4,0.5,0.8,0.9,1.1c0.4,0.3,0.9,0.4,1.4,0.4c0.7,0,1.4-0.3,1.8-0.9c0.4-0.7,0.6-1.5,0.6-2.3
			L49.6,133.9z M59.2,138.5c-0.1-0.3-0.1-0.5-0.1-0.8c0-0.2-0.1-0.4-0.1-0.7c-0.3,0.5-0.8,0.9-1.3,1.1c-0.5,0.3-1.1,0.5-1.7,0.5
			c-0.8,0.1-1.6-0.2-2.3-0.8c-0.5-0.6-0.8-1.3-0.8-2.1c0-0.9,0.4-1.7,1.1-2.1c0.9-0.6,1.9-0.8,3-0.8H59V132c0-0.5-0.2-1-0.5-1.3
			c-0.4-0.3-0.9-0.5-1.4-0.5c-0.5,0-1,0.1-1.4,0.4c-0.3,0.2-0.5,0.6-0.5,1h-1.6l0-0.1c0-0.8,0.4-1.5,1-1.9c0.8-0.6,1.7-0.9,2.7-0.9
			c0.9,0,1.9,0.2,2.6,0.8c0.7,0.6,1,1.5,1,2.4v4.6c0,0.3,0,0.7,0.1,1c0,0.3,0.1,0.6,0.2,0.9H59.2z M56.4,137.2
			c0.6,0,1.2-0.2,1.7-0.5c0.4-0.2,0.8-0.6,1-1.1v-1.5h-1.9c-0.6,0-1.2,0.2-1.7,0.5c-0.4,0.3-0.6,0.7-0.6,1.2c0,0.4,0.1,0.7,0.4,1
			C55.5,137.1,55.9,137.3,56.4,137.2z M64.8,129l0.1,1.4c0.3-0.5,0.7-0.9,1.2-1.2c0.5-0.3,1.1-0.4,1.6-0.4c0.9-0.1,1.8,0.3,2.4,0.9
			c0.6,0.8,0.9,1.8,0.8,2.8v6h-1.7v-6c0.1-0.6-0.1-1.3-0.5-1.8c-0.4-0.4-1-0.6-1.5-0.5c-0.5,0-0.9,0.1-1.3,0.4
			c-0.4,0.2-0.7,0.6-0.9,1v6.9h-1.7V129H64.8z M73.1,133.9c-0.1-1.3,0.3-2.6,1-3.7c0.6-0.9,1.6-1.4,2.7-1.4c0.5,0,1,0.1,1.5,0.3
			c0.4,0.2,0.8,0.5,1.1,0.9v-5.2h1.7v13.7h-1.4l-0.2-1.2c-0.3,0.4-0.7,0.8-1.1,1c-0.5,0.2-1,0.4-1.6,0.3c-1.1,0-2.1-0.4-2.7-1.3
			c-0.7-1-1-2.1-1-3.3L73.1,133.9z M74.9,134.1c0,0.8,0.2,1.6,0.6,2.3c0.4,0.6,1.1,0.9,1.8,0.9c0.5,0,0.9-0.1,1.3-0.4
			c0.4-0.3,0.7-0.6,0.9-1v-4.4c-0.2-0.4-0.5-0.7-0.9-0.9c-0.4-0.2-0.8-0.4-1.3-0.3c-0.8,0-1.5,0.4-1.8,1c-0.4,0.8-0.6,1.7-0.6,2.7
			L74.9,134.1z M83.4,133.7c0-1.3,0.4-2.5,1.1-3.5c1.6-1.7,4.3-1.8,6-0.2c0.1,0.1,0.2,0.2,0.2,0.2c0.8,1,1.2,2.2,1.1,3.5v0.2
			c0.1,1.3-0.4,2.5-1.1,3.5c-1.6,1.7-4.3,1.8-6,0.2c-0.1-0.1-0.1-0.1-0.2-0.2c-0.8-1-1.2-2.2-1.1-3.5V133.7z M85.1,133.9
			c0,0.9,0.2,1.7,0.6,2.5c0.7,1,2.2,1.3,3.2,0.6c0.2-0.2,0.4-0.3,0.6-0.6c0.5-0.8,0.7-1.6,0.6-2.5v-0.2c0-0.9-0.2-1.7-0.6-2.5
			c-0.4-0.6-1.1-1-1.9-1c-0.8,0-1.5,0.3-1.9,1c-0.4,0.7-0.7,1.6-0.6,2.5L85.1,133.9z M95.5,129l0.1,1.4c0.3-0.5,0.7-0.9,1.2-1.2
			c0.5-0.3,1.1-0.4,1.6-0.4c0.9-0.1,1.8,0.3,2.4,0.9c0.6,0.8,0.9,1.8,0.8,2.8v6H100v-6c0.1-0.6-0.1-1.3-0.5-1.8
			c-0.4-0.4-1-0.6-1.5-0.5c-0.5,0-0.9,0.1-1.3,0.4c-0.4,0.2-0.7,0.6-0.9,1v6.9H94V129H95.5z M103.8,133.7c0-1.3,0.4-2.5,1.1-3.5
			c1.6-1.7,4.3-1.8,6-0.2c0.1,0.1,0.2,0.2,0.2,0.2c0.8,1,1.2,2.2,1.1,3.5v0.2c0.1,1.3-0.4,2.5-1.1,3.5c-1.6,1.7-4.3,1.8-6,0.2
			c-0.1-0.1-0.1-0.1-0.2-0.2c-0.8-1-1.2-2.2-1.1-3.5V133.7z M105.5,133.9c0,0.9,0.2,1.7,0.6,2.5c0.7,1,2.2,1.3,3.2,0.6
			c0.2-0.2,0.4-0.3,0.6-0.6c0.5-0.8,0.7-1.6,0.6-2.5v-0.2c0-0.9-0.2-1.7-0.6-2.5c-0.4-0.6-1.1-1-1.9-1c-0.8,0-1.5,0.3-1.9,1
			c-0.4,0.7-0.7,1.6-0.6,2.5L105.5,133.9z"/>
		<path id="Trazado_115077" class="st0" d="M10,185.3h123.4c5.5,0,10,4.5,10,10v57.2c0,5.5-4.5,10-10,10H10c-5.5,0-10-4.5-10-10
			v-57.2C0,189.8,4.5,185.3,10,185.3z"/>
		<path id="Trazado_115078" class="st1" d="M32.9,220.2h-1.7l-6.2-9.9l-0.1,0v9.9h-1.7v-12.8H25l6.2,9.9l0.1,0v-9.9h1.7L32.9,220.2z
			 M35.4,215.3c0-1.3,0.4-2.5,1.1-3.5c0.8-0.9,1.9-1.4,3.1-1.4c1.2-0.1,2.4,0.4,3.1,1.4c0.8,1,1.2,2.2,1.1,3.5v0.2
			c0.1,1.3-0.4,2.5-1.1,3.5c-0.8,0.9-1.9,1.4-3.1,1.4c-1.2,0.1-2.3-0.4-3.1-1.4c-0.8-1-1.2-2.2-1.1-3.5L35.4,215.3z M37.1,215.5
			c0,0.9,0.2,1.7,0.6,2.5c0.7,1,2.2,1.3,3.2,0.6c0.2-0.2,0.4-0.3,0.6-0.6c0.5-0.8,0.7-1.6,0.6-2.5v-0.2c0-0.9-0.2-1.7-0.6-2.5
			c-0.4-0.6-1.1-1-1.9-1c-0.8,0-1.5,0.3-1.9,1c-0.4,0.7-0.7,1.6-0.6,2.5L37.1,215.5z M56.3,220.2c-0.1-0.3-0.1-0.5-0.1-0.8
			c0-0.2-0.1-0.4-0.1-0.7c-0.3,0.5-0.8,0.9-1.3,1.1c-0.5,0.3-1.1,0.5-1.7,0.5c-0.8,0.1-1.6-0.2-2.3-0.8c-0.5-0.6-0.8-1.3-0.8-2.1
			c0-0.9,0.4-1.7,1.1-2.1c0.9-0.6,1.9-0.8,3-0.8h1.9v-0.9c0-0.5-0.2-1-0.5-1.3c-0.4-0.3-0.9-0.5-1.4-0.5c-0.5,0-1,0.1-1.4,0.4
			c-0.3,0.2-0.5,0.6-0.5,1h-1.6l0-0.1c0-0.8,0.4-1.5,1-1.9c0.8-0.6,1.7-0.9,2.7-0.9c0.9,0,1.9,0.2,2.6,0.8c0.7,0.6,1,1.5,1,2.4v4.6
			c0,0.3,0,0.7,0.1,1c0,0.3,0.1,0.6,0.2,0.9L56.3,220.2z M53.5,218.9c0.6,0,1.2-0.2,1.7-0.5c0.4-0.2,0.8-0.6,1-1.1v-1.5h-1.9
			c-0.6,0-1.2,0.2-1.7,0.5c-0.4,0.3-0.6,0.7-0.6,1.2c0,0.4,0.1,0.7,0.4,1C52.6,218.8,53,218.9,53.5,218.9z M64.2,219
			c0.6,0,1.1-0.2,1.5-0.5c0.4-0.3,0.7-0.8,0.7-1.3H68l0,0.1c0,0.9-0.4,1.7-1.1,2.2c-0.7,0.6-1.7,1-2.7,1c-1.2,0.1-2.4-0.4-3.2-1.4
			c-0.8-1-1.1-2.2-1.1-3.4v-0.4c0-1.2,0.3-2.4,1.1-3.4c1.6-1.7,4.1-1.8,5.9-0.4c0.7,0.6,1.1,1.5,1,2.4l0,0.1h-1.6
			c0-0.6-0.2-1.1-0.6-1.5c-0.4-0.4-1-0.6-1.6-0.6c-0.8-0.1-1.5,0.3-1.9,1c-0.4,0.7-0.6,1.6-0.6,2.4v0.4c0,0.8,0.2,1.7,0.6,2.4
			C62.7,218.7,63.5,219.1,64.2,219L64.2,219z M73.8,219c0.6,0,1.1-0.2,1.5-0.5c0.4-0.3,0.7-0.8,0.7-1.3h1.6l0,0.1
			c0,0.9-0.4,1.7-1.1,2.2c-0.7,0.6-1.7,1-2.7,1c-1.2,0.1-2.4-0.4-3.2-1.4c-0.8-1-1.1-2.2-1.1-3.4v-0.4c0-1.2,0.3-2.4,1.1-3.4
			c1.6-1.7,4.1-1.8,5.9-0.4c0.7,0.6,1.1,1.5,1,2.4l0,0.1H76c0-0.6-0.2-1.1-0.6-1.5c-0.4-0.4-1-0.6-1.6-0.6c-0.8-0.1-1.5,0.3-1.9,1
			c-0.4,0.7-0.6,1.6-0.6,2.4v0.4c0,0.8,0.2,1.7,0.6,2.4C72.3,218.7,73,219.1,73.8,219L73.8,219z M83.4,220.4
			c-1.2,0.1-2.4-0.4-3.2-1.3c-0.8-1-1.2-2.2-1.2-3.4v-0.4c0-1.2,0.4-2.4,1.2-3.4c0.7-0.9,1.8-1.3,2.9-1.3c1.1-0.1,2.2,0.3,2.9,1.2
			c0.7,0.9,1,2,1,3.1v1.1h-6.2l0,0c0,0.8,0.2,1.6,0.7,2.2c0.4,0.6,1.1,0.9,1.9,0.9c0.5,0,1-0.1,1.5-0.2c0.4-0.2,0.8-0.4,1.1-0.7
			l0.7,1.1c-0.4,0.4-0.8,0.7-1.3,0.8C84.8,220.3,84.1,220.4,83.4,220.4L83.4,220.4z M83.2,211.9c-0.6,0-1.1,0.3-1.5,0.7
			c-0.4,0.5-0.7,1.2-0.8,1.8l0,0h4.4v-0.2c0-0.6-0.2-1.2-0.5-1.7C84.4,212.1,83.8,211.8,83.2,211.9L83.2,211.9z M94.5,217.7
			c0-0.4-0.2-0.7-0.4-0.9c-0.5-0.3-1.1-0.6-1.6-0.6c-0.9-0.2-1.8-0.5-2.6-1c-0.6-0.4-0.9-1.1-0.9-1.8c0-0.8,0.4-1.5,1-2
			c1.6-1.1,3.7-1.1,5.2,0c0.6,0.5,1,1.3,0.9,2.1l0,0.1h-1.7c0-0.4-0.2-0.8-0.5-1.1c-0.4-0.3-0.9-0.5-1.4-0.5c-0.5,0-1,0.1-1.4,0.4
			c-0.3,0.2-0.5,0.6-0.4,1c0,0.3,0.1,0.7,0.4,0.9c0.5,0.3,1,0.5,1.6,0.6c1,0.2,1.9,0.5,2.7,1.1c0.6,0.4,0.9,1.1,0.9,1.8
			c0,0.8-0.4,1.6-1,2c-0.8,0.6-1.7,0.8-2.7,0.8c-1,0.1-2.1-0.3-2.9-0.9c-0.7-0.5-1-1.3-1-2.2l0-0.1h1.7c0,0.5,0.2,1,0.7,1.3
			c0.4,0.3,1,0.4,1.5,0.4c0.5,0,1-0.1,1.4-0.4C94.3,218.4,94.5,218,94.5,217.7L94.5,217.7z M98,215.3c0-1.3,0.4-2.5,1.1-3.5
			c1.6-1.7,4.3-1.8,6-0.2c0.1,0.1,0.2,0.2,0.2,0.2c0.8,1,1.2,2.2,1.1,3.5v0.2c0.1,1.3-0.4,2.5-1.1,3.5c-1.6,1.7-4.3,1.8-6,0.2
			c-0.1-0.1-0.1-0.1-0.2-0.2c-0.8-1-1.2-2.2-1.1-3.5V215.3z M99.7,215.5c0,0.9,0.2,1.7,0.6,2.5c0.7,1,2.2,1.3,3.2,0.6
			c0.2-0.2,0.4-0.3,0.6-0.6c0.5-0.8,0.7-1.6,0.6-2.5v-0.2c0-0.9-0.2-1.7-0.6-2.5c-0.4-0.6-1.1-1-1.9-1c-0.8,0-1.5,0.3-1.9,1
			c-0.4,0.7-0.7,1.6-0.6,2.5L99.7,215.5z M119,220.2c-0.1-0.3-0.1-0.5-0.1-0.8c0-0.2-0.1-0.4-0.1-0.7c-0.3,0.5-0.8,0.9-1.3,1.1
			c-0.5,0.3-1.1,0.5-1.7,0.5c-0.8,0.1-1.6-0.2-2.3-0.8c-0.5-0.6-0.8-1.3-0.8-2.1c0-0.9,0.4-1.7,1.1-2.1c0.9-0.6,1.9-0.8,3-0.8h1.9
			v-0.9c0-0.5-0.2-1-0.5-1.3c-0.4-0.3-0.9-0.5-1.4-0.5c-0.5,0-1,0.1-1.4,0.4c-0.3,0.2-0.5,0.6-0.5,1h-1.7l0-0.1c0-0.8,0.4-1.5,1-1.9
			c0.8-0.6,1.7-0.9,2.7-0.9c0.9,0,1.9,0.2,2.6,0.8c0.7,0.6,1,1.5,1,2.4v4.6c0,0.3,0,0.7,0.1,1c0,0.3,0.1,0.6,0.2,0.9L119,220.2z
			 M116.1,218.9c0.6,0,1.2-0.2,1.7-0.5c0.4-0.2,0.8-0.6,1-1.1v-1.5h-1.9c-0.6,0-1.2,0.2-1.7,0.5c-0.4,0.3-0.6,0.7-0.6,1.2
			c0,0.4,0.1,0.7,0.4,1C115.3,218.8,115.7,218.9,116.1,218.9z M34.9,242c-1.2,0.1-2.4-0.4-3.2-1.3c-0.8-1-1.2-2.2-1.2-3.4v-0.4
			c0-1.2,0.4-2.4,1.2-3.4c0.7-0.9,1.8-1.3,2.9-1.3c1.1-0.1,2.2,0.3,2.9,1.2c0.7,0.9,1,2,1,3.1v1.1h-6.2l0,0c0,0.8,0.2,1.6,0.7,2.2
			c0.4,0.6,1.1,0.9,1.9,0.9c0.5,0,1-0.1,1.5-0.2c0.4-0.2,0.8-0.4,1.1-0.7l0.7,1.1c-0.4,0.4-0.8,0.7-1.3,0.8
			C36.3,241.9,35.6,242,34.9,242z M34.7,233.5c-0.6,0-1.1,0.3-1.5,0.7c-0.4,0.5-0.7,1.2-0.8,1.8l0,0h4.4v-0.2c0-0.6-0.2-1.2-0.5-1.7
			C35.9,233.7,35.3,233.4,34.7,233.5z M40.1,237.2c-0.1-1.3,0.3-2.6,1-3.7c0.6-0.9,1.6-1.4,2.7-1.4c0.5,0,1,0.1,1.5,0.3
			c0.4,0.2,0.8,0.5,1.1,0.9v-5.2h1.7v13.7h-1.4l-0.2-1.2c-0.3,0.4-0.7,0.8-1.1,1c-0.5,0.2-1,0.4-1.6,0.3c-1.1,0-2.1-0.4-2.7-1.3
			c-0.7-1-1-2.1-1-3.3L40.1,237.2z M41.8,237.4c0,0.8,0.2,1.6,0.6,2.3c0.4,0.6,1.1,0.9,1.8,0.9c0.5,0,0.9-0.1,1.3-0.4
			c0.4-0.3,0.7-0.6,0.9-1v-4.4c-0.2-0.4-0.5-0.7-0.9-0.9c-0.4-0.2-0.8-0.4-1.3-0.3c-0.8,0-1.5,0.4-1.8,1c-0.4,0.8-0.6,1.7-0.6,2.7
			L41.8,237.4z M56.8,240.4c-0.3,0.5-0.7,0.9-1.2,1.2c-0.5,0.3-1.1,0.4-1.6,0.4c-0.9,0.1-1.8-0.3-2.4-1c-0.7-0.9-1-2-0.9-3.1v-5.6
			h1.7v5.6c-0.1,0.7,0.1,1.5,0.4,2.1c0.3,0.4,0.9,0.6,1.4,0.6c0.5,0,1.1-0.1,1.5-0.4c0.4-0.3,0.7-0.6,0.9-1.1v-6.9h1.7v9.5h-1.6
			L56.8,240.4z M64.8,240.6c0.6,0,1.1-0.2,1.5-0.5c0.4-0.3,0.7-0.8,0.7-1.3h1.6l0,0.1c0,0.9-0.4,1.7-1.1,2.2c-0.7,0.6-1.7,1-2.6,1
			c-1.2,0.1-2.4-0.4-3.2-1.4c-0.8-1-1.1-2.2-1.1-3.4v-0.4c0-1.2,0.3-2.4,1.1-3.4c1.6-1.7,4.1-1.8,5.9-0.4c0.7,0.6,1.1,1.5,1,2.4
			l0,0.1H67c0-0.6-0.2-1.1-0.6-1.5c-0.4-0.4-1-0.6-1.6-0.6c-0.8-0.1-1.5,0.3-1.9,1c-0.4,0.7-0.6,1.6-0.6,2.4v0.4
			c0,0.8,0.2,1.7,0.6,2.4C63.3,240.3,64.1,240.7,64.8,240.6L64.8,240.6z M76.4,241.8c-0.1-0.3-0.1-0.5-0.1-0.8
			c0-0.2-0.1-0.4-0.1-0.7c-0.3,0.5-0.8,0.9-1.3,1.1c-0.5,0.3-1.1,0.5-1.7,0.5c-0.8,0.1-1.6-0.2-2.3-0.8c-0.5-0.6-0.8-1.3-0.8-2.1
			c0-0.9,0.4-1.7,1.1-2.1c0.9-0.6,1.9-0.8,3-0.8h1.9v-0.9c0-0.5-0.2-1-0.5-1.3c-0.4-0.3-0.9-0.5-1.4-0.5c-0.5,0-1,0.1-1.4,0.4
			c-0.3,0.2-0.5,0.6-0.5,1h-1.7l0-0.1c0-0.8,0.4-1.5,1-1.9c0.8-0.6,1.7-0.9,2.7-0.9c0.9,0,1.9,0.2,2.6,0.8c0.7,0.6,1,1.5,1,2.4v4.6
			c0,0.3,0,0.7,0.1,1c0,0.3,0.1,0.6,0.2,0.9L76.4,241.8z M73.5,240.5c0.6,0,1.2-0.2,1.7-0.5c0.4-0.2,0.8-0.6,1-1.1v-1.5h-1.9
			c-0.6,0-1.2,0.2-1.7,0.5c-0.4,0.3-0.6,0.7-0.6,1.2c0,0.4,0.1,0.7,0.4,1C72.7,240.4,73.1,240.5,73.5,240.5L73.5,240.5z M84.3,240.6
			c0.6,0,1.1-0.2,1.5-0.5c0.4-0.3,0.7-0.8,0.7-1.3H88l0,0.1c0,0.9-0.4,1.7-1.1,2.2c-0.7,0.6-1.7,1-2.7,1c-1.2,0.1-2.4-0.4-3.2-1.4
			c-0.8-1-1.1-2.2-1.1-3.4v-0.4c0-1.2,0.3-2.4,1.1-3.4c1.6-1.7,4.1-1.8,5.9-0.4c0.7,0.6,1.1,1.5,1,2.4l0,0.1h-1.6
			c0-0.6-0.2-1.1-0.6-1.5c-0.4-0.4-1-0.6-1.6-0.6c-0.8-0.1-1.5,0.3-1.9,1c-0.4,0.7-0.6,1.6-0.6,2.4v0.4c0,0.8,0.2,1.7,0.6,2.4
			C82.8,240.3,83.5,240.7,84.3,240.6L84.3,240.6z M91.8,241.8h-1.7v-9.5h1.7L91.8,241.8z M91.8,229.8h-1.7v-1.8h1.7L91.8,229.8z
			 M94.1,236.9c0-1.3,0.4-2.5,1.1-3.5c1.6-1.7,4.3-1.8,6-0.2c0.1,0.1,0.2,0.2,0.2,0.2c0.8,1,1.2,2.2,1.1,3.5v0.2
			c0.1,1.3-0.4,2.5-1.1,3.5c-1.6,1.7-4.3,1.8-6,0.2c-0.1-0.1-0.1-0.1-0.2-0.2c-0.8-1-1.2-2.2-1.1-3.5V236.9z M95.8,237.1
			c0,0.9,0.2,1.7,0.6,2.5c0.7,1,2.2,1.3,3.2,0.6c0.2-0.2,0.4-0.3,0.6-0.6c0.5-0.8,0.7-1.6,0.6-2.5v-0.2c0-0.9-0.2-1.7-0.6-2.5
			c-0.4-0.6-1.1-1-1.9-1c-0.8,0-1.5,0.3-1.9,1c-0.4,0.7-0.7,1.6-0.6,2.5L95.8,237.1z M99.2,228.6h2l0,0.1l-2.4,2.3h-1.3L99.2,228.6z
			 M106.3,232.3l0.1,1.4c0.3-0.5,0.7-0.9,1.2-1.2c0.5-0.3,1.1-0.4,1.6-0.4c0.9-0.1,1.8,0.3,2.4,0.9c0.6,0.8,0.9,1.8,0.8,2.8v6h-1.7
			v-6c0.1-0.6-0.1-1.3-0.5-1.8c-0.4-0.4-1-0.6-1.5-0.5c-0.5,0-0.9,0.1-1.3,0.4c-0.4,0.2-0.7,0.6-0.9,1v6.9h-1.7v-9.5H106.3z"/>
		<path id="Trazado_115081" class="st0" d="M10,278h123.4c5.5,0,10,4.5,10,10v57.2c0,5.5-4.5,10-10,10H10c-5.5,0-10-4.5-10-10V288
			C0,282.5,4.5,278,10,278z"/>
		<path id="Trazado_115082" class="st1" d="M25.5,301.4h-4.1v11.4h-1.7v-11.4h-4.1V300h9.9L25.5,301.4z M31,304.9l-0.9-0.1
			c-0.4,0-0.8,0.1-1.2,0.3c-0.3,0.2-0.6,0.5-0.7,0.9v6.8h-1.7v-9.5H28l0.2,1.4c0.2-0.5,0.6-0.9,1-1.2c0.4-0.3,0.9-0.4,1.4-0.4
			c0.1,0,0.2,0,0.4,0c0.1,0,0.2,0,0.3,0.1L31,304.9z M38.5,312.8c-0.1-0.3-0.1-0.5-0.1-0.8c0-0.2-0.1-0.4-0.1-0.7
			c-0.3,0.5-0.8,0.9-1.3,1.1c-0.5,0.3-1.1,0.5-1.7,0.5c-0.8,0.1-1.6-0.2-2.3-0.8c-0.5-0.6-0.8-1.3-0.8-2.1c0-0.9,0.4-1.7,1.1-2.1
			c0.9-0.6,1.9-0.8,3-0.8h1.9v-0.9c0-0.5-0.2-1-0.5-1.3c-0.4-0.3-0.9-0.5-1.4-0.5c-0.5,0-1,0.1-1.4,0.4c-0.3,0.2-0.5,0.6-0.5,1h-1.7
			l0-0.1c0-0.8,0.4-1.5,1-1.9c0.8-0.6,1.7-0.9,2.7-0.9c0.9,0,1.9,0.2,2.6,0.8c0.7,0.6,1,1.5,1,2.4v4.6c0,0.3,0,0.7,0.1,1
			c0,0.3,0.1,0.6,0.2,0.9L38.5,312.8z M35.6,311.6c0.6,0,1.2-0.2,1.7-0.5c0.4-0.2,0.8-0.6,1-1.1v-1.5h-1.9c-0.6,0-1.2,0.2-1.7,0.5
			c-0.4,0.3-0.6,0.7-0.6,1.2c0,0.4,0.1,0.7,0.4,1C34.8,311.5,35.2,311.6,35.6,311.6z M44.8,301v2.3h1.8v1.3h-1.8v5.8
			c0,0.3,0.1,0.7,0.3,0.9c0.2,0.2,0.5,0.3,0.7,0.3c0.1,0,0.2,0,0.3,0c0.1,0,0.2,0,0.3-0.1l0.2,1.2c-0.2,0.1-0.4,0.2-0.6,0.3
			c-0.2,0.1-0.5,0.1-0.8,0.1c-0.6,0-1.2-0.2-1.7-0.6c-0.5-0.6-0.7-1.3-0.6-2v-5.8h-1.5v-1.3h1.5V301H44.8z M54.6,312.8
			c-0.1-0.3-0.1-0.5-0.1-0.8c0-0.2-0.1-0.4-0.1-0.7c-0.3,0.5-0.8,0.9-1.3,1.1c-0.5,0.3-1.1,0.5-1.7,0.5c-0.8,0.1-1.6-0.2-2.3-0.8
			c-0.5-0.6-0.8-1.3-0.8-2.1c0-0.9,0.4-1.7,1.1-2.1c0.9-0.6,1.9-0.8,3-0.8h1.9v-0.9c0-0.5-0.2-1-0.5-1.3c-0.4-0.3-0.9-0.5-1.4-0.5
			c-0.5,0-1,0.1-1.4,0.4c-0.3,0.2-0.5,0.6-0.5,1h-1.7l0-0.1c0-0.8,0.4-1.5,1-1.9c0.8-0.6,1.7-0.9,2.7-0.9c0.9,0,1.9,0.2,2.6,0.8
			c0.7,0.6,1,1.5,1,2.4v4.6c0,0.3,0,0.7,0.1,1c0,0.3,0.1,0.6,0.2,0.9H54.6z M51.7,311.6c0.6,0,1.2-0.2,1.7-0.5
			c0.4-0.2,0.8-0.6,1-1.1v-1.5h-1.9c-0.6,0-1.2,0.2-1.7,0.5c-0.4,0.3-0.6,0.7-0.6,1.2c0,0.4,0.1,0.7,0.4,1
			C50.9,311.5,51.3,311.6,51.7,311.6z M66,309.3l0.3,1.2h0.1l2.3-7.2h1.9l-4,11c-0.2,0.6-0.6,1.2-1,1.7c-0.5,0.5-1.1,0.7-1.8,0.7
			c-0.2,0-0.4,0-0.5,0c-0.2,0-0.4-0.1-0.5-0.1l0.2-1.4c0.1,0,0.2,0,0.3,0c0.2,0,0.4,0,0.5,0c0.4,0,0.7-0.2,0.9-0.5
			c0.2-0.3,0.4-0.7,0.6-1.1l0.4-1l-3.5-9.3H64L66,309.3z M78.9,301v2.3h1.8v1.3h-1.8v5.8c0,0.3,0.1,0.7,0.3,0.9
			c0.2,0.2,0.5,0.3,0.7,0.3c0.1,0,0.2,0,0.3,0c0.1,0,0.2,0,0.3-0.1l0.2,1.2c-0.2,0.1-0.4,0.2-0.6,0.3c-0.2,0.1-0.5,0.1-0.8,0.1
			c-0.6,0-1.2-0.2-1.7-0.6c-0.5-0.6-0.7-1.3-0.6-2v-5.8h-1.5v-1.3h1.5V301H78.9z M87.4,304.9l-0.9-0.1c-0.4,0-0.8,0.1-1.2,0.3
			c-0.3,0.2-0.6,0.5-0.7,0.9v6.8h-1.7v-9.5h1.5l0.2,1.4c0.2-0.5,0.6-0.9,1-1.2c0.4-0.3,0.9-0.4,1.4-0.4c0.1,0,0.2,0,0.4,0
			c0.1,0,0.2,0,0.3,0.1L87.4,304.9z M94.9,312.8c-0.1-0.3-0.1-0.5-0.1-0.8c0-0.2-0.1-0.4-0.1-0.7c-0.3,0.5-0.8,0.9-1.3,1.1
			c-0.5,0.3-1.1,0.5-1.7,0.5c-0.8,0.1-1.6-0.2-2.3-0.8c-0.5-0.6-0.8-1.3-0.8-2.1c0-0.9,0.4-1.7,1.1-2.1c0.9-0.6,1.9-0.8,3-0.8h1.9
			v-0.9c0-0.5-0.2-1-0.5-1.3c-0.4-0.3-0.9-0.5-1.4-0.5c-0.5,0-1,0.1-1.4,0.4c-0.3,0.2-0.5,0.6-0.5,1h-1.7l0-0.1c0-0.8,0.4-1.5,1-1.9
			c0.8-0.6,1.7-0.9,2.7-0.9c0.9,0,1.9,0.2,2.6,0.8c0.7,0.6,1,1.5,1,2.4v4.6c0,0.3,0,0.7,0.1,1c0,0.3,0.1,0.6,0.2,0.9L94.9,312.8z
			 M92,311.6c0.6,0,1.2-0.2,1.7-0.5c0.4-0.2,0.8-0.6,1-1.1v-1.5h-1.9c-0.6,0-1.2,0.2-1.7,0.5c-0.4,0.3-0.6,0.7-0.6,1.2
			c0,0.4,0.1,0.7,0.4,1C91.2,311.5,91.6,311.6,92,311.6z M93.5,299.7h2l0,0.1l-2.4,2.3h-1.3L93.5,299.7z M99.7,312.8v-8.2h-1.5v-1.3
			h1.5v-1.2c-0.1-0.9,0.2-1.7,0.8-2.4c0.6-0.6,1.4-0.9,2.2-0.8c0.2,0,0.4,0,0.6,0c0.2,0,0.4,0.1,0.7,0.1l-0.2,1.3
			c-0.1,0-0.2,0-0.4-0.1c-0.2,0-0.3,0-0.5,0c-0.4,0-0.8,0.1-1.1,0.5c-0.3,0.4-0.4,0.8-0.4,1.3v1.2h2v1.3h-2v8.2H99.7z M107,312.8
			h-1.7v-9.5h1.7L107,312.8z M107,300.9h-1.7v-1.8h1.7L107,300.9z M113.6,311.7c0.6,0,1.1-0.2,1.5-0.5c0.4-0.3,0.7-0.8,0.7-1.3h1.6
			l0,0.1c0,0.9-0.4,1.7-1.1,2.2c-0.7,0.6-1.7,1-2.7,1c-1.2,0.1-2.4-0.4-3.2-1.4c-0.8-1-1.1-2.2-1.1-3.4v-0.4c0-1.2,0.3-2.4,1.1-3.4
			c1.6-1.7,4.1-1.8,5.9-0.4c0.7,0.6,1.1,1.5,1,2.4l0,0.1h-1.6c0-0.6-0.2-1.1-0.6-1.5c-0.4-0.4-1-0.6-1.6-0.6c-0.8-0.1-1.5,0.3-1.9,1
			c-0.4,0.7-0.6,1.6-0.6,2.4v0.4c0,0.8,0.2,1.7,0.6,2.4C112,311.4,112.8,311.7,113.6,311.7L113.6,311.7z M118.8,308
			c0-1.3,0.4-2.5,1.1-3.5c1.6-1.7,4.3-1.8,6-0.2c0.1,0.1,0.2,0.2,0.2,0.2c0.8,1,1.2,2.2,1.1,3.5v0.2c0.1,1.3-0.4,2.5-1.1,3.5
			c-1.6,1.7-4.3,1.8-6,0.2c-0.1-0.1-0.1-0.1-0.2-0.2c-0.8-1-1.2-2.2-1.1-3.5V308z M120.6,308.2c0,0.9,0.2,1.7,0.6,2.5
			c0.7,1,2.2,1.3,3.2,0.6c0.2-0.2,0.4-0.3,0.6-0.6c0.5-0.8,0.7-1.6,0.6-2.5V308c0-0.9-0.2-1.7-0.6-2.5c-0.4-0.6-1.1-1-1.9-1
			c-0.8,0-1.5,0.3-1.9,1c-0.4,0.7-0.7,1.6-0.6,2.5L120.6,308.2z M22.9,329.9c-0.1-1.3,0.3-2.6,1-3.7c0.6-0.9,1.6-1.4,2.7-1.4
			c0.5,0,1,0.1,1.5,0.3c0.4,0.2,0.8,0.5,1.1,0.9v-5.2H31v13.7h-1.4l-0.2-1.2c-0.3,0.4-0.7,0.8-1.1,1c-0.5,0.2-1,0.4-1.6,0.3
			c-1.1,0-2.1-0.4-2.7-1.3c-0.7-1-1-2.1-1-3.3L22.9,329.9z M24.7,330.1c0,0.8,0.2,1.6,0.6,2.3c0.4,0.6,1.1,0.9,1.8,0.9
			c0.5,0,0.9-0.1,1.3-0.4c0.4-0.3,0.7-0.6,0.9-1v-4.4c-0.2-0.4-0.5-0.7-0.9-0.9c-0.4-0.2-0.8-0.4-1.3-0.3c-0.8,0-1.5,0.4-1.8,1
			c-0.4,0.8-0.6,1.7-0.6,2.7L24.7,330.1z M37.5,334.6c-1.2,0.1-2.4-0.4-3.2-1.3c-0.8-1-1.2-2.2-1.2-3.4v-0.4c0-1.2,0.4-2.4,1.2-3.4
			c0.7-0.9,1.8-1.3,2.9-1.3c1.1-0.1,2.2,0.3,2.9,1.2c0.7,0.9,1,2,1,3.1v1.1H35l0,0c0,0.8,0.2,1.6,0.7,2.2c0.4,0.6,1.1,0.9,1.9,0.9
			c0.5,0,1-0.1,1.5-0.2c0.4-0.2,0.8-0.4,1.1-0.7l0.7,1.1c-0.4,0.4-0.8,0.7-1.3,0.8C38.9,334.5,38.2,334.6,37.5,334.6z M37.2,326.1
			c-0.6,0-1.1,0.3-1.5,0.7c-0.4,0.5-0.7,1.2-0.8,1.8l0,0h4.4v-0.2c0-0.6-0.2-1.2-0.5-1.7C38.4,326.3,37.8,326.1,37.2,326.1
			L37.2,326.1z M55.6,330.1c0.1,1.2-0.3,2.4-1,3.3c-0.6,0.8-1.7,1.3-2.7,1.3c-0.5,0-1.1-0.1-1.5-0.3c-0.4-0.2-0.8-0.5-1.1-0.9v4.6
			h-1.7v-13.2h1.3l0.3,1.2c0.3-0.4,0.7-0.8,1.2-1c0.5-0.2,1.1-0.4,1.6-0.4c1.1,0,2.1,0.5,2.7,1.4c0.7,1.1,1,2.4,1,3.7L55.6,330.1z
			 M53.9,329.9c0-0.9-0.2-1.8-0.6-2.7c-0.4-0.7-1.1-1.1-1.9-1c-0.4,0-0.9,0.1-1.3,0.3c-0.4,0.2-0.7,0.6-0.9,0.9v4.6
			c0.2,0.4,0.5,0.7,0.9,0.9c0.4,0.2,0.8,0.3,1.3,0.3c0.7,0,1.4-0.3,1.9-0.9c0.4-0.7,0.7-1.5,0.6-2.3L53.9,329.9z M61.7,334.6
			c-1.2,0.1-2.4-0.4-3.2-1.3c-0.8-1-1.2-2.2-1.2-3.4v-0.4c0-1.2,0.4-2.4,1.2-3.4c0.7-0.9,1.8-1.3,2.9-1.3c1.1-0.1,2.2,0.3,2.9,1.2
			c0.7,0.9,1,2,1,3.1v1.1h-6.2l0,0c0,0.8,0.2,1.6,0.7,2.2c0.4,0.6,1.1,0.9,1.9,0.9c0.5,0,1-0.1,1.5-0.2c0.4-0.2,0.8-0.4,1.1-0.7
			l0.7,1.1c-0.4,0.4-0.8,0.7-1.3,0.8C63.1,334.5,62.4,334.6,61.7,334.6L61.7,334.6z M61.4,326.1c-0.6,0-1.1,0.3-1.5,0.7
			c-0.4,0.5-0.7,1.2-0.8,1.8l0,0h4.4v-0.2c0-0.6-0.2-1.2-0.5-1.7C62.7,326.3,62.1,326.1,61.4,326.1L61.4,326.1z M71.8,326.5
			l-0.9-0.1c-0.4,0-0.8,0.1-1.2,0.3c-0.3,0.2-0.6,0.5-0.7,0.9v6.8h-1.7v-9.5h1.5l0.2,1.4c0.2-0.5,0.6-0.9,1-1.2
			c0.4-0.3,0.9-0.4,1.4-0.4c0.1,0,0.2,0,0.4,0c0.1,0,0.2,0,0.3,0.1L71.8,326.5z M79,331.9c0-0.4-0.2-0.7-0.4-0.9
			c-0.5-0.3-1.1-0.6-1.6-0.6c-0.9-0.2-1.8-0.5-2.6-1c-0.6-0.4-0.9-1.1-0.9-1.8c0-0.8,0.4-1.5,1-2c1.6-1.1,3.7-1.1,5.2,0
			c0.6,0.5,1,1.3,0.9,2.1l0,0.1h-1.6c0-0.4-0.2-0.8-0.5-1.1c-0.4-0.3-0.9-0.5-1.4-0.5c-0.5,0-1,0.1-1.4,0.4c-0.3,0.2-0.5,0.6-0.4,1
			c0,0.3,0.1,0.7,0.4,0.9c0.5,0.3,1,0.5,1.6,0.6c1,0.2,1.9,0.5,2.7,1.1c0.6,0.4,0.9,1.1,0.9,1.8c0,0.8-0.4,1.6-1,2.1
			c-0.8,0.6-1.7,0.8-2.7,0.8c-1,0.1-2.1-0.3-2.9-0.9c-0.7-0.5-1-1.3-1-2.2l0-0.1h1.7c0,0.5,0.2,1,0.7,1.3c0.4,0.3,1,0.4,1.5,0.4
			c0.5,0,1-0.1,1.4-0.4C78.8,332.7,79,332.3,79,331.9z M82.5,329.6c0-1.3,0.4-2.5,1.1-3.5c1.6-1.7,4.3-1.8,6-0.2
			c0.1,0.1,0.2,0.2,0.2,0.2c0.8,1,1.2,2.2,1.1,3.5v0.2c0.1,1.3-0.4,2.5-1.1,3.5c-1.6,1.7-4.3,1.8-6,0.2c-0.1-0.1-0.1-0.1-0.2-0.2
			c-0.8-1-1.2-2.2-1.1-3.5V329.6z M84.2,329.8c0,0.9,0.2,1.7,0.6,2.5c0.7,1,2.2,1.3,3.2,0.6c0.2-0.2,0.4-0.3,0.6-0.6
			c0.5-0.8,0.7-1.6,0.6-2.5v-0.2c0-0.9-0.2-1.7-0.6-2.5c-0.4-0.6-1.1-1-1.9-1c-0.8,0-1.5,0.3-1.9,1c-0.4,0.7-0.7,1.6-0.6,2.5
			L84.2,329.8z M94.6,324.9l0.1,1.4c0.3-0.5,0.7-0.9,1.2-1.2c0.5-0.3,1.1-0.4,1.6-0.4c0.9-0.1,1.8,0.3,2.4,0.9
			c0.6,0.8,0.9,1.8,0.8,2.8v6h-1.7v-6c0.1-0.6-0.1-1.3-0.5-1.8c-0.4-0.4-1-0.6-1.5-0.5c-0.5,0-0.9,0.1-1.3,0.4
			c-0.4,0.2-0.7,0.6-0.9,1v6.9h-1.7v-9.5H94.6z M109.2,334.4c-0.1-0.3-0.1-0.5-0.1-0.8c0-0.2-0.1-0.4-0.1-0.7
			c-0.3,0.5-0.8,0.9-1.3,1.1c-0.5,0.3-1.1,0.5-1.7,0.5c-0.8,0.1-1.6-0.2-2.3-0.8c-0.5-0.6-0.8-1.3-0.8-2.1c0-0.9,0.4-1.7,1.1-2.1
			c0.9-0.6,1.9-0.8,3-0.8h1.9v-0.9c0-0.5-0.2-1-0.5-1.3c-0.4-0.3-0.9-0.5-1.4-0.5c-0.5,0-1,0.1-1.4,0.4c-0.3,0.2-0.5,0.6-0.5,1h-1.7
			l0-0.1c0-0.8,0.4-1.5,1-1.9c0.8-0.6,1.7-0.9,2.7-0.9c0.9,0,1.9,0.2,2.6,0.8c0.7,0.6,1,1.5,1,2.4v4.6c0,0.3,0,0.7,0.1,1
			c0,0.3,0.1,0.6,0.2,0.9L109.2,334.4z M106.3,333.2c0.6,0,1.2-0.2,1.7-0.5c0.4-0.2,0.8-0.6,1-1.1V330H107c-0.6,0-1.2,0.2-1.7,0.5
			c-0.4,0.3-0.6,0.7-0.6,1.2c0,0.4,0.1,0.7,0.4,1C105.5,333.1,105.9,333.2,106.3,333.2z M118.8,331.9c0-0.4-0.2-0.7-0.4-0.9
			c-0.5-0.3-1.1-0.6-1.6-0.6c-0.9-0.2-1.8-0.5-2.6-1c-0.6-0.4-0.9-1.1-0.9-1.8c0-0.8,0.4-1.5,1-2c1.6-1.1,3.7-1.1,5.2,0
			c0.6,0.5,1,1.3,0.9,2.1l0,0.1h-1.7c0-0.4-0.2-0.8-0.5-1.1c-0.4-0.3-0.9-0.5-1.4-0.5c-0.5,0-1,0.1-1.4,0.4c-0.3,0.2-0.5,0.6-0.4,1
			c0,0.3,0.1,0.7,0.4,0.9c0.5,0.3,1,0.5,1.6,0.6c1,0.2,1.9,0.5,2.7,1.1c0.6,0.4,0.9,1.1,0.9,1.8c0,0.8-0.4,1.6-1,2.1
			c-0.8,0.6-1.7,0.8-2.7,0.8c-1,0.1-2.1-0.3-2.9-0.9c-0.7-0.5-1-1.3-1-2.2l0-0.1h1.7c0,0.5,0.2,1,0.7,1.3c0.4,0.3,1,0.4,1.5,0.4
			c0.5,0,1-0.1,1.4-0.4C118.6,332.7,118.8,332.3,118.8,331.9z"/>
		<path id="Trazado_115083" class="st0" d="M651.5,0h123.4c5.5,0,10,4.5,10,10v57.2c0,5.5-4.5,10-10,10H651.5c-5.5,0-10-4.5-10-10
			V10C641.5,4.5,645.9,0,651.5,0z"/>
		<path id="Trazado_115088" class="st1" d="M680.2,34.5h6.1v1.4h-7.8V23.1h1.7V34.5z M691.8,36c-1.2,0.1-2.4-0.4-3.2-1.3
			c-0.8-1-1.2-2.2-1.2-3.4v-0.4c0-1.2,0.4-2.4,1.2-3.4c0.7-0.9,1.8-1.3,2.9-1.3c1.1-0.1,2.2,0.3,2.9,1.2c0.7,0.9,1,2,1,3.1v1.1h-6.2
			l0,0c0,0.8,0.2,1.6,0.7,2.2c0.4,0.6,1.1,0.9,1.9,0.9c0.5,0,1-0.1,1.5-0.2c0.4-0.2,0.8-0.4,1.1-0.7l0.7,1.1
			c-0.4,0.4-0.8,0.7-1.3,0.8C693.2,35.9,692.5,36.1,691.8,36z M691.6,27.5c-0.6,0-1.1,0.3-1.5,0.7c-0.4,0.5-0.7,1.2-0.8,1.8l0,0h4.4
			v-0.2c0-0.6-0.2-1.2-0.5-1.7C692.8,27.7,692.2,27.5,691.6,27.5L691.6,27.5z M702.9,33.3c0-0.4-0.2-0.7-0.4-0.9
			c-0.5-0.3-1.1-0.6-1.6-0.6c-0.9-0.2-1.8-0.5-2.6-1c-0.6-0.4-0.9-1.1-0.9-1.8c0-0.8,0.4-1.5,1-2c1.6-1.1,3.7-1.1,5.2,0
			c0.6,0.5,1,1.3,0.9,2.1l0,0.1h-1.7c0-0.4-0.2-0.8-0.5-1.1c-0.4-0.3-0.9-0.5-1.4-0.5c-0.5,0-1,0.1-1.4,0.4c-0.3,0.2-0.5,0.6-0.4,1
			c0,0.3,0.1,0.7,0.4,0.9c0.5,0.3,1,0.5,1.6,0.6c1,0.2,1.9,0.5,2.7,1c0.6,0.4,0.9,1.1,0.9,1.8c0,0.8-0.4,1.6-1,2.1
			c-0.8,0.6-1.7,0.8-2.7,0.8c-1,0.1-2.1-0.3-2.9-0.9c-0.7-0.5-1-1.3-1-2.2l0-0.1h1.7c0,0.5,0.2,1,0.7,1.3c0.4,0.3,1,0.4,1.5,0.4
			c0.5,0,1-0.1,1.4-0.4C702.7,34.1,702.9,33.7,702.9,33.3L702.9,33.3z M708.7,35.9h-1.7v-9.5h1.7L708.7,35.9z M708.7,23.9h-1.7v-1.8
			h1.7L708.7,23.9z M710.9,31c0-1.3,0.4-2.5,1.1-3.5c1.6-1.7,4.3-1.8,6-0.2c0.1,0.1,0.2,0.2,0.2,0.2c0.8,1,1.2,2.2,1.1,3.5v0.2
			c0.1,1.3-0.4,2.5-1.1,3.5c-1.6,1.7-4.3,1.8-6,0.2c-0.1-0.1-0.1-0.1-0.2-0.2c-0.8-1-1.2-2.2-1.1-3.5V31z M712.7,31.2
			c0,0.9,0.2,1.7,0.6,2.5c0.7,1,2.2,1.3,3.2,0.6c0.2-0.2,0.4-0.3,0.6-0.6c0.5-0.8,0.7-1.6,0.6-2.5V31c0-0.9-0.2-1.7-0.6-2.5
			c-0.4-0.6-1.1-1-1.9-1c-0.8,0-1.5,0.3-1.9,1c-0.4,0.7-0.7,1.6-0.6,2.5L712.7,31.2z M723.1,26.3l0.1,1.4c0.3-0.5,0.7-0.9,1.2-1.2
			c0.5-0.3,1.1-0.4,1.6-0.4c0.9-0.1,1.8,0.3,2.4,0.9c0.6,0.8,0.9,1.8,0.8,2.8v6h-1.7v-6c0.1-0.6-0.1-1.3-0.5-1.8
			c-0.4-0.4-1-0.6-1.5-0.5c-0.5,0-0.9,0.1-1.3,0.4c-0.4,0.2-0.7,0.6-0.9,1v6.9h-1.7v-9.5H723.1z M735.7,36c-1.2,0.1-2.4-0.4-3.2-1.3
			c-0.8-1-1.2-2.2-1.2-3.4v-0.4c0-1.2,0.4-2.4,1.2-3.4c0.7-0.9,1.8-1.3,2.9-1.3c1.1-0.1,2.2,0.3,2.9,1.2c0.7,0.9,1,2,1,3.1v1.1h-6.2
			l0,0c0,0.8,0.2,1.6,0.7,2.2c0.4,0.6,1.1,0.9,1.9,0.9c0.5,0,1-0.1,1.5-0.2c0.4-0.2,0.8-0.4,1.1-0.7l0.7,1.1
			c-0.4,0.4-0.8,0.7-1.3,0.8C737.1,35.9,736.4,36.1,735.7,36z M735.5,27.5c-0.6,0-1.1,0.3-1.5,0.7c-0.4,0.5-0.7,1.2-0.8,1.8l0,0h4.4
			v-0.2c0-0.6-0.2-1.2-0.5-1.7C736.7,27.7,736.1,27.5,735.5,27.5L735.5,27.5z M746.8,33.3c0-0.4-0.2-0.7-0.4-0.9
			c-0.5-0.3-1.1-0.6-1.6-0.6c-0.9-0.2-1.8-0.5-2.6-1c-0.6-0.4-0.9-1.1-0.9-1.8c0-0.8,0.4-1.5,1-2c1.6-1.1,3.7-1.1,5.2,0
			c0.6,0.5,1,1.3,0.9,2.1l0,0.1h-1.7c0-0.4-0.2-0.8-0.5-1.1c-0.4-0.3-0.9-0.5-1.4-0.5c-0.5,0-1,0.1-1.4,0.4c-0.3,0.2-0.5,0.6-0.4,1
			c0,0.3,0.1,0.7,0.4,0.9c0.5,0.3,1,0.5,1.6,0.6c1,0.2,1.9,0.5,2.7,1.1c0.6,0.4,0.9,1.1,0.9,1.8c0,0.8-0.4,1.6-1,2.1
			c-0.8,0.6-1.7,0.8-2.7,0.8c-1,0.1-2.1-0.3-2.9-0.9c-0.7-0.5-1-1.3-1-2.2l0-0.1h1.7c0,0.5,0.2,1,0.7,1.3c0.4,0.3,1,0.4,1.5,0.4
			c0.5,0,1-0.1,1.4-0.4C746.7,34.1,746.8,33.7,746.8,33.3z M688.4,57.5v-8.2h-1.5v-1.3h1.5v-1.2c-0.1-0.9,0.2-1.7,0.8-2.4
			c0.6-0.6,1.4-0.9,2.2-0.8c0.2,0,0.4,0,0.6,0c0.2,0,0.4,0.1,0.7,0.1l-0.2,1.3c-0.1,0-0.2,0-0.4-0.1c-0.2,0-0.3,0-0.5,0
			c-0.4,0-0.8,0.1-1.1,0.5c-0.3,0.4-0.4,0.8-0.4,1.3v1.2h2v1.3h-2v8.2H688.4z M695.7,57.5H694v-9.5h1.7V57.5z M703.9,54.9
			c0-0.4-0.2-0.7-0.4-0.9c-0.5-0.3-1.1-0.6-1.6-0.6c-0.9-0.2-1.8-0.5-2.6-1c-0.6-0.4-0.9-1.1-0.9-1.8c0-0.8,0.4-1.5,1-2
			c1.6-1.1,3.7-1.1,5.2,0c0.6,0.5,1,1.3,0.9,2.1l0,0.1h-1.6c0-0.4-0.2-0.8-0.5-1.1c-0.4-0.3-0.9-0.5-1.4-0.5c-0.5,0-1,0.1-1.4,0.4
			c-0.3,0.2-0.5,0.6-0.4,1c0,0.3,0.1,0.7,0.4,0.9c0.5,0.3,1,0.5,1.6,0.6c1,0.2,1.9,0.5,2.7,1c0.6,0.4,0.9,1.1,0.9,1.8
			c0,0.8-0.4,1.6-1,2.1c-0.8,0.6-1.7,0.8-2.7,0.8c-1,0.1-2.1-0.3-2.9-0.9c-0.7-0.5-1-1.3-1-2.2l0-0.1h1.7c0,0.5,0.2,1,0.7,1.3
			c0.4,0.3,1,0.4,1.5,0.4c0.5,0,1-0.1,1.4-0.4C703.7,55.7,703.9,55.3,703.9,54.9L703.9,54.9z M709.7,57.5H708v-9.5h1.7V57.5z
			 M709.7,45.5H708v-1.8h1.7V45.5z M716.2,56.3c0.6,0,1.1-0.2,1.5-0.5c0.4-0.3,0.7-0.8,0.7-1.3h1.6l0,0.1c0,0.9-0.4,1.7-1.1,2.2
			c-0.7,0.6-1.7,1-2.7,1c-1.2,0.1-2.4-0.4-3.2-1.4c-0.8-1-1.1-2.2-1.1-3.4v-0.4c0-1.2,0.3-2.4,1.1-3.4c1.6-1.7,4.1-1.8,5.9-0.4
			c0.7,0.6,1.1,1.5,1,2.4l0,0.1h-1.6c0-0.6-0.2-1.1-0.6-1.5c-0.4-0.4-1-0.6-1.6-0.6c-0.8-0.1-1.5,0.3-1.9,1
			c-0.4,0.7-0.6,1.6-0.6,2.4v0.4c0,0.8,0.2,1.7,0.6,2.4C714.7,56,715.4,56.3,716.2,56.3L716.2,56.3z M727.8,57.5
			c-0.1-0.3-0.1-0.5-0.1-0.8c0-0.2-0.1-0.4-0.1-0.7c-0.3,0.5-0.8,0.9-1.3,1.1c-0.5,0.3-1.1,0.5-1.7,0.5c-0.8,0.1-1.6-0.2-2.3-0.8
			c-0.5-0.6-0.8-1.3-0.8-2.1c0-0.9,0.4-1.7,1.1-2.1c0.9-0.6,1.9-0.8,3-0.8h1.9v-0.9c0-0.5-0.2-1-0.5-1.3c-0.4-0.3-0.9-0.5-1.4-0.5
			c-0.5,0-1,0.1-1.4,0.4c-0.3,0.2-0.5,0.6-0.5,1h-1.7l0-0.1c0-0.8,0.4-1.5,1-1.9c0.8-0.6,1.7-0.9,2.7-0.9c0.9,0,1.9,0.2,2.6,0.8
			c0.7,0.6,1,1.5,1,2.4v4.6c0,0.3,0,0.7,0.1,1c0,0.3,0.1,0.6,0.2,0.9L727.8,57.5z M724.9,56.2c0.6,0,1.2-0.2,1.7-0.5
			c0.4-0.2,0.8-0.6,1-1.1v-1.5h-1.9c-0.6,0-1.2,0.2-1.7,0.5c-0.4,0.3-0.6,0.7-0.6,1.2c0,0.4,0.1,0.7,0.4,1
			C724,56.1,724.5,56.2,724.9,56.2z M737.3,54.9c0-0.4-0.2-0.7-0.4-0.9c-0.5-0.3-1.1-0.6-1.6-0.6c-0.9-0.2-1.8-0.5-2.6-1
			c-0.6-0.4-0.9-1.1-0.9-1.8c0-0.8,0.4-1.5,1-2c1.6-1.1,3.7-1.1,5.2,0c0.6,0.5,1,1.3,0.9,2.1l0,0.1h-1.7c0-0.4-0.2-0.8-0.5-1.1
			c-0.4-0.3-0.9-0.5-1.4-0.5c-0.5,0-1,0.1-1.4,0.4c-0.3,0.2-0.5,0.6-0.4,1c0,0.3,0.1,0.7,0.4,0.9c0.5,0.3,1,0.5,1.6,0.6
			c1,0.2,1.9,0.5,2.7,1c0.6,0.4,0.9,1.1,0.9,1.8c0,0.8-0.4,1.6-1,2.1c-0.8,0.6-1.7,0.8-2.7,0.8c-1,0.1-2.1-0.3-2.9-0.9
			c-0.7-0.5-1-1.3-1-2.2l0-0.1h1.7c0,0.5,0.2,1,0.7,1.3c0.4,0.3,1,0.4,1.5,0.4c0.5,0,1-0.1,1.4-0.4
			C737.1,55.7,737.3,55.3,737.3,54.9z"/>
		<path id="Trazado_115084" class="st0" d="M651.5,92.7h123.4c5.5,0,10,4.5,10,10v57.2c0,5.5-4.5,10-10,10H651.5
			c-5.5,0-10-4.5-10-10v-57.2C641.5,97.1,645.9,92.7,651.5,92.7z"/>
		<path id="Trazado_115089" class="st1" d="M670.5,121.6h-5.9v4.6h6.8v1.4h-8.5v-12.8h8.4v1.4h-6.7v4.1h5.9V121.6z M678.6,125
			c0-0.4-0.2-0.7-0.4-0.9c-0.5-0.3-1.1-0.6-1.6-0.6c-0.9-0.2-1.8-0.5-2.6-1c-0.6-0.4-0.9-1.1-0.9-1.8c0-0.8,0.4-1.5,1-2
			c0.7-0.6,1.6-0.9,2.6-0.8c1-0.1,1.9,0.3,2.6,0.9c0.6,0.5,1,1.3,0.9,2.1l0,0.1h-1.7c0-0.4-0.2-0.8-0.5-1.1
			c-0.4-0.3-0.9-0.5-1.4-0.5c-0.5,0-1,0.1-1.4,0.4c-0.3,0.2-0.5,0.6-0.4,1c0,0.3,0.1,0.7,0.4,0.9c0.5,0.3,1,0.5,1.6,0.6
			c1,0.2,1.9,0.5,2.7,1.1c0.6,0.4,0.9,1.1,0.9,1.8c0,0.8-0.4,1.6-1,2.1c-0.8,0.6-1.7,0.8-2.7,0.8c-1,0.1-2.1-0.3-2.9-0.9
			c-0.7-0.5-1-1.3-1-2.2l0-0.1h1.7c0,0.5,0.2,1,0.7,1.3c0.4,0.3,1,0.4,1.5,0.4c0.5,0,1-0.1,1.4-0.4
			C678.4,125.7,678.6,125.4,678.6,125L678.6,125z M684.8,115.7v2.3h1.8v1.3h-1.8v5.8c0,0.3,0.1,0.7,0.3,0.9c0.2,0.2,0.5,0.3,0.7,0.3
			c0.1,0,0.2,0,0.3,0c0.1,0,0.2,0,0.3-0.1l0.2,1.2c-0.2,0.1-0.4,0.2-0.6,0.3c-0.2,0.1-0.5,0.1-0.8,0.1c-0.6,0-1.2-0.2-1.7-0.6
			c-0.5-0.6-0.7-1.3-0.6-2v-5.8h-1.5V118h1.5v-2.3H684.8z M693.2,119.5l-0.9-0.1c-0.4,0-0.8,0.1-1.2,0.3c-0.3,0.2-0.6,0.5-0.7,0.9
			v6.8h-1.7V118h1.5l0.2,1.4c0.2-0.5,0.6-0.9,1-1.2c0.4-0.3,0.9-0.4,1.4-0.4c0.1,0,0.2,0,0.4,0c0.1,0,0.2,0,0.3,0.1L693.2,119.5z
			 M698.7,127.7c-1.2,0.1-2.4-0.4-3.2-1.3c-0.8-1-1.2-2.2-1.2-3.4v-0.4c0-1.2,0.4-2.4,1.2-3.4c0.7-0.9,1.8-1.3,2.9-1.3
			c1.1-0.1,2.2,0.3,2.9,1.2c0.7,0.9,1,2,1,3.1v1.1h-6.2l0,0c0,0.8,0.2,1.6,0.7,2.2c0.4,0.6,1.1,0.9,1.9,0.9c0.5,0,1-0.1,1.5-0.2
			c0.4-0.2,0.8-0.4,1.1-0.7l0.7,1.1c-0.4,0.4-0.8,0.7-1.3,0.8C700,127.6,699.3,127.7,698.7,127.7L698.7,127.7z M698.4,119.2
			c-0.6,0-1.1,0.3-1.5,0.7c-0.4,0.5-0.7,1.2-0.8,1.8l0,0h4.4v-0.2c0-0.6-0.2-1.2-0.5-1.7C699.6,119.4,699,119.1,698.4,119.2
			L698.4,119.2z M699.2,114.3h2l0,0.1l-2.4,2.3h-1.3L699.2,114.3z M709.8,125c0-0.4-0.2-0.7-0.4-0.9c-0.5-0.3-1.1-0.6-1.6-0.6
			c-0.9-0.2-1.8-0.5-2.6-1c-0.6-0.4-0.9-1.1-0.9-1.8c0-0.8,0.4-1.5,1-2c1.6-1.1,3.7-1.1,5.2,0c0.6,0.5,1,1.3,0.9,2.1l0,0.1h-1.7
			c0-0.4-0.2-0.8-0.5-1.1c-0.4-0.3-0.9-0.5-1.4-0.5c-0.5,0-1,0.1-1.4,0.4c-0.3,0.2-0.5,0.6-0.4,1c0,0.3,0.1,0.7,0.4,0.9
			c0.5,0.3,1,0.5,1.6,0.6c1,0.2,1.9,0.5,2.7,1c0.6,0.4,0.9,1.1,0.9,1.8c0,0.8-0.4,1.6-1,2.1c-0.8,0.6-1.7,0.8-2.7,0.8
			c-1,0.1-2.1-0.3-2.9-0.9c-0.7-0.5-1-1.3-1-2.2l0-0.1h1.7c0,0.5,0.2,1,0.7,1.3c0.4,0.3,1,0.4,1.5,0.4c0.5,0,1-0.1,1.4-0.4
			C709.6,125.7,709.8,125.4,709.8,125z M721,124l0.3,1.2h0.1l2.3-7.2h1.9l-4,11c-0.2,0.6-0.6,1.2-1,1.7c-0.5,0.5-1.1,0.7-1.8,0.7
			c-0.2,0-0.4,0-0.5,0c-0.2,0-0.4-0.1-0.5-0.1l0.2-1.4c0.1,0,0.2,0,0.3,0c0.2,0,0.4,0,0.5,0c0.4,0,0.7-0.2,0.9-0.5
			c0.2-0.3,0.4-0.7,0.6-1.1l0.4-1l-3.5-9.3h1.9L721,124z M739.8,123.1c0.1,1.2-0.3,2.4-1,3.3c-0.6,0.8-1.7,1.3-2.7,1.3
			c-0.6,0-1.1-0.1-1.6-0.4c-0.5-0.3-0.9-0.6-1.2-1.1l-0.2,1.3h-1.4v-13.7h1.7v5.3c0.3-0.4,0.7-0.7,1.1-1c0.5-0.2,1-0.3,1.6-0.3
			c1.1,0,2.1,0.5,2.7,1.4c0.7,1.1,1,2.4,1,3.7L739.8,123.1z M738,122.9c0-0.9-0.2-1.8-0.6-2.7c-0.4-0.7-1.1-1.1-1.8-1
			c-0.5,0-1,0.1-1.3,0.4c-0.4,0.3-0.7,0.6-0.9,1.1v4.1c0.2,0.4,0.5,0.8,0.9,1.1c0.4,0.3,0.9,0.4,1.4,0.4c0.7,0,1.4-0.3,1.8-0.9
			c0.4-0.7,0.6-1.5,0.6-2.3L738,122.9z M747.7,127.5c-0.1-0.3-0.1-0.5-0.1-0.8c0-0.2-0.1-0.4-0.1-0.7c-0.3,0.5-0.8,0.9-1.3,1.1
			c-0.5,0.3-1.1,0.5-1.7,0.5c-0.8,0.1-1.6-0.2-2.3-0.8c-0.5-0.6-0.8-1.3-0.8-2.1c0-0.9,0.4-1.7,1.1-2.1c0.9-0.6,1.9-0.8,3-0.8h1.9
			V121c0-0.5-0.2-1-0.5-1.3c-0.4-0.3-0.9-0.5-1.4-0.5c-0.5,0-1,0.1-1.4,0.4c-0.3,0.2-0.5,0.6-0.5,1H742l0-0.1c0-0.8,0.4-1.5,1-1.9
			c0.8-0.6,1.7-0.9,2.7-0.9c0.9,0,1.9,0.2,2.6,0.8c0.7,0.6,1,1.5,1,2.4v4.6c0,0.3,0,0.7,0.1,1c0,0.3,0.1,0.6,0.2,0.9L747.7,127.5z
			 M744.8,126.2c0.6,0,1.2-0.2,1.7-0.5c0.4-0.2,0.8-0.6,1-1.1v-1.5h-1.9c-0.6,0-1.2,0.2-1.7,0.5c-0.4,0.3-0.6,0.7-0.6,1.2
			c0,0.4,0.1,0.7,0.4,1C744,126.1,744.4,126.3,744.8,126.2z M753.8,118v10.3c0.1,0.8-0.2,1.6-0.8,2.3c-0.6,0.6-1.3,0.8-2.1,0.8
			c-0.2,0-0.3,0-0.5,0c-0.2,0-0.3-0.1-0.5-0.1l0.1-1.4c0.1,0,0.2,0.1,0.4,0.1c0.1,0,0.3,0,0.4,0c0.3,0,0.7-0.1,0.9-0.4
			c0.3-0.4,0.4-0.8,0.3-1.3V118H753.8z M753.7,115.5H752v-1.7h1.7V115.5z M762.3,127.5c-0.1-0.3-0.1-0.5-0.1-0.8
			c0-0.2-0.1-0.4-0.1-0.7c-0.3,0.5-0.8,0.9-1.3,1.1c-0.5,0.3-1.1,0.5-1.7,0.5c-0.8,0.1-1.6-0.2-2.3-0.8c-0.5-0.6-0.8-1.3-0.8-2.1
			c0-0.9,0.4-1.7,1.1-2.1c0.9-0.6,1.9-0.8,3-0.8h1.9V121c0-0.5-0.2-1-0.5-1.3c-0.4-0.3-0.9-0.5-1.4-0.5c-0.5,0-1,0.1-1.4,0.4
			c-0.3,0.2-0.5,0.6-0.5,1h-1.7l0-0.1c0-0.8,0.4-1.5,1-1.9c0.8-0.6,1.7-0.9,2.7-0.9c0.9,0,1.9,0.2,2.6,0.8c0.7,0.6,1,1.5,1,2.4v4.6
			c0,0.3,0,0.7,0.1,1c0,0.3,0.1,0.6,0.2,0.9L762.3,127.5z M759.4,126.2c0.6,0,1.2-0.2,1.7-0.5c0.4-0.2,0.8-0.6,1-1.1v-1.5h-1.9
			c-0.6,0-1.2,0.2-1.7,0.5c-0.4,0.3-0.6,0.7-0.6,1.2c0,0.4,0.1,0.7,0.4,1C758.6,126.1,759,126.3,759.4,126.2z M674.3,149.1
			c-0.1-0.3-0.1-0.5-0.1-0.8c0-0.2-0.1-0.4-0.1-0.7c-0.3,0.5-0.8,0.9-1.3,1.1c-0.5,0.3-1.1,0.5-1.7,0.5c-0.8,0.1-1.6-0.2-2.3-0.8
			c-0.5-0.6-0.8-1.3-0.8-2.1c0-0.9,0.4-1.7,1.1-2.1c0.9-0.6,1.9-0.8,3-0.8h1.9v-0.9c0-0.5-0.2-1-0.5-1.3c-0.4-0.3-0.9-0.5-1.4-0.5
			c-0.5,0-1,0.1-1.4,0.4c-0.3,0.2-0.5,0.6-0.5,1h-1.7l0-0.1c0-0.8,0.4-1.5,1-1.9c0.8-0.6,1.7-0.9,2.7-0.9c0.9,0,1.9,0.2,2.6,0.8
			c0.7,0.6,1,1.5,1,2.4v4.6c0,0.3,0,0.7,0.1,1c0,0.3,0.1,0.6,0.2,0.9L674.3,149.1z M671.5,147.8c0.6,0,1.2-0.2,1.7-0.5
			c0.4-0.2,0.8-0.6,1-1.1v-1.5h-1.9c-0.6,0-1.2,0.2-1.7,0.5c-0.4,0.3-0.6,0.7-0.6,1.2c0,0.4,0.1,0.7,0.4,1
			C670.6,147.7,671,147.9,671.5,147.8z M684.4,147.7c-0.3,0.5-0.7,0.9-1.2,1.2c-0.5,0.3-1.1,0.4-1.6,0.4c-0.9,0.1-1.8-0.3-2.4-1
			c-0.7-0.9-1-2-0.9-3.1v-5.6h1.7v5.6c-0.1,0.7,0.1,1.5,0.4,2.1c0.3,0.4,0.9,0.6,1.4,0.6c0.5,0,1.1-0.1,1.5-0.4
			c0.4-0.3,0.7-0.6,0.9-1.1v-6.9h1.7v9.5h-1.6L684.4,147.7z M690.9,137.3v2.3h1.8v1.3h-1.8v5.8c0,0.3,0.1,0.7,0.3,0.9
			c0.2,0.2,0.5,0.3,0.7,0.3c0.1,0,0.2,0,0.3,0c0.1,0,0.2,0,0.3-0.1l0.2,1.2c-0.2,0.1-0.4,0.2-0.6,0.3c-0.2,0.1-0.5,0.1-0.8,0.1
			c-0.6,0-1.2-0.2-1.7-0.6c-0.5-0.6-0.7-1.3-0.6-2v-5.8h-1.5v-1.3h1.5v-2.3L690.9,137.3z M694.4,144.3c0-1.3,0.4-2.5,1.1-3.5
			c1.6-1.7,4.3-1.8,6-0.2c0.1,0.1,0.2,0.2,0.2,0.2c0.8,1,1.2,2.2,1.1,3.5v0.2c0.1,1.3-0.4,2.5-1.1,3.5c-1.6,1.7-4.3,1.8-6,0.2
			c-0.1-0.1-0.1-0.1-0.2-0.2c-0.8-1-1.2-2.2-1.1-3.5V144.3z M696.2,144.5c0,0.9,0.2,1.7,0.6,2.5c0.7,1,2.2,1.3,3.2,0.6
			c0.2-0.2,0.4-0.3,0.6-0.6c0.5-0.8,0.7-1.6,0.6-2.5v-0.2c0-0.9-0.2-1.7-0.6-2.5c-0.4-0.6-1.1-1-1.9-1c-0.8,0-1.5,0.3-1.9,1
			c-0.4,0.7-0.7,1.6-0.6,2.5L696.2,144.5z M709,149.3c-1.2,0.1-2.4-0.4-3.2-1.3c-0.8-1-1.2-2.2-1.2-3.4v-0.4c0-1.2,0.4-2.4,1.2-3.4
			c0.7-0.9,1.8-1.3,2.9-1.3c1.1-0.1,2.2,0.3,2.9,1.2c0.7,0.9,1,2,1,3.1v1.1h-6.2l0,0c0,0.8,0.2,1.6,0.7,2.2c0.4,0.6,1.1,0.9,1.9,0.9
			c0.5,0,1-0.1,1.5-0.2c0.4-0.2,0.8-0.4,1.1-0.7l0.7,1.1c-0.4,0.4-0.8,0.7-1.3,0.8C710.4,149.2,709.7,149.3,709,149.3L709,149.3z
			 M708.8,140.8c-0.6,0-1.1,0.3-1.5,0.7c-0.4,0.5-0.7,1.2-0.8,1.8l0,0h4.4v-0.2c0-0.6-0.2-1.2-0.5-1.7
			C710,141,709.4,140.7,708.8,140.8L708.8,140.8z M720.1,146.6c0-0.4-0.2-0.7-0.4-0.9c-0.5-0.3-1.1-0.6-1.6-0.6
			c-0.9-0.2-1.8-0.5-2.6-1c-0.6-0.4-0.9-1.1-0.9-1.8c0-0.8,0.4-1.5,1-2c1.6-1.1,3.7-1.1,5.2,0c0.6,0.5,1,1.3,0.9,2.1l0,0.1H720
			c0-0.4-0.2-0.8-0.5-1.1c-0.4-0.3-0.9-0.5-1.4-0.5c-0.5,0-1,0.1-1.4,0.4c-0.3,0.2-0.5,0.6-0.4,1c0,0.3,0.1,0.7,0.4,0.9
			c0.5,0.3,1,0.5,1.6,0.6c1,0.2,1.9,0.5,2.7,1.1c0.6,0.4,0.9,1.1,0.9,1.8c0,0.8-0.4,1.6-1,2.1c-0.8,0.6-1.7,0.8-2.7,0.8
			c-1,0.1-2.1-0.3-2.9-0.9c-0.7-0.5-1-1.3-1-2.2l0-0.1h1.7c0,0.5,0.2,1,0.7,1.3c0.4,0.3,1,0.4,1.5,0.4c0.5,0,1-0.1,1.4-0.4
			C719.9,147.3,720.1,147,720.1,146.6L720.1,146.6z M726.3,137.3v2.3h1.8v1.3h-1.8v5.8c0,0.3,0.1,0.7,0.3,0.9
			c0.2,0.2,0.5,0.3,0.7,0.3c0.1,0,0.2,0,0.3,0c0.1,0,0.2,0,0.3-0.1l0.2,1.2c-0.2,0.1-0.4,0.2-0.6,0.3c-0.2,0.1-0.5,0.1-0.8,0.1
			c-0.6,0-1.2-0.2-1.7-0.6c-0.5-0.6-0.7-1.3-0.6-2v-5.8H723v-1.3h1.5v-2.3L726.3,137.3z M732.1,149.1h-1.7v-9.5h1.7L732.1,149.1z
			 M732.1,137.2h-1.7v-1.8h1.7L732.1,137.2z M736.3,139.6l0.1,1.2c0.3-0.4,0.7-0.8,1.2-1.1c0.5-0.3,1.1-0.4,1.7-0.4
			c0.6,0,1.1,0.1,1.6,0.4c0.5,0.3,0.8,0.8,1,1.3c0.3-0.5,0.7-1,1.2-1.3c0.5-0.3,1.1-0.5,1.7-0.5c0.9,0,1.7,0.3,2.3,1
			c0.6,0.9,0.9,1.9,0.8,3v5.7h-1.7v-5.7c0.1-0.7-0.1-1.4-0.5-2c-0.4-0.4-0.9-0.6-1.4-0.6c-0.5,0-1.1,0.2-1.4,0.6
			c-0.4,0.4-0.6,1-0.6,1.6v6.1h-1.7v-5.7c0.1-0.7-0.1-1.4-0.5-2c-0.4-0.4-0.9-0.7-1.4-0.6c-0.5,0-0.9,0.1-1.3,0.3
			c-0.3,0.2-0.6,0.5-0.8,0.9v7h-1.7v-9.5L736.3,139.6z M756.3,149.1c-0.1-0.3-0.1-0.5-0.1-0.8c0-0.2-0.1-0.4-0.1-0.7
			c-0.3,0.5-0.8,0.9-1.3,1.1c-0.5,0.3-1.1,0.5-1.7,0.5c-0.8,0.1-1.6-0.2-2.3-0.8c-0.5-0.6-0.8-1.3-0.8-2.1c0-0.9,0.4-1.7,1.1-2.1
			c0.9-0.6,1.9-0.8,3-0.8h1.9v-0.9c0-0.5-0.2-1-0.5-1.3c-0.4-0.3-0.9-0.5-1.4-0.5c-0.5,0-1,0.1-1.4,0.4c-0.3,0.2-0.5,0.6-0.5,1h-1.7
			l0-0.1c0-0.8,0.4-1.5,1-1.9c0.8-0.6,1.7-0.9,2.7-0.9c0.9,0,1.9,0.2,2.6,0.8c0.7,0.6,1,1.5,1,2.4v4.6c0,0.3,0,0.7,0.1,1
			c0,0.3,0.1,0.6,0.2,0.9L756.3,149.1z M753.5,147.8c0.6,0,1.2-0.2,1.7-0.5c0.4-0.2,0.8-0.6,1-1.1v-1.5h-1.9c-0.6,0-1.2,0.2-1.7,0.5
			c-0.4,0.3-0.6,0.7-0.6,1.2c0,0.4,0.1,0.7,0.4,1C752.6,147.7,753,147.9,753.5,147.8L753.5,147.8z"/>
		<path id="Trazado_115079" class="st0" d="M294.7,137.2h195.4c5.5,0,10,4.5,10,10v57.2c0,5.5-4.5,10-10,10H294.7
			c-5.5,0-10-4.5-10-10v-57.2C284.7,141.7,289.2,137.2,294.7,137.2z"/>
		<path id="Trazado_115080" class="st1" d="M329.4,159.9h-4.1v11.4h-1.7v-11.4h-4.1v-1.4h9.9L329.4,159.9z M334.9,163.4l-0.9-0.1
			c-0.4,0-0.8,0.1-1.2,0.3c-0.3,0.2-0.6,0.5-0.7,0.9v6.8h-1.7v-9.5h1.5l0.2,1.4c0.2-0.5,0.6-0.9,1-1.2c0.4-0.3,0.9-0.4,1.4-0.4
			c0.1,0,0.2,0,0.4,0c0.1,0,0.2,0,0.3,0.1L334.9,163.4z M342.4,171.4c-0.1-0.3-0.1-0.5-0.1-0.8c0-0.2-0.1-0.4-0.1-0.7
			c-0.3,0.5-0.8,0.9-1.3,1.1c-0.5,0.3-1.1,0.5-1.7,0.5c-0.8,0.1-1.6-0.2-2.3-0.8c-0.5-0.6-0.8-1.3-0.8-2.1c0-0.9,0.4-1.7,1.1-2.1
			c0.9-0.6,1.9-0.8,3-0.8h1.9v-0.9c0-0.5-0.2-1-0.5-1.3c-0.4-0.3-0.9-0.5-1.4-0.5c-0.5,0-1,0.1-1.4,0.4c-0.3,0.2-0.5,0.6-0.5,1h-1.7
			l0-0.1c0-0.8,0.4-1.5,1-1.9c0.8-0.6,1.7-0.9,2.7-0.9c0.9,0,1.9,0.2,2.6,0.8c0.7,0.6,1,1.5,1,2.4v4.6c0,0.3,0,0.7,0.1,1
			c0,0.3,0.1,0.6,0.2,0.9L342.4,171.4z M339.5,170.1c0.6,0,1.2-0.2,1.7-0.5c0.4-0.2,0.8-0.6,1-1.1V167h-1.9c-0.6,0-1.2,0.2-1.7,0.5
			c-0.4,0.3-0.6,0.7-0.6,1.2c0,0.4,0.1,0.7,0.4,1C338.7,170,339.1,170.1,339.5,170.1z M354.6,167c0.1,1.2-0.3,2.4-1,3.3
			c-0.6,0.8-1.7,1.3-2.7,1.3c-0.6,0-1.1-0.1-1.6-0.4c-0.5-0.3-0.9-0.6-1.2-1.1l-0.2,1.3h-1.4v-13.7h1.7v5.3c0.3-0.4,0.7-0.7,1.1-1
			c0.5-0.2,1-0.3,1.6-0.3c1.1,0,2.1,0.5,2.7,1.4c0.7,1.1,1,2.4,1,3.7L354.6,167z M352.9,166.8c0-0.9-0.2-1.8-0.6-2.7
			c-0.4-0.7-1.1-1.1-1.8-1c-0.5,0-1,0.1-1.3,0.4c-0.4,0.3-0.7,0.6-0.9,1.1v4.1c0.2,0.4,0.5,0.8,0.9,1.1c0.4,0.3,0.9,0.4,1.4,0.4
			c0.7,0,1.4-0.3,1.8-0.9c0.4-0.7,0.6-1.5,0.6-2.3L352.9,166.8z M362.5,171.4c-0.1-0.3-0.1-0.5-0.1-0.8c0-0.2-0.1-0.4-0.1-0.7
			c-0.3,0.5-0.8,0.9-1.3,1.1c-0.5,0.3-1.1,0.5-1.7,0.5c-0.8,0.1-1.6-0.2-2.3-0.8c-0.5-0.6-0.8-1.3-0.8-2.1c0-0.9,0.4-1.7,1.1-2.1
			c0.9-0.6,1.9-0.8,3-0.8h1.9v-0.9c0-0.5-0.2-1-0.5-1.3c-0.4-0.3-0.9-0.5-1.4-0.5c-0.5,0-1,0.1-1.4,0.4c-0.3,0.2-0.5,0.6-0.5,1h-1.7
			l0-0.1c0-0.8,0.4-1.5,1-1.9c0.8-0.6,1.7-0.9,2.7-0.9c0.9,0,1.9,0.2,2.6,0.8c0.7,0.6,1,1.5,1,2.4v4.6c0,0.3,0,0.7,0.1,1
			c0,0.3,0.1,0.6,0.2,0.9H362.5z M359.7,170.1c0.6,0,1.2-0.2,1.7-0.5c0.4-0.2,0.8-0.6,1-1.1V167h-1.9c-0.6,0-1.2,0.2-1.7,0.5
			c-0.4,0.3-0.6,0.7-0.6,1.2c0,0.4,0.1,0.7,0.4,1C358.8,170,359.2,170.1,359.7,170.1L359.7,170.1z M368.6,161.9v10.3
			c0.1,0.8-0.2,1.6-0.8,2.3c-0.6,0.6-1.3,0.8-2.1,0.8c-0.2,0-0.3,0-0.5,0c-0.2,0-0.3-0.1-0.5-0.1l0.1-1.4c0.1,0,0.2,0.1,0.4,0.1
			c0.1,0,0.3,0,0.4,0c0.3,0,0.7-0.1,0.9-0.4c0.3-0.4,0.4-0.8,0.3-1.3v-10.3H368.6z M368.5,159.4h-1.7v-1.7h1.7V159.4z M370.8,166.5
			c0-1.3,0.4-2.5,1.1-3.5c1.6-1.7,4.3-1.8,6-0.2c0.1,0.1,0.2,0.2,0.2,0.2c0.8,1,1.2,2.2,1.1,3.5v0.2c0.1,1.3-0.4,2.5-1.1,3.5
			c-1.6,1.7-4.3,1.8-6,0.2c-0.1-0.1-0.1-0.1-0.2-0.2c-0.8-1-1.2-2.2-1.1-3.5V166.5z M372.6,166.7c0,0.9,0.2,1.7,0.6,2.5
			c0.7,1,2.2,1.3,3.2,0.6c0.2-0.2,0.4-0.3,0.6-0.6c0.5-0.8,0.7-1.6,0.6-2.5v-0.2c0-0.9-0.2-1.7-0.6-2.5c-0.4-0.6-1.1-1-1.9-1
			c-0.8,0-1.5,0.3-1.9,1c-0.4,0.7-0.7,1.6-0.6,2.5L372.6,166.7z M388.1,171.4h-1.7v-12.8h1.7V171.4z M392.6,161.9l0.1,1.4
			c0.3-0.5,0.7-0.9,1.2-1.2c0.5-0.3,1.1-0.4,1.6-0.4c0.9-0.1,1.8,0.3,2.4,0.9c0.6,0.8,0.9,1.8,0.8,2.8v6H397v-6
			c0.1-0.6-0.1-1.3-0.5-1.8c-0.4-0.4-1-0.6-1.5-0.5c-0.5,0-0.9,0.1-1.3,0.4c-0.4,0.2-0.7,0.6-0.9,1v6.9H391v-9.5H392.6z M402,171.4
			v-8.2h-1.5v-1.3h1.5v-1.2c-0.1-0.9,0.2-1.7,0.8-2.4c0.6-0.6,1.4-0.9,2.2-0.8c0.2,0,0.4,0,0.6,0c0.2,0,0.4,0.1,0.7,0.1l-0.2,1.3
			c-0.1,0-0.2,0-0.4-0.1c-0.2,0-0.3,0-0.5,0c-0.4,0-0.8,0.1-1.1,0.5c-0.3,0.4-0.4,0.8-0.4,1.3v1.2h2v1.3h-2v8.2H402z M413.3,171.4
			c-0.1-0.3-0.1-0.5-0.1-0.8c0-0.2-0.1-0.4-0.1-0.7c-0.3,0.5-0.8,0.9-1.3,1.1c-0.5,0.3-1.1,0.5-1.7,0.5c-0.8,0.1-1.6-0.2-2.3-0.8
			c-0.5-0.6-0.8-1.3-0.8-2.1c0-0.9,0.4-1.7,1.1-2.1c0.9-0.6,1.9-0.8,3-0.8h1.9v-0.9c0-0.5-0.2-1-0.5-1.3c-0.4-0.3-0.9-0.5-1.4-0.5
			c-0.5,0-1,0.1-1.4,0.4c-0.3,0.2-0.5,0.6-0.5,1h-1.6l0-0.1c0-0.8,0.4-1.5,1-1.9c0.8-0.6,1.7-0.9,2.7-0.9c0.9,0,1.9,0.2,2.6,0.8
			c0.7,0.6,1,1.5,1,2.4v4.6c0,0.3,0,0.7,0.1,1c0,0.3,0.1,0.6,0.2,0.9H413.3z M410.5,170.1c0.6,0,1.2-0.2,1.7-0.5
			c0.4-0.2,0.8-0.6,1-1.1V167h-1.9c-0.6,0-1.2,0.2-1.7,0.5c-0.4,0.3-0.6,0.7-0.6,1.2c0,0.4,0.1,0.7,0.4,1
			C409.6,170,410,170.1,410.5,170.1L410.5,170.1z M418.9,161.9l0.1,1.4c0.3-0.5,0.7-0.9,1.2-1.2c0.5-0.3,1.1-0.4,1.6-0.4
			c0.9-0.1,1.8,0.3,2.4,0.9c0.6,0.8,0.9,1.8,0.8,2.8v6h-1.7v-6c0.1-0.6-0.1-1.3-0.5-1.8c-0.4-0.4-1-0.6-1.5-0.5
			c-0.5,0-0.9,0.1-1.3,0.4c-0.4,0.2-0.7,0.6-0.9,1v6.9h-1.7v-9.5L418.9,161.9z M429.9,159.6v2.3h1.8v1.3h-1.8v5.8
			c0,0.3,0.1,0.7,0.3,0.9c0.2,0.2,0.5,0.3,0.7,0.3c0.1,0,0.2,0,0.3,0c0.1,0,0.2,0,0.3-0.1l0.2,1.2c-0.2,0.1-0.4,0.2-0.6,0.3
			c-0.2,0.1-0.5,0.1-0.8,0.1c-0.6,0-1.2-0.2-1.7-0.6c-0.5-0.6-0.7-1.3-0.6-2v-5.8h-1.5v-1.3h1.5v-2.3H429.9z M435.7,171.4H434v-9.5
			h1.7V171.4z M435.7,159.4H434v-1.8h1.7V159.4z M440.2,171.4h-1.7v-13.7h1.7V171.4z M451.3,171.6c-1.2,0.1-2.4-0.4-3.2-1.3
			c-0.8-1-1.2-2.2-1.2-3.4v-0.4c0-1.2,0.4-2.4,1.2-3.4c0.7-0.9,1.8-1.3,2.9-1.3c1.1-0.1,2.2,0.3,2.9,1.2c0.7,0.9,1,2,1,3.1v1.1h-6.2
			l0,0c0,0.8,0.2,1.6,0.7,2.2c0.4,0.6,1.1,0.9,1.9,0.9c0.5,0,1-0.1,1.5-0.2c0.4-0.2,0.8-0.4,1.1-0.7l0.7,1.1
			c-0.4,0.4-0.8,0.7-1.3,0.8C452.7,171.5,452,171.6,451.3,171.6L451.3,171.6z M451.1,163.1c-0.6,0-1.1,0.3-1.5,0.7
			c-0.4,0.5-0.7,1.2-0.8,1.8l0,0h4.4v-0.2c0-0.6-0.2-1.2-0.5-1.7C452.3,163.3,451.7,163,451.1,163.1z M458.4,161.9l0.1,1.4
			c0.3-0.5,0.7-0.9,1.2-1.2c0.5-0.3,1.1-0.4,1.6-0.4c0.9-0.1,1.8,0.3,2.4,0.9c0.6,0.8,0.9,1.8,0.8,2.8v6h-1.7v-6
			c0.1-0.6-0.1-1.3-0.5-1.8c-0.4-0.4-1-0.6-1.5-0.5c-0.5,0-0.9,0.1-1.3,0.4c-0.4,0.2-0.7,0.6-0.9,1v6.9h-1.7v-9.5H458.4z M324,190.4
			c0-0.4-0.2-0.7-0.4-0.9c-0.5-0.3-1.1-0.6-1.6-0.6c-0.9-0.2-1.8-0.5-2.6-1c-0.6-0.4-0.9-1.1-0.9-1.8c0-0.8,0.4-1.5,1-2
			c0.7-0.6,1.6-0.9,2.6-0.8c1-0.1,1.9,0.3,2.6,0.9c0.6,0.5,1,1.3,0.9,2.1l0,0.1h-1.7c0-0.4-0.2-0.8-0.5-1.1
			c-0.4-0.3-0.9-0.5-1.4-0.5c-0.5,0-1,0.1-1.4,0.4c-0.3,0.2-0.5,0.6-0.4,1c0,0.3,0.1,0.7,0.4,0.9c0.5,0.3,1,0.5,1.6,0.6
			c1,0.2,1.9,0.5,2.7,1.1c0.6,0.4,0.9,1.1,0.9,1.8c0,0.8-0.4,1.6-1,2.1c-0.8,0.6-1.7,0.8-2.7,0.8c-1,0.1-2.1-0.3-2.9-0.9
			c-0.7-0.5-1-1.3-1-2.2l0-0.1h1.7c0,0.5,0.2,1,0.7,1.3c0.4,0.3,1,0.4,1.5,0.4c0.5,0,1-0.1,1.4-0.4C323.8,191.2,324,190.8,324,190.4
			z M333.9,191.6c-0.3,0.5-0.7,0.9-1.2,1.2c-0.5,0.3-1.1,0.4-1.6,0.4c-0.9,0.1-1.8-0.3-2.4-1c-0.7-0.9-1-2-0.9-3.1v-5.6h1.7v5.6
			c-0.1,0.7,0.1,1.5,0.4,2.1c0.3,0.4,0.9,0.6,1.4,0.6c0.5,0,1.1-0.1,1.5-0.4c0.4-0.3,0.7-0.6,0.9-1.1v-6.9h1.7v9.5h-1.6L333.9,191.6
			z M343.7,190.4c0-0.4-0.2-0.7-0.4-0.9c-0.5-0.3-1.1-0.6-1.6-0.6c-0.9-0.2-1.8-0.5-2.6-1c-0.6-0.4-0.9-1.1-0.9-1.8
			c0-0.8,0.4-1.5,1-2c0.7-0.6,1.6-0.9,2.6-0.8c1-0.1,1.9,0.3,2.6,0.9c0.6,0.5,1,1.3,0.9,2.1l0,0.1h-1.7c0-0.4-0.2-0.8-0.5-1.1
			c-0.4-0.3-0.9-0.5-1.4-0.5c-0.5,0-1,0.1-1.4,0.4c-0.3,0.2-0.5,0.6-0.4,1c0,0.3,0.1,0.7,0.4,0.9c0.5,0.3,1,0.5,1.6,0.6
			c1,0.2,1.9,0.5,2.7,1c0.6,0.4,0.9,1.1,0.9,1.8c0,0.8-0.4,1.6-1,2.1c-0.8,0.6-1.7,0.8-2.7,0.8c-1,0.1-2.1-0.3-2.9-0.9
			c-0.7-0.5-1-1.3-1-2.2l0-0.1h1.7c0,0.5,0.2,1,0.7,1.3c0.4,0.3,1,0.4,1.5,0.4c0.5,0,1-0.1,1.4-0.4
			C343.5,191.2,343.7,190.8,343.7,190.4L343.7,190.4z M360.1,188.6c0.1,1.2-0.3,2.4-1,3.3c-0.6,0.8-1.7,1.3-2.7,1.3
			c-0.5,0-1.1-0.1-1.5-0.3c-0.4-0.2-0.8-0.5-1.1-0.9v4.6H352v-13.2h1.3l0.3,1.2c0.3-0.4,0.7-0.8,1.2-1c0.5-0.2,1.1-0.4,1.6-0.4
			c1.1,0,2.1,0.5,2.7,1.4c0.7,1.1,1,2.4,1,3.7L360.1,188.6z M358.4,188.4c0-0.9-0.2-1.8-0.6-2.7c-0.4-0.7-1.1-1.1-1.9-1
			c-0.4,0-0.9,0.1-1.3,0.3c-0.4,0.2-0.7,0.6-0.9,0.9v4.6c0.2,0.4,0.5,0.7,0.9,0.9c0.4,0.2,0.8,0.3,1.3,0.3c0.7,0,1.4-0.3,1.9-0.9
			c0.4-0.7,0.7-1.5,0.6-2.3L358.4,188.4z M366.2,193.2c-1.2,0.1-2.4-0.4-3.2-1.3c-0.8-1-1.2-2.2-1.2-3.4V188c0-1.2,0.4-2.4,1.2-3.4
			c0.7-0.9,1.8-1.3,2.9-1.3c1.1-0.1,2.2,0.3,2.9,1.2c0.7,0.9,1,2,1,3.1v1.1h-6.2l0,0c0,0.8,0.2,1.6,0.7,2.2c0.4,0.6,1.1,0.9,1.9,0.9
			c0.5,0,1-0.1,1.5-0.2c0.4-0.2,0.8-0.4,1.1-0.7l0.7,1.1c-0.4,0.4-0.8,0.7-1.3,0.8C367.6,193.1,366.9,193.2,366.2,193.2L366.2,193.2
			z M365.9,184.7c-0.6,0-1.1,0.3-1.5,0.7c-0.4,0.5-0.7,1.2-0.8,1.8l0,0h4.4V187c0-0.6-0.2-1.2-0.5-1.7
			C367.1,184.9,366.5,184.6,365.9,184.7L365.9,184.7z M371.4,188.1c0-1.3,0.4-2.5,1.1-3.5c1.6-1.7,4.3-1.8,6-0.2
			c0.1,0.1,0.2,0.2,0.2,0.2c0.8,1,1.2,2.2,1.1,3.5v0.2c0.1,1.3-0.4,2.5-1.1,3.5c-1.6,1.7-4.3,1.8-6,0.2c-0.1-0.1-0.1-0.1-0.2-0.2
			c-0.8-1-1.2-2.2-1.1-3.5V188.1z M373.1,188.3c0,0.9,0.2,1.7,0.6,2.5c0.7,1,2.2,1.3,3.2,0.6c0.2-0.2,0.4-0.3,0.6-0.6
			c0.5-0.8,0.7-1.6,0.6-2.5v-0.2c0-0.9-0.2-1.7-0.6-2.5c-0.4-0.6-1.1-1-1.9-1c-0.8,0-1.5,0.3-1.9,1c-0.4,0.7-0.7,1.6-0.6,2.5
			L373.1,188.3z M386.5,185l-0.9-0.1c-0.4,0-0.8,0.1-1.2,0.3c-0.3,0.2-0.6,0.5-0.7,0.9v6.8H382v-9.5h1.5l0.2,1.4
			c0.2-0.5,0.6-0.9,1-1.2c0.4-0.3,0.9-0.4,1.4-0.4c0.1,0,0.2,0,0.4,0c0.1,0,0.2,0,0.3,0.1L386.5,185z M391.9,193.2
			c-1.2,0.1-2.4-0.4-3.2-1.3c-0.8-1-1.2-2.2-1.2-3.4V188c0-1.2,0.4-2.4,1.2-3.4c0.7-0.9,1.8-1.3,2.9-1.3c1.1-0.1,2.2,0.3,2.9,1.2
			c0.7,0.9,1,2,1,3.1v1.1h-6.2l0,0c0,0.8,0.2,1.6,0.7,2.2c0.4,0.6,1.1,0.9,1.9,0.9c0.5,0,1-0.1,1.5-0.2c0.4-0.2,0.8-0.4,1.1-0.7
			l0.7,1.1c-0.4,0.4-0.8,0.7-1.3,0.8C393.3,193.1,392.6,193.2,391.9,193.2L391.9,193.2z M391.7,184.6c-0.6,0-1.1,0.3-1.5,0.7
			c-0.4,0.5-0.7,1.2-0.8,1.8l0,0h4.4V187c0-0.6-0.2-1.2-0.5-1.7C392.9,184.9,392.3,184.6,391.7,184.6L391.7,184.6z M403,190.4
			c0-0.4-0.2-0.7-0.4-0.9c-0.5-0.3-1.1-0.6-1.6-0.6c-0.9-0.2-1.8-0.5-2.6-1c-0.6-0.4-0.9-1.1-0.9-1.8c0-0.8,0.4-1.5,1-2
			c1.6-1.1,3.7-1.1,5.2,0c0.6,0.5,1,1.3,0.9,2.1l0,0.1h-1.6c0-0.4-0.2-0.8-0.5-1.1c-0.4-0.3-0.9-0.5-1.4-0.5c-0.5,0-1,0.1-1.4,0.4
			c-0.3,0.2-0.5,0.6-0.4,1c0,0.3,0.1,0.7,0.4,0.9c0.5,0.3,1,0.5,1.6,0.6c1,0.2,1.9,0.5,2.7,1c0.6,0.4,0.9,1.1,0.9,1.8
			c0,0.8-0.4,1.6-1,2.1c-0.8,0.6-1.7,0.8-2.7,0.8c-1,0.1-2.1-0.3-2.9-0.9c-0.7-0.5-1-1.3-1-2.2l0-0.1h1.7c0,0.5,0.2,1,0.7,1.3
			c0.4,0.3,1,0.4,1.5,0.4c0.5,0,1-0.1,1.4-0.4C402.9,191.2,403.1,190.8,403,190.4L403,190.4z M412.1,193v-8.2h-1.5v-1.3h1.5v-1.2
			c-0.1-0.9,0.2-1.7,0.8-2.4c0.6-0.6,1.4-0.9,2.2-0.8c0.2,0,0.4,0,0.6,0c0.2,0,0.4,0.1,0.7,0.1l-0.2,1.3c-0.1,0-0.2,0-0.4-0.1
			c-0.2,0-0.3,0-0.5,0c-0.4,0-0.8,0.1-1.1,0.5c-0.3,0.4-0.4,0.8-0.4,1.3v1.2h2v1.3h-2v8.2L412.1,193z M417.2,188.1
			c0-1.3,0.4-2.5,1.1-3.5c1.6-1.7,4.3-1.8,6-0.2c0.1,0.1,0.2,0.2,0.2,0.2c0.8,1,1.2,2.2,1.1,3.5v0.2c0.1,1.3-0.4,2.5-1.1,3.5
			c-1.6,1.7-4.3,1.8-6,0.2c-0.1-0.1-0.1-0.1-0.2-0.2c-0.8-1-1.2-2.2-1.1-3.5V188.1z M418.9,188.3c0,0.9,0.2,1.7,0.6,2.5
			c0.7,1,2.2,1.3,3.2,0.6c0.2-0.2,0.4-0.3,0.6-0.6c0.5-0.8,0.7-1.6,0.6-2.5v-0.2c0-0.9-0.2-1.7-0.6-2.5c-0.4-0.6-1.1-1-1.9-1
			c-0.8,0-1.5,0.3-1.9,1c-0.4,0.7-0.7,1.6-0.6,2.5L418.9,188.3z M432.3,185l-0.9-0.1c-0.4,0-0.8,0.1-1.2,0.3
			c-0.3,0.2-0.6,0.5-0.7,0.9v6.8h-1.7v-9.5h1.5l0.2,1.4c0.2-0.5,0.6-0.9,1-1.2c0.4-0.3,0.9-0.4,1.4-0.4c0.1,0,0.2,0,0.4,0
			c0.1,0,0.2,0,0.3,0.1L432.3,185z M435.6,183.5l0.1,1.2c0.3-0.4,0.7-0.8,1.2-1c0.5-0.3,1.1-0.4,1.7-0.4c0.6,0,1.1,0.1,1.6,0.4
			c0.5,0.3,0.8,0.8,1,1.3c0.3-0.5,0.7-1,1.2-1.3c0.5-0.3,1.1-0.5,1.7-0.5c0.9,0,1.7,0.3,2.3,1c0.6,0.9,0.9,1.9,0.8,3v5.7h-1.7v-5.7
			c0.1-0.7-0.1-1.4-0.5-2c-0.4-0.4-0.9-0.6-1.4-0.6c-0.5,0-1.1,0.2-1.4,0.6c-0.4,0.4-0.6,1-0.6,1.6v6.1h-1.7v-5.7
			c0.1-0.7-0.1-1.4-0.5-2c-0.4-0.4-0.9-0.7-1.4-0.6c-0.5,0-0.9,0.1-1.3,0.3c-0.3,0.2-0.6,0.5-0.8,0.9v7H434v-9.5L435.6,183.5z
			 M455.6,193c-0.1-0.3-0.1-0.5-0.1-0.8c0-0.2-0.1-0.4-0.1-0.7c-0.3,0.5-0.8,0.9-1.3,1.1c-0.5,0.3-1.1,0.5-1.7,0.5
			c-0.8,0.1-1.6-0.2-2.3-0.8c-0.5-0.6-0.8-1.3-0.8-2.1c0-0.9,0.4-1.7,1.1-2.1c0.9-0.6,1.9-0.8,3-0.8h1.9v-0.9c0-0.5-0.2-1-0.5-1.3
			c-0.4-0.3-0.9-0.5-1.4-0.5c-0.5,0-1,0.1-1.4,0.4c-0.3,0.2-0.5,0.6-0.5,1h-1.6l0-0.1c0-0.8,0.4-1.5,1-1.9c0.8-0.6,1.7-0.9,2.7-0.9
			c0.9,0,1.9,0.2,2.6,0.8c0.7,0.6,1,1.5,1,2.4v4.6c0,0.3,0,0.7,0.1,1c0,0.3,0.1,0.6,0.2,0.9L455.6,193z M452.7,191.7
			c0.6,0,1.2-0.2,1.7-0.5c0.4-0.2,0.8-0.6,1-1.1v-1.5h-1.9c-0.6,0-1.2,0.2-1.7,0.5c-0.4,0.3-0.6,0.7-0.6,1.2c0,0.4,0.1,0.7,0.4,1
			C451.9,191.6,452.3,191.7,452.7,191.7L452.7,191.7z M465.2,190.4c0-0.4-0.2-0.7-0.4-0.9c-0.5-0.3-1.1-0.6-1.6-0.6
			c-0.9-0.2-1.8-0.5-2.6-1c-0.6-0.4-0.9-1.1-0.9-1.8c0-0.8,0.4-1.5,1-2c1.6-1.1,3.7-1.1,5.2,0c0.6,0.5,1,1.3,0.9,2.1l0,0.1h-1.7
			c0-0.4-0.2-0.8-0.5-1.1c-0.4-0.3-0.9-0.5-1.4-0.5c-0.5,0-1,0.1-1.4,0.4c-0.3,0.2-0.5,0.6-0.4,1c0,0.3,0.1,0.7,0.4,0.9
			c0.5,0.3,1,0.5,1.6,0.6c1,0.2,1.9,0.5,2.7,1.1c0.6,0.4,0.9,1.1,0.9,1.8c0,0.8-0.4,1.6-1,2.1c-0.8,0.6-1.7,0.8-2.7,0.8
			c-1,0.1-2.1-0.3-2.9-0.9c-0.7-0.5-1-1.3-1-2.2l0-0.1h1.6c0,0.5,0.2,1,0.7,1.3c0.4,0.3,1,0.4,1.5,0.4c0.5,0,1-0.1,1.4-0.4
			C465,191.2,465.2,190.8,465.2,190.4L465.2,190.4z"/>
		<path id="Trazado_115085" class="st0" d="M651.5,185.3h123.4c5.5,0,10,4.5,10,10v57.2c0,5.5-4.5,10-10,10H651.5
			c-5.5,0-10-4.5-10-10v-57.2C641.5,189.8,645.9,185.3,651.5,185.3z"/>
		<path id="Trazado_115087" class="st1" d="M657.5,229.2v-12.8h3.9c1.5-0.1,3,0.5,4,1.5c1,1.1,1.6,2.5,1.5,4v1.8
			c0.2,2.9-2.1,5.4-5,5.5c-0.2,0-0.4,0-0.6,0H657.5z M659.2,217.7v10.1h2.2c1.1,0.1,2.1-0.4,2.8-1.2c0.7-0.8,1.1-1.9,1-3v-1.8
			c0-1.1-0.3-2.1-1-3c-0.7-0.8-1.7-1.2-2.8-1.2H659.2z M672.9,229.4c-1.2,0.1-2.4-0.4-3.2-1.3c-0.8-1-1.2-2.2-1.2-3.4v-0.4
			c0-1.2,0.4-2.4,1.2-3.4c0.7-0.9,1.8-1.3,2.9-1.3c1.1-0.1,2.2,0.3,2.9,1.2c0.7,0.9,1,2,1,3.1v1.1h-6.2l0,0c0,0.8,0.2,1.6,0.7,2.2
			c0.4,0.6,1.1,0.9,1.9,0.9c0.5,0,1-0.1,1.5-0.2c0.4-0.2,0.8-0.4,1.1-0.7l0.7,1.1c-0.4,0.4-0.8,0.7-1.3,0.8
			C674.3,229.3,673.6,229.4,672.9,229.4z M672.7,220.9c-0.6,0-1.1,0.3-1.5,0.7c-0.4,0.5-0.7,1.2-0.8,1.8l0,0h4.4v-0.2
			c0-0.6-0.2-1.2-0.5-1.7C673.9,221.1,673.3,220.8,672.7,220.9L672.7,220.9z M684,226.7c0-0.4-0.2-0.7-0.4-0.9
			c-0.5-0.3-1.1-0.6-1.6-0.6c-0.9-0.2-1.8-0.5-2.6-1c-0.6-0.4-0.9-1.1-0.9-1.8c0-0.8,0.4-1.5,1-2c0.7-0.6,1.6-0.9,2.6-0.8
			c1-0.1,1.9,0.3,2.6,0.9c0.6,0.5,1,1.3,0.9,2.1l0,0.1h-1.6c0-0.4-0.2-0.8-0.5-1.1c-0.4-0.3-0.9-0.5-1.4-0.5c-0.5,0-1,0.1-1.4,0.4
			c-0.3,0.2-0.5,0.6-0.4,1c0,0.3,0.1,0.7,0.4,0.9c0.5,0.3,1,0.5,1.6,0.6c1,0.2,1.9,0.5,2.7,1.1c0.6,0.4,0.9,1.1,0.9,1.8
			c0,0.8-0.4,1.6-1,2.1c-0.8,0.6-1.7,0.8-2.7,0.8c-1,0.1-2.1-0.3-2.9-0.9c-0.7-0.5-1-1.3-1-2.2l0-0.1h1.7c0,0.5,0.2,1,0.7,1.3
			c0.4,0.3,1,0.4,1.5,0.4c0.5,0,1-0.1,1.4-0.4C683.9,227.4,684.1,227,684,226.7z M691.9,229.4c-1.2,0.1-2.4-0.4-3.2-1.3
			c-0.8-1-1.2-2.2-1.2-3.4v-0.4c0-1.2,0.4-2.4,1.2-3.4c0.7-0.9,1.8-1.3,2.9-1.4c1.1-0.1,2.2,0.3,2.9,1.2c0.7,0.9,1,2,1,3.1v1.1h-6.2
			l0,0c0,0.8,0.2,1.6,0.7,2.2c0.4,0.6,1.1,0.9,1.9,0.9c0.5,0,1-0.1,1.5-0.2c0.4-0.2,0.8-0.4,1.1-0.7l0.7,1.1
			c-0.4,0.4-0.8,0.7-1.3,0.8C693.3,229.3,692.6,229.4,691.9,229.4L691.9,229.4z M691.6,220.9c-0.6,0-1.1,0.3-1.5,0.7
			c-0.4,0.5-0.7,1.2-0.8,1.8l0,0h4.4v-0.2c0-0.6-0.2-1.2-0.5-1.7C692.8,221.1,692.2,220.8,691.6,220.9L691.6,220.9z M703,226.7
			c0-0.4-0.2-0.7-0.4-0.9c-0.5-0.3-1.1-0.6-1.6-0.6c-0.9-0.2-1.8-0.5-2.6-1c-0.6-0.4-0.9-1.1-0.9-1.8c0-0.8,0.4-1.5,1-2
			c1.6-1.1,3.7-1.1,5.2,0c0.6,0.5,1,1.3,0.9,2.1l0,0.1h-1.6c0-0.4-0.2-0.8-0.5-1.1c-0.4-0.3-0.9-0.5-1.4-0.5c-0.5,0-1,0.1-1.4,0.4
			c-0.3,0.2-0.5,0.6-0.4,1c0,0.3,0.1,0.7,0.4,0.9c0.5,0.3,1,0.5,1.6,0.6c1,0.2,1.9,0.5,2.7,1c0.6,0.4,0.9,1.1,0.9,1.8
			c0,0.8-0.4,1.6-1,2.1c-0.8,0.6-1.7,0.8-2.7,0.8c-1,0.1-2.1-0.3-2.9-0.9c-0.7-0.5-1-1.3-1-2.2l0-0.1h1.7c0,0.5,0.2,1,0.7,1.3
			c0.4,0.3,1,0.4,1.5,0.4c0.5,0,1-0.1,1.4-0.4C702.8,227.4,703,227,703,226.7L703,226.7z M715,224.8c0.1,1.2-0.3,2.4-1,3.3
			c-0.6,0.8-1.7,1.3-2.7,1.3c-0.5,0-1.1-0.1-1.5-0.3c-0.4-0.2-0.8-0.5-1.1-0.9v4.6h-1.7v-13.2h1.3l0.3,1.2c0.3-0.4,0.7-0.8,1.2-1
			c0.5-0.2,1.1-0.4,1.6-0.4c1.1,0,2.1,0.5,2.7,1.4c0.7,1.1,1,2.4,1,3.7L715,224.8z M713.2,224.6c0-0.9-0.2-1.8-0.6-2.7
			c-0.4-0.7-1.1-1.1-1.9-1c-0.4,0-0.9,0.1-1.3,0.3c-0.4,0.2-0.7,0.6-0.9,0.9v4.6c0.2,0.4,0.5,0.7,0.9,0.9c0.4,0.2,0.8,0.3,1.3,0.3
			c0.7,0,1.4-0.3,1.9-0.9c0.4-0.7,0.7-1.5,0.6-2.3L713.2,224.6z M721,229.4c-1.2,0.1-2.4-0.4-3.2-1.3c-0.8-1-1.2-2.2-1.2-3.4v-0.4
			c0-1.2,0.4-2.4,1.2-3.4c0.7-0.9,1.8-1.3,2.9-1.3c1.1-0.1,2.2,0.3,2.9,1.2c0.7,0.9,1,2,1,3.1v1.1h-6.2l0,0c0,0.8,0.2,1.6,0.7,2.2
			c0.4,0.6,1.1,0.9,1.9,0.9c0.5,0,1-0.1,1.5-0.2c0.4-0.2,0.8-0.4,1.1-0.7l0.7,1.1c-0.4,0.4-0.8,0.7-1.3,0.8
			C722.4,229.3,721.7,229.4,721,229.4L721,229.4z M720.8,220.9c-0.6,0-1.1,0.3-1.5,0.7c-0.4,0.5-0.7,1.2-0.8,1.8l0,0h4.4v-0.2
			c0-0.6-0.2-1.2-0.5-1.7C722,221.1,721.4,220.8,720.8,220.9L720.8,220.9z M731.1,221.2l-0.9-0.1c-0.4,0-0.8,0.1-1.2,0.3
			c-0.3,0.2-0.6,0.5-0.7,0.9v6.8h-1.7v-9.5h1.5l0.2,1.4c0.2-0.5,0.6-0.9,1-1.2c0.4-0.3,0.9-0.4,1.4-0.4c0.1,0,0.2,0,0.4,0
			c0.1,0,0.2,0,0.3,0.1L731.1,221.2z M738.6,229.2c-0.1-0.3-0.1-0.5-0.1-0.8c0-0.2-0.1-0.4-0.1-0.7c-0.3,0.5-0.8,0.9-1.3,1.1
			c-0.5,0.3-1.1,0.5-1.7,0.5c-0.8,0.1-1.6-0.2-2.3-0.8c-0.5-0.6-0.8-1.3-0.8-2.1c0-0.9,0.4-1.7,1.1-2.1c0.9-0.6,1.9-0.8,3-0.8h1.9
			v-0.9c0-0.5-0.2-1-0.5-1.3c-0.4-0.3-0.9-0.5-1.4-0.5c-0.5,0-1,0.1-1.4,0.4c-0.3,0.2-0.5,0.6-0.5,1H733l0-0.1c0-0.8,0.4-1.5,1-1.9
			c0.8-0.6,1.7-0.9,2.7-0.9c0.9,0,1.9,0.2,2.6,0.8c0.7,0.6,1,1.5,1,2.4v4.6c0,0.3,0,0.7,0.1,1c0,0.3,0.1,0.6,0.2,0.9L738.6,229.2z
			 M735.8,227.9c0.6,0,1.2-0.2,1.7-0.5c0.4-0.2,0.8-0.6,1-1.1v-1.5h-1.9c-0.6,0-1.2,0.2-1.7,0.5c-0.4,0.3-0.6,0.7-0.6,1.2
			c0,0.4,0.1,0.7,0.4,1C734.9,227.8,735.3,227.9,735.8,227.9z M744.2,219.7l0.1,1.4c0.3-0.5,0.7-0.9,1.2-1.2
			c0.5-0.3,1.1-0.4,1.6-0.4c0.9-0.1,1.8,0.3,2.4,0.9c0.6,0.8,0.9,1.8,0.8,2.8v6h-1.7v-6c0.1-0.6-0.1-1.3-0.5-1.8
			c-0.4-0.4-1-0.6-1.5-0.5c-0.5,0-0.9,0.1-1.3,0.4c-0.4,0.2-0.7,0.6-0.9,1v6.9h-1.7v-9.5H744.2z M754.5,227.8h5.5v1.4h-7.6V228
			l5.1-6.9h-5.1v-1.4h7.2v1.2L754.5,227.8z M767.8,229.2c-0.1-0.3-0.1-0.5-0.1-0.8c0-0.2-0.1-0.4-0.1-0.7c-0.3,0.5-0.8,0.9-1.3,1.1
			c-0.5,0.3-1.1,0.5-1.7,0.5c-0.8,0.1-1.6-0.2-2.3-0.8c-0.5-0.6-0.8-1.3-0.8-2.1c0-0.9,0.4-1.7,1.1-2.1c0.9-0.6,1.9-0.8,3-0.8h1.9
			v-0.9c0-0.5-0.2-1-0.5-1.3c-0.4-0.3-0.9-0.5-1.4-0.5c-0.5,0-1,0.1-1.4,0.4c-0.3,0.2-0.5,0.6-0.5,1h-1.7l0-0.1c0-0.8,0.4-1.5,1-1.9
			c0.8-0.6,1.7-0.9,2.7-0.9c0.9,0,1.9,0.2,2.6,0.8c0.7,0.6,1,1.5,1,2.4v4.6c0,0.3,0,0.7,0.1,1c0,0.3,0.1,0.6,0.2,0.9L767.8,229.2z
			 M764.9,227.9c0.6,0,1.2-0.2,1.7-0.5c0.4-0.2,0.8-0.6,1-1.1v-1.5h-1.9c-0.6,0-1.2,0.2-1.7,0.5c-0.4,0.3-0.6,0.7-0.6,1.2
			c0,0.4,0.1,0.7,0.4,1C764.1,227.8,764.5,227.9,764.9,227.9L764.9,227.9z"/>
		<path id="Trazado_115086" class="st0" d="M651.5,278h123.4c5.5,0,10,4.5,10,10v57.2c0,5.5-4.5,10-10,10H651.5c-5.5,0-10-4.5-10-10
			V288C641.5,282.5,645.9,278,651.5,278z"/>
		<path id="Trazado_115090" class="st1" d="M674.3,313.8V301h3.9c2.9-0.2,5.4,2,5.6,4.9c0,0.2,0,0.4,0,0.6v1.8
			c0.2,2.9-2.1,5.4-5,5.5c-0.2,0-0.4,0-0.6,0H674.3z M676.1,302.4v10.1h2.2c1.1,0.1,2.1-0.4,2.8-1.2c0.7-0.8,1.1-1.9,1-3v-1.8
			c0-1.1-0.3-2.1-1-3c-0.7-0.8-1.7-1.2-2.8-1.2H676.1z M689.8,314c-1.2,0.1-2.4-0.4-3.2-1.3c-0.8-1-1.2-2.2-1.2-3.4v-0.4
			c0-1.2,0.4-2.4,1.2-3.4c0.7-0.9,1.8-1.3,2.9-1.4c1.1-0.1,2.2,0.3,2.9,1.2c0.7,0.9,1,2,1,3.1v1.1h-6.2l0,0c0,0.8,0.2,1.6,0.7,2.2
			c0.4,0.6,1.1,0.9,1.9,0.9c0.5,0,1-0.1,1.5-0.2c0.4-0.2,0.8-0.4,1.1-0.7l0.7,1.1c-0.4,0.4-0.8,0.7-1.3,0.8
			C691.2,313.9,690.5,314,689.8,314z M689.5,305.5c-0.6,0-1.1,0.3-1.5,0.7c-0.4,0.5-0.7,1.2-0.8,1.8l0,0h4.4v-0.2
			c0-0.6-0.2-1.2-0.5-1.7C690.8,305.7,690.2,305.5,689.5,305.5z M700.9,311.3c0-0.4-0.2-0.7-0.4-0.9c-0.5-0.3-1.1-0.6-1.6-0.6
			c-0.9-0.2-1.8-0.5-2.6-1c-0.6-0.4-0.9-1.1-0.9-1.8c0-0.8,0.4-1.5,1-2c1.6-1.1,3.7-1.1,5.2,0c0.6,0.5,1,1.3,0.9,2.1l0,0.1h-1.6
			c0-0.4-0.2-0.8-0.5-1.1c-0.4-0.3-0.9-0.5-1.4-0.5c-0.5,0-1,0.1-1.4,0.4c-0.3,0.2-0.5,0.6-0.4,1c0,0.3,0.1,0.7,0.4,0.9
			c0.5,0.3,1,0.5,1.6,0.6c1,0.2,1.9,0.5,2.7,1.1c0.6,0.4,0.9,1.1,0.9,1.8c0,0.8-0.4,1.6-1,2.1c-0.8,0.6-1.7,0.8-2.7,0.8
			c-1,0.1-2.1-0.3-2.9-0.9c-0.7-0.5-1-1.3-1-2.2l0-0.1h1.7c0,0.5,0.2,1,0.7,1.3c0.4,0.3,1,0.4,1.5,0.4c0.5,0,1-0.1,1.4-0.4
			C700.7,312.1,700.9,311.7,700.9,311.3L700.9,311.3z M708.7,314c-1.2,0.1-2.4-0.4-3.2-1.3c-0.8-1-1.2-2.2-1.2-3.4v-0.4
			c0-1.2,0.4-2.4,1.2-3.4c0.7-0.9,1.8-1.3,2.9-1.3c1.1-0.1,2.2,0.3,2.9,1.2c0.7,0.9,1,2,1,3.1v1.1h-6.2l0,0c0,0.8,0.2,1.6,0.7,2.2
			c0.4,0.6,1.1,0.9,1.9,0.9c0.5,0,1-0.1,1.5-0.2c0.4-0.2,0.8-0.4,1.1-0.7l0.7,1.1c-0.4,0.4-0.8,0.7-1.3,0.8
			C710.1,313.9,709.4,314,708.7,314z M708.5,305.5c-0.6,0-1.1,0.3-1.5,0.7c-0.4,0.5-0.7,1.2-0.8,1.8l0,0h4.4v-0.2
			c0-0.6-0.2-1.2-0.5-1.7C709.7,305.7,709.1,305.5,708.5,305.5L708.5,305.5z M718.8,305.9l-0.9-0.1c-0.4,0-0.8,0.1-1.2,0.3
			c-0.3,0.2-0.6,0.5-0.7,0.9v6.8h-1.7v-9.5h1.5l0.2,1.4c0.2-0.5,0.6-0.9,1-1.2c0.4-0.3,0.9-0.4,1.4-0.4c0.1,0,0.2,0,0.4,0
			c0.1,0,0.2,0,0.3,0.1L718.8,305.9z M724.2,312.7c0.6,0,1.1-0.2,1.5-0.5c0.4-0.3,0.7-0.8,0.7-1.3h1.6l0,0.1c0,0.9-0.4,1.7-1.1,2.2
			c-0.7,0.6-1.7,1-2.7,1c-1.2,0.1-2.4-0.4-3.2-1.4c-0.8-1-1.1-2.2-1.1-3.4v-0.4c0-1.2,0.3-2.4,1.1-3.4c1.6-1.7,4.1-1.8,5.9-0.4
			c0.7,0.6,1.1,1.5,1,2.4l0,0.1h-1.6c0-0.6-0.2-1.1-0.6-1.5c-0.4-0.4-1-0.6-1.6-0.6c-0.8-0.1-1.5,0.3-1.9,1
			c-0.4,0.7-0.6,1.6-0.6,2.4v0.4c0,0.8,0.2,1.7,0.6,2.4C722.7,312.4,723.4,312.7,724.2,312.7L724.2,312.7z M731.7,313.8H730v-9.5
			h1.7V313.8z M731.7,301.9H730v-1.8h1.7V301.9z M734,309c0-1.3,0.4-2.5,1.1-3.5c1.6-1.7,4.3-1.8,6-0.2c0.1,0.1,0.2,0.2,0.2,0.2
			c0.8,1,1.2,2.2,1.1,3.5v0.2c0.1,1.3-0.4,2.5-1.1,3.5c-1.6,1.7-4.3,1.8-6,0.2c-0.1-0.1-0.1-0.1-0.2-0.2c-0.8-1-1.2-2.2-1.1-3.5
			L734,309z M735.7,309.2c0,0.9,0.2,1.7,0.6,2.5c0.7,1,2.2,1.3,3.2,0.6c0.2-0.2,0.4-0.3,0.6-0.6c0.5-0.8,0.7-1.6,0.6-2.5V309
			c0-0.9-0.2-1.7-0.6-2.5c-0.4-0.6-1.1-1-1.9-1c-0.8,0-1.5,0.3-1.9,1c-0.4,0.7-0.7,1.6-0.6,2.5L735.7,309.2z M739.1,300.7h2l0,0.1
			l-2.4,2.3h-1.3L739.1,300.7z M746.2,304.3l0.1,1.4c0.3-0.5,0.7-0.9,1.2-1.2c0.5-0.3,1.1-0.4,1.6-0.4c0.9-0.1,1.8,0.3,2.4,0.9
			c0.6,0.8,0.9,1.8,0.8,2.8v6h-1.7v-6c0.1-0.6-0.1-1.3-0.5-1.8c-0.4-0.4-1-0.6-1.5-0.5c-0.5,0-0.9,0.1-1.3,0.4
			c-0.4,0.2-0.7,0.6-0.9,1v6.9h-1.7v-9.5H746.2z M688.7,335.6c-1.2,0.1-2.4-0.4-3.2-1.3c-0.8-1-1.2-2.2-1.2-3.4v-0.4
			c0-1.2,0.4-2.4,1.2-3.4c0.7-0.9,1.8-1.3,2.9-1.3c1.1-0.1,2.2,0.3,2.9,1.2c0.7,0.9,1,2,1,3.1v1.1h-6.2l0,0c0,0.8,0.2,1.6,0.7,2.2
			c0.4,0.6,1.1,0.9,1.9,0.9c0.5,0,1-0.1,1.5-0.2c0.4-0.2,0.8-0.4,1.1-0.7l0.7,1.1c-0.4,0.4-0.8,0.7-1.3,0.8
			C690.1,335.5,689.4,335.6,688.7,335.6z M688.5,327.1c-0.6,0-1.1,0.3-1.5,0.7c-0.4,0.5-0.7,1.2-0.8,1.8l0,0h4.4v-0.2
			c0-0.6-0.2-1.2-0.5-1.7C689.7,327.3,689.1,327.1,688.5,327.1z M699.8,332.9c0-0.4-0.2-0.7-0.4-0.9c-0.5-0.3-1.1-0.6-1.6-0.6
			c-0.9-0.2-1.8-0.5-2.6-1c-0.6-0.4-0.9-1.1-0.9-1.8c0-0.8,0.4-1.5,1-2c1.6-1.1,3.7-1.1,5.2,0c0.6,0.5,1,1.3,0.9,2.1l0,0.1h-1.7
			c0-0.4-0.2-0.8-0.5-1.1c-0.4-0.3-0.9-0.5-1.4-0.5c-0.5,0-1,0.1-1.4,0.4c-0.3,0.2-0.5,0.6-0.4,1c0,0.3,0.1,0.7,0.4,0.9
			c0.5,0.3,1,0.5,1.6,0.6c1,0.2,1.9,0.5,2.7,1c0.6,0.4,0.9,1.1,0.9,1.8c0,0.8-0.4,1.6-1,2.1c-0.8,0.6-1.7,0.8-2.7,0.8
			c-1,0.1-2.1-0.3-2.9-0.9c-0.7-0.5-1-1.3-1-2.2l0-0.1h1.7c0,0.5,0.2,1,0.7,1.3c0.4,0.3,1,0.4,1.5,0.4c0.5,0,1-0.1,1.4-0.4
			C699.6,333.7,699.8,333.3,699.8,332.9L699.8,332.9z M707.6,334.3c0.6,0,1.1-0.2,1.5-0.5c0.4-0.3,0.7-0.8,0.7-1.3h1.6l0,0.1
			c0,0.9-0.4,1.7-1.1,2.2c-0.7,0.6-1.7,1-2.7,1c-1.2,0.1-2.4-0.4-3.2-1.4c-0.8-1-1.1-2.2-1.1-3.4v-0.4c0-1.2,0.3-2.4,1.1-3.4
			c1.6-1.7,4.1-1.8,5.9-0.4c0.7,0.6,1.1,1.5,1,2.4l0,0.1h-1.6c0-0.6-0.2-1.1-0.6-1.5c-0.4-0.4-1-0.6-1.6-0.6c-0.8-0.1-1.5,0.3-1.9,1
			c-0.4,0.7-0.6,1.6-0.6,2.4v0.4c0,0.8,0.2,1.7,0.6,2.4C706,334,706.8,334.3,707.6,334.3L707.6,334.3z M712.9,330.6
			c0-1.3,0.4-2.5,1.1-3.5c1.6-1.7,4.3-1.8,6-0.2c0.1,0.1,0.2,0.2,0.2,0.2c0.8,1,1.2,2.2,1.1,3.5v0.2c0.1,1.3-0.4,2.5-1.1,3.5
			c-1.6,1.7-4.3,1.8-6,0.2c-0.1-0.1-0.1-0.1-0.2-0.2c-0.8-1-1.2-2.2-1.1-3.5V330.6z M714.6,330.8c0,0.9,0.2,1.7,0.6,2.5
			c0.7,1,2.2,1.3,3.2,0.6c0.2-0.2,0.4-0.3,0.6-0.6c0.5-0.8,0.7-1.6,0.6-2.5v-0.2c0-0.9-0.2-1.7-0.6-2.5c-0.4-0.6-1.1-1-1.9-1
			c-0.8,0-1.5,0.3-1.9,1c-0.4,0.7-0.7,1.6-0.6,2.5L714.6,330.8z M725.4,335.4h-1.7v-13.7h1.7L725.4,335.4z M733.9,335.4
			c-0.1-0.3-0.1-0.5-0.1-0.8c0-0.2-0.1-0.4-0.1-0.7c-0.3,0.5-0.8,0.9-1.3,1.1c-0.5,0.3-1.1,0.5-1.7,0.5c-0.8,0.1-1.6-0.2-2.3-0.8
			c-0.5-0.6-0.8-1.3-0.8-2.1c0-0.9,0.4-1.7,1.1-2.1c0.9-0.6,1.9-0.8,3-0.8h1.9v-0.9c0-0.5-0.2-1-0.5-1.3c-0.4-0.3-0.9-0.5-1.4-0.5
			c-0.5,0-1,0.1-1.4,0.4c-0.3,0.2-0.5,0.6-0.5,1h-1.6l0-0.1c0-0.8,0.4-1.5,1-1.9c0.8-0.6,1.7-0.9,2.7-0.9c0.9,0,1.9,0.2,2.6,0.8
			c0.7,0.6,1,1.5,1,2.4v4.6c0,0.3,0,0.7,0.1,1c0,0.3,0.1,0.6,0.2,0.9L733.9,335.4z M731,334.2c0.6,0,1.2-0.2,1.7-0.5
			c0.4-0.2,0.8-0.6,1-1.1V331h-1.9c-0.6,0-1.2,0.2-1.7,0.5c-0.4,0.3-0.6,0.7-0.6,1.2c0,0.4,0.1,0.7,0.4,1
			C730.2,334.1,730.6,334.2,731,334.2L731,334.2z M742.4,327.5l-0.9-0.1c-0.4,0-0.8,0.1-1.2,0.3c-0.3,0.2-0.6,0.5-0.7,0.9v6.8h-1.7
			v-9.5h1.5l0.2,1.4c0.2-0.5,0.6-0.9,1-1.2c0.4-0.3,0.9-0.4,1.4-0.4c0.1,0,0.2,0,0.4,0c0.1,0,0.2,0,0.3,0.1L742.4,327.5z"/>
		<path id="Trazado_112691" class="st2" d="M261.4,179.6L227.8,146v12.3h-55.6v42.5h55.6v12.3L261.4,179.6z"/>
		<path id="Trazado_115072" class="st2" d="M616.4,179.6L582.8,146v12.3h-55.6v42.5h55.6v12.3L616.4,179.6z"/>
	</g>
	<path id="Trazado_115091" class="st3" d="M181.4,99.1h-4.8l-1.1,2.9h-1.6l4.4-11.4h1.3L184,102h-1.6L181.4,99.1z M177.1,97.8h3.8
		l-1.9-5.2h0L177.1,97.8z M190.6,100.8c-0.2,0.4-0.6,0.8-1,1.1c-0.4,0.3-0.9,0.4-1.4,0.4c-0.8,0-1.6-0.3-2.2-0.9
		c-0.6-0.8-0.9-1.8-0.8-2.8v-5h1.5v5c-0.1,0.6,0.1,1.3,0.4,1.9c0.3,0.4,0.8,0.5,1.2,0.5c0.5,0,0.9-0.1,1.4-0.3
		c0.4-0.2,0.6-0.6,0.8-0.9v-6.1h1.5v8.5h-1.4L190.6,100.8z M195.7,93.6l0.1,1.1c0.3-0.4,0.6-0.7,1.1-0.9c0.5-0.2,1-0.3,1.5-0.3
		c0.5,0,1,0.1,1.4,0.4c0.4,0.3,0.7,0.7,0.9,1.2c0.3-0.5,0.6-0.9,1.1-1.1c0.5-0.3,1-0.4,1.5-0.4c0.8,0,1.5,0.3,2,0.9
		c0.6,0.8,0.8,1.7,0.8,2.7v5.1h-1.5v-5.1c0.1-0.6-0.1-1.2-0.4-1.8c-0.3-0.4-0.8-0.6-1.3-0.5c-0.5,0-1,0.2-1.3,0.5
		c-0.3,0.4-0.5,0.9-0.6,1.4v5.4h-1.5v-5.1c0-0.6-0.1-1.2-0.4-1.7c-0.3-0.4-0.8-0.6-1.3-0.6c-0.4,0-0.8,0.1-1.2,0.3
		c-0.3,0.2-0.6,0.5-0.7,0.8v6.3h-1.5v-8.5L195.7,93.6z M211.9,102.2c-1.1,0-2.1-0.4-2.8-1.2c-0.7-0.8-1.1-1.9-1-3.1v-0.3
		c0-1.1,0.3-2.2,1.1-3c0.6-0.8,1.6-1.2,2.5-1.2c1-0.1,1.9,0.3,2.6,1c0.6,0.8,0.9,1.8,0.9,2.8v1h-5.5l0,0c0,0.7,0.2,1.4,0.6,2
		c0.4,0.5,1,0.8,1.7,0.8c0.5,0,0.9-0.1,1.4-0.2c0.4-0.1,0.7-0.3,1-0.6l0.6,1c-0.3,0.3-0.8,0.6-1.2,0.7
		C213.1,102.1,212.5,102.2,211.9,102.2L211.9,102.2z M211.6,94.6c-0.5,0-1,0.2-1.3,0.7c-0.4,0.5-0.6,1-0.7,1.6l0,0h3.9v-0.2
		c0-0.5-0.2-1.1-0.5-1.5C212.7,94.8,212.2,94.6,211.6,94.6z M218.2,93.5l0.1,1.3c0.3-0.4,0.6-0.8,1.1-1c0.4-0.2,0.9-0.4,1.4-0.4
		c0.8,0,1.6,0.2,2.1,0.8c0.6,0.7,0.8,1.6,0.8,2.5v5.3h-1.5v-5.3c0.1-0.6-0.1-1.1-0.4-1.6c-0.4-0.3-0.9-0.5-1.3-0.5
		c-0.4,0-0.8,0.1-1.2,0.3c-0.3,0.2-0.6,0.5-0.8,0.9v6.2h-1.5v-8.5L218.2,93.5z M227.9,91.5v2h1.6v1.1h-1.6v5.1
		c0,0.3,0.1,0.6,0.2,0.8c0.2,0.2,0.4,0.3,0.7,0.2c0.1,0,0.2,0,0.3,0c0.1,0,0.2,0,0.3-0.1l0.2,1.1c-0.1,0.1-0.3,0.2-0.5,0.2
		c-0.2,0.1-0.4,0.1-0.7,0.1c-0.6,0-1.1-0.2-1.5-0.6c-0.4-0.5-0.6-1.1-0.6-1.8v-5.1h-1.3v-1.1h1.3v-2L227.9,91.5z M236.6,102
		c-0.1-0.3-0.1-0.5-0.1-0.7c0-0.2,0-0.4-0.1-0.6c-0.3,0.4-0.7,0.8-1.1,1c-0.4,0.3-1,0.4-1.5,0.4c-0.7,0.1-1.5-0.2-2-0.7
		c-0.5-0.5-0.7-1.2-0.7-1.9c0-0.8,0.3-1.5,1-1.9c0.8-0.5,1.7-0.7,2.7-0.7h1.7v-0.8c0-0.4-0.1-0.9-0.5-1.2c-0.4-0.3-0.8-0.5-1.3-0.4
		c-0.4,0-0.9,0.1-1.2,0.4c-0.3,0.2-0.5,0.6-0.5,0.9h-1.5l0,0c0-0.7,0.3-1.3,0.9-1.7c0.7-0.5,1.5-0.8,2.4-0.8c0.8,0,1.7,0.2,2.3,0.7
		c0.6,0.5,0.9,1.3,0.9,2.1v4.1c0,0.3,0,0.6,0,0.9c0,0.3,0.1,0.6,0.2,0.8L236.6,102z M234.1,100.9c0.5,0,1.1-0.1,1.5-0.4
		c0.4-0.2,0.7-0.6,0.9-1v-1.4h-1.7c-0.5,0-1.1,0.1-1.5,0.5c-0.3,0.3-0.6,0.7-0.6,1.1c0,0.3,0.1,0.7,0.4,0.9
		C233.3,100.8,233.7,100.9,234.1,100.9z M241.6,93.5l0.1,1.3c0.3-0.4,0.6-0.8,1.1-1c0.4-0.3,0.9-0.4,1.4-0.4c0.8,0,1.6,0.2,2.1,0.8
		c0.6,0.7,0.8,1.6,0.8,2.5v5.3h-1.5v-5.3c0.1-0.6-0.1-1.1-0.4-1.6c-0.4-0.3-0.9-0.5-1.3-0.5c-0.4,0-0.8,0.1-1.2,0.3
		c-0.3,0.2-0.6,0.5-0.8,0.9v6.2h-1.5v-8.5H241.6z M185.1,114.9l-0.8,0c-0.4,0-0.7,0.1-1,0.3c-0.3,0.2-0.5,0.5-0.6,0.8v6h-1.5v-8.5
		h1.4l0.1,1.2c0.2-0.4,0.5-0.8,0.9-1c0.4-0.2,0.8-0.4,1.2-0.4c0.1,0,0.2,0,0.3,0c0.1,0,0.2,0,0.3,0.1L185.1,114.9z M188.2,122h-1.5
		v-8.5h1.5V122z M188.2,111.4h-1.5v-1.6h1.5V111.4z M194.1,122.2c-1.1,0-2.1-0.4-2.8-1.2c-0.7-0.8-1.1-1.9-1-3.1v-0.3
		c0-1.1,0.3-2.2,1.1-3c0.6-0.8,1.6-1.2,2.5-1.2c1-0.1,1.9,0.3,2.6,1c0.6,0.8,0.9,1.8,0.9,2.8v1h-5.5l0,0c0,0.7,0.2,1.4,0.6,2
		c0.4,0.5,1,0.8,1.7,0.8c0.5,0,0.9-0.1,1.4-0.2c0.4-0.1,0.7-0.3,1-0.6l0.6,1c-0.3,0.3-0.8,0.6-1.2,0.7
		C195.3,122.1,194.7,122.2,194.1,122.2z M193.9,114.6c-0.5,0-1,0.2-1.3,0.7c-0.4,0.5-0.6,1-0.7,1.6l0,0h3.9v-0.2
		c0-0.5-0.2-1.1-0.5-1.5C194.9,114.8,194.4,114.6,193.9,114.6z M204,119.7c0-0.3-0.1-0.6-0.4-0.8c-0.4-0.3-0.9-0.5-1.5-0.6
		c-0.8-0.1-1.6-0.5-2.3-0.9c-0.5-0.4-0.8-0.9-0.8-1.6c0-0.7,0.3-1.3,0.9-1.8c1.4-1,3.3-1,4.6,0c0.6,0.4,0.9,1.1,0.8,1.8l0,0h-1.5
		c0-0.4-0.2-0.7-0.5-1c-0.3-0.3-0.8-0.5-1.2-0.4c-0.4,0-0.9,0.1-1.2,0.4c-0.3,0.2-0.4,0.5-0.4,0.9c0,0.3,0.1,0.6,0.4,0.8
		c0.4,0.3,0.9,0.4,1.4,0.5c0.9,0.1,1.7,0.5,2.4,0.9c0.5,0.4,0.8,1,0.8,1.6c0,0.7-0.3,1.4-0.9,1.8c-0.7,0.5-1.5,0.7-2.4,0.7
		c-0.9,0.1-1.8-0.2-2.5-0.8c-0.6-0.5-0.9-1.2-0.9-1.9l0,0h1.5c0,0.5,0.2,0.9,0.6,1.2c0.4,0.3,0.9,0.4,1.3,0.4c0.5,0,0.9-0.1,1.3-0.3
		C203.8,120.4,204,120.1,204,119.7L204,119.7z M207.1,117.9c-0.1-1.2,0.3-2.3,0.9-3.3c0.6-0.8,1.5-1.3,2.5-1.2c0.5,0,1,0.1,1.4,0.3
		c0.4,0.2,0.8,0.5,1,0.9l0.2-1.1h1.2v8.5c0.1,0.9-0.3,1.8-0.9,2.5c-0.8,0.6-1.7,0.9-2.7,0.9c-0.4,0-0.9-0.1-1.3-0.2
		c-0.4-0.1-0.9-0.3-1.2-0.5l0.4-1.2c0.3,0.2,0.7,0.3,1,0.4c0.4,0.1,0.8,0.1,1.2,0.1c0.6,0.1,1.2-0.1,1.6-0.5c0.4-0.4,0.6-1,0.5-1.6
		v-1c-0.3,0.3-0.6,0.6-1,0.8c-0.4,0.2-0.9,0.3-1.3,0.3c-0.9,0-1.9-0.4-2.4-1.1c-0.6-0.9-0.9-1.9-0.9-2.9L207.1,117.9z M208.6,118.1
		c0,0.7,0.2,1.4,0.5,2c0.4,0.5,1,0.8,1.6,0.8c0.4,0,0.8-0.1,1.2-0.3c0.3-0.2,0.6-0.5,0.8-0.9v-3.9c-0.2-0.3-0.4-0.6-0.8-0.9
		c-0.3-0.2-0.7-0.3-1.1-0.3c-0.7,0-1.3,0.3-1.6,0.9c-0.4,0.7-0.6,1.5-0.5,2.4L208.6,118.1z M216.1,117.7c0-1.1,0.3-2.2,1-3.1
		c1.4-1.5,3.8-1.6,5.3-0.2c0.1,0.1,0.1,0.1,0.2,0.2c0.7,0.9,1.1,2,1,3.1v0.2c0,1.1-0.3,2.2-1,3.1c-1.4,1.5-3.8,1.6-5.3,0.2
		c-0.1-0.1-0.1-0.1-0.2-0.2c-0.7-0.9-1.1-2-1-3.1V117.7z M217.7,117.9c0,0.8,0.2,1.5,0.6,2.2c0.6,0.9,1.9,1.2,2.9,0.5
		c0.2-0.1,0.4-0.3,0.5-0.5c0.4-0.7,0.6-1.4,0.6-2.2v-0.2c0-0.8-0.2-1.5-0.6-2.2c-0.4-0.6-1-0.9-1.7-0.9c-0.7,0-1.3,0.3-1.7,0.9
		c-0.4,0.7-0.6,1.4-0.6,2.2L217.7,117.9z M229.2,117.9c-0.1-1.2,0.2-2.3,0.9-3.3c0.5-0.8,1.5-1.3,2.4-1.2c0.5,0,0.9,0.1,1.3,0.3
		c0.4,0.2,0.7,0.5,1,0.8v-4.6h1.5V122h-1.3l-0.2-1c-0.3,0.4-0.6,0.7-1,0.9c-0.4,0.2-0.9,0.3-1.4,0.3c-0.9,0-1.8-0.4-2.4-1.1
		c-0.6-0.9-0.9-1.9-0.9-2.9V117.9z M230.8,118.1c0,0.7,0.1,1.4,0.5,2.1c0.4,0.5,1,0.8,1.6,0.8c0.4,0,0.8-0.1,1.2-0.3
		c0.3-0.2,0.6-0.5,0.8-0.9v-3.9c-0.2-0.3-0.4-0.6-0.8-0.8c-0.3-0.2-0.7-0.3-1.1-0.3c-0.7,0-1.3,0.3-1.6,0.9
		c-0.4,0.7-0.6,1.6-0.5,2.4L230.8,118.1z M242.2,122.2c-1.1,0-2.1-0.4-2.8-1.2c-0.7-0.8-1.1-1.9-1-3.1v-0.3c0-1.1,0.3-2.2,1.1-3
		c0.6-0.8,1.6-1.2,2.5-1.2c1-0.1,1.9,0.3,2.6,1c0.6,0.8,0.9,1.8,0.9,2.8v1h-5.5l0,0c0,0.7,0.2,1.4,0.6,2c0.4,0.5,1,0.8,1.7,0.8
		c0.5,0,0.9-0.1,1.4-0.2c0.4-0.1,0.7-0.3,1-0.6l0.6,1c-0.3,0.3-0.8,0.6-1.2,0.7C243.4,122.1,242.8,122.2,242.2,122.2L242.2,122.2z
		 M241.9,114.6c-0.5,0-1,0.2-1.3,0.7c-0.4,0.5-0.6,1-0.7,1.6l0,0h3.9v-0.2c0-0.5-0.2-1.1-0.5-1.5C243,114.8,242.5,114.6,241.9,114.6
		z"/>
	<path id="Trazado_115092" class="st3" d="M537,109.4v4.6h-1.5v-11.4h4.4c1-0.1,2,0.3,2.8,0.9c0.7,0.6,1,1.5,1,2.5
		c0,0.9-0.3,1.8-1,2.5c-0.8,0.7-1.8,1-2.8,0.9H537z M537,108.2h2.8c0.6,0.1,1.3-0.2,1.7-0.6c0.4-0.4,0.6-1,0.6-1.6
		c0-0.6-0.2-1.1-0.6-1.6c-0.5-0.5-1.1-0.7-1.7-0.6H537V108.2z M549.5,106.9l-0.8,0c-0.4,0-0.7,0.1-1,0.3c-0.3,0.2-0.5,0.5-0.6,0.8v6
		h-1.5v-8.5h1.4l0.1,1.2c0.2-0.4,0.5-0.8,0.9-1c0.4-0.2,0.8-0.4,1.2-0.4c0.1,0,0.2,0,0.3,0c0.1,0,0.2,0,0.3,0.1L549.5,106.9z
		 M550.4,109.7c0-1.1,0.3-2.2,1-3.1c1.4-1.5,3.8-1.6,5.3-0.2c0.1,0.1,0.1,0.1,0.2,0.2c0.7,0.9,1.1,2,1,3.1v0.2c0,1.1-0.3,2.2-1,3.1
		c-1.4,1.5-3.8,1.6-5.3,0.2c-0.1-0.1-0.1-0.1-0.2-0.2c-0.7-0.9-1.1-2-1-3.1L550.4,109.7z M552,109.9c0,0.8,0.2,1.5,0.6,2.2
		c0.6,0.9,1.9,1.2,2.9,0.5c0.2-0.1,0.4-0.3,0.5-0.5c0.4-0.7,0.6-1.4,0.6-2.2v-0.2c0-0.8-0.2-1.5-0.6-2.2c-0.4-0.6-1-0.9-1.7-0.9
		c-0.7,0-1.3,0.3-1.7,0.9c-0.4,0.7-0.6,1.4-0.6,2.2L552,109.9z M559.5,109.9c-0.1-1.2,0.2-2.3,0.9-3.3c0.5-0.8,1.5-1.3,2.4-1.2
		c0.5,0,0.9,0.1,1.3,0.3c0.4,0.2,0.7,0.5,1,0.8v-4.7h1.5V114h-1.3l-0.2-1c-0.3,0.4-0.6,0.7-1,0.9c-0.4,0.2-0.9,0.3-1.4,0.3
		c-0.9,0-1.8-0.4-2.4-1.1c-0.6-0.9-0.9-1.9-0.9-2.9L559.5,109.9z M561.1,110.1c0,0.7,0.1,1.4,0.5,2.1c0.4,0.5,1,0.8,1.6,0.8
		c0.4,0,0.8-0.1,1.2-0.3c0.3-0.2,0.6-0.5,0.8-0.9v-4c-0.2-0.3-0.4-0.6-0.8-0.8c-0.3-0.2-0.7-0.3-1.1-0.3c-0.7,0-1.3,0.3-1.6,0.9
		c-0.4,0.7-0.6,1.6-0.5,2.4L561.1,110.1z M574.3,112.8c-0.2,0.4-0.6,0.8-1,1.1c-0.4,0.3-0.9,0.4-1.4,0.4c-0.8,0-1.6-0.3-2.2-0.9
		c-0.6-0.8-0.9-1.8-0.8-2.8v-5h1.5v5c-0.1,0.6,0.1,1.3,0.4,1.9c0.3,0.4,0.8,0.5,1.2,0.5c0.5,0,0.9-0.1,1.4-0.3
		c0.4-0.2,0.6-0.6,0.8-0.9v-6.1h1.5v8.5h-1.4L574.3,112.8z M581.5,112.9c0.5,0,1-0.2,1.3-0.5c0.4-0.3,0.6-0.7,0.6-1.2h1.4l0,0
		c0,0.8-0.4,1.5-1,1.9c-0.7,0.6-1.5,0.9-2.4,0.9c-1.1,0.1-2.1-0.4-2.8-1.2c-0.7-0.9-1-1.9-1-3v-0.3c0-1.1,0.3-2.2,1-3
		c1.4-1.5,3.7-1.6,5.2-0.3c0.6,0.5,0.9,1.3,0.9,2.1l0,0h-1.4c0-0.5-0.2-1-0.5-1.3c-0.4-0.4-0.9-0.6-1.4-0.5
		c-0.7-0.1-1.4,0.3-1.7,0.9c-0.4,0.7-0.5,1.4-0.5,2.1v0.3c0,0.8,0.2,1.5,0.5,2.2C580.1,112.7,580.8,113,581.5,112.9L581.5,112.9z
		 M590.1,114.2c-1.1,0-2.1-0.4-2.8-1.2c-0.7-0.8-1.1-1.9-1-3.1v-0.3c0-1.1,0.3-2.2,1.1-3c0.6-0.8,1.6-1.2,2.5-1.2
		c1-0.1,1.9,0.3,2.6,1c0.6,0.8,0.9,1.8,0.9,2.8v1h-5.5l0,0c0,0.7,0.2,1.4,0.6,2c0.4,0.5,1,0.8,1.7,0.8c0.5,0,0.9-0.1,1.4-0.2
		c0.4-0.1,0.7-0.3,1-0.6l0.6,1c-0.3,0.3-0.8,0.6-1.2,0.7C591.3,114.1,590.7,114.2,590.1,114.2L590.1,114.2z M589.8,106.6
		c-0.5,0-1,0.2-1.3,0.7c-0.4,0.5-0.6,1-0.7,1.6l0,0h3.9v-0.2c0-0.5-0.2-1.1-0.5-1.5C590.9,106.8,590.4,106.6,589.8,106.6z"/>
	<polygon class="st1" points="695.9,43.5 697.9,43.5 697.9,43.5 695.6,45.8 694.3,45.8 	"/>
</g>
</svg>
