<svg xmlns="http://www.w3.org/2000/svg" width="420.683" height="389.996" viewBox="0 0 420.683 389.996">
  <g id="Grupo_50735" data-name="Grupo 50735" transform="translate(-103.958 -2759.521)">
    <g id="freepik--background-simple--inject-16">
      <path id="Trazado_112821" data-name="Trazado 112821" d="M128.2,2999.181c16.93,80.88,82.76,126.03,131.66,121.32s85.57,39.51,166.45,11.29,117.55-131.66,88.4-168.34-31.96-90.29-62.06-135.42-105.32-85.59-197.49-61.13-117.56,87.46-117.56,87.46C123.5,2882.571,111.27,2918.3,128.2,2999.181Z" fill="#36c"/>
      <path id="Trazado_112822" data-name="Trazado 112822" d="M491,2862.606s-25.39-63-117.56-87.46-167.39,16-197.49,61.13-32.91,98.74-62.06,135.42,7.52,140.12,88.4,168.34,117.55-16,166.45-11.29,114.73-40.44,131.66-121.32S505.1,2890.816,491,2862.606Z" fill="#7cc5ff" opacity="0.7" style="isolation: isolate"/>
    </g>
    <g id="freepik--Symbol--inject-16">
      <circle id="Elipse_4033" data-name="Elipse 4033" cx="176.8" cy="176.8" r="176.8" transform="translate(126.769 2776.843)" fill="none" stroke="#ea3065" stroke-miterlimit="10" stroke-width="29"/>
      <line id="Línea_199" data-name="Línea 199" y1="149.53" x2="312.22" transform="translate(141.819 2871.823)" fill="none" stroke="#ea3065" stroke-miterlimit="10" stroke-width="29"/>
    </g>
    <g id="freepik--Plants--inject-16">
      <path id="Trazado_112823" data-name="Trazado 112823" d="M438.979,3048.743c1.6.69,5.5.61,5.51.61s-.84-2.56-.92-2.72c-.85-1.79-3.57-4.75-5.77-4.46a2.651,2.651,0,0,0-2.177,3.051c.015.087.034.173.057.259C436.049,3047,437.649,3048.143,438.979,3048.743Z" fill="#12263f"/>
      <path id="Trazado_112824" data-name="Trazado 112824" d="M440.329,3060.073c1.65.24,5.14-.77,5.42-.86a44.985,44.985,0,0,0,2.12,5.86c.47,1.11,1,2.21,1.53,3.31-.32-.46-.61-.88-.66-.93-1.3-1.5-4.7-3.65-6.74-2.77a2.629,2.629,0,0,0-1.3,3.483,2.731,2.731,0,0,0,.134.257c.75,1.38,2.57,2.06,4,2.27a17.8,17.8,0,0,0,5.27-.81l.62,1.26,3,6c.33.71.62,1.41.93,2.11l-.57-.81c-1.3-1.5-4.7-3.64-6.75-2.77a2.64,2.64,0,0,0-1.294,3.5c.037.081.079.161.124.238.76,1.38,2.57,2.06,4,2.28a17.032,17.032,0,0,0,5.13-.77c.29.73.58,1.46.83,2.18.15.49.34,1,.47,1.47s.28,1,.41,1.48c.23.95.47,1.93.67,2.86.15.65.27,1.27.4,1.9-.32-.71-1-2.07-1.05-2.18-1.06-1.68-4.09-4.31-6.25-3.76a2.63,2.63,0,0,0-1.813,3.247,2.6,2.6,0,0,0,.093.273c.54,1.48,2.23,2.43,3.65,2.86s5,0,5.46,0c.2,1,.4,2,.56,3,.34,1.94.61,3.69.81,5.2h1.46c-.25-1.57-.57-3.4-1-5.44-.21-1.05-.45-2.17-.71-3.32a28.013,28.013,0,0,0,3.05-1.43,19.468,19.468,0,0,0,4.43,2.86c-.39,1-.79,1.92-1.18,2.81-.73,1.69-1.43,3.2-2.06,4.52h1.56c.54-1.2,1.12-2.53,1.72-4,.41-1,.82-2.06,1.24-3.16.42.09,3.85.78,5.44.42a5.311,5.311,0,0,0,3.85-2.58,2.63,2.63,0,0,0-1.184-3.526,2.59,2.59,0,0,0-.266-.114c-2.11-.71-5.33,1.69-6.51,3.29-.07.09-.71,1.2-1.11,1.91l.51-1.35c.33-.92.64-1.85,1-2.84.14-.49.29-1,.44-1.48s.26-1,.4-1.54c.28-1.2.51-2.44.72-3.69.81.29,3.68,1.29,5.17,1.19s3.34-.65,4.19-2a2.64,2.64,0,0,0-.65-3.677c-.074-.051-.151-.1-.23-.143-2-1-5.53.86-6.94,2.27-.09.08-1,1.2-1.47,1.83.12-.75.24-1.5.34-2.27.27-2.21.48-4.45.7-6.69l.21-2.05c.29.11,3.68,1.37,5.34,1.26,1.49-.11,3.34-.65,4.2-2a2.64,2.64,0,0,0-.65-3.677c-.074-.051-.151-.1-.23-.143-2-1-5.53.86-6.94,2.26-.11.11-1.4,1.72-1.7,2.15.16-1.51.33-3,.56-4.47a45.4,45.4,0,0,1,1.28-5.88c.13,0,3.66,1.38,5.37,1.26,1.48-.1,3.34-.65,4.2-2a2.629,2.629,0,0,0-.639-3.664,2.452,2.452,0,0,0-.251-.156c-2-1-5.52.86-6.93,2.26-.11.11-1.5,1.85-1.73,2.18l.09-.34a33.719,33.719,0,0,1,2.33-5.57c.51-1,1.05-1.91,1.59-2.79.63.32,3.54,1.73,5.09,1.79s3.39-.28,4.38-1.49a2.64,2.64,0,0,0-.239-3.726,2.474,2.474,0,0,0-.221-.174c-1.85-1.23-5.58.25-7.14,1.49-.08.07-.87.85-1.43,1.42.25-.39.5-.8.75-1.18.94-1.4,1.87-2.63,2.72-3.71.48-.61.93-1.15,1.35-1.65.78,0,3.94-.11,5.31-.76s2.88-1.81,3.21-3.34a2.64,2.64,0,0,0-1.927-3.2c-.09-.022-.181-.039-.273-.052-2.22-.24-4.85,2.8-5.66,4.61-.07.16-.88,2.74-.84,2.74h.05c-.42.48-.86,1-1.34,1.56-.86,1.07-1.83,2.28-2.8,3.67a45.534,45.534,0,0,0-2.9,4.62,34.257,34.257,0,0,0-2.48,5.58c0,.023,0,.046,0,.07v-2.61c-.25-2-1.9-5.63-4.09-6a2.64,2.64,0,0,0-2.978,2.251c-.011.076-.018.152-.022.229-.13,1.57,1,3.13,2.11,4.12s4.72,2.2,5,2.29a48.087,48.087,0,0,0-1.46,6c-.21,1.2-.39,2.4-.55,3.61v-1.14c-.26-2-1.91-5.63-4.1-6a2.64,2.64,0,0,0-2.978,2.251c-.011.076-.018.152-.022.229-.13,1.56,1,3.13,2.12,4.12a17.235,17.235,0,0,0,4.84,2.23l-.18,1.4c-.26,2.23-.52,4.47-.84,6.65-.11.76-.25,1.52-.39,2.27v-1c-.26-2-1.91-5.63-4.1-6a2.639,2.639,0,0,0-2.978,2.251c-.011.076-.018.152-.022.229-.13,1.56,1,3.13,2.12,4.12a16.7,16.7,0,0,0,4.7,2.19c-.17.76-.33,1.53-.52,2.27-.14.5-.24,1-.41,1.49l-.48,1.46c-.33.92-.67,1.87-1,2.76-.24.62-.48,1.2-.71,1.8.12-.77.32-2.27.32-2.39a10.259,10.259,0,0,0-1.37-5,2.908,2.908,0,0,0,0-.59,2.65,2.65,0,0,0-2.977-2.277c-.085.012-.169.027-.253.047-2.15.57-3.51,4.35-3.62,6.34,0,.11.08,1.39.14,2.2-.11-.47-.21-.93-.33-1.41-.22-.95-.48-1.89-.75-2.91-.14-.48-.29-1-.44-1.47s-.35-1-.52-1.51c-.43-1.16-.91-2.32-1.43-3.47a17.562,17.562,0,0,0,5-1.86c1.18-.91,2.43-2.39,2.42-4a2.64,2.64,0,0,0-2.57-2.708,2.608,2.608,0,0,0-.28.008c-2.21.24-4.13,3.77-4.53,5.72,0,.12-.16,1.55-.22,2.34-.31-.7-.63-1.39-1-2.08-1-2-2.05-4-3.1-6-.33-.61-.64-1.22-1-1.83.3-.07,3.82-.89,5.15-1.9a5.23,5.23,0,0,0,2.41-4,2.639,2.639,0,0,0-2.571-2.707c-.09,0-.179,0-.269.007-2.22.24-4.14,3.77-4.54,5.72,0,.14-.21,2.2-.24,2.73-.69-1.35-1.38-2.69-2-4a46.388,46.388,0,0,1-2.18-5.61c.14,0,3.82-.87,5.18-1.91,1.18-.91,2.43-2.39,2.42-4a2.65,2.65,0,0,0-2.592-2.707,2.529,2.529,0,0,0-.258.007c-2.21.24-4.13,3.77-4.54,5.72,0,.15-.23,2.36-.23,2.77a3.44,3.44,0,0,1-.12-.34,34.233,34.233,0,0,1-1.13-5.92c-.12-1.11-.18-2.17-.21-3.21.7-.08,3.9-.51,5.23-1.31a5.429,5.429,0,0,0,2.84-3.67,2.639,2.639,0,0,0-2.254-2.976,2.29,2.29,0,0,0-.286-.024c-2.22,0-4.52,3.29-5.13,5.18,0,.1-.26,1.19-.41,2v-1.4c0-1.69.11-3.23.21-4.59.07-.78.14-1.48.22-2.13.65-.45,3.22-2.26,4-3.56s1.41-3.1.83-4.56a2.63,2.63,0,0,0-3.355-1.605,2.458,2.458,0,0,0-.275.115c-2,1-2.49,5-2.17,7,0,.17.78,2.77.81,2.75h0c-.09.63-.17,1.3-.25,2-.14,1.37-.28,2.91-.32,4.6a48.752,48.752,0,0,0,.13,5.46,36.18,36.18,0,0,0,1,6v.07c-.35-.55-1.38-2.06-1.48-2.17-1.3-1.5-4.69-3.64-6.74-2.77a2.629,2.629,0,0,0-1.3,3.483,2.708,2.708,0,0,0,.134.257C437.039,3059.163,438.859,3059.843,440.329,3060.073Z" fill="#12263f"/>
      <path id="Trazado_112825" data-name="Trazado 112825" d="M478.509,3049.593s.71-2.59.73-2.76c.28-2-.35-5.94-2.35-6.91a2.642,2.642,0,0,0-3.59,1.59c-.54,1.48.14,3.29,1,4.54C475.2,3047.513,478.509,3049.593,478.509,3049.593Z" fill="#12263f"/>
      <path id="Trazado_112826" data-name="Trazado 112826" d="M152.649,3069.073a11.312,11.312,0,0,0,3.3.37s-.5-1.54-.55-1.63c-.51-1.07-2.14-2.85-3.46-2.67a1.59,1.59,0,0,0-1.308,1.829,1.69,1.69,0,0,0,.038.171A3.323,3.323,0,0,0,152.649,3069.073Z" fill="#12263f"/>
      <path id="Trazado_112827" data-name="Trazado 112827" d="M153.489,3075.833a11.192,11.192,0,0,0,3.25-.51,29.113,29.113,0,0,0,1.26,3.51c.29.66.6,1.32.92,2l-.39-.56c-.78-.9-2.82-2.18-4-1.66a1.57,1.57,0,0,0-.785,2.077,1.663,1.663,0,0,0,.085.163,3.292,3.292,0,0,0,2.42,1.37,10.315,10.315,0,0,0,3.16-.49c.12.25.24.51.37.76.61,1.2,1.22,2.4,1.78,3.6.19.42.37.84.56,1.27l-.34-.49c-.78-.9-2.82-2.18-4-1.66a1.579,1.579,0,0,0-.775,2.1,1.535,1.535,0,0,0,.075.145,3.253,3.253,0,0,0,2.42,1.36,9.837,9.837,0,0,0,3.08-.46c.17.44.34.88.49,1.31a7.608,7.608,0,0,1,.28.88c.07.3.17.6.25.89.14.57.28,1.16.4,1.72.09.38.16.76.24,1.13-.19-.42-.59-1.24-.63-1.3-.63-1-2.45-2.59-3.74-2.26a1.581,1.581,0,0,0-1.049,1.973c.015.046.031.092.049.137a3.325,3.325,0,0,0,2.19,1.72,11.2,11.2,0,0,0,3.27,0c.13.62.24,1.22.34,1.79.21,1.16.36,2.21.49,3.12h.87c-.15-.94-.34-2-.58-3.26-.12-.63-.27-1.3-.42-2a16.7,16.7,0,0,0,1.82-.86,11.47,11.47,0,0,0,2.66,1.72c-.24.58-.47,1.15-.71,1.68-.44,1-.86,1.92-1.23,2.71h.93c.32-.72.67-1.52,1-2.4.25-.59.5-1.23.74-1.89a10.932,10.932,0,0,0,3.27.25,3.331,3.331,0,0,0,2.31-1.54,1.579,1.579,0,0,0-.711-2.118,1.714,1.714,0,0,0-.169-.072c-1.26-.42-3.19,1-3.9,2,0,.06-.43.72-.66,1.15l.3-.81c.2-.55.39-1.11.59-1.71.09-.29.17-.58.26-.88s.16-.61.24-.92c.17-.73.31-1.47.44-2.21a10.593,10.593,0,0,0,3.09.71,3.34,3.34,0,0,0,2.52-1.18,1.59,1.59,0,0,0-.4-2.212q-.062-.042-.126-.078c-1.19-.61-3.31.51-4.16,1.36,0,.05-.59.72-.88,1.09.07-.45.14-.9.2-1.36.17-1.32.29-2.66.42-4,0-.41.09-.82.13-1.23a11.126,11.126,0,0,0,3.2.75,3.311,3.311,0,0,0,2.52-1.18,1.59,1.59,0,0,0-.4-2.212q-.062-.042-.126-.078c-1.19-.61-3.32.52-4.16,1.36a13.493,13.493,0,0,0-1,1.28c.09-.9.2-1.8.33-2.68a27.819,27.819,0,0,1,.77-3.52,11.027,11.027,0,0,0,3.22.75,3.3,3.3,0,0,0,2.52-1.17,1.58,1.58,0,0,0-.387-2.2,1.461,1.461,0,0,0-.143-.089c-1.19-.62-3.32.51-4.16,1.35a16.434,16.434,0,0,0-1,1.31l.06-.21a20.477,20.477,0,0,1,1.39-3.33,14.473,14.473,0,0,1,1-1.67,11.012,11.012,0,0,0,3,1.07,3.322,3.322,0,0,0,2.63-.9,1.579,1.579,0,0,0-.152-2.229,1.28,1.28,0,0,0-.128-.1c-1.11-.74-3.35.15-4.28.89l-.86.85c.15-.23.3-.48.45-.7.56-.84,1.12-1.58,1.63-2.23l.81-1a10.893,10.893,0,0,0,3.19-.45,3.339,3.339,0,0,0,1.92-2,1.58,1.58,0,0,0-1.16-1.91,1.376,1.376,0,0,0-.16-.03c-1.33-.15-2.91,1.67-3.39,2.76,0,.1-.53,1.64-.51,1.64h0l-.8.94c-.52.64-1.1,1.36-1.68,2.19a27.311,27.311,0,0,0-1.74,2.78,20.866,20.866,0,0,0-1.48,3.34v-1.52c-.15-1.18-1.14-3.38-2.45-3.62a1.581,1.581,0,0,0-1.812,1.308,1.643,1.643,0,0,0-.018.172,3.372,3.372,0,0,0,1.27,2.48,10.931,10.931,0,0,0,3,1.36,27.914,27.914,0,0,0-.87,3.63c-.13.71-.24,1.44-.33,2.16v-.68c-.15-1.18-1.15-3.37-2.46-3.62a1.59,1.59,0,0,0-1.8,1.341c-.007.049-.012.1-.015.149a3.263,3.263,0,0,0,1.27,2.47,10.5,10.5,0,0,0,2.9,1.34,8.011,8.011,0,0,1-.1.84c-.16,1.33-.32,2.67-.51,4-.07.46-.15.91-.23,1.36v-.59c-.15-1.18-1.14-3.37-2.45-3.62a1.589,1.589,0,0,0-1.813,1.329c-.008.053-.014.107-.017.161a3.332,3.332,0,0,0,1.27,2.47,10.251,10.251,0,0,0,2.82,1.31c-.1.46-.19.92-.31,1.36s-.15.6-.25.89-.19.59-.28.88c-.2.55-.4,1.12-.61,1.66l-.43,1.07c.07-.45.19-1.35.19-1.43a6.071,6.071,0,0,0-.82-3,1.861,1.861,0,0,0,0-.35,1.58,1.58,0,0,0-1.765-1.37,1.628,1.628,0,0,0-.165.03c-1.29.34-2.11,2.61-2.17,3.8a9.891,9.891,0,0,0,.08,1.31c-.07-.28-.13-.55-.2-.84-.13-.57-.28-1.13-.44-1.74l-.27-.88c-.08-.3-.21-.6-.31-.91-.26-.69-.55-1.39-.86-2.08a10.135,10.135,0,0,0,3-1.12,3.256,3.256,0,0,0,1.45-2.37,1.57,1.57,0,0,0-1.524-1.615,1.467,1.467,0,0,0-.176,0c-1.33.14-2.48,2.25-2.72,3.42,0,.07-.1.93-.13,1.4-.19-.41-.38-.83-.58-1.24-.6-1.2-1.23-2.39-1.86-3.58-.2-.36-.39-.73-.58-1.09a11,11,0,0,0,2.81-1.14,3.308,3.308,0,0,0,1.45-2.37,1.58,1.58,0,0,0-1.534-1.625,1.467,1.467,0,0,0-.176.005c-1.33.14-2.48,2.26-2.72,3.42,0,.09-.13,1.33-.14,1.64-.42-.8-.83-1.61-1.2-2.42a29.208,29.208,0,0,1-1.3-3.36,11,11,0,0,0,3.1-1.15,3.276,3.276,0,0,0,1.45-2.37,1.591,1.591,0,0,0-1.556-1.624c-.048,0-.1,0-.144,0-1.33.15-2.48,2.26-2.72,3.43,0,.09-.14,1.42-.15,1.66a.237.237,0,0,0-.07-.2,21.31,21.31,0,0,1-.67-3.55c-.08-.67-.11-1.3-.13-1.93a10.676,10.676,0,0,0,3.14-.78,3.31,3.31,0,0,0,1.7-2.2,1.59,1.59,0,0,0-1.365-1.787,1.554,1.554,0,0,0-.155-.013c-1.34,0-2.71,2-3.08,3.11,0,.06-.16.71-.25,1.19v-.84c0-1,.07-1.94.13-2.75a9.537,9.537,0,0,1,.13-1.28,10.706,10.706,0,0,0,2.41-2.14,3.288,3.288,0,0,0,.49-2.73,1.579,1.579,0,0,0-2.021-.952c-.051.018-.1.039-.149.062-1.19.61-1.5,3-1.3,4.17,0,.11.46,1.66.48,1.65h0c-.05.38-.1.78-.15,1.23-.08.82-.16,1.74-.19,2.75a30.942,30.942,0,0,0,.08,3.28,20.814,20.814,0,0,0,.61,3.61h0c-.21-.33-.83-1.23-.88-1.3-.78-.9-2.82-2.18-4-1.66a1.59,1.59,0,0,0-.772,2.112q.033.071.072.138A3.328,3.328,0,0,0,153.489,3075.833Z" fill="#12263f"/>
      <path id="Trazado_112828" data-name="Trazado 112828" d="M176.369,3069.563s.43-1.56.44-1.66c.17-1.18-.21-3.56-1.41-4.14a1.58,1.58,0,0,0-2.089.793,1.656,1.656,0,0,0-.061.157,3.323,3.323,0,0,0,.57,2.72A11.36,11.36,0,0,0,176.369,3069.563Z" fill="#12263f"/>
    </g>
    <g id="freepik--Floor--inject-16">
      <line id="Línea_200" data-name="Línea 200" x2="70.22" transform="translate(435.569 3099.733)" fill="none" stroke="#263238" stroke-miterlimit="10" stroke-width="1"/>
      <line id="Línea_201" data-name="Línea 201" x2="220.69" transform="translate(127.739 3099.733)" fill="none" stroke="#263238" stroke-miterlimit="10" stroke-width="1"/>
    </g>
    <g id="freepik--Bricks--inject-16">
      <rect id="Rectángulo_28638" data-name="Rectángulo 28638" width="14.37" height="19.07" transform="translate(392.309 3084.503)" fill="none" stroke="#263238" stroke-miterlimit="10" stroke-width="1"/>
      <rect id="Rectángulo_28639" data-name="Rectángulo 28639" width="28.73" height="19.07" transform="translate(406.589 3084.503)" fill="none" stroke="#263238" stroke-miterlimit="10" stroke-width="1"/>
      <rect id="Rectángulo_28640" data-name="Rectángulo 28640" width="21.64" height="13.84" transform="translate(370.109 3089.093)" fill="none" stroke="#263238" stroke-miterlimit="10" stroke-width="1"/>
      <rect id="Rectángulo_28641" data-name="Rectángulo 28641" width="21.64" height="13.84" transform="translate(348.179 3089.093)" fill="none" stroke="#263238" stroke-miterlimit="10" stroke-width="1"/>
      <rect id="Rectángulo_28642" data-name="Rectángulo 28642" width="29.29" height="13.84" transform="translate(354.219 3075.403)" fill="none" stroke="#263238" stroke-miterlimit="10" stroke-width="1"/>
      <line id="Línea_202" data-name="Línea 202" x2="6.33" transform="translate(383.509 3075.403)" fill="none" stroke="#263238" stroke-miterlimit="10" stroke-width="1"/>
      <path id="Trazado_112829" data-name="Trazado 112829" d="M381.449,3065.983l16.48,17.81,6.77-13.25-17.66-16.63Z" fill="none" stroke="#263238" stroke-miterlimit="10" stroke-width="1"/>
      <path id="Trazado_112830" data-name="Trazado 112830" d="M404.7,3070.543l10.01.15-6.92,13.69" fill="none" stroke="#263238" stroke-miterlimit="10" stroke-width="1"/>
      <path id="Trazado_112831" data-name="Trazado 112831" d="M414.709,3070.693l-16.04-17.96-11.63.59" fill="none" stroke="#263238" stroke-miterlimit="10" stroke-width="1"/>
      <path id="Trazado_112832" data-name="Trazado 112832" d="M410.589,3066.423l12.95-7.8,10.75,9.86-22.38,15.9" fill="none" stroke="#263238" stroke-miterlimit="10" stroke-width="1"/>
      <path id="Trazado_112833" data-name="Trazado 112833" d="M434.289,3068.483l3.09,8.1-9.86,7.36" fill="none" stroke="#263238" stroke-miterlimit="10" stroke-width="1"/>
      <path id="Trazado_112834" data-name="Trazado 112834" d="M383.509,3061.423h-18.25v13.83" fill="none" stroke="#263238" stroke-miterlimit="10" stroke-width="1"/>
    </g>
    <g id="freepik--Character--inject-16">
      <path id="Trazado_112835" data-name="Trazado 112835" d="M272.529,3020.313l1.19,19.82s-1.19,11.1.4,15.85,2.38,53.52,2.38,53.52-11.1,7.53-15.07,9.91-2.37,7.13-2.37,7.13l1.58.8a8.761,8.761,0,0,0,5.16,2.77c3.17.4,6.73-2,9.11-2.38s5.16-4.36,6.74-5.55,8.72-5.15,8.72-8.32-2.38-9.12-2.38-12.69,1.59-23.78,3.17-27.74,4.37-14.67,3.18-23.39a188.109,188.109,0,0,1-1.18-20.82l1.49-13.76-23.67-.31Z" fill="#ffbea7" stroke="#263238" stroke-miterlimit="10" stroke-width="1"/>
      <path id="Trazado_112836" data-name="Trazado 112836" d="M270.949,3015.153l1.58,5.16.49,8.11c2,.34,5.15.79,10,1.23a38.238,38.238,0,0,0,10.11-.14v-.29l1.52-13.76Z" fill="#12263f" stroke="#263238" stroke-miterlimit="10" stroke-width="1"/>
      <path id="Trazado_112837" data-name="Trazado 112837" d="M268.359,3124.263a26.643,26.643,0,0,0-2.92,1.87c-1,.84-2.21,2.12.36,4" fill="none" stroke="#263238" stroke-miterlimit="10" stroke-width="1"/>
      <path id="Trazado_112838" data-name="Trazado 112838" d="M266.069,3121.763s-5.42,3.75-3.76,6.88" fill="none" stroke="#263238" stroke-miterlimit="10" stroke-width="1"/>
      <path id="Trazado_112839" data-name="Trazado 112839" d="M263.569,3121.343s-4,4.07-2.93,6" fill="none" stroke="#263238" stroke-miterlimit="10" stroke-width="1"/>
      <path id="Trazado_112840" data-name="Trazado 112840" d="M261.479,3121.343a4.211,4.211,0,0,0-2.29,3.13" fill="none" stroke="#263238" stroke-miterlimit="10" stroke-width="1"/>
      <path id="Trazado_112841" data-name="Trazado 112841" d="M263.479,2870.433l-14.11-14.1s6-19.44,7.21-23.2,7.52-17.87,7.52-17.87l-8.45-1.25s-10,12.54-19.44,26.33c-4.5,6.6-8.46,15-7.83,18.18s25.08,28.21,25.08,28.21Z" fill="#ffbea7" stroke="#263238" stroke-miterlimit="10" stroke-width="1"/>
      <path id="Trazado_112842" data-name="Trazado 112842" d="M308.249,3027.953s.7,25.63,1.17,30.8.47,7.06.94,11.05,0,11.76.94,16.93,1.88,17.63.94,22.8-.23,10.35-.23,13.64-2.35,15-2.35,16.22,2.82,2.35,4.93,1.88,3.06-.23,5.18-.94,5.17-1.17,5.88-4-1.65-11.29-1.89-12.93-1.41-12.46-1.17-15,6.35-30.8,7.76-37.85-.71-20.46-.24-24.22,1.65-22.33,1.65-22.33l-24,1.41Z" fill="#ffbea7" stroke="#263238" stroke-miterlimit="10" stroke-width="1"/>
      <path id="Trazado_112843" data-name="Trazado 112843" d="M308.249,3027.953s.07,2.52.18,6.14c4.74,1,12.47,1.47,22.78-1.89.31-4.48.55-8.24.55-8.24l-24,1.41Z" fill="#12263f" stroke="#263238" stroke-miterlimit="10" stroke-width="1"/>
      <path id="Trazado_112844" data-name="Trazado 112844" d="M314.589,3141.273s1.89,0,2.12-.94a13.284,13.284,0,0,0-.23-3.52" fill="none" stroke="#263238" stroke-miterlimit="10" stroke-width="1"/>
      <path id="Trazado_112845" data-name="Trazado 112845" d="M318.789,3140.713s.81-.63.87-1.25-.12-2.94-.12-2.94" fill="none" stroke="#263238" stroke-miterlimit="10" stroke-width="1"/>
      <path id="Trazado_112846" data-name="Trazado 112846" d="M321.909,3139.713a3.124,3.124,0,0,0,.26-1.25,15.79,15.79,0,0,0-.19-2.57" fill="none" stroke="#263238" stroke-miterlimit="10" stroke-width="1"/>
      <path id="Trazado_112847" data-name="Trazado 112847" d="M324.229,3138.463a12.441,12.441,0,0,0-.19-3.13" fill="none" stroke="#263238" stroke-miterlimit="10" stroke-width="1"/>
      <path id="Trazado_112848" data-name="Trazado 112848" d="M264.259,2962.433l-.39,2.66-7.94,54.43s16.25,5.94,27,5.94h12.68l.4,3.17s11.89,3.17,29.33,1.19,24.58-8.32,24.58-8.32l-9.51-60.26-53.16-27.74-21.41,9.91Z" fill="#fff" stroke="#263238" stroke-miterlimit="10" stroke-width="1"/>
      <line id="Línea_203" data-name="Línea 203" x1="5.87" y2="14.08" transform="translate(300.619 3005.233)" fill="none" stroke="#263238" stroke-miterlimit="10" stroke-width="0.5"/>
      <line id="Línea_204" data-name="Línea 204" x1="4.31" y2="12.52" transform="translate(303.359 3009.143)" fill="none" stroke="#263238" stroke-miterlimit="10" stroke-width="0.5"/>
      <line id="Línea_205" data-name="Línea 205" x2="8.21" y2="5.08" transform="translate(302.189 3008.753)" fill="none" stroke="#263238" stroke-miterlimit="10" stroke-width="0.5"/>
      <line id="Línea_206" data-name="Línea 206" x2="7.43" y2="3.91" transform="translate(301.799 3013.443)" fill="none" stroke="#263238" stroke-miterlimit="10" stroke-width="0.5"/>
      <line id="Línea_207" data-name="Línea 207" x1="2.38" y1="37.27" transform="translate(292.399 2986.613)" fill="none" stroke="#263238" stroke-miterlimit="10" stroke-width="1"/>
      <line id="Línea_208" data-name="Línea 208" x1="10.31" y2="27.75" transform="translate(277.729 2980.673)" fill="none" stroke="#263238" stroke-miterlimit="10" stroke-width="1"/>
      <path id="Trazado_112849" data-name="Trazado 112849" d="M315.129,3004.383c.85.59,1.74,1.15,2.64,1.66" fill="none" stroke="#263238" stroke-miterlimit="10" stroke-width="1"/>
      <path id="Trazado_112850" data-name="Trazado 112850" d="M297.949,2985.073a69.285,69.285,0,0,0,12.49,15.61" fill="none" stroke="#263238" stroke-miterlimit="10" stroke-width="1"/>
      <path id="Trazado_112851" data-name="Trazado 112851" d="M288.549,2882.973l-20.06-8.15-7.21-7.52-14.42,25.08,19.12,15-4.7,26-6.58,28.84s4.07,8.15,8.78,11.6,16.61,9.09,16.61,9.09,4.7-16.3,4.7-17.87,2.86-18.12,2.86-18.12l5,36.36s16.3.94,30.09-4.39,23.51-10,23.51-10-8.15-46.39-8.46-47.33-2.51-17.56-2.51-17.56l14.74-5.64-11.29-34.17-7.84,5a43.932,43.932,0,0,0-10,5.33,45.136,45.136,0,0,0-7.52,6.89l-6.27,1.57h-18.55Z" fill="#69f" stroke="#263238" stroke-miterlimit="10" stroke-width="1"/>
      <line id="Línea_209" data-name="Línea 209" x1="4.16" y2="9.99" transform="translate(314.889 2931.673)" fill="none" stroke="#263238" stroke-miterlimit="10" stroke-width="0.5"/>
      <line id="Línea_210" data-name="Línea 210" x1="3.05" y2="8.88" transform="translate(316.829 2934.453)" fill="none" stroke="#263238" stroke-miterlimit="10" stroke-width="0.5"/>
      <line id="Línea_211" data-name="Línea 211" x2="5.83" y2="3.61" transform="translate(315.999 2934.173)" fill="none" stroke="#263238" stroke-miterlimit="10" stroke-width="0.5"/>
      <line id="Línea_212" data-name="Línea 212" x2="5.27" y2="2.77" transform="translate(315.719 2937.503)" fill="none" stroke="#263238" stroke-miterlimit="10" stroke-width="0.5"/>
      <line id="Línea_213" data-name="Línea 213" x1="4.16" y2="9.99" transform="translate(270.619 2921.033)" fill="none" stroke="#263238" stroke-miterlimit="10" stroke-width="0.5"/>
      <line id="Línea_214" data-name="Línea 214" x1="3.05" y2="8.87" transform="translate(272.559 2923.813)" fill="none" stroke="#263238" stroke-miterlimit="10" stroke-width="0.5"/>
      <line id="Línea_215" data-name="Línea 215" x2="5.82" y2="3.61" transform="translate(271.729 2923.533)" fill="none" stroke="#263238" stroke-miterlimit="10" stroke-width="0.5"/>
      <line id="Línea_216" data-name="Línea 216" x2="5.27" y2="2.77" transform="translate(271.449 2926.863)" fill="none" stroke="#263238" stroke-miterlimit="10" stroke-width="0.5"/>
      <line id="Línea_217" data-name="Línea 217" x1="4.16" y2="9.99" transform="translate(319.999 2934.233)" fill="none" stroke="#263238" stroke-miterlimit="10" stroke-width="0.5"/>
      <line id="Línea_218" data-name="Línea 218" x1="3.05" y2="8.88" transform="translate(321.939 2937.003)" fill="none" stroke="#263238" stroke-miterlimit="10" stroke-width="0.5"/>
      <line id="Línea_219" data-name="Línea 219" x2="5.82" y2="3.6" transform="translate(321.109 2936.733)" fill="none" stroke="#263238" stroke-miterlimit="10" stroke-width="0.5"/>
      <line id="Línea_220" data-name="Línea 220" x2="5.27" y2="2.78" transform="translate(320.829 2940.053)" fill="none" stroke="#263238" stroke-miterlimit="10" stroke-width="0.5"/>
      <path id="Trazado_112852" data-name="Trazado 112852" d="M330.869,2869.183a70.215,70.215,0,0,0,0,26.64" fill="none" stroke="#263238" stroke-miterlimit="10" stroke-width="1"/>
      <path id="Trazado_112853" data-name="Trazado 112853" d="M328.989,2875.763s-2.19,8.15-2.19,23.2" fill="none" stroke="#263238" stroke-miterlimit="10" stroke-width="1"/>
      <path id="Trazado_112854" data-name="Trazado 112854" d="M268.179,2877.073s1.57,14.73.94,22.25" fill="none" stroke="#263238" stroke-miterlimit="10" stroke-width="1"/>
      <circle id="Elipse_4034" data-name="Elipse 4034" cx="1.25" cy="1.25" r="1.25" transform="translate(288.249 2927.493)" fill="none" stroke="#263238" stroke-miterlimit="10" stroke-width="1"/>
      <circle id="Elipse_4035" data-name="Elipse 4035" cx="1.25" cy="1.25" r="1.25" transform="translate(286.679 2939.403)" fill="none" stroke="#263238" stroke-miterlimit="10" stroke-width="1"/>
      <path id="Trazado_112855" data-name="Trazado 112855" d="M284.789,2877.643l1.26,6.9s-3.76,6.27-3.4,17.53,6.9,21.63,6.9,21.63,3.44-11.6,9.09-17.87,10-20.37,10-20.37l.31-1.25-1.88-1.26-.94-9.4S292.939,2880.463,284.789,2877.643Z" fill="#ffbea7" stroke="#263238" stroke-miterlimit="10" stroke-width="1"/>
      <path id="Trazado_112856" data-name="Trazado 112856" d="M306.579,2878.273l-.47-4.7s-13.17,6.89-21.32,4.07l1.26,6.9a25.241,25.241,0,0,0-2.31,6.28c.76,1.09,2.6,2.05,7-.95C295.4,2886.7,302.469,2881.393,306.579,2878.273Z" fill="#12263f" stroke="#263238" stroke-miterlimit="10" stroke-width="1"/>
      <path id="Trazado_112857" data-name="Trazado 112857" d="M274.649,2842.013s1.39,20,1.39,23.86,7.49,13,9.43,14.71,6.93,3.6,10.54,2.22,16.09-10.82,17.2-13.6a18.974,18.974,0,0,0,1.11-6.1s5.55-.83,6.66-6.38,2.78-8.33-1.11-9.44l-3.88-1.11s1.66-6.1.27-9.15-12.48-2.22-23.86-2.22-18.31,1.94-18.31,1.94Z" fill="#ffbea7" stroke="#263238" stroke-miterlimit="10" stroke-width="1"/>
      <path id="Trazado_112858" data-name="Trazado 112858" d="M285.009,2854.5c0,1.38-.68,2.49-1.52,2.49s-1.53-1.11-1.53-2.49.68-2.5,1.53-2.5S285.009,2853.123,285.009,2854.5Z" fill="#12263f"/>
      <ellipse id="Elipse_4036" data-name="Elipse 4036" cx="1.53" cy="2.5" rx="1.53" ry="2.5" transform="translate(298.219 2852.003)" fill="#12263f"/>
      <path id="Trazado_112859" data-name="Trazado 112859" d="M287.119,2863.933s1.11,2.22,3.05,2.22" fill="none" stroke="#263238" stroke-miterlimit="10" stroke-width="1"/>
      <line id="Línea_221" data-name="Línea 221" x2="4.44" transform="translate(288.789 2871.703)" fill="none" stroke="#263238" stroke-miterlimit="10" stroke-width="1"/>
      <path id="Trazado_112860" data-name="Trazado 112860" d="M278.519,2850.073s3.61-3.33,6.94-1.94" fill="none" stroke="#263238" stroke-miterlimit="10" stroke-width="1"/>
      <path id="Trazado_112861" data-name="Trazado 112861" d="M296.559,2846.733s4.71,1.39,6.65,3.88" fill="none" stroke="#263238" stroke-miterlimit="10" stroke-width="1"/>
      <line id="Línea_222" data-name="Línea 222" x1="4.16" y2="9.98" transform="translate(302.659 2858.943)" fill="none" stroke="#263238" stroke-miterlimit="10" stroke-width="0.5"/>
      <line id="Línea_223" data-name="Línea 223" x1="3.05" y2="8.88" transform="translate(304.599 2861.713)" fill="none" stroke="#263238" stroke-miterlimit="10" stroke-width="0.5"/>
      <line id="Línea_224" data-name="Línea 224" x2="5.83" y2="3.61" transform="translate(303.769 2861.433)" fill="none" stroke="#263238" stroke-miterlimit="10" stroke-width="0.5"/>
      <line id="Línea_225" data-name="Línea 225" x2="5.27" y2="2.78" transform="translate(303.489 2864.763)" fill="none" stroke="#263238" stroke-miterlimit="10" stroke-width="0.5"/>
      <path id="Trazado_112862" data-name="Trazado 112862" d="M276.029,2829.253s-6.39,1.94-10,6.38-1.67,10.27-1.67,10.27l3.89-3.33.83,6.66,5.55-7.22,1.66,6.11a50.993,50.993,0,0,1,6.66-3.61c2.78-1.11,8.88-4.44,8.88-4.44l.28,3.05a20.552,20.552,0,0,1,6.93-1.94,44.188,44.188,0,0,0,9.71-2.77l-2.49,6.93,4.16-.83a14.2,14.2,0,0,0-1.11,5,22.848,22.848,0,0,0,1.11,5.83l3.33-2.5,1.94,4.72,3.05-8,1.11-2.22v-8.87h3.89a14.7,14.7,0,0,0-5.28-8.61c-4.44-3.32-8.87-3-11.37-3s-27.75.84-27.75.84Z" fill="#12263f" stroke="#263238" stroke-miterlimit="10" stroke-width="1"/>
      <path id="Trazado_112863" data-name="Trazado 112863" d="M272.139,2818.433s-3.05,4.16-1.39,6.38,3.06,1.67,3.06,1.67a3,3,0,0,0-.755,4.175,3.066,3.066,0,0,0,.475.535c2.5,2.78,34.12.56,36.34.56s3,.55,4.16-2.22.56-3.89.56-3.89,1.94-3.33.55-5.55-6.38-2.49-6.38-2.49Z" fill="#fff" stroke="#263238" stroke-miterlimit="10" stroke-width="1"/>
      <line id="Línea_226" data-name="Línea 226" x1="17.76" y1="0.27" transform="translate(296.829 2825.373)" fill="none" stroke="#263238" stroke-miterlimit="10" stroke-width="1"/>
      <line id="Línea_227" data-name="Línea 227" x2="8.05" transform="translate(277.409 2825.373)" fill="none" stroke="#263238" stroke-miterlimit="10" stroke-width="1"/>
      <rect id="Rectángulo_28643" data-name="Rectángulo 28643" width="37.73" height="16.09" transform="translate(249.669 2802.063)" fill="#e36099" stroke="#263238" stroke-miterlimit="10" stroke-width="1"/>
      <rect id="Rectángulo_28644" data-name="Rectángulo 28644" width="49.66" height="16.09" transform="translate(287.399 2802.063)" fill="#e36099" stroke="#263238" stroke-miterlimit="10" stroke-width="1"/>
      <rect id="Rectángulo_28645" data-name="Rectángulo 28645" width="20.53" height="16.09" transform="translate(316.529 2802.063)" fill="#ea3065" stroke="#263238" stroke-miterlimit="10" stroke-width="1"/>
      <rect id="Rectángulo_28646" data-name="Rectángulo 28646" width="37.73" height="16.09" transform="translate(252.869 2786.063)" fill="#e36099" stroke="#263238" stroke-miterlimit="10" stroke-width="1"/>
      <rect id="Rectángulo_28647" data-name="Rectángulo 28647" width="49.66" height="16.09" transform="translate(290.599 2786.063)" fill="#e36099" stroke="#263238" stroke-miterlimit="10" stroke-width="1"/>
      <rect id="Rectángulo_28648" data-name="Rectángulo 28648" width="20.53" height="16.09" transform="translate(319.729 2786.063)" fill="#ea3065" stroke="#263238" stroke-miterlimit="10" stroke-width="1"/>
      <rect id="Rectángulo_28649" data-name="Rectángulo 28649" width="49.66" height="16.09" transform="translate(276.729 2769.843)" fill="#e36099" stroke="#263238" stroke-miterlimit="10" stroke-width="1"/>
      <rect id="Rectángulo_28650" data-name="Rectángulo 28650" width="20.53" height="16.09" transform="translate(305.859 2769.843)" fill="#ea3065" stroke="#263238" stroke-miterlimit="10" stroke-width="1"/>
      <path id="Trazado_112864" data-name="Trazado 112864" d="M325.859,2789.873l1.88,6.9s.94,8.77,2.19,10.34a41.539,41.539,0,0,1,3.14,5.33s3.76,21,5,26.64,6,16.93,6,16.93l-5.33,8.15,6.9,20.85s7.52-15.83,9.71-20.85a102.754,102.754,0,0,0,4.71-14.1c.31-1.57-10-23.51-12.54-28.53s-7.21-12.23-7.21-12.23,2.19-15,2.51-16.3-4.08-6.27-4.71-7.21-8.15-1.25-8.15-1.25l-3.54,1.39S324.289,2786.423,325.859,2789.873Z" fill="#ffbea7" stroke="#263238" stroke-miterlimit="10" stroke-width="1"/>
      <path id="Trazado_112865" data-name="Trazado 112865" d="M326.929,2786.133s3.6,4,4.12,5.28a31,31,0,0,1,1,3.74" fill="none" stroke="#263238" stroke-miterlimit="10" stroke-width="1"/>
      <path id="Trazado_112866" data-name="Trazado 112866" d="M330.4,2784.333s3.61,3.86,3.87,5.15,1.29,5,1.29,5" fill="none" stroke="#263238" stroke-miterlimit="10" stroke-width="1"/>
      <path id="Trazado_112867" data-name="Trazado 112867" d="M335.559,2785.233a49.243,49.243,0,0,1,2.83,4.77,33.767,33.767,0,0,1,.9,3.6" fill="none" stroke="#263238" stroke-miterlimit="10" stroke-width="1"/>
    </g>
  </g>
</svg>
