<svg xmlns="http://www.w3.org/2000/svg" xmlns:xlink="http://www.w3.org/1999/xlink" width="165.424" height="162" viewBox="0 0 165.424 162">
  <defs>
    <clipPath id="clip-path">
      <path id="Trazado_112687" data-name="Trazado 112687" d="M180.458,1429.717a45.973,45.973,0,0,1,81.447-29.243c6.559,7.946,51.243,23.369,51.243,46.1,0,26.382-44.505,3.966-50.794,11.83a45.979,45.979,0,0,1-64.835,7.054c-4.056-3.284-23.584,5.232-26.328.766C166.893,1459.235,180.458,1438.527,180.458,1429.717Z" fill="none"/>
    </clipPath>
  </defs>
  <g id="Grupo_53062" data-name="Grupo 53062" transform="translate(6760 7953)">
    <rect id="Rectángulo_28724" data-name="Rectángulo 28724" width="162" height="162" transform="translate(-6760 -7953)" fill="none"/>
    <g id="Grupo_53056" data-name="Grupo 53056" transform="translate(-7134.717 -9246.721) rotate(-9)">
      <circle id="Elipse_4027" data-name="Elipse 4027" cx="45.973" cy="45.973" r="45.973" transform="translate(180.458 1383.744)" fill="#36c"/>
      <g id="Grupo_50679" data-name="Grupo 50679">
        <g id="Grupo_50678" data-name="Grupo 50678" clip-path="url(#clip-path)">
          <g id="Grupo_50677" data-name="Grupo 50677">
            <g id="Grupo_50670" data-name="Grupo 50670">
              <path id="Trazado_112633" data-name="Trazado 112633" d="M249.453,1477.5a3.5,3.5,0,0,0,3.346,1.834c2.287-.235,8.96-4.544,9.492-5.146s-2.895-13.292-3.673-16.545c-.787-3.238-1.13-4.851-1.13-4.851l1.332-.744s-1.421-11.662-7.148-12.154-19.841-.584-19.793-.315-13.843-.14-13.843-.14-7.109,8.135-8.1,11.616,5.721,4.3,5.721,4.3l25.182-.3Z" fill="#a22f5f"/>
              <path id="Trazado_112634" data-name="Trazado 112634" d="M252.355,1476.188c-1.253-2.239-1.229-4.938-1.795-7.374-.783-3.362-1.655-6.688-2.358-10.07-.39-1.885-.807-3.747-1.039-5.642-.94-2.22-.348-5.821-2.456-7.451-2.193-1.69-5.177-2.047-7.862-2.233a66.153,66.153,0,0,0-9.813.126c-3.088.246-6.164.668-9.252.924-1.363.114-2.72.165-4.074.33-1.694,2.249-3.335,4.712-3.774,6.256-.988,3.478,5.721,4.3,5.721,4.3l25.182-.3,8.618,22.446a3.5,3.5,0,0,0,3.346,1.834,8.844,8.844,0,0,0,2.412-.835C254.051,1478.611,252.936,1477.224,252.355,1476.188Z" fill="#a22f5f" opacity="0.5" style="mix-blend-mode: multiply;isolation: isolate"/>
              <g id="Grupo_50668" data-name="Grupo 50668" style="mix-blend-mode: multiply;isolation: isolate">
                <path id="Trazado_112635" data-name="Trazado 112635" d="M258.618,1457.642c-.787-3.238-1.13-4.851-1.13-4.851l1.332-.744s-1.259-10.331-6.181-11.95a3.842,3.842,0,0,0-3.02,3.971c.149,4.878,5.693,32.912,5.921,34.27a41.848,41.848,0,0,0,6.751-4.151C262.821,1473.573,259.4,1460.9,258.618,1457.642Z" fill="#a22f5f" opacity="0.4"/>
              </g>
              <g id="Grupo_50669" data-name="Grupo 50669" opacity="0.4">
                <path id="Trazado_112636" data-name="Trazado 112636" d="M253.542,1450.944s.094.4.253,1.084.4,1.68.653,2.869.569,2.573.871,4.065.612,3.079.936,4.673c.294,1.593.594,3.191.869,4.686s.5,2.9.711,4.1.35,2.2.462,2.907.166,1.107.166,1.107-.1-.4-.262-1.086-.4-1.683-.652-2.865-.564-2.581-.865-4.074-.614-3.081-.936-4.67c-.3-1.6-.593-3.191-.868-4.69s-.5-2.9-.712-4.1-.354-2.2-.467-2.9S253.542,1450.944,253.542,1450.944Z" fill="#430000"/>
              </g>
            </g>
            <path id="Trazado_112637" data-name="Trazado 112637" d="M217.593,1505.663s-6.281,15.628-8.186,27.541-1.513,19.131-2.627,19.6-6.254,1.164-10.585.865-8-.9-8.75,2.445.308,3.434,2.192,4.427,9.277,2.961,15.787,2.577,9.059-1.579,9.323-3.533-.614-6.162-.276-9.357,2.282-21.515,6.107-31.562,3.9-10.552,3.9-10.552Z" fill="#ffbea7"/>
            <path id="Trazado_112638" data-name="Trazado 112638" d="M241.385,1506.982s1.665,6.889,4.008,7.341,10.134-3.7,11.2-4.257-.114-2.463,2.444-3.82,4.133-1.747,5.1-.151a57.389,57.389,0,0,1,4.752,11.925c1.3,4.927,1.545,11.449-.042,12.383s-4.473.5-6.716-5.508-4.208-10.836-4.8-10.458-9.453,7.918-16.184,6.807-8-12.272-8-12.272Z" fill="#ffbea7"/>
            <path id="Trazado_112639" data-name="Trazado 112639" d="M214.81,1547.178a23.94,23.94,0,0,1-4.9-.98,8.342,8.342,0,0,1-1.953-.908c-.392,4.588-.519,7.234-1.181,7.514-1.118.471-6.254,1.164-10.585.865s-8-.9-8.75,2.445.308,3.434,2.192,4.427,9.277,2.961,15.787,2.577,9.059-1.579,9.323-3.533-.614-6.162-.276-9.357C214.532,1549.656,214.642,1548.589,214.81,1547.178Z" fill="#ece9e0"/>
            <path id="Trazado_112640" data-name="Trazado 112640" d="M214.471,1550.228c.061-.572.171-1.639.339-3.05-.461-.033-.926-.1-1.393-.173-.039.679-.089,1.35-.161,2.023-.207,1.948-.234,4.275-1.21,6.016-1.176,2.1-4.084,2.348-6.224,2.28s-8.932-.441-8.924-3.625c-.233-.012-.469-.019-.7-.03-4.322-.3-8-.9-8.75,2.445s.308,3.434,2.192,4.427,9.277,2.961,15.787,2.577,9.059-1.579,9.323-3.533S214.133,1553.423,214.471,1550.228Z" fill="#ece9e0" style="mix-blend-mode: multiply;isolation: isolate"/>
            <path id="Trazado_112641" data-name="Trazado 112641" d="M210.769,1557.153a28.147,28.147,0,0,1-8.919-.044c-1.864-.291-4.64-.641-5.84-2.346a1,1,0,0,1-.171-1.125c-4.171-.306-7.664-.777-8.394,2.476-.755,3.345.308,3.434,2.192,4.427s9.277,2.961,15.787,2.577,9.059-1.579,9.323-3.533a19.438,19.438,0,0,0-.115-3.666A15.775,15.775,0,0,1,210.769,1557.153Z" fill="#70428a"/>
            <path id="Trazado_112642" data-name="Trazado 112642" d="M268.89,1518.02a57.389,57.389,0,0,0-4.752-11.925c-.97-1.6-2.544-1.2-5.1.151s-1.384,3.271-2.444,3.82c-.462.242-2.178,1.149-4.159,2.07a7.74,7.74,0,0,1,1.837,4.546c1.7-1.164,2.851-2.12,3.063-2.245.592-.378,2.561,4.444,4.8,10.458s5.127,6.443,6.716,5.508S270.187,1522.947,268.89,1518.02Z" fill="#ece9e0"/>
            <path id="Trazado_112643" data-name="Trazado 112643" d="M268.89,1518.02a57.389,57.389,0,0,0-4.752-11.925c-.97-1.6-2.544-1.2-5.1.151a3.149,3.149,0,0,0-1.662,1.8c2.857.428,4.617,3.706,4.117,6.812-.239,1.46-1.611,1.3-2.316.195a5.51,5.51,0,0,0-1.127-1.584c-1.04-.693-2.189.417-2.946.929-.373.257-.751.489-1.129.7a14.1,14.1,0,0,1,.3,1.585c1.7-1.164,2.851-2.12,3.063-2.245.592-.378,2.561,4.444,4.8,10.458s5.127,6.443,6.716,5.508S270.187,1522.947,268.89,1518.02Z" fill="#ece9e0" style="mix-blend-mode: multiply;isolation: isolate"/>
            <path id="Trazado_112644" data-name="Trazado 112644" d="M268.89,1518.02a57.389,57.389,0,0,0-4.752-11.925c-.97-1.6-2.544-1.2-5.1.151a3.332,3.332,0,0,0-1.907,2.871,1.722,1.722,0,0,1,1.861.182,8.143,8.143,0,0,1,1.889,3.111,37.621,37.621,0,0,1,1.46,3.983c.232.8.851,2.956-.524,3.16a2.293,2.293,0,0,1-2.3-1.356c.774,1.813,1.672,4.144,2.622,6.7,2.243,6.01,5.127,6.443,6.716,5.508S270.187,1522.947,268.89,1518.02Z" fill="#70428a"/>
            <g id="Grupo_50672" data-name="Grupo 50672">
              <path id="Trazado_112645" data-name="Trazado 112645" d="M220.024,1485.517a.25.25,0,0,0-.2-.12l-2.744-.178a.269.269,0,0,0-.22.09c-1.187,1.528-11.606,14.971-11.277,17.32.341,2.449,5.244,3.6,5.451,3.656,0,0,.007.007.01,0a.25.25,0,0,0,.276-.152l8.724-20.379A.284.284,0,0,0,220.024,1485.517Z" fill="#f35a92"/>
              <g id="Grupo_50671" data-name="Grupo 50671">
                <path id="Trazado_112646" data-name="Trazado 112646" d="M234.211,1484.935l.362-.388-5.387.046-7.54,24.473.267.067c.024,0,3.044.725,5.642,1.145,3.05.487,3.733.274,3.972.028.524-.52,1.123-6.794,2.12-18.962C233.9,1488.144,234.124,1485.364,234.211,1484.935Z" fill="#f35a92"/>
                <path id="Trazado_112647" data-name="Trazado 112647" d="M243.01,1482.31l-.091-.228-4.383,1.511.039.221c1.727,9.1,2.375,25.161,2.382,25.325l.017.34.323-.112c1.549-.533,9.3-3.265,9.665-4.7C251.323,1503.258,243.86,1484.451,243.01,1482.31Z" fill="#f35a92"/>
              </g>
              <path id="Trazado_112648" data-name="Trazado 112648" d="M248.941,1479.35l-.129-.133-2.463,1.176,9.7,16.12.234-.206c.955-.846,4.081-3.63,4.193-4.309C260.572,1491.374,254.258,1484.774,248.941,1479.35Z" fill="#f35a92"/>
              <path id="Trazado_112649" data-name="Trazado 112649" d="M229.381,1484.853c-.129.238-6.4,23.67-7.912,24.465-1.154.608-7.264-1.453-9.882-2.306-.807-.258-.584-.684-.584-.684l8.8-20.677.516-1.04Z" fill="#ee3a83"/>
              <path id="Trazado_112650" data-name="Trazado 112650" d="M238.828,1483.762s3.351,25,2.176,25.853-9.5.1-9.5.1l2.475-24.905Z" fill="#ee3a83"/>
              <path id="Trazado_112651" data-name="Trazado 112651" d="M246.715,1480.5s10.716,17.056,10.609,18.149-6.841,4.553-6.841,4.553-6.142-18.011-7.711-20.8Z" fill="#ee3a83"/>
            </g>
            <g id="Grupo_50674" data-name="Grupo 50674" opacity="0.5" style="mix-blend-mode: multiply;isolation: isolate">
              <path id="Trazado_112652" data-name="Trazado 112652" d="M218.111,1490.268l1.93-4.513a.284.284,0,0,0-.017-.238.25.25,0,0,0-.2-.12l-2.744-.178a.269.269,0,0,0-.22.09c-.371.483-1.654,2.141-3.233,4.262C215.115,1489.853,216.607,1490.085,218.111,1490.268Z" fill="#f35a92"/>
              <g id="Grupo_50673" data-name="Grupo 50673">
                <path id="Trazado_112653" data-name="Trazado 112653" d="M227.834,1490.577a55.657,55.657,0,0,0,5.926-.692c.207-2.55.38-4.583.451-4.95l.362-.388-5.387.046-1.847,6C227.506,1490.591,227.669,1490.59,227.834,1490.577Z" fill="#f35a92"/>
                <path id="Trazado_112654" data-name="Trazado 112654" d="M239.341,1488.765a9.012,9.012,0,0,1,4.128.216,8.519,8.519,0,0,1,2.759,1.586c-1.51-3.958-2.877-7.412-3.218-8.257l-.091-.228-4.383,1.511.039.221C238.862,1485.308,239.115,1487,239.341,1488.765Z" fill="#f35a92"/>
              </g>
              <path id="Trazado_112655" data-name="Trazado 112655" d="M248.941,1479.35l-.129-.133-2.463,1.176,9.7,16.12.234-.206c.955-.846,4.081-3.63,4.193-4.309C260.572,1491.374,254.258,1484.774,248.941,1479.35Z" fill="#f35a92"/>
              <path id="Trazado_112656" data-name="Trazado 112656" d="M227.763,1490.578c.923-3.262,1.578-5.654,1.618-5.725l-9.06-.242-.516,1.04-1.946,4.582A54.789,54.789,0,0,0,227.763,1490.578Z" fill="#ee3a83"/>
              <path id="Trazado_112657" data-name="Trazado 112657" d="M237.044,1489.23a24.579,24.579,0,0,1,2.421-.485c-.363-2.936-.637-4.983-.637-4.983l-4.848,1.046-.511,5.129C234.672,1489.734,235.865,1489.514,237.044,1489.23Z" fill="#ee3a83"/>
              <path id="Trazado_112658" data-name="Trazado 112658" d="M246.715,1480.5l-3.943,1.9c.594,1.063,1.847,4.31,3.18,7.945,2.79,2.16,4.545,5.947,5.345,9.153a18.26,18.26,0,0,1,.5,3.007c1.963-1.074,5.447-3.077,5.524-3.858C257.431,1497.557,246.715,1480.5,246.715,1480.5Z" fill="#ee3a83"/>
            </g>
            <path id="Trazado_112659" data-name="Trazado 112659" d="M202.73,1462.184s-2.026-6.632.514-11.551c0,0,16.539-3.026,19.845-2.986,0,0,4.547-2.676,14.269-1.918s22,1.513,22,1.513l-1.1,11.819s-10.254.9-11.709.485c0,0,4.99,18.52,4.28,21s-13.635,5.844-18.623,6.534-16.332.5-17.343-1.284-3.5-17.01-2.289-25.007C212.573,1460.787,205.867,1461.233,202.73,1462.184Z" fill="#69f"/>
            <path id="Trazado_112660" data-name="Trazado 112660" d="M258.257,1459.061l.367-3.963a5.752,5.752,0,0,1-3.33,1.208,33.438,33.438,0,0,1-5.357-.509,21.723,21.723,0,0,1-5.171-1.11,4.542,4.542,0,0,1-3.214-4.222,18.531,18.531,0,0,1,.643-4.379c-1.638-.116-3.273-.237-4.837-.357-9.722-.758-14.269,1.918-14.269,1.918a97.757,97.757,0,0,0-10.685,1.4c-.071.077-.145.15-.211.234a11.855,11.855,0,0,0-1.923,3.225,9.962,9.962,0,0,1-1.049,2.037c-1.77,2.415-4.49,2.707-7.242,2.859a21.159,21.159,0,0,0,.751,4.783c3.137-.951,9.843-1.4,9.843-1.4-1.213,8,1.281,23.212,2.289,25.007.262.46,1.2.806,2.545,1.069a25.119,25.119,0,0,1-1.779-8.231,47.1,47.1,0,0,1,1.466-16.386c1.2-4.006,4.646-9.743,9.545-6.815,2.329,1.389,3.373,3.931,4.273,6.343a64.082,64.082,0,0,0,4.038,9,32.495,32.495,0,0,0,11.621,12.5c2.317-.918,4.01-1.869,4.257-2.731.71-2.478-4.28-21-4.28-21C248,1459.961,258.257,1459.061,258.257,1459.061Z" fill="#d7b0e5" opacity="0.5" style="mix-blend-mode: multiply;isolation: isolate"/>
            <path id="Trazado_112661" data-name="Trazado 112661" d="M215.25,1452.581c-1.414,2.848-3.13,13.072-2.5,20.46s1.895,9.658,1.47,10.244-4.666-.037-5.617-7.076,1.782-20.058,4.175-24.806,6.8-4.764,5.231-3.064A16.4,16.4,0,0,0,215.25,1452.581Z" fill="#a22f5f"/>
            <path id="Trazado_112662" data-name="Trazado 112662" d="M212.753,1473.041c-.633-7.388,1.083-17.612,2.5-20.46a16.4,16.4,0,0,1,2.762-4.242c.372-.4.411-.706.216-.876-1.02,1.6-2.419,2.959-3.282,4.678a32.355,32.355,0,0,0-2.591,7.153,54.04,54.04,0,0,0-1.01,14.912q.072,1.59.066,3.182a1.2,1.2,0,0,1-.5,1.052c-.66.51-1.4.1-1.962-.456,1.351,5.364,4.9,5.831,5.277,5.3C214.648,1482.7,213.386,1480.416,212.753,1473.041Z" fill="#a22f5f" opacity="0.5" style="mix-blend-mode: multiply;isolation: isolate"/>
            <path id="Trazado_112663" data-name="Trazado 112663" d="M235.227,1459.537a46.536,46.536,0,0,0,3.446,8.779,40.523,40.523,0,0,0,7.346,10.243c1.132,1.133,2.839,2.848,4.617,2.635,2.32-.276-1.125-3.949-2.8-6.427a49.31,49.31,0,0,1-6.5-13.128c-1.548-5.113-.993-10.189-.892-15.429a4.048,4.048,0,0,0-.044-1.3c-.32-.83-5.007-1.583-5.825.236-1.688,3.8-.8,8.28.072,12.129C234.819,1458.035,235.015,1458.789,235.227,1459.537Z" fill="#a22f5f"/>
            <path id="Trazado_112664" data-name="Trazado 112664" d="M247.833,1474.767a49.31,49.31,0,0,1-6.5-13.128c-1.548-5.113-.993-10.189-.892-15.429a4.048,4.048,0,0,0-.044-1.3c-.091-.227-.528-.457-1.119-.617a2.063,2.063,0,0,1,.237.721,16.22,16.22,0,0,1-.141,3.244c-.108,1.6-.185,3.209-.165,4.815a36.67,36.67,0,0,0,3.465,15.577c.656,1.371,1.364,2.717,2.134,4.027.478.823,1.107,1.618,1.526,2.473.545,1.1-.043,2.09-1.314,1.743a4.8,4.8,0,0,1-.868-.349c.594.7,1.212,1.374,1.863,2.017,1.132,1.133,2.839,2.848,4.617,2.635C252.956,1480.918,249.511,1477.245,247.833,1474.767Z" fill="#a22f5f" opacity="0.5" style="mix-blend-mode: multiply;isolation: isolate"/>
            <path id="Trazado_112665" data-name="Trazado 112665" d="M259.081,1449.67s32.84-1.757,33.557-2.62,2.365-5.634,3.492-7.563,3.266-4.124,2.024-.258-2.7,7.463-1.378,5.755,6.6-8.494,7.089-7.735-5.031,8.884-3.511,7.494c1.521-1.374,6.262-5.419,7.042-5.007s-6.417,6.8-5.3,6.27c1.133-.538,6.507-2.832,6.849-2.346s-6.876,3.345-7.626,3.778-1.084,3.721-2.687,4.6a3.319,3.319,0,0,1-3.6-.25s-.127,3-1.094,3.979-2.2-.707-1.659-2.407-.378-1.913-1.763-1.775-31.915,3.456-31.915,3.456Z" fill="#ffbea7"/>
            <path id="Trazado_112666" data-name="Trazado 112666" d="M202.442,1452.625s-17.719,3.219-18.755,3.183.127-3.747.83-5.709-.627-2.576-1.47.234-1.129,4.067-.988,1.577-.089-4.575-.61-4.561-1.465,7.695-1.7,7.558-.477-7.775-1.536-7.851-.4,8.581-.739,8.656-1.389-6.526-2.257-6.407-.795,4.751.14,6.847,1.773,3.734,1.47,4.2a8.506,8.506,0,0,0-1.338,3.1c-.171,1.242.291,2.418,1.638.494s2.183-4.265,7.352-4.476,17.594-1.727,17.594-1.727A13.226,13.226,0,0,1,202.442,1452.625Z" fill="#ffbea7"/>
            <path id="Trazado_112667" data-name="Trazado 112667" d="M225.83,1444.991a.409.409,0,0,0-.668,0,4.994,4.994,0,0,0-.616.138c-.4.11-.824.157-1.233.252a8.2,8.2,0,0,0-1.992.781.184.184,0,0,0-.076.28,7.4,7.4,0,0,0,.186,4.982c.482,1.155,1.853,2.458,3.3,2.083C228.444,1452.533,227.368,1447.378,225.83,1444.991Z" fill="#f4c3a7"/>
            <g id="Grupo_50676" data-name="Grupo 50676">
              <path id="Trazado_112668" data-name="Trazado 112668" d="M251.711,1409.917s-1.037-4.851,1.551-5.9c2.6-1.054,11.418.7,16.684,8.393s7.473,12.3,11.839,8.836c0,0,.161,2.8-1.471,3.232,0,0,3.37.625,5.285-1.885s1.871,4.288-.535,6.586a6.787,6.787,0,0,0,1.961-2.5c.53-1.389,1.669,3.084.539,5.589a4.639,4.639,0,0,0,1.155-1.847c.3-1.034,1.725,4.65-3.218,7.934s-8.332,1.994-9.067,1.4a10.622,10.622,0,0,0,1.772,1.407c1.019.644-.288,1.777-3.252,2.17s-12.959,0-15.054-6.928a5.751,5.751,0,0,0,.355,2.1c.38.841-.255,2.687-3.449-.076s-3.712-9.824-3.358-16.093A37.252,37.252,0,0,0,251.711,1409.917Z" fill="#12263f"/>
              <path id="Trazado_112669" data-name="Trazado 112669" d="M288.719,1430.415a4.639,4.639,0,0,1-1.155,1.847,7.6,7.6,0,0,0,.435-3.629c-.687,3.045-2.337,5.758-5.294,7.022-2.9,1.236-6.491,1.19-9.55.745-2.841-.414-5.852-1.12-8.118-2.994-3.4-2.812-4.4-6.878-4.821-11.063-.443-4.267-.609-8.676-1.858-12.811-.716-2.4-1.881-4.591-3.74-5.781a4.355,4.355,0,0,0-1.356.262c-2.588,1.053-1.551,5.9-1.551,5.9a37.252,37.252,0,0,1,1.737,12.415c-.354,6.269.158,13.319,3.358,16.093s3.829.917,3.449.076a5.751,5.751,0,0,1-.355-2.1c2.1,6.93,12.089,7.319,15.054,6.928s4.271-1.526,3.252-2.17a10.622,10.622,0,0,1-1.772-1.407c.735.592,4.121,1.875,9.067-1.4S289.019,1429.381,288.719,1430.415Z" fill="#f28c1f" opacity="0.5" style="mix-blend-mode: multiply;isolation: isolate"/>
              <path id="Trazado_112670" data-name="Trazado 112670" d="M240.462,1394.64s10.28-2.093,14.148,13.691-4,34.1-16.963,31.435c0,0-46.9-7.03-50-11.665s-7.474-12.911.394-24.543,23.352-19.783,35.539-18.419S240.6,1390.725,240.462,1394.64Z" fill="#12263f"/>
              <path id="Trazado_112671" data-name="Trazado 112671" d="M233.911,1389.366a16.465,16.465,0,0,1,1.96,5.081,13.01,13.01,0,0,0,.481,2.714c.267.622.857.292,1.33.1,3.049-1.2,6.426-1.805,9.607-.7.361.128.712.278,1.051.431a10.238,10.238,0,0,0-7.878-2.355c.1-2.84-2.429-5.841-8.483-7.8A11.671,11.671,0,0,1,233.911,1389.366Z" fill="#f2a01f" opacity="0.5" style="mix-blend-mode: multiply;isolation: isolate"/>
              <path id="Trazado_112672" data-name="Trazado 112672" d="M252.517,1420.1c-1.433-.372-2.1-2.171-2.881-3.247-.728-.986-1.892-1.913-3.208-1.271-.348.165-.977.8-1.446.723-1.028-.166-1.318-1.77-1.458-2.564a16.74,16.74,0,0,0-1.457-4.679c-.659-1.363-1.546-3.05-3-3.7a26.129,26.129,0,0,1-.661,4.794.263.263,0,0,1-.344.125,9.529,9.529,0,0,1-3.19-2.83c-.2.2-.4.4-.592.595-.806.814-1.765,2.021-2.9,2.354-1.838.551-1.825-1.514-1.617-3.1a29.4,29.4,0,0,1-9.139,5.537c-.693.252-3.116,1.2-3.29-.232a5.328,5.328,0,0,1,.612-2.559,9.861,9.861,0,0,0,.577-2.409,24.082,24.082,0,0,1-4.267,3.328c-2.148,1.282-5.642,3.306-8.159,1.984a.264.264,0,0,1-.138-.339c.6-1.754,1.957-3.1,2.835-4.713.115-.21.225-.426.339-.633-2.458,1.235-4.9,2.53-7.366,3.76-2.164,1.077-4.655,2.7-7.136,2.856-1.437.09-1.805-1.381-1.351-2.514.263-.66.964-1.424,1.032-2.144.1-1.1-3.569.07-3.949.252-1.549.779-3.912,2.81-5.8,2.129a1.369,1.369,0,0,1-.287-.142c-2.042,7.551,1.033,13.138,3.371,16.638,3.1,4.635,50,11.665,50,11.665,10.155,2.088,17.179-8.7,17.888-21.057A2.8,2.8,0,0,1,252.517,1420.1Z" fill="#f2a01f" opacity="0.5" style="mix-blend-mode: multiply;isolation: isolate"/>
              <path id="Trazado_112673" data-name="Trazado 112673" d="M188.015,1418.045a37.7,37.7,0,0,1-.357,7.32c-.579,3.4.36,13.031,10.3,18.328s26.694,6.23,37.959-2.427a24.42,24.42,0,0,0,9.745-21.055s-1.379,1.729-1.74,1.54-3.817-9.841-3.981-9.213-.889,5.509-1.291,5.638c-.417.131-4.106-4.816-4.86-7.015,0,0-4.539,4.8-6.287,4.77a10.994,10.994,0,0,1,1.051-3.721c.768-1.122-8.937,5.453-16.2,4.154,0,0,3.524-2.877,2.766-2.678s-6.508,3.706-13.3,2.287c0,0,2.775-3.556,2.138-3.167C202.948,1413.428,193.264,1419.671,188.015,1418.045Z" fill="#ffbea7"/>
              <path id="Trazado_112674" data-name="Trazado 112674" d="M251.586,1424.818c.119-1.357-.01-2.926-1.149-3.826-2.267-1.794-5.124.162-5.827,2.624a4.959,4.959,0,0,0-.552.918,10.1,10.1,0,0,0-.762,5.11,2.65,2.65,0,0,0,2.673,2.339c1.6.168,2.71-1.075,3.6-2.207A9.134,9.134,0,0,0,251.586,1424.818Z" fill="#ffbea7"/>
              <path id="Trazado_112675" data-name="Trazado 112675" d="M190.116,1431.906a6.035,6.035,0,0,0-1.585-3.589,4.075,4.075,0,0,0-1.984-1.632,2.124,2.124,0,0,0-2.449,1.459,4.34,4.34,0,0,0-.057,3.555,7.751,7.751,0,0,0,2.447,3.378c.726.521,2.035.986,2.848.361C190.414,1434.6,190.257,1433.132,190.116,1431.906Z" fill="#ffbea7"/>
              <path id="Trazado_112676" data-name="Trazado 112676" d="M187.943,1417.85c-2.187-1.241,1.917-4.3,2.9-5.14.027-.033,0-.077-.038-.057a13.273,13.273,0,0,0-3.986,3.3,1.478,1.478,0,0,0,.983,2.4C188.072,1418.385,188.167,1417.974,187.943,1417.85Z" fill="#69f"/>
              <path id="Trazado_112677" data-name="Trazado 112677" d="M186.468,1429.77a1.035,1.035,0,0,0-1.705.633c-.009.074.111.106.146.04a.774.774,0,0,1,1.177-.309,1.639,1.639,0,0,1,.438.732c.2.587.233,1.2.417,1.787a.282.282,0,0,0,.553-.07A3.607,3.607,0,0,0,186.468,1429.77Z" fill="#c39368"/>
              <path id="Trazado_112678" data-name="Trazado 112678" d="M247.766,1424.187a3.7,3.7,0,0,0-.892,3.811.293.293,0,0,0,.574-.066,8.848,8.848,0,0,1,.092-2.153,2.593,2.593,0,0,1,.325-.746c.227-.385,1.3-1.2,1.631-.193.031.09.2.126.218.005C249.891,1423.679,248.449,1423.632,247.766,1424.187Z" fill="#c39368"/>
              <g id="Grupo_50675" data-name="Grupo 50675">
                <path id="Trazado_112679" data-name="Trazado 112679" d="M203.987,1432.768a1.831,1.831,0,0,0,2.116,1.432,1.746,1.746,0,0,0,1.506-1.957l-.007-.048a1.83,1.83,0,0,0-2.109-1.434,1.753,1.753,0,0,0-1.512,1.965Z" fill="#263238"/>
                <path id="Trazado_112680" data-name="Trazado 112680" d="M199.727,1428.955c.273.189,1.412-1.111,3.341-1.522s3.554.266,3.711-.033c.077-.124-.238-.5-.95-.813a5.04,5.04,0,0,0-3.064-.249,4.844,4.844,0,0,0-2.6,1.5C199.71,1428.41,199.6,1428.874,199.727,1428.955Z" fill="#263238"/>
                <path id="Trazado_112681" data-name="Trazado 112681" d="M221.617,1429.167a1.838,1.838,0,0,0,2.118,1.438,1.759,1.759,0,0,0,1.5-1.985l0-.02a1.83,1.83,0,0,0-2.111-1.44,1.753,1.753,0,0,0-1.512,1.965Z" fill="#263238"/>
                <path id="Trazado_112682" data-name="Trazado 112682" d="M218.505,1425.554c.273.189,1.412-1.111,3.341-1.521s3.554.266,3.711-.034c.084-.125-.229-.494-.949-.812a4.984,4.984,0,0,0-3.024-.263,4.825,4.825,0,0,0-2.6,1.5C218.489,1425.009,218.393,1425.466,218.505,1425.554Z" fill="#263238"/>
                <path id="Trazado_112683" data-name="Trazado 112683" d="M214.719,1440.543a15.2,15.2,0,0,0-3.247.171c-.5.061-.986.079-1.131-.191a2.131,2.131,0,0,1,.052-1.3l.748-3.474c1.013-4.935,1.649-8.952,1.384-8.965s-1.236,3.962-2.25,8.891q-.364,1.822-.686,3.482a2.112,2.112,0,0,0,.112,1.689,1.262,1.262,0,0,0,.941.421,4.057,4.057,0,0,0,.859-.08A15.148,15.148,0,0,0,214.719,1440.543Z" fill="#263238"/>
                <path id="Trazado_112684" data-name="Trazado 112684" d="M219.816,1438.953c-.311.048.134,2.143-1.337,4.012s-3.741,2.113-3.7,2.414c0,.14.586.3,1.53.121a5.311,5.311,0,0,0,3.115-1.9,4.6,4.6,0,0,0,.995-3.321C220.31,1439.394,219.956,1438.905,219.816,1438.953Z" fill="#263238"/>
                <path id="Trazado_112685" data-name="Trazado 112685" d="M217.181,1421.751c.4.606,2.173-.309,4.494-.66s4.35-.127,4.45-.832c.035-.332-.478-.87-1.407-1.3a6.436,6.436,0,0,0-3.642-.46,5.8,5.8,0,0,0-3.176,1.592C217.237,1420.786,217.011,1421.452,217.181,1421.751Z" fill="#263238"/>
                <path id="Trazado_112686" data-name="Trazado 112686" d="M198.86,1424.227c.48.639,2.2-.108,4.348-.238s3.944.274,4.32-.429c.173-.342-.138-.987-.952-1.578a5.531,5.531,0,0,0-3.581-.928,5.593,5.593,0,0,0-3.41,1.472C198.866,1423.227,198.643,1423.9,198.86,1424.227Z" fill="#263238"/>
              </g>
            </g>
          </g>
        </g>
      </g>
    </g>
  </g>
</svg>
