<?xml version="1.0" encoding="utf-8"?>
<!-- Generator: Adobe Illustrator 25.2.1, SVG Export Plug-In . SVG Version: 6.00 Build 0)  -->
<svg version="1.1" id="Layer_1" xmlns="http://www.w3.org/2000/svg" xmlns:xlink="http://www.w3.org/1999/xlink" x="0px" y="0px"
	 viewBox="0 0 383.3 307.2" style="enable-background:new 0 0 383.3 307.2;" xml:space="preserve">
<style type="text/css">
	.st0{fill:#0A4B6E;}
	.st1{fill:#E1E1E1;}
	.st2{fill:#12263F;}
	.st3{fill:#0F2771;}
	.st4{fill:#1A2E35;}
	.st5{fill:#7CC5FF;}
	.st6{opacity:0.3;}
	.st7{fill:#FCEBD5;}
	.st8{fill:#B78876;}
	.st9{fill:#AA6550;}
	.st10{fill:#ECECEC;}
	.st11{opacity:0.2;}
</style>
<g id="Grupo_53053" transform="translate(7857 10466.079)">
	<g id="Grupo_50097" transform="translate(-7821.612 -10457.299)">
		<path id="Trazado_110996" class="st0" d="M2.3,0.4c3.7-0.8,7.6-0.1,10.8,2c3.2,2.1,5.8,4.9,7.7,8.2c3.8,6.2,5.1,14.5,5.2,21.8
			c-8.1-0.4-15-6.8-18.2-10.3C2.6,16.5-3.4,3.4,2.3,0.4"/>
	</g>
	<g id="Grupo_50098" transform="translate(-7786.792 -10443.021)">
		<path id="Trazado_110997" class="st0" d="M4.2,23.1c-3.3-2.8-4.8-7.1-4-11.3c0.9-4.2,3.4-7.8,7-10.1c1.6-1.1,3.6-1.9,5.5-1.4
			c1.7,0.6,3,2.2,3.3,4c0.3,1.8,0,3.7-0.7,5.4C13.1,15.5,10,20.8,4.2,23.1"/>
	</g>
	<g id="Grupo_50100" transform="translate(-7782.872 -10433.489)">
		<g id="Grupo_50099">
			<path id="Trazado_110998" class="st1" d="M5,31.2c-0.9-1.3-1.7-2.8-2.3-4.2c-0.7-1.6-1.3-3.3-1.6-5c-0.5-2.1-0.8-4.2-1-6.4
				C-0.3,11.6,0.4,7.7,1.9,4C2.4,2.9,3,1.9,3.7,1c0.5-0.7,0.8-1,0.9-1c0.1,0.1-1.1,1.5-2.2,4.3c-1.3,3.6-1.9,7.4-1.5,11.2
				c0.2,2.1,0.5,4.2,0.9,6.3c0.3,1.7,0.8,3.3,1.4,4.9C3.9,28.1,4.5,29.6,5,31.2z"/>
		</g>
	</g>
	<g id="Grupo_50102" transform="translate(-7813.864 -10447.358)">
		<g id="Grupo_50101">
			<path id="Trazado_110999" class="st1" d="M0,0c0.6,0.5,1.2,1.1,1.7,1.8c1.1,1.2,2.5,2.9,4.4,5c3.7,4.3,8.7,10.2,14,16.9
				s10,12.9,13.3,17.4c1.6,2.3,3,4.1,3.8,5.4c0.5,0.6,0.9,1.3,1.3,2.1C38,48,37.4,47.3,37,46.7l-4-5.3c-3.4-4.5-8.1-10.6-13.5-17.3
				L5.6,7.1L1.5,2C0.9,1.4,0.4,0.7,0,0z"/>
		</g>
	</g>
	<g id="Grupo_50103" transform="translate(-7818.019 -10416.964)">
		<path id="Trazado_111000" class="st0" d="M29.9,4.9C22.5-0.2,13-1.4,4.5,1.7C2.4,2.5,0.1,4,0,6.2s2.2,3.9,4.3,4.8
			c9,3.6,19.3,1.4,26-5.6"/>
	</g>
	<g id="Grupo_50105" transform="translate(-7807.863 -10413.582)">
		<g id="Grupo_50104">
			<path id="Trazado_111001" class="st1" d="M0,1.8c0.4-0.2,0.8-0.3,1.2-0.4c0.8-0.2,2-0.5,3.4-0.7c3.8-0.7,7.7-0.8,11.5-0.1
				c2.1,0.4,4.1,1.2,6,2.3c2.5,1.5,4.6,3.6,6.2,6c0.4,0.7,0.7,1.1,0.6,1.1c-0.1,0.1-1.1-1.4-3.2-3.5c-1.2-1.2-2.6-2.2-4-3
				C20,2.4,18,1.7,16,1.3C12.3,0.7,8.5,0.6,4.7,1.2C3.2,1.5,1.6,1.7,0,1.8z"/>
		</g>
	</g>
	<g id="Grupo_50109" transform="translate(-7857 -10409.912)">
		<g id="Grupo_50108">
			<g id="Grupo_50107">
				<path id="Trazado_111002" class="st2" d="M80.8,176c26.2-12.7,36.4-42.4,39.8-70c0.6-4.6,1.8-9.4,0.3-13.7s-6.2-7.9-10.6-6.6
					c-3.7,1.1-5.8,4.8-8.2,7.8c-3.2,4-7.5,6.9-12.4,8.6c-3.2,1-6.9,1.4-9.5-0.6c-3.6-2.8-3.2-8.3-2.4-12.9c1.4-8.5,2.8-17,4.2-25.5
					c0.8-4.6,1.5-9.2,0.8-13.8s-3.2-9.1-7.4-11s-9.9-0.3-11.5,4.1c-0.7,1.8-0.6,3.8-1,5.7s-1.6,3.8-3.5,4.1
					c-1.9,0.2-3.5-1.3-4.7-2.9c-4-5.3-6.2-11.8-8.3-18.2s-4-12.9-7.4-18.6s-8.7-10.6-15.2-12S9.6,1.9,7,8c-2.7,6.2,0,13.3,3.3,19.1
					c4.8,8.7,10.9,16.6,18,23.6c1.3,1.2,2.7,2.6,2.9,4.4c0.5,3.2-2.9,5.8-6,6.3c-3.6,0.6-7.2-0.3-10.8-0.5s-7.7,0.8-9.6,4
					c-2.6,4.4,0.5,9.9,3.8,13.7c6.7,7.6,14.6,14.1,23.4,19c3.2,1.8,6.5,3.4,8.8,6.2s3.3,7.1,1.2,10.1s-6.5,3.3-9.9,2.1
					s-6.2-3.6-9.4-5.4c-5.9-3.4-14-4.2-18.9,0.6c-3.2,3.1-4.2,8.1-3.6,12.5S3,132,5.3,135.8c8.2,13.4,19.5,24.9,33.2,32.2
					S65.5,178.9,80.8,176"/>
			</g>
		</g>
	</g>
	<g id="Grupo_50113" transform="translate(-7842.467 -10407.11)">
		<g id="Grupo_50112">
			<g id="Grupo_50111">
				<g id="Grupo_50110">
					<path id="Trazado_111003" class="st1" d="M62.5,174.6c0.7-11,1.2-5.3-0.6-19.8c-2.2-15.7-5.3-31.2-9.2-46.5
						c-1-4.1-2-8.1-3-12.1c-1-4-2-7.9-3.2-11.7c-2.3-7.3-5.1-14.4-8.2-21.3c-2.9-6.7-6-12.9-8.9-18.7s-5.7-11.1-8.5-15.9
						C16.6,21.1,11.7,14,6.2,7.2C4.3,4.8,2.7,3,1.7,1.8L0.4,0.4C0.3,0.3,0.2,0.1,0,0c0.1,0.2,0.2,0.3,0.4,0.5l1.2,1.4
						C2.6,3.2,4.1,5,6,7.4c5.3,6.8,10.2,14,14.4,21.6c2.7,4.8,5.5,10.1,8.3,15.9s5.9,12,8.8,18.7c3.1,6.9,5.8,14,8.1,21.3
						c1.2,3.8,2.2,7.7,3.2,11.6s2,8,3,12.1c3.9,15.3,7,30.8,9.3,46.4c1.9,14.4,1.5,8.7,0.8,19.7"/>
				</g>
			</g>
		</g>
	</g>
	<g id="Grupo_50117" transform="translate(-7796.289 -10371.717)">
		<g id="Grupo_50116">
			<g id="Grupo_50115">
				<g id="Grupo_50114">
					<path id="Trazado_111004" class="st1" d="M0,49.1c0.3-0.6,0.6-1.2,0.8-1.9c0.4-1.2,1-3,1.7-5.2c1.4-4.4,3-10.6,4.9-17.5
						s3.6-13,5-17.4c0.7-2.2,1.3-4,1.7-5.2c0.3-0.6,0.5-1.3,0.6-1.9c-0.4,0.6-0.7,1.2-0.9,1.8c-0.5,1.2-1.2,2.9-2,5.1
						c-1.6,4.4-3.4,10.5-5.3,17.4C4.7,31,3.1,37.1,1.9,41.8c-0.6,2.1-1.1,3.9-1.4,5.3C0.2,47.7,0.1,48.4,0,49.1z"/>
				</g>
			</g>
		</g>
	</g>
	<g id="Grupo_50121" transform="translate(-7853.119 -10342.932)">
		<g id="Grupo_50120">
			<g id="Grupo_50119">
				<g id="Grupo_50118">
					<path id="Trazado_111005" class="st1" d="M0,0c0.7,0.3,1.5,0.5,2.3,0.7C3.8,1,5.9,1.6,8.6,2.3C13.8,3.7,21,6,28.9,8.8
						s14.8,5.7,19.8,7.9c2.5,1.1,4.5,2,5.9,2.7c0.7,0.4,1.4,0.7,2.2,0.9c-0.6-0.5-1.3-0.9-2-1.2c-1.3-0.7-3.3-1.8-5.8-2.9
						C44,13.8,37.1,10.8,29.2,8C22.5,5.5,15.6,3.5,8.7,1.7C6.1,1.1,3.9,0.6,2.4,0.3C1.6,0.2,0.8,0,0,0z"/>
				</g>
			</g>
		</g>
	</g>
	<g id="Grupo_50125" transform="translate(-7781.123 -10323.612)">
		<g id="Grupo_50124">
			<g id="Grupo_50123">
				<g id="Grupo_50122">
					<path id="Trazado_111006" class="st1" d="M0,70.1c0.2-0.2,0.4-0.4,0.5-0.6l1.3-2c1.2-1.7,2.8-4.2,4.7-7.4
						c3.9-6.3,9-15.1,14.5-24.9s10.5-18.7,14.3-25l4.5-7.5l1.2-2c0.2-0.2,0.3-0.5,0.4-0.7c-0.2,0.2-0.4,0.4-0.5,0.7l-1.3,2
						c-1.2,1.7-2.8,4.2-4.7,7.4c-3.9,6.3-9,15.1-14.5,24.9S9.8,53.5,6.1,59.9c-1.8,3.1-3.3,5.6-4.5,7.5c-0.5,0.8-0.9,1.5-1.2,2
						C0.2,69.6,0.1,69.9,0,70.1z"/>
				</g>
			</g>
		</g>
	</g>
	<g id="Grupo_50129" transform="translate(-7854.975 -10290.968)">
		<g id="Grupo_50128">
			<g id="Grupo_50127">
				<g id="Grupo_50126">
					<path id="Trazado_111007" class="st1" d="M0,0c0.2,0.2,0.5,0.3,0.7,0.4l2.1,1.1c2,1,4.7,2.4,7.9,4c6.7,3.4,15.8,8.2,26,13.5
						s19.3,10.1,26.1,13.3c3.4,1.6,6.1,2.9,8,3.8l2.2,1c0.3,0.1,0.5,0.2,0.8,0.3c-0.2-0.2-0.5-0.3-0.7-0.4L71,35.9
						c-2-1-4.7-2.4-7.9-4c-6.7-3.4-15.8-8.2-26-13.5S17.8,8.3,11,5C7.7,3.4,4.9,2.1,3,1.3c-0.9-0.4-1.6-0.7-2.2-1
						C0.5,0.2,0.3,0.1,0,0z"/>
				</g>
			</g>
		</g>
	</g>
	<g id="Grupo_50131" transform="translate(-7835.132 -10304.924)">
		<path id="Trazado_111008" class="st3" d="M2.9,0.5c0,0,6.1-4.1,13.6,10.4S27,33.8,27,33.8s2,3,4.1,1s4.9-7.7,8.5-6.7
			c3.7,1,5,5.1,4.3,11.2S42.3,58.8,42.2,60c-0.1,1.2,0.6,2.9,2.3,1.8s11-11.8,15.8-7s0.2,21.4-0.3,23.2s-0.1,2.6,0.8,3
			s3.7-3.4,6.5-6.3s6.5-5.8,9.1-2.8s3.4,15.4-8.2,35.7l-6,9.1L51.2,116c-23.3-2.5-32.8-10.5-33.7-14.3s3.6-5.1,7.6-5.7
			s8.8-0.5,8.9-1.5s-0.3-1.7-2-2.4s-17.9-6.7-18.9-13.4s13.1-8,15-8.7s0.9-2.2-0.1-2.9c-1-0.6-12.4-7.7-17.7-10.8s-7.9-6.5-6.5-10.1
			c1.3-3.5,7.6-2.4,10.4-2.9s1.6-3.9,1.6-3.9s-5.1-7.3-12.4-21.9S3.1,0.5,3.1,0.5"/>
	</g>
	<g id="Grupo_50133" transform="translate(-7825.406 -10291.416)">
		<g id="Grupo_50132">
			<path id="Trazado_111009" class="st4" d="M0,0c0.1,0.1,0.1,0.2,0.2,0.3C0.3,0.4,0.4,0.7,0.6,1c0.4,0.7,0.9,1.7,1.5,3
				c1.3,2.6,3.3,6.4,5.6,11l18.7,36.3c7.3,14.2,13.9,27.1,18.5,36.4c2.3,4.7,4.2,8.5,5.5,11.1l1.5,3l0.4,0.8c0,0.1,0.1,0.2,0.1,0.3
				c-0.1-0.1-0.1-0.2-0.2-0.3l-0.4-0.8c-0.4-0.7-0.9-1.7-1.5-3c-1.3-2.6-3.2-6.4-5.6-11C39.9,78.6,33.3,65.8,26,51.6
				s-13.9-27-18.5-36.4L2,4.1c-0.6-1.3-1.1-2.3-1.5-3C0.3,0.7,0.2,0.5,0.1,0.3C0.1,0.2,0,0.1,0,0z"/>
		</g>
	</g>
	<g id="Grupo_50135" transform="translate(-7803.915 -10268.675)">
		<g id="Grupo_50134">
			<path id="Trazado_111010" class="st4" d="M4.7,0C4.6,1,4.4,1.9,4.1,2.9c-0.4,1.9-1,4.2-1.6,6.9c-0.6,2.7-1.2,5.1-1.6,6.9
				c-0.2,0.9-0.4,1.6-0.6,2.1c-0.1,0.3-0.2,0.5-0.3,0.7c0.1-1,0.3-1.9,0.6-2.9l1.5-6.9C2.7,7,3.3,4.5,3.8,2.8
				c0.2-0.9,0.4-1.6,0.6-2.1C4.5,0.5,4.6,0.2,4.7,0z"/>
		</g>
	</g>
	<g id="Grupo_50137" transform="translate(-7827.065 -10255.246)">
		<g id="Grupo_50136">
			<path id="Trazado_111011" class="st4" d="M22.2,6.2c0,0.1-5-1.2-11.1-2.9S0,0.1,0,0s5,1.2,11.1,2.9S22.2,6,22.2,6.2z"/>
		</g>
	</g>
	<g id="Grupo_50139" transform="translate(-7811.158 -10225.278)">
		<g id="Grupo_50138">
			<path id="Trazado_111012" class="st4" d="M20.3,0.6c-0.3,0.1-0.5,0.1-0.8,0.1c-0.5,0-1.3,0.1-2.2,0.1C15.5,1,13,1,10.1,0.9
				S4.8,0.7,3,0.5C2,0.4,1.3,0.3,0.8,0.2C0.5,0.2,0.2,0.1,0,0c1,0,2,0,3,0.1c1.8,0.1,4.4,0.3,7.2,0.4s5.3,0.1,7.2,0.1
				C18.3,0.5,19.3,0.5,20.3,0.6z"/>
		</g>
	</g>
	<g id="Grupo_50141" transform="translate(-7791.003 -10241.262)">
		<g id="Grupo_50140">
			<path id="Trazado_111013" class="st4" d="M9.2,0C8.9,0.9,8.5,1.7,8,2.5C7.2,4,6.1,6,4.8,8.3s-2.4,4.3-3.3,5.8
				c-0.4,0.8-0.9,1.6-1.5,2.3c0.3-0.9,0.8-1.7,1.2-2.5c0.8-1.5,1.9-3.6,3.2-5.8s2.4-4.3,3.3-5.8C8.2,1.5,8.7,0.7,9.2,0z"/>
		</g>
	</g>
	<g id="Grupo_50143" transform="translate(-7778.635 -10221.291)">
		<g id="Grupo_50142">
			<path id="Trazado_111014" class="st4" d="M12,0c-0.1,0.3-0.2,0.6-0.4,0.9c-0.3,0.6-0.7,1.4-1.2,2.3C9.3,5,7.9,7.7,6.2,10.6
				S3,16,1.9,17.9c-0.5,0.9-1,1.6-1.3,2.2c-0.2,0.3-0.3,0.5-0.5,0.8c0.1-0.3,0.2-0.6,0.4-0.9c0.3-0.6,0.7-1.4,1.2-2.3
				c1.1-1.9,2.5-4.5,4.2-7.4S9,4.9,10.1,3c0.5-0.9,1-1.6,1.3-2.2C11.6,0.5,11.8,0.2,12,0z"/>
		</g>
	</g>
	<g id="Grupo_50145" transform="translate(-7804.261 -10202.416)">
		<g id="Grupo_50144">
			<path id="Trazado_111015" class="st4" d="M25.8,1.4c-0.3,0.1-0.7,0.1-1,0.1c-0.7,0-1.6,0-2.8,0.1c-2.3,0-5.6,0-9.1-0.2
				S6.1,0.8,3.7,0.6C2.6,0.4,1.6,0.3,1,0.2C0.7,0.2,0.3,0.1,0,0c0.3,0,0.7,0,1,0c0.7,0.1,1.7,0.1,2.8,0.2c2.3,0.2,5.5,0.5,9.1,0.7
				s6.8,0.3,9.1,0.4l2.8,0.1C25.1,1.4,25.4,1.4,25.8,1.4z"/>
		</g>
	</g>
	<g id="Grupo_50245" transform="translate(-7690.923 -10410.663)">
		<g id="Grupo_50147">
			<path id="Trazado_111016" class="st5" d="M197.7,101.4L168.4,130l-27.1,51.6l-30.4,58.4l-37.4-17.5l-40.4-20.7l25.8-49.4L75,97.2
				c-11.3,7.5-32.4,17.8-57.6,12.4C-10,103.8,3.1,0.8,3.1,0.8l30-0.8l3,72.7l33.9-15l0.1,0.1c2-0.9,3.8-1.7,4.8-2.2
				c18.8-10.2,31.1-11.5,51.2-4.3l0,0l29.1,9.6C162.7,64.4,190.2,78,197.7,101.4"/>
		</g>
		<g id="Grupo_50152" transform="translate(39.14 49.106)">
			<g id="Grupo_50149" transform="translate(35.119)">
				<g id="Grupo_50148">
					<path id="Trazado_111017" class="st4" d="M20.7,0c0,0-0.7,0.4-1.8,1.2c-1.6,1.2-3,2.6-4.2,4.1c-1.8,2.4-3.1,5-4.1,7.7
						c-1.2,3.1-2.1,6.6-3.1,10.3l-5.2,19c-0.7,2.4-1.2,4.3-1.6,5.7l-0.5,1.6c0,0.2-0.1,0.4-0.2,0.5c0-0.2,0-0.4,0.1-0.6
						c0.1-0.4,0.2-0.9,0.4-1.6c0.4-1.4,0.9-3.4,1.5-5.8c1.3-4.9,3.1-11.6,5-19c0.9-3.5,1.9-7,3.1-10.4c1-2.8,2.5-5.4,4.3-7.8
						c1.2-1.6,2.7-3,4.4-4.1c0.4-0.3,0.9-0.6,1.4-0.8C20.3,0.1,20.5,0.1,20.7,0z"/>
				</g>
			</g>
			<g id="Grupo_50151" transform="translate(0 14.56)" class="st6">
				<g id="Grupo_50150">
					<path id="Trazado_111018" d="M44.9,0C36.5,22.7,21.4,35.4,0,46.8c12.6-1.4,24.7-5.8,35.3-12.9"/>
				</g>
			</g>
		</g>
		<g id="Grupo_50154" transform="translate(110.759 47.486)" class="st6">
			<g id="Grupo_50153">
				<path id="Trazado_111019" d="M0,0c3.6,57,7.1,113.9,10.7,170.9L0.1,192.6L0,0z"/>
			</g>
		</g>
		<g id="Grupo_50156" transform="translate(138.409 94.835)">
			<g id="Grupo_50155">
				<path id="Trazado_111020" class="st7" d="M5.4,11.7c-0.1,0-1.2-2.6-2.7-5.9S-0.1,0.1,0,0c0.4,0.5,0.8,1,1,1.6
					c0.6,1,1.3,2.5,2.1,4.1s1.4,3.1,1.7,4.2C5.1,10.5,5.3,11.1,5.4,11.7z"/>
			</g>
		</g>
		<g id="Grupo_50158" transform="translate(156.083 94.562)">
			<g id="Grupo_50157">
				<path id="Trazado_111021" class="st7" d="M11.7,0C7.9,2.7,4,5.1,0,7.3C3.7,4.6,7.6,2.2,11.7,0z"/>
			</g>
		</g>
		<g id="Grupo_50160" transform="translate(156.783 76.561)">
			<g id="Grupo_50159">
				<path id="Trazado_111022" class="st7" d="M0.6,9.4C0.1,6.3-0.1,3.1,0.1,0C0.6,3.1,0.7,6.2,0.6,9.4z"/>
			</g>
		</g>
		<g id="Grupo_50162" transform="translate(172.848 79.07)">
			<g id="Grupo_50161">
				<path id="Trazado_111023" class="st7" d="M8.4,5.2C5.4,3.7,2.6,2,0,0C2.9,1.5,5.7,3.2,8.4,5.2z"/>
			</g>
		</g>
		<g id="Grupo_50164" transform="translate(144.736 119.614)">
			<g id="Grupo_50163">
				<path id="Trazado_111024" class="st7" d="M0,12C1.4,7.9,3.2,3.9,5.2,0C3.7,4.1,2,8.1,0,12z"/>
			</g>
		</g>
		<g id="Grupo_50166" transform="translate(130.232 134.573)">
			<g id="Grupo_50165">
				<path id="Trazado_111025" class="st7" d="M3.9,7.8C2.3,5.3,1,2.7,0,0C1.6,2.4,2.9,5,3.9,7.8z"/>
			</g>
		</g>
		<g id="Grupo_50168" transform="translate(133.843 156.787)">
			<g id="Grupo_50167">
				<path id="Trazado_111026" class="st7" d="M9.2,0C6.2,1.1,3.1,1.6,0,1.3c0-0.1,2.1-0.2,4.6-0.6S9.1-0.1,9.2,0z"/>
			</g>
		</g>
		<g id="Grupo_50170" transform="translate(154.396 132.633)">
			<g id="Grupo_50169">
				<path id="Trazado_111027" class="st7" d="M0,8.3C0.9,5.4,2.1,2.7,3.5,0C2.7,2.9,1.5,5.7,0,8.3z"/>
			</g>
		</g>
		<g id="Grupo_50172" transform="translate(120.249 166.999)">
			<g id="Grupo_50171">
				<path id="Trazado_111028" class="st7" d="M6.4,7.4C6.3,7.5,5,5.7,3.3,3.7S-0.1,0.1,0,0C2.6,2,4.8,4.5,6.4,7.4L6.4,7.4z"/>
			</g>
		</g>
		<g id="Grupo_50174" transform="translate(116.669 138.455)">
			<g id="Grupo_50173">
				<path id="Trazado_111029" class="st7" d="M5,0C3.6,3,1.9,5.9,0,8.6C1.4,5.6,3.1,2.7,5,0z"/>
			</g>
		</g>
		<g id="Grupo_50176" transform="translate(115.545 123.539)">
			<g id="Grupo_50175">
				<path id="Trazado_111030" class="st7" d="M9.7,2.5C6.4,2,3.1,1.1,0,0C3.3,0.6,6.5,1.4,9.7,2.5z"/>
			</g>
		</g>
		<g id="Grupo_50178" transform="translate(125.024 100.637)">
			<g id="Grupo_50177">
				<path id="Trazado_111031" class="st7" d="M0,0c1.8,2.3,3.5,4.8,5,7.3C3,5.1,1.3,2.7,0,0z"/>
			</g>
		</g>
		<g id="Grupo_50180" transform="translate(110.572 99.39)">
			<g id="Grupo_50179">
				<path id="Trazado_111032" class="st7" d="M6.4,0C4.5,2.1,2.3,3.9,0,5.5C1.9,3.5,4.1,1.6,6.4,0z"/>
			</g>
		</g>
		<g id="Grupo_50182" transform="translate(116.056 77.545)">
			<g id="Grupo_50181">
				<path id="Trazado_111033" class="st7" d="M7.3,8.5C4.3,6.2,1.8,3.3,0,0c0.1-0.1,1.6,2,3.6,4.3S7.4,8.4,7.3,8.5z"/>
			</g>
		</g>
		<g id="Grupo_50184" transform="translate(135.795 81.969)">
			<g id="Grupo_50183">
				<path id="Trazado_111034" class="st7" d="M10,0c-3.2,1.3-6.6,2.3-10,3C3.2,1.8,6.6,0.7,10,0z"/>
			</g>
		</g>
		<g id="Grupo_50186" transform="translate(113.049 51.749)">
			<g id="Grupo_50185">
				<path id="Trazado_111035" class="st7" d="M1.1,8.9c-0.1,0-0.1-2-0.4-4.5C0.4,2-0.1,0,0,0C1.2,2.8,1.6,5.9,1.1,8.9L1.1,8.9z"/>
			</g>
		</g>
		<g id="Grupo_50188" transform="translate(80.447 124.23)">
			<g id="Grupo_50187">
				<path id="Trazado_111036" class="st7" d="M13.8,0c-0.6,0.6-1.3,1.1-2.1,1.5c-1.3,0.9-3.1,2.2-5,3.7S3.2,8.1,2,9.1
					c-0.6,0.6-1.3,1.1-2,1.6c0.5-0.7,1.1-1.3,1.8-1.9C4.7,6,8,3.5,11.5,1.3C12.2,0.8,13,0.3,13.8,0z"/>
			</g>
		</g>
		<g id="Grupo_50190" transform="translate(85.668 107.479)">
			<g id="Grupo_50189">
				<path id="Trazado_111037" class="st7" d="M7.4,9.7C7.3,9.8,5.8,7.5,3.8,4.8S-0.1,0.1,0,0c0.5,0.3,0.9,0.8,1.3,1.2
					c2,2.1,3.7,4.4,5.2,6.9C6.9,8.6,7.2,9.1,7.4,9.7z"/>
			</g>
		</g>
		<g id="Grupo_50192" transform="translate(89.801 89.451)">
			<g id="Grupo_50191">
				<path id="Trazado_111038" class="st7" d="M8.6,0C5.9,1.9,3,3.4,0,4.8C2.7,2.9,5.6,1.3,8.6,0z"/>
			</g>
		</g>
		<g id="Grupo_50194" transform="translate(84.892 67.336)">
			<g id="Grupo_50193">
				<path id="Trazado_111039" class="st7" d="M8.2,10C7.7,9.7,7.2,9.3,6.7,8.8C4.4,6.7,2.5,4.3,0.9,1.7C0.5,1.2,0.2,0.6,0,0
					c0.1-0.1,1.6,2.4,3.9,5.2S8.3,9.9,8.2,10z"/>
			</g>
		</g>
		<g id="Grupo_50196" transform="translate(102.208 69.618)">
			<g id="Grupo_50195">
				<path id="Trazado_111040" class="st7" d="M0,7.5C0.9,4.9,2.2,2.4,3.7,0C2.7,2.6,1.5,5.1,0,7.5z"/>
			</g>
		</g>
		<g id="Grupo_50198" transform="translate(97.917 51.336)">
			<g id="Grupo_50197">
				<path id="Trazado_111041" class="st7" d="M1.9,11.9c-0.1,0,0-2.7-0.5-6C0.9,2.6-0.1,0.1,0,0c0.3,0.5,0.6,1,0.7,1.6
					c1,2.7,1.4,5.6,1.3,8.5C2.1,10.7,2,11.3,1.9,11.9z"/>
			</g>
		</g>
		<g id="Grupo_50200" transform="translate(101.578 115.686)">
			<g id="Grupo_50199">
				<path id="Trazado_111042" class="st7" d="M0.5,17.5c-0.1-0.9,0-1.7,0-2.6c0.1-1.6,0.1-3.8,0-6.2S0.3,4.1,0.2,2.6
					C0.1,1.7,0,0.9,0,0c0.2,0.8,0.4,1.7,0.5,2.5C1,6.6,1.2,10.8,0.8,14.9C0.8,15.8,0.7,16.6,0.5,17.5z"/>
			</g>
		</g>
		<g id="Grupo_50202" transform="translate(92.325 149.601)">
			<g id="Grupo_50201">
				<path id="Trazado_111043" class="st7" d="M8.4,5.4C6,3,3.2,1.2,0,0C3.4,0.6,6.4,2.5,8.4,5.4z"/>
			</g>
		</g>
		<g id="Grupo_50204" transform="translate(99.421 168.473)">
			<g id="Grupo_50203">
				<path id="Trazado_111044" class="st7" d="M12.3,0C8.3,2.4,4.2,4.5,0,6.4C3.9,4,8,1.8,12.3,0z"/>
			</g>
		</g>
		<g id="Grupo_50206" transform="translate(72.27 162.906)">
			<g id="Grupo_50205">
				<path id="Trazado_111045" class="st7" d="M8.5,11.6C5.4,7.9,2.6,4,0,0C3.1,3.7,5.9,7.5,8.5,11.6z"/>
			</g>
		</g>
		<g id="Grupo_50208" transform="translate(71.005 137.24)">
			<g id="Grupo_50207">
				<path id="Trazado_111046" class="st7" d="M0.2,12.3C0.1,11.7,0,11.1,0,10.5C0,9.4,0,7.8,0.1,6.1s0.2-3.2,0.4-4.3
					c0-0.6,0.2-1.2,0.4-1.8c0.1,0-0.1,2.8-0.3,6.1S0.4,12.3,0.2,12.3z"/>
			</g>
		</g>
		<g id="Grupo_50210" transform="translate(50.989 183.828)">
			<g id="Grupo_50209">
				<path id="Trazado_111047" class="st7" d="M10,8.3C6.5,5.8,3.1,3,0,0C3.5,2.5,6.8,5.3,10,8.3z"/>
			</g>
		</g>
		<g id="Grupo_50212" transform="translate(66.688 177.044)">
			<g id="Grupo_50211">
				<path id="Trazado_111048" class="st7" d="M0.4,13.8C0,9.2-0.1,4.6,0.1,0C0.5,4.6,0.6,9.2,0.4,13.8z"/>
			</g>
		</g>
		<g id="Grupo_50214" transform="translate(59.231 213.932)">
			<g id="Grupo_50213">
				<path id="Trazado_111049" class="st7" d="M20.1,3.3c0,0.1-1.1-0.4-2.9-0.9C12.6,0.9,7.8,0.2,3,0.4C1.2,0.5,0,0.6,0,0.6
					c0.3-0.1,0.5-0.2,0.8-0.2C1.3,0.3,2.1,0.2,3,0.1c4.9-0.4,9.8,0.3,14.4,2c0.9,0.3,1.6,0.6,2,0.8C19.6,3,19.9,3.1,20.1,3.3z"/>
			</g>
		</g>
		<g id="Grupo_50216" transform="translate(89.373 222.045)">
			<g id="Grupo_50215">
				<path id="Trazado_111050" class="st7" d="M0,0c0.7,0.4,1.4,0.8,2,1.4c3,2.4,5.8,5.1,8.2,8.2c0.5,0.6,1,1.3,1.4,2
					c-0.6-0.5-1.1-1.1-1.6-1.8C8.9,8.7,7.6,7.1,6,5.5s-3.1-3-4.2-3.9C1.1,1.1,0.5,0.6,0,0z"/>
			</g>
		</g>
		<g id="Grupo_50218" transform="translate(89.615 165.935)">
			<g id="Grupo_50217">
				<path id="Trazado_111051" class="st7" d="M4.1,10.4C2.5,7.1,1.1,3.6,0,0C1.7,3.3,3,6.8,4.1,10.4z"/>
			</g>
		</g>
		<g id="Grupo_50220" transform="translate(47.347 87.41)">
			<g id="Grupo_50219">
				<path id="Trazado_111052" class="st7" d="M11.2,0c-0.4,0.5-0.8,1-1.3,1.5c-2.3,2.2-5,4-7.9,5.3C1.3,7.1,0.7,7.3,0,7.4
					c-0.1-0.1,2.7-1.3,5.8-3.4C8.9,2,11.1-0.1,11.2,0z"/>
			</g>
		</g>
		<g id="Grupo_50222" transform="translate(60.638 70.305)">
			<g id="Grupo_50221">
				<path id="Trazado_111053" class="st7" d="M0.1,7.8C-0.1,5.2,0.1,2.6,0.5,0C0.7,2.6,0.5,5.2,0.1,7.8z"/>
			</g>
		</g>
		<g id="Grupo_50224" transform="translate(34.329 81.823)">
			<g id="Grupo_50223">
				<path id="Trazado_111054" class="st7" d="M8.9,4.1C5.8,3,2.8,1.6,0,0C3.1,1.1,6.1,2.5,8.9,4.1z"/>
			</g>
		</g>
		<g id="Grupo_50226" transform="translate(74.421 64.352)">
			<g id="Grupo_50225">
				<path id="Trazado_111055" class="st7" d="M0.1,9.7C0,6.4,0.3,3.2,0.8,0C0.9,3.2,0.6,6.5,0.1,9.7z"/>
			</g>
		</g>
		<g id="Grupo_50228" transform="translate(24.658 98.937)">
			<g id="Grupo_50227">
				<path id="Trazado_111056" class="st7" d="M9.3,5.6C5.8,4.6,2.6,2.6,0,0c0.1-0.1,2,1.5,4.5,3S9.3,5.5,9.3,5.6z"/>
			</g>
		</g>
		<g id="Grupo_50230" transform="translate(13.127 86.666)">
			<g id="Grupo_50229">
				<path id="Trazado_111057" class="st7" d="M7.8,0C5.4,3.1,2.8,5.9,0,8.6C2.4,5.5,5,2.6,7.8,0z"/>
			</g>
		</g>
		<g id="Grupo_50232" transform="translate(12.382 65.093)">
			<g id="Grupo_50231">
				<path id="Trazado_111058" class="st7" d="M7.4,5.6C4.5,4.4,1.9,2.5,0,0c0.1-0.1,1.6,1.4,3.6,2.9S7.5,5.5,7.4,5.6z"/>
			</g>
		</g>
		<g id="Grupo_50234" transform="translate(7.544 74.02)">
			<g id="Grupo_50233">
				<path id="Trazado_111059" class="st7" d="M4.1,0C3,1.8,1.6,3.4,0,4.8C1.1,3,2.5,1.4,4.1,0z"/>
			</g>
		</g>
		<g id="Grupo_50236" transform="translate(21.985 44.331)">
			<g id="Grupo_50235">
				<path id="Trazado_111060" class="st7" d="M7.2,0C5.1,3.1,2.6,6.1,0,8.8C2.2,5.7,4.6,2.7,7.2,0z"/>
			</g>
		</g>
		<g id="Grupo_50238" transform="translate(7.016 39.572)">
			<g id="Grupo_50237">
				<path id="Trazado_111061" class="st7" d="M7.1,8.1C4.5,5.6,2.1,2.9,0,0C2.6,2.5,5,5.2,7.1,8.1z"/>
			</g>
		</g>
		<g id="Grupo_50240" transform="translate(16.828 20.102)">
			<g id="Grupo_50239">
				<path id="Trazado_111062" class="st7" d="M4.8,8.6C3,5.9,1.4,3,0,0C1.9,2.7,3.5,5.6,4.8,8.6z"/>
			</g>
		</g>
		<g id="Grupo_50242" transform="translate(21.291 7.834)">
			<g id="Grupo_50241">
				<path id="Trazado_111063" class="st7" d="M0,8.5c-0.1-0.1,1.2-1.8,2.2-4.1C3.3,2.1,3.7,0,3.8,0C3.6,3.2,2.2,6.2,0,8.5z"/>
			</g>
		</g>
		<g id="Grupo_50244" transform="translate(6.744 5.934)">
			<g id="Grupo_50243">
				<path id="Trazado_111064" class="st7" d="M0.1,9.7C-0.1,7.8,0.3,6,1.1,4.3C1.7,3.1,2.4,2,3.3,1.1C3.6,0.6,4,0.3,4.5,0
					C2.1,2.7,0.5,6.1,0.1,9.7L0.1,9.7z"/>
			</g>
		</g>
	</g>
	<g id="Grupo_50323" transform="translate(-7573.745 -10444.111)">
		<g id="Grupo_50246" transform="translate(15.778)">
			<path id="Trazado_111065" class="st4" d="M0.4,28.2c-0.4-3.6-0.4-7.3-0.1-11c0.3-3.7,1.7-7.2,4-10c2.4-2.9,6-4.4,9.7-4.1
				c2.2,0.3,4.4,1.4,6.6,1.3c2.6-0.1,4.9-1.7,7.3-2.8c3.7-1.7,7.9-2.1,12-1.2c2.1,0.4,4.1,1.4,5.7,2.9c1.6,1.5,2.3,3.7,1.8,5.9
				c2.6-0.1,5.3,0.1,7.9,0.7c2.6,0.6,4.9,2.2,6.3,4.4c1.4,2.3,1.1,5.3-0.7,7.3c2.6-0.3,5,1.3,5.6,3.8c0.5,2.5-0.5,5.1-2.6,6.5
				c-2.5,1.5-5.4,2.1-8.2,1.6c-2.4-0.5-5.2-1.2-7.2-2.7"/>
		</g>
		<g id="Grupo_50319" transform="translate(0 15.968)">
			<g id="Grupo_50318">
				<g id="Grupo_50259">
					<g id="Grupo_50258">
						<g id="Grupo_50257">
							<g id="Grupo_50251">
								<g id="Grupo_50250">
									<g id="Grupo_50249">
										<g id="Grupo_50248">
											<g id="Grupo_50247">
												<path id="Trazado_111066" class="st8" d="M14.2,94.9L14.2,94.9c10.1,2.6,20.4-3.4,23-13.5c1.5-5.6,2.7-10.3,2.7-10.3
													s14.7,2.5,19.5-11.4S72.6,13,72.6,13l0,0C58.8,0.7,39.4-3.3,21.9,2.8l-2.6,0.9L0.7,71.5C-2.1,81.6,3.8,92,13.9,94.8
													C14,94.8,14.1,94.9,14.2,94.9z"/>
											</g>
										</g>
									</g>
								</g>
							</g>
							<g id="Grupo_50256" transform="translate(23.593 59.611)">
								<g id="Grupo_50255">
									<g id="Grupo_50254">
										<g id="Grupo_50253">
											<g id="Grupo_50252">
												<path id="Trazado_111067" class="st9" d="M16.4,11.3C10,9.2,4.2,5.3,0,0c0,0,0.9,11.5,15.3,14.9L16.4,11.3z"/>
											</g>
										</g>
									</g>
								</g>
							</g>
						</g>
					</g>
				</g>
				<g id="Grupo_50271" transform="translate(4.149 16.767)">
					<g id="Grupo_50264">
						<g id="Grupo_50263">
							<g id="Grupo_50262">
								<g id="Grupo_50261">
									<g id="Grupo_50260">
										<path id="Trazado_111068" class="st8" d="M12,1.9c-0.2-0.2-8.6-6-11.5,3.6S7.9,16.1,8,15.8C8.1,15.5,12,1.9,12,1.9z"/>
									</g>
								</g>
							</g>
						</g>
					</g>
					<g id="Grupo_50270" transform="translate(2.661 3.027)">
						<g id="Grupo_50269">
							<g id="Grupo_50268">
								<g id="Grupo_50267">
									<g id="Grupo_50266">
										<g id="Grupo_50265">
											<path id="Trazado_111069" class="st9" d="M3.5,8.2c0,0-0.2,0.1-0.5,0.1C2.5,8.4,2,8.3,1.7,8C0.8,7.3,0.4,5.4,0.9,3.7
												c0.2-0.8,0.6-1.6,1.2-2.3c0.4-0.6,1-0.9,1.6-0.9c0.4,0,0.8,0.3,0.9,0.8c0,0.3-0.1,0.5,0,0.5c0,0,0.3-0.1,0.3-0.5
												c0-0.3-0.1-0.5-0.2-0.7C4.5,0.3,4.1,0.1,3.8,0C3,0,2.1,0.3,1.6,1C0.9,1.7,0.5,2.6,0.2,3.5c-0.5,2-0.1,4.1,1.2,4.9
												C1.9,8.7,2.5,8.8,3,8.6C3.4,8.5,3.5,8.3,3.5,8.2z"/>
										</g>
									</g>
								</g>
							</g>
						</g>
					</g>
				</g>
				<g id="Grupo_50317" transform="translate(34.388 21.361)">
					<g id="Grupo_50316">
						<g id="Grupo_50310">
							<g id="Grupo_50309">
								<g id="Grupo_50308">
									<g id="Grupo_50283" transform="translate(21.185 6.666)">
										<g id="Grupo_50276" transform="translate(1.113 2.482)">
											<g id="Grupo_50275">
												<g id="Grupo_50274">
													<g id="Grupo_50273">
														<g id="Grupo_50272">
															<path id="Trazado_111070" class="st4" d="M4.1,2.6C3.8,3.6,2.6,4.3,1.5,3.9C0.5,3.7-0.2,2.6,0.1,1.5c0,0,0,0,0,0
																c0.4-1.1,1.5-1.7,2.6-1.4C3.8,0.3,4.4,1.4,4.1,2.6C4.1,2.5,4.1,2.5,4.1,2.6z"/>
														</g>
													</g>
												</g>
											</g>
										</g>
										<g id="Grupo_50282">
											<g id="Grupo_50281">
												<g id="Grupo_50280">
													<g id="Grupo_50279">
														<g id="Grupo_50278">
															<g id="Grupo_50277">
																<path id="Trazado_111071" class="st4" d="M7.8,3.7C7.5,3.9,6.4,2.3,4.2,1.5C2.1,0.8,0.2,1.4,0,1
																	c-0.1-0.2,0.3-0.5,1.2-0.8c1.1-0.3,2.4-0.3,3.5,0.1c1.1,0.4,2.1,1.1,2.8,2C7.9,3.1,8,3.6,7.8,3.7z"/>
															</g>
														</g>
													</g>
												</g>
											</g>
										</g>
									</g>
									<g id="Grupo_50295">
										<g id="Grupo_50288" transform="translate(1.247 2.083)">
											<g id="Grupo_50287">
												<g id="Grupo_50286">
													<g id="Grupo_50285">
														<g id="Grupo_50284">
															<path id="Trazado_111072" class="st4" d="M4.1,2.6C3.8,3.6,2.6,4.3,1.5,3.9C0.4,3.7-0.2,2.6,0.1,1.5c0,0,0,0,0,0
																c0.4-1.1,1.5-1.7,2.6-1.4C3.7,0.3,4.4,1.4,4.1,2.6C4.1,2.5,4.1,2.5,4.1,2.6z"/>
														</g>
													</g>
												</g>
											</g>
										</g>
										<g id="Grupo_50294">
											<g id="Grupo_50293">
												<g id="Grupo_50292">
													<g id="Grupo_50291">
														<g id="Grupo_50290">
															<g id="Grupo_50289">
																<path id="Trazado_111073" class="st4" d="M7.8,3.7C7.5,3.9,6.4,2.3,4.2,1.5C2.1,0.8,0.2,1.4,0,1
																	c-0.1-0.2,0.3-0.5,1.2-0.8c1.1-0.3,2.4-0.3,3.5,0.1c1.1,0.4,2.1,1.1,2.8,2C7.9,3.1,8,3.6,7.8,3.7z"/>
															</g>
														</g>
													</g>
												</g>
											</g>
										</g>
									</g>
									<g id="Grupo_50301" transform="translate(10.276 4.022)">
										<g id="Grupo_50300">
											<g id="Grupo_50299">
												<g id="Grupo_50298">
													<g id="Grupo_50297">
														<g id="Grupo_50296">
															<path id="Trazado_111074" class="st4" d="M0,18.2c1.2,0,2.5,0.2,3.7,0.5c0.6,0.1,1.1,0.2,1.3-0.2
																c0.2-0.5,0.3-1.2,0.2-1.7c-0.1-1.5-0.1-3.1-0.2-4.7C4.7,5.4,4.7,0,5,0S5.7,5.4,6,12.1c0,1.6,0.1,3.2,0.1,4.7
																c0.1,0.8,0,1.6-0.4,2.2c-0.3,0.3-0.7,0.5-1.2,0.5c-0.3,0-0.7-0.1-1-0.2C2.3,19.1,1.1,18.7,0,18.2z"/>
														</g>
													</g>
												</g>
											</g>
										</g>
									</g>
									<g id="Grupo_50307" transform="translate(2.513 21.553)">
										<g id="Grupo_50306">
											<g id="Grupo_50305">
												<g id="Grupo_50304">
													<g id="Grupo_50303">
														<g id="Grupo_50302">
															<path id="Trazado_111075" class="st4" d="M1,0c0.4,0.1-0.4,2.4,1,4.7S6,7.6,5.9,8c0,0.2-0.7,0.3-1.8-0.1
																C2.8,7.5,1.6,6.6,0.8,5.4c-0.7-1.2-1-2.6-0.7-3.9C0.4,0.4,0.8-0.1,1,0z"/>
														</g>
													</g>
												</g>
											</g>
										</g>
									</g>
								</g>
							</g>
						</g>
						<g id="Grupo_50315" transform="translate(22.318 2.567)">
							<g id="Grupo_50314">
								<g id="Grupo_50313">
									<g id="Grupo_50312">
										<g id="Grupo_50311">
											<path id="Trazado_111076" class="st4" d="M7.2,3.8C6.6,4.1,5.3,3.1,3.6,2.5C1.8,1.8,0.2,1.7,0,1.1
												c-0.1-0.3,0.3-0.7,1.1-0.9c2.2-0.5,4.5,0.3,5.8,2.1C7.4,3,7.4,3.6,7.2,3.8z"/>
										</g>
									</g>
								</g>
							</g>
						</g>
					</g>
				</g>
			</g>
		</g>
		<g id="Grupo_50321" transform="translate(33.802 27.776)">
			<g id="Grupo_50320">
				<path id="Trazado_111077" class="st4" d="M8.2,4.6C7.9,4.8,7.4,4.5,6.7,4.1c-1.6-1-3.4-1.7-5.2-2C0.7,2,0.2,1.9,0,1.5
					c-0.1-0.3,0.3-0.9,1.2-1.2c2.6-0.8,5.4,0.2,6.8,2.5C8.6,3.7,8.5,4.4,8.2,4.6z"/>
			</g>
		</g>
		<g id="Grupo_50322" transform="translate(13.851 12.813)">
			<path id="Trazado_111078" class="st4" d="M58,20.7c-7.3-0.4-14.3-3.2-20-7.9c-6.3-5.2-14.2-8.8-16.3-7.8s-4.2,8.2-11.7,8.8
				c0,0-2.7,14.1-8.1,12.3S4.8,3.6,4.8,3.6L19.9,0l15.5,0.6l13.9,3.2l12,6.9L58,20.7z"/>
		</g>
	</g>
	<g id="Grupo_50344" transform="translate(-7777.266 -10466.079)">
		<g id="Grupo_50327">
			<g id="Grupo_50324" transform="translate(0.228 0.229)">
				<rect id="Rectángulo_28607" x="0" y="0" class="st7" width="197" height="306.8"/>
			</g>
			<g id="Grupo_50326">
				<g id="Grupo_50325">
					<path id="Trazado_111079" class="st4" d="M197.2,307c0-1.9-0.1-126.5-0.2-306.8l0.2,0.2l-197,0h0l0.2-0.2
						c0,116.1,0,222.9,0,306.8l-0.2-0.2L197.2,307l-197,0.2H0V307C0,223.2,0,116.3,0,0.2V0h0.3l197,0h0.2v0.2
						C197.3,180.5,197.2,305.1,197.2,307z"/>
				</g>
			</g>
		</g>
		<g id="Grupo_50328" transform="translate(182.386 19.112)">
			<path id="Rectángulo_28608" class="st1" d="M1.3,0H2c0.7,0,1.3,0.6,1.3,1.3v254.9c0,0.7-0.6,1.3-1.3,1.3H1.3
				c-0.7,0-1.3-0.6-1.3-1.3V1.3C0,0.6,0.6,0,1.3,0z"/>
		</g>
		<g id="Grupo_50329" transform="translate(182.386 19.112)">
			<path id="Rectángulo_28609" class="st5" d="M1.3,0H2c0.7,0,1.3,0.6,1.3,1.3v130.1c0,0.7-0.6,1.3-1.3,1.3c0,0,0,0,0,0H1.3
				c-0.7,0-1.3-0.6-1.3-1.3V1.3C0,0.6,0.6,0,1.3,0C1.3,0,1.3,0,1.3,0z"/>
		</g>
		<g id="Grupo_50331" transform="translate(28.725 136.304)">
			<g id="Grupo_50330">
				<path id="Trazado_111080" class="st4" d="M135.2,0.2c0,0.1-30.3,0.2-67.6,0.2S0,0.4,0,0.2S30.3,0,67.6,0S135.2,0.1,135.2,0.2z"
					/>
			</g>
		</g>
		<g id="Grupo_50333" transform="translate(28.725 146.54)">
			<g id="Grupo_50332">
				<path id="Trazado_111081" class="st4" d="M135.2,0.2c0,0.1-30.3,0.2-67.6,0.2S0,0.4,0,0.2S30.3,0,67.6,0S135.2,0.1,135.2,0.2z"
					/>
			</g>
		</g>
		<g id="Grupo_50335" transform="translate(28.725 156.775)">
			<g id="Grupo_50334">
				<path id="Trazado_111082" class="st4" d="M135.2,0.2c0,0.1-30.3,0.2-67.6,0.2S0,0.4,0,0.2S30.3,0,67.6,0S135.2,0.1,135.2,0.2z"
					/>
			</g>
		</g>
		<g id="Grupo_50337" transform="translate(28.725 167.01)">
			<g id="Grupo_50336">
				<path id="Trazado_111083" class="st4" d="M135.2,0.2c0,0.1-30.3,0.2-67.6,0.2S0,0.4,0,0.2S30.3,0,67.6,0S135.2,0.1,135.2,0.2z"
					/>
			</g>
		</g>
		<g id="Grupo_50339" transform="translate(28.725 205.888)">
			<g id="Grupo_50338">
				<path id="Trazado_111084" class="st4" d="M135.2,0.2c0,0.1-30.3,0.2-67.6,0.2S0,0.4,0,0.2S30.3,0,67.6,0S135.2,0.1,135.2,0.2z"
					/>
			</g>
		</g>
		<g id="Grupo_50341" transform="translate(28.725 214.641)">
			<g id="Grupo_50340">
				<path id="Trazado_111085" class="st1" d="M135.2,0.2c0,0.1-30.3,0.2-67.6,0.2S0,0.4,0,0.2S30.3,0,67.6,0S135.2,0.1,135.2,0.2z"
					/>
			</g>
		</g>
		<g id="Grupo_50343" transform="translate(28.725 223.394)">
			<g id="Grupo_50342">
				<path id="Trazado_111086" class="st10" d="M135.2,0.2c0,0.1-30.3,0.2-67.6,0.2S0,0.4,0,0.2S30.3,0,67.6,0S135.2,0.1,135.2,0.2z"
					/>
			</g>
		</g>
		<path id="Trazado_115064" class="st3" d="M65.4,45.7v4.8h-1.6V38.5h4.6c1.1-0.1,2.2,0.3,3,1c0.7,0.7,1.1,1.6,1.1,2.6
			c0,1-0.3,2-1.1,2.6c-0.8,0.7-1.9,1.1-3,1L65.4,45.7z M65.4,44.4h3c0.7,0.1,1.3-0.2,1.8-0.7c0.4-0.5,0.6-1,0.6-1.7
			c0-0.6-0.2-1.2-0.6-1.7c-0.5-0.5-1.2-0.7-1.8-0.7h-3V44.4z M83.8,45.6c0,1.4-0.4,2.7-1.4,3.7c-0.9,1-2.2,1.5-3.6,1.5
			c-1.3,0-2.6-0.5-3.4-1.5c-0.9-1-1.4-2.3-1.3-3.7v-2.2c0-1.3,0.4-2.7,1.3-3.7c0.9-1,2.1-1.5,3.4-1.5c1.3,0,2.6,0.5,3.6,1.5
			c0.9,1,1.4,2.3,1.4,3.7L83.8,45.6z M82.2,43.4c0-1-0.3-2-0.9-2.7c-0.6-0.7-1.5-1.1-2.4-1.1c-0.9,0-1.7,0.4-2.3,1.1
			c-0.6,0.8-0.9,1.7-0.9,2.7v2.2c0,1,0.3,2,0.9,2.7c0.5,0.7,1.4,1.1,2.3,1.1c0.9,0,1.8-0.4,2.4-1.1c0.6-0.8,0.9-1.8,0.9-2.7
			L82.2,43.4z M87.9,49.3h5.7v1.3h-7.4V38.5h1.6V49.3z M97.2,50.6h-1.6V38.5h1.6V50.6z M97.1,35.5H99l0,0.1l-2.2,2.2h-1.2L97.1,35.5
			z M108.2,39.8h-3.9v10.8h-1.6V39.8h-3.9v-1.3h9.4L108.2,39.8z M111.7,50.6H110V38.5h1.6L111.7,50.6z M123.3,46.7L123.3,46.7
			c0.1,1.1-0.4,2.2-1.2,2.9c-0.9,0.8-2.1,1.2-3.2,1.1c-1.3,0-2.5-0.5-3.3-1.5c-0.9-1-1.3-2.3-1.3-3.7v-2.2c0-1.3,0.4-2.7,1.3-3.7
			c0.8-1,2.1-1.5,3.3-1.5c1.2-0.1,2.4,0.3,3.3,1.1c0.8,0.7,1.2,1.8,1.2,2.9l0,0h-1.6c0-0.7-0.2-1.5-0.7-2c-0.6-0.5-1.3-0.8-2.1-0.7
			c-0.9,0-1.7,0.4-2.2,1.1c-0.6,0.8-0.8,1.8-0.8,2.7v2.2c0,1,0.2,1.9,0.8,2.8c0.5,0.7,1.3,1.1,2.2,1.1c0.8,0,1.5-0.2,2.1-0.7
			c0.5-0.5,0.8-1.3,0.7-2L123.3,46.7z M132.1,47.5H127l-1.1,3.1h-1.7l4.7-12.1h1.4l4.6,12.1h-1.7L132.1,47.5z M127.5,46.1h4.1
			l-2-5.5h-0.1L127.5,46.1z M55.2,71h-1.6l-5.8-9.3l0,0V71H46V58.9h1.6l5.8,9.3l0,0v-9.3h1.6V71z M64.8,67.9h-5.1L58.6,71H57
			l4.7-12.1H63L67.6,71H66L64.8,67.9z M60.3,66.5h4.1l-2-5.5h0L60.3,66.5z M77.8,67.1L77.8,67.1c0.1,1.1-0.4,2.2-1.2,2.9
			c-0.9,0.8-2.1,1.2-3.2,1.2c-1.3,0-2.5-0.5-3.3-1.5c-0.9-1-1.3-2.3-1.3-3.7v-2.1c0-1.3,0.4-2.7,1.3-3.7c0.8-1,2.1-1.5,3.3-1.5
			c1.2-0.1,2.4,0.3,3.3,1.1c0.8,0.7,1.2,1.8,1.2,2.9l0,0h-1.6c0-0.7-0.2-1.5-0.7-2C75,60.2,74.2,60,73.4,60c-0.9,0-1.7,0.4-2.2,1.1
			c-0.6,0.8-0.8,1.8-0.8,2.7V66c0,1,0.2,1.9,0.8,2.8c0.5,0.7,1.3,1.1,2.2,1.1c0.8,0,1.5-0.2,2.1-0.7c0.5-0.5,0.8-1.3,0.7-2
			L77.8,67.1z M81.8,71h-1.6V58.9h1.6L81.8,71z M94,66c0,1.4-0.4,2.7-1.4,3.7c-0.9,1-2.2,1.5-3.6,1.5c-1.3,0-2.6-0.5-3.4-1.5
			c-0.9-1-1.4-2.3-1.3-3.7v-2.1c0-1.3,0.4-2.7,1.3-3.7c0.9-1,2.1-1.5,3.4-1.5c1.3,0,2.6,0.5,3.6,1.5c0.9,1,1.4,2.3,1.4,3.7L94,66z
			 M92.4,63.8c0-1-0.3-2-0.9-2.7c-0.6-0.7-1.5-1.1-2.4-1.1c-0.9,0-1.7,0.4-2.3,1.1c-0.6,0.8-0.9,1.7-0.9,2.7V66c0,1,0.3,2,0.9,2.7
			c0.5,0.7,1.4,1.1,2.3,1.1c0.9,0,1.8-0.4,2.4-1.1c0.6-0.8,0.9-1.8,0.9-2.7L92.4,63.8z M105.6,71H104l-5.8-9.3l-0.1,0V71h-1.6V58.9
			h1.6l5.8,9.3l0.1,0v-9.3h1.6L105.6,71z M115.3,67.9h-5.1l-1.1,3.1h-1.7l4.7-12.1h1.4l4.6,12.1h-1.7L115.3,67.9z M110.7,66.5h4.1
			l-2-5.5h-0.1L110.7,66.5z M121.4,69.7h5.7V71h-7.4V58.9h1.6L121.4,69.7z M133.2,71V58.9h3.7c2.7-0.2,5.1,1.9,5.2,4.7
			c0,0.2,0,0.4,0,0.6v1.7c0.1,2.7-1.9,5.1-4.7,5.2c-0.2,0-0.4,0-0.6,0H133.2z M134.8,60.2v9.5h2.1c1,0,2-0.4,2.6-1.1
			c0.7-0.8,1-1.8,1-2.8v-1.7c0-1-0.3-2-1-2.8c-0.7-0.7-1.6-1.1-2.6-1.1L134.8,60.2z M151.5,65.4H146v4.3h6.4V71h-8V58.9h7.9v1.3H146
			v3.9h5.5L151.5,65.4z M56.5,91.4h-1.6V79.3h1.6L56.5,91.4z M68.7,91.4h-1.6L61.2,82l0,0v9.3h-1.6V79.3h1.6l5.8,9.3l0.1,0v-9.3h1.6
			L68.7,91.4z M78.8,86h-5.5v5.3h-1.6V79.3h8v1.3h-6.4v4.2h5.5L78.8,86z M87.6,88.3h-5.1l-1.1,3.1h-1.7l4.7-12.1h1.4l4.6,12.1h-1.7
			L87.6,88.3z M83.1,86.9h4.1l-2-5.5h0L83.1,86.9z M101.2,91.4h-1.6L93.8,82l-0.1,0v9.3h-1.6V79.3h1.6l5.8,9.3l0.1,0v-9.3h1.6
			L101.2,91.4z M112.8,87.5L112.8,87.5c0.1,1.1-0.4,2.2-1.2,2.9c-0.9,0.8-2.1,1.2-3.2,1.2c-1.3,0-2.5-0.5-3.3-1.5
			c-0.9-1-1.3-2.3-1.3-3.7v-2.2c0-1.3,0.4-2.7,1.3-3.7c0.8-1,2.1-1.5,3.3-1.5c1.2-0.1,2.4,0.3,3.3,1.1c0.8,0.7,1.2,1.8,1.2,2.9
			l0,0.1h-1.6c0-0.7-0.2-1.5-0.7-2c-0.6-0.5-1.3-0.8-2.1-0.7c-0.9,0-1.7,0.4-2.2,1.1c-0.6,0.8-0.8,1.8-0.8,2.7v2.2
			c0,1,0.2,1.9,0.8,2.8c0.5,0.7,1.3,1.1,2.2,1.1c0.8,0,1.5-0.2,2.1-0.7c0.5-0.5,0.8-1.3,0.7-2L112.8,87.5z M116.7,91.4h-1.6V79.3
			h1.6L116.7,91.4z M126.5,88.3h-5.1l-1.1,3.1h-1.7l4.7-12.1h1.4l4.6,12.1h-1.7L126.5,88.3z M121.9,86.9h4.1l-2-5.5H124L121.9,86.9z
			 M138.9,85.4l3.2-6.1h1.9l-4.2,7.8v4.3H138V87l-4.2-7.7h1.9L138.9,85.4z M45.2,108.7h-5.1l-1.1,3.1h-1.7L42,99.7h1.4l4.6,12.1
			h-1.7L45.2,108.7z M40.6,107.3h4.1l-2-5.5h0L40.6,107.3z M49.6,111.8V99.7h3.7c2.7-0.2,5.1,1.9,5.2,4.7c0,0.2,0,0.4,0,0.6v1.7
			c0.1,2.7-1.9,5.1-4.7,5.2c-0.2,0-0.4,0-0.6,0H49.6z M51.3,101v9.5h2.1c1,0,2-0.4,2.6-1.1c0.7-0.8,1-1.8,1-2.8v-1.7
			c0-1-0.3-2-1-2.8c-0.7-0.7-1.6-1.1-2.6-1.1L51.3,101z M70,106.8c0,1.4-0.4,2.7-1.4,3.7c-0.9,1-2.2,1.5-3.6,1.5
			c-1.3,0-2.6-0.5-3.4-1.5c-0.9-1-1.4-2.3-1.3-3.7v-2.2c0-1.3,0.4-2.7,1.3-3.7c0.9-1,2.1-1.5,3.4-1.5c1.3-0.1,2.6,0.5,3.6,1.5
			c0.9,1,1.4,2.3,1.4,3.7L70,106.8z M68.3,104.6c0-1-0.3-2-0.9-2.7c-0.6-0.7-1.5-1.1-2.4-1.1c-0.9,0-1.7,0.4-2.3,1.1
			c-0.6,0.8-0.9,1.7-0.9,2.7v2.2c0,1,0.3,2,0.9,2.7c0.5,0.7,1.4,1.1,2.3,1.1c0.9,0,1.8-0.4,2.4-1.1c0.6-0.8,0.9-1.8,0.9-2.7
			L68.3,104.6z M74,110.5h5.7v1.3h-7.4V99.7H74L74,110.5z M88.8,106.2h-5.5v4.3h6.4v1.3h-8V99.7h7.9v1.3h-6.3v3.9h5.5V106.2z
			 M98.1,108.7c0-0.5-0.2-1-0.6-1.4c-0.7-0.5-1.4-0.8-2.2-0.9c-1.1-0.2-2.1-0.7-3-1.3c-0.7-0.5-1.1-1.4-1.1-2.2
			c0-0.9,0.4-1.8,1.2-2.4c0.9-0.7,1.9-1,3-0.9c1.2-0.1,2.3,0.3,3.2,1.1c0.7,0.6,1.2,1.6,1.1,2.5l0,0.1h-1.6c0-0.6-0.2-1.3-0.7-1.7
			c-1.1-0.8-2.7-0.9-3.9-0.1c-0.4,0.4-0.7,0.9-0.7,1.4c0,0.5,0.3,1,0.7,1.3c0.7,0.4,1.5,0.8,2.3,0.9c1.1,0.2,2.1,0.7,2.9,1.4
			c0.7,0.6,1,1.4,1,2.3c0,0.9-0.4,1.8-1.2,2.3c-0.9,0.6-2,0.9-3.1,0.9c-1.1,0-2.3-0.3-3.2-1c-0.9-0.6-1.4-1.6-1.3-2.6l0-0.1h1.6
			c0,0.7,0.3,1.4,0.9,1.8c0.6,0.4,1.4,0.6,2.1,0.6c0.7,0,1.4-0.1,2-0.5C97.9,109.8,98.1,109.3,98.1,108.7L98.1,108.7z M110.7,107.9
			L110.7,107.9c0.1,1.1-0.4,2.2-1.2,2.9c-0.9,0.8-2.1,1.2-3.2,1.2c-1.3,0-2.5-0.5-3.3-1.5c-0.9-1-1.3-2.3-1.3-3.7v-2.2
			c0-1.3,0.4-2.7,1.3-3.7c0.8-1,2.1-1.5,3.3-1.5c1.2-0.1,2.4,0.3,3.3,1.1c0.8,0.7,1.2,1.8,1.2,2.9l0,0.1h-1.6c0-0.7-0.2-1.5-0.7-2
			c-0.6-0.5-1.3-0.8-2.1-0.7c-0.9,0-1.7,0.4-2.2,1.1c-0.6,0.8-0.8,1.8-0.8,2.7v2.2c0,1,0.2,1.9,0.8,2.8c0.5,0.7,1.3,1.1,2.2,1.1
			c0.8,0,1.5-0.2,2.1-0.7c0.5-0.5,0.8-1.3,0.7-2L110.7,107.9z M120.1,106.2h-5.5v4.3h6.4v1.3h-8V99.7h7.9v1.3h-6.3v3.9h5.5V106.2z
			 M132,111.8h-1.6l-5.8-9.3l-0.1,0v9.3h-1.6V99.7h1.6l5.8,9.3l0.1,0v-9.3h1.6L132,111.8z M143.5,107.9L143.5,107.9
			c0.1,1.1-0.4,2.2-1.2,2.9c-0.9,0.8-2.1,1.2-3.2,1.2c-1.3,0-2.5-0.5-3.3-1.5c-0.9-1-1.3-2.3-1.3-3.7v-2.2c0-1.3,0.4-2.7,1.3-3.7
			c0.8-1,2.1-1.5,3.3-1.5c1.2-0.1,2.4,0.3,3.3,1.1c0.8,0.7,1.2,1.8,1.2,2.9l0,0.1h-1.6c0-0.7-0.2-1.5-0.7-2
			c-0.6-0.5-1.3-0.8-2.1-0.7c-0.9,0-1.7,0.4-2.2,1.1c-0.6,0.8-0.8,1.8-0.8,2.7v2.2c0,1,0.2,1.9,0.8,2.8c0.5,0.7,1.3,1.1,2.2,1.1
			c0.8,0,1.5-0.2,2.1-0.7c0.5-0.5,0.8-1.3,0.7-2L143.5,107.9z M147.4,111.8h-1.6V99.7h1.6V111.8z M157.2,108.7h-5.1l-1.1,3.1h-1.7
			l4.7-12.1h1.4l4.6,12.1h-1.7L157.2,108.7z M152.7,107.3h4.1l-2-5.5h-0.1L152.7,107.3z"/>
	</g>
	<g id="Grupo_50385" transform="translate(-7617.427 -10309.996)">
		<g id="Grupo_50345" transform="translate(0 81.332)">
			<path id="Trazado_111087" class="st8" d="M39.3,32.6l10.2-4.9l-5.6-16.6L31.6,8.2c-1.2-0.3-2.4-0.6-3.9-1C26,6.8,24.5,6.1,23,5.1
				c-1.8-1.2-3.5-2.6-4.9-4.2c-1.2-1.6-3.6-1-3.6,0.8s3.1,6.2,8.6,9.4s-4.2,4.7-7.8,5.3c-3.6,0.6-14.4,3-15.1,4.3
				c-0.9,1.8,0.9,3.2,4.4,2.5c3.6-0.7,14.3-2.1,14.6-0.2c0,0,0,0,0,0.1c-1.8,2.8-1.6,6.4,0.5,8.9c2,2.5,5,5.6,7.1,5.1
				C30.9,36.2,39.3,32.6,39.3,32.6z"/>
		</g>
		<g id="Grupo_50346" transform="translate(38.669)">
			<path id="Trazado_111088" class="st5" d="M0,84.7l9.6,32.4l74.3-22.6c15.7-4.8,24.6-21.4,19.8-37.2c-0.1-0.2-0.1-0.4-0.2-0.6
				L85.3,0L45.7,9.8l21.7,52.5L0,84.7z"/>
		</g>
		<g id="Grupo_50348" transform="translate(38.38 20.597)">
			<g id="Grupo_50347">
				<path id="Trazado_111089" class="st4" d="M85.9,73.3c0,0-0.1,0-0.4,0.1l-1.1,0.3l-4.2,1.3l-15.6,4.8L10.6,96.3l-0.2,0.1
					l-0.1-0.2C7,86.3,3.8,75.4,0.1,64.2L0,64l0.2-0.1l1.9-0.6l65.6-21.8l-0.1,0.2C62.3,29,58.1,18.6,55.1,11.3L51.7,3
					c-0.4-1-0.7-1.7-0.9-2.2C50.6,0.3,50.5,0,50.5,0s0.1,0.2,0.3,0.7s0.5,1.2,0.9,2.2c0.8,1.9,2,4.7,3.5,8.3l12.7,30.4l0.1,0.2
					l-0.2,0.1L2.2,63.7l-1.9,0.6l0.1-0.3c3.7,11.2,6.9,22.1,10.2,32l-0.3-0.1l54.1-16.3L80.2,75l4.2-1.2l1.1-0.3
					C85.7,73.4,85.9,73.3,85.9,73.3z"/>
			</g>
		</g>
		<g id="Grupo_50350" transform="translate(105.679 62.29)">
			<g id="Grupo_50349">
				<path id="Trazado_111090" class="st4" d="M14.2,9.4c-0.1,0-0.6-0.8-1.6-2.1C10,4.1,6.5,1.8,2.5,0.7C1,0.2,0,0.1,0,0
					c0.2,0,0.5,0,0.7,0C1.3,0.1,2,0.2,2.6,0.3c4.1,1,7.8,3.4,10.3,6.8c0.4,0.5,0.7,1,1,1.6C14,9,14.1,9.2,14.2,9.4z"/>
			</g>
		</g>
		<g id="Grupo_50352" transform="translate(101.622 2.978)">
			<g id="Grupo_50351">
				<path id="Trazado_111091" class="st7" d="M0.2,9.6c-0.3-3.2-0.3-6.4,0-9.6C0.5,3.2,0.5,6.4,0.2,9.6z"/>
			</g>
		</g>
		<g id="Grupo_50354" transform="translate(113.97 4.014)">
			<g id="Grupo_50353">
				<path id="Trazado_111092" class="st7" d="M2.8,9.3C1.6,6.3,0.7,3.2,0,0C1.2,3,2.2,6.1,2.8,9.3z"/>
			</g>
		</g>
		<g id="Grupo_50356" transform="translate(98.838 24.253)">
			<g id="Grupo_50355">
				<path id="Trazado_111093" class="st7" d="M8.7,2.6C5.6,2.5,2.6,1.6,0,0c0.1-0.1,1.9,0.7,4.3,1.4S8.7,2.4,8.7,2.6z"/>
			</g>
		</g>
		<g id="Grupo_50358" transform="translate(124.368 25.135)">
			<g id="Grupo_50357">
				<path id="Trazado_111094" class="st7" d="M0,9.1C0.3,6,0.8,3,1.6,0C1.4,3.1,0.9,6.1,0,9.1z"/>
			</g>
		</g>
		<g id="Grupo_50360" transform="translate(114.41 37.685)">
			<g id="Grupo_50359">
				<path id="Trazado_111095" class="st7" d="M4,8.6C2.4,5.9,1,3,0,0C1.6,2.7,2.9,5.6,4,8.6z"/>
			</g>
		</g>
		<g id="Grupo_50362" transform="translate(107.76 52.942)">
			<g id="Grupo_50361">
				<path id="Trazado_111096" class="st7" d="M8.1,4C6.7,3.5,5.3,2.9,4,2.2C2.6,1.6,1.2,0.9,0,0C2.8,1,5.6,2.4,8.1,4L8.1,4z"/>
			</g>
		</g>
		<g id="Grupo_50364" transform="translate(131.431 54.074)">
			<g id="Grupo_50363">
				<path id="Trazado_111097" class="st7" d="M3.4,0C2.4,2.7,1.2,5.4,0,8C0.6,5.1,1.8,2.4,3.4,0z"/>
			</g>
		</g>
		<g id="Grupo_50366" transform="translate(128.57 69.708)">
			<g id="Grupo_50365">
				<path id="Trazado_111098" class="st7" d="M1,9.8c-0.6-3.2-1-6.5-1-9.8C0.7,3.2,1,6.5,1,9.8z"/>
			</g>
		</g>
		<g id="Grupo_50368" transform="translate(109.516 81.473)">
			<g id="Grupo_50367">
				<path id="Trazado_111099" class="st7" d="M6.7,6.1C4.3,4.3,2,2.3,0,0C2.4,1.8,4.7,3.9,6.7,6.1z"/>
			</g>
		</g>
		<g id="Grupo_50370" transform="translate(87.278 89.914)">
			<g id="Grupo_50369">
				<path id="Trazado_111100" class="st7" d="M5.7,0C4.1,2.8,2.2,5.4,0,7.8C1.7,5,3.6,2.4,5.7,0z"/>
			</g>
		</g>
		<g id="Grupo_50372" transform="translate(93.966 72.16)">
			<g id="Grupo_50371">
				<path id="Trazado_111101" class="st7" d="M6.4,6.9C3.8,5.1,1.6,2.7,0,0c0.1-0.1,1.4,1.6,3.2,3.5S6.5,6.8,6.4,6.9z"/>
			</g>
		</g>
		<g id="Grupo_50374" transform="translate(75.998 81.001)">
			<g id="Grupo_50373">
				<path id="Trazado_111102" class="st7" d="M6.9,0.5C4.6,1.3,2.1,1.1,0,0c0-0.1,1.5,0.3,3.4,0.5C5.3,0.6,6.9,0.4,6.9,0.5z"/>
			</g>
		</g>
		<g id="Grupo_50376" transform="translate(70.49 93.1)">
			<g id="Grupo_50375">
				<path id="Trazado_111103" class="st7" d="M1.3,7.6C0.6,5.1,0.2,2.6,0,0C0.8,2.5,1.2,5,1.3,7.6z"/>
			</g>
		</g>
		<g id="Grupo_50378" transform="translate(50.173 101.901)">
			<g id="Grupo_50377">
				<path id="Trazado_111104" class="st7" d="M8.6,5.4C5.6,3.9,2.7,2.1,0,0C3,1.6,5.9,3.4,8.6,5.4z"/>
			</g>
		</g>
		<g id="Grupo_50380" transform="translate(58.263 83.977)">
			<g id="Grupo_50379">
				<path id="Trazado_111105" class="st7" d="M5.2,0C5.3,0.1,4,1.6,2.6,3.6S0.1,7.2,0,7.1C1.2,4.4,3,2,5.2,0L5.2,0z"/>
			</g>
		</g>
		<g id="Grupo_50384" transform="translate(105.5 60.381)" class="st11">
			<g id="Grupo_50383">
				<path id="Trazado_111107" d="M0,0.6C4,1,7.9,1.4,11.9,1.9c1.4,0.1,2.7,0.4,4,0.9c1.3,0.5,2.3,1.5,2.9,2.8
					c0.5,1.3,0.1,2.8-1.1,3.7c-1.1,0.6-2.5,0.5-3.6-0.2c-1.1-0.7-2.1-1.5-3-2.3C9.4,5.3,7.3,4.2,5.1,3.6c-1-0.2-2-0.5-2.9-1
					C1.2,2.1,0.7,1,0.9,0"/>
			</g>
		</g>
	</g>
</g>
</svg>
