<svg xmlns="http://www.w3.org/2000/svg" width="265.214" height="272.37" viewBox="0 0 265.214 272.37">
  <g id="Grupo_53068" data-name="Grupo 53068" transform="translate(-789.216 -455.101)">
    <path id="Floor" d="M834.114,685.569c-48.718,28.126-48.718,73.73,0,101.86s127.711,28.126,176.426,0,48.72-73.733,0-101.86S882.832,657.44,834.114,685.569Z" transform="translate(-3.237 -81.054)" fill="#d0d4d9"/>
    <g id="Grass" transform="translate(790.049 578.154)">
      <g id="Grupo_50431" data-name="Grupo 50431" transform="translate(8.483 0)">
        <path id="Trazado_111786" data-name="Trazado 111786" d="M815.656,702.515c.362-8.281-4.1-14.979-4.161-24.2-.072-11.614-.229-14.091-1.448-22.429,3.264,9.74,4.191,16.457,5.624,22.429S817.827,695.416,815.656,702.515Z" transform="translate(-806.596 -655.882)" fill="#9db7c5"/>
        <path id="Trazado_111787" data-name="Trazado 111787" d="M819.2,718.261c3.114-5.393,2.863-15.051,5.3-21.706C825.277,700.942,825.7,711.026,819.2,718.261Z" transform="translate(-810.139 -671.628)" fill="#9db7c5"/>
        <path id="Trazado_111788" data-name="Trazado 111788" d="M813.476,714.653c0-1.907-2.518-10.106-5.2-15.18a31.277,31.277,0,0,1-3.406-12.238c-.725,7.744-.917,11.056,2.029,16.492S812.516,710.772,813.476,714.653Z" transform="translate(-804.416 -668.02)" fill="#9db7c5"/>
      </g>
      <g id="Grupo_50432" data-name="Grupo 50432" transform="translate(242.874 9.986)">
        <path id="Trazado_111789" data-name="Trazado 111789" d="M1195.339,718.81c-.361-8.282,4.1-14.979,4.162-24.2.072-11.614.229-14.091,1.448-22.429-3.265,9.741-4.191,16.458-5.624,22.429S1193.168,711.711,1195.339,718.81Z" transform="translate(-1189.614 -672.176)" fill="#9db7c5"/>
        <path id="Trazado_111790" data-name="Trazado 111790" d="M1192.589,734.556c-3.113-5.393-2.862-15.052-5.3-21.706C1186.511,717.236,1186.09,727.32,1192.589,734.556Z" transform="translate(-1186.864 -687.922)" fill="#9db7c5"/>
        <path id="Trazado_111791" data-name="Trazado 111791" d="M1196.2,730.948c0-1.907,2.519-10.107,5.2-15.18a31.3,31.3,0,0,0,3.406-12.238c.724,7.744.917,11.056-2.029,16.491S1197.166,727.067,1196.2,730.948Z" transform="translate(-1190.48 -684.315)" fill="#9db7c5"/>
      </g>
      <g id="Grupo_50433" data-name="Grupo 50433" transform="translate(0 34.233)">
        <path id="Trazado_111792" data-name="Trazado 111792" d="M798.355,747.4c.958-6.22-1.858-11.644-1.137-18.612.907-8.771.994-10.654.764-17.048,1.657,7.622,1.8,12.768,2.388,17.393S800.582,742.221,798.355,747.4Z" transform="translate(-793.101 -711.739)" fill="#9db7c5"/>
        <path id="Trazado_111793" data-name="Trazado 111793" d="M795.83,756.4c.158-1.439-1.064-7.836-2.668-11.887A23.747,23.747,0,0,1,791.6,735c-1.188,5.785-1.608,8.268.166,12.615S795.426,753.394,795.83,756.4Z" transform="translate(-790.575 -720.743)" fill="#9db7c5"/>
      </g>
    </g>
    <path id="Cloud" d="M1178.785,610.9a7.727,7.727,0,0,0-2.588-.478c-.838-.066-1.1-.232-1.264-.413a6.178,6.178,0,0,0-7.417-2.192,4.739,4.739,0,0,0-5.593-3.161c.091-2.607-3.237-5.409-6.228-6.045-2.868-.61-5.369-.354-7.006,1.532-1.752-3.421-8.62-4.385-12.335-2.575-2.137,1.041-3.95,2.109-4.836,4.068a8.165,8.165,0,0,0-.805,3.893,6.858,6.858,0,0,0-6.282-.873c-2.086.807-2.244,2.379-2.347,3.978a7.281,7.281,0,0,0-3.8-.068c-1.314.389-2.071,1.421-1.891,2.254-1.039-.058-3.517.783-3.232,1.88.319,1.232,3.148,1.107,4.2,1.068a19.609,19.609,0,0,0,2.957-.464,4.559,4.559,0,0,0,1.538.292c1.8-.013,2.564-.784,2.853-1.454.879,1.85,4.007,3.26,6.218,3.826,4.164,1.066,10.056.417,12.62-2.7a4.637,4.637,0,0,0,1.241,1.511,7.194,7.194,0,0,0,3.852,1.561c1.71.16,6.3.379,7.592-2.339.916,1.807,5,2.631,8.108,2.19a12.739,12.739,0,0,0,3.479-1.05,20.889,20.889,0,0,0,2-1.2,1.665,1.665,0,0,1,1.705-.117,10.153,10.153,0,0,0,6.784-.007C1180.052,613.092,1180.414,611.638,1178.785,610.9Z" transform="translate(-125.402 -54.806)" fill="#cbe8ff"/>
    <path id="Cloud-2" data-name="Cloud" d="M790.181,472.288a7.132,7.132,0,0,1,2.387-.441c.773-.061,1.017-.214,1.166-.381a5.7,5.7,0,0,1,6.84-2.021,4.371,4.371,0,0,1,5.158-2.915c-.085-2.4,2.985-4.987,5.744-5.575,2.645-.563,4.951-.327,6.46,1.413,1.615-3.155,7.95-4.044,11.377-2.375,1.97.96,3.643,1.945,4.46,3.751a7.531,7.531,0,0,1,.742,3.591,6.323,6.323,0,0,1,5.794-.805c1.924.743,2.07,2.193,2.165,3.668a6.726,6.726,0,0,1,3.5-.063c1.212.359,1.91,1.31,1.744,2.079.958-.054,3.243.721,2.98,1.734-.295,1.136-2.9,1.021-3.877.986a18.16,18.16,0,0,1-2.727-.428,4.212,4.212,0,0,1-1.418.269c-1.661-.012-2.364-.723-2.631-1.342-.811,1.707-3.7,3.007-5.735,3.53-3.84.982-9.274.384-11.639-2.486a4.268,4.268,0,0,1-1.144,1.394,6.642,6.642,0,0,1-3.553,1.44c-1.577.147-5.809.349-7-2.158-.845,1.667-4.612,2.426-7.478,2.019a11.761,11.761,0,0,1-3.208-.968,19.393,19.393,0,0,1-1.845-1.106,1.534,1.534,0,0,0-1.572-.108,9.366,9.366,0,0,1-6.256-.007C789.012,474.31,788.678,472.969,790.181,472.288Z" transform="translate(0 -1.573)" fill="#cbe8ff"/>
    <ellipse id="Shadow" cx="43.227" cy="24.957" rx="43.227" ry="24.957" transform="translate(806.375 628.924)" fill="#a3b8d1"/>
    <path id="Shadow-2" data-name="Shadow" d="M1059.7,799.781l-17.342-10.013-8.475,4.894a12.622,12.622,0,0,1-12.3-.484l-50.069-34.414c-3.3-2.266-3.161-5.757.3-7.758l31.728-18.317a15.393,15.393,0,0,1,12.846-.463l60.789,29.482c3.6,1.746,3.711,4.812.245,6.812l-8.384,4.84,17.262,10.044c3.458,2.013,3.453,5.3-.012,7.3l-14,8.081A13.98,13.98,0,0,1,1059.7,799.781Z" transform="translate(-69.649 -107.212)" fill="#a3b8d1"/>
    <g id="Character" transform="translate(815.673 455.101)">
      <g id="Bottom" transform="translate(0 83.894)">
        <g id="Grupo_50436" data-name="Grupo 50436" transform="translate(0 0.339)">
          <path id="Trazado_111794" data-name="Trazado 111794" d="M901.4,702.934a50.887,50.887,0,0,1-7.9-6.72c-2.939-3.193-4.568-4.486-4.568-7.59,0-4.468,2.539-32.323,3.11-38.955,1.458-16.964.98-45.183-.385-57.127h-41.54c-.731,5.187-.79,10.488-1.126,15.867-.7,11.147-1.165,19.5-2.5,33.168a103.622,103.622,0,0,0-4.234,18.294c-.892,6.189-1.264,16.084-2.786,23.516-.871,3.107-1.457,3.5-2.264,6.849a51.049,51.049,0,0,1-3.57,10.635c-1.793,3.7-2.122,8.8,2.105,12.424s8.034.868,8.964-1.571,1.326-5.8,1.6-10.093a46.686,46.686,0,0,1,2.816-14.82h0c3.491-8.776,10.859-27.319,13.7-34.581a210.5,210.5,0,0,0,8.285-27.015l3.013,20.529s-1.3,5.361-.116,14.817c.772,6.175,3.145,16.349,3.759,24.395.271,5.1.151,5.925-.531,8.482-.751,2.819-1.44,4.311-.279,6.4.787,1.416,3.631,2.247,6.85,3.639s3.517,3.533,6.43,5.444,9.441,2.235,13.487-.452S903.459,704.492,901.4,702.934Z" transform="translate(-832.385 -592.541)" fill="#b06767"/>
          <g id="Grupo_50434" data-name="Grupo 50434" transform="translate(43.956 103.114)">
            <path id="Trazado_111795" data-name="Trazado 111795" d="M931.493,773.6c2.464-1.637,1.826-2.754.486-3.729a1.121,1.121,0,0,0-.5.554,7.559,7.559,0,0,0-.172.834,1.469,1.469,0,0,1-.469.728,1.073,1.073,0,0,1-.612.289c-.259.006-.517.03-.776.048a2.887,2.887,0,0,0-1.64.658,4.7,4.7,0,0,1-.484.4,2.19,2.19,0,0,1-.893.273,7.081,7.081,0,0,1-.883.061,1.344,1.344,0,0,1-.555-.083,2.571,2.571,0,0,1-.632-.55,3.064,3.064,0,0,0-2.342-.557c-.155.012-.339.048-.4.193-.043.109.009.239-.036.348-.064.157-.275.177-.443.162a4.3,4.3,0,0,1-1.109-.25,1.266,1.266,0,0,1-.581-.343,1.493,1.493,0,0,0-.2-.208c-.188-.159-.391-.3-.58-.46-.3-.249-.583-.51-.869-.772a5.256,5.256,0,0,1-.986-1.1,2.661,2.661,0,0,0-.722-1c-.431-.265-1.014-.121-1.467-.347-.4-.2-.619-.639-.995-.873a2.9,2.9,0,0,0-.834-.281,9.475,9.475,0,0,1-3.77-2.308,4.738,4.738,0,0,1-1.021-1.137c-.253-.441-.367-.948-.583-1.409a3.555,3.555,0,0,0-3.037-1.951,5.087,5.087,0,0,0,.327,4.182c.787,1.416,3.631,2.247,6.85,3.639s3.517,3.533,6.43,5.444S927.447,776.288,931.493,773.6Z" transform="translate(-904.106 -760.788)" fill="#994b4b"/>
            <path id="Trazado_111796" data-name="Trazado 111796" d="M938.652,779.715c-.108.06-.227.164-.19.282.029.09.135.127.227.148a2.9,2.9,0,0,0,.9.076,1.66,1.66,0,0,0,.844-.308.252.252,0,0,0,.126-.192c0-.114-.135-.173-.247-.2a3.848,3.848,0,0,0-.527-.064,3.216,3.216,0,0,0-.324-.015,1.475,1.475,0,0,0-.455.072.464.464,0,0,0-.161.089A1.14,1.14,0,0,1,938.652,779.715Z" transform="translate(-917.404 -768.01)" fill="#994b4b"/>
            <path id="Trazado_111797" data-name="Trazado 111797" d="M914.3,768.6a.6.6,0,0,0,.144.238,2.427,2.427,0,0,0,.52.483,1.092,1.092,0,0,0,.674.189c.173-.015.365-.115.384-.288a.434.434,0,0,0-.186-.344,1.658,1.658,0,0,0-.385-.249,4.377,4.377,0,0,0-.618-.22c-.06-.017-.121-.029-.183-.042-.089-.019-.192-.064-.276-.006A.227.227,0,0,0,914.3,768.6Z" transform="translate(-908.051 -763.71)" fill="#994b4b"/>
          </g>
          <g id="Grupo_50435" data-name="Grupo 50435" transform="translate(0 93.443)">
            <path id="Trazado_111798" data-name="Trazado 111798" d="M844.956,766.142q-.16.716-.328,1.43-.094.4-.189.8a.735.735,0,0,1-.272.494.928.928,0,0,1-.5.054,1.768,1.768,0,0,0-1.424.671c-.413.531-.5,1.274-.96,1.764a2.028,2.028,0,0,1-1.471.563,1.877,1.877,0,0,1-1.39-.4c-.326-.369-.091-.788-.032-1.2a1.707,1.707,0,0,0-.531-1.392,2.195,2.195,0,0,0-.4-.326,5.559,5.559,0,0,0-2.1-.619.651.651,0,0,1-.681-.736c-.28-3-.5-6.251,1.141-8.772a5.746,5.746,0,0,0,1.153-2.141c.054-.365.006-.744.1-1.1.158-.626.7-1.084.929-1.689.34-.917-.128-1.945.017-2.912a16.9,16.9,0,0,1,.6-5.623,26.773,26.773,0,0,0-1.4,4.252,51.051,51.051,0,0,1-3.57,10.635c-1.793,3.7-2.122,8.8,2.105,12.424s8.034.869,8.964-1.571a33.493,33.493,0,0,0,1.528-9.021q-.195.5-.376,1.016c-.133.374-.228.778-.385,1.143a1.055,1.055,0,0,0-.068.177c-.04.166-.071.335-.107.5q-.107.5-.218,1Q845.021,765.856,844.956,766.142Z" transform="translate(-832.385 -745.008)" fill="#994b4b"/>
            <path id="Trazado_111799" data-name="Trazado 111799" d="M836.641,779.929c-.006.037-.011.075-.018.114a.568.568,0,0,0,.022.326.836.836,0,0,0,.343.351,2.067,2.067,0,0,0,1.222.412.208.208,0,0,0,.088-.02.162.162,0,0,0,.067-.1.481.481,0,0,0-.206-.483,3.935,3.935,0,0,1-.446-.335c-.113-.123-.179-.283-.283-.415a.582.582,0,0,0-.362-.219.378.378,0,0,0-.368.181A.531.531,0,0,0,836.641,779.929Z" transform="translate(-834.02 -758.384)" fill="#994b4b"/>
          </g>
        </g>
        <g id="Grupo_50438" data-name="Grupo 50438" transform="translate(7.106)">
          <path id="Trazado_111800" data-name="Trazado 111800" d="M897.886,633.293c0-8.122-.416-32.281-1.319-41.305H854.36l-3.818,48.941a90.14,90.14,0,0,0-3.022,11.062c-1.03,5.084-1.456,10.264-2.053,15.411a10.568,10.568,0,0,1-1.488,4.744,4.005,4.005,0,0,0,2.922-1.405,6.383,6.383,0,0,0,2,4.082c.474-.153.8-.68,1.2-.977a4.332,4.332,0,0,0,3.307,1.894c.248.015.81-.938.951-1.054a1.089,1.089,0,0,1,1.284,0,4.028,4.028,0,0,0,3.323,1.163,9.634,9.634,0,0,1,.591-3.56c1.361-3.423,2.687-6.861,4.127-10.252,2.88-5.435,10.962-30.009,11.686-33.808l2.8,17.3c-.842,4.536-.62,12.767.493,19.218.537,3.89,2.051,7.913.674,11.785a3.912,3.912,0,0,0,2.958-1.344c.427,1.1,1.567,2.711,2.89,2.424a17.01,17.01,0,0,0,1.64-2.294c.881.7,2.458,2.169,3.528,1.231.388-.459.318-1.358.909-1.468a21.482,21.482,0,0,0,3.55.287c.245-.007.542-.056.631-.285-.41-5.667.75-11.366,1.044-17.05C897.055,653.2,898.077,633.973,897.886,633.293Z" transform="translate(-843.979 -591.988)" fill="#0a4b6e"/>
          <path id="Trazado_111801" data-name="Trazado 111801" d="M916.67,710.608c-.342.222-.393.688-.5,1.081a2.721,2.721,0,0,1-1.994,1.879,2.251,2.251,0,0,0-.758.221c-.865.553-.113,2.168-.911,2.815-.887.173-2.032.236-2.462-.56-.2-.365-.177-.83-.422-1.164a1.208,1.208,0,0,0-1.715-.012,3.5,3.5,0,0,0-.861,1.7,1.538,1.538,0,0,1-2-.36c-.516-.539-.807-1.258-1.3-1.815a6.449,6.449,0,0,1-.929-1.044c-.4-.718-.207-1.64-.542-2.39A2.46,2.46,0,0,0,900.7,709.7c-.1-.029-.2-.047-.3-.068.035.22.069.442.106.659.537,3.89,2.051,7.913.674,11.785a3.914,3.914,0,0,0,2.958-1.344c.426,1.1,1.566,2.711,2.89,2.424a17.007,17.007,0,0,0,1.64-2.294c.881.7,2.458,2.169,3.528,1.231.388-.459.318-1.358.909-1.468a21.468,21.468,0,0,0,3.55.287c.245-.007.542-.056.631-.285a57.743,57.743,0,0,1,.427-10.174A2.143,2.143,0,0,0,916.67,710.608Z" transform="translate(-865.821 -637.531)" fill="#12263f"/>
          <path id="Trazado_111802" data-name="Trazado 111802" d="M864.642,702.306c-.025,0-.05,0-.074,0a1.949,1.949,0,0,0-1.557,1.158c-.292.716-.129,1.622-.643,2.2-.549.618-1.647.574-2.079,1.279-.106.173-.178.4-.367.469-.3.116-.559-.227-.853-.353a.938.938,0,0,0-1.09.454,3.488,3.488,0,0,0-.358,1.227,3.389,3.389,0,0,1-.95,1.959,1.585,1.585,0,0,1-2.024.133,1.43,1.43,0,0,0-.379-.308c-.181-.073-.39-.023-.575-.086-.308-.105-.427-.468-.637-.717a1.107,1.107,0,0,0-1.555-.072c-.49.48-.636,1.48-1.322,1.448a1.155,1.155,0,0,1-.557-.238,3.282,3.282,0,0,1-1.648-1.849,9.81,9.81,0,0,0-.144-1.364c-.154-.433-.776-.742-1.062-.383a13.568,13.568,0,0,0,.429-4.818,1.349,1.349,0,0,0-.387-.98.878.878,0,0,0-.392-.161c-.349,2.8-.626,5.616-.951,8.419a10.576,10.576,0,0,1-1.488,4.744,4.005,4.005,0,0,0,2.922-1.405,6.382,6.382,0,0,0,2,4.082c.474-.152.8-.68,1.2-.977a4.329,4.329,0,0,0,3.307,1.893c.248.016.81-.938.951-1.054a1.089,1.089,0,0,1,1.284,0,4.027,4.027,0,0,0,3.323,1.163,9.633,9.633,0,0,1,.591-3.559c1.361-3.423,2.687-6.861,4.126-10.252C863.961,703.833,864.284,703.138,864.642,702.306Z" transform="translate(-843.979 -634.306)" fill="#12263f"/>
          <g id="Grupo_50437" data-name="Grupo 50437" transform="translate(10.157 48.356)">
            <path id="Trazado_111803" data-name="Trazado 111803" d="M876.1,682.039a15.222,15.222,0,0,1-9.937-3.2C869.83,684.825,876.1,682.039,876.1,682.039Z" transform="translate(-862.722 -673.966)" fill="#b06767"/>
            <path id="Trazado_111804" data-name="Trazado 111804" d="M860.551,673.615c6.411,4.307,15.215,5.641,15.216,5.642q.218-.607.438-1.226l.142-.4A36.012,36.012,0,0,0,860.551,673.615Z" transform="translate(-860.551 -671.942)" fill="#b06767"/>
            <path id="Trazado_111805" data-name="Trazado 111805" d="M877.486,674.763c-3.892-5.652-11.222-3.453-11.222-3.453C872.062,671.818,874.809,673.528,877.486,674.763Z" transform="translate(-862.763 -670.888)" fill="#b06767"/>
          </g>
          <path id="Trazado_111806" data-name="Trazado 111806" d="M908.151,679.326c5.882,1.116,13.986.517,13.986.517l.127-2.441S914.615,676.594,908.151,679.326Zm13.594-2.922s-1.538-1.547-4.923-1.234a8.281,8.281,0,0,0-4.923,1.851A22.511,22.511,0,0,1,921.745,676.4Zm-10.879,4.328c1.155,1.155,3.425,2.909,7.95.9A14.685,14.685,0,0,1,910.866,680.731Z" transform="translate(-868.822 -624.174)" fill="#b06767"/>
          <path id="Trazado_111807" data-name="Trazado 111807" d="M895.2,638.08c1.563-6.233,3.7-16.3,3.7-16.3s6.415.059,9.711-4.336c-1.871,4.693-7.93,6.563-7.93,6.563l-3.563,15.235L898,655.384Z" transform="translate(-863.809 -601.842)" fill="#12263f"/>
        </g>
      </g>
      <g id="Top" transform="translate(5.175)">
        <g id="Grupo_50439" data-name="Grupo 50439" transform="translate(44.35 38.005)">
          <path id="Trazado_111808" data-name="Trazado 111808" d="M947.605,571.849c1.917,1.57,4.98-.333,6.6-2.88s1.489-10.4-3.65-17.222a16.1,16.1,0,0,0-4.838,7.811C944.421,564.511,945.635,570.236,947.605,571.849Z" transform="translate(-925.577 -530.52)" fill="#1a2e35"/>
          <path id="Trazado_111809" data-name="Trazado 111809" d="M917.225,517.584c5.077.29,6.7,1.608,12.307,9.256,6.351,8.661,9.591,12.829,9.591,12.829s5.482-10.7,7.065-13.337,3.253-2.937,6.375-4.511,4.129-3.209,5.281-2.679,1.007,1.974-.719,4.058,2.446,1.706,5.036.815,5.036-4.54,5.611-2.571-1.007,7.953-6.618,10.213-8.778,1.848-9.5,4.068-3.518,14.824-5.432,18.891-6.285,4.4-12.039-.729c-6.281-5.6-13.239-12.967-13.239-12.967Z" transform="translate(-914.755 -517.295)" fill="#b06767"/>
          <path id="Trazado_111810" data-name="Trazado 111810" d="M951.157,552.894a14.605,14.605,0,0,0-1.7,9.925s-3.068-3.814.813-11.073Z" transform="translate(-926.788 -530.52)" fill="#994b4b"/>
          <path id="Trazado_111811" data-name="Trazado 111811" d="M914.737,517.114c3.94-.043,6.457.769,9.544,4.383s13.895,16.841,13.895,16.841-1,1.809-1.642,2.93a24.681,24.681,0,0,0-2.993,9.1,15.184,15.184,0,0,0,1.681,8.074,215.053,215.053,0,0,1-22.028-21.186Z" transform="translate(-913.194 -517.112)" fill="#0a4b6e"/>
        </g>
        <g id="Chest" transform="translate(8.805)">
          <g id="Grupo_50443" data-name="Grupo 50443" transform="translate(0 38.007)">
            <g id="Grupo_50440" data-name="Grupo 50440">
              <path id="Trazado_111812" data-name="Trazado 111812" d="M860.571,524.278c-4.363,5.279-3.725,15.42-4.134,30.94-.276,10.5-.987,22.772-1.242,32.7,9.644,6.345,39.311,7.184,47.225-2.583,0,0-.629-27.321-.629-33.445s0-12.969-.224-18.8c-.243-6.454-3.624-15.974-9.588-15.974-.872,0-12.269.754-12.269.754S869.214,518.871,860.571,524.278Z" transform="translate(-855.195 -517.115)" fill="#f5f5f5"/>
            </g>
            <path id="Trazado_111813" data-name="Trazado 111813" d="M855.2,598.009a23.444,23.444,0,0,0,5.7,2.432,46.194,46.194,0,0,0,6.06,1.318,69.418,69.418,0,0,0,12.365.772,57.862,57.862,0,0,0,12.257-1.57,29.135,29.135,0,0,0,5.785-2.083,14.79,14.79,0,0,0,4.826-3.642l-.067.2-.429-26.128c-.058-4.355-.108-8.708-.12-13.061l0-13.065.6,26.123.555,26.116,0,.115-.07.083a15.368,15.368,0,0,1-5.041,3.78,29.7,29.7,0,0,1-5.907,2.1,55.267,55.267,0,0,1-12.382,1.5,68.778,68.778,0,0,1-12.422-.946,46.333,46.333,0,0,1-6.056-1.466A23.5,23.5,0,0,1,855.2,598.009Z" transform="translate(-855.195 -527.206)" fill="#e1e1e1"/>
            <g id="Grupo_50441" data-name="Grupo 50441" transform="translate(16.434 36.225)">
              <path id="Trazado_111814" data-name="Trazado 111814" d="M909.649,576.222c-.43,9.515-7.313,27.153-27.639,24.356,8.789,3.981,17.315,1.236,22.047-4.544S909.649,582.086,909.649,576.222Z" transform="translate(-882.01 -576.222)" fill="#e1e1e1"/>
              <path id="Trazado_111815" data-name="Trazado 111815" d="M919.186,597.624c-.956,9.626-6.2,15.447-11.123,17.281C913.175,614.905,920.249,609.721,919.186,597.624Z" transform="translate(-892.096 -584.507)" fill="#e1e1e1"/>
            </g>
            <g id="Grupo_50442" data-name="Grupo 50442" transform="translate(24.43 22.132)">
              <path id="Trazado_111816" data-name="Trazado 111816" d="M899.562,555.273a5.679,5.679,0,0,0-1.63,6.12c.517,1.264,1.584,2.691.8,3.807-.37.524-1.036.736-1.54,1.133-1.1.868-1.262,2.456-1.224,3.857.016.593.048,1.187.022,1.78a6.793,6.793,0,0,1-.091.882,1.244,1.244,0,0,1-.1.39,1.471,1.471,0,0,0-.137.282,8.068,8.068,0,0,0-.5,4.02,2.848,2.848,0,0,0,.625,1.332,1.713,1.713,0,0,0,1.31.6,3.273,3.273,0,0,0,1.636-.793,10.653,10.653,0,0,1,2.937-1.443,6.019,6.019,0,0,0,1.951-.794,3.743,3.743,0,0,0,.754-.835,9.529,9.529,0,0,0,.7-1.167c.1-.2.2-.409.288-.618a10.839,10.839,0,0,0,.467-1.142c.369-1.253.26-2.613.662-3.857.541-1.671,1.923-2.912,2.852-4.4a9.028,9.028,0,0,0,1.1-6.835,5.77,5.77,0,0,0-2.988-3.9,7.265,7.265,0,0,0-5.067-.013A7.64,7.64,0,0,0,899.562,555.273Z" transform="translate(-895.057 -553.227)" fill="#e1e1e1"/>
              <path id="Trazado_111817" data-name="Trazado 111817" d="M910.548,591.422c.048-.058.1-.113.151-.169.191-.206.391-.4.592-.6.4-.391.815-.773,1.192-1.188a5.39,5.39,0,0,0,1.043-1.573,7.7,7.7,0,0,0,.051-4.185,2.021,2.021,0,0,0-.248-.778,1.349,1.349,0,0,0-1.76-.276,3.186,3.186,0,0,0-1.187,1.522c-.5,1.108-.82,2.293-1.33,3.4a5.412,5.412,0,0,1-2.35,2.7c-1,.49-2.2.509-3.121,1.122a1.275,1.275,0,0,0-.664,1.327,1.139,1.139,0,0,0,.931.694,5.931,5.931,0,0,0,1.221-.012,10.233,10.233,0,0,1,1.486.086c.449.048.9.1,1.346.144a.735.735,0,0,0,.466-.168,6.227,6.227,0,0,0,.553-.351,5.877,5.877,0,0,0,1.522-1.549A1.369,1.369,0,0,1,910.548,591.422Z" transform="translate(-898.086 -564.54)" fill="#e1e1e1"/>
            </g>
          </g>
          <g id="Grupo_50447" data-name="Grupo 50447" transform="translate(10.787)">
            <path id="Trazado_111818" data-name="Trazado 111818" d="M880.371,489.308c-.531-5.106-3.943-6.4-6.05-11.668-2.874-7.19-1.7-13.364,3.629-18.452,3.439-3.286,9.285-4.916,15.778-3.667,3.156.607,7.733,2.489,9.6,5.511a14.489,14.489,0,0,1,2.2,7.839s-5.963,10.234-8.182,10.961c-1.38.453-2.776.857-4.154,1.319a10.959,10.959,0,0,0-2.117.779A7.483,7.483,0,0,0,889.9,483.1l-6.75,6.662C882.637,490.273,880.962,489.294,880.371,489.308Z" transform="translate(-872.796 -455.101)" fill="#12263f"/>
            <path id="Trazado_111819" data-name="Trazado 111819" d="M880.507,484.4a.939.939,0,0,1-.178.154c-.978.651-.986-1.067-1.974-2.192a2.566,2.566,0,0,0-2.128-.807,3.266,3.266,0,0,0-3.042,1.944,4.813,4.813,0,0,0,2.983,6.217,3.888,3.888,0,0,0,4.183-.913l.085,12.375s1.616,4.937,8.5,5.595,9.1-2.382,6.249-5.039l-.026-3.626a16.391,16.391,0,0,0,5.05-.813,9.679,9.679,0,0,0,6.15-7.693c.416-2.48-.377-4.663-.408-7.168-.018-1.489.052-3.842,0-4.808-.066-1.19-.677-5.9-2.008-7.486-1.939,3.306-11.076,4.324-17.789,1.71A10.4,10.4,0,0,1,885,476.991c-.908,1.765-2.423,2.695-4.1,3.8a5.894,5.894,0,0,1-.012,2.8A1.867,1.867,0,0,1,880.507,484.4Z" transform="translate(-872.819 -460.922)" fill="#b06767"/>
            <path id="Trazado_111820" data-name="Trazado 111820" d="M910.6,502.313a2.386,2.386,0,0,0-.37-.237,2.672,2.672,0,0,0-.811-.268,2.194,2.194,0,0,0-1.761.349c-.045.043-.035.175.042.176a8.3,8.3,0,0,0,.926-.09,2.559,2.559,0,0,1,.808.047,2.005,2.005,0,0,1,.629.246,1.938,1.938,0,0,1,.264.206c.056.051.108.106.164.157.077.069.169.113.249.176.1.08.138.022.193-.058C911.109,502.766,910.768,502.445,910.6,502.313Z" transform="translate(-886.283 -473.166)" fill="#994b4b"/>
            <g id="Grupo_50446" data-name="Grupo 50446" transform="translate(15.038 15.065)">
              <g id="Grupo_50444" data-name="Grupo 50444">
                <path id="Trazado_111821" data-name="Trazado 111821" d="M897.333,482.581l3.115-2.254a2.018,2.018,0,0,1-.452,2.756A1.876,1.876,0,0,1,897.333,482.581Z" transform="translate(-897.333 -479.931)" fill="#1a2e35"/>
                <path id="Trazado_111822" data-name="Trazado 111822" d="M900.168,488.879a1.579,1.579,0,1,0,1.433-1.713A1.579,1.579,0,0,0,900.168,488.879Z" transform="translate(-898.428 -482.576)" fill="#1a2e35"/>
                <path id="Trazado_111823" data-name="Trazado 111823" d="M918.147,487.458a1.579,1.579,0,1,0,1.433-1.713A1.579,1.579,0,0,0,918.147,487.458Z" transform="translate(-905.388 -482.026)" fill="#1a2e35"/>
                <path id="Trazado_111824" data-name="Trazado 111824" d="M920.52,479.681l3.444,1.775a1.86,1.86,0,0,1-2.551.881A2.035,2.035,0,0,1,920.52,479.681Z" transform="translate(-906.236 -479.681)" fill="#1a2e35"/>
              </g>
              <g id="Grupo_50445" data-name="Grupo 50445" transform="translate(9.228 5.207)">
                <path id="Trazado_111825" data-name="Trazado 111825" d="M912.39,488.176l.783,6.091,3.947-1.45Z" transform="translate(-912.39 -488.176)" fill="#994b4b"/>
              </g>
            </g>
            <path id="Trazado_111826" data-name="Trazado 111826" d="M901.031,511.289a25.445,25.445,0,0,1-9.481-2.695,9.435,9.435,0,0,1-3.538-4.4,11.834,11.834,0,0,0,2.173,4.592c3.882,4.1,10.839,4.335,10.839,4.335Z" transform="translate(-878.686 -474.106)" fill="#994b4b"/>
          </g>
          <g id="Grupo_50448" data-name="Grupo 50448" transform="translate(20.507 23.061)">
            <path id="Trazado_111827" data-name="Trazado 111827" d="M888.668,496.489a6.347,6.347,0,0,0,2.421,4.354,4.414,4.414,0,0,0,3.819.9c1.166-.215,1.986-.949,1.975-1.972-.159-1.718-2.616-1.465-3.162-3.088-.477-1.418-.324-3.37-2.073-3.905C889.837,492.327,888.512,495.07,888.668,496.489Z" transform="translate(-888.656 -492.728)" fill="#994b4b"/>
            <path id="Trazado_111828" data-name="Trazado 111828" d="M898.263,497.619a1.2,1.2,0,0,0,.59.407.646.646,0,0,0,.662-.188.746.746,0,0,0,.139-.407,2.509,2.509,0,0,0-.722-1.678c-.15-.186-.357-.435-.622-.425a.747.747,0,0,0-.479.308.777.777,0,0,0-.1.451,2.545,2.545,0,0,0,.1.753A2.181,2.181,0,0,0,898.263,497.619Z" transform="translate(-892.171 -493.734)" fill="#994b4b"/>
            <path id="Trazado_111829" data-name="Trazado 111829" d="M923.183,496.78a3,3,0,0,0-.893,2.236c-.024.827.131,1.65.127,2.477a1.806,1.806,0,0,1-.167.863,6.3,6.3,0,0,1-.732.814,4.477,4.477,0,0,0-.6,1.549,5.286,5.286,0,0,1-1.115,1.973c-.023.026-.047.058-.07.087a9.769,9.769,0,0,0,4.779-7.043,11.591,11.591,0,0,0-.018-3.413A2.019,2.019,0,0,0,923.183,496.78Z" transform="translate(-900.686 -494.12)" fill="#994b4b"/>
          </g>
        </g>
        <g id="Wheelbarrow" transform="translate(21.465 70.758)">
          <g id="Grupo_50464" data-name="Grupo 50464">
            <g id="Grupo_50451" data-name="Grupo 50451" transform="translate(46.373)">
              <g id="Grupo_50449" data-name="Grupo 50449">
                <path id="Trazado_111830" data-name="Trazado 111830" d="M954.791,570.684h0a1.342,1.342,0,0,0-1.359.129,4.232,4.232,0,0,0-1.913,3.315,1.333,1.333,0,0,0,.575,1.245h0l12.19,7.013,2.7-4.691Z" transform="translate(-951.518 -570.554)" fill="#0a4b6e"/>
                <path id="Trazado_111831" data-name="Trazado 111831" d="M973.163,579.218a1.99,1.99,0,0,0-2,.194,6.332,6.332,0,0,0-2.865,4.962,2.007,2.007,0,0,0,.81,1.817c.071.044.805.446.9.492a2.038,2.038,0,0,0,1.927-.233,6.333,6.333,0,0,0,2.865-4.962,2.018,2.018,0,0,0-.79-1.8C973.929,579.634,973.228,579.255,973.163,579.218Z" transform="translate(-958.013 -573.835)" fill="#1a2e35"/>
                <path id="Trazado_111832" data-name="Trazado 111832" d="M969.592,585.071a6.305,6.305,0,0,1,2.852-4.941c1.576-.909,2.853-.172,2.853,1.647a6.3,6.3,0,0,1-2.853,4.941C970.869,587.627,969.592,586.89,969.592,585.071Z" transform="translate(-958.515 -574.111)" fill="#0a4b6e"/>
              </g>
              <g id="Grupo_50450" data-name="Grupo 50450" transform="translate(13.439 8.569)">
                <path id="Trazado_111833" data-name="Trazado 111833" d="M1092.467,720.269a.939.939,0,0,1-.509-.15L1030.9,680.952a.946.946,0,0,1-.42-.633l-6.84-39.482a8.743,8.743,0,0,0-1.911-4.118l-36.81-43.963L973.566,586.2c-.452-.26.492-1.9.944-1.635l11.5,6.639a.952.952,0,0,1,.251.212l36.917,44.091a10.626,10.626,0,0,1,2.324,5.008l6.769,39.072,60.707,38.944a.944.944,0,0,1-.51,1.738Z" transform="translate(-973.446 -584.536)" fill="#1a2e35"/>
              </g>
            </g>
            <g id="Grupo_50452" data-name="Grupo 50452" transform="translate(155.278 103.749)">
              <rect id="Rect치ngulo_28625" data-name="Rect치ngulo 28625" width="1.888" height="42.192" transform="translate(0 0.885) rotate(-27.944)" fill="#1a2e35"/>
            </g>
            <g id="Grupo_50453" data-name="Grupo 50453" transform="translate(133.112 119.366)">
              <path id="Trazado_111834" data-name="Trazado 111834" d="M1104.8,777.877l-3.442-6.839,8.191-4.742v0c2.6-1.5,6.074-1.329,9.884.871,8.09,4.671,14.649,16.72,14.65,26.911,0,5.337-1.8,9.1-4.675,10.811l0,0-.116.066-.016.01-8.4,4.848-3.631-7.213C1110.379,797.343,1105.07,786.968,1104.8,777.877Z" transform="translate(-1096.265 -765.32)" fill="#12263f"/>
              <path id="Trazado_111835" data-name="Trazado 111835" d="M1104.8,777.877l-3.442-6.839,8.191-4.742v0c2.6-1.5,6.074-1.329,9.884.871,8.09,4.671,14.649,16.72,14.65,26.911,0,5.337-1.8,9.1-4.675,10.811l0,0-.116.066-.016.01-8.4,4.848-3.631-7.213C1110.379,797.343,1105.07,786.968,1104.8,777.877Z" transform="translate(-1096.265 -765.32)" fill="#1a2e35"/>
              <path id="Trazado_111836" data-name="Trazado 111836" d="M1093.046,785.192c0,8.786,4.879,18.957,11.409,24.582.013.007.02.02.026.026a21.654,21.654,0,0,0,3.213,2.3c8.092,4.675,14.656.2,14.649-9.993,0-7.7-3.744-16.465-9.062-22.3a.325.325,0,0,1-.046-.046,23.629,23.629,0,0,0-5.541-4.564C1099.6,770.53,1093.046,775,1093.046,785.192Z" transform="translate(-1093.046 -768.428)" fill="#12263f"/>
              <path id="Trazado_111837" data-name="Trazado 111837" d="M1111.058,785.689c-5.148-2.972-9.322.125-9.322,6.92s4.174,14.712,9.322,17.684,9.322-.126,9.322-6.919S1116.207,788.662,1111.058,785.689Z" transform="translate(-1096.41 -772.768)" fill="#0a4b6e"/>
              <path id="Trazado_111838" data-name="Trazado 111838" d="M1110.044,800.552c.354,3.378,2.529,6.961,4.853,8a2.264,2.264,0,0,0,2.536-.213c.817-.7,1.234-2.127,1.035-4.025-.354-3.378-2.523-6.962-4.853-8a2.606,2.606,0,0,0-1.7-.223s-.007-.006-.007,0C1110.568,796.422,1109.787,798.093,1110.044,800.552Z" transform="translate(-1099.608 -777.209)" fill="#fafafa"/>
              <path id="Trazado_111839" data-name="Trazado 111839" d="M1111.4,800.116c.354,3.377,2.529,6.96,4.853,8a2.637,2.637,0,0,0,1.705.224c.817-.7,1.234-2.127,1.035-4.025-.354-3.378-2.523-6.962-4.853-8a2.605,2.605,0,0,0-1.7-.223s-.007-.006-.007,0C1111.619,796.8,1111.2,798.224,1111.4,800.116Z" transform="translate(-1100.132 -777.209)" fill="#f0f0f0"/>
              <path id="Trazado_111840" data-name="Trazado 111840" d="M1093.046,785.192c0,8.786,4.879,18.957,11.409,24.582a41.535,41.535,0,0,1-9.292-17.979c-1.239-5.876-.773-14.308,4.269-16.439,5-2.118,11.7,2.361,13.8,4.407a23.629,23.629,0,0,0-5.541-4.564C1099.6,770.53,1093.046,775,1093.046,785.192Z" transform="translate(-1093.046 -768.428)" fill="#0a4b6e"/>
            </g>
            <g id="Grupo_50456" data-name="Grupo 50456" transform="translate(0 26.342)">
              <g id="Grupo_50454" data-name="Grupo 50454">
                <path id="Trazado_111841" data-name="Trazado 111841" d="M879.125,613.665v0a1.34,1.34,0,0,0-1.359.129,4.23,4.23,0,0,0-1.913,3.315,1.333,1.333,0,0,0,.575,1.244h0l12.191,7.013,2.7-4.69Z" transform="translate(-875.852 -613.535)" fill="#0a4b6e"/>
                <path id="Trazado_111842" data-name="Trazado 111842" d="M897.5,622.2a1.989,1.989,0,0,0-2,.194,6.331,6.331,0,0,0-2.865,4.962,2.006,2.006,0,0,0,.81,1.817c.071.043.805.446.9.492a2.04,2.04,0,0,0,1.928-.233,6.333,6.333,0,0,0,2.865-4.962,2.019,2.019,0,0,0-.789-1.8C898.263,622.615,897.562,622.236,897.5,622.2Z" transform="translate(-882.347 -616.816)" fill="#1a2e35"/>
                <path id="Trazado_111843" data-name="Trazado 111843" d="M893.926,628.052a6.307,6.307,0,0,1,2.852-4.941c1.576-.91,2.853-.172,2.853,1.647a6.305,6.305,0,0,1-2.852,4.94C895.2,630.608,893.926,629.871,893.926,628.052Z" transform="translate(-882.849 -617.092)" fill="#0a4b6e"/>
              </g>
              <g id="Grupo_50455" data-name="Grupo 50455" transform="translate(13.816 8.786)">
                <path id="Trazado_111844" data-name="Trazado 111844" d="M1055.689,748.445a18.866,18.866,0,0,1-8.484-1.888L987.674,715.8a4.846,4.846,0,0,0-6.431,1.885l-4.015,6.954c-2.863,4.956-9,6.792-13.674,4.092-4.59-2.649-8.824-9.117-9.851-15.044l-5.224-30.159a8.743,8.743,0,0,0-1.938-4.15l-35.689-42.13a8.715,8.715,0,0,0-2.3-1.921l-10.041-5.8c-.452-.26.493-1.9.944-1.635l10.041,5.8a10.6,10.6,0,0,1,2.795,2.336l35.689,42.131a10.629,10.629,0,0,1,2.357,5.046l5.224,30.16c.925,5.342,4.85,11.374,8.934,13.732,3.776,2.18,8.754.654,11.1-3.4l4.016-6.954a6.731,6.731,0,0,1,8.931-2.618l59.532,30.752c4.369,2.258,11.165,2.226,15.145-.074,1.66-.958,2.592-2.241,2.624-3.611.035-1.512-1.036-3.079-2.937-4.3a.944.944,0,1,1,1.019-1.589c2.47,1.585,3.856,3.746,3.8,5.932-.048,2.054-1.314,3.9-3.566,5.2A17.322,17.322,0,0,1,1055.689,748.445Z" transform="translate(-898.394 -627.871)" fill="#1a2e35"/>
              </g>
            </g>
            <g id="Grupo_50457" data-name="Grupo 50457" transform="translate(136.145 114.757)">
              <rect id="Rect치ngulo_28626" data-name="Rect치ngulo 28626" width="1.887" height="42.191" transform="matrix(0.848, -0.53, 0.53, 0.848, 0, 1)" fill="#1a2e35"/>
            </g>
            <g id="Grupo_50463" data-name="Grupo 50463" transform="translate(49.32 30.241)">
              <g id="Grupo_50458" data-name="Grupo 50458" transform="translate(45.461 3.129)">
                <path id="Trazado_111845" data-name="Trazado 111845" d="M1122.5,669.27l-15.165,19.251a34.872,34.872,0,0,1-4.331,4.416l-67.462-46.73a9.657,9.657,0,0,0-5.03-1.708l-.009-.009V625Z" transform="translate(-1030.503 -625.003)" fill="#0f2771"/>
                <path id="Trazado_111846" data-name="Trazado 111846" d="M1122.5,669.27l-15.165,19.251a34.872,34.872,0,0,1-4.331,4.416l-67.462-46.73a9.657,9.657,0,0,0-5.03-1.708l-.009-.009V625Z" transform="translate(-1030.503 -625.003)" opacity="0.25"/>
              </g>
              <g id="Grupo_50459" data-name="Grupo 50459" transform="translate(3.298 3.129)">
                <path id="Trazado_111847" data-name="Trazado 111847" d="M1003.879,644.5a9.62,9.62,0,0,0-5.322,1.283l-34.99,20.2a20.559,20.559,0,0,1-1.86-7.785v-8.852L1003.87,625Z" transform="translate(-961.707 -625.003)" fill="#0f2771"/>
                <path id="Trazado_111848" data-name="Trazado 111848" d="M1003.879,644.5a9.62,9.62,0,0,0-5.322,1.283l-34.99,20.2a20.559,20.559,0,0,1-1.86-7.785v-8.852L1003.87,625Z" transform="translate(-961.707 -625.003)" opacity="0.3"/>
              </g>
              <path id="Trazado_111849" data-name="Trazado 111849" d="M1010.084,658.509a9.686,9.686,0,0,0-10.359-.427l-34.992,20.2a23.2,23.2,0,0,0,5.024,7.529l43.419,40.736a20.374,20.374,0,0,0,24.128,2.786l34.958-20.183a36.061,36.061,0,0,0,5.28-3.909Z" transform="translate(-959.581 -634.178)" fill="#0f2771"/>
              <path id="Trazado_111850" data-name="Trazado 111850" d="M1010.084,658.509a9.686,9.686,0,0,0-10.359-.427l-34.992,20.2a23.2,23.2,0,0,0,5.024,7.529l43.419,40.736a20.374,20.374,0,0,0,24.128,2.786l34.958-20.183a36.061,36.061,0,0,0,5.28-3.909Z" transform="translate(-959.581 -634.178)" opacity="0.1"/>
              <g id="Grupo_50460" data-name="Grupo 50460" transform="translate(3.298 27.475)">
                <path id="Trazado_111851" data-name="Trazado 111851" d="M961.707,664.728v8.941c.036,4.883,3.1,11.676,6.879,15.221l43.419,40.736a20.353,20.353,0,0,0,14.389,5.5l11.974-17.282Z" transform="translate(-961.707 -664.728)" fill="#0f2771"/>
                <path id="Trazado_111852" data-name="Trazado 111852" d="M961.707,664.728v8.941c.036,4.883,3.1,11.676,6.879,15.221l43.419,40.736a20.353,20.353,0,0,0,14.389,5.5l11.974-17.282Z" transform="translate(-961.707 -664.728)" opacity="0.35"/>
              </g>
              <g id="Grupo_50461" data-name="Grupo 50461" transform="translate(67.985 47.393)">
                <path id="Trazado_111853" data-name="Trazado 111853" d="M1079.229,730.425l-11.974,17.282a20.314,20.314,0,0,0,9.739-2.713l34.959-20.183a40.312,40.312,0,0,0,9.614-8.326l15.159-19.256Z" transform="translate(-1067.255 -697.228)" fill="#0f2771"/>
                <path id="Trazado_111854" data-name="Trazado 111854" d="M1079.229,730.425l-11.974,17.282a20.314,20.314,0,0,0,9.739-2.713l34.959-20.183a40.312,40.312,0,0,0,9.614-8.326l15.159-19.256Z" transform="translate(-1067.255 -697.228)" opacity="0.45"/>
              </g>
              <g id="Grupo_50462" data-name="Grupo 50462">
                <path id="Trazado_111855" data-name="Trazado 111855" d="M1092.874,663.1l-86.849-42.428a9.945,9.945,0,0,0-8.326.288l-38.122,22.009c-4.193,2.421-4.351,6.634-.352,9.363l73.161,49.92a8.222,8.222,0,0,0,7.984.3l52.814-30.492C1097.729,669.439,1097.591,665.407,1092.874,663.1Zm-3.178,6.548-49.325,28.478a8.116,8.116,0,0,1-7.965-.328L963.5,650.06c-2.142-1.484-2.049-3.743.208-5.046L997.7,625.389a9.99,9.99,0,0,1,8.338-.314l83.493,40.171C1091.879,666.376,1091.953,668.348,1089.7,669.651Z" transform="translate(-956.327 -619.898)" fill="#0f2771"/>
                <path id="Trazado_111856" data-name="Trazado 111856" d="M1092.874,663.1l-86.849-42.428a9.945,9.945,0,0,0-8.326.288l-38.122,22.009c-4.193,2.421-4.351,6.634-.352,9.363l73.161,49.92a8.222,8.222,0,0,0,7.984.3l52.814-30.492C1097.729,669.439,1097.591,665.407,1092.874,663.1Zm-3.178,6.548-49.325,28.478a8.116,8.116,0,0,1-7.965-.328L963.5,650.06c-2.142-1.484-2.049-3.743.208-5.046L997.7,625.389a9.99,9.99,0,0,1,8.338-.314l83.493,40.171C1091.879,666.376,1091.953,668.348,1089.7,669.651Z" transform="translate(-956.327 -619.898)" opacity="0.15"/>
              </g>
            </g>
          </g>
          <g id="Grupo_50465" data-name="Grupo 50465" transform="translate(84.477 62.883)">
            <path id="Trazado_111857" data-name="Trazado 111857" d="M1101.795,688.247a6.594,6.594,0,0,0-5.42,2.835,16.449,16.449,0,0,0-11.421-7.071,6.593,6.593,0,0,0-10.98-4.077,16.453,16.453,0,0,0-28.076,2.451,3.97,3.97,0,0,0-1.2-1.581,4,4,0,0,0-6.474,3.276,16.448,16.448,0,0,0-16.951,5.993,3.992,3.992,0,0,0-7.585.02l40.857,28.307a8.271,8.271,0,0,0,8.116.335l45.322-26.167A6.6,6.6,0,0,0,1101.795,688.247Z" transform="translate(-1013.691 -673.163)" fill="#b06767"/>
            <path id="Trazado_111858" data-name="Trazado 111858" d="M1060.677,673.165a17.173,17.173,0,0,0-4.5.739,16.908,16.908,0,0,0-4.107,1.915,16.513,16.513,0,0,0-5.914,6.69l-.277.572-.247-.585a3.647,3.647,0,0,0-1.715-1.84,3.7,3.7,0,0,0-4.6,1.034,3.677,3.677,0,0,0-.753,2.379l.015.439-.427-.105a16.211,16.211,0,0,0-9.189.429,16.941,16.941,0,0,0-4.138,2.141,16.766,16.766,0,0,0-3.387,3.22l-.232.291-.113-.347a3.767,3.767,0,0,0-1.376-1.894,3.828,3.828,0,0,0-2.239-.766,3.946,3.946,0,0,0-3.783,2.615,3.88,3.88,0,0,1,1.41-2.03,4.129,4.129,0,0,1,6.363,1.947l-.346-.056a16.53,16.53,0,0,1,7.644-5.673,16.831,16.831,0,0,1,9.542-.523l-.412.334a4.319,4.319,0,0,1,.911-2.8,4.327,4.327,0,0,1,5.387-1.17,4.241,4.241,0,0,1,1.972,2.147l-.525-.013a16.573,16.573,0,0,1,6.232-6.753A16.165,16.165,0,0,1,1060.677,673.165Z" transform="translate(-1013.691 -673.159)" fill="#994b4b"/>
            <path id="Trazado_111859" data-name="Trazado 111859" d="M1013.691,700.784l11.451,7.736,11.411,7.793,11.385,7.83,5.688,3.922c.47.315.957.68,1.413.954a6.924,6.924,0,0,0,1.508.647,8.621,8.621,0,0,0,3.292.279,6.982,6.982,0,0,0,3.109-1.062l2.995-1.72,5.991-3.441,11.99-6.868,12.014-6.828,12.048-6.767-11.885,7.05-11.92,6.99-11.943,6.949-5.976,3.468-2.988,1.734a7.638,7.638,0,0,1-3.365,1.16,9.263,9.263,0,0,1-3.547-.318,7.526,7.526,0,0,1-1.654-.719c-.528-.324-.96-.656-1.445-.984l-5.671-3.947-11.331-7.908-11.305-7.946Z" transform="translate(-1013.691 -683.853)" fill="#994b4b"/>
            <path id="Trazado_111860" data-name="Trazado 111860" d="M1064.482,705.953a5.347,5.347,0,0,0-6.917-1.542,7.7,7.7,0,0,0-13.129,2.283,7.693,7.693,0,0,1,11.669-1.1,7.948,7.948,0,0,1,.741.831c.112-.1.231-.193.356-.282a5.473,5.473,0,0,1,1.127-.63,5.35,5.35,0,0,1,6.353,1.817,5.283,5.283,0,0,1,.816,1.668A5.279,5.279,0,0,0,1064.482,705.953Z" transform="translate(-1025.593 -684.19)" fill="#994b4b"/>
            <path id="Trazado_111861" data-name="Trazado 111861" d="M1096.036,696.265a4.06,4.06,0,0,1,5.252-1.171,5.846,5.846,0,0,1,9.969,1.734,5.841,5.841,0,0,0-8.86-.838,5.9,5.9,0,0,0-.563.63c-.085-.073-.175-.146-.27-.214a4.2,4.2,0,0,0-.855-.479,4.064,4.064,0,0,0-4.825,1.379,4,4,0,0,0-.619,1.267A4.006,4.006,0,0,1,1096.036,696.265Z" transform="translate(-1045.27 -680.84)" fill="#994b4b"/>
            <path id="Trazado_111862" data-name="Trazado 111862" d="M1083.905,724.634a4.06,4.06,0,0,1,5.252-1.171,5.846,5.846,0,0,1,9.969,1.734,5.84,5.84,0,0,0-8.86-.838,5.985,5.985,0,0,0-.563.63c-.085-.073-.175-.146-.271-.214a4.138,4.138,0,0,0-.856-.479,4.064,4.064,0,0,0-4.824,1.38,4.014,4.014,0,0,0-.619,1.267A4.007,4.007,0,0,1,1083.905,724.634Z" transform="translate(-1040.575 -691.822)" fill="#994b4b"/>
          </g>
        </g>
        <g id="Grupo_50466" data-name="Grupo 50466" transform="translate(0 45.17)">
          <path id="Trazado_111863" data-name="Trazado 111863" d="M854.961,530.206c-3.994,2.7-5.823,2.732-7.223,10.249s-4.9,23.578-5.252,26.814-.223,4.038,3.07,7.429c2.168,2.234,8.116,7.17,11.645,10.363,1.828,1.654,4.383,5.723,5.46,6.313a27.713,27.713,0,0,0,6.317,2.238c1.267.275,4.175-1.942,4.175-1.942l-4.977-2.864s-1.2-3.785,2.342-4.895l3.071,1.766s-.853-1.877-2.094-4.074c-.68-1.2-1.22-1.987-4.839-3.017-2.213-.629-2.762-1.468-5.162-4a60.244,60.244,0,0,1-4.952-6.273l4.045-21.518S858.754,531.81,854.961,530.206Z" transform="translate(-841.419 -529.346)" fill="#b06767"/>
          <path id="Trazado_111864" data-name="Trazado 111864" d="M855.01,528.8c-7.945,3.158-8.273,7.119-10.115,16.527s-4.066,20.29-4.066,20.29,7.592,6.87,17.673,4.779l4.1-21.32S864.782,531.848,855.01,528.8Z" transform="translate(-840.829 -528.803)" fill="#0a4b6e"/>
        </g>
      </g>
    </g>
  </g>
</svg>
