<svg xmlns="http://www.w3.org/2000/svg" xmlns:xlink="http://www.w3.org/1999/xlink" width="162.804" height="162" viewBox="0 0 162.804 162">
  <defs>
    <clipPath id="clip-path">
      <path id="Trazado_112322" data-name="Trazado 112322" d="M423.106,995.9c5.213-60.414,47.847-20.655,58.446-29.077a45.776,45.776,0,0,1,28.578-9.96c15.006,0,42.791,11.842,56.635,10.276,24.493-2.771,18.142,33.482,18.142,43.866,0,6.947-30.345,5.365-33.1,11.27a45.986,45.986,0,0,1-78.43,8.176C467.587,1022.758,418.85,1045.206,423.106,995.9Z" fill="none"/>
    </clipPath>
  </defs>
  <g id="Grupo_53060" data-name="Grupo 53060" transform="translate(6765 8422)">
    <rect id="Rectángulo_28721" data-name="Rectángulo 28721" width="162" height="162" transform="translate(-6765 -8422)" fill="none"/>
    <g id="Grupo_53054" data-name="Grupo 53054" transform="translate(-7187.843 -9343.859)">
      <circle id="Elipse_4023" data-name="Elipse 4023" cx="45.973" cy="45.973" r="45.973" transform="translate(464.157 956.859)" fill="#e36099"/>
      <g id="Grupo_50579" data-name="Grupo 50579">
        <g id="Grupo_50578" data-name="Grupo 50578" clip-path="url(#clip-path)">
          <g id="Grupo_50548" data-name="Grupo 50548">
            <g id="Grupo_50531" data-name="Grupo 50531">
              <g id="Grupo_50524" data-name="Grupo 50524">
                <path id="Trazado_112084" data-name="Trazado 112084" d="M536.067,1077.91s6.238,20.864,6.346,38.665c0,0,3.179,1.358,5.334-.68,0,0-1.134-24.721-7.371-39.351Z" fill="#ffbea7"/>
                <path id="Trazado_112085" data-name="Trazado 112085" d="M541.892,1080.609c-.466-1.412-.969-2.781-1.516-4.065l-4.309,1.366s.492,1.644,1.2,4.4A13.643,13.643,0,0,0,541.892,1080.609Z" fill="#ffbea7" style="mix-blend-mode: multiply;isolation: isolate"/>
                <path id="Trazado_112086" data-name="Trazado 112086" d="M541.655,1105.244a100.281,100.281,0,0,1,.758,11.331s3.179,1.358,5.334-.68c0,0-.214-4.612-.957-11.038A19.352,19.352,0,0,1,541.655,1105.244Z" fill="#f3f0ed"/>
                <path id="Trazado_112087" data-name="Trazado 112087" d="M540.751,1120.091c-.225-1.137-.417-4.766.116-5.216a2.623,2.623,0,0,1,1.471-.717s.417,1.1,2.988,1.1c.041,0-.867-.646.679-.867s2.267-.458,3.067-.612.9.42.866.871c0,0,5.859.191,8.426.037s5.634.342,6.654,2.38-.183,2.875-3.4,3.745-14.179,1.918-17.5,1.779C541.471,1122.471,541.029,1121.469,540.751,1120.091Z" fill="#1a7e99"/>
                <path id="Trazado_112088" data-name="Trazado 112088" d="M565.018,1117.063c-.926-1.858-3.565-2.429-5.975-2.4-1.88,1.449-3.524,2.883-3.362,5.683a9.97,9.97,0,0,0,.191,1.4,48.744,48.744,0,0,0,5.746-.939C564.835,1119.938,566.043,1119.108,565.018,1117.063Z" fill="#f4f5ef"/>
                <path id="Trazado_112089" data-name="Trazado 112089" d="M551.594,1121.018a63.656,63.656,0,0,1-8.028.128,5.437,5.437,0,0,1-2.789-.934c.282,1.313.773,2.259,3.34,2.375,3.322.139,14.285-.908,17.5-1.779,2.789-.754,4.065-1.486,3.689-2.991C561.355,1120.249,555.932,1120.82,551.594,1121.018Z" fill="#f4f5ef"/>
              </g>
              <g id="Grupo_50525" data-name="Grupo 50525">
                <path id="Trazado_112090" data-name="Trazado 112090" d="M517.54,1078.95s-5.628,21.029-6.519,36.634c0,0-2.033,3.213-5.332-.251,0,0,1.9-22.031,7.589-38Z" fill="#ffbea7"/>
                <path id="Trazado_112091" data-name="Trazado 112091" d="M511.906,1081.532c.432-1.426.888-2.837,1.372-4.2l4.262,1.618s-.336,1.246-.85,3.363A17.97,17.97,0,0,1,511.906,1081.532Z" fill="#ffbea7" style="mix-blend-mode: multiply;isolation: isolate"/>
                <path id="Trazado_112092" data-name="Trazado 112092" d="M512.049,1105.728c-.475,3.359-.847,6.722-1.028,9.856,0,0-2.033,3.213-5.332-.251,0,0,.361-4.193,1.239-10.239A10.047,10.047,0,0,0,512.049,1105.728Z" fill="#f3f0ed"/>
                <path id="Trazado_112093" data-name="Trazado 112093" d="M508.617,1114.627s2.124.259,2.484-.51l0-.86s1.757.157,1.637,1.768a45.559,45.559,0,0,1-1.081,5.817c-.259.942.007,1.407-1.644,1.749a36.268,36.268,0,0,1-12.243-.458c-5.342-1.115-7.977-2.372-8.519-3.843s3.079-4.5,7.538-3.614,6.078-.177,6.814-.608.2-1.04,1.34-1.2S509.878,1113.711,508.617,1114.627Z" fill="#1a7e99"/>
                <path id="Trazado_112094" data-name="Trazado 112094" d="M495.988,1114.556a8.683,8.683,0,0,1,2.345,1.621c1.888,1.891,1.571,4.106.522,6.163-.36-.064-.726-.128-1.089-.207-5.342-1.115-7.977-2.372-8.519-3.843C488.733,1116.905,491.908,1114.15,495.988,1114.556Z" fill="#f4f5ef"/>
                <path id="Trazado_112095" data-name="Trazado 112095" d="M499.54,1121.045a28.108,28.108,0,0,0,12.2-.578c-.032.146-.068.27-.09.375-.259.942.007,1.407-1.644,1.749a36.268,36.268,0,0,1-12.243-.458c-5.342-1.115-7.977-2.372-8.519-3.843a1.481,1.481,0,0,1,.328-1.321C492.294,1119.465,495.931,1120.452,499.54,1121.045Z" fill="#f4f5ef"/>
              </g>
              <g id="Grupo_50527" data-name="Grupo 50527">
                <path id="Trazado_112096" data-name="Trazado 112096" d="M507.791,1026.219s-14.341-6.681-22.871-18.79a51.734,51.734,0,0,1-3.23-6.191c-1.62-3.669-2.865-5.2-3.657-5.095-.351.049-.828.349-.241,1.535a53.556,53.556,0,0,1,2.43,6.091,35.492,35.492,0,0,0-4.013-4.023c-1.99-1.61-2.9-1.61-3.378-.893s1.182,1.692,2.261,2.848,3.087,3.408,3.087,3.408a37.246,37.246,0,0,0-5.9-2.931c-.743-.21-1.209-.064-1.4.342s-.07.825,1.385,1.557,4.26,2.562,4.26,2.562a26.764,26.764,0,0,0-3.393-.7c-1.428-.158-2.781.139-2.838.781-.028.375.693.818,2.581.938a11.83,11.83,0,0,1,3.389.749s1.679,4.28,5.723,3.1c0,0,6.384,11.051,23.889,18.463Z" fill="#ffbea7"/>
                <path id="Trazado_112097" data-name="Trazado 112097" d="M504.15,1024.271c-.146.514-.326,1.017-.514,1.524q-.489,1.35-.983,2.709c1.032.5,2.1.984,3.228,1.46l1.91-3.745S506.369,1025.554,504.15,1024.271Z" fill="#ec9246" opacity="0.5" style="mix-blend-mode: multiply;isolation: isolate"/>
                <g id="Grupo_50526" data-name="Grupo 50526">
                  <path id="Trazado_112098" data-name="Trazado 112098" d="M480.924,1004.756a3.881,3.881,0,0,1,2.682-.814,2.385,2.385,0,0,0,.086-.608,17.362,17.362,0,0,1,.147-2.6c.229-1.28,1.441-2.454,2.724-1.508a.265.265,0,0,1,.105.2.362.362,0,0,1-.131.55c-1.268.719-.649,2.719-.4,3.849.33,1.49.529,2.71-.331,4.042a5.951,5.951,0,0,1-1.893,1.76l-4.194-2.616A4.127,4.127,0,0,1,480.924,1004.756Z" fill="#ffbea7"/>
                  <path id="Trazado_112099" data-name="Trazado 112099" d="M479.733,1007.014l.221-.648c.107-.2.2-.4.312-.589l.193-.274a2.026,2.026,0,0,1,.191-.266l.231-.237a1.342,1.342,0,0,1,.244-.213,1.3,1.3,0,0,1,.272-.177,1.954,1.954,0,0,1,.289-.146,2.891,2.891,0,0,1,.618-.218,3.787,3.787,0,0,1,.645-.113l.321-.028.321.008h.154l.028-.126a3.468,3.468,0,0,0,.085-.948l-.019-.906a4.084,4.084,0,0,1,.019-.443l.022-.452a2.817,2.817,0,0,1,.13-.877,2.163,2.163,0,0,1,.168-.405,1.993,1.993,0,0,1,.929-.9,1.007,1.007,0,0,1,.415-.088.487.487,0,0,1,.208.007.64.64,0,0,1,.21.042,1.39,1.39,0,0,1,.379.18l.154.109c.025.03.053.06.072.086a.059.059,0,0,0,0,.052l.03.064h0a.172.172,0,0,1,.011.2.282.282,0,0,1-.068.09c-.015.015-.037.015-.049.038l-.084.056-.148.094-.16.139a1.576,1.576,0,0,0-.24.33,2.133,2.133,0,0,0-.234.75,4.152,4.152,0,0,0-.014.762,10.643,10.643,0,0,0,.241,1.453c.118.469.217.946.3,1.411.032.225.065.462.075.689l.019.351-.019.341a3.434,3.434,0,0,1-.13.678,3.1,3.1,0,0,1-.26.641,2.671,2.671,0,0,1-.162.3l-.2.3c-.143.2-.3.353-.46.541l-.52.495-.574.435.028.034.623-.375c.188-.154.394-.286.578-.451s.375-.338.529-.525l.227-.282a2.3,2.3,0,0,0,.2-.322,2.957,2.957,0,0,0,.325-.687,3.567,3.567,0,0,0,.173-.736,3.354,3.354,0,0,0,.03-.754,7.118,7.118,0,0,0-.077-.736c-.079-.495-.173-.964-.285-1.441a11.024,11.024,0,0,1-.271-1.392,4.015,4.015,0,0,1,0-.684,1.852,1.852,0,0,1,.169-.634,1.479,1.479,0,0,1,.174-.263l.1-.112.151-.1.062-.043a.7.7,0,0,0,.094-.085.552.552,0,0,0,.133-.2.455.455,0,0,0-.086-.475l.034.071a.7.7,0,0,0-.068-.173,1.108,1.108,0,0,1-.067-.09c-.111-.082-.156-.093-.225-.146a1.839,1.839,0,0,0-.455-.169.658.658,0,0,0-.236-.039,1.134,1.134,0,0,0-.24.005,1.347,1.347,0,0,0-.466.128,1.936,1.936,0,0,0-.72.585,2.293,2.293,0,0,0-.255.387,2.72,2.72,0,0,0-.192.42,3.347,3.347,0,0,0-.169.9l-.06.454c-.022.154-.049.306-.056.458l-.045.906a4.328,4.328,0,0,1-.1.858l.18-.128a3.555,3.555,0,0,0-.715.008,4.8,4.8,0,0,0-.7.144,3.6,3.6,0,0,0-.661.258,2.754,2.754,0,0,0-.321.168,2.853,2.853,0,0,0-.291.2,1.747,1.747,0,0,0-.247.261l-.231.276a1.864,1.864,0,0,0-.188.289l-.182.3c-.1.21-.174.435-.255.657-.052.213-.1.442-.141.664Z" fill="#d9a376"/>
                </g>
              </g>
              <path id="Trazado_112100" data-name="Trazado 112100" d="M543.333,1058.968l-29.032.226c-2.194,4.916-5.741,17.613-5.741,17.613l16.255,2.42,2.721-9.228,1.888,9.529,16.255-4.913Z" fill="#368e43"/>
              <path id="Trazado_112101" data-name="Trazado 112101" d="M514.314,1064.891a5.2,5.2,0,0,0,2.042-2.894,20.678,20.678,0,0,0,.7-2.83l-2.756.027c-.689,1.553-1.515,3.884-2.329,6.338A4.4,4.4,0,0,0,514.314,1064.891Z" fill="#b8a131" opacity="0.7" style="mix-blend-mode: multiply;isolation: isolate"/>
              <path id="Trazado_112102" data-name="Trazado 112102" d="M540.023,1060.612c.172,1.2.229,2.631,1.174,3.513a5.607,5.607,0,0,0,3.108,1.317l-.972-6.474-3.629.026C539.846,1059.527,539.936,1060.079,540.023,1060.612Z" fill="#b8a131" opacity="0.7" style="mix-blend-mode: multiply;isolation: isolate"/>
              <path id="Trazado_112103" data-name="Trazado 112103" d="M534.78,1064.53a27.462,27.462,0,0,0,8.97-2.784l-.417-2.778-29.032.226c-.389.866-.817,1.985-1.263,3.227A55.245,55.245,0,0,0,534.78,1064.53Z" fill="#368e43" opacity="0.4" style="mix-blend-mode: multiply;isolation: isolate"/>
              <path id="Trazado_112104" data-name="Trazado 112104" d="M506.971,1022.908s5.9,4.234,22.374,4.234c0,0,14.817-.154,22.53-4.838,0,0,3.325,7.4,4.234,9.826,0,0-6.8,4.537-12.4,5.292l.45,22.222s-12.55,4.537-30.535.454c0,0,1.809-13.3,3.776-21.618,0,0-8.617-1.509-13.307-4.688Z" fill="#69f"/>
              <path id="Trazado_112105" data-name="Trazado 112105" d="M532.52,1026.234l-6.954.146s-.6,4.917,3.408,4.992S532.52,1026.234,532.52,1026.234Z" fill="#d9a376"/>
              <path id="Trazado_112106" data-name="Trazado 112106" d="M529.143,1030.55a26.178,26.178,0,0,0,10.827-2.241,14.345,14.345,0,0,0,4.012-2.984,73.973,73.973,0,0,1-14.637,1.817,66.2,66.2,0,0,1-15.144-1.531C516.945,1030.058,524.545,1030.689,529.143,1030.55Z" fill="#ec9246" opacity="0.5" style="mix-blend-mode: multiply;isolation: isolate"/>
              <path id="Trazado_112107" data-name="Trazado 112107" d="M513.627,1060.1c.242.06.492.109.739.161.562-4.151,1.119-8.3,1.877-12.422.567-3.1,1.3-6.163,2.068-9.214a52.235,52.235,0,0,1,2.218-7.225c-1.017.919-1.715,2.214-2.954,2.856-.99.514-3.329.161-4.293-.128a64.812,64.812,0,0,1-8.512-2.878l-.674,2.544c4.69,3.179,13.307,4.688,13.307,4.688C515.436,1046.8,513.627,1060.1,513.627,1060.1Z" fill="#36c" style="mix-blend-mode: multiply;isolation: isolate"/>
              <path id="Trazado_112108" data-name="Trazado 112108" d="M554.724,1028.771a66.835,66.835,0,0,1-7.646,3.839c-.908.387-2.871,1.505-3.726.488-.882-1.032-1.141-2.43-1.7-3.641a51.222,51.222,0,0,1,.334,9.049c-.06,3.7-.321,7.375-.4,11.072-.076,3.6-.072,7.247-.316,10.865a28.292,28.292,0,0,0,2.886-.8l-.45-22.222c5.592-.755,12.4-5.292,12.4-5.292C555.823,1031.372,555.3,1030.129,554.724,1028.771Z" fill="#36c" style="mix-blend-mode: multiply;isolation: isolate"/>
              <path id="Trazado_112109" data-name="Trazado 112109" d="M527.4,972.164s.117-1.475,2.218-1.645a1.99,1.99,0,0,1,2.374,1.473Z" fill="#fbb323"/>
              <path id="Trazado_112110" data-name="Trazado 112110" d="M555.692,996.413s6.767,2.382,10.355,6.005,2.987,8.621-.563,9.833a12.11,12.11,0,0,1-6.35.488Z" fill="#ed9022"/>
              <path id="Trazado_112111" data-name="Trazado 112111" d="M567.86,1010.251c1.152-2.113.694-5.307-1.813-7.833-3.588-3.623-10.355-6.005-10.355-6.005l.214,1c1.677.645,6.827,2.792,9.811,5.8C567.916,1005.447,568.531,1008.183,567.86,1010.251Z" fill="#fbb323"/>
              <path id="Trazado_112112" data-name="Trazado 112112" d="M506.894,996.368c0,1.137-.908,2.121-2.721,3.862-2.413,2.308-6.05,4.38-5.138,10.884a6.522,6.522,0,0,1,2.488-2.721s-2.944,5.138,1.518,8.923a11.092,11.092,0,0,1,.6-4.091s-.371,7.417,9.833,8.246l30.618,1.291s10.584,1.051,12.922-8.178a11.993,11.993,0,0,1-.15,3.1s4.992-3.4,2.117-10.58a7.276,7.276,0,0,1,1.737,2.268,8.927,8.927,0,0,0-1.279-7.483c-2.575-3.556-3.176-3.175-3.558-6.425s-5.743-18.222-24.643-16.405S506.894,996.368,506.894,996.368Z" fill="#12263f"/>
              <path id="Trazado_112113" data-name="Trazado 112113" d="M560.717,1009.376a8.927,8.927,0,0,0-1.279-7.483c-2.234-3.087-2.984-3.213-3.39-5.318a6.873,6.873,0,0,0,1.16,4.244c1.4,1.937,3.112,3.5,3.187,6.043.015.266-.364.293-.44.056a4.823,4.823,0,0,0-2.706-3.066c2.267,3.205,2.26,7.555.819,11.122a.229.229,0,0,1-.447-.064,10.735,10.735,0,0,0-.375-2.906c-.864,2.8-2.706,4.847-4.906,6.81a.229.229,0,0,1-.36-.274,14.611,14.611,0,0,0,2.068-7.084.232.232,0,0,1,.4-.147c1.831-.923,2.571-3.52,2.154-5.438-.293-1.344-1.231-4.061-3.063-3.5a.226.226,0,0,1-.285-.214,43.939,43.939,0,0,0-.135-4.926,18.347,18.347,0,0,1-.266-2.482c-1.209-.344-2.376-1.048-3.551-1.428a35.485,35.485,0,0,0-6.211-1.578,66.1,66.1,0,0,0-12.66-.245,94.285,94.285,0,0,0-11.983,1.7,31.281,31.281,0,0,0-8.848,2.665,50.782,50.782,0,0,1-.974,7.142c-.041.207-.323.2-.417.057-1.152-1.761-3.666.495-4.061,1.756-.5,1.6-.656,3.965.334,5.416.712,1.047,2.016,1.381,1.873,2.854a10.7,10.7,0,0,0,.623,4.932c.079.217-.176.322-.334.259-2.42-1.033-2.811-4.024-2.959-6.439a17.845,17.845,0,0,0-.9,3.185.23.23,0,0,1-.439,0c-.749-2.832-.987-5.549.192-8.2a8.2,8.2,0,0,0-2.611,2.466.225.225,0,0,1-.418-.113,12.377,12.377,0,0,1,2.229-6.558c.148-.2.3-.406.447-.6-1.978,1.862-3.828,4.241-3.149,9.09a6.522,6.522,0,0,1,2.488-2.721s-2.944,5.138,1.518,8.923a11.092,11.092,0,0,1,.6-4.091s-.371,7.417,9.833,8.246l30.618,1.291s10.584,1.051,12.922-8.178a11.993,11.993,0,0,1-.15,3.1s4.992-3.4,2.117-10.58A7.276,7.276,0,0,1,560.717,1009.376Z" fill="#b94e27" opacity="0.5" style="mix-blend-mode: multiply;isolation: isolate"/>
              <g id="Grupo_50528" data-name="Grupo 50528">
                <path id="Trazado_112114" data-name="Trazado 112114" d="M509.258,1005.432s-.791-1.636-1.664-1.757-2.847.819-3.132,3.3a4.211,4.211,0,0,0,2.554,4.6c1.3.368,1.886-1.265,1.886-1.265Z" fill="#ffbea7"/>
                <path id="Trazado_112115" data-name="Trazado 112115" d="M507.127,1006.483c-1.169-.541-1.539,1.006-1.659,2.008-.008.052.052.052.066.013.14-.387.268-.79.431-1.173.282-.645.862-.514,1.237-.139a2.337,2.337,0,0,1,.345.481,1.247,1.247,0,0,0-.608.527,2.738,2.738,0,0,0-.368,1.023.048.048,0,0,0,.087.033c.146-.262.27-.529.431-.771a1.214,1.214,0,0,1,.638-.437,16.893,16.893,0,0,1,.447,1.726.086.086,0,0,0,.172-.011C508.444,1008.586,508.193,1006.982,507.127,1006.483Z" fill="#12263f"/>
              </g>
              <g id="Grupo_50529" data-name="Grupo 50529">
                <path id="Trazado_112116" data-name="Trazado 112116" d="M551.537,1004.856s1.07-1.436,2.031-1.447a3.313,3.313,0,0,1,2.923,3.423,4.112,4.112,0,0,1-3.362,3.978c-1.449.2-1.862-1.377-1.862-1.377Z" fill="#ffbea7"/>
                <path id="Trazado_112117" data-name="Trazado 112117" d="M553.691,1006.074c1.329-.372,1.524,1.111,1.513,2.049a.034.034,0,0,1-.068.008c-.1-.376-.183-.774-.311-1.141-.214-.635-.863-.571-1.306-.267a1.978,1.978,0,0,0-.443.411,1.256,1.256,0,0,1,.585.554,2.172,2.172,0,0,1,.26.991c0,.056-.079.061-.1.018-.128-.248-.225-.514-.364-.754a1.216,1.216,0,0,0-.627-.477,14.689,14.689,0,0,0-.709,1.554.1.1,0,0,1-.184-.038C551.991,1007.883,552.475,1006.419,553.691,1006.074Z" fill="#12263f"/>
              </g>
              <path id="Trazado_112118" data-name="Trazado 112118" d="M509.24,996.6a70.889,70.889,0,0,1-.454,9.829c-.605,4.226-3.025,13.607,8.767,18.749s27.015,2.045,32.509-7.716a22.948,22.948,0,0,0,2.113-12.7,60.769,60.769,0,0,1-.6-10.13c0-.458-13.151-4.387-27.364-1.214S509.24,996.6,509.24,996.6Z" fill="#ffbea7"/>
              <path id="Trazado_112119" data-name="Trazado 112119" d="M552.329,993.122c-1.208-3.71-13.984-5.217-21.092-4.838s-22.831,3.021-22.451,7.63a50.058,50.058,0,0,0,1.133,6.808s2.419-5.293,7.334-6.046a9.646,9.646,0,0,0-2.5,3.325l12.779-4.158a7.58,7.58,0,0,0-2.12,2.267s9.15-.909,13.912-3.326c0,0-1.062,1.28-1.512,1.817a19.47,19.47,0,0,0,5.742-2.042s-.3,2.042,4.387,5.067a8.649,8.649,0,0,0-.15-3.408s2.571,4.085,4.534,5.146C552.329,1001.364,553.538,996.826,552.329,993.122Z" fill="#12263f"/>
              <path id="Trazado_112120" data-name="Trazado 112120" d="M530.824,971.6c-7.484,0-26.614,6.8-24.722,26.38,0,0,25.855-9.448,50.8-.979C556.9,997,558.642,971.6,530.824,971.6Zm9.052,19.617c-8.392-.837-18.319,1.015-18.319,1.015s-.491-9.679,8.434-10.356C540.019,981.112,539.876,991.215,539.876,991.215Z" fill="#7cc5ff"/>
              <path id="Trazado_112121" data-name="Trazado 112121" d="M515.29,985.5a17.21,17.21,0,0,1,4.406-9.16,23.6,23.6,0,0,1,4.931-3.724c-8.609,2.54-20.009,10.035-18.525,25.359a72.841,72.841,0,0,1,8.659-2.364A45.526,45.526,0,0,1,515.29,985.5Z" fill="#0f2771"/>
              <path id="Trazado_112122" data-name="Trazado 112122" d="M534.81,971.787a17.912,17.912,0,0,1,4.882,2.616,18.746,18.746,0,0,1,5.758,7.953A38.142,38.142,0,0,1,548,993.512c.041.394.067.8.1,1.194A63.941,63.941,0,0,1,556.9,997S558.465,974.1,534.81,971.787Z" fill="#0f2771"/>
              <path id="Trazado_112123" data-name="Trazado 112123" d="M528.707,991.044a6.817,6.817,0,0,1,4.365-.17l.169,2.5a5.471,5.471,0,0,1-4.305.169Z" fill="#ffe11e"/>
              <path id="Trazado_112124" data-name="Trazado 112124" d="M511.736,982.38a78.928,78.928,0,0,0,10.944,1.779c.562.049,1.118.092,1.673.139a8.546,8.546,0,0,1,5.638-2.424c3.745-.286,6.069.953,7.517,2.608a71.986,71.986,0,0,0,8.234-.972c2.444-.437,4.872-.932,7.3-1.482-3.456-5.51-9.972-10.43-22.218-10.43-4.909,0-14.817,2.925-20.53,10.452C510.8,982.174,511.289,982.275,511.736,982.38Z" fill="#f9f3a2" opacity="0.3" style="mix-blend-mode: screen;isolation: isolate"/>
              <path id="Trazado_112125" data-name="Trazado 112125" d="M507.954,1075.752s11.794,2.492,18.085,2.6l-.849,2.609a67.077,67.077,0,0,1-17.635-2.943Z" fill="#c6d92c"/>
              <path id="Trazado_112126" data-name="Trazado 112126" d="M528.247,1079.325l1.023,2.316s12.928-2.545,17.749-5.209l-.511-2.38Z" fill="#c6d92c"/>
              <path id="Trazado_112127" data-name="Trazado 112127" d="M532.295,1036.209l-5.371.237-5.367,17.076,4.542.455,1.058-5.518,3.926.147,1.287,5.6,4.083-.905Zm-4.838,9.376,1.062-4.388,1.731.079.533,4.309Z" fill="#f8ee6a"/>
              <g id="Grupo_50530" data-name="Grupo 50530">
                <path id="Trazado_112128" data-name="Trazado 112128" d="M520.319,1011.547a1.527,1.527,0,0,0,1.552,1.46,1.457,1.457,0,0,0,1.5-1.411v-.041a1.528,1.528,0,0,0-1.547-1.461,1.462,1.462,0,0,0-1.505,1.418Z" fill="#263238"/>
                <path id="Trazado_112129" data-name="Trazado 112129" d="M517.317,1007.842c.2.191,1.311-.728,2.953-.81s2.891.692,3.061.466c.079-.091-.131-.443-.674-.795a4.209,4.209,0,0,0-2.49-.612,4.036,4.036,0,0,0-2.338.887C517.376,1007.39,517.219,1007.757,517.317,1007.842Z" fill="#263238"/>
                <path id="Trazado_112130" data-name="Trazado 112130" d="M535.312,1010.924a1.532,1.532,0,0,0,1.553,1.465,1.468,1.468,0,0,0,1.5-1.435v-.017a1.527,1.527,0,0,0-1.547-1.466,1.462,1.462,0,0,0-1.506,1.417Z" fill="#263238"/>
                <path id="Trazado_112131" data-name="Trazado 112131" d="M533.23,1007.536c.2.192,1.31-.728,2.953-.809s2.891.691,3.06.465c.085-.092-.123-.437-.674-.8a4.159,4.159,0,0,0-2.455-.618,4.018,4.018,0,0,0-2.337.888C533.289,1007.085,533.149,1007.449,533.23,1007.536Z" fill="#263238"/>
                <path id="Trazado_112132" data-name="Trazado 112132" d="M528.122,1019.374a12.641,12.641,0,0,0-2.7-.29c-.42-.017-.822-.067-.906-.308a1.778,1.778,0,0,1,.216-1.063l1.077-2.761c1.489-3.929,2.546-7.151,2.33-7.2s-1.544,3.1-3.034,7.021q-.542,1.453-1.027,2.776a1.762,1.762,0,0,0-.132,1.406,1.051,1.051,0,0,0,.719.471,3.391,3.391,0,0,0,.718.049A12.7,12.7,0,0,0,528.122,1019.374Z" fill="#263238"/>
                <path id="Trazado_112133" data-name="Trazado 112133" d="M532.53,1018.742c-.263,0-.174,1.782-1.634,3.125s-3.36,1.244-3.37,1.5c-.016.116.443.322,1.244.3a4.427,4.427,0,0,0,2.816-1.15,3.827,3.827,0,0,0,1.26-2.6C532.878,1019.17,532.652,1018.721,532.53,1018.742Z" fill="#263238"/>
                <path id="Trazado_112134" data-name="Trazado 112134" d="M532.645,1004.228c.251.553,1.83.035,3.788.054s3.6.473,3.774-.094c.073-.268-.278-.78-.986-1.253a5.364,5.364,0,0,0-2.938-.862,4.837,4.837,0,0,0-2.826.888C532.819,1003.441,532.545,1003.96,532.645,1004.228Z" fill="#263238"/>
                <path id="Trazado_112135" data-name="Trazado 112135" d="M517.231,1003.834c.311.59,1.823.2,3.612.382s3.211.749,3.614.22c.188-.259.017-.831-.574-1.426a4.61,4.61,0,0,0-2.825-1.239,4.667,4.667,0,0,0-3,.758C517.369,1003.011,517.1,1003.535,517.231,1003.834Z" fill="#263238"/>
              </g>
            </g>
            <g id="Grupo_50545" data-name="Grupo 50545">
              <path id="Trazado_112136" data-name="Trazado 112136" d="M554.694,1011.407s-1.168,1.092-1.224,1.537c0,0,3.678,2.792,21.64-.083C575.11,1012.861,558.308,1008.618,554.694,1011.407Z" fill="#2f201d"/>
              <g id="Grupo_50544" data-name="Grupo 50544">
                <path id="Trazado_112137" data-name="Trazado 112137" d="M569.286,976.135s.244-3.73,4.687-3.952,6.2,7.2.616,8.873Z" fill="#c1507f"/>
                <path id="Trazado_112138" data-name="Trazado 112138" d="M571.144,976.67a2.3,2.3,0,0,1,2.405-2.032c2.286-.109,3.194,3.7.323,4.564Z" fill="#a22f5f"/>
                <path id="Trazado_112139" data-name="Trazado 112139" d="M575.8,973.133a4.718,4.718,0,0,0-3.314-.451,4.155,4.155,0,0,1,3.81.578c2.053,1.517,1.373,4.412,1.373,4.412S577.985,974.454,575.8,973.133Z" fill="#e36099" style="mix-blend-mode: screen;isolation: isolate"/>
                <path id="Trazado_112140" data-name="Trazado 112140" d="M574.923,978.458a10.466,10.466,0,0,0-.89-1.332,7.278,7.278,0,0,0-4.124-2.792,4.418,4.418,0,0,0-.623,1.8l5.3,4.921a6.335,6.335,0,0,0,1.145-.472,4.932,4.932,0,0,0-.286-1.02C575.291,979.194,575.114,978.823,574.923,978.458Z" fill="#e36099" opacity="0.5" style="mix-blend-mode: multiply;isolation: isolate"/>
                <path id="Trazado_112141" data-name="Trazado 112141" d="M557.5,976.713s-.608-3.685-5.051-3.471-5.469,7.768.259,8.887Z" fill="#c1507f"/>
                <path id="Trazado_112142" data-name="Trazado 112142" d="M555.7,977.426a2.317,2.317,0,0,0-2.6-1.786c-2.282.109-2.811,3.993.132,4.579Z" fill="#a22f5f"/>
                <path id="Trazado_112143" data-name="Trazado 112143" d="M555.906,975.666a7.671,7.671,0,0,0-2.458,1.948,7.472,7.472,0,0,0-1.87,4.185,6.013,6.013,0,0,0,1.127.33l4.792-5.416a4.336,4.336,0,0,0-.585-1.428A6.75,6.75,0,0,0,555.906,975.666Z" fill="#c1507f" opacity="0.5" style="mix-blend-mode: multiply;isolation: isolate"/>
                <path id="Trazado_112144" data-name="Trazado 112144" d="M550.79,974.36a4.7,4.7,0,0,1,3.247-.769,4.124,4.124,0,0,0-3.727.945c-1.9,1.706-.938,4.527-.938,4.527S548.734,975.888,550.79,974.36Z" fill="#e36099" style="mix-blend-mode: screen;isolation: isolate"/>
                <path id="Trazado_112145" data-name="Trazado 112145" d="M582.211,987.263c-.581-3.137-4.41-2.954-6.838-.09a20.628,20.628,0,0,1-5.524,4.305c-6.936-.946-11.252,1.141-11.252,1.141l-.608-.2a21.6,21.6,0,0,1-6.722-4.057c-2.687-2.612-6.523-2.424-6.793.756s2.871,7.6,11.511,8.4c0,0,0,.019-.008.053-2.056,4.935-2.507,15.378-2.507,15.378,2.2-2.427,7.908-1.608,13.1-.218s8.538.135,8.538.135c-.848-6.119-3.527-16.11-3.527-16.11C580.095,995.115,582.793,990.412,582.211,987.263Z" fill="#e36099"/>
                <path id="Trazado_112146" data-name="Trazado 112146" d="M570.378,993.392s.653,1.533,1.205,3.359A11.3,11.3,0,0,0,570.378,993.392Z" fill="#68462b"/>
                <path id="Trazado_112147" data-name="Trazado 112147" d="M557.418,994.268a34.926,34.926,0,0,0-1.46,3.256A11.374,11.374,0,0,1,557.418,994.268Z" fill="#68462b"/>
                <g id="Grupo_50532" data-name="Grupo 50532" opacity="0.5">
                  <path id="Trazado_112148" data-name="Trazado 112148" d="M575.373,987.173a20.628,20.628,0,0,1-5.524,4.305c-6.936-.946-11.252,1.141-11.252,1.141l-.608-.2a21.6,21.6,0,0,1-6.722-4.057,6.01,6.01,0,0,0-3.839-1.809,9.646,9.646,0,0,1,4.413,3.091c3.2,3.682,5.99,4.693,11.68,4.134s8.636-2.019,10.306-3.385c1.456-1.186,4.151-5.341,6.444-5.33C578.807,984.7,576.837,985.454,575.373,987.173Z" fill="#e36099" style="mix-blend-mode: multiply;isolation: isolate"/>
                </g>
                <path id="Trazado_112149" data-name="Trazado 112149" d="M575.125,983.193c.26,5.429-4.668,10.079-11.019,10.39s-11.709-3.839-11.976-9.259,4.669-10.08,11.016-10.392S574.855,977.768,575.125,983.193Z" fill="#e36099"/>
                <g id="Grupo_50533" data-name="Grupo 50533">
                  <path id="Trazado_112150" data-name="Trazado 112150" d="M568.017,979.284c.154.957-.06,1.789-.484,1.862s-.886-.663-1.036-1.622.06-1.794.477-1.865S567.86,978.319,568.017,979.284Z" fill="#543921"/>
                  <path id="Trazado_112151" data-name="Trazado 112151" d="M567.03,978.693c.023.295-.06.542-.191.554s-.259-.222-.278-.522.064-.533.191-.544S567,978.4,567.03,978.693Z" fill="#fff"/>
                </g>
                <g id="Grupo_50534" data-name="Grupo 50534">
                  <path id="Trazado_112152" data-name="Trazado 112152" d="M560.417,979.868c-.116.966-.555,1.709-.979,1.657s-.669-.877-.552-1.839.559-1.71.979-1.659S560.541,978.905,560.417,979.868Z" fill="#543921"/>
                  <path id="Trazado_112153" data-name="Trazado 112153" d="M559.637,979.029c-.064.287-.214.5-.342.476s-.18-.285-.12-.57.214-.5.337-.477S559.693,978.74,559.637,979.029Z" fill="#fff"/>
                </g>
                <g id="Grupo_50535" data-name="Grupo 50535">
                  <path id="Trazado_112154" data-name="Trazado 112154" d="M558.255,988s.612,2.443,2.763,2.291c2.053-.152,2.327-1.995,2.4-4.057,0,0-.24,3.545-2.143,3.811A2.653,2.653,0,0,1,558.255,988Z" fill="#68462b"/>
                  <path id="Trazado_112155" data-name="Trazado 112155" d="M568.7,987.483s-.368,2.5-2.526,2.554c-2.056.056-2.51-1.753-2.8-3.795,0,0,.59,3.494,2.511,3.577A2.656,2.656,0,0,0,568.7,987.483Z" fill="#68462b"/>
                </g>
                <g id="Grupo_50536" data-name="Grupo 50536">
                  <path id="Trazado_112156" data-name="Trazado 112156" d="M568.208,983.987c.064,1.313-1.966,2.477-4.533,2.6s-4.71-.835-4.774-2.139,1.97-2.477,4.537-2.61S568.145,982.681,568.208,983.987Z" fill="#a22f5f"/>
                  <path id="Trazado_112157" data-name="Trazado 112157" d="M567.511,982.819a2.617,2.617,0,0,1-.639.59,7.629,7.629,0,0,1-4.188,1.154c-.841.028-2.6.2-3.149-.663a.91.91,0,0,1-.158-.574,1.553,1.553,0,0,0-.476,1.126c.064,1.3,2.2,2.263,4.774,2.139s4.6-1.291,4.533-2.6A1.606,1.606,0,0,0,567.511,982.819Z" fill="#68462b" opacity="0.5" style="mix-blend-mode: multiply;isolation: isolate"/>
                  <path id="Trazado_112158" data-name="Trazado 112158" d="M561.359,982.534a5.142,5.142,0,0,0-1.6.807,8.568,8.568,0,0,1,1.674-.58C561.412,982.688,561.389,982.609,561.359,982.534Z" fill="#fff"/>
                  <path id="Trazado_112159" data-name="Trazado 112159" d="M561.738,982.422c.026.086.049.174.072.266a15.944,15.944,0,0,1,4.77-.124A8.933,8.933,0,0,0,561.738,982.422Z" fill="#fff"/>
                </g>
                <g id="Grupo_50537" data-name="Grupo 50537" opacity="0.4" style="mix-blend-mode: multiply;isolation: isolate">
                  <path id="Trazado_112160" data-name="Trazado 112160" d="M557.039,994.905a10.5,10.5,0,0,1-8.542-1.412c-3.659-2.383-3.378-5.348-3.186-6.23a2.734,2.734,0,0,0-.837,1.852c-.27,3.187,2.871,7.6,11.511,8.4,0,0,0,.019-.008.053-2.056,4.935-2.507,15.378-2.507,15.378a4.761,4.761,0,0,1,2.627-1.342C554.348,1006.809,557.039,994.905,557.039,994.905Z" fill="#e36099"/>
                  <path id="Trazado_112161" data-name="Trazado 112161" d="M581.434,985.706c.12.427.575,2.666-2.507,5.123-3.437,2.728-8.459,2.882-8.459,2.882s4.049,16.578.435,19.661a12.2,12.2,0,0,0,4.207-.511c-.848-6.119-3.527-16.11-3.527-16.11,8.512-1.636,11.21-6.339,10.628-9.488A2.853,2.853,0,0,0,581.434,985.706Z" fill="#e36099"/>
                </g>
                <path id="Trazado_112162" data-name="Trazado 112162" d="M559.4,974.961s-6.936,2.255-7.011,9.078a10.111,10.111,0,0,0,2.965,6.39S547.139,981.412,559.4,974.961Z" fill="#e36099" style="mix-blend-mode: screen;isolation: isolate"/>
                <g id="Grupo_50538" data-name="Grupo 50538" style="mix-blend-mode: multiply;isolation: isolate">
                  <path id="Trazado_112163" data-name="Trazado 112163" d="M562.376,997.1c-5.663,2.064-5.652,13.17-5.633,14.371,2.747-.424,6.515.251,10.051,1.2a18.128,18.128,0,0,0,4.9.655C571.429,1002.171,568.141,994.995,562.376,997.1Z" fill="#e36099"/>
                </g>
                <g id="Grupo_50539" data-name="Grupo 50539">
                  <path id="Trazado_112164" data-name="Trazado 112164" d="M562.151,997.153c-5.667,2.068-5.656,13.168-5.637,14.374,2.743-.424,6.519.255,10.058,1.2a18.024,18.024,0,0,0,4.894.653C571.2,1002.227,567.916,995.051,562.151,997.153Z" fill="#cd9374"/>
                </g>
                <g id="Grupo_50540" data-name="Grupo 50540">
                  <path id="Trazado_112165" data-name="Trazado 112165" d="M556.829,1011.167h-.007a.1.1,0,0,1-.087-.1s0-.127,0-.362a.1.1,0,0,1,.1-.1.1.1,0,0,1,.086.1c-.008.235-.008.362-.008.362A.09.09,0,0,1,556.829,1011.167Z" fill="#e36099"/>
                  <path id="Trazado_112166" data-name="Trazado 112166" d="M571.027,1012.173h0a.094.094,0,0,1-.093-.087c0-.24-.016-.484-.023-.716a.094.094,0,0,1,.09-.1h0a.1.1,0,0,1,.1.09c.007.236.015.477.019.724A.088.088,0,0,1,571.027,1012.173Zm-.06-1.438a.084.084,0,0,1-.094-.082c-.018-.244-.034-.485-.06-.717a.1.1,0,0,1,.083-.1.1.1,0,0,1,.1.082c.023.242.041.482.056.725a.087.087,0,0,1-.086.1Zm-14.108-.657h0a.087.087,0,0,1-.09-.093c.012-.218.027-.458.045-.725a.092.092,0,0,1,.184.013c-.019.259-.037.5-.045.719A.092.092,0,0,1,556.859,1010.078Zm13.973-.78a.094.094,0,0,1-.094-.083c-.026-.24-.06-.475-.09-.717a.09.09,0,0,1,.079-.1.089.089,0,0,1,.1.077c.034.24.064.482.094.719a.092.092,0,0,1-.083.1Zm-13.868-.665h-.011a.085.085,0,0,1-.083-.1c.019-.233.045-.469.072-.721a.1.1,0,0,1,.1-.079.1.1,0,0,1,.079.1c-.03.247-.057.491-.075.717A.088.088,0,0,1,556.964,1008.633Zm13.673-.769a.09.09,0,0,1-.094-.075c-.045-.237-.083-.469-.128-.706a.1.1,0,0,1,.072-.109.088.088,0,0,1,.108.078c.046.234.083.469.124.711a.082.082,0,0,1-.071.1Zm-13.508-.66h-.011a.089.089,0,0,1-.082-.106c.03-.228.067-.472.1-.72a.09.09,0,0,1,.176.034c-.034.24-.071.48-.1.709A.1.1,0,0,1,557.129,1007.2Zm13.241-.755a.091.091,0,0,1-.093-.075c-.049-.236-.1-.469-.154-.7a.084.084,0,0,1,.071-.109.082.082,0,0,1,.105.064c.053.233.109.469.154.706a.094.094,0,0,1-.068.112Zm-13.015-.672h-.019a.089.089,0,0,1-.071-.108c.041-.237.09-.477.138-.71a.093.093,0,0,1,.109-.071.084.084,0,0,1,.068.109c-.045.232-.094.476-.139.705A.086.086,0,0,1,557.355,1005.777Zm12.693-.735a.1.1,0,0,1-.1-.072c-.06-.234-.124-.461-.188-.69a.109.109,0,0,1,.064-.117.1.1,0,0,1,.117.064c.063.229.123.466.187.7a.1.1,0,0,1-.071.117Zm-12.386-.676-.026,0a.09.09,0,0,1-.068-.108c.061-.241.121-.477.184-.708a.091.091,0,0,1,.117-.056.086.086,0,0,1,.06.109c-.064.229-.128.463-.184.7A.089.089,0,0,1,557.662,1004.366Zm11.995-.717a.081.081,0,0,1-.09-.064c-.075-.234-.15-.461-.221-.685a.087.087,0,0,1,.06-.114.083.083,0,0,1,.112.058c.075.224.151.452.222.685a.1.1,0,0,1-.06.12Zm-11.6-.672a.043.043,0,0,1-.03-.007.089.089,0,0,1-.063-.113c.075-.236.157-.465.24-.686a.091.091,0,0,1,.116-.049.083.083,0,0,1,.056.112c-.079.222-.157.447-.236.68A.1.1,0,0,1,558.056,1002.977Zm11.147-.69a.11.11,0,0,1-.094-.066c-.082-.234-.169-.463-.247-.672a.092.092,0,0,1,.052-.122.089.089,0,0,1,.113.053c.086.221.173.443.255.679a.1.1,0,0,1-.053.12C569.222,1002.279,569.211,1002.287,569.2,1002.287Zm-10.64-.662a.1.1,0,0,1-.041-.006.1.1,0,0,1-.049-.12c.1-.229.2-.452.311-.653a.086.086,0,0,1,.124-.045.1.1,0,0,1,.042.12c-.109.21-.207.424-.308.653A.083.083,0,0,1,558.563,1001.625Zm10.111-.685a.082.082,0,0,1-.086-.057c-.109-.229-.207-.45-.3-.649a.091.091,0,0,1,.041-.124.093.093,0,0,1,.12.045c.1.2.206.424.308.657a.087.087,0,0,1-.053.12A.03.03,0,0,1,568.674,1000.94Zm-9.458-.6a.094.094,0,0,1-.052-.011.084.084,0,0,1-.03-.12,6.961,6.961,0,0,1,.4-.608.087.087,0,0,1,.124-.026.09.09,0,0,1,.023.127,6.881,6.881,0,0,0-.387.6A.092.092,0,0,1,559.216,1000.335Zm8.809-.69a.085.085,0,0,1-.083-.045,4.4,4.4,0,0,0-.293-.436c-.037-.045-.075-.09-.116-.135a.093.093,0,0,1,.011-.127.087.087,0,0,1,.124.007c.045.049.083.094.12.139a3.923,3.923,0,0,1,.312.465.084.084,0,0,1-.034.119A.048.048,0,0,1,568.025,999.645Zm-7.968-.477a.083.083,0,0,1-.064-.022.087.087,0,0,1-.008-.128c.162-.191.331-.364.5-.529a.1.1,0,0,1,.131,0,.1.1,0,0,1,0,.135,7.1,7.1,0,0,0-.491.514A.08.08,0,0,1,560.057,999.168Zm7.029-.61a.1.1,0,0,1-.056-.017,5.721,5.721,0,0,0-.578-.42.094.094,0,0,1,.1-.158,5.472,5.472,0,0,1,.59.439.086.086,0,0,1,.011.124A.082.082,0,0,1,567.086,998.558Zm-5.982-.373a.086.086,0,0,1-.075-.042.088.088,0,0,1,.019-.123,5.745,5.745,0,0,1,.619-.4.092.092,0,0,1,.086.162,5.441,5.441,0,0,0-.6.379A.069.069,0,0,1,561.1,998.185Zm4.774-.4a.081.081,0,0,1-.041-.015,4.687,4.687,0,0,0-.661-.259.1.1,0,0,1-.06-.12.091.091,0,0,1,.116-.058,6.253,6.253,0,0,1,.68.272.085.085,0,0,1,.041.12A.1.1,0,0,1,565.878,997.787Zm-3.5-.282a.081.081,0,0,1-.094-.056.1.1,0,0,1,.057-.12,3.887,3.887,0,0,1,.717-.176.079.079,0,0,1,.1.075.091.091,0,0,1-.071.1,3.69,3.69,0,0,0-.687.176Zm2.132-.165h-.023a3.689,3.689,0,0,0-.7-.063.094.094,0,0,1-.087-.094.092.092,0,0,1,.087-.094,5.659,5.659,0,0,1,.739.067.093.093,0,0,1,.071.107A.091.091,0,0,1,564.508,997.34Z" fill="#e36099"/>
                  <path id="Trazado_112167" data-name="Trazado 112167" d="M571.02,1013.252h-.012a.081.081,0,0,1-.086-.087c0-.12.008-.244.008-.364a.1.1,0,0,1,.093-.092.087.087,0,0,1,.087.092c0,.12-.008.244-.008.368A.083.083,0,0,1,571.02,1013.252Z" fill="#e36099"/>
                </g>
                <path id="Trazado_112168" data-name="Trazado 112168" d="M571.068,992.57a9.306,9.306,0,0,0,3.408-1.968c1.577-1.447,4.29-5.758,6.3-5.062,0,0-.991-.266-2.65,1.277S574.855,991.9,571.068,992.57Z" fill="#e36099" opacity="0.4" style="mix-blend-mode: screen;isolation: isolate"/>
                <path id="Trazado_112169" data-name="Trazado 112169" d="M556.66,993.553a9.322,9.322,0,0,1-3.524-1.76c-1.659-1.343-4.627-5.485-6.594-4.669,0,0,.976-.326,2.721,1.115C551.023,989.68,552.84,993.107,556.66,993.553Z" fill="#e36099" opacity="0.4" style="mix-blend-mode: screen;isolation: isolate"/>
                <path id="Trazado_112170" data-name="Trazado 112170" d="M574.623,981.752s.679,6.952-4.673,9.775C569.95,991.527,575.58,989.387,574.623,981.752Z" fill="#e36099" style="mix-blend-mode: multiply;isolation: isolate"/>
                <g id="Grupo_50541" data-name="Grupo 50541">
                  <path id="Trazado_112171" data-name="Trazado 112171" d="M543.021,988.791a3.57,3.57,0,0,0,1.1,3.835A4.369,4.369,0,0,1,543.021,988.791Z" fill="#e36099"/>
                  <path id="Trazado_112172" data-name="Trazado 112172" d="M542.083,989.339a3.1,3.1,0,0,0,.965,3.336A3.8,3.8,0,0,1,542.083,989.339Z" fill="#e36099"/>
                </g>
                <g id="Grupo_50542" data-name="Grupo 50542">
                  <path id="Trazado_112173" data-name="Trazado 112173" d="M581.705,983.608a3.58,3.58,0,0,1,1.786,3.573A4.393,4.393,0,0,0,581.705,983.608Z" fill="#e36099"/>
                  <path id="Trazado_112174" data-name="Trazado 112174" d="M582.774,983.384a3.1,3.1,0,0,1,1.539,3.11A3.8,3.8,0,0,0,582.774,983.384Z" fill="#e36099"/>
                </g>
                <path id="Trazado_112175" data-name="Trazado 112175" d="M569.252,990.557c-1.107-.631-3.205.988-4.005,1.668h0a.634.634,0,0,1-.075.064c0,.007,0,.007-.008.007a.187.187,0,0,1-.037.038,2.037,2.037,0,0,0-2.725.107c-.77-.539-3.168-2.108-4.249-1.338-1.3.912-.034,3.261-.034,3.261a3.863,3.863,0,0,0-.1,2.211h.008a.922.922,0,0,0,.075.155l.011.014a.567.567,0,0,0,.1.135.081.081,0,0,1,.015.026.935.935,0,0,0,.128.1.022.022,0,0,0,.022.013.9.9,0,0,0,.158.1c.9.394,2.916-1.366,3.809-2.214h.008c.033-.03.06-.066.094-.091l0,0a.492.492,0,0,1,.038-.042,2.008,2.008,0,0,0,1.4.473,2.034,2.034,0,0,0,1.373-.63c.852.679,3.273,2.488,4.189,1.966,1.122-.634.15-2.777.15-2.777S570.637,991.335,569.252,990.557Z" fill="#e36099" opacity="0.5" style="mix-blend-mode: multiply;isolation: isolate"/>
                <g id="Grupo_50543" data-name="Grupo 50543">
                  <path id="Trazado_112176" data-name="Trazado 112176" d="M562.609,992.249s-3.044-2.436-4.286-1.522-.019,3.258-.019,3.258-.709,2.233.409,2.759,4.046-2.641,4.046-2.641Z" fill="#f27671"/>
                  <path id="Trazado_112177" data-name="Trazado 112177" d="M564.789,992.142s2.793-2.73,4.11-1.933.342,3.241.342,3.241.93,2.153-.136,2.779S564.816,994,564.816,994Z" fill="#f27671"/>
                  <path id="Trazado_112178" data-name="Trazado 112178" d="M562.609,992.249a13.942,13.942,0,0,0-1.415-.959,1.732,1.732,0,0,1,.413.7.108.108,0,0,1-.094.12,13.011,13.011,0,0,1-1.55-.158c.612.283,1.786.627,1.58,1.34-.154.524-.7.7-1.265.8a2.147,2.147,0,0,1,1.363.218c.045.026.018.08-.015.112-.556.458-1.122.89-1.7,1.308a3.268,3.268,0,0,1-.964.546.777.777,0,0,1-.747-.075.993.993,0,0,0,.495.545c1.122.519,4.046-2.641,4.046-2.641Z" fill="#f27671" opacity="0.4" style="mix-blend-mode: multiply;isolation: isolate"/>
                  <path id="Trazado_112179" data-name="Trazado 112179" d="M562.609,992.249l-.158-.12a1.54,1.54,0,0,0-.116,2.411c.259-.262.424-.437.424-.437Z" fill="#f27671" opacity="0.4" style="mix-blend-mode: multiply;isolation: isolate"/>
                  <path id="Trazado_112180" data-name="Trazado 112180" d="M566.261,994.925c-.027-.05.045-.114.094-.129a2.464,2.464,0,0,1,.84.018c-.694-.3-1.557-.711-1.531-1.4.015-.427.529-.622.863-.739.443-.142.86-.341,1.288-.514-.3.064-.6.12-.9.165-.368.038-1.126.19-1.4-.157-.386-.507,1.892-1.607,3.033-2.087-1.407-.229-3.761,2.06-3.761,2.06l.027,1.862a19.35,19.35,0,0,0,1.782,1.377A1.818,1.818,0,0,1,566.261,994.925Z" fill="#f27671" opacity="0.4" style="mix-blend-mode: multiply;isolation: isolate"/>
                  <path id="Trazado_112181" data-name="Trazado 112181" d="M564.977,991.964l-.188.178.027,1.862s.187.165.488.4C565.7,993.617,565.878,992.262,564.977,991.964Z" fill="#f27671" opacity="0.4" style="mix-blend-mode: multiply;isolation: isolate"/>
                  <path id="Trazado_112182" data-name="Trazado 112182" d="M565.517,993.1a1.8,1.8,0,1,1-1.876-1.6A1.749,1.749,0,0,1,565.517,993.1Z" fill="#f27671"/>
                  <path id="Trazado_112183" data-name="Trazado 112183" d="M563.675,993.677a2.022,2.022,0,0,1-1.637-.619c-.033-.045-.06-.1-.086-.139a1.235,1.235,0,0,0-.022.353,1.8,1.8,0,0,0,3.587-.169,1.789,1.789,0,0,0-.1-.477A2.1,2.1,0,0,1,563.675,993.677Z" fill="#f27671" opacity="0.4" style="mix-blend-mode: multiply;isolation: isolate"/>
                  <path id="Trazado_112184" data-name="Trazado 112184" d="M562.083,992.765a1.907,1.907,0,0,1,2.346-1.047A2.8,2.8,0,0,0,562.083,992.765Z" fill="#f27671" style="mix-blend-mode: screen;isolation: isolate"/>
                  <path id="Trazado_112185" data-name="Trazado 112185" d="M565.777,991.838c.041-.03,2.578-1.835,3.111-1.46s.529,1.449.529,1.449-.236-1.177-.822-1.209A12.078,12.078,0,0,0,565.777,991.838Z" fill="#f27671" style="mix-blend-mode: screen;isolation: isolate"/>
                  <path id="Trazado_112186" data-name="Trazado 112186" d="M561.265,991.572c-.048-.027-2.387-1.1-2.886-.68s-.383,1.5-.383,1.5.128-1.2.7-1.287A11.581,11.581,0,0,1,561.265,991.572Z" fill="#f27671" style="mix-blend-mode: screen;isolation: isolate"/>
                  <path id="Trazado_112187" data-name="Trazado 112187" d="M558.5,993.989a3.185,3.185,0,0,0-.184,2.038s-.056-1.46.428-1.836Z" fill="#f27671" style="mix-blend-mode: screen;isolation: isolate"/>
                  <path id="Trazado_112188" data-name="Trazado 112188" d="M569.237,994.034a3.186,3.186,0,0,1-.169,2.038s.308-1.43-.1-1.881Z" fill="#f27671" style="mix-blend-mode: screen;isolation: isolate"/>
                </g>
              </g>
            </g>
            <g id="Grupo_50546" data-name="Grupo 50546">
              <path id="Trazado_112189" data-name="Trazado 112189" d="M561.01,1019.091c-.09,2.241-5.487,4.407-8.167,5.345l2.207,5.1c2.853-1.238,8.295-3.753,9.766-5.566,1.505-1.869,1.561-8.215,1.494-11.336a34.718,34.718,0,0,0-5.465-1.04C560.939,1013.488,561.093,1017,561.01,1019.091Z" fill="#ffbea7"/>
            </g>
            <g id="Grupo_50547" data-name="Grupo 50547" opacity="0.5" style="mix-blend-mode: multiply;isolation: isolate">
              <path id="Trazado_112190" data-name="Trazado 112190" d="M555.5,1023.408c-.983.412-1.921.769-2.661,1.028l2.207,5.1c.8-.349,1.809-.8,2.879-1.31Q556.77,1025.792,555.5,1023.408Z" fill="#ffbea7"/>
              <path id="Trazado_112191" data-name="Trazado 112191" d="M566.321,1015.263c.011-.991,0-1.9-.011-2.625a34.718,34.718,0,0,0-5.465-1.04c.034.665.075,1.549.109,2.494C562.759,1014.415,564.531,1014.865,566.321,1015.263Z" fill="#ffbea7"/>
            </g>
          </g>
          <g id="Grupo_50577" data-name="Grupo 50577">
            <g id="Grupo_50576" data-name="Grupo 50576">
              <g id="Grupo_50555" data-name="Grupo 50555">
                <path id="Trazado_112192" data-name="Trazado 112192" d="M521.4,1046.268a20.383,20.383,0,0,1-4.982-3.556c-2.723-2.988-5.424-5.988-7.967-9.129a85.835,85.835,0,0,0-7.818-8.874c-2.663-2.5-5.8-4.919-9.532-5.248a2.729,2.729,0,0,0,.187.777c.146.454.213.949.34,1.408a18.19,18.19,0,0,0,.743,2.482c.183.424.54.928,1.08.808.347-.074.683-.186,1.031-.268a5.461,5.461,0,0,1,1.393.754,18.466,18.466,0,0,1,3.025,2.756c1.233,1.211,2.394,2.507,3.6,3.7,2.394,2.345,4.784,4.732,6.939,7.294a53.26,53.26,0,0,1,3.213,4.366c.653.968,1.288,1.775,1.016,2.987-.284,1.309-3.291,4.894-1.308,6.127.8.5,1.315-1.1,1.489-1.535a19.628,19.628,0,0,0,.633-2.185,5.338,5.338,0,0,1,.332-.889c-.1.7-.228,1.382-.306,2.077-.1.9-.071,1.826-.078,2.734-.006.526-.094,1.554.317,1.979a.985.985,0,0,0,1.229.12,1.912,1.912,0,0,0,.5-1.18,13.7,13.7,0,0,0,.15-2.555c-.017-.46-.034-.915-.049-1.371.232.979.325,2.017.538,3.007.116.53.754,3.473,1.841,2.514.329-.288.247-1.106.2-1.465-.142-1.087-.187-2.192-.318-3.283-.071-.609-.164-1.221-.272-1.819.127.2.265.4.407.6a14.41,14.41,0,0,1,1.135,1.837,9.58,9.58,0,0,0,1.05,1.532c.315.388.639.9,1.176.945a.238.238,0,0,0,.214-.1c.485-1.031-.464-2.678-.863-3.6-.236-.523-.52-1.034-.8-1.546.354.228.713.437,1.03.657.421.292.669.605,1.2.621.333,0,.7-.225.662-.6C523.656,1047.919,522.256,1047.026,521.4,1046.268Z" fill="#ffbea7"/>
                <path id="Trazado_112193" data-name="Trazado 112193" d="M494.332,1020.283a10.722,10.722,0,0,0-3.231-.822,2.729,2.729,0,0,0,.187.777c.146.454.213.949.34,1.408a18.19,18.19,0,0,0,.743,2.482c.183.424.54.928,1.08.808.347-.074.683-.186,1.031-.268a5.461,5.461,0,0,1,1.393.754c.142.108.284.209.422.318A14.076,14.076,0,0,0,494.332,1020.283Z" fill="#ffbea7" style="mix-blend-mode: multiply;isolation: isolate"/>
                <path id="Trazado_112194" data-name="Trazado 112194" d="M479.325,1064.162a2.215,2.215,0,0,0-.867-.1,7.711,7.711,0,0,1-1.879-.449,6.835,6.835,0,0,0-1.572-.258c-.355-.026-1.307.124-1.569-.115-.086-.075-.243,0-.2.115a.807.807,0,0,0,.053.131.064.064,0,0,0,.007.026,6.677,6.677,0,0,1-.048,1.472c-.023.587-.023,1.169-.03,1.756q-.034,1.922-.041,3.847c0,1.124.041,2.259-.06,3.384a6.705,6.705,0,0,1-1.487,3.216c-.653.956-1.52,1.725-2.233,2.629-.744.945-1.67,1.74-2.473,2.644-1.4,1.569-2.924,3.022-4.284,4.625-.751.877-1.449,1.792-2.185,2.693-.295.358-.441.788-.773,1.135a6.946,6.946,0,0,0-.815,1.161,21.947,21.947,0,0,0-2.252,5.823,12.755,12.755,0,0,0-.426,6.242,4.842,4.842,0,0,0,.281.766,3.717,3.717,0,0,0,1.314,1.89c.968.6,1.775-.1,2.346-.886a9.272,9.272,0,0,0,1.326-3.664c.284-1.4.459-2.8.631-4.2a22.439,22.439,0,0,1,.762-4.3c.041-.135.094-.254.142-.381a12.564,12.564,0,0,0,1.027-.762,46.9,46.9,0,0,0,3.717-3.571c2.3-2.379,4.78-4.591,6.868-7.175a18.242,18.242,0,0,0,2.559-3.522,20.222,20.222,0,0,0,1.214-4.714c.157-.766.231-1.554.325-2.323.108-.878.284-1.733.321-2.615.034-.821.09-1.624.194-2.446a7.268,7.268,0,0,0,.131-1.584A.3.3,0,0,0,479.325,1064.162Z" fill="#ffbea7"/>
                <path id="Trazado_112195" data-name="Trazado 112195" d="M497.317,1101.55c-.471-2.364-.83-4.717-1.14-7.1-.3-2.222-.478-4.452-.821-6.663a40.016,40.016,0,0,1-.337-5.864c-.007-1.831-.041-3.687.075-5.513s.351-3.646.359-5.476a26.842,26.842,0,0,1,.082-2.749c.056-.486.03-.964.127-1.445a5.736,5.736,0,0,1,.153-1.181.108.108,0,0,0-.052-.127.363.363,0,0,0-.109-.216.208.208,0,0,0-.3,0c-.012,0-.013.018-.023.026-1.912-.034-3.787-.62-5.711-.489a.145.145,0,0,0-.108.235c-.1.766-.321,1.5-.392,2.267-.09.867-.079,1.752-.109,2.622a45.52,45.52,0,0,0,.045,5.237c.053.743.049,1.5.123,2.241.09.874-.041,1.752.019,2.622.12,1.83.262,3.668.545,5.483.258,1.647.6,3.3.915,4.934.344,1.767.583,3.56.856,5.349a45.073,45.073,0,0,0,1.072,4.963c.067.247.149.494.228.74a11.554,11.554,0,0,1-.389,1.976,26.36,26.36,0,0,1-1.225,3.1,14.671,14.671,0,0,0-.881,3.089c-.28,1.471-.751,3.705.321,5.009s2.842.063,3.4-1.121c.452-.971.926-1.931,1.408-2.884s.8-2.035,1.2-3.032A10.328,10.328,0,0,0,497.317,1101.55Z" fill="#ffbea7"/>
                <path id="Trazado_112196" data-name="Trazado 112196" d="M473.218,1066.74a.26.26,0,0,0,0,.056,16.517,16.517,0,0,0,3.212.709c.878.131,1.759.228,2.648.284.034-.519.075-1.038.142-1.561a7.268,7.268,0,0,0,.131-1.584.3.3,0,0,0-.022-.482,2.215,2.215,0,0,0-.867-.1,7.711,7.711,0,0,1-1.879-.449,6.835,6.835,0,0,0-1.572-.258c-.355-.026-1.307.124-1.569-.115-.086-.075-.243,0-.2.115a.807.807,0,0,0,.053.131.064.064,0,0,0,.007.026,6.677,6.677,0,0,1-.048,1.472C473.225,1065.571,473.225,1066.153,473.218,1066.74Z" fill="#ffbea7" style="mix-blend-mode: multiply;isolation: isolate"/>
                <path id="Trazado_112197" data-name="Trazado 112197" d="M459.312,1097.868c-.777-.482-.672-1.972-.657-2.723a21.887,21.887,0,0,1,.31-3.227c-.03.048-.064.1-.1.156a21.947,21.947,0,0,0-2.252,5.823,12.755,12.755,0,0,0-.426,6.242,4.842,4.842,0,0,0,.281.766,3.717,3.717,0,0,0,1.314,1.89c.968.6,1.775-.1,2.346-.886a9.272,9.272,0,0,0,1.326-3.664c.284-1.4.459-2.8.631-4.2.071-.613.138-1.248.232-1.872C461.62,1097.52,460.586,1098.671,459.312,1097.868Z" fill="#ffbea7" style="mix-blend-mode: multiply;isolation: isolate"/>
                <path id="Trazado_112198" data-name="Trazado 112198" d="M497.317,1101.55c-.094-.455-.172-.9-.254-1.344-.378,3.006-1.506,7.873-4.143,6.813a2.087,2.087,0,0,1-1.075-1.984c-.206.508-.426,1-.643,1.487a14.671,14.671,0,0,0-.881,3.089c-.28,1.471-.751,3.705.321,5.009s2.842.063,3.4-1.121c.452-.971.926-1.931,1.408-2.884s.8-2.035,1.2-3.032A10.328,10.328,0,0,0,497.317,1101.55Z" fill="#ffbea7" style="mix-blend-mode: multiply;isolation: isolate"/>
                <path id="Trazado_112199" data-name="Trazado 112199" d="M489.043,1068.667a43.118,43.118,0,0,0,6.432.258c.015-.247.03-.494.06-.74.056-.486.03-.964.127-1.445a5.736,5.736,0,0,1,.153-1.181.108.108,0,0,0-.052-.127.363.363,0,0,0-.109-.216.208.208,0,0,0-.3,0c-.012,0-.013.018-.023.026-1.912-.034-3.787-.62-5.711-.489a.145.145,0,0,0-.108.235c-.1.766-.321,1.5-.392,2.267C489.073,1067.718,489.051,1068.192,489.043,1068.667Z" fill="#ffbea7" style="mix-blend-mode: multiply;isolation: isolate"/>
                <path id="Trazado_112200" data-name="Trazado 112200" d="M461.516,1098.364c-.478.673-1.692,2.193-2.716,1.595-1.135-.665-.937-2.73-.84-3.791a17.006,17.006,0,0,1,1.035-4.295c-.041.071-.083.138-.128.2a21.947,21.947,0,0,0-2.252,5.823,12.755,12.755,0,0,0-.426,6.242,4.842,4.842,0,0,0,.281.766,3.717,3.717,0,0,0,1.314,1.89c.968.6,1.775-.1,2.346-.886a9.272,9.272,0,0,0,1.326-3.664c.284-1.4.459-2.8.631-4.2.026-.228.053-.464.082-.7C461.964,1097.692,461.747,1098.04,461.516,1098.364Z" fill="#ec2582"/>
                <path id="Trazado_112201" data-name="Trazado 112201" d="M497.335,1101.659c-.358,2.532-1.587,5.2-3.623,6.409-1.815,1.08-2.006-1.034-1.826-3.145-.217.542-.452,1.08-.684,1.6a14.671,14.671,0,0,0-.881,3.089c-.28,1.471-.751,3.705.321,5.009s2.842.063,3.4-1.121c.452-.971.926-1.931,1.408-2.884s.8-2.035,1.2-3.032A10.337,10.337,0,0,0,497.335,1101.659Z" fill="#ec2582"/>
                <path id="Trazado_112202" data-name="Trazado 112202" d="M485.047,1019.961l-5.368.852a92.572,92.572,0,0,1-18.813,38.733s9.636,9.177,36.529,7.616c0,0,5.763-24.159-5.166-48.807Z" fill="#f28ab8"/>
                <path id="Trazado_112203" data-name="Trazado 112203" d="M497.283,1066.28a1.329,1.329,0,0,1,.287.03c.893-4.486,4.382-26.022-5.341-47.955l-7.182,1.606-5.368.852a92.5,92.5,0,0,1-18.574,38.434,1.1,1.1,0,0,1,.579-.146,1.2,1.2,0,0,1,1.016.583,1.409,1.409,0,0,1,.168.65.675.675,0,0,1-.019.243,1.172,1.172,0,0,1,.859-.389h.052a1.185,1.185,0,0,1,1.173,1.177,1.157,1.157,0,0,1-.224.681.093.093,0,0,0,.038.025,1.062,1.062,0,0,1,1.049-.706,1.167,1.167,0,0,1,1.027,1.692.217.217,0,0,1,.053.026,1.077,1.077,0,0,1,1.086-.833,1.155,1.155,0,0,1,1.069,1.572,1.064,1.064,0,0,1,1.019-.638,1.14,1.14,0,0,1,1.1,1.46.051.051,0,0,0,.019,0,1.225,1.225,0,0,1,.773-.687,1.138,1.138,0,0,1,1.169.354c0-.007-.011-.014-.018-.026a1.351,1.351,0,0,1,.332.568,1.057,1.057,0,0,1,.045.444.06.06,0,0,0,.03,0,1.053,1.053,0,0,1,1.034-.687,1.108,1.108,0,0,1,1.136,1.192,1.071,1.071,0,0,1,1.068-.77,1.123,1.123,0,0,1,1.139,1.207.109.109,0,0,1,.041.007,1.086,1.086,0,0,1,1.106-.911,1.115,1.115,0,0,1,1.128,1.221,1.067,1.067,0,0,1,1.079-.792,1.1,1.1,0,0,1,1.124,1.1h.008a1.259,1.259,0,0,1,.138-.325,1.163,1.163,0,0,1,.7-.542,1.206,1.206,0,0,1,.907.12,1.054,1.054,0,0,1,.329.3,1.082,1.082,0,0,1,.288.482c.018.063.022.125.033.183a1.126,1.126,0,0,1,.325-.7,1.181,1.181,0,0,1,1.662,0l.038.038a1.179,1.179,0,0,1,.314.582,1.069,1.069,0,0,1,1.1-.892,1.13,1.13,0,0,0,2.244-.075,1.119,1.119,0,0,1,1.121,1.3h.034a1.1,1.1,0,0,1,1.131-1.106,1.079,1.079,0,0,1,1.1.885,1.18,1.18,0,0,1,1.105-.8h.038a1.181,1.181,0,0,1,1.139.908c.022,0,.048,0,.067,0A1.088,1.088,0,0,1,497.283,1066.28Z" fill="#f9cde0"/>
                <path id="Trazado_112204" data-name="Trazado 112204" d="M492.229,1018.355l-7.182,1.606-5.1.807a10.275,10.275,0,0,0-.792,3.455,8.839,8.839,0,0,0,.3,3.634,3.463,3.463,0,0,0,2.1,2.4c1.236.28,3.026-1.535,3.067-1.554.033-.037.063-.082.093-.119.123-.157,1.012,1.4,3.246,1.4,1.2,0,1.785-.807,2.6-.632,1.337.307,1.423,2.35,1.681,3.4a40.952,40.952,0,0,1,.766,14.238c-.493,4.3-1.622,8.681-4.154,12.248a16.008,16.008,0,0,1-8.743,6.469c-.744.22-1.495.392-2.242.542a84.775,84.775,0,0,0,19.52.915S503.158,1043,492.229,1018.355Z" fill="#f28ab8" opacity="0.3" style="mix-blend-mode: multiply;isolation: isolate"/>
                <path id="Trazado_112205" data-name="Trazado 112205" d="M490,1019.763a2.546,2.546,0,0,0-2.151-.018,23.981,23.981,0,0,1-3.089.9,12.363,12.363,0,0,1-1.569.119.3.3,0,0,0-.119.026,3.1,3.1,0,0,0-1.816.6,2.945,2.945,0,0,0-1.266,1.89,7.352,7.352,0,0,0,.617,5.263,1.692,1.692,0,0,0,1.437.934,2.315,2.315,0,0,0,1.816-1.371,5.859,5.859,0,0,0,.653-2.338,4.667,4.667,0,0,0,1.237,2.342,2.839,2.839,0,0,0,2.536.564c2.6-.669,2.558-4.042,2.573-6.144C490.862,1021.717,490.8,1020.264,490,1019.763Z" fill="#f28ab8"/>
                <path id="Trazado_112206" data-name="Trazado 112206" d="M484.479,1025.911c-.149.348-.362.658-.523.99-.295.62-.713,1.386-1.423,1.573-1.12.3-1.808-.46-2.118-1.394a3.285,3.285,0,0,1-.224-.593,6.8,6.8,0,0,1,.784-4.878,3.121,3.121,0,0,0-.982,1.68,7.352,7.352,0,0,0,.617,5.263,1.692,1.692,0,0,0,1.437.934,2.315,2.315,0,0,0,1.816-1.371,5.826,5.826,0,0,0,.635-2.166A.336.336,0,0,1,484.479,1025.911Z" fill="#f28ab8" style="mix-blend-mode: multiply;isolation: isolate"/>
                <path id="Trazado_112207" data-name="Trazado 112207" d="M490,1019.763a.043.043,0,0,0-.015,0,8.562,8.562,0,0,1,.079,6.174,3.136,3.136,0,0,1-3.145,1.983,3.458,3.458,0,0,1-2.275-1.759.09.09,0,0,0-.03-.034,4.269,4.269,0,0,0,1.136,1.995,2.839,2.839,0,0,0,2.536.564c2.6-.669,2.558-4.042,2.573-6.144C490.862,1021.717,490.8,1020.264,490,1019.763Z" fill="#f28ab8" style="mix-blend-mode: multiply;isolation: isolate"/>
                <g id="Grupo_50554" data-name="Grupo 50554">
                  <path id="Trazado_112208" data-name="Trazado 112208" d="M486.668,1021.306c-.023-.254.033-.7-.127-.915-.374-.5-.93-.411-1.494-.43a5.607,5.607,0,0,0-2.391.081.3.3,0,0,0-.145.259h0a.094.094,0,0,0-.03.09.944.944,0,0,1,.018.149h0a4.58,4.58,0,0,1-.277,1.057,7.474,7.474,0,0,0-.093,1.472,3.821,3.821,0,0,0,.635,2.334c.885,1.323,2.353.983,3.163-.2a5.892,5.892,0,0,0,.755-2.7A4.811,4.811,0,0,0,486.668,1021.306Z" fill="#f7cfa8"/>
                  <g id="Grupo_50553" data-name="Grupo 50553">
                    <path id="Trazado_112209" data-name="Trazado 112209" d="M514.632,1029.758a4.67,4.67,0,0,0-.444-2.106c-.553-1.083-2.4-1.42-2.794-.049a.431.431,0,0,0,.022.292,1.776,1.776,0,0,0,.03,1.785,6.093,6.093,0,0,0,1.42,1.277,4.6,4.6,0,0,0,1.169.923.37.37,0,0,0,.425-.172A4.251,4.251,0,0,0,514.632,1029.758Z" fill="#faac1b"/>
                    <path id="Trazado_112210" data-name="Trazado 112210" d="M517.056,1028.758c-1.143-.105-2.2,2-2.819,2.969-1.454-.239-2.9-.448-4.382-.557a.47.47,0,0,0-.444.583c.1.624.993,3.985,1.882,3.922,1.487-.112,2.391-1.7,3.455-2.936.37.067.732.138,1.094.22.688.154,3.015.8,2.925-.586C518.718,1031.626,518.057,1028.847,517.056,1028.758Z" fill="#ec2582"/>
                    <path id="Trazado_112211" data-name="Trazado 112211" d="M518.562,1031.279a1.435,1.435,0,0,1-.559.859,3.174,3.174,0,0,1-2.739.157c-1.058-.415-.31-1.584.164-2.148a4.914,4.914,0,0,1,1.55-1.389c-1.109-.006-2.136,2.028-2.741,2.969-1.454-.239-2.9-.448-4.382-.557a.414.414,0,0,0-.373.2,4.285,4.285,0,0,1,.747.041,16.524,16.524,0,0,1,2.454.366.938.938,0,0,1,.623,1.535c-.463.743-1.359,1.774-2.36,1.457a2.487,2.487,0,0,1-.714-.366c.314.721.691,1.3,1.061,1.27,1.487-.112,2.391-1.7,3.455-2.936.37.067.732.138,1.094.22.688.154,3.015.8,2.925-.586A6.534,6.534,0,0,0,518.562,1031.279Z" fill="#d1147d" opacity="0.5" style="mix-blend-mode: multiply;isolation: isolate"/>
                    <path id="Trazado_112212" data-name="Trazado 112212" d="M512.716,1023.786c-.721-.825-3.533-1.591-3.481.179-.967.927-.538,2.3.306,3.328.408.5,3.687,3.015,4.243,1.819C514.524,1027.521,513.807,1025.034,512.716,1023.786Z" fill="#f89b1c"/>
                    <path id="Trazado_112213" data-name="Trazado 112213" d="M509.063,1018.55a2.691,2.691,0,0,0-2.943.564,1.285,1.285,0,0,0-.224,1.187c-.96,2.04.041,3.694,2.084,4.755a8.688,8.688,0,0,0,3.414,1.24c.855,0,.822-1.389.882-1.909C512.559,1021.93,511.734,1019.22,509.063,1018.55Z" fill="#faac1b"/>
                    <path id="Trazado_112214" data-name="Trazado 112214" d="M444.178,1022.751a4.892,4.892,0,0,0,2.181-.377c1.15-.53,1.561-2.42.164-2.876a.407.407,0,0,0-.3.008,1.825,1.825,0,0,0-1.841-.038,6.27,6.27,0,0,0-1.371,1.416,4.69,4.69,0,0,0-1,1.165.4.4,0,0,0,.16.448A4.423,4.423,0,0,0,444.178,1022.751Z" fill="#faac1b"/>
                    <path id="Trazado_112215" data-name="Trazado 112215" d="M445.119,1025.284c.149-1.169-1.987-2.342-2.962-3.018.306-1.487.582-2.97.743-4.49a.477.477,0,0,0-.579-.482c-.65.083-4.142.871-4.108,1.79.059,1.538,1.658,2.525,2.894,3.667-.086.374-.172.751-.269,1.117-.183.7-.941,3.078.49,3.041C442.093,1026.89,444.981,1026.315,445.119,1025.284Z" fill="#ec2582"/>
                    <path id="Trazado_112216" data-name="Trazado 112216" d="M442.594,1023.005a5.08,5.08,0,0,1,2.4,1.663c-.451-.957-2.032-1.846-2.838-2.4.246-1.18.467-2.368.631-3.563a9.339,9.339,0,0,1-.381,1.669c-.142.452-.284,1.162-.736,1.431-1,.59-2.125-1.263-2.45-2.006a1.805,1.805,0,0,1-.131-1.55c-.519.247-.885.538-.877.837.059,1.538,1.658,2.525,2.894,3.667-.086.374-.172.751-.269,1.117-.183.7-.941,3.078.49,3.041a5.874,5.874,0,0,0,.78-.1C441.051,1025.626,441,1022.624,442.594,1023.005Z" fill="#d1147d" opacity="0.5" style="mix-blend-mode: multiply;isolation: isolate"/>
                    <path id="Trazado_112217" data-name="Trazado 112217" d="M450.4,1021c.878-.71,1.782-3.582-.048-3.59-.919-1.035-2.354-.642-3.444.19-.523.4-3.238,3.676-2.028,4.3C446.486,1022.722,449.078,1022.083,450.4,1021Z" fill="#f89b1c"/>
                    <path id="Trazado_112218" data-name="Trazado 112218" d="M455.939,1017.44c.318-1.087.433-2.248-.47-3.051a1.337,1.337,0,0,0-1.214-.284c-2.069-1.061-3.806-.09-4.983,1.972a8.969,8.969,0,0,0-1.408,3.472c-.034.879,1.408.9,1.939.973C452.32,1020.914,455.144,1020.161,455.939,1017.44Z" fill="#faac1b"/>
                    <path id="Trazado_112219" data-name="Trazado 112219" d="M513.527,1000.69c-1.782-12.684-11.295-25.992-21.5-24.987,0,0-3.1-4.722-14.933-1.782s-19.183,15.784-21.813,26.54-4.105,16.55-4.411,16.781a16.9,16.9,0,0,0,18.724,1.4s-9.132-6.114-5.263-20.735c0,0,16.012-3.866,24.984-14a24.707,24.707,0,0,1-8.508,10.441s7.2-.693,11.063-10.37c0,0,.855,5.961,4.949,9.752,0,0-1.7-6.342-.848-9.513,0,0,5.958,3.171,7.967,14.081,1.752,9.493-2.865,16.47-7.272,19.107,0,0,7.119,5.569,12.378,5.487A34.81,34.81,0,0,0,513.527,1000.69Z" fill="#0f2771"/>
                    <g id="Grupo_50549" data-name="Grupo 50549">
                      <path id="Trazado_112220" data-name="Trazado 112220" d="M490.269,981.738c-5.26,7.422-15.471,10.207-24.443,14.231s-2.891,15.63-10.163,20.037c-2.346,1.419-3.395.19-3.746-2.129a17.655,17.655,0,0,1-1.05,3.365,16.9,16.9,0,0,0,18.724,1.4s-9.132-6.114-5.263-20.735c0,0,16.012-3.866,24.984-14a22.916,22.916,0,0,1-4.8,7.2C490.108,986.344,490.269,981.738,490.269,981.738Z" fill="#faac1b" opacity="0.5" style="mix-blend-mode: multiply;isolation: isolate"/>
                      <path id="Trazado_112221" data-name="Trazado 112221" d="M506.568,1015.771c-.138-6.051,3.4-7.579-1.393-21.425-3.2-9.246-9.9-12.044-9.9-12.044a15.375,15.375,0,0,0,1.142,9.682c-.44-2.107-1.012-5.644-.444-7.769,0,0,5.958,3.171,7.967,14.081,1.752,9.493-2.865,16.47-7.272,19.107,0,0,7.119,5.569,12.378,5.487a28.736,28.736,0,0,0,2.5-5.211C508.82,1021.392,506.658,1019.991,506.568,1015.771Z" fill="#faac1b" opacity="0.5" style="mix-blend-mode: multiply;isolation: isolate"/>
                      <path id="Trazado_112222" data-name="Trazado 112222" d="M480.8,994.346s7.2-.693,11.063-10.37c0,0,.855,5.961,4.949,9.752-4.176-4-4.792-13.689-4.792-13.689C489.6,992,480.8,994.346,480.8,994.346Z" fill="#faac1b" opacity="0.5" style="mix-blend-mode: multiply;isolation: isolate"/>
                    </g>
                    <g id="Grupo_50552" data-name="Grupo 50552">
                      <g id="Grupo_50550" data-name="Grupo 50550">
                        <path id="Trazado_112223" data-name="Trazado 112223" d="M506.811,998.049a2.9,2.9,0,0,0-3.97,1.069,5.1,5.1,0,0,0-1.106,1.811,7.13,7.13,0,0,0-.426,1.459.445.445,0,0,0-.13.4c.014.161.048.31.074.467a2.016,2.016,0,0,0,.284.994,4.37,4.37,0,0,0,3.392,3.006c2.144.348,3.619-1.927,4.093-3.679A5.541,5.541,0,0,0,506.811,998.049Z" fill="#f7cfa8"/>
                        <path id="Trazado_112224" data-name="Trazado 112224" d="M465.751,1007.9a.5.5,0,0,0-.343-.179c-.329-1.175-2.32-1.909-3.332-1.692-2.193.467-2.891,3.29-2.039,5.136.706,1.5,3.477,3.865,5.251,2.842C467.212,1012.9,466.876,1009.391,465.751,1007.9Z" fill="#f7cfa8"/>
                        <path id="Trazado_112225" data-name="Trazado 112225" d="M507.468,1001.486a2.035,2.035,0,0,0-2.928-1.259,3.252,3.252,0,0,0-1.709,3.367.163.163,0,0,0,.308.008,6.32,6.32,0,0,1,1.177-2.389,1.655,1.655,0,0,1,1.561-.486,2.812,2.812,0,0,1,1.259.946A.2.2,0,0,0,507.468,1001.486Z" fill="#d3a072"/>
                        <path id="Trazado_112226" data-name="Trazado 112226" d="M463.238,1007.688a2.126,2.126,0,0,0-1.816.807,2.737,2.737,0,0,0-.269,2.1.136.136,0,0,0,.262,0c.187-1.338.74-2.26,2.26-2a3.252,3.252,0,0,1,1.565.89c.366.35.481.878.836,1.239a.3.3,0,0,0,.512-.21C466.539,1008.81,464.788,1007.77,463.238,1007.688Z" fill="#d3a072"/>
                      </g>
                      <path id="Trazado_112227" data-name="Trazado 112227" d="M503.935,998.3c-2.009-10.91-7.967-14.081-7.967-14.081-.855,3.171.848,9.513.848,9.513-4.094-3.791-4.949-9.752-4.949-9.752-3.866,9.677-11.063,10.37-11.063,10.37a24.707,24.707,0,0,0,8.508-10.441c-8.972,10.133-24.984,14-24.984,14-3.869,14.621,5.263,20.735,5.263,20.735s11.758,7.814,27.072-1.236C501.07,1014.766,505.687,1007.789,503.935,998.3Z" fill="#ffbea7"/>
                      <g id="Grupo_50551" data-name="Grupo 50551">
                        <path id="Trazado_112228" data-name="Trazado 112228" d="M473.862,1004.684a1.545,1.545,0,0,0,1.636,1.4,1.475,1.475,0,0,0,1.442-1.509l0-.047a1.545,1.545,0,0,0-1.636-1.4,1.481,1.481,0,0,0-1.441,1.521Z" fill="#263238"/>
                        <path id="Trazado_112229" data-name="Trazado 112229" d="M471.727,1003.481c.206.181,1.287-.809,2.947-.976s2.958.535,3.118.309c.079-.1-.155-.441-.724-.771a4.27,4.27,0,0,0-2.522-.5,4.083,4.083,0,0,0-2.32,1.03C471.754,1003.02,471.622,1003.4,471.727,1003.481Z" fill="#263238"/>
                        <path id="Trazado_112230" data-name="Trazado 112230" d="M489.58,1003.321a1.547,1.547,0,0,0,1.637,1.4,1.476,1.476,0,0,0,1.441-1.51v-.047a1.548,1.548,0,0,0-1.637-1.4,1.481,1.481,0,0,0-1.441,1.521Z" fill="#263238"/>
                        <path id="Trazado_112231" data-name="Trazado 112231" d="M488.057,1002.082c.213.182,1.293-.8,2.948-.976s2.958.536,3.118.309c.079-.1-.15-.44-.724-.771a4.226,4.226,0,0,0-2.523-.492,4.075,4.075,0,0,0-2.319,1.024C488.091,1001.622,487.953,1001.991,488.057,1002.082Z" fill="#263238"/>
                        <path id="Trazado_112232" data-name="Trazado 112232" d="M487.311,1017.431c-.21-.17-1.263,1.3-3.273,1.442s-3.479-1.122-3.615-.944c-.085.08.143.532.79,1.028a4.531,4.531,0,0,0,2.966.869,3.95,3.95,0,0,0,2.649-1.276C487.322,1017.976,487.417,1017.492,487.311,1017.431Z" fill="#263238"/>
                        <path id="Trazado_112233" data-name="Trazado 112233" d="M486.251,997.347c.293.751,2.382.158,4.928.3s4.666.835,4.922.108c.118-.348-.315-1.035-1.207-1.7a6.966,6.966,0,0,0-3.776-1.3,6.309,6.309,0,0,0-3.728.985C486.519,996.339,486.1,996.988,486.251,997.347Z" fill="#263238"/>
                        <path id="Trazado_112234" data-name="Trazado 112234" d="M471.139,999.7c.415.621,1.686-.2,3.3-.4s3.023.12,3.266-.591c.106-.342-.18-.976-.841-1.525a3.566,3.566,0,0,0-2.79-.785,3.789,3.789,0,0,0-2.479,1.585C471.072,998.7,470.954,999.4,471.139,999.7Z" fill="#263238"/>
                        <path id="Trazado_112235" data-name="Trazado 112235" d="M483.288,1014.344a8.226,8.226,0,0,0-1.615-.01c-.244-.021-.535.024-.8.019a.829.829,0,0,1-.656-.408.792.792,0,0,1-.111-.408,1.588,1.588,0,0,1,.093-.472c.094-.349.189-.7.285-1.071.384-1.466.715-2.8.945-3.76a8.815,8.815,0,0,0,.306-1.584,8.268,8.268,0,0,0-.512,1.531c-.281.948-.648,2.287-1.036,3.735-.091.367-.186.722-.274,1.072l-.069.257a1.286,1.286,0,0,0-.026.3,1.1,1.1,0,0,0,.164.547,1.075,1.075,0,0,0,.881.515c.317-.008.589-.037.825-.058A8.765,8.765,0,0,0,483.288,1014.344Z" fill="#263238"/>
                        <path id="Trazado_112236" data-name="Trazado 112236" d="M494.537,1009.392c.06.046.157.013.222-.063s.08-.181.02-.227a.2.2,0,0,0-.242.29Z" fill="#8c5249"/>
                        <path id="Trazado_112237" data-name="Trazado 112237" d="M491.9,1009.786c.07.006.1-.173.072-.363s-.112-.332-.183-.32-.1.172-.072.363S491.832,1009.8,491.9,1009.786Z" fill="#8c5249"/>
                        <path id="Trazado_112238" data-name="Trazado 112238" d="M489.359,1009.473c.064.006.1-.12.079-.239s-.1-.2-.171-.185-.105.126-.08.239S489.287,1009.49,489.359,1009.473Z" fill="#8c5249"/>
                        <path id="Trazado_112239" data-name="Trazado 112239" d="M493.147,1012.206c.061.035.174-.049.25-.189s.083-.286.027-.314-.174.049-.25.189S493.08,1012.171,493.147,1012.206Z" fill="#8c5249"/>
                        <path id="Trazado_112240" data-name="Trazado 112240" d="M490.9,1011.755c.066-.024.088-.139.022-.256s-.13-.187-.2-.164-.087.133-.05.248S490.829,1011.778,490.9,1011.755Z" fill="#8c5249"/>
                        <path id="Trazado_112241" data-name="Trazado 112241" d="M476,1011.221c.075.007.15-.11.232-.243s.139-.263.1-.32-.215-.018-.32.189S475.927,1011.215,476,1011.221Z" fill="#8c5249"/>
                        <path id="Trazado_112242" data-name="Trazado 112242" d="M474.246,1011.352c.062-.036.017-.2-.044-.367s-.216-.282-.278-.247-.046.2.045.367S474.177,1011.41,474.246,1011.352Z" fill="#8c5249"/>
                        <path id="Trazado_112243" data-name="Trazado 112243" d="M472.517,1011.847c.061-.03.056-.171-.014-.317s-.185-.227-.246-.2-.056.176.013.317S472.45,1011.876,472.517,1011.847Z" fill="#8c5249"/>
                        <path id="Trazado_112244" data-name="Trazado 112244" d="M475.756,1014.082c.062.034.167-.027.228-.133s.067-.228.023-.261-.16.021-.228.132S475.7,1014.041,475.756,1014.082Z" fill="#8c5249"/>
                        <path id="Trazado_112245" data-name="Trazado 112245" d="M473.969,1013.758c.064.006.1-.114.083-.215s-.1-.167-.168-.155-.11.113-.083.215S473.9,1013.775,473.969,1013.758Z" fill="#8c5249"/>
                        <path id="Trazado_112246" data-name="Trazado 112246" d="M483.3,1011.446c.064.005.1-.161.075-.333s-.108-.308-.179-.3-.108.161-.076.333S483.226,1011.457,483.3,1011.446Z" fill="#8c5249"/>
                        <path id="Trazado_112247" data-name="Trazado 112247" d="M478.912,1010.758a.117.117,0,0,0,.142-.085v0a.117.117,0,0,0-.1-.132h-.005a.13.13,0,0,0-.149.087A.124.124,0,0,0,478.912,1010.758Z" fill="#8c5249"/>
                        <path id="Trazado_112248" data-name="Trazado 112248" d="M483.98,1008.758c.07.006.141-.076.158-.2s-.022-.225-.091-.236-.142.075-.164.2S483.911,1008.746,483.98,1008.758Z" fill="#8c5249"/>
                        <path id="Trazado_112249" data-name="Trazado 112249" d="M487.211,1010.676c.07.006.106-.131.082-.262s-.11-.226-.176-.209-.105.132-.081.263S487.139,1010.705,487.211,1010.676Z" fill="#8c5249"/>
                      </g>
                    </g>
                  </g>
                </g>
                <path id="Trazado_112250" data-name="Trazado 112250" d="M463.155,1058.5a.485.485,0,0,0-.478.493.5.5,0,0,0,.5.475.49.49,0,0,0,.478-.493A.483.483,0,0,0,463.155,1058.5Z" fill="#f28ab8"/>
                <path id="Trazado_112251" data-name="Trazado 112251" d="M465.311,1059.546a.467.467,0,0,0,.011.933A.467.467,0,0,0,465.311,1059.546Z" fill="#f28ab8"/>
                <path id="Trazado_112252" data-name="Trazado 112252" d="M467.346,1060.651a.477.477,0,0,0,.015.953A.477.477,0,0,0,467.346,1060.651Z" fill="#f28ab8"/>
                <path id="Trazado_112253" data-name="Trazado 112253" d="M469.453,1061.454a.445.445,0,0,0,.015.889A.445.445,0,0,0,469.453,1061.454Z" fill="#f28ab8"/>
                <path id="Trazado_112254" data-name="Trazado 112254" d="M471.641,1062.373a.4.4,0,0,0,.012.8A.4.4,0,0,0,471.641,1062.373Z" fill="#f28ab8"/>
                <path id="Trazado_112255" data-name="Trazado 112255" d="M473.785,1063.057a.446.446,0,0,0,.012.892A.446.446,0,0,0,473.785,1063.057Z" fill="#f28ab8"/>
                <path id="Trazado_112256" data-name="Trazado 112256" d="M475.881,1063.594a.443.443,0,0,0,.015.886A.443.443,0,0,0,475.881,1063.594Z" fill="#f28ab8"/>
                <path id="Trazado_112257" data-name="Trazado 112257" d="M478.1,1063.923a.454.454,0,0,0,.008.908A.454.454,0,0,0,478.1,1063.923Z" fill="#f28ab8"/>
                <path id="Trazado_112258" data-name="Trazado 112258" d="M480.348,1064.293a.422.422,0,0,0,.011.844A.422.422,0,0,0,480.348,1064.293Z" fill="#f28ab8"/>
                <path id="Trazado_112259" data-name="Trazado 112259" d="M482.6,1064.543a.428.428,0,0,0,.011.856A.428.428,0,0,0,482.6,1064.543Z" fill="#f28ab8"/>
                <path id="Trazado_112260" data-name="Trazado 112260" d="M484.811,1064.82a.411.411,0,0,0,.012.821A.411.411,0,0,0,484.811,1064.82Z" fill="#f28ab8"/>
                <path id="Trazado_112261" data-name="Trazado 112261" d="M487.176,1065.137h-.038a.391.391,0,0,0,.012.781h.041C487.7,1065.925,487.68,1065.1,487.176,1065.137Z" fill="#f28ab8"/>
                <path id="Trazado_112262" data-name="Trazado 112262" d="M489.667,1065.147l.026.02a.439.439,0,0,0-.62.006.434.434,0,0,0,.1.689.671.671,0,0,0,.407.052.4.4,0,0,0,.288-.3A.444.444,0,0,0,489.667,1065.147Z" fill="#f28ab8"/>
                <path id="Trazado_112263" data-name="Trazado 112263" d="M491.923,1065.066a.408.408,0,1,0,.015.788c.176-.067.34-.183.336-.4S492.1,1065.13,491.923,1065.066Z" fill="#f28ab8"/>
                <path id="Trazado_112264" data-name="Trazado 112264" d="M494.216,1065.048a.439.439,0,1,0,.445.433A.445.445,0,0,0,494.216,1065.048Z" fill="#f28ab8"/>
                <path id="Trazado_112265" data-name="Trazado 112265" d="M496.652,1064.939a.417.417,0,0,0,.011.833A.417.417,0,0,0,496.652,1064.939Z" fill="#f28ab8"/>
              </g>
              <g id="Grupo_50575" data-name="Grupo 50575">
                <path id="Trazado_112266" data-name="Trazado 112266" d="M456.133,982.54s8.169-16.183,1.155-17.4-5.6,16.662-5.6,16.662Z" fill="#7cc5ff"/>
                <path id="Trazado_112267" data-name="Trazado 112267" d="M457.2,980.222c-.605,1.4-1.065,2.318-1.065,2.318l-4.44-.738s-.079-.952-.109-2.394A13,13,0,0,1,457.2,980.222Z" fill="#f289b4" style="mix-blend-mode: multiply;isolation: isolate"/>
                <path id="Trazado_112268" data-name="Trazado 112268" d="M456.324,980.935s5.4-10.689.758-11.5-3.694,11.015-3.694,11.015Z" fill="#36c" style="mix-blend-mode: multiply;isolation: isolate"/>
                <path id="Trazado_112269" data-name="Trazado 112269" d="M456.033,965.8a3.236,3.236,0,0,1,.9.039,2.737,2.737,0,0,1,1.658.844,3.622,3.622,0,0,1,.314.405,2.864,2.864,0,0,1,.239.45c.131.295.026.594.1.852a1.582,1.582,0,0,1,.008.889v-.26c0-.155.231-.39.183-.666a3.412,3.412,0,0,0-.123-.929,2.684,2.684,0,0,0-.187-.5,3.63,3.63,0,0,0-.3-.473,2.72,2.72,0,0,0-.926-.633,2.605,2.605,0,0,0-.949-.17A2.36,2.36,0,0,0,456.033,965.8Z" fill="#f27671" style="mix-blend-mode: screen;isolation: isolate"/>
                <g id="Grupo_50574" data-name="Grupo 50574">
                  <g id="Grupo_50570" data-name="Grupo 50570">
                    <path id="Trazado_112270" data-name="Trazado 112270" d="M469.027,1012.256s1.483.571,1.7.964c0,0-2.357,3.944-20.02,7.94C450.7,1021.16,464.661,1011.023,469.027,1012.256Z" fill="#cb2e76" style="mix-blend-mode: multiply;isolation: isolate"/>
                    <g id="Grupo_50569" data-name="Grupo 50569">
                      <path id="Trazado_112271" data-name="Trazado 112271" d="M442.082,986.172s-15-10.174-9.453-14.645,12.979,11.847,12.979,11.847Z" fill="#7cc5ff"/>
                      <path id="Trazado_112272" data-name="Trazado 112272" d="M440.028,984.67c1.21.927,2.054,1.5,2.054,1.5l3.526-2.8s-.4-.864-1.072-2.14A13.047,13.047,0,0,0,440.028,984.67Z" fill="#f289b4" style="mix-blend-mode: multiply;isolation: isolate"/>
                      <path id="Trazado_112273" data-name="Trazado 112273" d="M441.137,984.865s-9.9-6.727-6.245-9.674,8.576,7.832,8.576,7.832Z" fill="#36c" style="mix-blend-mode: multiply;isolation: isolate"/>
                      <path id="Trazado_112274" data-name="Trazado 112274" d="M434.668,1000.151c-.635-3.114,2.981-4.365,6.279-2.613a20.547,20.547,0,0,0,6.7,1.921c6.062-3.445,10.824-3.109,10.824-3.109l.478-.411a21.5,21.5,0,0,0,4.706-6.241c1.517-3.41,5.128-4.654,6.555-1.819s.165,8.086-7.518,12.027l.026.037c3.731,3.8,8.008,13.277,8.008,13.277-2.925-1.42-7.9,1.445-12.177,4.657s-7.843,3.283-7.843,3.283c-1.479-5.961-2.705-16.184-2.705-16.184C439.527,1006.62,435.292,1003.273,434.668,1000.151Z" fill="#7cc5ff"/>
                      <path id="Trazado_112275" data-name="Trazado 112275" d="M447.864,1001.43s-.037,1.645.134,3.546A11.293,11.293,0,0,1,447.864,1001.43Z" fill="#68462b"/>
                      <path id="Trazado_112276" data-name="Trazado 112276" d="M460.16,997.437s1.255,1.072,2.555,2.461A11.236,11.236,0,0,0,460.16,997.437Z" fill="#68462b"/>
                      <g id="Grupo_50556" data-name="Grupo 50556" style="mix-blend-mode: multiply;isolation: isolate">
                        <path id="Trazado_112277" data-name="Trazado 112277" d="M440.947,997.538a20.547,20.547,0,0,0,6.7,1.921c6.062-3.445,10.824-3.109,10.824-3.109l.478-.411a21.5,21.5,0,0,0,4.706-6.241,5.978,5.978,0,0,1,2.876-3.089,9.511,9.511,0,0,0-2.928,4.486c-1.591,4.587-3.8,6.549-9.259,8.146s-8.726,1.333-10.776.691c-1.782-.557-5.808-3.391-7.922-2.54A5.225,5.225,0,0,1,440.947,997.538Z" fill="#7cc5ff" style="mix-blend-mode: multiply;isolation: isolate"/>
                      </g>
                      <path id="Trazado_112278" data-name="Trazado 112278" d="M439.7,993.765c1.767,5.106,8.045,7.579,14.025,5.51s9.4-7.88,7.635-12.987-8.046-7.581-14.026-5.517S437.94,988.648,439.7,993.765Z" fill="#7cc5ff"/>
                      <g id="Grupo_50557" data-name="Grupo 50557">
                        <path id="Trazado_112279" data-name="Trazado 112279" d="M444.816,987.513c.217.95.721,1.636,1.136,1.546s.579-.934.366-1.882-.725-1.636-1.14-1.539S444.607,986.572,444.816,987.513Z" fill="#0f2771"/>
                        <path id="Trazado_112280" data-name="Trazado 112280" d="M445.515,986.609c.085.28.257.467.381.437s.149-.3.063-.583-.257-.474-.381-.429S445.425,986.325,445.515,986.609Z" fill="#fff"/>
                      </g>
                      <g id="Grupo_50558" data-name="Grupo 50558">
                        <path id="Trazado_112281" data-name="Trazado 112281" d="M452.051,985.253c.471.837,1.15,1.363,1.524,1.162s.295-1.061-.176-1.911-1.15-1.369-1.516-1.169S451.584,984.4,452.051,985.253Z" fill="#0f2771"/>
                        <path id="Trazado_112282" data-name="Trazado 112282" d="M452.469,984.185c.161.239.381.377.49.31s.059-.329-.1-.572-.384-.384-.492-.313S452.3,983.938,452.469,984.185Z" fill="#fff"/>
                      </g>
                      <g id="Grupo_50561" data-name="Grupo 50561">
                        <g id="Grupo_50559" data-name="Grupo 50559">
                          <path id="Trazado_112283" data-name="Trazado 112283" d="M454.094,991.379s.168,1.225-.84,1.554c-.96.311-1.427-.482-1.838-1.409,0,0,.758,1.573,1.673,1.345A1.306,1.306,0,0,0,454.094,991.379Z" fill="#f289b4" style="mix-blend-mode: multiply;isolation: isolate"/>
                          <path id="Trazado_112284" data-name="Trazado 112284" d="M449.239,993.06s.623,1.068,1.617.7c.949-.351.829-1.255.579-2.243,0,0,.373,1.709-.489,2.094A1.3,1.3,0,0,1,449.239,993.06Z" fill="#f289b4" style="mix-blend-mode: multiply;isolation: isolate"/>
                        </g>
                        <g id="Grupo_50560" data-name="Grupo 50560">
                          <path id="Trazado_112285" data-name="Trazado 112285" d="M448.824,991.379c.209.6,1.348.765,2.54.353s1.994-1.239,1.789-1.851-1.356-.762-2.547-.351S448.615,990.766,448.824,991.379Z" fill="#f289b4"/>
                          <path id="Trazado_112286" data-name="Trazado 112286" d="M448.929,990.714a1.226,1.226,0,0,0,.4.153,3.817,3.817,0,0,0,2.118-.235c.388-.142,1.221-.389,1.318-.882a.458.458,0,0,0-.037-.291.785.785,0,0,1,.426.422c.2.612-.59,1.442-1.789,1.851s-2.331.252-2.54-.353A.8.8,0,0,1,448.929,990.714Z" fill="#f289b4" style="mix-blend-mode: multiply;isolation: isolate"/>
                          <path id="Trazado_112287" data-name="Trazado 112287" d="M451.678,989.459a2.6,2.6,0,0,1,.877.074,3.912,3.912,0,0,0-.87.045A.716.716,0,0,0,451.678,989.459Z" fill="#fff"/>
                          <path id="Trazado_112288" data-name="Trazado 112288" d="M451.487,989.477c.008.045.011.09.015.131a7.94,7.94,0,0,0-2.2.822A4.415,4.415,0,0,1,451.487,989.477Z" fill="#fff"/>
                        </g>
                      </g>
                      <g id="Grupo_50562" data-name="Grupo 50562" style="mix-blend-mode: multiply;isolation: isolate">
                        <path id="Trazado_112289" data-name="Trazado 112289" d="M460.746,997.883a10.458,10.458,0,0,0,7.373-4.469c2.492-3.559,1.132-6.193.632-6.936a2.729,2.729,0,0,1,1.456,1.4c1.434,2.842.165,8.086-7.518,12.027l.026.037c3.731,3.8,8.008,13.277,8.008,13.277a4.761,4.761,0,0,0-2.921-.266C467.645,1007.882,460.746,997.883,460.746,997.883Z" fill="#7cc5ff"/>
                        <path id="Trazado_112290" data-name="Trazado 112290" d="M434.806,998.423c.045.433.456,2.678,4.213,3.8,4.184,1.251,8.879-.469,8.879-.469s2.4,16.809,6.88,18.326a12.063,12.063,0,0,1-4.075,1.079c-1.479-5.961-2.705-16.184-2.705-16.184-8.471,1.644-12.706-1.7-13.33-4.825A2.805,2.805,0,0,1,434.806,998.423Z" fill="#7cc5ff"/>
                      </g>
                      <path id="Trazado_112291" data-name="Trazado 112291" d="M451.177,980.33s7.239-.478,9.838,5.786a10.055,10.055,0,0,1-.373,7S464.9,981.753,451.177,980.33Z" fill="#f27671" style="mix-blend-mode: screen;isolation: isolate"/>
                      <g id="Grupo_50563" data-name="Grupo 50563" style="mix-blend-mode: multiply;isolation: isolate">
                        <path id="Trazado_112292" data-name="Trazado 112292" d="M456.63,1001.882c5.995-.191,10.1,10.075,10.533,11.192-2.7.62-5.931,2.648-8.848,4.833a17.914,17.914,0,0,1-4.281,2.413C450.15,1009.921,450.523,1002.078,456.63,1001.882Z" fill="#f289b4"/>
                      </g>
                      <g id="Grupo_50564" data-name="Grupo 50564">
                        <path id="Trazado_112293" data-name="Trazado 112293" d="M456.858,1001.852c6-.191,10.1,10.075,10.526,11.192-2.69.62-5.924,2.644-8.838,4.833a18.594,18.594,0,0,1-4.28,2.417C450.378,1009.892,450.755,1002.048,456.858,1001.852Z" fill="#fad7e6"/>
                      </g>
                      <g id="Grupo_50565" data-name="Grupo 50565">
                        <path id="Trazado_112294" data-name="Trazado 112294" d="M466.965,1012.824l0-.008a.09.09,0,0,0,.052-.114s-.052-.121-.145-.342a.091.091,0,1,0-.165.075c.09.209.135.329.135.329A.094.094,0,0,0,466.965,1012.824Z" fill="#925c3a"/>
                        <path id="Trazado_112295" data-name="Trazado 112295" d="M454.113,1018.96c-.09-.22-.176-.448-.251-.672a.088.088,0,0,1,.056-.116h0a.09.09,0,0,1,.116.053c.079.218.161.448.247.676a.1.1,0,0,1-.053.119h0A.1.1,0,0,1,454.113,1018.96Zm-.37-1.3a.1.1,0,0,1-.116-.057c-.067-.227-.145-.455-.213-.69a.1.1,0,0,1,.068-.113.1.1,0,0,1,.108.064q.1.342.213.683a.089.089,0,0,1-.056.113Zm12.677-5.876c-.09-.194-.2-.414-.31-.65a.1.1,0,0,1,.045-.127.092.092,0,0,1,.119.045c.12.239.221.456.31.658a.077.077,0,0,1-.045.112c0,.007,0,.007,0,.007A.1.1,0,0,1,466.42,1011.785Zm-13.088,4.5a.091.091,0,0,1-.116-.059c-.059-.228-.123-.464-.179-.7a.085.085,0,0,1,.067-.1.084.084,0,0,1,.109.064c.059.228.119.459.183.7a.087.087,0,0,1-.056.1Zm12.46-5.791q-.156-.3-.336-.633a.1.1,0,0,1,.038-.12.085.085,0,0,1,.123.034c.116.221.235.433.332.637a.092.092,0,0,1-.033.129H465.9A.086.086,0,0,1,465.792,1010.491Zm-12.815,4.4a.1.1,0,0,1-.108-.067c-.045-.236-.1-.475-.142-.71a.085.085,0,0,1,.067-.1.091.091,0,0,1,.109.071c.044.232.1.46.149.7a.093.093,0,0,1-.06.1C452.985,1014.889,452.985,1014.893,452.977,1014.893Zm12.132-5.659c-.112-.2-.235-.411-.362-.62a.091.091,0,0,1,.037-.123.087.087,0,0,1,.123.03c.127.209.247.418.363.62a.09.09,0,0,1-.038.125.011.011,0,0,1-.011.006A.1.1,0,0,1,465.109,1009.234Zm-12.416,4.251a.092.092,0,0,1-.1-.075c-.041-.239-.079-.474-.116-.708a.085.085,0,0,1,.075-.1.087.087,0,0,1,.1.075c.034.23.075.469.116.7a.1.1,0,0,1-.06.1Zm11.68-5.476c-.131-.209-.254-.4-.392-.6a.094.094,0,0,1,.03-.131.1.1,0,0,1,.123.026c.134.2.269.4.392.605a.094.094,0,0,1-.022.127.047.047,0,0,1-.023,0A.088.088,0,0,1,464.373,1008.009Zm-11.9,4.056a.1.1,0,0,1-.1-.078c-.03-.245-.06-.478-.09-.713a.1.1,0,0,1,.086-.1.091.091,0,0,1,.1.082c.03.228.06.467.086.708a.1.1,0,0,1-.056.1Zm11.1-5.251c-.138-.187-.277-.385-.43-.568a.094.094,0,0,1,.019-.131.091.091,0,0,1,.127.019c.146.183.287.377.433.579a.1.1,0,0,1-.019.127c-.011,0-.018.007-.029.013A.084.084,0,0,1,463.574,1006.814Zm-11.262,3.825a.093.093,0,0,1-.1-.086c-.023-.243-.038-.486-.053-.717a.1.1,0,0,1,.086-.1.092.092,0,0,1,.094.09c.018.228.033.467.056.714a.107.107,0,0,1-.056.1Zm10.384-4.955c-.153-.183-.314-.364-.463-.536a.093.093,0,0,1,0-.135.1.1,0,0,1,.128.015c.156.169.317.352.474.542a.093.093,0,0,1-.011.127c-.011.011-.019.011-.03.019A.094.094,0,0,1,462.7,1005.684Zm-10.477,3.524a.1.1,0,0,1-.1-.093c-.007-.247-.011-.486-.015-.721a.1.1,0,0,1,.09-.088.084.084,0,0,1,.089.088c.008.228.008.467.023.713a.106.106,0,0,1-.064.1C452.234,1009.2,452.23,1009.208,452.219,1009.208Zm9.521-4.579c-.18-.168-.351-.329-.527-.486a.093.093,0,0,1-.011-.127.087.087,0,0,1,.131,0c.179.149.351.321.534.489a.094.094,0,0,1-.041.153A.088.088,0,0,1,461.74,1004.629Zm-9.536,3.141a.086.086,0,0,1-.086-.09c.008-.257.019-.5.034-.724a.09.09,0,0,1,.1-.082.087.087,0,0,1,.086.093c-.019.22-.03.46-.041.713a.086.086,0,0,1-.06.083A.055.055,0,0,1,452.2,1007.77Zm8.464-4.075c-.194-.153-.392-.284-.583-.411a.081.081,0,0,1-.03-.119.1.1,0,0,1,.127-.034c.194.127.393.269.594.418a.092.092,0,0,1,.015.127.052.052,0,0,1-.041.03A.086.086,0,0,1,460.668,1003.7Zm-8.356,2.648a.1.1,0,0,1-.074-.11,3.454,3.454,0,0,1,.119-.543c.015-.056.038-.112.053-.168a.084.084,0,0,1,.115-.053.086.086,0,0,1,.056.116c-.018.049-.037.1-.052.157a2.86,2.86,0,0,0-.112.519.1.1,0,0,1-.06.075A.108.108,0,0,1,452.312,1006.343Zm7.161-3.414a7,7,0,0,0-.654-.287.1.1,0,0,1-.049-.124.1.1,0,0,1,.124-.048,6.8,6.8,0,0,1,.657.3.091.091,0,0,1,.045.119.2.2,0,0,1-.056.045A.059.059,0,0,1,459.473,1002.929Zm-6.727,2.047a.1.1,0,0,1-.038-.127c.116-.205.243-.414.385-.618a.093.093,0,0,1,.127-.019.088.088,0,0,1,.019.129,4.776,4.776,0,0,0-.37.6.108.108,0,0,1-.045.045A.133.133,0,0,1,452.746,1004.976Zm5.4-2.558a4.886,4.886,0,0,0-.691-.123.094.094,0,0,1,.019-.187,4.933,4.933,0,0,1,.717.14.087.087,0,0,1,.067.11.075.075,0,0,1-.056.06C458.184,1002.418,458.169,1002.425,458.15,1002.418Zm-4.59,1.37a.081.081,0,0,1-.007-.123,5.365,5.365,0,0,1,.523-.5.091.091,0,0,1,.134.007.109.109,0,0,1-.011.131,4.155,4.155,0,0,0-.512.485.047.047,0,0,1-.041.019A.07.07,0,0,1,453.56,1003.788Zm3.2-1.52a3.684,3.684,0,0,0-.7.094.1.1,0,0,1-.1-.067.089.089,0,0,1,.067-.109,4.1,4.1,0,0,1,.733-.1.1.1,0,0,1,.089.088.087.087,0,0,1-.063.09C456.776,1002.268,456.765,1002.268,456.757,1002.268Zm-2.114.587a.084.084,0,0,1,.03-.12,4.714,4.714,0,0,1,.65-.336.1.1,0,0,1,.123.052.1.1,0,0,1-.052.12,4.206,4.206,0,0,0-.624.317.043.043,0,0,1-.018,0A.079.079,0,0,1,454.643,1002.855Z" fill="#925c3a"/>
                        <path id="Trazado_112296" data-name="Trazado 112296" d="M454.632,1020.01h.011a.092.092,0,0,0,.045-.12c-.049-.112-.1-.227-.142-.336a.093.093,0,0,0-.123-.048.094.094,0,0,0-.045.119c.045.107.1.221.146.34A.088.088,0,0,0,454.632,1020.01Z" fill="#925c3a"/>
                      </g>
                      <path id="Trazado_112297" data-name="Trazado 112297" d="M446.923,1000.922a9.312,9.312,0,0,1-3.877-.557c-1.995-.75-6.1-3.724-7.7-2.34,0,0,.821-.614,2.924.2S443.177,1001.7,446.923,1000.922Z" fill="#f27671" style="mix-blend-mode: screen;isolation: isolate"/>
                      <path id="Trazado_112298" data-name="Trazado 112298" d="M460.6,996.5a9.291,9.291,0,0,0,2.6-2.925c1.031-1.871,2.245-6.79,4.367-6.764,0,0-1.028.06-2.111,2.037S463.962,994.669,460.6,996.5Z" fill="#f27671" style="mix-blend-mode: screen;isolation: isolate"/>
                      <path id="Trazado_112299" data-name="Trazado 112299" d="M439.632,992.249s1.953,6.671,7.937,7.3C447.569,999.547,441.582,999.652,439.632,992.249Z" fill="#f289b4" style="mix-blend-mode: multiply;isolation: isolate"/>
                      <g id="Grupo_50566" data-name="Grupo 50566">
                        <path id="Trazado_112300" data-name="Trazado 112300" d="M471.432,987.046a3.561,3.561,0,0,1,.4,3.948A4.337,4.337,0,0,0,471.432,987.046Z" fill="#925c3a"/>
                        <path id="Trazado_112301" data-name="Trazado 112301" d="M472.5,987.2a3.093,3.093,0,0,1,.347,3.434A3.772,3.772,0,0,0,472.5,987.2Z" fill="#925c3a"/>
                      </g>
                      <g id="Grupo_50567" data-name="Grupo 50567">
                        <path id="Trazado_112302" data-name="Trazado 112302" d="M433.775,996.591a3.553,3.553,0,0,0-.321,3.954A4.338,4.338,0,0,1,433.775,996.591Z" fill="#925c3a"/>
                        <path id="Trazado_112303" data-name="Trazado 112303" d="M432.711,996.772a3.091,3.091,0,0,0-.276,3.444A3.783,3.783,0,0,1,432.711,996.772Z" fill="#925c3a"/>
                      </g>
                      <path id="Trazado_112304" data-name="Trazado 112304" d="M447.857,998.389c.784-.989,3.32-.272,4.317.056h0a.541.541,0,0,0,.094.034h.011a.289.289,0,0,0,.045.019,2,2,0,0,1,1.12-.949,1.931,1.931,0,0,1,1.438.045c.508-.785,2.148-3.119,3.429-2.816,1.543.366,1.24,3.006,1.24,3.006a3.783,3.783,0,0,1,.908,2h0v.006a1.282,1.282,0,0,1-.012.17c-.007,0-.007.011-.007.011a.872.872,0,0,1-.045.168s0,.019-.011.023c-.022.052-.045.1-.071.153-.011.007-.011.011-.019.018a1.3,1.3,0,0,1-.112.146c-.687.7-3.2-.176-4.34-.631h-.007a.872.872,0,0,0-.112-.045l-.008-.007-.052-.019a1.979,1.979,0,0,1-1.121.948,1.941,1.941,0,0,1-1.5-.074c-.538.945-2.1,3.516-3.142,3.371-1.27-.172-1.169-2.508-1.169-2.508S446.867,999.628,447.857,998.389Z" fill="#7cc5ff" style="mix-blend-mode: multiply;isolation: isolate"/>
                      <g id="Grupo_50568" data-name="Grupo 50568">
                        <path id="Trazado_112305" data-name="Trazado 112305" d="M454.617,997.493s1.912-3.38,3.395-3,1.225,3.007,1.225,3.007,1.483,1.8.643,2.7-4.714-.942-4.714-.942Z" fill="#f8ee6a"/>
                        <path id="Trazado_112306" data-name="Trazado 112306" d="M452.563,998.2s-3.59-1.485-4.516-.265.893,3.13.893,3.13-.064,2.321,1.158,2.515,3.133-3.647,3.133-3.647Z" fill="#f8ee6a"/>
                        <path id="Trazado_112307" data-name="Trazado 112307" d="M454.617,997.493a13.153,13.153,0,0,1,.956-1.408,1.71,1.71,0,0,0-.127.788.109.109,0,0,0,.131.082,13.139,13.139,0,0,0,1.375-.726c-.464.495-1.424,1.245-.972,1.824.344.43.908.387,1.472.28a2.06,2.06,0,0,0-1.18.7c-.03.037.015.085.056.1q1.024.32,2.054.576a3.219,3.219,0,0,0,1.091.149.772.772,0,0,0,.664-.347,1,1,0,0,1-.257.691c-.841.9-4.714-.942-4.714-.942Z" fill="#f27671" opacity="0.4" style="mix-blend-mode: multiply;isolation: isolate"/>
                        <path id="Trazado_112308" data-name="Trazado 112308" d="M454.617,997.493s.037-.064.1-.164a1.519,1.519,0,0,1,1,2.177c-.332-.145-.549-.243-.549-.243Z" fill="#f27671" opacity="0.4" style="mix-blend-mode: multiply;isolation: isolate"/>
                        <path id="Trazado_112309" data-name="Trazado 112309" d="M452.238,1001.314c0-.056-.086-.09-.135-.082a2.392,2.392,0,0,0-.769.336c.53-.538,1.173-1.233.889-1.871-.172-.385-.721-.379-1.065-.359-.463.03-.926,0-1.385,0,.3-.056.6-.1.9-.187.359-.1,1.117-.235,1.233-.665.168-.607-2.346-.777-3.575-.8,1.214-.732,4.236.512,4.236.512l.668,1.733a19.432,19.432,0,0,1-1.139,1.931A1.616,1.616,0,0,0,452.238,1001.314Z" fill="#f27671" opacity="0.4" style="mix-blend-mode: multiply;isolation: isolate"/>
                        <path id="Trazado_112310" data-name="Trazado 112310" d="M452.327,998.1c.15.064.236.094.236.094l.668,1.733s-.116.219-.3.555C452.271,999.9,451.6,998.718,452.327,998.1Z" fill="#f27671" opacity="0.4" style="mix-blend-mode: multiply;isolation: isolate"/>
                        <path id="Trazado_112311" data-name="Trazado 112311" d="M452.249,999.357a1.792,1.792,0,1,0,1.143-2.174A1.735,1.735,0,0,0,452.249,999.357Z" fill="#f8ee6a"/>
                        <path id="Trazado_112312" data-name="Trazado 112312" d="M454.165,999.211a2.032,2.032,0,0,0,1.277-1.186.814.814,0,0,0,.027-.159,1.36,1.36,0,0,1,.16.322,1.792,1.792,0,0,1-3.38,1.169,1.816,1.816,0,0,1-.086-.475A2.087,2.087,0,0,0,454.165,999.211Z" fill="#f27671" opacity="0.4" style="mix-blend-mode: multiply;isolation: isolate"/>
                        <path id="Trazado_112313" data-name="Trazado 112313" d="M455.293,997.777a1.891,1.891,0,0,0-2.551-.1A2.774,2.774,0,0,1,455.293,997.777Z" fill="#f27671" style="mix-blend-mode: screen;isolation: isolate"/>
                        <path id="Trazado_112314" data-name="Trazado 112314" d="M451.539,998.281c-.052-.013-3.055-.732-3.414-.194s.049,1.541.049,1.541-.217-1.183.31-1.422A11.8,11.8,0,0,1,451.539,998.281Z" fill="#f27671" style="mix-blend-mode: screen;isolation: isolate"/>
                        <path id="Trazado_112315" data-name="Trazado 112315" d="M455.607,996.369c.037-.045,1.793-1.9,2.413-1.7s.907,1.237.907,1.237-.56-1.054-1.12-.919A11.244,11.244,0,0,0,455.607,996.369Z" fill="#f27671" style="mix-blend-mode: screen;isolation: isolate"/>
                        <path id="Trazado_112316" data-name="Trazado 112316" d="M459.054,997.573a3.19,3.19,0,0,1,.93,1.821s-.485-1.369-1.072-1.535Z" fill="#f27671" style="mix-blend-mode: screen;isolation: isolate"/>
                        <path id="Trazado_112317" data-name="Trazado 112317" d="M449.156,1001.6a3.17,3.17,0,0,0,.912,1.817s-.818-1.2-.6-1.772Z" fill="#f27671" style="mix-blend-mode: screen;isolation: isolate"/>
                      </g>
                    </g>
                  </g>
                  <g id="Grupo_50571" data-name="Grupo 50571">
                    <path id="Trazado_112318" data-name="Trazado 112318" d="M466.039,1021.7c.911,2.025,10.992.594,13.431.1l-1.176,4.826c-4.034.695-11.542,1.434-13.566.3-2.084-1.162-4.882-6.309-5.973-9.222a34.744,34.744,0,0,1,4.662-2.992C464.029,1016.491,465.187,1019.79,466.039,1021.7Z" fill="#ffbea7"/>
                  </g>
                  <g id="Grupo_50572" data-name="Grupo 50572">
                    <path id="Trazado_112319" data-name="Trazado 112319" d="M477.181,1022.176a25.455,25.455,0,0,1-.968,4.763c.751-.1,1.461-.206,2.081-.314l1.176-4.826C478.977,1021.9,478.159,1022.038,477.181,1022.176Z" fill="#f7cfa8"/>
                  </g>
                  <g id="Grupo_50573" data-name="Grupo 50573" opacity="0.5" style="mix-blend-mode: multiply;isolation: isolate">
                    <path id="Trazado_112320" data-name="Trazado 112320" d="M459.719,1020.129c-.377-.909-.706-1.748-.964-2.431a34.744,34.744,0,0,1,4.662-2.992c.213.631.5,1.457.822,2.342C462.689,1018.015,461.224,1019.1,459.719,1020.129Z" fill="#f7cfa8"/>
                  </g>
                </g>
                <path id="Trazado_112321" data-name="Trazado 112321" d="M434.048,971.493a3.468,3.468,0,0,0-.769.475,2.69,2.69,0,0,0-1.039,1.542,2.845,2.845,0,0,0-.075.512,2.741,2.741,0,0,0,.008.5,5.877,5.877,0,0,0,.142.9c.131.525.243.878.243.878s-.042-.082-.123-.22a4.239,4.239,0,0,1-.3-.6,3.853,3.853,0,0,1-.254-.926,2.907,2.907,0,0,1-.03-.549,3.33,3.33,0,0,1,.06-.571,2.57,2.57,0,0,1,1.266-1.629A2.527,2.527,0,0,1,434.048,971.493Z" fill="#f27671" style="mix-blend-mode: screen;isolation: isolate"/>
              </g>
            </g>
          </g>
        </g>
      </g>
    </g>
  </g>
</svg>
