<svg xmlns="http://www.w3.org/2000/svg" width="534.933" height="276.773" viewBox="0 0 534.933 276.773">
  <g id="Grupo_53047" data-name="Grupo 53047" transform="translate(7582.933 8122.902)">
    <path id="Trazado_115053" data-name="Trazado 115053" d="M10,0H209.739a10,10,0,0,1,10,10V62.721a10,10,0,0,1-10,10H10a10,10,0,0,1-10-10V10A10,10,0,0,1,10,0Z" transform="translate(-7420.183 -8007.285)" fill="#69f"/>
    <path id="Trazado_115054" data-name="Trazado 115054" d="M10,0H118.494a10,10,0,0,1,10,10v43.88a10,10,0,0,1-10,10H10a10,10,0,0,1-10-10V10A10,10,0,0,1,10,0Z" transform="translate(-7176.497 -7910.013)" fill="#36c"/>
    <path id="Trazado_115055" data-name="Trazado 115055" d="M49.167,13.067H43.3v4.57h6.759V19h-8.49V6.2h8.394V7.565H43.3v4.14h5.862Zm8.13,3.4a1.179,1.179,0,0,0-.435-.94,4.091,4.091,0,0,0-1.648-.642,6.934,6.934,0,0,1-2.606-1.022,2.069,2.069,0,0,1-.875-1.759,2.482,2.482,0,0,1,.984-1.974,4.481,4.481,0,0,1,5.208.036,2.521,2.521,0,0,1,.936,2.074l-.018.053H57.191a1.512,1.512,0,0,0-.523-1.121,1.927,1.927,0,0,0-1.384-.5,2,2,0,0,0-1.371.4,1.268,1.268,0,0,0-.448.976,1.088,1.088,0,0,0,.4.888,4.1,4.1,0,0,0,1.608.58,6.928,6.928,0,0,1,2.681,1.05,2.117,2.117,0,0,1,.879,1.78A2.457,2.457,0,0,1,58,18.4a4.29,4.29,0,0,1-2.676.782,4.179,4.179,0,0,1-2.865-.923,2.633,2.633,0,0,1-.993-2.153l.018-.053H53.14a1.591,1.591,0,0,0,.686,1.342,2.662,2.662,0,0,0,1.5.424,2.45,2.45,0,0,0,1.446-.374A1.151,1.151,0,0,0,57.3,16.469ZM63.467,7.2V9.49h1.8v1.283h-1.8v5.774a1.293,1.293,0,0,0,.277.94,1,1,0,0,0,.734.272,1.732,1.732,0,0,0,.33-.035,2.017,2.017,0,0,0,.321-.088l.229,1.187a1.528,1.528,0,0,1-.567.259,2.865,2.865,0,0,1-.751.1,2.242,2.242,0,0,1-1.679-.637,2.767,2.767,0,0,1-.624-2V10.773H60.224V9.49h1.512V7.2ZM73.249,19q-.088-.431-.136-.76a5.58,5.58,0,0,1-.057-.664,4.037,4.037,0,0,1-1.261,1.147,3.225,3.225,0,0,1-1.674.461,3.109,3.109,0,0,1-2.263-.76,2.8,2.8,0,0,1-.778-2.1,2.456,2.456,0,0,1,1.1-2.131,5.151,5.151,0,0,1,2.993-.769h1.881v-.94a1.745,1.745,0,0,0-.51-1.323,2,2,0,0,0-1.441-.488,2.081,2.081,0,0,0-1.358.426,1.282,1.282,0,0,0-.523,1.024H67.571l-.018-.053a2.3,2.3,0,0,1,.98-1.9A4.025,4.025,0,0,1,71.2,9.314a3.927,3.927,0,0,1,2.6.822,2.911,2.911,0,0,1,.984,2.369v4.579a8.913,8.913,0,0,0,.053.984,5.062,5.062,0,0,0,.193.932Zm-2.874-1.274a3.088,3.088,0,0,0,1.7-.482,2.293,2.293,0,0,0,.984-1.1V14.6H71.113a2.524,2.524,0,0,0-1.674.526,1.571,1.571,0,0,0-.628,1.236,1.3,1.3,0,0,0,.4,1A1.659,1.659,0,0,0,70.375,17.726Zm6.53-3.3a6.346,6.346,0,0,1,.98-3.7,3.158,3.158,0,0,1,2.747-1.406,3.405,3.405,0,0,1,1.481.308,3.036,3.036,0,0,1,1.1.9V5.289h1.731V19H83.532l-.2-1.169a3.082,3.082,0,0,1-1.143,1.011,3.437,3.437,0,0,1-1.573.343,3.264,3.264,0,0,1-2.725-1.261,5.241,5.241,0,0,1-.984-3.318Zm1.731.185a4.037,4.037,0,0,0,.589,2.307,2.056,2.056,0,0,0,1.828.866,2.293,2.293,0,0,0,1.3-.352,2.625,2.625,0,0,0,.861-.984V12a2.666,2.666,0,0,0-.866-.936,2.288,2.288,0,0,0-1.279-.347,1.979,1.979,0,0,0-1.841,1.028,5.308,5.308,0,0,0-.593,2.672Zm8.49-.448a5.235,5.235,0,0,1,1.143-3.476,4.234,4.234,0,0,1,6.227,0,5.218,5.218,0,0,1,1.147,3.48v.193a5.21,5.21,0,0,1-1.143,3.48,4.253,4.253,0,0,1-6.227,0,5.2,5.2,0,0,1-1.147-3.476Zm1.731.189a4.5,4.5,0,0,0,.637,2.493,2.3,2.3,0,0,0,3.775,0,4.477,4.477,0,0,0,.642-2.493v-.193a4.463,4.463,0,0,0-.646-2.484,2.118,2.118,0,0,0-1.894-.992,2.089,2.089,0,0,0-1.876.992,4.511,4.511,0,0,0-.637,2.484Z" transform="translate(-7180.496 -7890.76)" fill="#fff"/>
    <path id="Trazado_115056" data-name="Trazado 115056" d="M10,0H118.494a10,10,0,0,1,10,10v43.88a10,10,0,0,1-10,10H10a10,10,0,0,1-10-10V10A10,10,0,0,1,10,0Z" transform="translate(-7374.56 -8122.902)" fill="#36c"/>
    <path id="Trazado_115057" data-name="Trazado 115057" d="M39.09,15.778a1.885,1.885,0,0,0-.659-1.464,5.558,5.558,0,0,0-2.338-.992A7.737,7.737,0,0,1,32.925,11.9a2.951,2.951,0,0,1-1.138-2.37,3.109,3.109,0,0,1,1.226-2.5,4.852,4.852,0,0,1,3.177-1A4.728,4.728,0,0,1,39.534,7.17a3.4,3.4,0,0,1,1.2,2.672l-.018.053H39.064a2.375,2.375,0,0,0-.743-1.819,3.006,3.006,0,0,0-2.131-.694,2.985,2.985,0,0,0-1.982.584,1.9,1.9,0,0,0-.69,1.525,1.68,1.68,0,0,0,.747,1.393,7.089,7.089,0,0,0,2.426.98,6.922,6.922,0,0,1,3.076,1.477,3.16,3.16,0,0,1,1.055,2.417,2.951,2.951,0,0,1-1.266,2.487,5.4,5.4,0,0,1-3.3.94,5.719,5.719,0,0,1-3.388-1.042,3.139,3.139,0,0,1-1.428-2.782l.018-.053H33.1a2.15,2.15,0,0,0,.905,1.872,3.778,3.778,0,0,0,2.241.642,3.485,3.485,0,0,0,2.074-.55A1.746,1.746,0,0,0,39.09,15.778Zm3.524-1.62a5.235,5.235,0,0,1,1.143-3.476,4.234,4.234,0,0,1,6.227,0,5.218,5.218,0,0,1,1.147,3.48v.193a5.21,5.21,0,0,1-1.143,3.48,4.253,4.253,0,0,1-6.227,0,5.2,5.2,0,0,1-1.147-3.476Zm1.731.189a4.5,4.5,0,0,0,.637,2.493,2.3,2.3,0,0,0,3.775,0,4.477,4.477,0,0,0,.642-2.493v-.193a4.463,4.463,0,0,0-.646-2.484,2.118,2.118,0,0,0-1.894-.992,2.089,2.089,0,0,0-1.876.992,4.511,4.511,0,0,0-.637,2.484Zm12.771,3.476a2.335,2.335,0,0,0,1.516-.532,1.623,1.623,0,0,0,.655-1.305h1.556l.018.053a2.678,2.678,0,0,1-1.094,2.188,3.99,3.99,0,0,1-2.65.958,3.849,3.849,0,0,1-3.173-1.354,5.222,5.222,0,0,1-1.1-3.4v-.369a5.2,5.2,0,0,1,1.1-3.388,4.33,4.33,0,0,1,5.9-.374,3.061,3.061,0,0,1,1.024,2.417l-.018.053H59.288a2.009,2.009,0,0,0-.615-1.481,2.116,2.116,0,0,0-1.556-.611,2.087,2.087,0,0,0-1.947.979,4.607,4.607,0,0,0-.584,2.4v.369a4.661,4.661,0,0,0,.58,2.427A2.091,2.091,0,0,0,57.117,17.822ZM64.675,19H62.944V9.49h1.731Zm0-11.944H62.944V5.289h1.731Zm6.609,12.129a4.012,4.012,0,0,1-3.16-1.323,4.979,4.979,0,0,1-1.173-3.432v-.387a4.877,4.877,0,0,1,1.208-3.379,3.723,3.723,0,0,1,2.861-1.349,3.6,3.6,0,0,1,2.909,1.16,4.622,4.622,0,0,1,.984,3.094v1.081h-6.17l-.026.044a3.741,3.741,0,0,0,.694,2.248,2.214,2.214,0,0,0,1.872.881,4.356,4.356,0,0,0,1.542-.25,3.546,3.546,0,0,0,1.147-.69l.677,1.126a4.02,4.02,0,0,1-1.345.84A5.415,5.415,0,0,1,71.285,19.185Zm-.264-8.508a1.878,1.878,0,0,0-1.485.731,3.459,3.459,0,0,0-.756,1.835l.018.044h4.386v-.228a2.639,2.639,0,0,0-.545-1.7A1.944,1.944,0,0,0,71.021,10.677Zm5.44,3.744a6.346,6.346,0,0,1,.98-3.7,3.158,3.158,0,0,1,2.747-1.406,3.405,3.405,0,0,1,1.481.308,3.036,3.036,0,0,1,1.1.9V5.289H84.5V19H83.088l-.2-1.169a3.082,3.082,0,0,1-1.143,1.011,3.437,3.437,0,0,1-1.573.343,3.264,3.264,0,0,1-2.725-1.261,5.241,5.241,0,0,1-.984-3.318Zm1.731.185a4.037,4.037,0,0,0,.589,2.307,2.056,2.056,0,0,0,1.828.866,2.293,2.293,0,0,0,1.3-.352,2.625,2.625,0,0,0,.861-.984V12a2.666,2.666,0,0,0-.866-.936,2.288,2.288,0,0,0-1.279-.347,1.979,1.979,0,0,0-1.841,1.028,5.308,5.308,0,0,0-.593,2.672ZM92.932,19q-.088-.431-.136-.76a5.58,5.58,0,0,1-.057-.664,4.037,4.037,0,0,1-1.261,1.147,3.225,3.225,0,0,1-1.674.461,3.109,3.109,0,0,1-2.263-.76,2.8,2.8,0,0,1-.778-2.1,2.456,2.456,0,0,1,1.1-2.131,5.151,5.151,0,0,1,2.993-.769h1.881v-.94a1.745,1.745,0,0,0-.51-1.323,2,2,0,0,0-1.441-.488,2.081,2.081,0,0,0-1.358.426,1.282,1.282,0,0,0-.523,1.024H87.254l-.018-.053a2.3,2.3,0,0,1,.98-1.9,4.025,4.025,0,0,1,2.667-.861,3.927,3.927,0,0,1,2.6.822A2.911,2.911,0,0,1,94.47,12.5v4.579a8.913,8.913,0,0,0,.053.984,5.062,5.062,0,0,0,.193.932Zm-2.874-1.274a3.088,3.088,0,0,0,1.7-.482,2.293,2.293,0,0,0,.984-1.1V14.6H90.8a2.524,2.524,0,0,0-1.674.526,1.571,1.571,0,0,0-.628,1.236,1.3,1.3,0,0,0,.4,1A1.659,1.659,0,0,0,90.058,17.726Zm6.53-3.3a6.346,6.346,0,0,1,.98-3.7,3.158,3.158,0,0,1,2.747-1.406,3.405,3.405,0,0,1,1.481.308,3.036,3.036,0,0,1,1.1.9V5.289h1.731V19h-1.415l-.2-1.169a3.082,3.082,0,0,1-1.143,1.011,3.437,3.437,0,0,1-1.573.343,3.264,3.264,0,0,1-2.725-1.261,5.241,5.241,0,0,1-.984-3.318Zm1.731.185a4.037,4.037,0,0,0,.589,2.307,2.056,2.056,0,0,0,1.828.866,2.293,2.293,0,0,0,1.3-.352,2.625,2.625,0,0,0,.861-.984V12a2.666,2.666,0,0,0-.866-.936,2.288,2.288,0,0,0-1.279-.347,1.979,1.979,0,0,0-1.841,1.028,5.308,5.308,0,0,0-.593,2.672Z" transform="translate(-7378.56 -8103.649)" fill="#fff"/>
    <path id="Trazado_115058" data-name="Trazado 115058" d="M10,0H118.494a10,10,0,0,1,10,10v43.88a10,10,0,0,1-10,10H10a10,10,0,0,1-10-10V10A10,10,0,0,1,10,0Z" transform="translate(-7582.933 -7910.013)" fill="#36c"/>
    <path id="Trazado_115059" data-name="Trazado 115059" d="M47.739,13.34H41.9V19H40.171V6.2h8.464V7.565H41.9v4.412h5.836ZM55.877,19q-.088-.431-.136-.76a5.58,5.58,0,0,1-.057-.664,4.037,4.037,0,0,1-1.261,1.147,3.225,3.225,0,0,1-1.674.461,3.109,3.109,0,0,1-2.263-.76,2.8,2.8,0,0,1-.778-2.1,2.456,2.456,0,0,1,1.1-2.131,5.151,5.151,0,0,1,2.993-.769h1.881v-.94a1.745,1.745,0,0,0-.51-1.323,2,2,0,0,0-1.441-.488,2.081,2.081,0,0,0-1.358.426,1.282,1.282,0,0,0-.523,1.024H50.2l-.018-.053a2.3,2.3,0,0,1,.98-1.9,4.025,4.025,0,0,1,2.667-.861,3.927,3.927,0,0,1,2.6.822,2.911,2.911,0,0,1,.984,2.369v4.579a8.913,8.913,0,0,0,.053.984,5.062,5.062,0,0,0,.193.932ZM53,17.726a3.088,3.088,0,0,0,1.7-.482,2.293,2.293,0,0,0,.984-1.1V14.6H53.742a2.524,2.524,0,0,0-1.674.526,1.571,1.571,0,0,0-.628,1.236,1.3,1.3,0,0,0,.4,1A1.659,1.659,0,0,0,53,17.726ZM61.476,9.49l.123,1.248a3.23,3.23,0,0,1,1.182-1.05,3.552,3.552,0,0,1,1.666-.374,2.942,2.942,0,0,1,1.63.439A2.658,2.658,0,0,1,67.1,11.072a3.528,3.528,0,0,1,1.187-1.283,3.115,3.115,0,0,1,1.723-.475,2.847,2.847,0,0,1,2.294,1,4.557,4.557,0,0,1,.844,3V19H71.416V13.3a3.161,3.161,0,0,0-.483-1.991,1.763,1.763,0,0,0-1.441-.584,1.835,1.835,0,0,0-1.437.615,2.678,2.678,0,0,0-.646,1.556V19h-1.74V13.3a3.118,3.118,0,0,0-.5-1.956,1.723,1.723,0,0,0-1.428-.62,2.379,2.379,0,0,0-1.3.325,2.1,2.1,0,0,0-.782.914V19H59.929V9.49ZM77.534,19H75.8V9.49h1.731Zm0-11.944H75.8V5.289h1.731ZM82.069,19H80.337V5.289h1.731ZM86.6,19H84.873V9.49H86.6Zm0-11.944H84.873V5.289H86.6ZM95.112,19q-.088-.431-.136-.76a5.58,5.58,0,0,1-.057-.664,4.037,4.037,0,0,1-1.261,1.147,3.225,3.225,0,0,1-1.674.461,3.109,3.109,0,0,1-2.263-.76,2.8,2.8,0,0,1-.778-2.1,2.456,2.456,0,0,1,1.1-2.131,5.151,5.151,0,0,1,2.993-.769h1.881v-.94a1.745,1.745,0,0,0-.51-1.323,2,2,0,0,0-1.441-.488,2.081,2.081,0,0,0-1.358.426,1.282,1.282,0,0,0-.523,1.024H89.434l-.018-.053a2.3,2.3,0,0,1,.98-1.9,4.025,4.025,0,0,1,2.667-.861,3.927,3.927,0,0,1,2.6.822A2.911,2.911,0,0,1,96.65,12.5v4.579a8.913,8.913,0,0,0,.053.984A5.062,5.062,0,0,0,96.9,19Zm-2.874-1.274a3.088,3.088,0,0,0,1.7-.482,2.293,2.293,0,0,0,.984-1.1V14.6H92.976a2.524,2.524,0,0,0-1.674.526,1.571,1.571,0,0,0-.628,1.236,1.3,1.3,0,0,0,.4,1A1.659,1.659,0,0,0,92.238,17.726Z" transform="translate(-7586.932 -7890.76)" fill="#fff"/>
    <path id="Trazado_115060" data-name="Trazado 115060" d="M25.074,16.439l.02.059a4.286,4.286,0,0,1-1.406,3.354,5.362,5.362,0,0,1-3.818,1.353A5.015,5.015,0,0,1,15.938,19.5,6.285,6.285,0,0,1,14.42,15.16V12.631A6.3,6.3,0,0,1,15.938,8.29a5.008,5.008,0,0,1,3.931-1.714A5.52,5.52,0,0,1,23.707,7.86a4.245,4.245,0,0,1,1.387,3.4l-.02.059H23.229a3.173,3.173,0,0,0-.879-2.363,3.376,3.376,0,0,0-2.48-.869,3.03,3.03,0,0,0-2.568,1.3,5.277,5.277,0,0,0-.957,3.22v2.547a5.31,5.31,0,0,0,.957,3.239,3.03,3.03,0,0,0,2.568,1.3,3.388,3.388,0,0,0,2.48-.864,3.2,3.2,0,0,0,.879-2.388Zm1.807-.82a5.817,5.817,0,0,1,1.27-3.862A4.257,4.257,0,0,1,31.6,10.238a4.3,4.3,0,0,1,3.472,1.514,5.8,5.8,0,0,1,1.274,3.867v.215a5.789,5.789,0,0,1-1.27,3.867,4.286,4.286,0,0,1-3.457,1.5A4.294,4.294,0,0,1,28.155,19.7a5.779,5.779,0,0,1-1.274-3.862Zm1.924.21a5,5,0,0,0,.708,2.77,2.559,2.559,0,0,0,4.194,0,4.974,4.974,0,0,0,.713-2.77v-.215a4.959,4.959,0,0,0-.718-2.76,2.353,2.353,0,0,0-2.1-1.1,2.321,2.321,0,0,0-2.085,1.1,5.012,5.012,0,0,0-.708,2.76Zm14.893-3.7-.986-.059a2.2,2.2,0,0,0-1.284.361,2.318,2.318,0,0,0-.806,1.016V21H38.7V10.434h1.719l.186,1.543A3.668,3.668,0,0,1,41.71,10.7a2.592,2.592,0,0,1,1.519-.459,2.377,2.377,0,0,1,.41.034,2.718,2.718,0,0,1,.322.073Zm6.855,0-.986-.059a2.2,2.2,0,0,0-1.284.361,2.318,2.318,0,0,0-.806,1.016V21H45.553V10.434h1.719l.186,1.543A3.668,3.668,0,0,1,48.565,10.7a2.592,2.592,0,0,1,1.519-.459,2.377,2.377,0,0,1,.41.034,2.718,2.718,0,0,1,.322.073Zm6.055,9.072a4.457,4.457,0,0,1-3.511-1.47,5.533,5.533,0,0,1-1.3-3.813v-.43a5.418,5.418,0,0,1,1.343-3.755,4.136,4.136,0,0,1,3.179-1.5,4,4,0,0,1,3.232,1.289,5.136,5.136,0,0,1,1.094,3.438v1.2H53.785l-.029.049a4.157,4.157,0,0,0,.771,2.5,2.46,2.46,0,0,0,2.08.979,4.84,4.84,0,0,0,1.714-.278,3.94,3.94,0,0,0,1.274-.767l.752,1.251a4.467,4.467,0,0,1-1.494.934A6.017,6.017,0,0,1,56.607,21.205Zm-.293-9.453a2.086,2.086,0,0,0-1.65.813,3.843,3.843,0,0,0-.84,2.039l.02.049h4.873V14.4a2.933,2.933,0,0,0-.605-1.888A2.16,2.16,0,0,0,56.314,11.752Zm12.627,6.436a1.31,1.31,0,0,0-.483-1.045,4.545,4.545,0,0,0-1.831-.713,7.7,7.7,0,0,1-2.9-1.136,2.3,2.3,0,0,1-.972-1.955,2.757,2.757,0,0,1,1.094-2.194,4.979,4.979,0,0,1,5.786.041,2.8,2.8,0,0,1,1.04,2.3l-.02.059H68.824a1.68,1.68,0,0,0-.581-1.245,2.141,2.141,0,0,0-1.538-.552,2.218,2.218,0,0,0-1.523.449,1.408,1.408,0,0,0-.5,1.084,1.209,1.209,0,0,0,.439.986,4.557,4.557,0,0,0,1.787.645,7.7,7.7,0,0,1,2.979,1.167,2.352,2.352,0,0,1,.977,1.978,2.73,2.73,0,0,1-1.138,2.275,4.766,4.766,0,0,1-2.974.869A4.644,4.644,0,0,1,63.57,20.18a2.926,2.926,0,0,1-1.1-2.393l.02-.059h1.836a1.768,1.768,0,0,0,.762,1.492,2.958,2.958,0,0,0,1.67.471,2.723,2.723,0,0,0,1.606-.415A1.279,1.279,0,0,0,68.941,18.188Zm13.32-2.07A5.824,5.824,0,0,1,81.168,19.8a3.616,3.616,0,0,1-3.018,1.4,4.192,4.192,0,0,1-1.714-.327,3.277,3.277,0,0,1-1.255-.981v5.166H73.258V10.434h1.475l.3,1.367a3.49,3.49,0,0,1,1.289-1.162,3.848,3.848,0,0,1,1.8-.4A3.512,3.512,0,0,1,81.173,11.8a7.047,7.047,0,0,1,1.089,4.116Zm-1.924-.21a5.571,5.571,0,0,0-.708-2.951A2.3,2.3,0,0,0,77.545,11.8a2.569,2.569,0,0,0-1.416.376,2.81,2.81,0,0,0-.947,1.029v5.1a2.73,2.73,0,0,0,.947,1.019,2.66,2.66,0,0,0,1.436.366,2.369,2.369,0,0,0,2.07-1,4.386,4.386,0,0,0,.7-2.58Zm3.838-.288a5.817,5.817,0,0,1,1.27-3.862,4.7,4.7,0,0,1,6.919,0,5.8,5.8,0,0,1,1.274,3.867v.215a5.789,5.789,0,0,1-1.27,3.867,4.726,4.726,0,0,1-6.919,0,5.779,5.779,0,0,1-1.274-3.862Zm1.924.21a5,5,0,0,0,.708,2.77A2.559,2.559,0,0,0,91,18.6a4.975,4.975,0,0,0,.713-2.77v-.215A4.959,4.959,0,0,0,91,12.854a2.353,2.353,0,0,0-2.1-1.1,2.321,2.321,0,0,0-2.085,1.1,5.012,5.012,0,0,0-.708,2.76Zm11.611-5.4.137,1.572a3.837,3.837,0,0,1,1.323-1.3,3.531,3.531,0,0,1,1.812-.464,3.449,3.449,0,0,1,2.646,1,4.394,4.394,0,0,1,.938,3.091V21h-1.924V14.369a2.858,2.858,0,0,0-.552-1.982,2.21,2.21,0,0,0-1.685-.586,2.712,2.712,0,0,0-1.47.4,2.924,2.924,0,0,0-1.021,1.094V21H95.992V10.434ZM113.5,18.188a1.31,1.31,0,0,0-.483-1.045,4.545,4.545,0,0,0-1.831-.713,7.7,7.7,0,0,1-2.9-1.136,2.3,2.3,0,0,1-.972-1.955,2.757,2.757,0,0,1,1.094-2.194,4.979,4.979,0,0,1,5.786.041,2.8,2.8,0,0,1,1.04,2.3l-.02.059h-1.836A1.68,1.68,0,0,0,112.8,12.3a2.141,2.141,0,0,0-1.538-.552,2.218,2.218,0,0,0-1.523.449,1.408,1.408,0,0,0-.5,1.084,1.209,1.209,0,0,0,.439.986,4.557,4.557,0,0,0,1.787.645,7.7,7.7,0,0,1,2.979,1.167,2.352,2.352,0,0,1,.977,1.978,2.73,2.73,0,0,1-1.138,2.275,4.766,4.766,0,0,1-2.974.869,4.644,4.644,0,0,1-3.184-1.025,2.926,2.926,0,0,1-1.1-2.393l.02-.059h1.836a1.768,1.768,0,0,0,.762,1.492,2.958,2.958,0,0,0,1.67.471,2.723,2.723,0,0,0,1.606-.415A1.279,1.279,0,0,0,113.5,18.188ZM119.9,21h-1.924V10.434H119.9Zm0-13.271h-1.924V5.766H119.9Zm11.982,8.389a5.806,5.806,0,0,1-1.1,3.687,3.629,3.629,0,0,1-3.022,1.4,3.854,3.854,0,0,1-1.816-.405,3.378,3.378,0,0,1-1.279-1.2L124.43,21h-1.572V5.766h1.924v5.918a3.339,3.339,0,0,1,1.235-1.074,3.787,3.787,0,0,1,1.724-.371,3.512,3.512,0,0,1,3.047,1.563,7.028,7.028,0,0,1,1.094,4.111Zm-1.924-.205a5.833,5.833,0,0,0-.669-2.964,2.2,2.2,0,0,0-2.036-1.147,2.518,2.518,0,0,0-1.5.435,3.065,3.065,0,0,0-.972,1.167v4.58a3.146,3.146,0,0,0,.972,1.221,2.5,2.5,0,0,0,1.519.439,2.286,2.286,0,0,0,2.021-.967,4.44,4.44,0,0,0,.664-2.559ZM136.3,21h-1.924V10.434H136.3Zm0-13.271h-1.924V5.766H136.3ZM141.344,21H139.42V5.766h1.924Zm5.039,0h-1.924V10.434h1.924Zm0-13.271h-1.924V5.766h1.924Zm2.52,8.184a7.052,7.052,0,0,1,1.089-4.111,3.508,3.508,0,0,1,3.052-1.562,3.784,3.784,0,0,1,1.646.342,3.373,3.373,0,0,1,1.226,1V5.766h1.924V21h-1.572l-.225-1.3a3.425,3.425,0,0,1-1.27,1.123,3.819,3.819,0,0,1-1.748.381A3.626,3.626,0,0,1,150,19.8a5.824,5.824,0,0,1-1.094-3.687Zm1.924.205a4.485,4.485,0,0,0,.654,2.563,2.285,2.285,0,0,0,2.031.962,2.548,2.548,0,0,0,1.445-.391,2.917,2.917,0,0,0,.957-1.094V13.227a2.962,2.962,0,0,0-.962-1.04,2.542,2.542,0,0,0-1.421-.386,2.2,2.2,0,0,0-2.046,1.143,5.9,5.9,0,0,0-.659,2.969ZM167.2,21q-.1-.479-.151-.845a6.2,6.2,0,0,1-.063-.737,4.486,4.486,0,0,1-1.4,1.274,3.584,3.584,0,0,1-1.86.513,3.454,3.454,0,0,1-2.515-.845,3.107,3.107,0,0,1-.864-2.329,2.729,2.729,0,0,1,1.226-2.368,5.724,5.724,0,0,1,3.325-.854h2.09V13.764a1.938,1.938,0,0,0-.566-1.47,2.224,2.224,0,0,0-1.6-.542,2.312,2.312,0,0,0-1.509.474,1.425,1.425,0,0,0-.581,1.138h-1.836l-.02-.059a2.558,2.558,0,0,1,1.089-2.109,4.472,4.472,0,0,1,2.964-.957,4.363,4.363,0,0,1,2.891.913,3.235,3.235,0,0,1,1.094,2.632v5.088a9.9,9.9,0,0,0,.059,1.094A5.624,5.624,0,0,0,169.186,21Zm-3.193-1.416a3.431,3.431,0,0,0,1.885-.536,2.548,2.548,0,0,0,1.094-1.227V16.107H164.83a2.8,2.8,0,0,0-1.86.584,1.746,1.746,0,0,0-.7,1.373,1.443,1.443,0,0,0,.439,1.11A1.843,1.843,0,0,0,164.01,19.584Zm7.256-3.672a7.052,7.052,0,0,1,1.089-4.111,3.508,3.508,0,0,1,3.052-1.562,3.784,3.784,0,0,1,1.646.342,3.373,3.373,0,0,1,1.226,1V5.766H180.2V21h-1.572l-.225-1.3a3.425,3.425,0,0,1-1.27,1.123,3.819,3.819,0,0,1-1.748.381,3.626,3.626,0,0,1-3.027-1.4,5.824,5.824,0,0,1-1.094-3.687Zm1.924.205a4.485,4.485,0,0,0,.654,2.563,2.285,2.285,0,0,0,2.031.962,2.548,2.548,0,0,0,1.445-.391,2.917,2.917,0,0,0,.957-1.094V13.227a2.962,2.962,0,0,0-.962-1.04,2.542,2.542,0,0,0-1.421-.386,2.2,2.2,0,0,0-2.046,1.143,5.9,5.9,0,0,0-.659,2.969Z" transform="translate(-7407.783 -7985.45)" fill="#12263f"/>
    <path id="Trazado_115061" data-name="Trazado 115061" d="M0,0V51.733" transform="translate(-7312.381 -8059.018)" fill="none" stroke="#69f" stroke-width="3"/>
    <path id="Trazado_115062" data-name="Trazado 115062" d="M40.673,0,0,29.9" transform="translate(-7457.457 -7937.065)" fill="none" stroke="#69f" stroke-width="3"/>
    <path id="Trazado_115063" data-name="Trazado 115063" d="M0,0,31.836,31.8" transform="translate(-7203.717 -7937.176)" fill="none" stroke="#69f" stroke-width="3"/>
  </g>
</svg>
