<svg xmlns="http://www.w3.org/2000/svg" width="361" height="360.701" viewBox="0 0 361 360.701">
  <g id="Grupo_53045" data-name="Grupo 53045" transform="translate(6652 9256)">
    <rect id="Rectángulo_28713" data-name="Rectángulo 28713" width="360" height="360" transform="translate(-6652 -9256)" fill="none"/>
    <g id="Grupo_53042" data-name="Grupo 53042" transform="translate(-7172.5 -12101.796)">
      <g id="Image_Place_Holder" data-name="Image Place Holder" transform="translate(520.5 2962.127)" opacity="0.13">
        <rect id="Image_Place_Holder-2" data-name="Image Place Holder" width="361" height="244.369" rx="10" fill="#ea3065"/>
      </g>
      <g id="Grupo_49769" data-name="Grupo 49769" transform="translate(539.938 2881.596)">
        <g id="Clouds">
          <path id="Cloud" d="M826.975,4090.975l4.7-2.715a4.629,4.629,0,0,1-.039-.576v-1.363a8.4,8.4,0,0,1,3.8-6.584,2.961,2.961,0,0,1,2.265-.438,12.717,12.717,0,0,1,5.641-9.02c3.141-1.813,5.688-.343,5.688,3.284v2.038a9.883,9.883,0,0,1-.482,2.917l3.906-2.256c1.165-.672,2.109-.127,2.109,1.218a4.66,4.66,0,0,1-2.109,3.652l-25.482,14.713c-1.165.672-2.109.127-2.109-1.218A4.662,4.662,0,0,1,826.975,4090.975Z" transform="translate(-790.902 -4058.14)" fill="#ececec"/>
          <path id="Cloud-2" data-name="Cloud" d="M782.088,4076.948l2.878-2.216v-6.34c0-5.026,4.01-10.861,8.362-13.374h0c4.353-2.513,7.881-.476,7.881,4.55v.921a11.25,11.25,0,0,1,3.658-3.659h0c3.133-1.809,5.672-.342,5.672,3.274v.418l4.013-2.317c2.063-1.191,3.735-.226,3.735,2.156a8.256,8.256,0,0,1-3.735,6.469l-32.464,18.743c-2.063,1.191-3.735.225-3.735-2.157A8.258,8.258,0,0,1,782.088,4076.948Z" transform="translate(-778.353 -4053.942)" fill="#ececec"/>
        </g>
        <g id="Smiley_Face" data-name="Smiley Face" transform="translate(265.447 3.73)">
          <g id="Grupo_49712" data-name="Grupo 49712" transform="translate(8.575)">
            <path id="Trazado_102620" data-name="Trazado 102620" d="M1189.5,4093.647c0-12.634-7.46-27.012-16.935-32.482-4.345-2.509-7.76-2.764-11.355-.879h0l-7.594,4.061,3.306,6.963c-.028.519-.047,1.047-.047,1.593,0,12.129,7.082,26.136,16.032,32.076l3.256,6.857,7.312-4.26h0C1187.16,4105.508,1189.5,4100.617,1189.5,4093.647Z" transform="translate(-1153.615 -4059.05)" fill="#e1e1e1"/>
          </g>
          <g id="Grupo_49713" data-name="Grupo 49713" transform="translate(0 4.042)">
            <path id="Trazado_102621" data-name="Trazado 102621" d="M1168.721,4114.28a13.34,13.34,0,0,1-6.609-2,29.111,29.111,0,0,1-8.466-7.94l-.228-.309-.334.19a12.56,12.56,0,0,1-6.249,1.673,13.345,13.345,0,0,1-4.034-.633.467.467,0,0,1-.333-.436.5.5,0,0,1,.313-.495,11.781,11.781,0,0,0,6.673-6.68l.061-.171-.078-.163a41.56,41.56,0,0,1-4.3-17.507c0-8.884,3.9-14.625,9.932-14.625a13.325,13.325,0,0,1,6.607,2c9.518,5.495,16.974,19.757,16.974,32.47,0,4.47-.973,8.209-2.816,10.815a8.464,8.464,0,0,1-7.115,3.811Z" transform="translate(-1142.033 -4064.745)" fill="#fafafa"/>
            <path id="Trazado_102622" data-name="Trazado 102622" d="M1154.91,4065.454a12.907,12.907,0,0,1,6.391,1.946c9.4,5.425,16.757,19.522,16.757,32.095,0,8.621-3.728,14.191-9.5,14.191a12.91,12.91,0,0,1-6.391-1.947,28.656,28.656,0,0,1-8.334-7.822l-.457-.617-.669.378a12.118,12.118,0,0,1-6.035,1.618,12.872,12.872,0,0,1-3.926-.624.078.078,0,0,1-.006-.057.061.061,0,0,1,.046-.049,12.232,12.232,0,0,0,6.914-6.935l.121-.341-.157-.327a41.129,41.129,0,0,1-4.255-17.319c0-8.621,3.729-14.191,9.5-14.191m0-.869c-6.1,0-10.366,5.633-10.366,15.06a41.922,41.922,0,0,0,4.341,17.695,11.313,11.313,0,0,1-6.431,6.424.93.93,0,0,0,.055,1.745,13.849,13.849,0,0,0,4.166.654,12.962,12.962,0,0,0,6.462-1.73,29.431,29.431,0,0,0,8.6,8.058,13.778,13.778,0,0,0,6.825,2.063c6.1,0,10.366-5.633,10.366-15.059,0-13.2-7.7-27.365-17.191-32.846a13.779,13.779,0,0,0-6.825-2.063Z" transform="translate(-1141.872 -4064.585)" fill="#ececec"/>
          </g>
          <g id="Grupo_49717" data-name="Grupo 49717" transform="translate(5.895 16.176)">
            <path id="Trazado_102623" data-name="Trazado 102623" d="M1157.678,4089.143c0,2.341-1.731,3.24-3.867,2.007a8.338,8.338,0,0,1-3.867-6.472c0-2.341,1.731-3.24,3.867-2.007A8.336,8.336,0,0,1,1157.678,4089.143Z" transform="translate(-1149.945 -4081.45)" fill="#ffaaa8"/>
            <path id="Trazado_102624" data-name="Trazado 102624" d="M1186,4105.654c0,2.341-1.731,3.24-3.867,2.007a8.339,8.339,0,0,1-3.867-6.472c0-2.341,1.731-3.239,3.867-2.006A8.334,8.334,0,0,1,1186,4105.654Z" transform="translate(-1157.586 -4085.905)" fill="#ffaaa8"/>
            <g id="Grupo_49714" data-name="Grupo 49714" transform="translate(6.666 13.42)">
              <path id="Trazado_102625" data-name="Trazado 102625" d="M1172.383,4107.274a7.213,7.213,0,0,1-1.4,4.661c-1.222,1.465-3.12,1.821-5.247.586s-4.037-3.8-5.26-6.661a16.488,16.488,0,0,1-1.4-6.279Z" transform="translate(-1159.074 -4099.581)" fill="#12263f"/>
              <path id="Trazado_102626" data-name="Trazado 102626" d="M1171.5,4113.989c-1.222,1.465-3.12,1.821-5.247.586s-4.037-3.8-5.26-6.661c1.363-.981,3.222-.994,5.26.178A14.787,14.787,0,0,1,1171.5,4113.989Z" transform="translate(-1159.592 -4101.636)" fill="#ffaaa8"/>
            </g>
            <g id="Grupo_49716" data-name="Grupo 49716" transform="translate(5.704)">
              <g id="Grupo_49715" data-name="Grupo 49715">
                <path id="Trazado_102627" data-name="Trazado 102627" d="M1176.426,4093.591a4.554,4.554,0,0,0,1.725,3.652c.953.549,1.725-.194,1.725-1.661a4.547,4.547,0,0,0-1.725-3.65C1177.2,4091.382,1176.426,4092.124,1176.426,4093.591Z" transform="translate(-1162.794 -4084.049)" fill="#12263f"/>
                <path id="Trazado_102628" data-name="Trazado 102628" d="M1157.757,4083.044a4.547,4.547,0,0,0,1.725,3.651c.952.55,1.725-.193,1.725-1.66a4.55,4.55,0,0,0-1.725-3.651C1158.529,4080.834,1157.757,4081.578,1157.757,4083.044Z" transform="translate(-1157.757 -4081.203)" fill="#12263f"/>
              </g>
            </g>
          </g>
        </g>
        <g id="Smiley_Face-2" data-name="Smiley Face" transform="translate(33.667 64.365)">
          <g id="Grupo_49718" data-name="Grupo 49718" transform="translate(0 0)">
            <path id="Trazado_102629" data-name="Trazado 102629" d="M824.458,4163.91c0-7.968,4.706-17.039,10.682-20.489,2.741-1.583,4.895-1.743,7.163-.555h0l4.79,2.562-2.086,4.391c.018.328.03.661.03,1.005,0,7.65-4.467,16.486-10.113,20.232l-2.054,4.326-4.612-2.688h0C825.933,4171.392,824.458,4168.307,824.458,4163.91Z" transform="translate(-824.458 -4142.087)" fill="#e1e1e1"/>
          </g>
          <g id="Grupo_49719" data-name="Grupo 49719" transform="translate(4.67 2.55)">
            <path id="Trazado_102630" data-name="Trazado 102630" d="M837.494,4176.926c-3.806,0-6.265-3.621-6.265-9.225,0-8.019,4.7-17.015,10.707-20.481a8.406,8.406,0,0,1,4.168-1.265c3.806,0,6.265,3.621,6.265,9.226a26.225,26.225,0,0,1-2.711,11.042l-.05.1.038.108a7.434,7.434,0,0,0,4.21,4.213.316.316,0,0,1,.2.312.3.3,0,0,1-.21.276,8.458,8.458,0,0,1-2.544.4,7.922,7.922,0,0,1-3.943-1.056l-.21-.119-.145.193a18.347,18.347,0,0,1-5.34,5.01A8.415,8.415,0,0,1,837.494,4176.926Z" transform="translate(-830.955 -4145.68)" fill="#fafafa"/>
            <path id="Trazado_102631" data-name="Trazado 102631" d="M846,4145.579v.548c3.639,0,5.99,3.514,5.99,8.951A25.935,25.935,0,0,1,849.31,4166l-.1.206.077.215a7.718,7.718,0,0,0,4.362,4.375.04.04,0,0,1,.029.031l-.018.042a8.14,8.14,0,0,1-2.462.387,7.647,7.647,0,0,1-3.807-1.02l-.421-.239-.288.389a18.078,18.078,0,0,1-5.258,4.935,8.138,8.138,0,0,1-4.031,1.228c-3.639,0-5.991-3.513-5.991-8.951,0-7.93,4.643-16.823,10.57-20.245a8.145,8.145,0,0,1,4.032-1.228v-.548m0,0a8.7,8.7,0,0,0-4.305,1.3c-5.989,3.458-10.844,12.39-10.844,20.719,0,5.946,2.692,9.5,6.539,9.5a8.689,8.689,0,0,0,4.3-1.3,18.577,18.577,0,0,0,5.424-5.082,8.183,8.183,0,0,0,4.076,1.091,8.749,8.749,0,0,0,2.628-.413.587.587,0,0,0,.034-1.1,7.135,7.135,0,0,1-4.056-4.052,26.455,26.455,0,0,0,2.738-11.162c0-5.945-2.691-9.5-6.538-9.5Z" transform="translate(-830.854 -4145.579)" fill="#ececec"/>
          </g>
          <g id="Grupo_49723" data-name="Grupo 49723" transform="translate(6.401 10.204)">
            <path id="Trazado_102632" data-name="Trazado 102632" d="M851.09,4161.07c0,1.477,1.092,2.043,2.439,1.266a5.259,5.259,0,0,0,2.439-4.082c0-1.477-1.092-2.044-2.439-1.266A5.258,5.258,0,0,0,851.09,4161.07Z" transform="translate(-838.044 -4156.217)" fill="#ffaaa8"/>
            <path id="Trazado_102633" data-name="Trazado 102633" d="M833.224,4171.485c0,1.476,1.092,2.043,2.439,1.265a5.258,5.258,0,0,0,2.439-4.082c0-1.478-1.092-2.044-2.439-1.267A5.261,5.261,0,0,0,833.224,4171.485Z" transform="translate(-833.224 -4159.027)" fill="#ffaaa8"/>
            <g id="Grupo_49720" data-name="Grupo 49720" transform="translate(5.324 8.465)">
              <path id="Trazado_102634" data-name="Trazado 102634" d="M840.515,4172.506a4.555,4.555,0,0,0,.884,2.941,2.425,2.425,0,0,0,3.31.369,8.93,8.93,0,0,0,3.318-4.2,10.407,10.407,0,0,0,.884-3.961Z" transform="translate(-840.515 -4167.654)" fill="#2b454e"/>
              <path id="Trazado_102635" data-name="Trazado 102635" d="M841.725,4176.743a2.425,2.425,0,0,0,3.31.369,8.935,8.935,0,0,0,3.318-4.2,2.963,2.963,0,0,0-3.318.112A9.325,9.325,0,0,0,841.725,4176.743Z" transform="translate(-840.841 -4168.95)" fill="#ffaaa8"/>
            </g>
            <g id="Grupo_49722" data-name="Grupo 49722" transform="translate(3.551)">
              <g id="Grupo_49721" data-name="Grupo 49721">
                <path id="Trazado_102636" data-name="Trazado 102636" d="M840.262,4163.875a2.872,2.872,0,0,1-1.087,2.3c-.6.347-1.088-.122-1.088-1.047a2.869,2.869,0,0,1,1.088-2.3C839.775,4162.481,840.262,4162.95,840.262,4163.875Z" transform="translate(-838.087 -4157.856)" fill="#2b454e"/>
                <path id="Trazado_102637" data-name="Trazado 102637" d="M852.039,4157.222a2.869,2.869,0,0,1-1.088,2.3c-.6.346-1.088-.121-1.088-1.046a2.869,2.869,0,0,1,1.088-2.3C851.552,4155.829,852.039,4156.3,852.039,4157.222Z" transform="translate(-841.264 -4156.062)" fill="#2b454e"/>
              </g>
            </g>
          </g>
        </g>
        <g id="Smiley_Face-3" data-name="Smiley Face" transform="translate(278.381 66.476)">
          <g id="Grupo_49724" data-name="Grupo 49724" transform="translate(5.409 0)">
            <path id="Trazado_102638" data-name="Trazado 102638" d="M1189.628,4166.966c0-7.969-4.845-17.226-10.822-20.676-2.741-1.582-5.255-1.693-7.163-.554h0l-4.651,2.748,2.085,4.392c-.018.328-.03.661-.03,1,0,7.651,4.467,16.487,10.113,20.232l2.053,4.326,4.613-2.688h0C1188.153,4174.448,1189.628,4171.362,1189.628,4166.966Z" transform="translate(-1166.993 -4144.977)" fill="#e1e1e1"/>
          </g>
          <g id="Grupo_49725" data-name="Grupo 49725" transform="translate(0 2.715)">
            <path id="Trazado_102639" data-name="Trazado 102639" d="M1176.582,4179.942a8.257,8.257,0,0,1-4.089-1.244,18.192,18.192,0,0,1-5.291-4.963l-.229-.31-.334.188a7.753,7.753,0,0,1-3.863,1.035,8.264,8.264,0,0,1-2.5-.392.129.129,0,0,1-.1-.128.155.155,0,0,1,.1-.158,7.6,7.6,0,0,0,4.3-4.308l.061-.17-.078-.164a26.056,26.056,0,0,1-2.7-10.973c0-5.506,2.4-9.065,6.1-9.065a8.252,8.252,0,0,1,4.088,1.243c5.86,3.382,10.627,12.508,10.627,20.343a11.674,11.674,0,0,1-1.747,6.728,5.184,5.184,0,0,1-4.356,2.337Z" transform="translate(-1159.746 -4148.856)" fill="#fafafa"/>
            <path id="Trazado_102640" data-name="Trazado 102640" d="M1167.81,4149.564a7.825,7.825,0,0,1,3.871,1.185c5.74,3.314,10.41,12.271,10.41,19.967,0,5.243-2.226,8.63-5.671,8.63a7.826,7.826,0,0,1-3.871-1.185,17.739,17.739,0,0,1-5.16-4.848l-.457-.617-.669.379a7.33,7.33,0,0,1-3.648.978,7.739,7.739,0,0,1-1.622-.174,7.961,7.961,0,0,0,3.834-4.231l.122-.342-.157-.326a25.61,25.61,0,0,1-2.653-10.786c0-5.243,2.226-8.631,5.671-8.631m0-.869c-3.848,0-6.539,3.554-6.539,9.5a26.445,26.445,0,0,0,2.738,11.162,7.134,7.134,0,0,1-4.057,4.053.586.586,0,0,0,.035,1.1,8.73,8.73,0,0,0,2.628.413,8.179,8.179,0,0,0,4.076-1.091,18.572,18.572,0,0,0,5.423,5.083,8.692,8.692,0,0,0,4.305,1.3c3.848,0,6.539-3.553,6.539-9.5,0-7.985-4.855-17.262-10.844-20.72a8.7,8.7,0,0,0-4.3-1.3Z" transform="translate(-1159.585 -4148.696)" fill="#ececec"/>
          </g>
          <g id="Grupo_49729" data-name="Grupo 49729" transform="translate(6.309 9.759)">
            <g id="Grupo_49726" data-name="Grupo 49726" transform="translate(0 5.862)">
              <path id="Trazado_102641" data-name="Trazado 102641" d="M1180.666,4173.561a6.743,6.743,0,0,1-1.309,4.357c-1.143,1.369-2.917,1.7-4.9.548a13.226,13.226,0,0,1-4.917-6.228,15.389,15.389,0,0,1-1.31-5.868Z" transform="translate(-1168.225 -4166.37)" fill="#12263f"/>
              <path id="Trazado_102642" data-name="Trazado 102642" d="M1179.84,4179.837c-1.143,1.37-2.916,1.7-4.9.548a13.221,13.221,0,0,1-4.917-6.226c1.273-.917,3.011-.928,4.917.167A13.82,13.82,0,0,1,1179.84,4179.837Z" transform="translate(-1168.709 -4168.29)" fill="#ffaaa8"/>
            </g>
            <g id="Grupo_49728" data-name="Grupo 49728" transform="translate(0.619)">
              <g id="Grupo_49727" data-name="Grupo 49727">
                <path id="Trazado_102643" data-name="Trazado 102643" d="M1181.5,4166.431a2.869,2.869,0,0,0,1.088,2.3c.6.348,1.088-.121,1.088-1.046a2.87,2.87,0,0,0-1.088-2.3C1181.987,4165.038,1181.5,4165.507,1181.5,4166.431Z" transform="translate(-1172.426 -4160.211)" fill="#12263f"/>
                <path id="Trazado_102644" data-name="Trazado 102644" d="M1169.073,4159.5a2.87,2.87,0,0,0,1.088,2.3c.6.347,1.088-.122,1.088-1.047a2.87,2.87,0,0,0-1.088-2.3C1169.56,4158.11,1169.073,4158.579,1169.073,4159.5Z" transform="translate(-1169.073 -4158.343)" fill="#12263f"/>
              </g>
            </g>
          </g>
        </g>
        <g id="Character" transform="translate(52.816 18.996)">
          <g id="Bottom" transform="translate(0 88.415)">
            <path id="Trazado_102645" data-name="Trazado 102645" d="M930.991,4408.383a.78.78,0,0,0-.606.52c-.421,1.167-.491,2.524-.806,3.728a19.542,19.542,0,0,0-.848,6.16c1.016,2.1,2.9,3.041,6.715,4.377a27.468,27.468,0,0,1,8.623,4.584,22.264,22.264,0,0,0,10.495,4.658c3.962.36,7.772-.232,9.647-2.6.927-1.169,2.571-3.82-2.819-6.691-2.576-1.372-5.806-3-7.257-3.788a35.048,35.048,0,0,1-8.169-5.959c-.765-.807-3.594-3.069-3.323-6.873a4.867,4.867,0,0,0-4.569.53c-1.3.926-2.64,2.4-2.559,4-.279.132-1.2.475-1.278.176a6.077,6.077,0,0,1-.042-.924,1.943,1.943,0,0,0-1.222-1.476A3.788,3.788,0,0,0,930.991,4408.383Z" transform="translate(-871.725 -4256.376)" fill="#2b454e"/>
            <path id="Trazado_102646" data-name="Trazado 102646" d="M856.764,4406.481c.489-.424,1.447.165,1.565,1.115.1.79.538,4.859.534,5.688,0,.689.161,1.516.8,1.765a1.4,1.4,0,0,0,1.449-.479,13.778,13.778,0,0,0,.914-1.338,3.922,3.922,0,0,1,2.909-1.58c1.138-.062.438.011,1.207.854-.092.217-.569,1.348-.654,1.568a25.661,25.661,0,0,0-.721,15.164c.777,2.888,1.535,3.667,2.556,4.615s3.345,2.678,3.967,3.161c.551.428,1.1.936,1.165,1.41a1.922,1.922,0,0,1-.369,1.481,3.567,3.567,0,0,1-2.154,1.57,15.925,15.925,0,0,1-11.615-.4,9.591,9.591,0,0,1-3.649-2.918c-1.9-3.325-1.477-6.9-1.459-9.764.036-5.662-1.495-7.708-2.186-10.943a12.294,12.294,0,0,1-.169-4.936c.921-2.542,2.13-2.681,3.976-4.28C856.094,4407.143,856.526,4406.688,856.764,4406.481Z" transform="translate(-850.682 -4256.425)" fill="#2b454e"/>
            <path id="Trazado_102647" data-name="Trazado 102647" d="M939.221,4370.7c-4.243-2.875-10.021-6.324-12.363-8.854s-3.145-4.163-2.923-6.66c.542-6.1,4.732-50.146,5.691-60.39,1.609-17.207-.2-66.182-1.625-78.12l-44.985,4.8c-3.334,8.332-5.783,18.59-5.266,34.687.394,12.278.744,44.558.744,44.558s-5.6,4.895-9.6,14.558c-3.534,8.539-7.515,33.982-8.369,37.344a8.733,8.733,0,0,1-1.654,3.962,7.4,7.4,0,0,0-1.111,5.224c.458,5.95.638,10.367,1.712,15.348.556,2.58.728,3.848,3.062,5.338,1.238.791,5.032,1.317,6.257-.224a7.283,7.283,0,0,1-1.155-2.2,10.836,10.836,0,0,1-.489-2.751c-.049-1.658-.194-3.987-.159-5.644.106-5.155.3-6.747,3.157-12.4,3.125-6.192,25.261-50.4,25.261-50.4,4.5-7.681,6.848-36.48,10.037-52.781l6.539,38.962A75.209,75.209,0,0,0,909,4307.466c-.835,7.229,1.669,31.787,2.821,44.479a32.5,32.5,0,0,1-.061,7.338c.539,4.365,4.936,5.166,8.324,7.639,1.685,1.229,9.092,5.729,13.565,6.636C937.286,4374.3,941.458,4372.1,939.221,4370.7Z" transform="translate(-852.58 -4205.256)" fill="#ffaaa8"/>
            <g id="Grupo_49730" data-name="Grupo 49730" transform="translate(12.643)">
              <path id="Trazado_102648" data-name="Trazado 102648" d="M905.858,4273.855c1.127-7.078,2.036-11.968,2.036-11.968l1.756,12.929,2.6,15.062a33.9,33.9,0,0,0-2.075,8.147c-.724,5.212.119,11.183.89,18.18.927,8.415,1.964,16.245,1.964,16.245a16.909,16.909,0,0,0,15.438.3s1.869-11.994,3.42-28.409,2.8-22.123,2.725-42.7c-.045-13.116.895-36.07-5.907-59.554-6.75,4.752-26.252,5.341-34.348-1.044,0,0-5.2,5.526-11.319,18.017-4.573,9.343-4.455,20.679-4.284,37.36.2,19.468,1.847,39.5,1.847,39.5a62.47,62.47,0,0,0-6.869,9.218c-3.549,5.718-5.735,18.242-5.735,18.242s4.765,7.833,17,8.159c0,0,11.068-21.674,14.057-26.585S905.165,4278.206,905.858,4273.855Z" transform="translate(-867.996 -4201.037)" fill="#12263f"/>
              <path id="Trazado_102649" data-name="Trazado 102649" d="M922.635,4272.258l4.406-25.895s10.1-.4,15.453-6.884c0,0-.633,8.321-12.409,10.169l-5.993,24.622.3,10.917Z" transform="translate(-882.737 -4211.409)" fill="#2b454e"/>
            </g>
          </g>
          <g id="Top" transform="translate(20.134)">
            <path id="Trazado_102650" data-name="Trazado 102650" d="M936.964,4146.245c4.625.806,6.559.668,10.839,3.706s24.243,38.216,24.243,38.216a12.025,12.025,0,0,1-8.64.563c-5.109-1.427-14.913-8.746-14.913-8.746Z" transform="translate(-894.093 -4097.84)" fill="#ff9090"/>
            <g id="Grupo_49731" data-name="Grupo 49731" transform="translate(9.225 47.509)">
              <path id="Trazado_102651" data-name="Trazado 102651" d="M893.571,4146.452a78.84,78.84,0,0,1,11.567-1.419c3.631-.035,7.4,0,11.138,0a33.21,33.21,0,0,1,8.258.881,163.158,163.158,0,0,1,10.551,12.628c4.812,6.5,6.95,10.652,6.3,15.933a9.346,9.346,0,0,1-3.5,6.216c.193,3.958.942,10.006.667,12.687-8.617,6.345-37.872,5.614-46.021-2.077,1.475-6.9,3.036-10.913.656-18.856C890.742,4164.3,889.409,4148.514,893.571,4146.452Z" transform="translate(-890.888 -4145.018)" fill="#36c"/>
            </g>
            <g id="Grupo_49732" data-name="Grupo 49732" transform="translate(0 48.943)">
              <path id="Trazado_102652" data-name="Trazado 102652" d="M890.162,4146.982c-4.968,1.156-8.192,2.688-9.752,8.4-1.483,5.428-2.635,20.7-1.957,28.574s1.382,12.108,2.685,13.115,12-10.769,11.786-11.022S895,4167.069,895,4167.069,896.315,4150.061,890.162,4146.982Z" transform="translate(-878.254 -4146.982)" fill="#ffaaa8"/>
              <path id="Trazado_102653" data-name="Trazado 102653" d="M896.659,4168.839a66.588,66.588,0,0,0-6.076,6.943c-4.386,5.7-6.2,9.148-6.6,13.209l11.893-10.437c.372-3.138.67-5.589.67-5.589S896.674,4171.262,896.659,4168.839Z" transform="translate(-879.799 -4152.878)" fill="#ff9090"/>
            </g>
            <g id="Grupo_49733" data-name="Grupo 49733" transform="translate(47.833 23.968)">
              <path id="Trazado_102654" data-name="Trazado 102654" d="M950.9,4135.213s-.4-.26-.427-1.195.131-1.564.123-2.6-.251-2.8-1.178-3.086-1.64,1.829-1.869,3.581a7.945,7.945,0,0,1-1.755,4.635c-1.39,1.851-2.659,4.284-1.706,6.64Z" transform="translate(-943.76 -4116.968)" fill="#ff9090"/>
              <path id="Trazado_102655" data-name="Trazado 102655" d="M957.721,4128.259a31.784,31.784,0,0,1-.056-5.309,14.91,14.91,0,0,0-.734-4.01c-.413-1.418-.651-3.244-1.117-3.474s-1.35.226-1.43,1.307c0,0-.551-.859-1.005-1.743s-.714-1.95-1.463-2.213-1.25.92-1.069,1.8.337,1.391.337,1.391-.789.263-.294,1.866a7.875,7.875,0,0,0,.873,1.832,7.469,7.469,0,0,0,.582,2.817,14.364,14.364,0,0,0,.7,3.071,8.384,8.384,0,0,0-1.25,3.075c-.139,1.4.049,1.755-1.741,3.266-1.206,1.019-3.2,2.12-4.388,3.573s-2.058,3.028-.951,5.191,1.984,3.731,3,5.992c.769,1.707,1.476,3.934,4.571,11.965,2.4,6.24,2.573,7.007,3.82,9.306,1.745,3.215,3.7,7.352,8.736,9.988s11.118,2.526,10.777-1.934c-.41-5.346-1.544-9.614-3.619-12.668a55.3,55.3,0,0,0-5.664-7.024c-2.327-2.639-4.068-5.313-6.876-9.025-2.767-3.657-4.614-7.159-4.489-8.3a26.234,26.234,0,0,1,1.947-6.05C957.8,4130.821,958.131,4130.934,957.721,4128.259Z" transform="translate(-943.88 -4112.78)" fill="#ffaaa8"/>
              <path id="Trazado_102656" data-name="Trazado 102656" d="M944.214,4148.682a10.294,10.294,0,0,0,1.255,2.946c.477.968.956,1.935,1.407,2.915s.908,1.958,1.333,2.949.859,2.408,1.261,3.41c-.5-.958-.973-2.355-1.444-3.325s-.927-1.948-1.4-2.917l-1.378-2.925-.692-1.463A3.853,3.853,0,0,1,944.214,4148.682Z" transform="translate(-943.883 -4122.466)" fill="#c76668"/>
              <path id="Trazado_102657" data-name="Trazado 102657" d="M958.107,4118.248a8.579,8.579,0,0,0,.256,1.444c.121.468.264.937.42,1.384l.024.067-.025.094a5.424,5.424,0,0,0-.159,1.55,4.919,4.919,0,0,0,.3,1.533l.045.122-.057.092a3.977,3.977,0,0,0-.272.534,5.4,5.4,0,0,0-.213.582,5.271,5.271,0,0,0-.153.608c-.04.208-.057.418-.079.634a3.723,3.723,0,0,1-.066-1.305,4.054,4.054,0,0,1,.132-.652,4.011,4.011,0,0,1,.24-.639l-.012.214a4.413,4.413,0,0,1-.419-1.7,4.665,4.665,0,0,1,.038-.875,4.013,4.013,0,0,1,.2-.863v.161a8.107,8.107,0,0,1-.274-1.487A4.888,4.888,0,0,1,958.107,4118.248Z" transform="translate(-947.604 -4114.255)" fill="#ff9090"/>
              <path id="Trazado_102658" data-name="Trazado 102658" d="M953.762,4117.2a4.283,4.283,0,0,0,.453.7,5.424,5.424,0,0,0,.557.595l.039.034.013.081a6.515,6.515,0,0,0,.494,1.668,4.592,4.592,0,0,0,.95,1.405l.125.126-.057.168a5.3,5.3,0,0,0-.2.937,8.152,8.152,0,0,0-.061.992c.007.334.021.671.061,1.007s.1.673.16,1.017a6.132,6.132,0,0,1-.4-.966,5.865,5.865,0,0,1-.227-1.031,5.766,5.766,0,0,1-.034-1.065,4.169,4.169,0,0,1,.19-1.081l.068.294a3.955,3.955,0,0,1-.622-.744,4.6,4.6,0,0,1-.437-.854,5.669,5.669,0,0,1-.264-.911,5.127,5.127,0,0,1-.1-.944l.052.117a3.6,3.6,0,0,1-.478-.736A2.959,2.959,0,0,1,953.762,4117.2Z" transform="translate(-946.459 -4113.973)" fill="#ff9090"/>
              <path id="Trazado_102659" data-name="Trazado 102659" d="M955.882,4132.962a4.1,4.1,0,0,1-.662,1.755,5.919,5.919,0,0,1-1.266,1.381c.16-.271.344-.521.518-.774s.351-.5.513-.758A14.152,14.152,0,0,0,955.882,4132.962Z" transform="translate(-946.51 -4118.225)" fill="#ff9090"/>
              <path id="Trazado_102660" data-name="Trazado 102660" d="M947.775,4141.826a7.78,7.78,0,0,0-.74,3.24,6.045,6.045,0,0,0,.239,1.619,12.883,12.883,0,0,0,.6,1.594,4.561,4.561,0,0,1-1.015-1.445,4.457,4.457,0,0,1-.388-1.76A4.54,4.54,0,0,1,947.775,4141.826Z" transform="translate(-944.493 -4120.616)" fill="#ff9090"/>
            </g>
            <g id="Grupo_49744" data-name="Grupo 49744" transform="translate(3.279)">
              <path id="Trazado_102661" data-name="Trazado 102661" d="M936.861,4088.63c-2.094-2.981-5.779-3.991-7.842-2.994-1.894-2.523-5.7-3.943-8.827-4.114-11.949-.653-15.767,5.259-16.4,7.454-5.65.833-9.27,10.368-5.006,20.023,2.135,4.834,6.83,10.116,7.306,12.815l6.738-.023A13.455,13.455,0,0,1,921.4,4110.6c8.187-3.274,12.819-5.315,14.055-6.986A12.079,12.079,0,0,0,936.861,4088.63Z" transform="translate(-886.568 -4080.365)" fill="#1a2e35"/>
              <path id="Trazado_102662" data-name="Trazado 102662" d="M898.7,4080.02c-3.175.407-5.167,2.03-5.745,5.1a9.269,9.269,0,0,0-8.034,2.318,6.845,6.845,0,0,0-1.792,5.555c.151,1.889,1.143,2.893,2.321,4.2a4.518,4.518,0,0,0-2.5,5.526c.4,1.318,5.409,6.173,1.414,6.6,1.831,1.247,4.9.152,4.677-2.339a5.539,5.539,0,0,0,5.428,5.693c4.465.163,8.064-2.322,9.1-6.651l1.967-22.111C904.634,4081.084,901.789,4079.625,898.7,4080.02Z" transform="translate(-882.745 -4079.956)" fill="#1a2e35"/>
              <g id="Grupo_49743" data-name="Grupo 49743" transform="translate(10.785 11.066)">
                <g id="Grupo_49740" data-name="Grupo 49740">
                  <g id="Grupo_49734" data-name="Grupo 49734">
                    <path id="Trazado_102663" data-name="Trazado 102663" d="M935.529,4101.522a31.246,31.246,0,0,1,.588,3.927,62.349,62.349,0,0,1,.278,7.927c-.322,9.418-4.6,12.575-7.1,13.773a12.148,12.148,0,0,1-7.235.413l-.144,7.716s9.816,7.3,1.965,8.716a17.353,17.353,0,0,1-12.287-3.09,19.94,19.94,0,0,1-5.048-4.877l-.418-15.123s-1.923,2.07-5.509-.754c-2.96-2.331-4.13-6.458-2.037-8.813s6.12-2.045,8.11,1.124c1.417,2.257,2.55.545,2.491-2.143-.059-2.719,2.019-3.534,2.9-4.919,2.973-4.7.849-6.1,3.629-8.813,1.6-1.562,5.958-2.167,9.273.31C928.781,4093.491,934.011,4094.917,935.529,4101.522Z" transform="translate(-897.515 -4095.111)" fill="#ffaaa8"/>
                  </g>
                  <path id="Trazado_102664" data-name="Trazado 102664" d="M924.448,4115.194c.183,1.1-1.113,2.228-2.894,2.524s-3.372-.354-3.555-1.452,1.113-2.228,2.894-2.524S924.266,4114.1,924.448,4115.194Z" transform="translate(-903.037 -4100.118)" fill="#ff9090"/>
                  <path id="Trazado_102665" data-name="Trazado 102665" d="M950.018,4114.8c0,1.113-1.464,2.015-3.269,2.015s-3.269-.9-3.269-2.015,1.464-2.015,3.269-2.015S950.018,4113.682,950.018,4114.8Z" transform="translate(-909.916 -4099.878)" fill="#ff9090"/>
                  <g id="Grupo_49735" data-name="Grupo 49735" transform="translate(21.931 22.214)">
                    <path id="Trazado_102666" data-name="Trazado 102666" d="M927.656,4125.533l5.65,1.67a2.894,2.894,0,0,1-3.607,2.091A3.085,3.085,0,0,1,927.656,4125.533Z" transform="translate(-927.549 -4125.533)" fill="#c76668"/>
                  </g>
                  <path id="Trazado_102667" data-name="Trazado 102667" d="M927.768,4127.9a2.479,2.479,0,0,1,3.566,1.963,2.794,2.794,0,0,1-1.576,0A3.014,3.014,0,0,1,927.768,4127.9Z" transform="translate(-905.677 -4103.887)" fill="#ff9090"/>
                  <g id="Grupo_49736" data-name="Grupo 49736" transform="translate(33.132 7.204)">
                    <path id="Trazado_102668" data-name="Trazado 102668" d="M943.25,4104.977l2.716,2.2a1.675,1.675,0,0,1-2.413.313A1.836,1.836,0,0,1,943.25,4104.977Z" transform="translate(-942.889 -4104.977)" fill="#1a2e35"/>
                  </g>
                  <g id="Grupo_49737" data-name="Grupo 49737" transform="translate(17.894 8.363)">
                    <path id="Trazado_102669" data-name="Trazado 102669" d="M922.02,4108.884l2.61-2.321a1.677,1.677,0,0,1-.086,2.433A1.835,1.835,0,0,1,922.02,4108.884Z" transform="translate(-922.02 -4106.563)" fill="#1a2e35"/>
                  </g>
                  <g id="Grupo_49738" data-name="Grupo 49738" transform="translate(26.642 10.289)">
                    <path id="Trazado_102670" data-name="Trazado 102670" d="M934,4109.2l1.2,10.734,5.45-2.082Z" transform="translate(-934.001 -4109.202)" fill="#ff9090"/>
                  </g>
                  <g id="Grupo_49739" data-name="Grupo 49739" transform="translate(11.834 25.419)">
                    <path id="Trazado_102671" data-name="Trazado 102671" d="M926.427,4136.953c-7.209-1.456-11.393-4.144-12.706-7.032a7.389,7.389,0,0,0,3.344,5.837c3.491,2.182,9.315,3.334,9.315,3.334Z" transform="translate(-913.721 -4129.921)" fill="#ff9090"/>
                  </g>
                </g>
                <g id="Grupo_49741" data-name="Grupo 49741" transform="translate(19.914 12.231)">
                  <path id="Trazado_102672" data-name="Trazado 102672" d="M924.8,4113.709c.083.863.673-.447,1.663-.6s2.034.887,1.92.029a1.677,1.677,0,0,0-2.038-1.245A1.632,1.632,0,0,0,924.8,4113.709Z" transform="translate(-924.787 -4111.861)" fill="#1a2e35"/>
                </g>
                <g id="Grupo_49742" data-name="Grupo 49742" transform="translate(31.772 11.497)">
                  <path id="Trazado_102673" data-name="Trazado 102673" d="M944.587,4112.813c-.133.856-.647-.484-1.626-.7s-2.081.769-1.918-.082a1.678,1.678,0,0,1,2.107-1.125A1.633,1.633,0,0,1,944.587,4112.813Z" transform="translate(-941.026 -4110.855)" fill="#1a2e35"/>
                </g>
              </g>
            </g>
            <g id="Grupo_49746" data-name="Grupo 49746" transform="translate(2.156 29.613)">
              <path id="Trazado_102674" data-name="Trazado 102674" d="M912.378,4145.814h-.01a10.514,10.514,0,0,0-2.469-4.138c-1.392-1.661-4.248-7.012-4.7-7.781s-.858-3.508-1.224-5.322c-.361-1.785-.73-3.005-2.55-2.677,0-.105-.013-.371-.045-.98-.072-1.416-.5-1.915-1.12-2.152a2.139,2.139,0,0,0-.933-.083,2.619,2.619,0,0,0-.543-1.409c-.583-.708-1.2-.761-1.533-.473-.4.349-.351,1.2-.569,3.314a31.82,31.82,0,0,0-.306,4.777,3.4,3.4,0,0,0-.519,1.958,45.867,45.867,0,0,0,2.083,7.991c.458,1.19,3.524,6.792,4.242,8.828.9,2.261-.991,5.137-3.774,8.562-2.878,3.542-5.78,7.261-8.495,10.371a61.341,61.341,0,0,0-6.046,8.221c-1.913,3.073-2.895,8.023-2.616,13.107.24,4.378,5.8,4.253,10.632,1.476s7.332-5.64,9.067-8.777a82.91,82.91,0,0,0,5.615-12.492c3.229-8.7,4.175-11.363,4.7-13.121C912.277,4151.651,913.119,4148.591,912.378,4145.814Z" transform="translate(-881.207 -4120.544)" fill="#ffaaa8"/>
              <path id="Trazado_102675" data-name="Trazado 102675" d="M901.16,4145.567c.57,1.249,1.246,2.445,1.879,3.663s1.264,2.438,1.855,3.682a11.771,11.771,0,0,1,.768,1.933,4.271,4.271,0,0,1-.119,2.094,13.053,13.053,0,0,1-1.934,3.664c-.8,1.123-1.677,2.188-2.543,3.25l-2.6,3.2c-1.736,2.127-3.493,4.24-5.336,6.278,1.764-2.1,3.461-4.263,5.168-6.413l2.566-3.22c.864-1.07,1.726-2.133,2.513-3.252a12.8,12.8,0,0,0,1.919-3.572,4.042,4.042,0,0,0,.128-1.972,13.087,13.087,0,0,0-.728-1.9C903.574,4150.5,902.256,4148.086,901.16,4145.567Z" transform="translate(-884.424 -4127.271)" fill="#c76668"/>
              <g id="Grupo_49745" data-name="Grupo 49745" transform="translate(15.087 2.138)">
                <path id="Trazado_102676" data-name="Trazado 102676" d="M908.746,4127.844a.987.987,0,0,0-.2.741c.013.264.057.529.1.8l.2,1.612c.125,1.071.217,2.143.3,3.215.045.527.053,1.1.126,1.588a14.8,14.8,0,0,0,.421,1.528l1.014,3.075a24.5,24.5,0,0,1-1.425-2.927,11.228,11.228,0,0,1-.529-1.569,5.95,5.95,0,0,1-.1-.827l-.067-.809c-.075-1.082-.145-2.164-.18-3.247-.024-.542-.03-1.082-.034-1.621,0-.271,0-.544.028-.821A.968.968,0,0,1,908.746,4127.844Z" transform="translate(-903.623 -4124.627)" fill="#ff9090"/>
                <path id="Trazado_102677" data-name="Trazado 102677" d="M905.713,4123.438c-.348.094-.4.451-.393.757s.038.638.058.959c.039.646.062,1.3.074,1.942.014,1.294-.034,2.587-.025,3.86a14.616,14.616,0,0,0,.738,3.713c.346,1.231.776,2.452,1.153,3.689a32.348,32.348,0,0,1-1.539-3.569,11.819,11.819,0,0,1-.9-3.822c-.026-1.308.055-2.595.122-3.88.042-.644.074-1.284.091-1.929.014-.323.031-.647.072-.976a1.487,1.487,0,0,1,.137-.485A.54.54,0,0,1,905.713,4123.438Z" transform="translate(-902.678 -4123.438)" fill="#ff9090"/>
                <path id="Trazado_102678" data-name="Trazado 102678" d="M901.952,4131.942c.132.685.242,1.361.394,2.02s.336,1.305.554,1.948a39.469,39.469,0,0,1,1.213,3.942,18.809,18.809,0,0,1-.965-1.839,18.3,18.3,0,0,1-.779-1.928,10.014,10.014,0,0,1-.452-2.052A8.415,8.415,0,0,1,901.952,4131.942Z" transform="translate(-901.868 -4125.733)" fill="#ff9090"/>
              </g>
              <path id="Trazado_102679" data-name="Trazado 102679" d="M911.958,4168.1c1.325-3.654,2.651-7.311,3.924-10.982.627-1.836,1.183-3.7,1.625-5.588a12.042,12.042,0,0,0,.159-5.724l.12.076-.009,0-.1.018-.025-.094a7.941,7.941,0,0,0-1.283-2.611c-.559-.8-1.263-1.508-1.819-2.343-1.113-1.646-2.086-3.369-3.06-5.09l-.724-1.294c-.12-.222-.24-.417-.362-.655a4.493,4.493,0,0,1-.255-.722c-.264-.965-.429-1.94-.611-2.913a27.88,27.88,0,0,0-.61-2.882,2.072,2.072,0,0,0-.747-1.153,1.879,1.879,0,0,0-1.351-.17l-.126.021-.008-.13a7.634,7.634,0,0,0-.259-2.195,1.361,1.361,0,0,0-.673-.773,1.784,1.784,0,0,0-1.038-.149l-.109.011-.009-.108a2.493,2.493,0,0,0-.464-1.28,1.435,1.435,0,0,0-1.1-.672.571.571,0,0,0-.491.332,2.277,2.277,0,0,0-.168.666c-.062.47-.094.951-.139,1.428l-.285,2.867a19.144,19.144,0,0,0-.127,2.855l0,.029-.015.024a3.43,3.43,0,0,0-.461,2.429c.132.846.326,1.686.527,2.522a50.9,50.9,0,0,0,1.44,4.956,50.777,50.777,0,0,1-1.515-4.937c-.212-.835-.42-1.671-.566-2.524a3.5,3.5,0,0,1,.457-2.531l-.012.053a19.034,19.034,0,0,1,.112-2.891l.269-2.867c.042-.478.071-.956.132-1.437a2.39,2.39,0,0,1,.183-.724.761.761,0,0,1,.643-.438,1.616,1.616,0,0,1,1.275.743,2.69,2.69,0,0,1,.51,1.391l-.117-.1a1.985,1.985,0,0,1,1.163.165,1.575,1.575,0,0,1,.779.882,3.984,3.984,0,0,1,.227,1.135l.058,1.132-.134-.109a2.1,2.1,0,0,1,1.518.2,2.3,2.3,0,0,1,.851,1.272,28.139,28.139,0,0,1,.633,2.912c.185.969.357,1.945.62,2.885a4.273,4.273,0,0,0,.241.673c.1.2.243.428.357.642l.716,1.3c.963,1.722,1.929,3.45,3.022,5.086.537.816,1.236,1.525,1.8,2.348a8.151,8.151,0,0,1,1.3,2.688l-.12-.077h.009l.1-.018.024.095a12.232,12.232,0,0,1-.186,5.818c-.454,1.9-1.02,3.759-1.658,5.6C914.736,4160.839,913.328,4164.463,911.958,4168.1Z" transform="translate(-886.597 -4120.51)" fill="#c76668"/>
            </g>
          </g>
        </g>
        <g id="Chartacter" transform="translate(170.271 13.238)">
          <g id="Bottom-2" data-name="Bottom" transform="translate(16.412 96.445)">
            <g id="Grupo_49748" data-name="Grupo 49748" transform="translate(56.589 120.853)">
              <path id="Trazado_102680" data-name="Trazado 102680" d="M1128.89,4406.191c-3.111,1.763-8.61,1.808-12.486-.147l-4.9-35.069,16.841-1.323Z" transform="translate(-1111.504 -4369.652)" fill="#ffaaa8"/>
              <g id="Grupo_49747" data-name="Grupo 49747" transform="translate(1.002 28.937)">
                <path id="Trazado_102681" data-name="Trazado 102681" d="M1131.294,4415.809a9.823,9.823,0,0,1,.957,5.059c-.1,1.524-1.047,3.482-.68,6.931s1.132,4.538,1.463,6.974.255,5.7-1.2,7.992-4.04,4.547-10.235,4.271c-6.977-.311-8.238-4.021-8.306-6.973Z" transform="translate(-1112.989 -4411.041)" fill="#1a2e35"/>
                <path id="Trazado_102682" data-name="Trazado 102682" d="M1129.6,4409.322a1.38,1.38,0,0,1,.719.48c.512.658.364,1.679.542,2.46.069.3.134.6.194.909.45,2.305-.072,4.677-.069,7.026a39.524,39.524,0,0,0,1.333,8.211c1.055,4.881,1.112,7.944-3.2,11.258a12.373,12.373,0,0,1-7.666,2.542c-2.161.026-5.395-.9-6.5-2.039a7.507,7.507,0,0,1-2.067-3.574c-.094-5.177,1.972-10.988,2.424-16.147.226-2.577.254-5.373.337-7.964a.945.945,0,0,1,.136-.56.9.9,0,0,1,.425-.258c3.382-1.239,7.709-.708,11.226-.091.3.053.646.146.767.425a1.007,1.007,0,0,1,.053.38,10.485,10.485,0,0,0,.238,2.052c.036.167.124.369.293.363s.4-1.449.42-1.623l-.055-3.891A1.625,1.625,0,0,1,1129.6,4409.322Z" transform="translate(-1112.88 -4409.28)" fill="#2b454e"/>
                <path id="Trazado_102683" data-name="Trazado 102683" d="M1112.889,4444.373a5.839,5.839,0,0,1,.453-2.96c2.293-4.772,15.9-4.227,19.612.651-.047,2.989-.368,4.668-2.873,6.805-2.057,1.754-6.352,2.32-9.038,2.116a10.189,10.189,0,0,1-5.975-2.326A5.461,5.461,0,0,1,1112.889,4444.373Z" transform="translate(-1112.876 -4417.057)" fill="#12263f"/>
              </g>
            </g>
            <g id="Grupo_49751" data-name="Grupo 49751" transform="translate(0 115.243)">
              <path id="Trazado_102684" data-name="Trazado 102684" d="M1081.423,4399.169c-2.527,5.813-9.2,4.59-14.7,1.031l-2.7-38.23,18.6,3.741Z" transform="translate(-1042.106 -4361.97)" fill="#ffaaa8"/>
              <g id="Grupo_49750" data-name="Grupo 49750" transform="translate(0 33.511)">
                <g id="Grupo_49749" data-name="Grupo 49749" transform="translate(0.839)">
                  <path id="Trazado_102685" data-name="Trazado 102685" d="M1035.457,4430.757a5.423,5.423,0,0,0-.015,3.5c.439.867,5.866,3.047,12.033,2.488a25.731,25.731,0,0,0,12.672-4.759c2.319-1.614,6.578-2.334,9.632-2.58s7.036-1.864,7.675-3.31-.191-3.892-.191-3.892Z" transform="translate(-1035.157 -4411.731)" fill="#1a2e35"/>
                  <path id="Trazado_102686" data-name="Trazado 102686" d="M1057.27,4410.157c-1.3,2.661-4.355,4.076-6.781,5.486-1.075.624-2.307,1.174-3.417,1.756-1.474.772-3.75,1.653-5.252,2.29a18.411,18.411,0,0,0-4.161,1.925c-2.386,1.69-2.6,5.8.194,7.359,2.415,1.344,8.719,2.714,15.25.7,3.558-1.1,9.259-5.388,13.952-5.864,2.984-.3,8.618-1.273,10.49-3.588.532-3.315-.336-4.193-1.179-6.93-.4-1.3-.446-2.665-.791-3.964a1.449,1.449,0,0,0-.576-1.026,3.16,3.16,0,0,0-1.054-.438l-.054,1.493s-.194.7-1.836,1.7a7.175,7.175,0,0,0-2.623,2.719,2.986,2.986,0,0,1-.6.9.8.8,0,0,1-1,.089,1.181,1.181,0,0,1-.217-1.037,21.9,21.9,0,0,0,.113-2.532.916.916,0,0,0-.079-.433.878.878,0,0,0-.288-.278c-1.941-1.344-6.188-1.359-8.538-1.579a1.392,1.392,0,0,0-.883.114,1.651,1.651,0,0,0-.52.821C1057.37,4409.945,1057.321,4410.053,1057.27,4410.157Z" transform="translate(-1035.333 -4407.861)" fill="#2b454e"/>
                  <path id="Trazado_102687" data-name="Trazado 102687" d="M1088.237,4412.559a19.076,19.076,0,0,0,.485,2c.843,2.738,1.711,3.616,1.179,6.931-1.438,1.778-5.094,2.761-8.065,3.259C1080.7,4419.125,1084.132,4414.819,1088.237,4412.559Z" transform="translate(-1047.69 -4409.128)" fill="#12263f"/>
                </g>
                <path id="Trazado_102688" data-name="Trazado 102688" d="M1035.494,4426.03a21.647,21.647,0,0,1,6.413-2.3,9.987,9.987,0,0,1,9.469,10.568c-5.977,1.789-13.1.684-16.486-1.443C1033.646,4430.367,1033.606,4427.412,1035.494,4426.03Z" transform="translate(-1034.008 -4412.142)" fill="#12263f"/>
              </g>
            </g>
            <g id="Grupo_49753" data-name="Grupo 49753" transform="translate(18.755)">
              <g id="Grupo_49752" data-name="Grupo 49752">
                <path id="Trazado_102689" data-name="Trazado 102689" d="M1108.937,4208.905c1.18,22.851,2.007,37.954,2.867,78.979a182.43,182.43,0,0,1,2.672,22.394c.518,10.26.638,37.118.638,37.118s-7.975,3.05-15.279.39c0,0-7.851-39.267-10.4-53.535-2.237-12.536-5.291-33.887-5.291-33.887l-1.614,29.355a88.811,88.811,0,0,1,1.7,21.019c-.319,6.741-2.959,36.115-2.959,36.115s-8.625,3.053-16.839-1.076c0,0-4.37-50.28-4.628-56.377-.294-6.953.08-85.252.08-85.252Z" transform="translate(-1059.692 -4204.148)" fill="#0a4b6e"/>
              </g>
              <path id="Trazado_102690" data-name="Trazado 102690" d="M1087.23,4272.491l-2.115-17.513s-8.812-.889-13.991-5.88c0,0,.1,5.18,10.844,8.883l3.079,12.859.569,31.007Z" transform="translate(-1062.776 -4216.275)" fill="#1a2e35"/>
            </g>
          </g>
          <g id="Top-2" data-name="Top" transform="translate(0)">
            <g id="Grupo_49755" data-name="Grupo 49755" transform="translate(0 48.566)">
              <path id="Trazado_102691" data-name="Trazado 102691" d="M1042.032,4178.6s8.781-21.153,11.961-28.705,7.253-10.335,11.985-10.319L1067,4165s-9.036,17.68-12,23.174a63.778,63.778,0,0,1-6.135,9.82Z" transform="translate(-1019.761 -4138.849)" fill="#ffbea7"/>
              <path id="Trazado_102692" data-name="Trazado 102692" d="M1068.135,4138.579c-7.03.485-8.949,2.793-11.186,6.079s-11.486,26.377-11.486,26.377.355,2.939,6.482,7.2,10.034,4.461,10.034,4.461l9.933-27.042Z" transform="translate(-1020.686 -4138.579)" fill="#36c"/>
              <path id="Trazado_102693" data-name="Trazado 102693" d="M1042.93,4190.021h0c6.02,4.925,7.569,10.434,7.077,14.538l-4.742-3.174-3.233-9.174Z" transform="translate(-1019.761 -4152.457)" fill="#ff9a79"/>
              <g id="Grupo_49754" data-name="Grupo 49754" transform="translate(0 6.597)">
                <path id="Trazado_102694" data-name="Trazado 102694" d="M1041.578,4191.4c-.431-1.51-.733-3.657-4.21-7.34s-9.642-7.862-11.314-9.7a11.565,11.565,0,0,1-2.488-4.043,3.259,3.259,0,0,0,1.575-1.547,11.506,11.506,0,0,0,.924-2.044c.466.835,1.831,1.744,2.26.982s.751-2.826,1.362-4.091a4.811,4.811,0,0,0,.649-3.131c-.2-.638-1.216-1.224-1.216-1.224a1.757,1.757,0,0,0-.443-1.891,28.1,28.1,0,0,0-3.514-2.079s7.572-2.11,9.745-3.793,2.6-3.8,1.18-3.887c-2.566.861-4.781,1.521-8.015,2.529a44.881,44.881,0,0,1-8.242,1.69c-2.788.37-1.685,1.769-2.418,3.157-.468.885-2,1.327-2.1,2.7a3.172,3.172,0,0,1-.911,2.441c-.616.656-.461,2.01-1.045,2.862s-2.419,3.519-1.639,6.051,2.32,5.445,5.214,12,3.214,8.06,7.144,12.639a27.737,27.737,0,0,0,9.182,7.087c2.431,1.352,4.514,2.52,7.374-.608A14.728,14.728,0,0,0,1041.578,4191.4Z" transform="translate(-1011.532 -4147.613)" fill="#ffbea7"/>
                <path id="Trazado_102695" data-name="Trazado 102695" d="M1029.132,4157.567l-2.894-1.526,4.634,1.011Z" transform="translate(-1015.5 -4149.887)" fill="#ff9a79"/>
                <path id="Trazado_102696" data-name="Trazado 102696" d="M1034.608,4163.567a9.238,9.238,0,0,1-.562,2.57,2,2,0,0,1-.882,1.039,4.551,4.551,0,0,1-1.295.3,11.476,11.476,0,0,0,1.182-.5,1.886,1.886,0,0,0,.716-.957C1034.122,4165.248,1034.27,4164.38,1034.608,4163.567Z" transform="translate(-1017.019 -4151.917)" fill="#ff9a79"/>
                <path id="Trazado_102697" data-name="Trazado 102697" d="M1024.377,4161.7c.956.524,1.926,1.015,2.892,1.519.486.247.964.509,1.438.791a4.676,4.676,0,0,1,.69.487,1.565,1.565,0,0,1,.424.778,6.879,6.879,0,0,1,.166,1.659q0,.414-.036.827a1.954,1.954,0,0,1-.2.834,5.2,5.2,0,0,1-1.074,1.268,3.274,3.274,0,0,1-1.413.813,3.227,3.227,0,0,0,1.311-.921,5.091,5.091,0,0,0,.967-1.265,1.969,1.969,0,0,0,.145-.749c.018-.268.025-.537.021-.806a6.7,6.7,0,0,0-.182-1.582,1.266,1.266,0,0,0-.329-.645,4.474,4.474,0,0,0-.636-.464c-.456-.287-.936-.543-1.405-.822C1026.21,4162.883,1025.274,4162.318,1024.377,4161.7Z" transform="translate(-1014.998 -4151.413)" fill="#ff9a79"/>
                <path id="Trazado_102698" data-name="Trazado 102698" d="M1021.793,4166.751c1.244.629,2.523,1.162,3.745,1.87a2.62,2.62,0,0,1,.226.157.73.73,0,0,1,.19.25,1.938,1.938,0,0,1,.137.543,6.4,6.4,0,0,1,.017,1.065,12.21,12.21,0,0,1-.283,2.1,2.985,2.985,0,0,1-1.316,1.691,2.664,2.664,0,0,1-.494.249,1.066,1.066,0,0,1-.586,0,3.266,3.266,0,0,1-.979-.455,7.4,7.4,0,0,1-1.6-1.38,1.918,1.918,0,0,1-.433-.968.834.834,0,0,1,.478-.872.8.8,0,0,0-.4.863,1.8,1.8,0,0,0,.472.88,7.327,7.327,0,0,0,1.6,1.276,3.521,3.521,0,0,0,.917.4.8.8,0,0,0,.442,0,2.446,2.446,0,0,0,.431-.227,2.692,2.692,0,0,0,1.172-1.544,12.153,12.153,0,0,0,.3-2.028,6.268,6.268,0,0,0,0-1.019,1.855,1.855,0,0,0-.107-.467c-.047-.137-.165-.212-.312-.316-.573-.372-1.2-.694-1.8-1.029S1022.391,4167.107,1021.793,4166.751Z" transform="translate(-1013.928 -4152.776)" fill="#ff9a79"/>
                <path id="Trazado_102699" data-name="Trazado 102699" d="M1023.5,4174.561a2.584,2.584,0,0,1-.9-.565,1.514,1.514,0,0,1-.478-1.012l.3.014a1.286,1.286,0,0,0,.289.9A2.5,2.5,0,0,0,1023.5,4174.561Z" transform="translate(-1014.388 -4154.457)" fill="#ff9a79"/>
                <path id="Trazado_102700" data-name="Trazado 102700" d="M1023.117,4172.3a2.44,2.44,0,0,1-1.241.329,5.328,5.328,0,0,1-1.287-.142,4.375,4.375,0,0,1-2.226-1.243,7.392,7.392,0,0,0,2.3.947,6.588,6.588,0,0,0,1.219.2A3.489,3.489,0,0,0,1023.117,4172.3Z" transform="translate(-1013.375 -4153.988)" fill="#ff9a79"/>
                <path id="Trazado_102701" data-name="Trazado 102701" d="M1021.891,4176.729a5.257,5.257,0,0,1-1.271,2.51,4.28,4.28,0,0,1-2.5,1.185,4.206,4.206,0,0,0,2.387-1.289,5.033,5.033,0,0,0,1.084-2.468Z" transform="translate(-1013.31 -4155.452)" fill="#ff9a79"/>
                <path id="Trazado_102702" data-name="Trazado 102702" d="M1022.787,4175.4a7.583,7.583,0,0,0,.973.394c.353.1.966-.335,1.489-.788a3.544,3.544,0,0,0,.732-1.669,3.017,3.017,0,0,0,1.625-.82,9.652,9.652,0,0,0,1.064-1.228,2.4,2.4,0,0,0-.029,1.827h0a11.6,11.6,0,0,1-.924,2.044,3.263,3.263,0,0,1-1.575,1.547c-1.07.485-1.678.2-2.743.144a3.966,3.966,0,0,0-2.321,1.159,6.5,6.5,0,0,0,1.428-2.566Z" transform="translate(-1014.108 -4154)" fill="#ff9a79"/>
              </g>
            </g>
            <path id="Trazado_102703" data-name="Trazado 102703" d="M1088.977,4136.118c4.063.33,13.5,2.224,17.685,2.953,4.115.718,4.577,6.969,4.42,10.4-.581,12.744-1.336,34.7-1.336,34.7,0,10.958-.109,21.347.193,25.663-6.074,6.215-35.86,8.438-50.814-1.2,0,0-.028-10.84,0-16.376.051-10.329.08-23.056,1.444-35.611,1.42-13.073,9.771-18.611,11.249-18.749C1071.817,4137.909,1085.79,4135.858,1088.977,4136.118Z" transform="translate(-1024.369 -4089.344)" fill="#12263f"/>
            <g id="Grupo_49758" data-name="Grupo 49758" transform="translate(30.279 49.727)">
              <g id="Grupo_49757" data-name="Grupo 49757" transform="translate(0 0.433)">
                <path id="Trazado_102704" data-name="Trazado 102704" d="M1116.764,4146.77c-2.434-3.712-4.132-4.6-11.26-6.006-6.271,5-4.454,24.225-4.454,24.225l-1.6,15.352s-1.862-1.872-3.893-4.323c-5.916-7.143-8.249-10.819-11.238-13.583-3.062-2.83-10.622-5.655-13.325-7.66-2.245-1.667-4.228-1.808-6.143-2.582-5.469-2.21-10.929-5.571-11.367-5.069-.855,1.021-.6,2.839,1.011,4.506,2.189,2.265,9.323,5.693,9.323,5.693a2.34,2.34,0,0,1-.762,1.133,1.871,1.871,0,0,0-.94,1.828,1.875,1.875,0,0,1-.776,1.871c-.668.561-.957.637-.957,2.647a41.16,41.16,0,0,0,.341,5.423c.15.7.759,1,2.888,1.207s2.7.261,3.159.023.938-1.745.938-1.745,2.106,1.356,3.969,2.543a8.228,8.228,0,0,0,5.347,1.339c2.012-.082,2.514.805,4.566,3.724,3.839,5.459,6.8,14.119,10.224,18.338s7.062,7.525,11.968,9.62,7.31-.048,8.755-3.1c1.831-3.872,2.53-7.728,3.5-13.6,1.32-8.016,1.684-12.337,2.657-22.933C1119.714,4154.475,1119.292,4150.626,1116.764,4146.77Z" transform="translate(-1052.999 -4140.764)" fill="#ffbea7"/>
                <g id="Grupo_49756" data-name="Grupo 49756" transform="translate(6.531 14.316)">
                  <path id="Trazado_102705" data-name="Trazado 102705" d="M1061.943,4160.368a13.256,13.256,0,0,0,2.951.865,7.927,7.927,0,0,0,3.291-.3,2.851,2.851,0,0,0-1.958,1.677S1064.054,4161.6,1061.943,4160.368Z" transform="translate(-1061.943 -4160.368)" fill="#ff9a79"/>
                  <path id="Trazado_102706" data-name="Trazado 102706" d="M1072.16,4179.852a13.713,13.713,0,0,0-2.654-1.211l.105-.287A13.816,13.816,0,0,1,1072.16,4179.852Z" transform="translate(-1063.983 -4165.221)" fill="#ff9a79"/>
                  <path id="Trazado_102707" data-name="Trazado 102707" d="M1069.175,4177.816a1.136,1.136,0,0,1-.1.647,1.8,1.8,0,0,1-.413.522,1.991,1.991,0,0,1-1.2.44,8.627,8.627,0,0,0,1.01-.676,2.256,2.256,0,0,0,.407-.408A2.641,2.641,0,0,0,1069.175,4177.816Z" transform="translate(-1063.432 -4165.075)" fill="#ff9a79"/>
                  <path id="Trazado_102708" data-name="Trazado 102708" d="M1084.4,4185.084c2.012-.082,2.513.806,4.566,3.724a44.536,44.536,0,0,1,2.9,4.9l.01.013c-2.323-5.3-4.047-10.866-5.515-10.323s-3.1,1.689-6.011,1.049A8.524,8.524,0,0,0,1084.4,4185.084Z" transform="translate(-1066.91 -4166.572)" fill="#ff9a79"/>
                  <path id="Trazado_102709" data-name="Trazado 102709" d="M1065.193,4167.5c.335.369.826.5.4.982a5,5,0,0,1-1.177.889A1.875,1.875,0,0,0,1065.193,4167.5Z" transform="translate(-1062.61 -4162.291)" fill="#ff9a79"/>
                  <path id="Trazado_102710" data-name="Trazado 102710" d="M1067.477,4163.419c.038.334.741.067.6.313a5.312,5.312,0,0,1-1.5.936c.046-.038.09-.076.139-.115a2.342,2.342,0,0,0,.762-1.134l-.093-.061C1067.436,4163.357,1067.472,4163.373,1067.477,4163.419Z" transform="translate(-1063.193 -4161.175)" fill="#ff9a79"/>
                </g>
                <path id="Trazado_102711" data-name="Trazado 102711" d="M1116.606,4193.658c5.372,3.985,7.78,5.956,9.992,12.475-.276-9.1-9.624-16.005-9.624-16.005Z" transform="translate(-1070.159 -4154.081)" fill="#ff9a79"/>
              </g>
              <path id="Trazado_102712" data-name="Trazado 102712" d="M1122.173,4140.17c2.373.361,7.873.939,10.479,3.979s3.836,4.974,4.126,11.606-2.071,25.569-2.071,25.569a20.173,20.173,0,0,1-9.654.531,17.723,17.723,0,0,1-8.446-4l.775-15.413S1115.964,4145.89,1122.173,4140.17Z" transform="translate(-1070.159 -4140.17)" fill="#36c"/>
            </g>
            <g id="Grupo_49768" data-name="Grupo 49768" transform="translate(38.981)">
              <g id="Grupo_49767" data-name="Grupo 49767">
                <g id="Grupo_49766" data-name="Grupo 49766">
                  <g id="Grupo_49765" data-name="Grupo 49765">
                    <path id="Trazado_102713" data-name="Trazado 102713" d="M1104.676,4085.688c-1.716-3.906-4.771-3.892-4.771-3.892s-.28-3.132-4.456-6.049c-4.794-3.35-9.885-4.32-16.412-3.278-5.793.925-14.141,4.314-14.122,16.289.012,8.059,6.739,12.929,14.165,13.158a13.448,13.448,0,0,0,11.984-6.586,64.373,64.373,0,0,1,5.238,5.112l-.4,5.01,1.3,6.91s1.685-4.152,2.611-5.807,1.931-3.037,4.051-7.09A15.589,15.589,0,0,0,1104.676,4085.688Z" transform="translate(-1064.916 -4072.07)" fill="#2b454e"/>
                    <path id="Trazado_102714" data-name="Trazado 102714" d="M1096.89,4103.151c1.181,1.083,2.241-1.606,3.289-2.636s4.405-2.38,5.95,1.153c1.575,3.6-1.684,8.514-4.263,9.424a2.93,2.93,0,0,1-3.847-1.458l.082,14.983c-3.156,6.026-11.737,7.376-15.332,6.889s-4.284-4.261-1.565-7.213l-.1-4.74a23.111,23.111,0,0,1-4.646-.245c-3.3-.526-6.5-3.428-7.511-8.429-1.181-5.854-2.049-15.146-.047-23.425,3.78-2.761,17.866-3.906,25.5,1.232C1094.734,4099.817,1095.708,4102.068,1096.89,4103.151Z" transform="translate(-1065.67 -4075.588)" fill="#ffbea7"/>
                    <path id="Trazado_102715" data-name="Trazado 102715" d="M1068.428,4084.6c-2.1,3.222-3.062,8.976.874,10.988,0-3.521,1.665-6.237,3.541-6.472a4.893,4.893,0,0,0,1.343,4.962,4.623,4.623,0,0,0,3.119,1,4.288,4.288,0,0,1-.608-1.907,3.347,3.347,0,0,1,.39-1.977,8.448,8.448,0,0,0,1.3,2.209,6.155,6.155,0,0,0,4.552,1.761,5.092,5.092,0,0,1,1.8-5.521,8.624,8.624,0,0,0,2.109,3.765,11.166,11.166,0,0,0,4.01,2.206,12.544,12.544,0,0,1,3.357,1.336,2.5,2.5,0,0,1,.99,1.575,10.115,10.115,0,0,0,.042-13.927C1090.859,4075.754,1073.549,4075.665,1068.428,4084.6Z" transform="translate(-1065.371 -4073.652)" fill="#2b454e"/>
                    <path id="Trazado_102716" data-name="Trazado 102716" d="M1086.058,4130s7.207-.458,10.683-2.669a9.117,9.117,0,0,0,3.3-3.494,5.78,5.78,0,0,1-2.154,4.1c-3.4,3.133-11.829,3.757-11.829,3.757Z" transform="translate(-1070.62 -4086.036)" fill="#ff9a79"/>
                    <path id="Trazado_102717" data-name="Trazado 102717" d="M1092.163,4106.4c-.182,1.1,1.114,2.228,2.895,2.523s3.372-.354,3.555-1.451-1.113-2.228-2.894-2.525S1092.345,4105.3,1092.163,4106.4Z" transform="translate(-1072.262 -4080.921)" fill="#ff9090"/>
                    <ellipse id="Elipse_4015" data-name="Elipse 4015" cx="3.269" cy="2.015" rx="3.269" ry="2.015" transform="translate(0 24.04)" fill="#ff9090"/>
                    <g id="Grupo_49759" data-name="Grupo 49759" transform="translate(13.077 33.352)">
                      <path id="Trazado_102718" data-name="Trazado 102718" d="M1088.474,4117.745l-5.65,1.67a2.9,2.9,0,0,0,3.606,2.091A3.085,3.085,0,0,0,1088.474,4117.745Z" transform="translate(-1082.824 -4117.745)" fill="#c76668"/>
                    </g>
                    <path id="Trazado_102719" data-name="Trazado 102719" d="M1089.171,4120.11a2.479,2.479,0,0,0-3.567,1.963,2.805,2.805,0,0,0,1.577,0A3.012,3.012,0,0,0,1089.171,4120.11Z" transform="translate(-1070.497 -4084.961)" fill="#ff9090"/>
                    <g id="Grupo_49760" data-name="Grupo 49760" transform="translate(4.101 18.735)">
                      <path id="Trazado_102720" data-name="Trazado 102720" d="M1073.432,4097.728l-2.9,1.948a1.676,1.676,0,0,0,2.377.523A1.836,1.836,0,0,0,1073.432,4097.728Z" transform="translate(-1070.532 -4097.728)" fill="#1a2e35"/>
                    </g>
                    <g id="Grupo_49761" data-name="Grupo 49761" transform="translate(18.834 18.722)">
                      <path id="Trazado_102721" data-name="Trazado 102721" d="M1093.878,4099.836l-2.77-2.127a1.676,1.676,0,0,0,.261,2.42A1.835,1.835,0,0,0,1093.878,4099.836Z" transform="translate(-1090.708 -4097.709)" fill="#1a2e35"/>
                    </g>
                    <g id="Grupo_49762" data-name="Grupo 49762" transform="translate(7.472 21.427)">
                      <path id="Trazado_102722" data-name="Trazado 102722" d="M1081.8,4101.414l-1.2,10.735-5.45-2.083Z" transform="translate(-1075.149 -4101.414)" fill="#ff9a79"/>
                    </g>
                    <g id="Grupo_49763" data-name="Grupo 49763" transform="translate(17.64 22.941)">
                      <path id="Trazado_102723" data-name="Trazado 102723" d="M1092.665,4105.336c-.083.862-.673-.446-1.664-.605s-2.033.888-1.92.029a1.678,1.678,0,0,1,2.038-1.245A1.633,1.633,0,0,1,1092.665,4105.336Z" transform="translate(-1089.073 -4103.487)" fill="#1a2e35"/>
                    </g>
                    <g id="Grupo_49764" data-name="Grupo 49764" transform="translate(5.017 22.92)">
                      <path id="Trazado_102724" data-name="Trazado 102724" d="M1071.811,4105.416c.133.855.647-.484,1.626-.7s2.082.769,1.918-.082a1.676,1.676,0,0,0-2.106-1.125A1.633,1.633,0,0,0,1071.811,4105.416Z" transform="translate(-1071.787 -4103.458)" fill="#1a2e35"/>
                    </g>
                  </g>
                </g>
              </g>
            </g>
          </g>
        </g>
      </g>
    </g>
  </g>
</svg>
