<svg xmlns="http://www.w3.org/2000/svg" width="567.312" height="414.436" viewBox="0 0 567.312 414.436">
  <g id="Grupo_53051" data-name="Grupo 53051" transform="translate(8358.312 9656.437)">
    <rect id="Rectángulo_28384" data-name="Rectángulo 28384" width="152.417" height="81.978" rx="10.002" transform="translate(-8147.426 -9656.437)" fill="#36c"/>
    <path id="Rectángulo_28385" data-name="Rectángulo 28385" d="M10,0H176.067a10,10,0,0,1,10,10V90.075a10,10,0,0,1-10,10H10a10,10,0,0,1-10-10V10A10,10,0,0,1,10,0Z" transform="translate(-8164.252 -9499.258)" fill="#69f"/>
    <rect id="Rectángulo_28386" data-name="Rectángulo 28386" width="152.417" height="81.978" rx="10.002" transform="translate(-7943.417 -9490.207)" fill="#36c"/>
    <rect id="Rectángulo_28387" data-name="Rectángulo 28387" width="152.417" height="81.978" rx="10.002" transform="translate(-8358.312 -9490.207)" fill="#36c"/>
    <path id="Rectángulo_28388" data-name="Rectángulo 28388" d="M10,0H142.415a10,10,0,0,1,10,10V71.976a10,10,0,0,1-10,10H10a10,10,0,0,1-10-10V10A10,10,0,0,1,10,0Z" transform="translate(-8145.339 -9323.979)" fill="#36c"/>
    <path id="Trazado_102323" data-name="Trazado 102323" d="M837.544,3945.753a196.874,196.874,0,0,0,89.5-107.9,2.963,2.963,0,1,0-5.612-1.9,190.955,190.955,0,0,1-86.807,104.649,2.963,2.963,0,1,0,2.916,5.16Z" transform="translate(-8812.33 -13224.215)" fill="#69f"/>
    <path id="Trazado_102324" data-name="Trazado 102324" d="M594.968,3561.575a196.865,196.865,0,0,0-90.394,108.977,2.964,2.964,0,0,0,5.621,1.883,190.944,190.944,0,0,1,87.669-105.689,2.963,2.963,0,1,0-2.9-5.171Z" transform="translate(-8761.961 -13182.421)" fill="#69f"/>
    <path id="Trazado_102325" data-name="Trazado 102325" d="M504.849,3837.848a196.872,196.872,0,0,0,89.5,107.9,2.963,2.963,0,1,0,2.916-5.16,190.953,190.953,0,0,1-86.808-104.649,2.963,2.963,0,1,0-5.612,1.9Z" transform="translate(-8762.003 -13224.215)" fill="#69f"/>
    <path id="Trazado_102326" data-name="Trazado 102326" d="M927.164,3670.552a196.865,196.865,0,0,0-90.393-108.977,2.964,2.964,0,0,0-2.9,5.172,190.94,190.94,0,0,1,87.67,105.688,2.964,2.964,0,0,0,5.621-1.883Z" transform="translate(-8812.213 -13182.421)" fill="#69f"/>
    <path id="Trazado_102327" data-name="Trazado 102327" d="M664.982,3545.142h-2.545v4.384H661V3538.69h3.587a4.243,4.243,0,0,1,2.816.833,3,3,0,0,1,.986,2.426,2.92,2.92,0,0,1-.546,1.764,3.269,3.269,0,0,1-1.523,1.124l2.545,4.6v.09h-1.534Zm-2.545-1.168h2.2a2.476,2.476,0,0,0,1.694-.552,1.866,1.866,0,0,0,.628-1.476,1.963,1.963,0,0,0-.6-1.543,2.533,2.533,0,0,0-1.731-.544h-2.188Z" transform="translate(-8785.955 -13178.973)" fill="#fff"/>
    <path id="Trazado_102328" data-name="Trazado 102328" d="M675.116,3550.151a3.516,3.516,0,0,1-2.664-1.075,3.99,3.99,0,0,1-1.027-2.876v-.253a4.833,4.833,0,0,1,.457-2.139,3.57,3.57,0,0,1,1.28-1.474,3.215,3.215,0,0,1,1.782-.532,3.016,3.016,0,0,1,2.441,1.035,4.48,4.48,0,0,1,.87,2.962v.572H672.8a2.856,2.856,0,0,0,.7,1.924,2.181,2.181,0,0,0,1.693.733,2.4,2.4,0,0,0,1.235-.3,3.118,3.118,0,0,0,.886-.789l.841.654A3.38,3.38,0,0,1,675.116,3550.151Zm-.171-7.219a1.837,1.837,0,0,0-1.4.606,2.948,2.948,0,0,0-.7,1.7h4.034v-.1a2.618,2.618,0,0,0-.566-1.626A1.728,1.728,0,0,0,674.945,3542.932Z" transform="translate(-8787.553 -13179.449)" fill="#fff"/>
    <path id="Trazado_102329" data-name="Trazado 102329" d="M684.539,3549.027a1.987,1.987,0,0,0,1.288-.446,1.572,1.572,0,0,0,.61-1.117h1.3a2.5,2.5,0,0,1-.477,1.318,3.131,3.131,0,0,1-1.173,1,3.379,3.379,0,0,1-1.551.372,3.318,3.318,0,0,1-2.616-1.1,4.374,4.374,0,0,1-.971-3v-.231a4.848,4.848,0,0,1,.432-2.092,3.288,3.288,0,0,1,1.239-1.421,3.516,3.516,0,0,1,1.909-.506,3.231,3.231,0,0,1,2.252.811,2.9,2.9,0,0,1,.956,2.106h-1.3a1.9,1.9,0,0,0-.592-1.284,1.843,1.843,0,0,0-1.313-.5,1.927,1.927,0,0,0-1.627.755,3.551,3.551,0,0,0-.577,2.185v.26a3.475,3.475,0,0,0,.573,2.143A1.935,1.935,0,0,0,684.539,3549.027Z" transform="translate(-8789.013 -13179.449)" fill="#fff"/>
    <path id="Trazado_102330" data-name="Trazado 102330" d="M690.365,3545.9a4.746,4.746,0,0,1,.466-2.129,3.467,3.467,0,0,1,1.295-1.459,3.527,3.527,0,0,1,1.894-.513,3.4,3.4,0,0,1,2.661,1.139,4.383,4.383,0,0,1,1.015,3.029v.1a4.808,4.808,0,0,1-.45,2.11,3.422,3.422,0,0,1-1.288,1.455,3.565,3.565,0,0,1-1.924.521,3.387,3.387,0,0,1-2.653-1.138,4.359,4.359,0,0,1-1.016-3.014Zm1.385.163a3.446,3.446,0,0,0,.621,2.151,2.107,2.107,0,0,0,3.331-.011,3.77,3.77,0,0,0,.617-2.3,3.443,3.443,0,0,0-.629-2.148,2,2,0,0,0-1.67-.822,1.977,1.977,0,0,0-1.645.811A3.741,3.741,0,0,0,691.75,3546.065Z" transform="translate(-8790.455 -13179.449)" fill="#fff"/>
    <path id="Trazado_102331" data-name="Trazado 102331" d="M702.364,3541.95l.044,1.012a2.936,2.936,0,0,1,2.412-1.161q2.553,0,2.575,2.88V3550h-1.377v-5.329a1.849,1.849,0,0,0-.4-1.288,1.592,1.592,0,0,0-1.216-.417,1.984,1.984,0,0,0-1.176.357,2.429,2.429,0,0,0-.789.937V3550h-1.376v-8.053Z" transform="translate(-8792.094 -13179.449)" fill="#fff"/>
    <path id="Trazado_102332" data-name="Trazado 102332" d="M710.562,3545.9a4.748,4.748,0,0,1,.466-2.129,3.468,3.468,0,0,1,1.3-1.459,3.522,3.522,0,0,1,1.893-.513,3.4,3.4,0,0,1,2.661,1.139,4.384,4.384,0,0,1,1.016,3.029v.1a4.808,4.808,0,0,1-.45,2.11,3.421,3.421,0,0,1-1.288,1.455,3.565,3.565,0,0,1-1.924.521,3.385,3.385,0,0,1-2.652-1.138,4.355,4.355,0,0,1-1.017-3.014Zm1.384.163a3.441,3.441,0,0,0,.621,2.151,2.106,2.106,0,0,0,3.33-.011,3.763,3.763,0,0,0,.618-2.3,3.443,3.443,0,0,0-.629-2.148,2,2,0,0,0-1.671-.822,1.975,1.975,0,0,0-1.644.811A3.736,3.736,0,0,0,711.947,3546.065Z" transform="translate(-8793.55 -13179.449)" fill="#fff"/>
    <path id="Trazado_102333" data-name="Trazado 102333" d="M724.424,3549.027a1.989,1.989,0,0,0,1.288-.446,1.571,1.571,0,0,0,.61-1.117h1.3a2.5,2.5,0,0,1-.477,1.318,3.145,3.145,0,0,1-1.173,1,3.379,3.379,0,0,1-1.551.372,3.32,3.32,0,0,1-2.617-1.1,4.378,4.378,0,0,1-.97-3v-.231a4.849,4.849,0,0,1,.432-2.092,3.288,3.288,0,0,1,1.239-1.421,3.514,3.514,0,0,1,1.909-.506,3.232,3.232,0,0,1,2.252.811,2.9,2.9,0,0,1,.956,2.106h-1.3a1.9,1.9,0,0,0-.591-1.284,1.845,1.845,0,0,0-1.314-.5,1.926,1.926,0,0,0-1.626.755,3.545,3.545,0,0,0-.577,2.185v.26a3.47,3.47,0,0,0,.573,2.143A1.934,1.934,0,0,0,724.424,3549.027Z" transform="translate(-8795.124 -13179.449)" fill="#fff"/>
    <path id="Trazado_102334" data-name="Trazado 102334" d="M730.689,3539.31a.824.824,0,0,1,.2-.566.77.77,0,0,1,.606-.23.782.782,0,0,1,.611.23.816.816,0,0,1,.208.566.784.784,0,0,1-.208.558.793.793,0,0,1-.611.224.781.781,0,0,1-.606-.224A.792.792,0,0,1,730.689,3539.31Zm1.489,10.189H730.8v-8.053h1.377Z" transform="translate(-8796.634 -13178.945)" fill="#fff"/>
    <path id="Trazado_102335" data-name="Trazado 102335" d="M736.342,3541.95l.037.892a2.974,2.974,0,0,1,2.389-1.042,2.3,2.3,0,0,1,2.3,1.295,3.049,3.049,0,0,1,1.047-.937,3.085,3.085,0,0,1,1.521-.357q2.649,0,2.694,2.805v5.4h-1.377v-5.315a1.846,1.846,0,0,0-.395-1.291,1.736,1.736,0,0,0-1.324-.428,1.827,1.827,0,0,0-1.273.457,1.856,1.856,0,0,0-.588,1.232V3550h-1.384v-5.277a1.536,1.536,0,0,0-1.72-1.756,1.842,1.842,0,0,0-1.853,1.153V3550H735.04v-8.053Z" transform="translate(-8797.301 -13179.449)" fill="#fff"/>
    <path id="Trazado_102336" data-name="Trazado 102336" d="M750.834,3539.31a.824.824,0,0,1,.2-.566.772.772,0,0,1,.607-.23.784.784,0,0,1,.611.23.816.816,0,0,1,.208.566.784.784,0,0,1-.208.558.8.8,0,0,1-.611.224.783.783,0,0,1-.607-.224A.792.792,0,0,1,750.834,3539.31Zm1.489,10.189h-1.377v-8.053h1.377Z" transform="translate(-8799.721 -13178.945)" fill="#fff"/>
    <path id="Trazado_102337" data-name="Trazado 102337" d="M758.472,3550.151a3.52,3.52,0,0,1-2.665-1.075,3.993,3.993,0,0,1-1.027-2.876v-.253a4.844,4.844,0,0,1,.457-2.139,3.582,3.582,0,0,1,1.28-1.474,3.217,3.217,0,0,1,1.782-.532,3.014,3.014,0,0,1,2.441,1.035,4.475,4.475,0,0,1,.871,2.962v.572h-5.456a2.861,2.861,0,0,0,.7,1.924,2.184,2.184,0,0,0,1.694.733,2.4,2.4,0,0,0,1.235-.3,3.1,3.1,0,0,0,.885-.789l.842.654A3.381,3.381,0,0,1,758.472,3550.151Zm-.172-7.219a1.838,1.838,0,0,0-1.4.606,2.948,2.948,0,0,0-.7,1.7h4.034v-.1a2.624,2.624,0,0,0-.566-1.626A1.731,1.731,0,0,0,758.3,3542.932Z" transform="translate(-8800.325 -13179.449)" fill="#fff"/>
    <path id="Trazado_102338" data-name="Trazado 102338" d="M766.032,3541.95l.044,1.012a2.935,2.935,0,0,1,2.412-1.161q2.553,0,2.575,2.88V3550h-1.377v-5.329a1.849,1.849,0,0,0-.4-1.288,1.592,1.592,0,0,0-1.216-.417,1.984,1.984,0,0,0-1.176.357,2.43,2.43,0,0,0-.789.937V3550h-1.377v-8.053Z" transform="translate(-8801.851 -13179.449)" fill="#fff"/>
    <path id="Trazado_102339" data-name="Trazado 102339" d="M776.353,3539.674v1.95h1.5v1.064h-1.5v5a1.121,1.121,0,0,0,.2.728.849.849,0,0,0,.685.241,3.35,3.35,0,0,0,.655-.089v1.109a4.008,4.008,0,0,1-1.058.148,1.712,1.712,0,0,1-1.391-.558,2.4,2.4,0,0,1-.469-1.585v-4.994H773.51v-1.064h1.466v-1.95Z" transform="translate(-8803.195 -13179.123)" fill="#fff"/>
    <path id="Trazado_102340" data-name="Trazado 102340" d="M779.948,3545.9a4.749,4.749,0,0,1,.466-2.129,3.467,3.467,0,0,1,1.295-1.459,3.527,3.527,0,0,1,1.894-.513,3.4,3.4,0,0,1,2.661,1.139,4.383,4.383,0,0,1,1.015,3.029v.1a4.807,4.807,0,0,1-.45,2.11,3.422,3.422,0,0,1-1.288,1.455,3.565,3.565,0,0,1-1.924.521,3.387,3.387,0,0,1-2.653-1.138,4.359,4.359,0,0,1-1.016-3.014Zm1.384.163a3.446,3.446,0,0,0,.621,2.151,2.107,2.107,0,0,0,3.331-.011,3.77,3.77,0,0,0,.617-2.3,3.443,3.443,0,0,0-.629-2.148,2,2,0,0,0-1.67-.822,1.977,1.977,0,0,0-1.645.811A3.742,3.742,0,0,0,781.332,3546.065Z" transform="translate(-8804.183 -13179.449)" fill="#fff"/>
    <path id="Trazado_102341" data-name="Trazado 102341" d="M667.19,3570.627a1.982,1.982,0,0,0,1.287-.446,1.572,1.572,0,0,0,.611-1.116h1.3a2.5,2.5,0,0,1-.476,1.317,3.142,3.142,0,0,1-1.173,1,3.379,3.379,0,0,1-1.551.372,3.32,3.32,0,0,1-2.617-1.1,4.373,4.373,0,0,1-.97-3v-.231a4.846,4.846,0,0,1,.431-2.092,3.285,3.285,0,0,1,1.239-1.421,3.52,3.52,0,0,1,1.909-.507,3.231,3.231,0,0,1,2.252.811,2.9,2.9,0,0,1,.956,2.106h-1.3a1.9,1.9,0,0,0-.591-1.283,1.845,1.845,0,0,0-1.314-.5,1.928,1.928,0,0,0-1.627.755,3.55,3.55,0,0,0-.577,2.185v.26a3.479,3.479,0,0,0,.573,2.144A1.938,1.938,0,0,0,667.19,3570.627Z" transform="translate(-8786.354 -13182.759)" fill="#fff"/>
    <path id="Trazado_102342" data-name="Trazado 102342" d="M673.016,3567.5a4.749,4.749,0,0,1,.465-2.129,3.466,3.466,0,0,1,1.3-1.459,3.52,3.52,0,0,1,1.893-.513,3.4,3.4,0,0,1,2.661,1.139,4.386,4.386,0,0,1,1.015,3.029v.1a4.814,4.814,0,0,1-.45,2.11,3.424,3.424,0,0,1-1.289,1.455,3.562,3.562,0,0,1-1.923.521,3.386,3.386,0,0,1-2.653-1.138,4.355,4.355,0,0,1-1.016-3.014Zm1.384.164a3.445,3.445,0,0,0,.621,2.151,2.106,2.106,0,0,0,3.33-.011,3.763,3.763,0,0,0,.618-2.3,3.441,3.441,0,0,0-.629-2.147,2,2,0,0,0-1.671-.822,1.975,1.975,0,0,0-1.644.811A3.735,3.735,0,0,0,674.4,3567.665Z" transform="translate(-8787.797 -13182.759)" fill="#fff"/>
    <path id="Trazado_102343" data-name="Trazado 102343" d="M685.005,3563.55l.037.893a2.973,2.973,0,0,1,2.389-1.042,2.3,2.3,0,0,1,2.3,1.295,3.045,3.045,0,0,1,1.047-.937,3.082,3.082,0,0,1,1.521-.358q2.65,0,2.694,2.807v5.4h-1.377v-5.314a1.848,1.848,0,0,0-.395-1.291,1.735,1.735,0,0,0-1.324-.428,1.825,1.825,0,0,0-1.273.457,1.856,1.856,0,0,0-.588,1.232v5.344h-1.384v-5.277a1.536,1.536,0,0,0-1.719-1.756,1.843,1.843,0,0,0-1.854,1.153v5.88H683.7v-8.053Z" transform="translate(-8789.434 -13182.759)" fill="#fff"/>
    <path id="Trazado_102344" data-name="Trazado 102344" d="M699.058,3567.5a4.749,4.749,0,0,1,.465-2.129,3.466,3.466,0,0,1,1.3-1.459,3.52,3.52,0,0,1,1.893-.513,3.4,3.4,0,0,1,2.661,1.139,4.386,4.386,0,0,1,1.015,3.029v.1a4.814,4.814,0,0,1-.45,2.11,3.424,3.424,0,0,1-1.289,1.455,3.562,3.562,0,0,1-1.923.521,3.387,3.387,0,0,1-2.653-1.138,4.355,4.355,0,0,1-1.016-3.014Zm1.384.164a3.444,3.444,0,0,0,.622,2.151,2.106,2.106,0,0,0,3.33-.011,3.763,3.763,0,0,0,.618-2.3,3.441,3.441,0,0,0-.629-2.147,2,2,0,0,0-1.671-.822,1.975,1.975,0,0,0-1.644.811A3.734,3.734,0,0,0,700.442,3567.665Z" transform="translate(-8791.787 -13182.759)" fill="#fff"/>
    <path id="Trazado_102345" data-name="Trazado 102345" d="M718.838,3569.466a1.015,1.015,0,0,0-.42-.867,4.053,4.053,0,0,0-1.467-.532,6.926,6.926,0,0,1-1.659-.536,2.352,2.352,0,0,1-.909-.744,1.777,1.777,0,0,1-.294-1.027,2.09,2.09,0,0,1,.837-1.674,3.272,3.272,0,0,1,2.14-.685,3.362,3.362,0,0,1,2.221.707,2.247,2.247,0,0,1,.853,1.809h-1.384a1.241,1.241,0,0,0-.48-.975,1.8,1.8,0,0,0-1.209-.409,1.879,1.879,0,0,0-1.175.328,1.03,1.03,0,0,0-.424.855.835.835,0,0,0,.394.752,4.859,4.859,0,0,0,1.426.484,7.448,7.448,0,0,1,1.671.551,2.448,2.448,0,0,1,.949.77,1.9,1.9,0,0,1,.308,1.1,2.06,2.06,0,0,1-.864,1.73,3.616,3.616,0,0,1-2.24.651,4.042,4.042,0,0,1-1.711-.342,2.772,2.772,0,0,1-1.164-.956,2.3,2.3,0,0,1-.422-1.329h1.377a1.425,1.425,0,0,0,.555,1.1,2.149,2.149,0,0,0,1.366.405,2.217,2.217,0,0,0,1.253-.316A.972.972,0,0,0,718.838,3569.466Z" transform="translate(-8794.048 -13182.759)" fill="#fff"/>
    <path id="Trazado_102346" data-name="Trazado 102346" d="M728.457,3570.833a2.924,2.924,0,0,1-2.359.945,2.5,2.5,0,0,1-1.96-.748,3.231,3.231,0,0,1-.682-2.214v-5.239h1.377v5.2q0,1.831,1.489,1.831a2.06,2.06,0,0,0,2.1-1.176v-5.857H729.8v8.053h-1.31Z" transform="translate(-8795.525 -13182.786)" fill="#fff"/>
    <path id="Trazado_102347" data-name="Trazado 102347" d="M734.56,3563.046v8.982q0,2.322-2.107,2.322a2.568,2.568,0,0,1-.841-.133v-1.095a2.672,2.672,0,0,0,.626.06.94.94,0,0,0,.7-.25,1.241,1.241,0,0,0,.241-.868v-9.019Zm-1.518-2.136a.824.824,0,0,1,.2-.561.751.751,0,0,1,.6-.235.783.783,0,0,1,.61.23.816.816,0,0,1,.208.566.788.788,0,0,1-.208.559.8.8,0,0,1-.61.223.773.773,0,0,1-.6-.223A.806.806,0,0,1,733.041,3560.91Z" transform="translate(-8796.775 -13182.256)" fill="#fff"/>
    <path id="Trazado_102348" data-name="Trazado 102348" d="M740.99,3571.751a3.516,3.516,0,0,1-2.664-1.075,3.99,3.99,0,0,1-1.027-2.876v-.252a4.833,4.833,0,0,1,.457-2.14,3.57,3.57,0,0,1,1.28-1.474,3.223,3.223,0,0,1,1.782-.532,3.016,3.016,0,0,1,2.441,1.035,4.48,4.48,0,0,1,.87,2.962v.573h-5.455a2.859,2.859,0,0,0,.7,1.924,2.184,2.184,0,0,0,1.693.732,2.4,2.4,0,0,0,1.235-.3,3.108,3.108,0,0,0,.886-.789l.841.655A3.381,3.381,0,0,1,740.99,3571.751Zm-.171-7.219a1.837,1.837,0,0,0-1.4.606,2.942,2.942,0,0,0-.7,1.7h4.033v-.1a2.621,2.621,0,0,0-.566-1.627A1.728,1.728,0,0,0,740.819,3564.532Z" transform="translate(-8797.647 -13182.759)" fill="#fff"/>
    <path id="Trazado_102349" data-name="Trazado 102349" d="M748.94,3561.274v1.95h1.5v1.064h-1.5v5a1.116,1.116,0,0,0,.2.727.846.846,0,0,0,.685.242,3.342,3.342,0,0,0,.655-.089v1.11a4.025,4.025,0,0,1-1.057.147,1.713,1.713,0,0,1-1.391-.558,2.4,2.4,0,0,1-.469-1.585v-4.993H746.1v-1.064h1.466v-1.95Z" transform="translate(-8798.995 -13182.434)" fill="#fff"/>
    <path id="Trazado_102350" data-name="Trazado 102350" d="M752.535,3567.5a4.75,4.75,0,0,1,.466-2.129,3.465,3.465,0,0,1,1.295-1.459,3.525,3.525,0,0,1,1.894-.513,3.4,3.4,0,0,1,2.66,1.139,4.382,4.382,0,0,1,1.015,3.029v.1a4.8,4.8,0,0,1-.45,2.11,3.416,3.416,0,0,1-1.288,1.455,3.565,3.565,0,0,1-1.924.521,3.387,3.387,0,0,1-2.653-1.138,4.36,4.36,0,0,1-1.016-3.014Zm1.384.164a3.444,3.444,0,0,0,.621,2.151,2.107,2.107,0,0,0,3.331-.011,3.768,3.768,0,0,0,.617-2.3,3.441,3.441,0,0,0-.629-2.147,2,2,0,0,0-1.67-.822,1.976,1.976,0,0,0-1.645.811A3.74,3.74,0,0,0,753.919,3567.665Z" transform="translate(-8799.981 -13182.759)" fill="#fff"/>
    <path id="Trazado_102351" data-name="Trazado 102351" d="M767.292,3566.925a4.718,4.718,0,0,1,.878-2.98,2.987,2.987,0,0,1,4.539-.16v-4.2h1.377v11.431h-1.265l-.067-.863a2.8,2.8,0,0,1-2.3,1.012,2.748,2.748,0,0,1-2.28-1.146,4.767,4.767,0,0,1-.882-2.992Zm1.377.156a3.573,3.573,0,0,0,.566,2.143,1.826,1.826,0,0,0,1.563.774,2.006,2.006,0,0,0,1.912-1.175v-3.7a2.023,2.023,0,0,0-1.9-1.139,1.837,1.837,0,0,0-1.578.781A3.933,3.933,0,0,0,768.669,3567.081Z" transform="translate(-8802.243 -13182.175)" fill="#fff"/>
    <path id="Trazado_102352" data-name="Trazado 102352" d="M781.117,3571.751a3.516,3.516,0,0,1-2.664-1.075,3.99,3.99,0,0,1-1.027-2.876v-.252a4.834,4.834,0,0,1,.457-2.14,3.57,3.57,0,0,1,1.28-1.474,3.223,3.223,0,0,1,1.782-.532,3.016,3.016,0,0,1,2.441,1.035,4.48,4.48,0,0,1,.87,2.962v.573H778.8a2.86,2.86,0,0,0,.7,1.924,2.184,2.184,0,0,0,1.693.732,2.4,2.4,0,0,0,1.235-.3,3.109,3.109,0,0,0,.886-.789l.841.655A3.381,3.381,0,0,1,781.117,3571.751Zm-.171-7.219a1.837,1.837,0,0,0-1.4.606,2.948,2.948,0,0,0-.7,1.7h4.034v-.1a2.621,2.621,0,0,0-.566-1.627A1.728,1.728,0,0,0,780.946,3564.532Z" transform="translate(-8803.796 -13182.759)" fill="#fff"/>
    <path id="Trazado_102353" data-name="Trazado 102353" d="M688.282,3588.525a4.717,4.717,0,0,1,.878-2.98,2.988,2.988,0,0,1,4.54-.16v-4.2h1.377v11.431h-1.266l-.067-.864a2.8,2.8,0,0,1-2.3,1.012,2.751,2.751,0,0,1-2.281-1.146,4.768,4.768,0,0,1-.882-2.992Zm1.377.156a3.576,3.576,0,0,0,.566,2.144,1.83,1.83,0,0,0,1.563.774,2.01,2.01,0,0,0,1.913-1.176v-3.7a2.025,2.025,0,0,0-1.9-1.139,1.838,1.838,0,0,0-1.578.781A3.933,3.933,0,0,0,689.659,3588.681Z" transform="translate(-8790.136 -13185.484)" fill="#fff"/>
    <path id="Trazado_102354" data-name="Trazado 102354" d="M702.107,3593.351a3.516,3.516,0,0,1-2.664-1.075,3.988,3.988,0,0,1-1.027-2.876v-.252a4.847,4.847,0,0,1,.457-2.14,3.573,3.573,0,0,1,1.28-1.473,3.217,3.217,0,0,1,1.782-.532,3.016,3.016,0,0,1,2.441,1.034,4.476,4.476,0,0,1,.87,2.962v.573h-5.455a2.86,2.86,0,0,0,.7,1.924,2.186,2.186,0,0,0,1.693.732,2.4,2.4,0,0,0,1.235-.3,3.108,3.108,0,0,0,.886-.79l.841.656A3.382,3.382,0,0,1,702.107,3593.351Zm-.171-7.219a1.837,1.837,0,0,0-1.4.606,2.95,2.95,0,0,0-.7,1.7h4.033v-.1a2.614,2.614,0,0,0-.566-1.626A1.728,1.728,0,0,0,701.936,3586.132Z" transform="translate(-8791.688 -13186.068)" fill="#fff"/>
    <path id="Trazado_102355" data-name="Trazado 102355" d="M712.258,3586.385a4.134,4.134,0,0,0-.677-.052,1.815,1.815,0,0,0-1.838,1.154v5.716h-1.377v-8.052h1.34l.023.93a2.143,2.143,0,0,1,1.92-1.079,1.4,1.4,0,0,1,.61.1Z" transform="translate(-8793.213 -13186.068)" fill="#fff"/>
    <path id="Trazado_102356" data-name="Trazado 102356" d="M717.572,3593.351a3.515,3.515,0,0,1-2.664-1.075,3.987,3.987,0,0,1-1.027-2.876v-.252a4.847,4.847,0,0,1,.457-2.14,3.573,3.573,0,0,1,1.28-1.473A3.218,3.218,0,0,1,717.4,3585a3.017,3.017,0,0,1,2.441,1.034,4.481,4.481,0,0,1,.87,2.962v.573h-5.455a2.861,2.861,0,0,0,.7,1.924,2.186,2.186,0,0,0,1.693.732,2.4,2.4,0,0,0,1.235-.3,3.107,3.107,0,0,0,.886-.79l.841.656A3.382,3.382,0,0,1,717.572,3593.351Zm-.171-7.219a1.837,1.837,0,0,0-1.4.606,2.945,2.945,0,0,0-.7,1.7h4.033v-.1a2.619,2.619,0,0,0-.566-1.626A1.728,1.728,0,0,0,717.4,3586.132Z" transform="translate(-8794.059 -13186.068)" fill="#fff"/>
    <path id="Trazado_102357" data-name="Trazado 102357" d="M727,3592.227a1.98,1.98,0,0,0,1.287-.446,1.571,1.571,0,0,0,.61-1.116h1.3a2.49,2.49,0,0,1-.477,1.317,3.138,3.138,0,0,1-1.172,1,3.383,3.383,0,0,1-1.551.372,3.32,3.32,0,0,1-2.616-1.1,4.374,4.374,0,0,1-.971-3v-.231a4.841,4.841,0,0,1,.432-2.091,3.283,3.283,0,0,1,1.239-1.422,3.518,3.518,0,0,1,1.909-.506,3.232,3.232,0,0,1,2.252.811,2.9,2.9,0,0,1,.956,2.106h-1.3a1.9,1.9,0,0,0-.592-1.284,1.842,1.842,0,0,0-1.313-.5,1.927,1.927,0,0,0-1.627.755,3.55,3.55,0,0,0-.577,2.185v.26a3.481,3.481,0,0,0,.573,2.144A1.938,1.938,0,0,0,727,3592.227Z" transform="translate(-8795.519 -13186.068)" fill="#fff"/>
    <path id="Trazado_102358" data-name="Trazado 102358" d="M734.629,3585.54a2.929,2.929,0,0,1,2.381-1.124q2.553,0,2.575,2.881v5.321h-1.377v-5.329a1.849,1.849,0,0,0-.4-1.288,1.6,1.6,0,0,0-1.217-.417,1.986,1.986,0,0,0-1.175.357,2.423,2.423,0,0,0-.789.937v5.739h-1.377v-11.431h1.377Z" transform="translate(-8797.026 -13185.484)" fill="#fff"/>
    <path id="Trazado_102359" data-name="Trazado 102359" d="M742.735,3589.1a4.746,4.746,0,0,1,.466-2.129,3.456,3.456,0,0,1,1.295-1.458,3.519,3.519,0,0,1,1.894-.514,3.4,3.4,0,0,1,2.661,1.139,4.385,4.385,0,0,1,1.016,3.029v.1a4.8,4.8,0,0,1-.451,2.11,3.42,3.42,0,0,1-1.288,1.455,3.563,3.563,0,0,1-1.924.521,3.384,3.384,0,0,1-2.652-1.138,4.355,4.355,0,0,1-1.017-3.015Zm1.384.163a3.444,3.444,0,0,0,.621,2.151,2.107,2.107,0,0,0,3.331-.011,3.768,3.768,0,0,0,.618-2.3,3.436,3.436,0,0,0-.63-2.147,2,2,0,0,0-1.67-.822,1.978,1.978,0,0,0-1.645.811A3.741,3.741,0,0,0,744.119,3589.265Z" transform="translate(-8798.479 -13186.068)" fill="#fff"/>
    <path id="Trazado_102360" data-name="Trazado 102360" d="M758.06,3591.066a1.017,1.017,0,0,0-.42-.867,4.074,4.074,0,0,0-1.468-.531,6.942,6.942,0,0,1-1.659-.536,2.344,2.344,0,0,1-.908-.744,1.777,1.777,0,0,1-.295-1.027,2.089,2.089,0,0,1,.837-1.674,3.273,3.273,0,0,1,2.14-.685,3.362,3.362,0,0,1,2.221.707,2.247,2.247,0,0,1,.853,1.809h-1.384a1.243,1.243,0,0,0-.48-.975,1.8,1.8,0,0,0-1.209-.409,1.882,1.882,0,0,0-1.176.328,1.031,1.031,0,0,0-.424.856.836.836,0,0,0,.395.751,4.861,4.861,0,0,0,1.426.484,7.406,7.406,0,0,1,1.67.55,2.439,2.439,0,0,1,.949.771,1.893,1.893,0,0,1,.309,1.1,2.058,2.058,0,0,1-.864,1.73,3.619,3.619,0,0,1-2.24.651,4.048,4.048,0,0,1-1.712-.342,2.775,2.775,0,0,1-1.164-.956,2.3,2.3,0,0,1-.421-1.329h1.377a1.423,1.423,0,0,0,.554,1.1,2.152,2.152,0,0,0,1.367.406,2.219,2.219,0,0,0,1.253-.316A.973.973,0,0,0,758.06,3591.066Z" transform="translate(-8800.059 -13186.068)" fill="#fff"/>
    <path id="Trazado_102361" data-name="Trazado 102361" d="M673.388,3947.945v4.242h-1.429v-10.836h4a4.013,4.013,0,0,1,2.787.907,3.079,3.079,0,0,1,1.009,2.4,3.043,3.043,0,0,1-.986,2.431,4.2,4.2,0,0,1-2.825.852Zm0-1.169h2.567a2.564,2.564,0,0,0,1.756-.54,1.976,1.976,0,0,0,.611-1.562,2.039,2.039,0,0,0-.611-1.55,2.4,2.4,0,0,0-1.674-.6h-2.65Z" transform="translate(-8787.635 -13240.676)" fill="#fff"/>
    <path id="Trazado_102362" data-name="Trazado 102362" d="M686.953,3945.846a4.134,4.134,0,0,0-.677-.052,1.815,1.815,0,0,0-1.838,1.154v5.716H683.06v-8.053h1.34l.022.931a2.145,2.145,0,0,1,1.92-1.08,1.407,1.407,0,0,1,.611.1Z" transform="translate(-8789.335 -13241.152)" fill="#fff"/>
    <path id="Trazado_102363" data-name="Trazado 102363" d="M692.267,3952.812a3.516,3.516,0,0,1-2.664-1.075,3.989,3.989,0,0,1-1.027-2.876v-.252a4.834,4.834,0,0,1,.457-2.14,3.57,3.57,0,0,1,1.279-1.474,3.224,3.224,0,0,1,1.783-.532,3.016,3.016,0,0,1,2.441,1.035,4.48,4.48,0,0,1,.87,2.962v.573h-5.455a2.86,2.86,0,0,0,.7,1.924,2.183,2.183,0,0,0,1.693.732,2.4,2.4,0,0,0,1.235-.3,3.121,3.121,0,0,0,.886-.789l.841.656A3.381,3.381,0,0,1,692.267,3952.812Zm-.171-7.218a1.837,1.837,0,0,0-1.4.606,2.948,2.948,0,0,0-.7,1.7h4.034v-.1a2.619,2.619,0,0,0-.566-1.626A1.727,1.727,0,0,0,692.1,3945.594Z" transform="translate(-8790.181 -13241.152)" fill="#fff"/>
    <path id="Trazado_102364" data-name="Trazado 102364" d="M700.93,3950.823l1.995-6.185h1.406l-2.888,8.053h-1.05l-2.917-8.053h1.406Z" transform="translate(-8791.545 -13241.18)" fill="#fff"/>
    <path id="Trazado_102365" data-name="Trazado 102365" d="M710.306,3952.812a3.516,3.516,0,0,1-2.664-1.075,3.988,3.988,0,0,1-1.027-2.876v-.252a4.833,4.833,0,0,1,.457-2.14,3.57,3.57,0,0,1,1.279-1.474,3.224,3.224,0,0,1,1.783-.532,3.016,3.016,0,0,1,2.441,1.035,4.48,4.48,0,0,1,.87,2.962v.573h-5.455a2.861,2.861,0,0,0,.7,1.924,2.183,2.183,0,0,0,1.693.732,2.4,2.4,0,0,0,1.235-.3,3.12,3.12,0,0,0,.886-.789l.841.656A3.381,3.381,0,0,1,710.306,3952.812Zm-.171-7.218a1.837,1.837,0,0,0-1.4.606,2.949,2.949,0,0,0-.7,1.7h4.034v-.1a2.62,2.62,0,0,0-.566-1.626A1.727,1.727,0,0,0,710.135,3945.594Z" transform="translate(-8792.945 -13241.152)" fill="#fff"/>
    <path id="Trazado_102366" data-name="Trazado 102366" d="M717.866,3944.611l.045,1.012a2.933,2.933,0,0,1,2.411-1.161q2.553,0,2.575,2.88v5.322H721.52v-5.329a1.85,1.85,0,0,0-.4-1.288,1.6,1.6,0,0,0-1.217-.417,1.986,1.986,0,0,0-1.175.357,2.421,2.421,0,0,0-.789.938v5.738h-1.377v-8.053Z" transform="translate(-8794.47 -13241.152)" fill="#fff"/>
    <path id="Trazado_102367" data-name="Trazado 102367" d="M729.661,3951.688a1.986,1.986,0,0,0,1.288-.446,1.573,1.573,0,0,0,.61-1.116h1.3a2.489,2.489,0,0,1-.476,1.316,3.142,3.142,0,0,1-1.173,1,3.382,3.382,0,0,1-1.551.371,3.319,3.319,0,0,1-2.616-1.1,4.377,4.377,0,0,1-.97-3v-.231a4.858,4.858,0,0,1,.431-2.091,3.288,3.288,0,0,1,1.239-1.421,3.516,3.516,0,0,1,1.909-.507,3.229,3.229,0,0,1,2.252.811,2.9,2.9,0,0,1,.956,2.106h-1.3a1.9,1.9,0,0,0-.591-1.284,1.846,1.846,0,0,0-1.314-.5,1.927,1.927,0,0,0-1.627.755,3.549,3.549,0,0,0-.576,2.185v.26a3.478,3.478,0,0,0,.572,2.144A1.939,1.939,0,0,0,729.661,3951.688Z" transform="translate(-8795.927 -13241.152)" fill="#fff"/>
    <path id="Trazado_102368" data-name="Trazado 102368" d="M735.926,3941.971a.824.824,0,0,1,.2-.566.774.774,0,0,1,.607-.23.782.782,0,0,1,.61.23.815.815,0,0,1,.208.566.788.788,0,0,1-.208.559.8.8,0,0,1-.61.223.737.737,0,0,1-.811-.781Zm1.489,10.189h-1.377v-8.053h1.377Z" transform="translate(-8797.437 -13240.648)" fill="#fff"/>
    <path id="Trazado_102369" data-name="Trazado 102369" d="M739.855,3947.979a4.747,4.747,0,0,1,.466-2.129,3.457,3.457,0,0,1,1.295-1.458,3.518,3.518,0,0,1,1.893-.514,3.4,3.4,0,0,1,2.661,1.139,4.383,4.383,0,0,1,1.015,3.029v.1a4.813,4.813,0,0,1-.45,2.11,3.418,3.418,0,0,1-1.289,1.455,3.562,3.562,0,0,1-1.923.521,3.386,3.386,0,0,1-2.653-1.138,4.355,4.355,0,0,1-1.016-3.015Zm1.384.164a3.445,3.445,0,0,0,.621,2.151,2.107,2.107,0,0,0,3.331-.011,3.768,3.768,0,0,0,.617-2.3,3.441,3.441,0,0,0-.629-2.147,2,2,0,0,0-1.671-.822,1.976,1.976,0,0,0-1.644.811A3.742,3.742,0,0,0,741.239,3948.142Zm2.9-7.494H745.8l-1.994,2.188-1.109,0Z" transform="translate(-8798.038 -13240.568)" fill="#fff"/>
    <path id="Trazado_102370" data-name="Trazado 102370" d="M751.853,3944.611l.045,1.012a2.935,2.935,0,0,1,2.412-1.161q2.552,0,2.575,2.88v5.322h-1.377v-5.329a1.85,1.85,0,0,0-.4-1.288,1.6,1.6,0,0,0-1.216-.417,1.987,1.987,0,0,0-1.176.357,2.422,2.422,0,0,0-.789.938v5.738h-1.377v-8.053Z" transform="translate(-8799.678 -13241.152)" fill="#fff"/>
    <path id="Trazado_102371" data-name="Trazado 102371" d="M764.543,3947.986a4.713,4.713,0,0,1,.879-2.981,2.987,2.987,0,0,1,4.539-.16v-4.2h1.377v11.431h-1.265l-.067-.864a2.8,2.8,0,0,1-2.3,1.012,2.75,2.75,0,0,1-2.281-1.146,4.765,4.765,0,0,1-.882-2.991Zm1.377.156a3.572,3.572,0,0,0,.566,2.143,1.83,1.83,0,0,0,1.563.775,2.01,2.01,0,0,0,1.913-1.176v-3.7a2.023,2.023,0,0,0-1.9-1.139,1.839,1.839,0,0,0-1.578.781A3.933,3.933,0,0,0,765.92,3948.142Z" transform="translate(-8801.821 -13240.568)" fill="#fff"/>
    <path id="Trazado_102372" data-name="Trazado 102372" d="M778.369,3952.812a3.519,3.519,0,0,1-2.665-1.075,3.992,3.992,0,0,1-1.027-2.876v-.252a4.847,4.847,0,0,1,.457-2.14,3.579,3.579,0,0,1,1.28-1.474,3.222,3.222,0,0,1,1.782-.532,3.013,3.013,0,0,1,2.441,1.035,4.475,4.475,0,0,1,.871,2.962v.573h-5.456a2.865,2.865,0,0,0,.7,1.924,2.186,2.186,0,0,0,1.693.732,2.4,2.4,0,0,0,1.235-.3,3.1,3.1,0,0,0,.886-.789l.842.656A3.382,3.382,0,0,1,778.369,3952.812Zm-.172-7.218a1.837,1.837,0,0,0-1.4.606,2.947,2.947,0,0,0-.7,1.7h4.034v-.1a2.625,2.625,0,0,0-.566-1.626A1.731,1.731,0,0,0,778.2,3945.594Z" transform="translate(-8803.375 -13241.152)" fill="#fff"/>
    <path id="Trazado_102373" data-name="Trazado 102373" d="M672.9,3972.423l1.994-6.185H676.3l-2.888,8.053h-1.049l-2.917-8.053h1.406Z" transform="translate(-8787.249 -13244.488)" fill="#fff"/>
    <path id="Trazado_102374" data-name="Trazado 102374" d="M684.067,3973.494a2.924,2.924,0,0,1-2.359.946,2.5,2.5,0,0,1-1.96-.749,3.23,3.23,0,0,1-.682-2.214v-5.239h1.377v5.2q0,1.83,1.489,1.831a2.06,2.06,0,0,0,2.1-1.176v-5.857h1.377v8.053H684.1Z" transform="translate(-8788.724 -13244.488)" fill="#fff"/>
    <path id="Trazado_102375" data-name="Trazado 102375" d="M690.542,3973.679h-1.377v-11.431h1.377Z" transform="translate(-8790.271 -13243.877)" fill="#fff"/>
    <path id="Trazado_102376" data-name="Trazado 102376" d="M694.694,3966.211l.045,1.012a2.934,2.934,0,0,1,2.412-1.161q2.552,0,2.575,2.881v5.321h-1.377v-5.329a1.854,1.854,0,0,0-.4-1.288,1.6,1.6,0,0,0-1.217-.417,1.986,1.986,0,0,0-1.175.358,2.423,2.423,0,0,0-.789.937v5.739h-1.377v-8.053Z" transform="translate(-8790.919 -13244.462)" fill="#fff"/>
    <path id="Trazado_102377" data-name="Trazado 102377" d="M706.6,3974.413a3.516,3.516,0,0,1-2.664-1.076,3.988,3.988,0,0,1-1.027-2.875v-.253a4.836,4.836,0,0,1,.457-2.14,3.58,3.58,0,0,1,1.279-1.473,3.224,3.224,0,0,1,1.783-.532,3.016,3.016,0,0,1,2.441,1.034,4.48,4.48,0,0,1,.87,2.962v.573h-5.455a2.856,2.856,0,0,0,.7,1.924,2.183,2.183,0,0,0,1.693.732,2.4,2.4,0,0,0,1.235-.3,3.12,3.12,0,0,0,.886-.789l.841.656A3.383,3.383,0,0,1,706.6,3974.413Zm-.171-7.22a1.838,1.838,0,0,0-1.4.606,2.95,2.95,0,0,0-.7,1.7h4.034v-.1a2.627,2.627,0,0,0-.566-1.626A1.728,1.728,0,0,0,706.431,3967.193Z" transform="translate(-8792.377 -13244.462)" fill="#fff"/>
    <path id="Trazado_102378" data-name="Trazado 102378" d="M716.753,3967.447a4.14,4.14,0,0,0-.677-.052,1.815,1.815,0,0,0-1.838,1.154v5.716H712.86v-8.053h1.34l.022.93a2.144,2.144,0,0,1,1.92-1.079,1.413,1.413,0,0,1,.61.1Z" transform="translate(-8793.902 -13244.462)" fill="#fff"/>
    <path id="Trazado_102379" data-name="Trazado 102379" d="M723.539,3974.264a2.9,2.9,0,0,1-.194-.848,3.072,3.072,0,0,1-2.292,1,2.839,2.839,0,0,1-1.953-.674,2.176,2.176,0,0,1-.764-1.708,2.275,2.275,0,0,1,.957-1.954,4.507,4.507,0,0,1,2.69-.7h1.34v-.632a1.547,1.547,0,0,0-.432-1.15,1.736,1.736,0,0,0-1.273-.427,2.01,2.01,0,0,0-1.235.372,1.1,1.1,0,0,0-.5.9H718.5a1.9,1.9,0,0,1,.428-1.165,2.926,2.926,0,0,1,1.161-.889,3.908,3.908,0,0,1,1.611-.327,3.181,3.181,0,0,1,2.18.7,2.508,2.508,0,0,1,.819,1.916v3.706a4.527,4.527,0,0,0,.283,1.764v.119Zm-2.285-1.05a2.419,2.419,0,0,0,1.228-.334,2.024,2.024,0,0,0,.841-.87v-1.653h-1.079q-2.531,0-2.531,1.481a1.253,1.253,0,0,0,.432,1.012A1.66,1.66,0,0,0,721.254,3973.214Z" transform="translate(-8794.741 -13244.462)" fill="#fff"/>
    <path id="Trazado_102380" data-name="Trazado 102380" d="M731.565,3973.288a1.984,1.984,0,0,0,1.288-.446,1.574,1.574,0,0,0,.61-1.116h1.3a2.5,2.5,0,0,1-.477,1.317,3.129,3.129,0,0,1-1.173,1,3.38,3.38,0,0,1-1.551.373,3.321,3.321,0,0,1-2.616-1.1,4.378,4.378,0,0,1-.97-3v-.231a4.842,4.842,0,0,1,.432-2.091,3.285,3.285,0,0,1,1.239-1.422,3.515,3.515,0,0,1,1.909-.506,3.234,3.234,0,0,1,2.252.811,2.9,2.9,0,0,1,.956,2.106h-1.3a1.9,1.9,0,0,0-.592-1.284,1.844,1.844,0,0,0-1.313-.5,1.926,1.926,0,0,0-1.627.756,3.55,3.55,0,0,0-.577,2.185v.26a3.48,3.48,0,0,0,.573,2.144A1.936,1.936,0,0,0,731.565,3973.288Z" transform="translate(-8796.219 -13244.462)" fill="#fff"/>
    <path id="Trazado_102381" data-name="Trazado 102381" d="M737.831,3963.572a.82.82,0,0,1,.2-.566.768.768,0,0,1,.607-.231.778.778,0,0,1,.61.231.812.812,0,0,1,.208.566.787.787,0,0,1-.208.558.8.8,0,0,1-.61.223.785.785,0,0,1-.607-.223A.8.8,0,0,1,737.831,3963.572Zm1.488,10.188h-1.377v-8.053h1.377Z" transform="translate(-8797.729 -13243.958)" fill="#fff"/>
    <path id="Trazado_102382" data-name="Trazado 102382" d="M741.759,3970.163a4.745,4.745,0,0,1,.466-2.129,3.457,3.457,0,0,1,1.295-1.458,3.521,3.521,0,0,1,1.894-.514,3.4,3.4,0,0,1,2.66,1.139,4.383,4.383,0,0,1,1.015,3.029v.1a4.8,4.8,0,0,1-.45,2.11,3.421,3.421,0,0,1-1.288,1.455,3.566,3.566,0,0,1-1.924.522,3.388,3.388,0,0,1-2.653-1.139,4.359,4.359,0,0,1-1.016-3.014Zm1.384.163a3.444,3.444,0,0,0,.621,2.151,2.107,2.107,0,0,0,3.331-.011,3.768,3.768,0,0,0,.618-2.3,3.442,3.442,0,0,0-.63-2.147,2,2,0,0,0-1.67-.823,1.977,1.977,0,0,0-1.645.811A3.741,3.741,0,0,0,743.143,3970.326Z" transform="translate(-8798.33 -13244.462)" fill="#fff"/>
    <path id="Trazado_102383" data-name="Trazado 102383" d="M753.758,3966.211l.044,1.012a2.935,2.935,0,0,1,2.412-1.161q2.553,0,2.575,2.881v5.321h-1.377v-5.329a1.849,1.849,0,0,0-.4-1.288,1.593,1.593,0,0,0-1.216-.417,1.989,1.989,0,0,0-1.176.358,2.419,2.419,0,0,0-.788.937v5.739h-1.377v-8.053Z" transform="translate(-8799.97 -13244.462)" fill="#fff"/>
    <path id="Trazado_102384" data-name="Trazado 102384" d="M765.665,3974.413a3.517,3.517,0,0,1-2.664-1.076,3.988,3.988,0,0,1-1.027-2.875v-.253a4.849,4.849,0,0,1,.457-2.14,3.576,3.576,0,0,1,1.28-1.473,3.22,3.22,0,0,1,1.782-.532,3.014,3.014,0,0,1,2.441,1.034,4.476,4.476,0,0,1,.87,2.962v.573h-5.455a2.864,2.864,0,0,0,.7,1.924,2.186,2.186,0,0,0,1.693.732,2.4,2.4,0,0,0,1.235-.3,3.109,3.109,0,0,0,.886-.789l.841.656A3.382,3.382,0,0,1,765.665,3974.413Zm-.171-7.22a1.838,1.838,0,0,0-1.4.606,2.95,2.95,0,0,0-.7,1.7h4.033v-.1a2.622,2.622,0,0,0-.565-1.626A1.731,1.731,0,0,0,765.494,3967.193Z" transform="translate(-8801.428 -13244.462)" fill="#fff"/>
    <path id="Trazado_102385" data-name="Trazado 102385" d="M776.551,3972.127a1.017,1.017,0,0,0-.42-.867,4.071,4.071,0,0,0-1.467-.532,6.92,6.92,0,0,1-1.659-.536,2.346,2.346,0,0,1-.908-.744,1.772,1.772,0,0,1-.295-1.027,2.09,2.09,0,0,1,.837-1.674,3.274,3.274,0,0,1,2.141-.685,3.367,3.367,0,0,1,2.221.707,2.247,2.247,0,0,1,.853,1.809H776.47a1.241,1.241,0,0,0-.481-.975,1.793,1.793,0,0,0-1.208-.41,1.882,1.882,0,0,0-1.176.328,1.031,1.031,0,0,0-.424.856.834.834,0,0,0,.395.751,4.854,4.854,0,0,0,1.425.484,7.409,7.409,0,0,1,1.671.551,2.437,2.437,0,0,1,.949.771,1.9,1.9,0,0,1,.308,1.1,2.058,2.058,0,0,1-.863,1.73,3.623,3.623,0,0,1-2.24.652,4.051,4.051,0,0,1-1.711-.343,2.778,2.778,0,0,1-1.164-.956,2.3,2.3,0,0,1-.421-1.329H772.9a1.423,1.423,0,0,0,.554,1.1,2.146,2.146,0,0,0,1.366.406,2.218,2.218,0,0,0,1.254-.316A.972.972,0,0,0,776.551,3972.127Z" transform="translate(-8802.892 -13244.462)" fill="#fff"/>
    <path id="Trazado_102386" data-name="Trazado 102386" d="M781.24,3974.744a.867.867,0,0,1,.212-.6.812.812,0,0,1,.637-.238.83.83,0,0,1,.643.238.846.846,0,0,1,.22.6.8.8,0,0,1-.22.573.842.842,0,0,1-.643.23.764.764,0,0,1-.849-.8Z" transform="translate(-8804.38 -13245.664)" fill="#fff"/>
    <path id="Trazado_102387" data-name="Trazado 102387" d="M928.965,3756.791a3.305,3.305,0,0,1-1.536,1.18,6.215,6.215,0,0,1-2.3.391,4.456,4.456,0,0,1-2.352-.622,4.142,4.142,0,0,1-1.589-1.768,6.086,6.086,0,0,1-.577-2.656v-.946a5.7,5.7,0,0,1,1.142-3.8,3.978,3.978,0,0,1,3.211-1.347,4.117,4.117,0,0,1,2.732.867,3.782,3.782,0,0,1,1.265,2.46h-1.429a2.364,2.364,0,0,0-2.561-2.158,2.528,2.528,0,0,0-2.176,1.01,4.922,4.922,0,0,0-.749,2.924v.886a4.62,4.62,0,0,0,.833,2.9,2.7,2.7,0,0,0,2.255,1.076,4.982,4.982,0,0,0,1.407-.179,2.17,2.17,0,0,0,1-.6v-2.428h-2.508v-1.168h3.93Z" transform="translate(-8825.737 -13210.928)" fill="#fff"/>
    <path id="Trazado_102388" data-name="Trazado 102388" d="M937.964,3758.717a2.9,2.9,0,0,1-.194-.848,3.073,3.073,0,0,1-2.292,1,2.835,2.835,0,0,1-1.953-.674,2.175,2.175,0,0,1-.764-1.708,2.274,2.274,0,0,1,.957-1.954,4.5,4.5,0,0,1,2.69-.7h1.34v-.632a1.547,1.547,0,0,0-.432-1.15,1.735,1.735,0,0,0-1.273-.428,2.007,2.007,0,0,0-1.235.372,1.1,1.1,0,0,0-.5.9h-1.384a1.906,1.906,0,0,1,.427-1.165,2.922,2.922,0,0,1,1.162-.889,3.9,3.9,0,0,1,1.611-.328,3.183,3.183,0,0,1,2.18.7,2.512,2.512,0,0,1,.819,1.917v3.706a4.523,4.523,0,0,0,.283,1.763v.119Zm-2.285-1.049a2.42,2.42,0,0,0,1.228-.335,2.025,2.025,0,0,0,.841-.87v-1.652h-1.08q-2.53,0-2.53,1.481a1.254,1.254,0,0,0,.432,1.012A1.662,1.662,0,0,0,935.679,3757.668Z" transform="translate(-8827.599 -13211.432)" fill="#fff"/>
    <path id="Trazado_102389" data-name="Trazado 102389" d="M946.717,3751.9a4.126,4.126,0,0,0-.677-.052A1.814,1.814,0,0,0,944.2,3753v5.715h-1.377v-8.052h1.34l.022.931a2.144,2.144,0,0,1,1.92-1.08,1.4,1.4,0,0,1,.61.1Z" transform="translate(-8829.141 -13211.432)" fill="#fff"/>
    <path id="Trazado_102390" data-name="Trazado 102390" d="M953.5,3758.717a2.9,2.9,0,0,1-.194-.848,3.073,3.073,0,0,1-2.292,1,2.834,2.834,0,0,1-1.953-.674,2.175,2.175,0,0,1-.764-1.708,2.274,2.274,0,0,1,.957-1.954,4.5,4.5,0,0,1,2.69-.7h1.339v-.632a1.546,1.546,0,0,0-.432-1.15,1.735,1.735,0,0,0-1.273-.428,2.007,2.007,0,0,0-1.235.372,1.1,1.1,0,0,0-.5.9h-1.384a1.905,1.905,0,0,1,.427-1.165,2.922,2.922,0,0,1,1.162-.889,3.9,3.9,0,0,1,1.611-.328,3.183,3.183,0,0,1,2.181.7,2.512,2.512,0,0,1,.819,1.917v3.706a4.523,4.523,0,0,0,.283,1.763v.119Zm-2.285-1.049a2.42,2.42,0,0,0,1.228-.335,2.025,2.025,0,0,0,.841-.87v-1.652h-1.079q-2.531,0-2.531,1.481a1.254,1.254,0,0,0,.432,1.012A1.661,1.661,0,0,0,951.219,3757.668Z" transform="translate(-8829.98 -13211.432)" fill="#fff"/>
    <path id="Trazado_102391" data-name="Trazado 102391" d="M959.667,3750.664l.045,1.012a2.933,2.933,0,0,1,2.411-1.161q2.553,0,2.575,2.881v5.321h-1.377v-5.328a1.854,1.854,0,0,0-.4-1.288,1.6,1.6,0,0,0-1.217-.417,1.991,1.991,0,0,0-1.176.357,2.423,2.423,0,0,0-.788.938v5.738h-1.377v-8.052Z" transform="translate(-8831.522 -13211.432)" fill="#fff"/>
    <path id="Trazado_102392" data-name="Trazado 102392" d="M969.988,3748.388v1.95h1.5v1.064h-1.5v5a1.119,1.119,0,0,0,.2.726.843.843,0,0,0,.684.242,3.3,3.3,0,0,0,.656-.09v1.11a4,4,0,0,1-1.057.148,1.715,1.715,0,0,1-1.392-.559,2.4,2.4,0,0,1-.469-1.585V3751.4h-1.466v-1.064h1.466v-1.95Z" transform="translate(-8832.867 -13211.105)" fill="#fff"/>
    <path id="Trazado_102393" data-name="Trazado 102393" d="M974.185,3748.025a.82.82,0,0,1,.2-.565.77.77,0,0,1,.607-.231.781.781,0,0,1,.611.231.812.812,0,0,1,.208.565.853.853,0,0,1-1.426.558A.8.8,0,0,1,974.185,3748.025Zm1.489,10.188H974.3v-8.053h1.377Z" transform="translate(-8833.946 -13210.928)" fill="#fff"/>
    <path id="Trazado_102394" data-name="Trazado 102394" d="M983.475,3758.717a2.9,2.9,0,0,1-.194-.848,3.073,3.073,0,0,1-2.292,1,2.837,2.837,0,0,1-1.953-.674,2.177,2.177,0,0,1-.763-1.708,2.274,2.274,0,0,1,.957-1.954,4.5,4.5,0,0,1,2.69-.7h1.34v-.632a1.547,1.547,0,0,0-.432-1.15,1.735,1.735,0,0,0-1.273-.428,2.007,2.007,0,0,0-1.235.372,1.1,1.1,0,0,0-.5.9h-1.384a1.9,1.9,0,0,1,.427-1.165,2.925,2.925,0,0,1,1.161-.889,3.9,3.9,0,0,1,1.612-.328,3.184,3.184,0,0,1,2.18.7,2.512,2.512,0,0,1,.819,1.917v3.706a4.524,4.524,0,0,0,.283,1.763v.119Zm-2.285-1.049a2.418,2.418,0,0,0,1.228-.335,2.027,2.027,0,0,0,.842-.87v-1.652h-1.08q-2.53,0-2.53,1.481a1.254,1.254,0,0,0,.432,1.012A1.66,1.66,0,0,0,981.189,3757.668Z" transform="translate(-8834.573 -13211.432)" fill="#fff"/>
    <path id="Trazado_102395" data-name="Trazado 102395" d="M992.4,3754.039a4.72,4.72,0,0,1,.878-2.98,2.987,2.987,0,0,1,4.539-.16v-4.2h1.377v11.431h-1.265l-.067-.864a2.8,2.8,0,0,1-2.3,1.013,2.749,2.749,0,0,1-2.28-1.146,4.765,4.765,0,0,1-.882-2.991Zm1.377.156a3.576,3.576,0,0,0,.566,2.144,1.829,1.829,0,0,0,1.563.774,2.008,2.008,0,0,0,1.912-1.176v-3.7a2.023,2.023,0,0,0-1.9-1.139,1.836,1.836,0,0,0-1.578.782A3.932,3.932,0,0,0,993.773,3754.2Z" transform="translate(-8836.737 -13210.848)" fill="#fff"/>
    <path id="Trazado_102396" data-name="Trazado 102396" d="M1006.221,3758.866a3.519,3.519,0,0,1-2.664-1.076,3.99,3.99,0,0,1-1.027-2.876v-.253a4.834,4.834,0,0,1,.457-2.14,3.576,3.576,0,0,1,1.28-1.473,3.218,3.218,0,0,1,1.782-.533,3.019,3.019,0,0,1,2.441,1.035,4.479,4.479,0,0,1,.871,2.962v.573h-5.455a2.86,2.86,0,0,0,.7,1.924,2.185,2.185,0,0,0,1.693.732,2.4,2.4,0,0,0,1.235-.3,3.108,3.108,0,0,0,.886-.789l.841.656A3.383,3.383,0,0,1,1006.221,3758.866Zm-.171-7.22a1.835,1.835,0,0,0-1.4.607,2.947,2.947,0,0,0-.7,1.7h4.034v-.1a2.624,2.624,0,0,0-.566-1.627A1.728,1.728,0,0,0,1006.05,3751.646Z" transform="translate(-8838.29 -13211.432)" fill="#fff"/>
    <path id="Trazado_102397" data-name="Trazado 102397" d="M926.842,3775.639a4.721,4.721,0,0,1,.878-2.981,2.988,2.988,0,0,1,4.54-.16v-4.2h1.377v11.431h-1.265l-.068-.864a2.8,2.8,0,0,1-2.3,1.013,2.749,2.749,0,0,1-2.281-1.146,4.767,4.767,0,0,1-.882-2.992Zm1.377.157a3.574,3.574,0,0,0,.566,2.143,1.83,1.83,0,0,0,1.563.774,2.009,2.009,0,0,0,1.913-1.176v-3.7a2.026,2.026,0,0,0-1.9-1.139,1.838,1.838,0,0,0-1.578.781A3.936,3.936,0,0,0,928.219,3775.8Z" transform="translate(-8826.692 -13214.157)" fill="#fff"/>
    <path id="Trazado_102398" data-name="Trazado 102398" d="M940.667,3780.466a3.521,3.521,0,0,1-2.664-1.075,3.991,3.991,0,0,1-1.027-2.876v-.253a4.851,4.851,0,0,1,.457-2.14,3.576,3.576,0,0,1,1.28-1.473,3.218,3.218,0,0,1,1.782-.532,3.016,3.016,0,0,1,2.441,1.035,4.48,4.48,0,0,1,.87,2.962v.573h-5.455a2.858,2.858,0,0,0,.7,1.924,2.187,2.187,0,0,0,1.693.733,2.4,2.4,0,0,0,1.235-.3,3.1,3.1,0,0,0,.886-.789l.841.655A3.382,3.382,0,0,1,940.667,3780.466Zm-.171-7.219a1.835,1.835,0,0,0-1.4.607,2.946,2.946,0,0,0-.7,1.7h4.033v-.1a2.619,2.619,0,0,0-.566-1.626A1.728,1.728,0,0,0,940.5,3773.246Z" transform="translate(-8828.245 -13214.742)" fill="#fff"/>
    <path id="Trazado_102399" data-name="Trazado 102399" d="M950.818,3773.5a4.109,4.109,0,0,0-.677-.052,1.815,1.815,0,0,0-1.838,1.153v5.716h-1.377v-8.053h1.34l.023.93a2.143,2.143,0,0,1,1.92-1.08,1.408,1.408,0,0,1,.61.1Z" transform="translate(-8829.77 -13214.742)" fill="#fff"/>
    <path id="Trazado_102400" data-name="Trazado 102400" d="M956.132,3780.466a3.52,3.52,0,0,1-2.664-1.075,3.991,3.991,0,0,1-1.027-2.876v-.253a4.85,4.85,0,0,1,.457-2.14,3.574,3.574,0,0,1,1.28-1.473,3.217,3.217,0,0,1,1.782-.532,3.018,3.018,0,0,1,2.441,1.035,4.485,4.485,0,0,1,.87,2.962v.573h-5.455a2.859,2.859,0,0,0,.7,1.924,2.187,2.187,0,0,0,1.693.733,2.4,2.4,0,0,0,1.235-.3,3.1,3.1,0,0,0,.886-.789l.841.655A3.382,3.382,0,0,1,956.132,3780.466Zm-.171-7.219a1.835,1.835,0,0,0-1.4.607,2.94,2.94,0,0,0-.7,1.7H957.9v-.1a2.624,2.624,0,0,0-.566-1.626A1.728,1.728,0,0,0,955.961,3773.246Z" transform="translate(-8830.615 -13214.742)" fill="#fff"/>
    <path id="Trazado_102401" data-name="Trazado 102401" d="M965.556,3779.342a1.981,1.981,0,0,0,1.287-.447,1.57,1.57,0,0,0,.61-1.116h1.3a2.5,2.5,0,0,1-.477,1.318,3.136,3.136,0,0,1-1.172,1,3.384,3.384,0,0,1-1.551.372,3.317,3.317,0,0,1-2.617-1.1,4.374,4.374,0,0,1-.971-3v-.23a4.844,4.844,0,0,1,.432-2.092,3.288,3.288,0,0,1,1.239-1.422,3.527,3.527,0,0,1,1.909-.506,3.234,3.234,0,0,1,2.252.811,2.9,2.9,0,0,1,.956,2.107h-1.3a1.9,1.9,0,0,0-.591-1.284,1.843,1.843,0,0,0-1.314-.5,1.93,1.93,0,0,0-1.627.755,3.551,3.551,0,0,0-.577,2.185v.26a3.479,3.479,0,0,0,.573,2.143A1.937,1.937,0,0,0,965.556,3779.342Z" transform="translate(-8832.074 -13214.742)" fill="#fff"/>
    <path id="Trazado_102402" data-name="Trazado 102402" d="M973.189,3772.655a2.928,2.928,0,0,1,2.381-1.125q2.553,0,2.575,2.881v5.321h-1.376V3774.4a1.855,1.855,0,0,0-.4-1.288,1.594,1.594,0,0,0-1.217-.417,1.986,1.986,0,0,0-1.175.357,2.424,2.424,0,0,0-.789.938v5.738h-1.377V3768.3h1.377Z" transform="translate(-8833.583 -13214.157)" fill="#fff"/>
    <path id="Trazado_102403" data-name="Trazado 102403" d="M981.295,3776.216a4.748,4.748,0,0,1,.466-2.128,3.454,3.454,0,0,1,1.295-1.459,3.527,3.527,0,0,1,1.894-.514,3.4,3.4,0,0,1,2.66,1.139,4.385,4.385,0,0,1,1.016,3.029v.1a4.8,4.8,0,0,1-.451,2.109,3.422,3.422,0,0,1-1.288,1.456,3.563,3.563,0,0,1-1.924.521,3.384,3.384,0,0,1-2.652-1.139,4.354,4.354,0,0,1-1.017-3.014Zm1.384.164a3.441,3.441,0,0,0,.622,2.15,2.1,2.1,0,0,0,3.33-.012,3.767,3.767,0,0,0,.618-2.3,3.433,3.433,0,0,0-.63-2.147,2.09,2.09,0,0,0-3.315-.012A3.743,3.743,0,0,0,982.679,3776.38Z" transform="translate(-8835.036 -13214.742)" fill="#fff"/>
    <path id="Trazado_102404" data-name="Trazado 102404" d="M996.62,3778.18a1.014,1.014,0,0,0-.42-.866,4.049,4.049,0,0,0-1.467-.533,6.942,6.942,0,0,1-1.659-.536,2.343,2.343,0,0,1-.908-.744,1.774,1.774,0,0,1-.295-1.026,2.089,2.089,0,0,1,.837-1.675,3.273,3.273,0,0,1,2.14-.685,3.367,3.367,0,0,1,2.221.707,2.247,2.247,0,0,1,.853,1.809h-1.384a1.239,1.239,0,0,0-.48-.974,1.8,1.8,0,0,0-1.209-.41,1.883,1.883,0,0,0-1.176.327,1.032,1.032,0,0,0-.424.856.838.838,0,0,0,.395.752,4.88,4.88,0,0,0,1.426.484,7.388,7.388,0,0,1,1.67.55,2.45,2.45,0,0,1,.95.77,1.9,1.9,0,0,1,.308,1.1,2.061,2.061,0,0,1-.864,1.731,3.624,3.624,0,0,1-2.24.651,4.052,4.052,0,0,1-1.712-.343,2.778,2.778,0,0,1-1.164-.956,2.3,2.3,0,0,1-.421-1.329h1.377a1.427,1.427,0,0,0,.554,1.1,2.156,2.156,0,0,0,1.367.406,2.215,2.215,0,0,0,1.253-.317A.971.971,0,0,0,996.62,3778.18Z" transform="translate(-8836.615 -13214.742)" fill="#fff"/>
    <path id="Trazado_102405" data-name="Trazado 102405" d="M1001.308,3780.8a.868.868,0,0,1,.212-.6.812.812,0,0,1,.637-.238.834.834,0,0,1,.643.238.846.846,0,0,1,.22.6.8.8,0,0,1-.22.573.846.846,0,0,1-.643.231.765.765,0,0,1-.849-.8Z" transform="translate(-8838.104 -13215.945)" fill="#fff"/>
    <path id="Trazado_102406" data-name="Trazado 102406" d="M411.4,3751.5h-2.545v4.384h-1.436v-10.836H411a4.244,4.244,0,0,1,2.816.833,3,3,0,0,1,.987,2.427,2.921,2.921,0,0,1-.547,1.764,3.267,3.267,0,0,1-1.522,1.123l2.545,4.6v.089H413.75Zm-2.545-1.169h2.2a2.48,2.48,0,0,0,1.694-.551,1.87,1.87,0,0,0,.628-1.477,1.965,1.965,0,0,0-.6-1.543,2.539,2.539,0,0,0-1.731-.544h-2.188Z" transform="translate(-8747.097 -13210.593)" fill="#fff"/>
    <path id="Trazado_102407" data-name="Trazado 102407" d="M421.532,3756.506a3.52,3.52,0,0,1-2.664-1.075,3.991,3.991,0,0,1-1.027-2.876v-.253a4.835,4.835,0,0,1,.457-2.14,3.572,3.572,0,0,1,1.28-1.473,3.216,3.216,0,0,1,1.782-.533,3.019,3.019,0,0,1,2.441,1.035,4.482,4.482,0,0,1,.87,2.962v.573h-5.455a2.859,2.859,0,0,0,.7,1.924,2.185,2.185,0,0,0,1.693.733,2.4,2.4,0,0,0,1.235-.3,3.105,3.105,0,0,0,.886-.789l.841.655A3.382,3.382,0,0,1,421.532,3756.506Zm-.171-7.219a1.835,1.835,0,0,0-1.4.607,2.94,2.94,0,0,0-.7,1.7H423.3v-.1a2.62,2.62,0,0,0-.566-1.626A1.727,1.727,0,0,0,421.361,3749.286Z" transform="translate(-8748.694 -13211.07)" fill="#fff"/>
    <path id="Trazado_102408" data-name="Trazado 102408" d="M432.418,3754.221a1.015,1.015,0,0,0-.42-.867,4.051,4.051,0,0,0-1.467-.533,6.894,6.894,0,0,1-1.659-.536,2.349,2.349,0,0,1-.909-.744,1.775,1.775,0,0,1-.294-1.027,2.091,2.091,0,0,1,.837-1.675,3.273,3.273,0,0,1,2.14-.685,3.367,3.367,0,0,1,2.221.707,2.246,2.246,0,0,1,.853,1.808h-1.384a1.24,1.24,0,0,0-.48-.974,1.8,1.8,0,0,0-1.209-.41,1.882,1.882,0,0,0-1.175.328,1.031,1.031,0,0,0-.424.856.836.836,0,0,0,.395.752,4.858,4.858,0,0,0,1.425.483,7.408,7.408,0,0,1,1.671.551,2.442,2.442,0,0,1,.949.77,1.9,1.9,0,0,1,.308,1.1,2.062,2.062,0,0,1-.863,1.731,3.626,3.626,0,0,1-2.241.651,4.048,4.048,0,0,1-1.711-.343,2.775,2.775,0,0,1-1.164-.956,2.3,2.3,0,0,1-.421-1.328h1.376a1.43,1.43,0,0,0,.555,1.1,2.152,2.152,0,0,0,1.366.406,2.222,2.222,0,0,0,1.254-.317A.971.971,0,0,0,432.418,3754.221Z" transform="translate(-8750.158 -13211.07)" fill="#fff"/>
    <path id="Trazado_102409" data-name="Trazado 102409" d="M438.763,3746.028v1.95h1.5v1.064h-1.5v5a1.116,1.116,0,0,0,.2.727.844.844,0,0,0,.684.242,3.3,3.3,0,0,0,.655-.09v1.11a4.006,4.006,0,0,1-1.057.148,1.715,1.715,0,0,1-1.392-.558,2.4,2.4,0,0,1-.469-1.585v-4.994H435.92v-1.064h1.466v-1.95Z" transform="translate(-8751.465 -13210.744)" fill="#fff"/>
    <path id="Trazado_102410" data-name="Trazado 102410" d="M447.881,3756.357a2.872,2.872,0,0,1-.193-.848,3.073,3.073,0,0,1-2.292,1,2.838,2.838,0,0,1-1.953-.674,2.174,2.174,0,0,1-.763-1.708,2.275,2.275,0,0,1,.957-1.954,4.5,4.5,0,0,1,2.689-.7h1.34v-.633a1.549,1.549,0,0,0-.431-1.15,1.734,1.734,0,0,0-1.273-.428,2.011,2.011,0,0,0-1.235.372,1.1,1.1,0,0,0-.5.9h-1.384a1.9,1.9,0,0,1,.428-1.165,2.925,2.925,0,0,1,1.161-.889,3.9,3.9,0,0,1,1.611-.328,3.185,3.185,0,0,1,2.181.7,2.509,2.509,0,0,1,.818,1.916v3.706a4.537,4.537,0,0,0,.283,1.764v.12Zm-2.285-1.049a2.418,2.418,0,0,0,1.228-.335,2.019,2.019,0,0,0,.841-.871v-1.652h-1.079q-2.53,0-2.53,1.481a1.254,1.254,0,0,0,.431,1.012A1.662,1.662,0,0,0,445.6,3755.308Z" transform="translate(-8752.5 -13211.07)" fill="#fff"/>
    <path id="Trazado_102411" data-name="Trazado 102411" d="M459.559,3751.835a4.788,4.788,0,0,1-.848,2.966,2.711,2.711,0,0,1-2.277,1.12,2.807,2.807,0,0,1-2.36-1.08l-.067.931h-1.265v-11.431h1.377v4.264a2.793,2.793,0,0,1,2.3-1.035,2.731,2.731,0,0,1,2.3,1.109,4.938,4.938,0,0,1,.837,3.037Zm-1.377-.156a3.718,3.718,0,0,0-.544-2.173,1.8,1.8,0,0,0-1.562-.767,2.022,2.022,0,0,0-1.958,1.265v3.484a2.078,2.078,0,0,0,1.972,1.265,1.79,1.79,0,0,0,1.541-.767A3.961,3.961,0,0,0,458.182,3751.679Z" transform="translate(-8754.042 -13210.485)" fill="#fff"/>
    <path id="Trazado_102412" data-name="Trazado 102412" d="M464.358,3755.772h-1.377v-11.431h1.377Z" transform="translate(-8755.611 -13210.485)" fill="#fff"/>
    <path id="Trazado_102413" data-name="Trazado 102413" d="M470.487,3756.506a3.52,3.52,0,0,1-2.664-1.075,3.991,3.991,0,0,1-1.027-2.876v-.253a4.847,4.847,0,0,1,.457-2.14,3.572,3.572,0,0,1,1.28-1.473,3.216,3.216,0,0,1,1.782-.533,3.019,3.019,0,0,1,2.441,1.035,4.482,4.482,0,0,1,.87,2.962v.573h-5.455a2.858,2.858,0,0,0,.7,1.924,2.187,2.187,0,0,0,1.693.733,2.4,2.4,0,0,0,1.235-.3,3.094,3.094,0,0,0,.886-.789l.841.655A3.382,3.382,0,0,1,470.487,3756.506Zm-.171-7.219a1.835,1.835,0,0,0-1.4.607,2.94,2.94,0,0,0-.7,1.7h4.033v-.1a2.62,2.62,0,0,0-.566-1.626A1.727,1.727,0,0,0,470.316,3749.286Z" transform="translate(-8756.195 -13211.07)" fill="#fff"/>
    <path id="Trazado_102414" data-name="Trazado 102414" d="M479.911,3755.382a1.982,1.982,0,0,0,1.287-.447,1.57,1.57,0,0,0,.611-1.116h1.3a2.5,2.5,0,0,1-.477,1.318,3.133,3.133,0,0,1-1.172,1,3.382,3.382,0,0,1-1.551.373,3.317,3.317,0,0,1-2.617-1.1,4.373,4.373,0,0,1-.971-3v-.23a4.848,4.848,0,0,1,.432-2.092,3.29,3.29,0,0,1,1.239-1.422,3.527,3.527,0,0,1,1.909-.506,3.235,3.235,0,0,1,2.252.812,2.9,2.9,0,0,1,.956,2.106h-1.3a1.9,1.9,0,0,0-.591-1.284,1.843,1.843,0,0,0-1.314-.5,1.93,1.93,0,0,0-1.627.755,3.549,3.549,0,0,0-.577,2.185v.261a3.479,3.479,0,0,0,.573,2.143A1.936,1.936,0,0,0,479.911,3755.382Z" transform="translate(-8757.655 -13211.07)" fill="#fff"/>
    <path id="Trazado_102415" data-name="Trazado 102415" d="M486.176,3745.665a.82.82,0,0,1,.2-.566.768.768,0,0,1,.607-.231.779.779,0,0,1,.61.231.808.808,0,0,1,.209.566.784.784,0,0,1-.209.558.792.792,0,0,1-.61.224.782.782,0,0,1-.607-.224A.8.8,0,0,1,486.176,3745.665Zm1.489,10.188h-1.377V3747.8h1.377Z" transform="translate(-8759.166 -13210.566)" fill="#fff"/>
    <path id="Trazado_102416" data-name="Trazado 102416" d="M491.828,3748.3l.037.893a2.976,2.976,0,0,1,2.39-1.042,2.3,2.3,0,0,1,2.3,1.3,3,3,0,0,1,2.568-1.3q2.65,0,2.694,2.806v5.4h-1.377v-5.314a1.851,1.851,0,0,0-.394-1.291,1.739,1.739,0,0,0-1.325-.429,1.83,1.83,0,0,0-1.273.458,1.855,1.855,0,0,0-.588,1.231v5.344h-1.384v-5.276a1.537,1.537,0,0,0-1.719-1.757,1.842,1.842,0,0,0-1.854,1.154v5.879h-1.377V3748.3Z" transform="translate(-8759.832 -13211.07)" fill="#fff"/>
    <path id="Trazado_102417" data-name="Trazado 102417" d="M506.32,3745.665a.816.816,0,0,1,.2-.566.768.768,0,0,1,.606-.231.78.78,0,0,1,.61.231.811.811,0,0,1,.208.566.815.815,0,1,1-1.63,0Zm1.489,10.188h-1.377V3747.8h1.377Z" transform="translate(-8762.252 -13210.566)" fill="#fff"/>
    <path id="Trazado_102418" data-name="Trazado 102418" d="M513.958,3756.506a3.523,3.523,0,0,1-2.665-1.075,3.994,3.994,0,0,1-1.026-2.876v-.253a4.835,4.835,0,0,1,.457-2.14,3.577,3.577,0,0,1,1.279-1.473,3.221,3.221,0,0,1,1.783-.533,3.019,3.019,0,0,1,2.441,1.035,4.482,4.482,0,0,1,.87,2.962v.573h-5.455a2.854,2.854,0,0,0,.7,1.924,2.185,2.185,0,0,0,1.693.733,2.4,2.4,0,0,0,1.235-.3,3.106,3.106,0,0,0,.886-.789l.841.655A3.382,3.382,0,0,1,513.958,3756.506Zm-.171-7.219a1.838,1.838,0,0,0-1.4.607,2.951,2.951,0,0,0-.7,1.7h4.034v-.1a2.625,2.625,0,0,0-.566-1.626A1.728,1.728,0,0,0,513.787,3749.286Z" transform="translate(-8762.857 -13211.07)" fill="#fff"/>
    <path id="Trazado_102419" data-name="Trazado 102419" d="M521.518,3748.3l.045,1.013a2.931,2.931,0,0,1,2.411-1.162q2.553,0,2.575,2.881v5.321h-1.377v-5.329a1.85,1.85,0,0,0-.4-1.287,1.592,1.592,0,0,0-1.217-.418,1.99,1.99,0,0,0-1.176.357,2.423,2.423,0,0,0-.788.938v5.738h-1.377V3748.3Z" transform="translate(-8764.382 -13211.07)" fill="#fff"/>
    <path id="Trazado_102420" data-name="Trazado 102420" d="M531.839,3746.028v1.95h1.5v1.064h-1.5v5a1.121,1.121,0,0,0,.2.727.846.846,0,0,0,.684.242,3.3,3.3,0,0,0,.655-.09v1.11a4.007,4.007,0,0,1-1.057.148,1.715,1.715,0,0,1-1.392-.558,2.4,2.4,0,0,1-.468-1.585v-4.994H529v-1.064h1.467v-1.95Z" transform="translate(-8765.728 -13210.744)" fill="#fff"/>
    <path id="Trazado_102421" data-name="Trazado 102421" d="M535.435,3752.256a4.745,4.745,0,0,1,.465-2.128,3.457,3.457,0,0,1,1.3-1.459,3.522,3.522,0,0,1,1.893-.514,3.4,3.4,0,0,1,2.661,1.139,4.389,4.389,0,0,1,1.015,3.029v.1a4.814,4.814,0,0,1-.45,2.109,3.431,3.431,0,0,1-1.289,1.456,3.564,3.564,0,0,1-1.923.521,3.383,3.383,0,0,1-2.653-1.139,4.354,4.354,0,0,1-1.016-3.015Zm1.384.164a3.441,3.441,0,0,0,.622,2.151,2.1,2.1,0,0,0,3.33-.012,3.761,3.761,0,0,0,.618-2.3,3.438,3.438,0,0,0-.629-2.147,2,2,0,0,0-1.671-.823,1.978,1.978,0,0,0-1.644.811A3.737,3.737,0,0,0,536.819,3752.42Z" transform="translate(-8766.714 -13211.07)" fill="#fff"/>
    <path id="Trazado_102422" data-name="Trazado 102422" d="M424.793,3773.279a4.721,4.721,0,0,1,.878-2.981,2.989,2.989,0,0,1,4.54-.16v-4.2h1.377v11.431h-1.265l-.067-.863a2.806,2.806,0,0,1-2.3,1.012,2.747,2.747,0,0,1-2.28-1.146,4.766,4.766,0,0,1-.882-2.992Zm1.377.157a3.571,3.571,0,0,0,.566,2.143,1.828,1.828,0,0,0,1.563.774,2.007,2.007,0,0,0,1.912-1.176v-3.7a2.024,2.024,0,0,0-1.9-1.139,1.837,1.837,0,0,0-1.578.782A3.937,3.937,0,0,0,426.17,3773.436Z" transform="translate(-8749.759 -13213.795)" fill="#fff"/>
    <path id="Trazado_102423" data-name="Trazado 102423" d="M438.618,3778.106a3.515,3.515,0,0,1-2.664-1.076,3.989,3.989,0,0,1-1.027-2.876v-.254a4.835,4.835,0,0,1,.457-2.139,3.575,3.575,0,0,1,1.279-1.473,3.22,3.22,0,0,1,1.783-.532,3.018,3.018,0,0,1,2.441,1.034,4.483,4.483,0,0,1,.87,2.962v.573H436.3a2.858,2.858,0,0,0,.7,1.924,2.185,2.185,0,0,0,1.693.733,2.392,2.392,0,0,0,1.235-.3,3.111,3.111,0,0,0,.886-.788l.841.655A3.381,3.381,0,0,1,438.618,3778.106Zm-.171-7.219a1.836,1.836,0,0,0-1.4.607,2.946,2.946,0,0,0-.7,1.7h4.034v-.1a2.62,2.62,0,0,0-.566-1.626A1.728,1.728,0,0,0,438.447,3770.886Z" transform="translate(-8751.312 -13214.38)" fill="#fff"/>
    <path id="Trazado_102424" data-name="Trazado 102424" d="M448.937,3773.279a4.716,4.716,0,0,1,.878-2.981,2.989,2.989,0,0,1,4.539-.16v-4.2h1.377v11.431h-1.265l-.067-.863a2.807,2.807,0,0,1-2.3,1.012,2.749,2.749,0,0,1-2.281-1.146,4.766,4.766,0,0,1-.881-2.992Zm1.376.157a3.571,3.571,0,0,0,.566,2.143,1.83,1.83,0,0,0,1.563.774,2.009,2.009,0,0,0,1.913-1.176v-3.7a2.024,2.024,0,0,0-1.9-1.139,1.84,1.84,0,0,0-1.578.782A3.937,3.937,0,0,0,450.313,3773.436Z" transform="translate(-8753.459 -13213.795)" fill="#fff"/>
    <path id="Trazado_102425" data-name="Trazado 102425" d="M462.762,3778.106a3.518,3.518,0,0,1-2.665-1.076,3.993,3.993,0,0,1-1.027-2.876v-.254a4.848,4.848,0,0,1,.457-2.139,3.583,3.583,0,0,1,1.28-1.473,3.22,3.22,0,0,1,1.783-.532,3.015,3.015,0,0,1,2.44,1.034,4.479,4.479,0,0,1,.871,2.962v.573h-5.456a2.858,2.858,0,0,0,.7,1.924,2.185,2.185,0,0,0,1.693.733,2.4,2.4,0,0,0,1.235-.3,3.1,3.1,0,0,0,.885-.788l.842.655A3.382,3.382,0,0,1,462.762,3778.106Zm-.171-7.219a1.836,1.836,0,0,0-1.4.607,2.946,2.946,0,0,0-.7,1.7h4.034v-.1a2.624,2.624,0,0,0-.566-1.626A1.731,1.731,0,0,0,462.591,3770.886Z" transform="translate(-8755.012 -13214.38)" fill="#fff"/>
    <path id="Trazado_102426" data-name="Trazado 102426" d="M472.912,3771.139a4.138,4.138,0,0,0-.677-.052,1.815,1.815,0,0,0-1.838,1.153v5.716H469.02V3769.9h1.34l.022.93a2.143,2.143,0,0,1,1.92-1.079,1.4,1.4,0,0,1,.611.1Z" transform="translate(-8756.536 -13214.38)" fill="#fff"/>
    <path id="Trazado_102427" data-name="Trazado 102427" d="M478.227,3778.106a3.517,3.517,0,0,1-2.665-1.076,3.989,3.989,0,0,1-1.027-2.876v-.254a4.847,4.847,0,0,1,.457-2.139,3.576,3.576,0,0,1,1.28-1.473,3.217,3.217,0,0,1,1.782-.532,3.016,3.016,0,0,1,2.441,1.034,4.479,4.479,0,0,1,.87,2.962v.573h-5.455a2.862,2.862,0,0,0,.7,1.924,2.188,2.188,0,0,0,1.693.733,2.39,2.39,0,0,0,1.235-.3,3.1,3.1,0,0,0,.886-.788l.841.655A3.38,3.38,0,0,1,478.227,3778.106Zm-.172-7.219a1.836,1.836,0,0,0-1.4.607,2.946,2.946,0,0,0-.7,1.7h4.034v-.1a2.624,2.624,0,0,0-.566-1.626A1.731,1.731,0,0,0,478.055,3770.886Z" transform="translate(-8757.381 -13214.38)" fill="#fff"/>
    <path id="Trazado_102428" data-name="Trazado 102428" d="M487.65,3776.982a1.979,1.979,0,0,0,1.287-.447,1.571,1.571,0,0,0,.611-1.116h1.3a2.5,2.5,0,0,1-.476,1.318,3.138,3.138,0,0,1-1.173,1,3.376,3.376,0,0,1-1.551.373,3.318,3.318,0,0,1-2.616-1.1,4.375,4.375,0,0,1-.971-3v-.23a4.847,4.847,0,0,1,.432-2.092,3.288,3.288,0,0,1,1.239-1.422,3.524,3.524,0,0,1,1.909-.506,3.23,3.23,0,0,1,2.252.811,2.9,2.9,0,0,1,.956,2.106h-1.3a1.9,1.9,0,0,0-.591-1.284,1.843,1.843,0,0,0-1.314-.5,1.928,1.928,0,0,0-1.627.756,3.546,3.546,0,0,0-.577,2.184v.261a3.478,3.478,0,0,0,.573,2.143A1.937,1.937,0,0,0,487.65,3776.982Z" transform="translate(-8758.841 -13214.38)" fill="#fff"/>
    <path id="Trazado_102429" data-name="Trazado 102429" d="M495.283,3770.295a2.926,2.926,0,0,1,2.382-1.124q2.552,0,2.575,2.88v5.321h-1.377v-5.329a1.848,1.848,0,0,0-.4-1.287,1.592,1.592,0,0,0-1.216-.417,1.987,1.987,0,0,0-1.176.357,2.433,2.433,0,0,0-.789.938v5.738h-1.377v-11.431h1.377Z" transform="translate(-8760.35 -13213.795)" fill="#fff"/>
    <path id="Trazado_102430" data-name="Trazado 102430" d="M503.39,3773.856a4.749,4.749,0,0,1,.465-2.128,3.463,3.463,0,0,1,1.3-1.459,3.52,3.52,0,0,1,1.893-.513,3.4,3.4,0,0,1,2.661,1.138,4.388,4.388,0,0,1,1.015,3.029v.1a4.812,4.812,0,0,1-.45,2.109,3.425,3.425,0,0,1-1.289,1.456,3.56,3.56,0,0,1-1.923.521,3.385,3.385,0,0,1-2.653-1.139,4.353,4.353,0,0,1-1.016-3.014Zm1.384.164a3.449,3.449,0,0,0,.622,2.151,2.106,2.106,0,0,0,3.33-.011,3.766,3.766,0,0,0,.618-2.3,3.437,3.437,0,0,0-.629-2.146,2,2,0,0,0-1.671-.823,1.977,1.977,0,0,0-1.644.811A3.736,3.736,0,0,0,504.774,3774.02Z" transform="translate(-8761.803 -13214.38)" fill="#fff"/>
    <path id="Trazado_102431" data-name="Trazado 102431" d="M518.714,3775.821a1.015,1.015,0,0,0-.42-.867,4.06,4.06,0,0,0-1.467-.532,6.862,6.862,0,0,1-1.659-.536,2.354,2.354,0,0,1-.909-.744,1.776,1.776,0,0,1-.294-1.027,2.092,2.092,0,0,1,.837-1.675,3.272,3.272,0,0,1,2.14-.684,3.362,3.362,0,0,1,2.221.707,2.245,2.245,0,0,1,.853,1.808h-1.384a1.239,1.239,0,0,0-.48-.975,1.8,1.8,0,0,0-1.209-.41,1.878,1.878,0,0,0-1.175.328,1.031,1.031,0,0,0-.424.856.837.837,0,0,0,.394.752,4.882,4.882,0,0,0,1.426.483,7.444,7.444,0,0,1,1.671.551,2.439,2.439,0,0,1,.949.771,1.9,1.9,0,0,1,.308,1.1,2.062,2.062,0,0,1-.864,1.731,3.617,3.617,0,0,1-2.24.651,4.063,4.063,0,0,1-1.712-.342,2.786,2.786,0,0,1-1.164-.957,2.3,2.3,0,0,1-.421-1.329h1.377a1.429,1.429,0,0,0,.555,1.1,2.155,2.155,0,0,0,1.366.405,2.217,2.217,0,0,0,1.253-.316A.97.97,0,0,0,518.714,3775.821Z" transform="translate(-8763.381 -13214.38)" fill="#fff"/>
    <path id="Trazado_102432" data-name="Trazado 102432" d="M523.4,3778.438a.868.868,0,0,1,.212-.6.812.812,0,0,1,.637-.238.834.834,0,0,1,.643.238.846.846,0,0,1,.22.6.8.8,0,0,1-.22.572.845.845,0,0,1-.643.231.766.766,0,0,1-.848-.8Z" transform="translate(-8764.869 -13215.583)" fill="#fff"/>
    <path id="Trazado_102433" data-name="Trazado 102433" d="M664.062,3747.652v6.363h-2.143v-16.254h5.994a6.026,6.026,0,0,1,4.181,1.362,4.621,4.621,0,0,1,1.512,3.606,4.555,4.555,0,0,1-1.479,3.644,6.287,6.287,0,0,1-4.236,1.279Zm0-1.753h3.851a3.849,3.849,0,0,0,2.634-.811,2.963,2.963,0,0,0,.915-2.343,3.061,3.061,0,0,0-.915-2.325,3.6,3.6,0,0,0-2.511-.906h-3.975Z" transform="translate(-8786.096 -13209.477)" fill="#12263f"/>
    <path id="Trazado_102434" data-name="Trazado 102434" d="M684.407,3744.5a6.28,6.28,0,0,0-1.015-.078,2.72,2.72,0,0,0-2.757,1.73v8.573h-2.066v-12.078h2.009l.033,1.4a3.216,3.216,0,0,1,2.882-1.619,2.107,2.107,0,0,1,.915.156Z" transform="translate(-8788.647 -13210.192)" fill="#12263f"/>
    <path id="Trazado_102435" data-name="Trazado 102435" d="M686.816,3748.579a7.137,7.137,0,0,1,.7-3.192,5.2,5.2,0,0,1,1.942-2.188,5.283,5.283,0,0,1,2.841-.77,5.093,5.093,0,0,1,3.991,1.708,6.569,6.569,0,0,1,1.524,4.543v.145a7.189,7.189,0,0,1-.676,3.164,5.124,5.124,0,0,1-1.931,2.183,5.356,5.356,0,0,1-2.887.781,5.081,5.081,0,0,1-3.98-1.708,6.543,6.543,0,0,1-1.524-4.522Zm2.078.246a5.165,5.165,0,0,0,.931,3.226,3.159,3.159,0,0,0,5-.017,5.653,5.653,0,0,0,.925-3.455,5.164,5.164,0,0,0-.942-3.221,3,3,0,0,0-2.506-1.233,2.964,2.964,0,0,0-2.467,1.217A5.609,5.609,0,0,0,688.894,3748.824Z" transform="translate(-8789.911 -13210.192)" fill="#12263f"/>
    <path id="Trazado_102436" data-name="Trazado 102436" d="M705.4,3739.237v2.925h2.256v1.6H705.4v7.5a1.677,1.677,0,0,0,.3,1.09,1.269,1.269,0,0,0,1.027.363,5.031,5.031,0,0,0,.982-.134v1.665a6.035,6.035,0,0,1-1.585.222,2.571,2.571,0,0,1-2.087-.838,3.6,3.6,0,0,1-.7-2.378v-7.49h-2.2v-1.6h2.2v-2.925Z" transform="translate(-8792.105 -13209.703)" fill="#12263f"/>
    <path id="Trazado_102437" data-name="Trazado 102437" d="M716.6,3754.953a5.278,5.278,0,0,1-4-1.613,5.987,5.987,0,0,1-1.539-4.315v-.379a7.242,7.242,0,0,1,.686-3.209,5.344,5.344,0,0,1,1.921-2.21,4.819,4.819,0,0,1,2.673-.8,4.525,4.525,0,0,1,3.661,1.551,6.72,6.72,0,0,1,1.306,4.443v.86h-8.182a4.292,4.292,0,0,0,1.043,2.885,3.279,3.279,0,0,0,2.539,1.1,3.609,3.609,0,0,0,1.854-.446,4.661,4.661,0,0,0,1.328-1.184l1.262.983A5.075,5.075,0,0,1,716.6,3754.953Zm-.258-10.828a2.753,2.753,0,0,0-2.1.91,4.419,4.419,0,0,0-1.049,2.551h6.051v-.157a3.935,3.935,0,0,0-.848-2.438A2.6,2.6,0,0,0,716.342,3744.125Z" transform="translate(-8793.626 -13210.192)" fill="#12263f"/>
    <path id="Trazado_102438" data-name="Trazado 102438" d="M730.733,3753.267a2.97,2.97,0,0,0,1.931-.67,2.356,2.356,0,0,0,.916-1.674h1.953a3.74,3.74,0,0,1-.715,1.975,4.711,4.711,0,0,1-1.758,1.5,5.08,5.08,0,0,1-2.328.558,4.974,4.974,0,0,1-3.924-1.647,6.557,6.557,0,0,1-1.456-4.5v-.346a7.272,7.272,0,0,1,.647-3.137,4.938,4.938,0,0,1,1.859-2.132,5.287,5.287,0,0,1,2.864-.759,4.845,4.845,0,0,1,3.377,1.217,4.348,4.348,0,0,1,1.434,3.159H733.58a2.847,2.847,0,0,0-.888-1.926,2.756,2.756,0,0,0-1.97-.753,2.89,2.89,0,0,0-2.439,1.133,5.321,5.321,0,0,0-.865,3.276v.391a5.216,5.216,0,0,0,.859,3.215A2.9,2.9,0,0,0,730.733,3753.267Z" transform="translate(-8795.816 -13210.192)" fill="#12263f"/>
    <path id="Trazado_102439" data-name="Trazado 102439" d="M744.866,3753.267a2.97,2.97,0,0,0,1.931-.67,2.36,2.36,0,0,0,.916-1.674h1.953a3.74,3.74,0,0,1-.715,1.975,4.719,4.719,0,0,1-1.758,1.5,5.081,5.081,0,0,1-2.328.558,4.973,4.973,0,0,1-3.924-1.647,6.557,6.557,0,0,1-1.457-4.5v-.346a7.272,7.272,0,0,1,.648-3.137,4.939,4.939,0,0,1,1.859-2.132,5.283,5.283,0,0,1,2.864-.759,4.841,4.841,0,0,1,3.376,1.217,4.349,4.349,0,0,1,1.435,3.159h-1.953a2.848,2.848,0,0,0-.888-1.926,2.757,2.757,0,0,0-1.97-.753,2.89,2.89,0,0,0-2.44,1.133,5.321,5.321,0,0,0-.865,3.276v.391a5.222,5.222,0,0,0,.859,3.215A2.9,2.9,0,0,0,744.866,3753.267Z" transform="translate(-8797.981 -13210.192)" fill="#12263f"/>
    <path id="Trazado_102440" data-name="Trazado 102440" d="M754.265,3738.691a1.23,1.23,0,0,1,.307-.848,1.151,1.151,0,0,1,.909-.346,1.169,1.169,0,0,1,.915.346,1.219,1.219,0,0,1,.313.848,1.222,1.222,0,1,1-2.444,0Zm2.232,15.283h-2.065V3741.9H756.5Z" transform="translate(-8800.247 -13209.437)" fill="#12263f"/>
    <path id="Trazado_102441" data-name="Trazado 102441" d="M760.156,3747.7a7.148,7.148,0,0,1,.7-3.192,5.21,5.21,0,0,1,1.943-2.188,5.288,5.288,0,0,1,2.842-.771,5.093,5.093,0,0,1,3.991,1.708,6.57,6.57,0,0,1,1.524,4.544v.145a7.188,7.188,0,0,1-.676,3.165,5.124,5.124,0,0,1-1.931,2.183,5.351,5.351,0,0,1-2.886.781,5.082,5.082,0,0,1-3.98-1.708,6.542,6.542,0,0,1-1.524-4.521Zm2.077.246a5.165,5.165,0,0,0,.932,3.226,3.159,3.159,0,0,0,5-.017,5.648,5.648,0,0,0,.926-3.455,5.165,5.165,0,0,0-.942-3.221,3,3,0,0,0-2.506-1.233,2.964,2.964,0,0,0-2.467,1.217A5.6,5.6,0,0,0,762.233,3747.948Zm4.342-11.241h2.5l-2.992,3.282-1.663-.005Z" transform="translate(-8801.149 -13209.315)" fill="#12263f"/>
    <path id="Trazado_102442" data-name="Trazado 102442" d="M778.154,3742.651l.068,1.518a4.4,4.4,0,0,1,3.617-1.742q3.828,0,3.862,4.32v7.981h-2.065v-7.992a2.779,2.779,0,0,0-.6-1.932,2.394,2.394,0,0,0-1.825-.625,2.981,2.981,0,0,0-1.765.536,3.614,3.614,0,0,0-1.182,1.406v8.606H776.2v-12.078Z" transform="translate(-8803.608 -13210.192)" fill="#12263f"/>
    <path id="Trazado_102443" data-name="Trazado 102443" d="M681.536,3771.092a1.23,1.23,0,0,1,.307-.849,1.155,1.155,0,0,1,.91-.346,1.173,1.173,0,0,1,.915.346,1.219,1.219,0,0,1,.313.849,1.183,1.183,0,0,1-.312.838,1.2,1.2,0,0,1-.915.334,1.177,1.177,0,0,1-.91-.334A1.193,1.193,0,0,1,681.536,3771.092Zm2.233,15.282H681.7v-12.079h2.066Z" transform="translate(-8789.102 -13214.402)" fill="#12263f"/>
    <path id="Trazado_102444" data-name="Trazado 102444" d="M690.027,3775.051l.068,1.518a4.4,4.4,0,0,1,3.617-1.741q3.828,0,3.862,4.32v7.982h-2.065v-7.993a2.779,2.779,0,0,0-.6-1.931,2.4,2.4,0,0,0-1.825-.625,2.989,2.989,0,0,0-1.765.535,3.63,3.63,0,0,0-1.182,1.407v8.607h-2.066v-12.079Z" transform="translate(-8790.104 -13215.157)" fill="#12263f"/>
    <path id="Trazado_102445" data-name="Trazado 102445" d="M705.509,3771.637v2.925h2.256v1.6h-2.256v7.5a1.673,1.673,0,0,0,.3,1.089,1.268,1.268,0,0,0,1.027.363,4.993,4.993,0,0,0,.982-.134v1.665a6.044,6.044,0,0,1-1.585.222,2.571,2.571,0,0,1-2.087-.837,3.591,3.591,0,0,1-.7-2.378v-7.49h-2.2v-1.6h2.2v-2.925Z" transform="translate(-8792.122 -13214.668)" fill="#12263f"/>
    <path id="Trazado_102446" data-name="Trazado 102446" d="M716.71,3787.353a5.279,5.279,0,0,1-4-1.613,5.986,5.986,0,0,1-1.539-4.315v-.379a7.243,7.243,0,0,1,.686-3.209,5.353,5.353,0,0,1,1.921-2.211,4.83,4.83,0,0,1,2.673-.8,4.524,4.524,0,0,1,3.661,1.551,6.719,6.719,0,0,1,1.306,4.443v.86h-8.182a4.3,4.3,0,0,0,1.044,2.886,3.282,3.282,0,0,0,2.539,1.1,3.608,3.608,0,0,0,1.854-.446,4.677,4.677,0,0,0,1.329-1.184l1.262.982A5.072,5.072,0,0,1,716.71,3787.353Zm-.257-10.829a2.755,2.755,0,0,0-2.1.909,4.431,4.431,0,0,0-1.05,2.551h6.051v-.156a3.933,3.933,0,0,0-.849-2.439A2.6,2.6,0,0,0,716.453,3776.525Z" transform="translate(-8793.644 -13215.157)" fill="#12263f"/>
    <path id="Trazado_102447" data-name="Trazado 102447" d="M725.516,3780.99a7.09,7.09,0,0,1,1.307-4.493,4.5,4.5,0,0,1,6.91-.106l.1-1.34h1.886v11.788a4.911,4.911,0,0,1-1.39,3.7,5.131,5.131,0,0,1-3.734,1.351,6.2,6.2,0,0,1-2.556-.558,4.4,4.4,0,0,1-1.909-1.529l1.072-1.239a4.039,4.039,0,0,0,3.249,1.641,3.169,3.169,0,0,0,2.35-.848,3.246,3.246,0,0,0,.843-2.39v-1.038a4.243,4.243,0,0,1-3.382,1.429,4.129,4.129,0,0,1-3.434-1.708A7.469,7.469,0,0,1,725.516,3780.99Zm2.076.235a5.415,5.415,0,0,0,.837,3.21,2.719,2.719,0,0,0,2.344,1.166,3.025,3.025,0,0,0,2.869-1.775v-5.515a3.061,3.061,0,0,0-2.846-1.73,2.743,2.743,0,0,0-2.356,1.172A5.9,5.9,0,0,0,727.592,3781.224Z" transform="translate(-8795.842 -13215.157)" fill="#12263f"/>
    <path id="Trazado_102448" data-name="Trazado 102448" d="M747.082,3776.9a6.173,6.173,0,0,0-1.016-.078,2.719,2.719,0,0,0-2.756,1.73v8.574h-2.066v-12.079h2.009l.033,1.4a3.219,3.219,0,0,1,2.882-1.618,2.107,2.107,0,0,1,.914.156Z" transform="translate(-8798.252 -13215.157)" fill="#12263f"/>
    <path id="Trazado_102449" data-name="Trazado 102449" d="M757.262,3787.13a4.331,4.331,0,0,1-.29-1.273,4.607,4.607,0,0,1-3.439,1.5,4.261,4.261,0,0,1-2.93-1.011,3.264,3.264,0,0,1-1.144-2.561,3.416,3.416,0,0,1,1.434-2.931,6.768,6.768,0,0,1,4.036-1.043h2.009v-.949a2.323,2.323,0,0,0-.647-1.725,2.6,2.6,0,0,0-1.909-.642,3.012,3.012,0,0,0-1.853.558,1.646,1.646,0,0,0-.748,1.352H749.7a2.85,2.85,0,0,1,.643-1.748,4.379,4.379,0,0,1,1.741-1.333,5.854,5.854,0,0,1,2.418-.491,4.776,4.776,0,0,1,3.27,1.043,3.764,3.764,0,0,1,1.228,2.875v5.56a6.792,6.792,0,0,0,.424,2.645v.179Zm-3.427-1.574a3.638,3.638,0,0,0,1.842-.5,3.049,3.049,0,0,0,1.261-1.306v-2.479h-1.618q-3.8,0-3.8,2.221a1.878,1.878,0,0,0,.648,1.518A2.486,2.486,0,0,0,753.835,3785.556Z" transform="translate(-8799.51 -13215.157)" fill="#12263f"/>
    <path id="Trazado_102450" data-name="Trazado 102450" d="M766.83,3786.253h-2.065v-17.147h2.065Z" transform="translate(-8801.855 -13214.281)" fill="#12263f"/>
  </g>
</svg>
