<svg xmlns="http://www.w3.org/2000/svg" width="86" height="86" viewBox="0 0 86 86">
  <g id="Grupo_53049" data-name="Grupo 53049" transform="translate(9974 2485)">
    <rect id="Rectángulo_28719" data-name="Rectángulo 28719" width="86" height="86" transform="translate(-9974 -2485)" fill="none"/>
    <g id="Grupo_53048" data-name="Grupo 53048" transform="translate(11)">
      <g id="levantar-la-mano" transform="translate(-9964.001 -2479)">
        <path id="Trazado_102979" data-name="Trazado 102979" d="M29.238,29.657A1.237,1.237,0,0,1,28,28.42V22.237a1.237,1.237,0,0,1,2.473,0V28.42A1.237,1.237,0,0,1,29.238,29.657Z" transform="translate(6.628 4.971)" fill="#00223d"/>
        <path id="Trazado_102980" data-name="Trazado 102980" d="M22.238,27.657A1.237,1.237,0,0,1,21,26.42V20.237a1.237,1.237,0,1,1,2.473,0V26.42A1.237,1.237,0,0,1,22.238,27.657Z" transform="translate(4.971 4.497)" fill="#00223d"/>
        <path id="Trazado_102981" data-name="Trazado 102981" d="M16.238,28.367A1.237,1.237,0,0,1,15,27.13V17.237a1.237,1.237,0,0,1,2.473,0V27.13A1.237,1.237,0,0,1,16.238,28.367Z" transform="translate(3.551 3.787)" fill="#00223d"/>
        <path id="Trazado_102982" data-name="Trazado 102982" d="M40.155,63.314H9.238A1.237,1.237,0,0,1,8,62.077V47.237A1.237,1.237,0,0,1,9.238,46H40.155a1.237,1.237,0,0,1,1.237,1.237v14.84A1.237,1.237,0,0,1,40.155,63.314ZM10.474,60.84H38.918V48.473H10.474Z" transform="translate(1.894 10.888)" fill="#00223d"/>
        <path id="Trazado_102983" data-name="Trazado 102983" d="M39.569,59.361H13.846a1.236,1.236,0,0,1-1.211-.986,12.066,12.066,0,0,1-.182-2.463v-.778a14.472,14.472,0,0,1-7.77-13.281c0-3.948-1.047-10.965-3.376-14.2-2.571-3.578-.667-5.641-.022-6.187a5.77,5.77,0,0,1,7.279.273,13.832,13.832,0,0,1,2.567,4.092V6.183A7.065,7.065,0,0,1,13.006,1.3,4.187,4.187,0,0,1,16.011,0c3,0,5.014,3.2,5.014,6.183v10.25a4.858,4.858,0,0,1,2.7-.811c2.434,0,4.061,2.069,4.557,4.446a4.9,4.9,0,0,1,3.194-1.322c2.75,0,5.143,2.835,5.559,5.462a3.76,3.76,0,0,1,2.287-.777c3.044,0,5.181,3.118,5.2,5.916V40.29c-.01,9.352-.141,9.976-2.8,13.365-.272.346-.574.731-.909,1.172v1.149c0,.208.006.42.014.641a11.855,11.855,0,0,1-.026,1.639A1.237,1.237,0,0,1,39.569,59.361ZM14.943,56.888H38.36c0-.063,0-.126-.006-.189-.009-.256-.016-.5-.015-.731V54.415a1.239,1.239,0,0,1,.246-.741c.448-.6.843-1.1,1.191-1.546,2.178-2.774,2.263-2.883,2.273-11.839V29.355c-.009-1.558-1.226-3.45-2.723-3.45-1.378,0-2.224,2.2-2.224,3.776a1.237,1.237,0,1,1-2.473,0V24.994c0-1.579-1.587-3.776-3.149-3.776-1.493,0-3.01,2.045-3.01,3.515a1.236,1.236,0,0,1-1.232,1.237h0A1.237,1.237,0,0,1,26,24.743l-.025-3.124c0-1.483-.779-3.525-2.243-3.525a2.9,2.9,0,0,0-2.7,2.928,1.237,1.237,0,0,1-2.473,0V6.183c0-1.751-1.086-3.71-2.54-3.71a1.741,1.741,0,0,0-1.252.575A4.652,4.652,0,0,0,13.6,6.177V33.391a1.238,1.238,0,0,1-1.137,1.234c-1.043.094-1.295-.89-1.393-1.258-1.766-6.648-3.429-9.046-4.264-9.884a3.357,3.357,0,0,0-3.928-.134c-.834.707-.226,1.944.43,2.857,2.8,3.891,3.841,11.662,3.841,15.645,0,8.663,6.892,11.311,6.961,11.337a1.236,1.236,0,0,1,.808,1.16v1.562c0,.312,0,.643.019.977Z" transform="translate(0 0)" fill="#00223d"/>
        <path id="Trazado_102984" data-name="Trazado 102984" d="M31.184,57.42H26.238A1.237,1.237,0,0,1,25,56.183V51.237A1.237,1.237,0,0,1,26.238,50h4.947a1.237,1.237,0,0,1,1.237,1.237v4.947A1.237,1.237,0,0,1,31.184,57.42Zm-3.71-2.473h2.473V52.473H27.474Z" transform="translate(5.918 11.835)" fill="#00223d"/>
        <path id="Trazado_102985" data-name="Trazado 102985" d="M18.184,52.473H13.238a1.237,1.237,0,1,1,0-2.473h4.947a1.237,1.237,0,1,1,0,2.473Z" transform="translate(2.841 11.835)" fill="#00223d"/>
        <path id="Trazado_102986" data-name="Trazado 102986" d="M22.474,52.473H21.238a1.237,1.237,0,1,1,0-2.473h1.237a1.237,1.237,0,1,1,0,2.473Z" transform="translate(4.734 11.835)" fill="#00223d"/>
        <path id="Trazado_102987" data-name="Trazado 102987" d="M23.184,56.473H18.238a1.237,1.237,0,1,1,0-2.473h4.947a1.237,1.237,0,1,1,0,2.473Z" transform="translate(4.024 12.782)" fill="#00223d"/>
        <path id="Trazado_102988" data-name="Trazado 102988" d="M14.474,56.473H13.238a1.237,1.237,0,1,1,0-2.473h1.237a1.237,1.237,0,1,1,0,2.473Z" transform="translate(2.841 12.782)" fill="#00223d"/>
      </g>
    </g>
  </g>
</svg>
