<svg xmlns="http://www.w3.org/2000/svg" width="86" height="86" viewBox="0 0 86 86">
  <g id="Grupo_53051" data-name="Grupo 53051" transform="translate(10511 2485)">
    <rect id="Rectángulo_28717" data-name="Rectángulo 28717" width="86" height="86" transform="translate(-10511 -2485)" fill="none"/>
    <g id="evaluacion" transform="translate(-10492.001 -2476)">
      <g id="Grupo_49891" data-name="Grupo 49891" transform="translate(0.001 0)">
        <g id="Grupo_49890" data-name="Grupo 49890">
          <path id="Trazado_102966" data-name="Trazado 102966" d="M181.9,143.7a1,1,0,1,0,0-2H162.908a1,1,0,1,0,0,2Z" transform="translate(-145.709 -122.771)" fill="#00223d"/>
          <path id="Trazado_102967" data-name="Trazado 102967" d="M86.41,186.2a1,1,0,0,0,1,1h23.338a1,1,0,0,0,0-2H87.411A1,1,0,0,0,86.41,186.2Z" transform="translate(-80.296 -160.462)" fill="#00223d"/>
          <path id="Trazado_102968" data-name="Trazado 102968" d="M87.411,230.7H106.99a1,1,0,0,0,0-2H87.411a1,1,0,0,0,0,2Z" transform="translate(-80.296 -198.153)" fill="#00223d"/>
          <path id="Trazado_102969" data-name="Trazado 102969" d="M87.411,274.2h17.961a1,1,0,1,0,0-2H87.411a1,1,0,1,0,0,2Z" transform="translate(-80.296 -235.844)" fill="#00223d"/>
          <path id="Trazado_102970" data-name="Trazado 102970" d="M87.411,317.7h17.961a1,1,0,1,0,0-2H87.411a1,1,0,1,0,0,2Z" transform="translate(-80.296 -273.534)" fill="#00223d"/>
          <path id="Trazado_102971" data-name="Trazado 102971" d="M87.411,361.2H106.99a1,1,0,1,0,0-2H87.411a1,1,0,1,0,0,2Z" transform="translate(-80.296 -311.225)" fill="#00223d"/>
          <path id="Trazado_102972" data-name="Trazado 102972" d="M87.411,404.7h29.075a1,1,0,0,0,0-2H87.411a1,1,0,0,0,0,2Z" transform="translate(-80.296 -348.916)" fill="#00223d"/>
          <path id="Trazado_102973" data-name="Trazado 102973" d="M87.411,448.2h29.075a1,1,0,0,0,0-2H87.411a1,1,0,1,0,0,2Z" transform="translate(-80.296 -386.607)" fill="#00223d"/>
          <path id="Trazado_102974" data-name="Trazado 102974" d="M84.141,24.563c-.068,0-.136,0-.2,0V11.843A3.026,3.026,0,0,0,80.914,8.82H73.2V7.293a1.808,1.808,0,0,0-1.8-1.809H67.273V5.026a4.989,4.989,0,1,0-9.978,0v.458H53.169a1.808,1.808,0,0,0-1.8,1.809V8.82H43.655a3.026,3.026,0,0,0-3.023,3.023v4.74a1,1,0,0,0,2,0v-4.74a1.022,1.022,0,0,1,1.021-1.021h7.712v1.527a1.808,1.808,0,0,0,1.8,1.809H71.4a1.808,1.808,0,0,0,1.8-1.809V10.822h7.712a1.022,1.022,0,0,1,1.021,1.021V24.735A13.923,13.923,0,0,0,75.812,27.3,1,1,0,1,0,77,28.907a12.047,12.047,0,1,1-2.939,3.1,1,1,0,1,0-1.673-1.1A14.059,14.059,0,0,0,81.935,52.5V65.4a1.022,1.022,0,0,1-1.021,1.021H43.655A1.022,1.022,0,0,1,42.634,65.4V21.226a1,1,0,0,0-2,0V65.4a3.026,3.026,0,0,0,3.023,3.022h37.26A3.026,3.026,0,0,0,83.937,65.4V52.673l.2,0a14.056,14.056,0,1,0,0-28.112ZM71.2,12.156H53.368V7.485H58.3a1,1,0,0,0,1-1V5.026a2.988,2.988,0,1,1,5.975,0V6.484a1,1,0,0,0,1,1H71.2v4.671Z" transform="translate(-40.632 0)" fill="#00223d"/>
          <path id="Trazado_102975" data-name="Trazado 102975" d="M309.523,250.652h.089a3.144,3.144,0,0,0,2.208-1L319,241.868a3.126,3.126,0,1,0-4.593-4.241l-5.012,5.429-1.24-1.2a3.126,3.126,0,0,0-4.345,4.5l3.539,3.421A3.109,3.109,0,0,0,309.523,250.652Zm-4.348-7.328a1.126,1.126,0,0,1,1.59-.027l1.976,1.91a1,1,0,0,0,1.431-.041l5.707-6.181a1.108,1.108,0,0,1,1.589-.064,1.131,1.131,0,0,1,.063,1.589l-7.182,7.779a1.129,1.129,0,0,1-.791.361h-.035a1.119,1.119,0,0,1-.782-.316l-3.539-3.421A1.126,1.126,0,0,1,305.175,243.324Z" transform="translate(-267.835 -205.018)" fill="#00223d"/>
        </g>
      </g>
    </g>
  </g>
</svg>
