<svg xmlns="http://www.w3.org/2000/svg" width="107" height="107" viewBox="0 0 107 107">
  <g id="Grupo_53041" data-name="Grupo 53041" transform="translate(13434 7038)">
    <rect id="Rectángulo_28710" data-name="Rectángulo 28710" width="107" height="107" transform="translate(-13434 -7038)" fill="none"/>
    <g id="Grupo_53036" data-name="Grupo 53036" transform="translate(-14118.7 -11616)">
      <rect id="Line" width="13.177" height="2" transform="translate(709.7 4590)" fill="#ea3065"/>
      <g id="Grupo_49644" data-name="Grupo 49644" transform="translate(709.7 4606.45)">
        <path id="Trazado_100544" data-name="Trazado 100544" d="M137.25,176.263v-1.677a.985.985,0,0,0-1.969,0v1.677a.985.985,0,0,0,1.969,0Z" transform="translate(-123.086 -150.813)" fill="#12263f"/>
        <path id="Trazado_100545" data-name="Trazado 100545" d="M93.215,42.975h.8a4.467,4.467,0,0,0,4.45-4.474v-.028a4.487,4.487,0,0,0-2.707-4.121V32.031h.591a1.38,1.38,0,0,0,1.378-1.378v-.919a3.613,3.613,0,0,0-1.969-3.214V23.826A8.871,8.871,0,0,0,86.9,14.965H77.653q.75-.537,1.448-1.137a6.641,6.641,0,0,0,1.6-7.175l-.074-.179a5.687,5.687,0,0,0-7.3-3.147c-.079.031-.108-.048-.11-.11A3.3,3.3,0,0,0,69.9,0h-.935c-9.592,0-14.521,4.311-16.6,6.88a3.209,3.209,0,0,1-2.424,1.176.932.932,0,0,0-.123-.006,5.242,5.242,0,0,0-5.249,5.235v6.549a4.487,4.487,0,0,0-2.181,3.852v.028a4.467,4.467,0,0,0,4.45,4.474H47.94A13.607,13.607,0,0,0,56.1,38.263v2.742H50.229a7.09,7.09,0,0,0-7.082,7.082.985.985,0,0,0,1.969,0,5.119,5.119,0,0,1,5.113-5.113H56.2a5.179,5.179,0,0,0,5.082,4.191h.012a5.188,5.188,0,0,0,5.07-4.191h.18A13.607,13.607,0,0,0,74.7,53.048v3.065H68.827A7.09,7.09,0,0,0,61.744,63.2v2.048H45.116V52.682a.985.985,0,0,0-1.969,0V65.571a1.643,1.643,0,0,0,1.641,1.641H87.826a.985.985,0,1,0,0-1.969H63.714V63.2a5.119,5.119,0,0,1,5.113-5.113H74.8a5.179,5.179,0,0,0,5.083,4.192h.012a5.187,5.187,0,0,0,5.07-4.192h5.97A5.119,5.119,0,0,1,96.043,63.2v2.048H92.42a.985.985,0,1,0,0,1.969h3.951a1.643,1.643,0,0,0,1.641-1.641V63.2a7.09,7.09,0,0,0-7.082-7.082H85.055V53.048a13.607,13.607,0,0,0,8.16-10.073Zm3.286-4.5V38.5a2.5,2.5,0,0,1-2.481,2.5h-.59c.006-.163.01-.327.01-.491V35.963h.58A2.5,2.5,0,0,1,96.5,38.473Zm-2.707-4.48H91.563A2.065,2.065,0,0,1,89.5,32.031h4.29v1.963Zm1.969-3.932H63.994v-.328a1.643,1.643,0,0,1,1.641-1.641H94.122a1.643,1.643,0,0,1,1.641,1.641ZM65.5,41.006h-.064a2.5,2.5,0,0,1-2.481-2.5v-.028a2.5,2.5,0,0,1,2.481-2.51h.885v4.552c0,.164,0,.328.01.491Zm2.7-7.012h-2.25V32.031h4.309A2.06,2.06,0,0,1,68.2,33.994ZM81.683,16.934A4.271,4.271,0,0,1,85.95,21.2v4.923H73.807V21.2a4.271,4.271,0,0,1,4.266-4.266Zm-8.151,0A6.211,6.211,0,0,0,71.838,21.2v4.923H65.963v-2.3a6.9,6.9,0,0,1,6.892-6.892Zm20.261,6.892v2.3H87.919V21.2a6.211,6.211,0,0,0-1.694-4.266H86.9A6.9,6.9,0,0,1,93.793,23.826ZM46.535,13.286a3.273,3.273,0,0,1,3.188-3.265,1.15,1.15,0,0,0,.123.006,5.174,5.174,0,0,0,4.045-1.906c1.863-2.3,6.3-6.152,15.075-6.152H69.9a1.316,1.316,0,0,1,1.345,1.315c0,.023,0,.046,0,.068a2.049,2.049,0,0,0,2.789,1.811l.036-.015A3.711,3.711,0,0,1,78.8,7.222l.074.179a4.7,4.7,0,0,1-1.061,4.936,18.766,18.766,0,0,1-3.8,2.533.99.99,0,0,0-.153.1h-1.01a8.815,8.815,0,0,0-5.445,1.878,1,1,0,0,0-.251-.009c-.684.067-1.388.1-2.092.1H53.558a2.3,2.3,0,0,0-2.3,2.3v3.622a.653.653,0,0,1-.644.644h-.932V20.192a.984.984,0,0,0-.985-.985H46.835c-.1,0-.2,0-.3.011Zm.3,12.933a2.5,2.5,0,0,1-2.481-2.5v-.028a2.5,2.5,0,0,1,2.481-2.51h.881v4.552c0,.164,0,.328.01.491Zm2.85-.491v-.261h.932a2.616,2.616,0,0,0,2.613-2.613V19.232a.333.333,0,0,1,.328-.328H65.067c.143,0,.285,0,.427-.005a8.809,8.809,0,0,0-1.5,4.928V26.52a3.613,3.613,0,0,0-1.969,3.214v.892a5.387,5.387,0,0,1-4.259-1.26.985.985,0,1,0-1.275,1.5,7.383,7.383,0,0,0,4.786,1.784,7.253,7.253,0,0,0,2.7-.525V34.24a4.485,4.485,0,0,0-2.845,3.077,11.6,11.6,0,0,1-11.448-11.59ZM61.288,45.2h-.008a3.208,3.208,0,0,1-3.207-3.208V38.906a13.534,13.534,0,0,0,2.979.38,4.476,4.476,0,0,0,3.319,3.559A3.214,3.214,0,0,1,61.288,45.2Zm7-4.682V35.961a4.029,4.029,0,0,0,3.941-3.93h15.3A4.037,4.037,0,0,0,91.47,35.96v4.554a11.592,11.592,0,1,1-23.183,0ZM83.086,57.1a3.207,3.207,0,1,1-6.415,0V53.691a13.58,13.58,0,0,0,6.415,0V57.1Z" transform="translate(-42.385 0)" fill="#12263f"/>
        <path id="Trazado_100546" data-name="Trazado 100546" d="M298.91,334.907a.985.985,0,0,0-1.387-.119,5.366,5.366,0,0,1-7.033,0,.985.985,0,0,0-1.275,1.5,7.306,7.306,0,0,0,9.575,0,.985.985,0,0,0,.119-1.387Z" transform="translate(-256.51 -290.638)" fill="#12263f"/>
        <path id="Trazado_100547" data-name="Trazado 100547" d="M365.026,289.886a.984.984,0,0,0,.985-.985v-1.677a.985.985,0,0,0-1.969,0V288.9A.985.985,0,0,0,365.026,289.886Z" transform="translate(-321.815 -248.664)" fill="#12263f"/>
        <path id="Trazado_100548" data-name="Trazado 100548" d="M278.919,288.9v-1.677a.985.985,0,0,0-1.969,0V288.9a.985.985,0,0,0,1.969,0Z" transform="translate(-246.157 -248.664)" fill="#12263f"/>
      </g>
    </g>
  </g>
</svg>
