<svg xmlns="http://www.w3.org/2000/svg" width="474.346" height="419.956" viewBox="0 0 474.346 419.956">
  <g id="Grupo_50746" data-name="Grupo 50746" transform="translate(-729.68 -3903.845)">
    <g id="freepik--background-simple--inject-76">
      <path id="Trazado_112965" data-name="Trazado 112965" d="M902.146,4320.211c108.18,19.94,215.83-70,265.35-156.29,32.9-57.32,46-124.59,26.81-179.34-14.07-40.11-49.46-79-102.09-80.69-58.65-1.9-105.84,55.51-166.11,54.35s-131.37,23.54-165.86,68.31-41.52,126.38-12.19,189.71c16.72,36.11,46.32,67,84.81,85.81,21.15,10.31,44,13.24,68,17.89Z" fill="#36c"/>
      <path id="Trazado_112966" data-name="Trazado 112966" d="M902.146,4320.211c108.18,19.94,215.83-70,265.35-156.29,32.9-57.32,46-124.59,26.81-179.34-14.07-40.11-49.46-79-102.09-80.69-58.65-1.9-105.84,55.51-166.11,54.35s-131.37,23.54-165.86,68.31-41.52,126.38-12.19,189.71c16.72,36.11,46.32,67,84.81,85.81,21.15,10.31,44,13.24,68,17.89Z" fill="#fff" opacity="0.8" style="isolation: isolate"/>
    </g>
    <g id="freepik--Mirror--inject-76">
      <path id="Trazado_112967" data-name="Trazado 112967" d="M876.876,4032.721c-3.19-4.78,3.18-8,1.59-17.54s-9.57-2.39-15.15-8.77,3.19-11.16,1.6-19.13-13.55-4-15.15-11.16,3.19-24.71-14.39-30.26-36.67,3.18-36.67,3.18l-.44,4.6v103.83H884.9c-.05-.89-.09-1.74-.09-2.43,0-3.19,4.78-7.17,4.78-14.35S880.056,4037.5,876.876,4032.721Z" fill="#12263f"/>
      <path id="Trazado_112968" data-name="Trazado 112968" d="M876.876,4032.721c-3.19-4.78,3.18-8,1.59-17.54s-9.57-2.39-15.15-8.77,3.19-11.16,1.6-19.13-13.55-4-15.15-11.16,3.19-24.71-14.39-30.26-36.67,3.18-36.67,3.18l-.44,4.6v103.83H884.9c-.05-.89-.09-1.74-.09-2.43,0-3.19,4.78-7.17,4.78-14.35S880.056,4037.5,876.876,4032.721Z" fill="#7cc5ff" opacity="0.7" style="isolation: isolate"/>
      <rect id="Rectángulo_28669" data-name="Rectángulo 28669" width="119.97" height="145.61" transform="translate(798.306 3911.861)" fill="none" stroke="#263238" stroke-linecap="round" stroke-linejoin="round" stroke-width="1"/>
      <line id="Línea_228" data-name="Línea 228" x1="38.03" y2="51.03" transform="translate(838.046 3965.661)" fill="none" stroke="#263238" stroke-linecap="round" stroke-linejoin="round" stroke-width="1"/>
      <line id="Línea_229" data-name="Línea 229" x1="24" y2="32.2" transform="translate(883.306 3923.761)" fill="none" stroke="#263238" stroke-linecap="round" stroke-linejoin="round" stroke-width="1"/>
      <line id="Línea_230" data-name="Línea 230" x1="4.36" y2="5.93" transform="translate(819.636 4017.781)" fill="none" stroke="#263238" stroke-linecap="round" stroke-linejoin="round" stroke-width="1"/>
      <line id="Línea_231" data-name="Línea 231" x1="24.84" y2="33.75" transform="translate(828.986 3977.241)" fill="none" stroke="#263238" stroke-linecap="round" stroke-linejoin="round" stroke-width="1"/>
      <line id="Línea_232" data-name="Línea 232" x1="4.02" y2="4.83" transform="translate(808.236 3938.221)" fill="none" stroke="#263238" stroke-linecap="round" stroke-linejoin="round" stroke-width="1"/>
      <line id="Línea_233" data-name="Línea 233" x1="11.57" y2="13.88" transform="translate(818.586 3916.751)" fill="none" stroke="#263238" stroke-linecap="round" stroke-linejoin="round" stroke-width="1"/>
    </g>
    <g id="freepik--Sink--inject-76">
      <path id="Trazado_112969" data-name="Trazado 112969" d="M847.486,4109.251h-16.41l3.29-15.38h9.84Z" fill="#8a8a8a" stroke="#263238" stroke-linecap="round" stroke-linejoin="round" stroke-width="1"/>
      <path id="Trazado_112970" data-name="Trazado 112970" d="M884.406,4109.251H868l3.28-15.38h9.85Z" fill="#8a8a8a" stroke="#263238" stroke-linecap="round" stroke-linejoin="round" stroke-width="1"/>
      <path id="Trazado_112971" data-name="Trazado 112971" d="M858.256,4112.861a3.08,3.08,0,0,1-3.08-3.08h0V4083.1a14.87,14.87,0,1,1,29.74,0v9.76a3.08,3.08,0,0,1-6.15,0v-9.75a8.72,8.72,0,0,0-17.43,0v26.65a3.08,3.08,0,0,1-3.06,3.1Z" fill="#8a8a8a" stroke="#263238" stroke-linecap="round" stroke-linejoin="round" stroke-width="1"/>
      <rect id="Rectángulo_28670" data-name="Rectángulo 28670" width="173.64" height="209.87" transform="translate(779.636 4106.521)" fill="#36c" stroke="#263238" stroke-linecap="round" stroke-linejoin="round" stroke-width="1"/>
      <rect id="Rectángulo_28671" data-name="Rectángulo 28671" width="126.47" height="209.87" transform="translate(826.806 4106.521)" fill="#36c" stroke="#263238" stroke-linecap="round" stroke-linejoin="round" stroke-width="1"/>
      <rect id="Rectángulo_28672" data-name="Rectángulo 28672" width="177.06" height="8.2" transform="translate(779.636 4106.521)" fill="#fff" stroke="#263238" stroke-linecap="round" stroke-linejoin="round" stroke-width="1"/>
      <rect id="Rectángulo_28673" data-name="Rectángulo 28673" width="128.96" height="8.2" transform="translate(827.736 4106.521)" fill="#fff" stroke="#263238" stroke-linecap="round" stroke-linejoin="round" stroke-width="1"/>
      <rect id="Rectángulo_28674" data-name="Rectángulo 28674" width="112.8" height="36.23" transform="translate(833.646 4120.872)" fill="#36c" stroke="#263238" stroke-linecap="round" stroke-linejoin="round" stroke-width="1"/>
      <rect id="Rectángulo_28675" data-name="Rectángulo 28675" width="26.34" height="4.45" transform="translate(876.536 4136.421)" fill="#12263f" stroke="#263238" stroke-linecap="round" stroke-linejoin="round" stroke-width="1"/>
      <rect id="Rectángulo_28676" data-name="Rectángulo 28676" width="112.8" height="36.23" transform="translate(833.646 4169.411)" fill="#36c" stroke="#263238" stroke-linecap="round" stroke-linejoin="round" stroke-width="1"/>
      <rect id="Rectángulo_28677" data-name="Rectángulo 28677" width="26.34" height="4.45" transform="translate(876.536 4184.961)" fill="#12263f" stroke="#263238" stroke-linecap="round" stroke-linejoin="round" stroke-width="1"/>
      <rect id="Rectángulo_28678" data-name="Rectángulo 28678" width="112.8" height="36.23" transform="translate(833.646 4217.951)" fill="#36c" stroke="#263238" stroke-linecap="round" stroke-linejoin="round" stroke-width="1"/>
      <rect id="Rectángulo_28679" data-name="Rectángulo 28679" width="26.34" height="4.45" transform="translate(876.536 4233.501)" fill="#12263f" stroke="#263238" stroke-linecap="round" stroke-linejoin="round" stroke-width="1"/>
      <rect id="Rectángulo_28680" data-name="Rectángulo 28680" width="112.8" height="36.23" transform="translate(833.646 4266.481)" fill="#36c" stroke="#263238" stroke-linecap="round" stroke-linejoin="round" stroke-width="1"/>
      <rect id="Rectángulo_28681" data-name="Rectángulo 28681" width="26.34" height="4.45" transform="translate(876.536 4282.031)" fill="#12263f" stroke="#263238" stroke-linecap="round" stroke-linejoin="round" stroke-width="1"/>
    </g>
    <g id="freepik--Floor--inject-76">
      <line id="Línea_234" data-name="Línea 234" x2="9" transform="translate(1183.376 4316.392)" fill="none" stroke="#263238" stroke-linecap="round" stroke-linejoin="round" stroke-width="1"/>
      <line id="Línea_235" data-name="Línea 235" x2="434.63" transform="translate(735.746 4316.392)" fill="none" stroke="#263238" stroke-linecap="round" stroke-linejoin="round" stroke-width="1"/>
    </g>
    <g id="freepik--Plants--inject-76">
      <path id="Trazado_112972" data-name="Trazado 112972" d="M757.946,4223.051a12.648,12.648,0,0,0-.76-2.36,24.98,24.98,0,0,0-1.18-2.52,30.2,30.2,0,0,0-2.63-4,.24.24,0,0,0-.41.21c.14.53.31,1.24.51,2s.36,1.73.54,2.64c.39,1.81.65,3.74,1,5.11l.59,2.38a18.824,18.824,0,0,0,.58,1.89l-1.81-1.54c-.58-.53-1.23-1-1.84-1.49a4.792,4.792,0,0,0,.26-2.59,16.423,16.423,0,0,0-1.14-4.35,18.414,18.414,0,0,0-1.16-2.22,26.7,26.7,0,0,0-1.66-2.3,27.735,27.735,0,0,0-3.42-3.52.24.24,0,0,0-.37.28c.25.51.58,1.18.92,1.94l1.06,2.5c.66,1.74,1.36,3.55,1.88,4.91.34.82.67,1.58,1,2.24s.59,1.3.86,1.8l-1.44-1-1.5-.89a2.138,2.138,0,0,0-.43-.83,7.709,7.709,0,0,0-1-1,12.491,12.491,0,0,0-3.45-1.85,14.909,14.909,0,0,0-4.57-.63,16.563,16.563,0,0,0-4,.39c-.2.05-.18.41,0,.46a34.671,34.671,0,0,1,3.53,1.32c1.37.56,2.77,1.26,3.9,1.65,2.34.86,4.46,1.41,5.47,1.24l1.49.88a13.117,13.117,0,0,1,1.43,1,12.329,12.329,0,0,0-1.87-.08,18.21,18.21,0,0,0-2.21.3,11.833,11.833,0,0,0-2.11.67,16.556,16.556,0,0,0-2.19,1.06c-.71.41-1.36.83-1.92,1.23s-1,.8-1.37,1.09c-.15.13-.15.46,0,.41.68-.21,1.84-.46,3.18-.72l2.08-.37c.69-.1,1.38-.21,2-.35,1.41-.31,2.76-.58,3.89-.93a6.419,6.419,0,0,0,2.34-1c.59.48,1.21.92,1.77,1.43l1.69,1.54a12.459,12.459,0,0,0-1.85-.35,11.621,11.621,0,0,0-2.23-.08,16.649,16.649,0,0,0-4.59.94,22.438,22.438,0,0,0-2.13.82c-.65.3-1.19.58-1.6.8-.18.1-.24.42-.07.41.75-.07,2-.06,3.37-.07h4.22a37.99,37.99,0,0,0,4-.28,6.056,6.056,0,0,0,2.47-.62c1.08,1.07,2,2.26,3,3.43a14.65,14.65,0,0,0-4-1,18.765,18.765,0,0,0-4.71.21,29.954,29.954,0,0,0-4,.95c-.2.07-.3.38-.13.39l3.42.55c1.36.3,3,.53,4.22.71a33.618,33.618,0,0,0,4,.28,5.981,5.981,0,0,0,2.53-.29l1.36,1.84,1.27,1.91a14.585,14.585,0,0,0-3.88-1.45,19.315,19.315,0,0,0-4.75-.44,35.019,35.019,0,0,0-4.13.34c-.22,0-.35.32-.18.38.73.25,2,.65,3.38,1.07a37.585,37.585,0,0,0,4.2,1.31,30.767,30.767,0,0,0,4,.75,6.155,6.155,0,0,0,2.56-.05l1.15,2,1.07,2a14.253,14.253,0,0,0-3.71-1.83,19.584,19.584,0,0,0-4.68-.92,36.112,36.112,0,0,0-4.2-.17c-.22,0-.39.29-.22.36.77.33,1.94.92,3.32,1.52a41.44,41.44,0,0,0,4,1.7,30.771,30.771,0,0,0,3.9,1.15,5.989,5.989,0,0,0,2.54.23c.66,1.38,1.21,2.8,1.77,4.22a15.026,15.026,0,0,0-3.48-2.24,21.094,21.094,0,0,0-4.55-1.4,33.114,33.114,0,0,0-4.15-.58c-.22,0-.42.25-.25.34.72.39,1.82,1.09,3.12,1.82s2.66,1.54,3.8,2.11c2.69,1.24,5.21,2.25,6.26,2.08l.66,2.19.57,2.21a14.367,14.367,0,0,0-3.18-2.63,20.553,20.553,0,0,0-4.33-1.91,39.385,39.385,0,0,0-4-1c-.21,0-.44.19-.3.3.61.48,1.74,1.25,2.87,2.13a41.192,41.192,0,0,0,3.53,2.5c2.48,1.54,4.88,2.85,5.91,2.84a34.38,34.38,0,0,1,.54,4.5c0,.18.2.32.45.33a.4.4,0,0,0,.439-.357v-.013a34.178,34.178,0,0,0-.55-4.62c1-.27,2.79-2.47,4-5.66a22.04,22.04,0,0,0,1.14-5,39.425,39.425,0,0,0,.28-4.57.23.23,0,0,0-.45-.06l-1.93,4.25c-.81,1.68-1.59,3.37-2.13,4.7a36.347,36.347,0,0,0-1.38,4.18c-.18-.77-.39-1.53-.59-2.3l-.68-2.27a4.81,4.81,0,0,0,1.65-2,16.7,16.7,0,0,0,1.61-4.12,22.73,22.73,0,0,0,.58-5.08,42.133,42.133,0,0,0-.24-4.52c0-.23-.37-.23-.45,0-.3,1-.89,2.7-1.46,4.42s-1.1,3.49-1.44,4.86a31.447,31.447,0,0,0-.86,4.31c-.57-1.47-1.15-2.94-1.83-4.37a4.986,4.986,0,0,0,1.44-2.16,19.586,19.586,0,0,0,1.14-4.27,24.317,24.317,0,0,0,0-5.06,43.153,43.153,0,0,0-.68-4.45c-.05-.23-.4-.19-.45.05-.2,1-.61,2.76-1,4.53s-.83,3.61-1,5a33.663,33.663,0,0,0-.38,4.38l-1.1-2.1-1.2-2a4.939,4.939,0,0,0,1.19-2.3,20.081,20.081,0,0,0,.7-4.35,25.989,25.989,0,0,0-.48-5c-.39-1.75-.89-3.41-1.22-4.43-.07-.24-.43-.16-.44.08l-.49,4.61c-.15,1.81-.48,3.7-.51,5.09a33.506,33.506,0,0,0,.07,4.39l-1.31-2-1.41-1.91a5,5,0,0,0,1-2.4,18.988,18.988,0,0,0,.2-4.43,21.638,21.638,0,0,0-1.16-5,43.435,43.435,0,0,0-1.87-4.3.24.24,0,0,0-.44.14c.09,1.1.15,2.92.23,4.75s0,3.78.17,5.17a33.791,33.791,0,0,0,.56,4.38,42.231,42.231,0,0,0-3.14-3.56,5,5,0,0,0,.65-2.52A16.758,16.758,0,0,0,757.946,4223.051Z" fill="#12263f"/>
      <path id="Trazado_112973" data-name="Trazado 112973" d="M791.836,4185.711c1.32-1.62,3.08-3.83,4.63-5.94l4-5.26c.22-.27,0-.63-.22-.46-1.16.72-3,2-5,3.49a45.494,45.494,0,0,0-5.39,4.89,42.084,42.084,0,0,0-4.16,5.77l1.2-4.27.62-2.14.71-2.11c1,.13,4.09-2.41,7.63-5.81,3-3,7.57-8.21,9.71-10.34.24-.25.09-.63-.18-.49a57.387,57.387,0,0,0-5.29,3c-1,.67-2.13,1.37-3.11,2.13s-1.91,1.51-2.7,2.25a29.559,29.559,0,0,0-2.65,2.75c-.79.91-1.49,1.79-2.07,2.59.8-2,1.51-4.08,2.39-6.06a11.576,11.576,0,0,0,2.42-3.23c1-1.65,2.11-3.85,3.35-6.21.52-1.06,1.07-2.3,1.68-3.58.28-.65.58-1.32.87-2l.91-2c1.18-2.62,2.33-5.09,3.09-6.56.18-.34-.11-.55-.38-.26a67.558,67.558,0,0,0-4.64,5.73l-1.29,1.82c-.41.62-.81,1.25-1.2,1.86a35.592,35.592,0,0,0-2,3.52,47.3,47.3,0,0,0-2.61,6.22,15.115,15.115,0,0,0-.84,4.07l-.66,1.52-.6,1.56-1.19,3.1c.1-1,.16-2.07.19-3.26s0-2.48,0-3.8a31.869,31.869,0,0,0-.15-3.68c-.15-1.31-.17-2.66-.26-4-.22-2.64-.36-5.09-.48-6.6,0-.35-.43-.21-.52.17-.2.84-.45,1.95-.75,3.21s-.5,2.68-.74,4.13-.39,2.95-.53,4.35a31.677,31.677,0,0,0-.17,3.87c.08,5.17,1.08,9.08,2,9.68l-.7,2.08c-.22.7-.41,1.4-.61,2.11l-1.2,4.21a60.586,60.586,0,0,0-.45-7.06c-.17-2.2-.68-5-1.11-7.58s-.84-5.06-1.09-6.53c-.05-.34-.45-.17-.51.22-.22,1.72-.61,4.51-.79,7.46a49.87,49.87,0,0,0,.09,8.27,31.815,31.815,0,0,0,1.3,6.46c.55,1.66,1.12,2.73,1.58,3l-.49,2.14-.38,2.16-.72,4.37a56.424,56.424,0,0,0-1.2-7c-.39-2.17-1.13-4.87-1.87-7.45s-1.28-4.94-1.69-6.41c-.09-.33-.46-.12-.48.27-.21,3.49-.24,11.34.85,15.79,1,5.07,2.94,8.7,3.89,9.1-.41,2.9-.45,5.83-.6,8.75-.22-.94-.5-2-.85-3.16-.17-.57-.36-1.17-.56-1.78s-.42-1.23-.6-1.86c-.63-2.12-1.71-4.74-2.69-7.23s-1.8-4.8-2.35-6.23c-.13-.33-.48-.07-.45.33.06.87.14,2,.24,3.32a40.946,40.946,0,0,0,.48,4.22c.24,1.47.51,3,.79,4.36.15.7.29,1.37.46,2s.39,1.23.58,1.77a39.166,39.166,0,0,0,2.67,6.05c.9,1.47,1.68,2.39,2.19,2.55,0,2.91,0,5.83.07,8.75a58.579,58.579,0,0,0-2.45-6.59c-.43-1-1-2.13-1.58-3.27-.3-.57-.62-1.14-.93-1.72s-.6-1.2-.9-1.78l-3.1-6c-.17-.31-.48,0-.41.38.33,1.74.88,4.58,1.57,7.45a64.052,64.052,0,0,0,2.61,7.6c2,4.63,4.27,7.94,5.29,8.21q.13,4.38.36,8.74a58.463,58.463,0,0,0-2.66-6.5,132.434,132.434,0,0,0-7.13-12c-.19-.28-.49,0-.39.38a96.962,96.962,0,0,0,4.84,14.47c2.19,4.55,4.54,7.79,5.57,8,.19,2.91.39,5.81.65,8.72a61.967,61.967,0,0,0-2.88-6.41,132.205,132.205,0,0,0-7.52-11.78c-.19-.27-.48,0-.38.4.94,3.18,3.27,10.34,5.34,14.26,2.32,4.48,4.79,7.64,5.83,7.84.28,2.9.59,5.79,1,8.68a.564.564,0,0,0,.53.6c.24-.03.4-.35.36-.72-.37-2.87-.68-5.75-1-8.63,1-.3,2.8-3.88,4.48-8.61,1.42-4.09,3-11.14,3.71-14.22.08-.35-.23-.62-.41-.34a75.379,75.379,0,0,0-6.28,12.16,43.2,43.2,0,0,0-1.9,6.92c-.26-3-.47-5.93-.66-8.89,1-.26,2.93-3.79,4.75-8.46,1.57-4,3.35-11,4.18-14.07.09-.35-.21-.63-.39-.36a73.576,73.576,0,0,0-6.65,11.91,44.494,44.494,0,0,0-2.13,6.85c-.15-3-.28-5.93-.37-8.9,1-.23,3.05-3.69,5-8.3.84-2,1.78-4.71,2.6-7.31s1.72-4.75,2.19-6.14c.11-.31-.18-.6-.37-.37-.84,1-2.2,2.77-3.6,4.8-.35.5-.71,1-1.05,1.56s-.65,1.11-.95,1.66c-.61,1.1-1.17,2.19-1.61,3.19a44.923,44.923,0,0,0-2.35,6.77c0-3-.09-5.94-.06-8.91.49-.1,1.29-1,2.22-2.43a54.316,54.316,0,0,0,3.22-5.47c.24-.46.48-1,.73-1.5l.85-1.67c.57-1.15,1.14-2.36,1.68-3.54s1.12-2.32,1.62-3.32.93-1.89,1.26-2.56c.14-.3-.11-.62-.33-.41-1,.93-2.54,2.51-4.19,4.37a44.835,44.835,0,0,0-4.2,5.87,15.084,15.084,0,0,0-.9,1.73c-.27.57-.51,1.14-.74,1.7-.46,1.1-.85,2.16-1.15,3.1.16-3,.19-5.92.6-8.86,1-.09,3.44-3.23,6.28-7.22,2.29-3.51,5.87-9.43,7.49-11.93.18-.29,0-.64-.28-.45-1.06.84-2.8,2.26-4.64,3.94a48.721,48.721,0,0,0-4.84,5.39,44.429,44.429,0,0,0-3.54,6.17l.76-4.38.38-2.19.5-2.17c.51,0,1.48-.69,2.7-1.86S790.256,4187.561,791.836,4185.711Z" fill="#12263f"/>
      <path id="Trazado_112974" data-name="Trazado 112974" d="M815.106,4219.581c2.79-1.2,6.81-3.6,8.54-4.57.2-.11.06-.43-.18-.41-1,.1-2.77.31-4.62.65a28.988,28.988,0,0,0-5.17,1.45,20.4,20.4,0,0,0-4.3,2.34c1-1.63,2-3.22,3-4.81.92.46,3.9-.18,7.21-1.29,1.42-.48,3.15-1.28,4.76-2s3.06-1.36,3.93-1.75c.2-.08.08-.4-.16-.41a36.341,36.341,0,0,0-4.57.17,25.762,25.762,0,0,0-5.23,1,21.023,21.023,0,0,0-4.46,2.06c.8-1.13,1.59-2.27,2.42-3.38,1-.16,3.1-2.16,5.28-4.74.47-.57,1-1.24,1.52-2l1.62-2.23a42,42,0,0,1,2.89-3.64.24.24,0,0,0-.26-.38,23.035,23.035,0,0,0-4.18,2.43c-.8.56-1.55,1.19-2.27,1.81a21.334,21.334,0,0,0-1.84,1.87c-2.11,2.5-3.32,5-3.36,6.18-.86,1.13-1.66,2.3-2.48,3.45a36.054,36.054,0,0,0,.56-4.85c.07-1.58,0-3.64-.07-5.63s-.13-3.9-.13-5.08a.24.24,0,0,0-.47-.06,44.858,44.858,0,0,0-1.62,4.94,28.434,28.434,0,0,0-1,5.62c-.18,3.65.44,6.65,1.16,7.36-1,1.57-2,3.14-3,4.74a34.288,34.288,0,0,0,.25-4.87,46.246,46.246,0,0,0-.5-5.57c-.26-1.96-.48-3.82-.63-4.95a.24.24,0,0,0-.47,0,44.267,44.267,0,0,0-1.67,10.52c.07,3.64.81,6.58,1.6,7.27-1,1.6-1.87,3.23-2.76,4.87a31.411,31.411,0,0,0,0-4.87c-.23-3.12-1.33-8.13-1.75-10.37a.24.24,0,0,0-.47,0,45.589,45.589,0,0,0-1,10.51c.25,3.61,1.13,6.52,2,7.17-.89,1.64-1.71,3.32-2.54,5a30.592,30.592,0,0,0-.21-4.86,98.728,98.728,0,0,0-2.27-10.24.24.24,0,0,0-.47,0c-.16,1.13-.39,3-.54,4.92a33.44,33.44,0,0,0,0,5.59c.41,3.58,1.42,6.46,2.26,7.07-.82,1.68-1.55,3.4-2.31,5.1a29.326,29.326,0,0,0-.44-4.85,47.857,47.857,0,0,0-1.3-5.41c-.52-1.87-1.08-3.64-1.42-4.72a.24.24,0,0,0-.46,0,48.275,48.275,0,0,0,0,10.53c.56,3.58,1.75,6.41,2.61,7-.69,1.73-1.37,3.47-2,5.23a34.725,34.725,0,0,0-.73-4.82,53.286,53.286,0,0,0-1.6-5.36c-.61-1.85-1.23-3.61-1.62-4.68a.24.24,0,0,0-.46.07,45.734,45.734,0,0,0,.47,10.61c.77,3.57,2.13,6.31,3,6.81-.6,1.77-1.12,3.57-1.61,5.37a37.108,37.108,0,0,0-1.09-4.77c-.88-3-3-7.76-3.81-9.87a.24.24,0,0,0-.46.1,42.95,42.95,0,0,0,1.12,10.66c1,3.54,2.61,6.17,3.57,6.58a48.91,48.91,0,0,0-1,5.53.43.43,0,0,0,.376.478l.024,0a.46.46,0,0,0,.49-.38,50.352,50.352,0,0,1,1-5.42c1,.09,3.59-1.5,6.33-3.6,2.34-1.85,5.56-5.17,7-6.58.16-.16-.06-.43-.28-.35a39.668,39.668,0,0,0-8.91,4.56,19.9,19.9,0,0,0-3.57,3.43c.49-1.82,1-3.64,1.62-5.44,1,.19,3.71-1.18,6.61-3.12a90.844,90.844,0,0,0,7.48-6.21c.17-.16,0-.44-.26-.37-1,.33-2.67.9-4.42,1.61a30.484,30.484,0,0,0-4.78,2.53,20.669,20.669,0,0,0-3.77,3.16c.62-1.79,1.31-3.56,2-5.32,1,.26,3.78-.93,6.81-2.71a81.78,81.78,0,0,0,7.84-5.9c.18-.15,0-.44-.25-.38-1,.29-2.72.8-4.5,1.43a32.082,32.082,0,0,0-4.93,2.2,22.4,22.4,0,0,0-4,2.93c.77-1.74,1.51-3.48,2.34-5.19,1,.31,3.83-.72,7-2.38a47.256,47.256,0,0,0,4.43-2.87c1.49-1.05,2.85-2.07,3.67-2.69.19-.14,0-.44-.23-.39a45.027,45.027,0,0,0-9.58,3.21,23.3,23.3,0,0,0-4.1,2.74c.85-1.69,1.69-3.4,2.58-5.07.94.35,3.87-.56,7-2.08a92.463,92.463,0,0,0,8.34-5.11c.19-.13,0-.44-.21-.4a42,42,0,0,0-9.7,2.71,22.1,22.1,0,0,0-4.22,2.55c.91-1.66,1.83-3.32,2.8-4.95C808.906,4221.691,811.876,4220.921,815.106,4219.581Z" fill="#12263f"/>
      <path id="Trazado_112975" data-name="Trazado 112975" d="M776.536,4316.391h12.38c9.79-4.3,17-18.53,17-35.42a53.315,53.315,0,0,0-3.54-19.38h-39.34a53.548,53.548,0,0,0-3.48,19.38C759.556,4297.861,766.746,4312.091,776.536,4316.391Z" fill="#12263f"/>
    </g>
    <g id="freepik--Toilet--inject-76">
      <path id="Trazado_112976" data-name="Trazado 112976" d="M1009.666,4090.791H1119.9v97.86a7.25,7.25,0,0,1-7.25,7.25h-103v-105.11Z" fill="#fff" stroke="#263238" stroke-linecap="round" stroke-linejoin="round" stroke-width="1"/>
      <path id="Trazado_112977" data-name="Trazado 112977" d="M1088.7,4118.781a6.1,6.1,0,1,1-6.08-6.51A6.3,6.3,0,0,1,1088.7,4118.781Z" fill="#8a8a8a" stroke="#263238" stroke-linecap="round" stroke-linejoin="round" stroke-width="1"/>
      <path id="Trazado_112978" data-name="Trazado 112978" d="M1080.306,4120.251l6.82,13.32,2.52-1.67-4.27-12.04s2-3.47-1.26-5" fill="#8a8a8a" stroke="#263238" stroke-linecap="round" stroke-linejoin="round" stroke-width="1"/>
      <path id="Trazado_112979" data-name="Trazado 112979" d="M1094.776,4090.791h25.12v97.86a7.25,7.25,0,0,1-7.25,7.25h-12.62a5.25,5.25,0,0,1-5.25-5.25v-99.86Z" fill="#dedede" stroke="#263238" stroke-linecap="round" stroke-linejoin="round" stroke-width="1"/>
      <rect id="Rectángulo_28682" data-name="Rectángulo 28682" width="110.23" height="17.94" transform="translate(1009.666 4093.271)" fill="#12263f" stroke="#263238" stroke-linecap="round" stroke-linejoin="round" stroke-width="1"/>
      <path id="Trazado_112980" data-name="Trazado 112980" d="M1006.266,4090.791h119a.75.75,0,0,1,.75.75v16.44a.75.75,0,0,1-.75.75h-119a2.75,2.75,0,0,1-2.75-2.75h0v-12.44a2.75,2.75,0,0,1,2.75-2.75Z" fill="#fff" stroke="#263238" stroke-linecap="round" stroke-linejoin="round" stroke-width="1"/>
      <path id="Trazado_112981" data-name="Trazado 112981" d="M1098.126,4090.791h27.18a.75.75,0,0,1,.75.75v16.44a.75.75,0,0,1-.75.75h-27.18v-17.94Z" fill="#dedede" stroke="#263238" stroke-linecap="round" stroke-linejoin="round" stroke-width="1"/>
      <path id="Trazado_112982" data-name="Trazado 112982" d="M977.026,4241.531l-17.14,71.49a2.73,2.73,0,0,0,2.014,3.294,2.659,2.659,0,0,0,.636.076h103.49a2.729,2.729,0,0,0,2.726-2.733,2.673,2.673,0,0,0-.046-.5l-13.24-70.6Z" fill="#dedede" stroke="#263238" stroke-linecap="round" stroke-linejoin="round" stroke-width="1"/>
      <path id="Trazado_112983" data-name="Trazado 112983" d="M1011.806,4241.991l-34.78-.46-17.14,71.49a2.73,2.73,0,0,0,2.014,3.294,2.659,2.659,0,0,0,.636.076h53.84a3,3,0,0,0,3.018-2.981,2.893,2.893,0,0,0-.018-.349Z" fill="#fff" stroke="#263238" stroke-linecap="round" stroke-linejoin="round" stroke-width="1"/>
      <path id="Trazado_112984" data-name="Trazado 112984" d="M1020.056,4261.351a68.987,68.987,0,0,0,36.94-10.62l-1.53-8.17-78.44-1-1,4.07A68.909,68.909,0,0,0,1020.056,4261.351Z" fill="#12263f" stroke="#263238" stroke-linecap="round" stroke-linejoin="round" stroke-width="1"/>
      <path id="Trazado_112985" data-name="Trazado 112985" d="M947.766,4194.861c2.16,35.19,31.91,63.07,68.31,63.07s66.14-27.87,68.3-63.07Z" fill="#dedede" stroke="#263238" stroke-linecap="round" stroke-linejoin="round" stroke-width="1"/>
      <path id="Trazado_112986" data-name="Trazado 112986" d="M986.556,4251.371c12.52-10.26,21.38-31.51,22.26-56.51h-61.05A67.178,67.178,0,0,0,986.556,4251.371Z" fill="#fff" stroke="#263238" stroke-linecap="round" stroke-linejoin="round" stroke-width="1"/>
      <path id="Trazado_112987" data-name="Trazado 112987" d="M951.376,4187.181h130.91a2.75,2.75,0,0,1,2.75,2.75h0v7.5H947.626v-6.5A3.75,3.75,0,0,1,951.376,4187.181Z" fill="#fff" stroke="#263238" stroke-linecap="round" stroke-linejoin="round" stroke-width="1"/>
      <path id="Trazado_112988" data-name="Trazado 112988" d="M947.626,4198.771H1084.2l.84-5.13H947.626Z" fill="#12263f" stroke="#263238" stroke-linecap="round" stroke-linejoin="round" stroke-width="1"/>
      <rect id="Rectángulo_28683" data-name="Rectángulo 28683" width="137.41" height="5.13" transform="translate(947.626 4192.312)" fill="#fff" stroke="#263238" stroke-linecap="round" stroke-linejoin="round" stroke-width="1"/>
    </g>
    <g id="freepik--toilet-paper--inject-76">
      <path id="Trazado_112989" data-name="Trazado 112989" d="M1142.646,4150.271c-6.68,0-12.1,7.06-12.1,15.76s5.42,15.76,12.1,15.76h28.08v-31.52Z" fill="#fff" stroke="#263238" stroke-linecap="round" stroke-linejoin="round" stroke-width="1"/>
      <ellipse id="Elipse_4037" data-name="Elipse 4037" cx="12.1" cy="15.76" rx="12.1" ry="15.76" transform="translate(1158.626 4150.271)" fill="#fff" stroke="#263238" stroke-linecap="round" stroke-linejoin="round" stroke-width="1"/>
      <path id="Trazado_112990" data-name="Trazado 112990" d="M1174.176,4166.031c0,2.49-1.54,4.5-3.45,4.5s-3.46-2-3.46-4.5,1.55-4.5,3.46-4.5S1174.176,4163.541,1174.176,4166.031Z" fill="#12263f" stroke="#263238" stroke-linecap="round" stroke-linejoin="round" stroke-width="1"/>
      <path id="Trazado_112991" data-name="Trazado 112991" d="M1194.156,4163.531h-23.43a2.5,2.5,0,1,0,0,5h23.43Z" fill="#8a8a8a" stroke="#263238" stroke-linecap="round" stroke-linejoin="round" stroke-width="1"/>
    </g>
    <g id="freepik--Character--inject-76">
      <path id="Trazado_112992" data-name="Trazado 112992" d="M981.9,3999.271a59.675,59.675,0,0,0-2.07,14.14v12.45a91.651,91.651,0,0,0,26.2,6.21c14.13,1,35.5-7.59,35.5-7.59s-2.76-9.65-5.86-18.95-28.29-13.49-41.36-13.49S981.9,3999.271,981.9,3999.271Z" fill="#12263f" stroke="#263238" stroke-linecap="round" stroke-linejoin="round" stroke-width="1"/>
      <path id="Trazado_112993" data-name="Trazado 112993" d="M969.836,4133s-28.69,8.81-44.64,19.09-18.82,19.85-20.92,25.17a28.419,28.419,0,0,0-2.13,9.57s-7.09,11.69-12.4,30.48-11.7,62.39-13.83,68.06-9.54,16.66-14.54,23.4-2.13,9.92,4.61,11.34,16.3,1.42,19.14-2.48,4.25-14.89,4.62-24.77,4.25-22,4.25-22,16.66-29.78,24.11-46.08,14.18-29.07,14.18-29.07,28.71-5.32,43.24-6.74,40.41,2.48,59.56-1.77,28.35-5.67,34-19.85-1-32.13-1.75-34.67-10.66-5-13.5-5H981.2Z" fill="#ffbea7" stroke="#263238" stroke-linecap="round" stroke-linejoin="round" stroke-width="1"/>
      <path id="Trazado_112994" data-name="Trazado 112994" d="M1067.376,4132.661c-.73-2.55-10.66-5-13.5-5H981.2l-11.36,5.37s-4.44,1.36-10.79,3.64c7,2.15,22.69,9,25.7,28.21a143.4,143.4,0,0,1,2.05,23.8c14.52.22,33.43,1.83,48.29-1.47,19.14-4.25,28.35-5.67,34-19.85S1068.106,4135.2,1067.376,4132.661Z" fill="#12263f" stroke="#263238" stroke-linecap="round" stroke-linejoin="round" stroke-width="1"/>
      <path id="Trazado_112995" data-name="Trazado 112995" d="M982.976,4141.861s11.69,5.67,14.18,17.72" fill="none" stroke="#fff" stroke-linecap="round" stroke-linejoin="round" stroke-width="1"/>
      <path id="Trazado_112996" data-name="Trazado 112996" d="M892.076,4277.791c-6.85.47-11.21-.77-13.94-2.34a86.679,86.679,0,0,1-2.22,9.92c-2.12,5.67-9.57,16.66-14.53,23.4s-2.13,9.92,4.61,11.34,16.3,1.42,19.14-2.48,4.24-14.89,4.61-24.77A79.489,79.489,0,0,1,892.076,4277.791Z" fill="#fff" stroke="#263238" stroke-linecap="round" stroke-linejoin="round" stroke-width="1"/>
      <path id="Trazado_112997" data-name="Trazado 112997" d="M992.236,4012.371s1.38,5.52.34,7.93-11,2.76-14.13,3.1-20.33.35-23.78,16.89-7.58,34.12-9.65,43.77-6.2,18.27-6.2,22.4,6.2,8.27,12.06,7.93,6.89-3.45,8.62-9,7.58-20.34,7.58-20.34,5.17,10,9.31,13.45,4.13,5.85,4.13,10.34a19.264,19.264,0,0,1-3.1,10.33c-1.38,2.07-7.58,13.79-7.58,13.79s26.54,10.34,51.35,10,46.19-10.3,46.19-10.3-3.79-14.13-7.92-23.1,2.06-35.84,4.13-52,3.45-19.64.35-25.85-10.69-9.3-20.34-10-17.57-1-20-2.07-3.1-8.27-3.1-8.27Z" fill="#ffbea7" stroke="#263238" stroke-linecap="round" stroke-linejoin="round" stroke-width="1"/>
      <line id="Línea_236" data-name="Línea 236" x2="1.23" y2="6.19" transform="translate(996.836 4022.511)" fill="none" stroke="#263238" stroke-linecap="round" stroke-linejoin="round" stroke-width="1"/>
      <line id="Línea_237" data-name="Línea 237" x2="11.54" y2="4.54" transform="translate(986.936 4027.871)" fill="none" stroke="#263238" stroke-linecap="round" stroke-linejoin="round" stroke-width="1"/>
      <line id="Línea_238" data-name="Línea 238" x1="11.55" y2="4.12" transform="translate(1018.266 4028.701)" fill="none" stroke="#263238" stroke-linecap="round" stroke-linejoin="round" stroke-width="1"/>
      <path id="Trazado_112998" data-name="Trazado 112998" d="M1059.446,4109.561c-2.09-4.52-1.54-13.6-.23-23.57-7.47-1.84-17.18-6.1-19.9-16-4-14.59,2.73-41.66,4.51-48.3h-.24l-3.61-.25c-2.14,8.11-9.16,33.37-15.73,41-7.86,9.18-22.61,13.11-34.08,6.23s-10.48-21.3-8.85-29.82c1.1-5.7,4.39-12.56,6.45-16.49-1.4.26-2.94.44-4.4.59-2.4,6.06-7.82,19.65-11.55,28.35-4.91,11.47-6.88,16.06-6.88,23.92a36.637,36.637,0,0,0,1.68,11l.46-1.17s5.17,10,9.31,13.45,4.13,5.85,4.13,10.34a19.264,19.264,0,0,1-3.1,10.33c-1.38,2.07-7.58,13.79-7.58,13.79s26.54,10.34,51.35,10,46.19-10.3,46.19-10.3S1063.576,4118.531,1059.446,4109.561Z" fill="#fff" stroke="#263238" stroke-linecap="round" stroke-linejoin="round" stroke-width="1"/>
      <path id="Trazado_112999" data-name="Trazado 112999" d="M1026.516,4110.041c1,.33,2,.64,3,.92" fill="none" stroke="#263238" stroke-linecap="round" stroke-linejoin="round" stroke-width="1"/>
      <path id="Trazado_113000" data-name="Trazado 113000" d="M1000.656,4097.531a148.915,148.915,0,0,0,21.46,10.89" fill="none" stroke="#263238" stroke-linecap="round" stroke-linejoin="round" stroke-width="1"/>
      <path id="Trazado_113001" data-name="Trazado 113001" d="M997.376,4099.161s7.21,4.26,13.43,7.54" fill="none" stroke="#263238" stroke-linecap="round" stroke-linejoin="round" stroke-width="1"/>
      <path id="Trazado_113002" data-name="Trazado 113002" d="M982.926,4005.861s9.31,16.89,20.68,20.34c5.85,1.77,12.76-4.48,15.86-8.27s7.58-16.55,9.3-25.51-3.79-25.16-17.57-32.74-21.72-7.24-28.27,14.13S982.926,4005.861,982.926,4005.861Z" fill="#ffbea7" stroke="#263238" stroke-linecap="round" stroke-linejoin="round" stroke-width="1"/>
      <path id="Trazado_113003" data-name="Trazado 113003" d="M996.376,4007.551s4.13,3.1,6.89-.35" fill="none" stroke="#263238" stroke-linecap="round" stroke-linejoin="round" stroke-width="1"/>
      <path id="Trazado_113004" data-name="Trazado 113004" d="M1006.086,4014.83s-6.55-4.14-9.65,3.1" fill="none" stroke="#263238" stroke-linecap="round" stroke-linejoin="round" stroke-width="1"/>
      <path id="Trazado_113005" data-name="Trazado 113005" d="M1005.676,3996.171s5.52,3.45,9.31-1" fill="none" stroke="#263238" stroke-linecap="round" stroke-linejoin="round" stroke-width="1"/>
      <path id="Trazado_113006" data-name="Trazado 113006" d="M1003.266,3987.561s7.24-3.45,12.75,1.38" fill="none" stroke="#263238" stroke-linecap="round" stroke-linejoin="round" stroke-width="2"/>
      <path id="Trazado_113007" data-name="Trazado 113007" d="M993.266,3996.171s-1.72,3.1-7.58,1" fill="none" stroke="#263238" stroke-linecap="round" stroke-linejoin="round" stroke-width="1"/>
      <path id="Trazado_113008" data-name="Trazado 113008" d="M993.266,3989.281s-5.17-5.17-10.68,1.38" fill="none" stroke="#263238" stroke-linecap="round" stroke-linejoin="round" stroke-width="2"/>
      <path id="Trazado_113009" data-name="Trazado 113009" d="M955.936,4084.331l-1.18,8.71s-12.71,8.71-15.3,12.24-2.82,9.65-2.59,13.65,3.53,8.71,8.71,8.95,9.65-2.83,13-12,5.8-16.95,5.8-16.95,1.18-.71,2.36-3.53a16.312,16.312,0,0,0,.7-6.83s-4.47-.71-6.59-2.82S957.376,4081.511,955.936,4084.331Z" fill="#ffbea7" stroke="#263238" stroke-linecap="round" stroke-linejoin="round" stroke-width="1"/>
      <path id="Trazado_113010" data-name="Trazado 113010" d="M954.756,4093.041s-.47,3.53,1.41,5.89" fill="none" stroke="#263238" stroke-linecap="round" stroke-linejoin="round" stroke-width="1"/>
      <rect id="Rectángulo_28684" data-name="Rectángulo 28684" width="35.31" height="5.18" transform="translate(976.176 4066.911)" fill="#fff" stroke="#263238" stroke-linecap="round" stroke-linejoin="round" stroke-width="1"/>
      <rect id="Rectángulo_28685" data-name="Rectángulo 28685" width="12.95" height="5.18" transform="translate(976.176 4066.911)" fill="#36c" stroke="#263238" stroke-linecap="round" stroke-linejoin="round" stroke-width="1"/>
      <path id="Trazado_113011" data-name="Trazado 113011" d="M962.286,4093.751c1.42-.24,7.06-3.53,10.12-5.42s5.18-1.88,6.12-3.53.48-1.41-3.29-.7-10.86,2.12-10.86,2.12a29.1,29.1,0,0,1,5.18-3.77c2.35-1.18,9.89-5.65,10.59-7.53a3.461,3.461,0,0,0-.47-3.3v-1.65c0-.94-1.18-1.88-1.18-1.88v-1.18c0-1.17-6.12-2.59-10.35-2.59s-13.42,2.36-14.83,4,0,5.88,0,5.88.47,1.88,0,2.59a3.889,3.889,0,0,0-.71,3.77c.71,1.64,2.59,2.82,2.12,4s-1.88,2.35,0,3.76,3.06,1.89,3.3,2.59a5.552,5.552,0,0,0,1.64,2.59" fill="#ffbea7" stroke="#263238" stroke-linecap="round" stroke-linejoin="round" stroke-width="1"/>
      <path id="Trazado_113012" data-name="Trazado 113012" d="M978.526,4068.091s-13.18,1.41-20.94,4.71" fill="none" stroke="#263238" stroke-linecap="round" stroke-linejoin="round" stroke-width="1"/>
      <path id="Trazado_113013" data-name="Trazado 113013" d="M979.706,4071.621s-13.42,4.24-20.24,8.24" fill="none" stroke="#263238" stroke-linecap="round" stroke-linejoin="round" stroke-width="1"/>
      <path id="Trazado_113014" data-name="Trazado 113014" d="M1056.376,4152.8s-4.26-3.55-19.86-7.45-70.89,12.41-87.91,24.82c-15.25,11.11-14.53,14.88-14.18,23s22,101.38,22,101.38-17.76,15.31-22.37,17.41-12.76,5.67-12.76,7.44,3.19,3.9,17,3.9,29.79-1.44,34.75-1.44,9.57-2.84,7.09-10.64-4.61-24.81-4.61-31.55-1.06-26.94-.35-44.66,0-33.68-4.61-40.77c0,0,39-.71,62.39-3.9s32.61-8.51,36.16-23" fill="#12263f" stroke="#263238" stroke-linecap="round" stroke-linejoin="round" stroke-width="1"/>
      <path id="Trazado_113015" data-name="Trazado 113015" d="M1010.566,4147.951s16.57-4.7,28.94-2.22,20.52,11.13,22.5,14.59" fill="none" stroke="#fff" stroke-linecap="round" stroke-linejoin="round" stroke-width="1"/>
      <path id="Trazado_113016" data-name="Trazado 113016" d="M1059.036,4148.5a17.3,17.3,0,0,1,3.2,2.89" fill="none" stroke="#fff" stroke-linecap="round" stroke-linejoin="round" stroke-width="1"/>
      <path id="Trazado_113017" data-name="Trazado 113017" d="M1042,4144.751a28.289,28.289,0,0,1,14.19,2.11" fill="none" stroke="#fff" stroke-linecap="round" stroke-linejoin="round" stroke-width="1"/>
      <path id="Trazado_113018" data-name="Trazado 113018" d="M1006.376,4148.2c-21.52,4.91-47.16,14.2-57.81,22-15.25,11.11-14.53,14.88-14.18,23s22,101.38,22,101.38-17.72,15.28-22.33,17.38-12.76,5.67-12.76,7.44,3.19,3.9,17,3.9,29.79-1.44,34.75-1.44,9.57-2.84,7.09-10.64-4.61-24.81-4.61-31.55-1.06-26.94-.35-44.66,0-33.68-4.61-40.77c0,0,32.57-.59,56-3.13C1028.656,4162.471,1015.486,4152,1006.376,4148.2Z" fill="#ffbea7" stroke="#263238" stroke-linecap="round" stroke-linejoin="round" stroke-width="1"/>
      <path id="Trazado_113019" data-name="Trazado 113019" d="M953.946,4284c1.49,6.51,2.44,10.59,2.44,10.59s-17.72,15.27-22.33,17.37-12.76,5.67-12.76,7.44,3.19,3.9,17,3.9,29.79-1.44,34.75-1.44,9.57-2.84,7.09-10.64c-2.17-6.81-4.06-20.65-4.51-28.53A50.876,50.876,0,0,1,953.946,4284Z" fill="#fff" stroke="#263238" stroke-linecap="round" stroke-linejoin="round" stroke-width="1"/>
      <path id="Trazado_113020" data-name="Trazado 113020" d="M1072.526,4023.551c-.31-5.35-3.77-2.83-5-5.67s1.89-4.4,1.57-11.33-5.66-7.55-8.81-10.38.63-4.72.94-9.44-3.77-7.56-6.29-9.76-2.2-4.72-.63-11.33-4.75-12.27-7.93-13.85a5.557,5.557,0,0,1-3-3c-.78-6.52-4.86-9.75-11-11.75-4.64-1.51-9.41.06-13.94-1.33-2.1-.64-3.83-2.1-5.65-3.32-10.82-7.21-26.83-5.16-35.49,4.54-6.43,7.22-8.58,17.23-13.54,25.52-1.66,2.78-3.69,5.49-4.18,8.68s.57,6.39-.38,9.39c-1.15,3.68-4.91,5.87-6.95,9.14a11,11,0,0,0-1.38,8.15c.45,2,1.48,4,.87,6-.76,2.45-3.73,3.63-4.65,6-1.59,4.16,3.9,8.46,2.61,12.73-.46,1.55-1.76,2.72-2.42,4.2-1.07,2.39-.3,5.27,1.26,7.37a22.321,22.321,0,0,0,6,5c1-7.55,8.84-12.31,16.3-13.91,3.77-.8,7.74-1.13,11.14-2.95s4.54-4.91,3.34-8.58c-.61-1.87-.59-4.3-.84-6.24-.57-4.26,5-8.56,2.55-12.08a18.764,18.764,0,0,1-1.45-1.78c-1.93-3.62,5.85-6.62,4.63-10.53-.37-1.18-1.54-2-1.69-3.27s1-2.49,2-3.46a29.821,29.821,0,0,0,8.37-15.72,14.18,14.18,0,0,0,11.14,12.85c2.1.4,4.89.85,5.16,3,.13,1.05-.5,2-.86,3a6.251,6.251,0,0,0,2.32,7.09,9.019,9.019,0,0,1,2.48,1.75c1.89,2.51-1.58,5.77-1.57,8.91,0,4,5.34,5.77,7,9.43s-.65,8.29,1.76,11.35c.65.83,0,1.51.29,2.19.47,1.18.32.35,1.42,1.45,3.64,3.64,7.93,1.22,11.82,3.13h3.46c4.14,2,7.76-.6,12.21.18a29.306,29.306,0,0,1,5,1.92c8.09,4,6.7,7.65,6.7,7.65S1072.846,4028.861,1072.526,4023.551Z" fill="#12263f" stroke="#263238" stroke-linecap="round" stroke-linejoin="round" stroke-width="1"/>
      <path id="Trazado_113021" data-name="Trazado 113021" d="M1047.5,4052.321s3.3,45.43,3.77,50.84.94,16.48,6.83,20.95,10.35,4.48,12.24,1.65,3.04-10.59,3.04-21.18-1.14-40.34-4-56.5c-1.89-10.68-2.07-19-8.19-22.33s-13.77-2.17-17.94-.94" fill="#ffbea7" stroke="#263238" stroke-linecap="round" stroke-linejoin="round" stroke-width="1"/>
      <path id="Trazado_113022" data-name="Trazado 113022" d="M1034.016,4079.311l2.85,8.31s25.52,15.7,28.74,18.66,4.65,8.92,5.2,12.89-1.77,9.23-6.81,10.47-8.57-1.95-15-9.26c-5.23-5.92-20.42-25.11-20.42-25.11s-1.29-.46-3-3a16.27,16.27,0,0,1-2-6.56s4.25-1.56,5.92-4S1032.086,4076.861,1034.016,4079.311Z" fill="#ffbea7" stroke="#263238" stroke-linecap="round" stroke-linejoin="round" stroke-width="1"/>
      <path id="Trazado_113023" data-name="Trazado 113023" d="M1036.866,4087.621s1.15,3.38-.24,6.05" fill="#fff" stroke="#263238" stroke-linecap="round" stroke-linejoin="round" stroke-width="1"/>
      <path id="Trazado_113024" data-name="Trazado 113024" d="M1029.616,4089.781c-1.43,0-7.61-2.09-11-3.34s-5.45-.84-6.69-2.27-.74-1.3,3.1-1.34,11,0,11,0a28.71,28.71,0,0,0-5.81-2.68c-2.54-.7-10.8-3.62-11.86-5.33a3.48,3.48,0,0,1-.18-3.33l-.32-1.61a3.168,3.168,0,0,1,.79-2.08l-.23-1.15c-.23-1.16,5.5-3.73,9.66-4.56s13.62-.3,15.32,1.05,1.15,5.77,1.15,5.77-.1,1.94.5,2.54a3.841,3.841,0,0,1,1.42,3.55c-.37,1.76-2,3.28-1.3,4.34s2.31,1.94.74,3.7-2.64,2.44-2.73,3.18a5.682,5.682,0,0,1-1.12,2.86" fill="#ffbea7" stroke="#263238" stroke-linecap="round" stroke-linejoin="round" stroke-width="1"/>
      <path id="Trazado_113025" data-name="Trazado 113025" d="M1008.7,4067.771s13.2-1.18,21.47.55" fill="none" stroke="#263238" stroke-linecap="round" stroke-linejoin="round" stroke-width="1"/>
      <path id="Trazado_113026" data-name="Trazado 113026" d="M1008.226,4071.461s14,1.55,21.46,4.15" fill="none" stroke="#263238" stroke-linecap="round" stroke-linejoin="round" stroke-width="1"/>
    </g>
    <g id="freepik--close-up--inject-76">
      <path id="Trazado_113027" data-name="Trazado 113027" d="M1037.746,4052.641l49.63-55.78h-.2a11.71,11.71,0,0,1-11.71-11.71v-24.07a11.71,11.71,0,0,1,11.71-11.71h104.64a11.71,11.71,0,0,1,11.71,11.71v24.09a11.71,11.71,0,0,1-11.71,11.69h-93.55Z" fill="#fff" stroke="#263238" stroke-linecap="round" stroke-linejoin="round" stroke-width="1"/>
      <path id="Trazado_113028" data-name="Trazado 113028" d="M1124.606,3964.1a14.16,14.16,0,0,0-2.71-.27,12.917,12.917,0,0,0-6.8,1.86,18.116,18.116,0,0,1-12.16,1.09,13.42,13.42,0,0,1-3.25-1.37,13.087,13.087,0,0,0-6.31-1.55c-6,0-10.87,3.77-10.87,8.43s4.87,8.42,10.87,8.42a13.149,13.149,0,0,0,6.16-1.48,17.248,17.248,0,0,1,7.68-2.2,17.891,17.891,0,0,1,5.14.65,14.3,14.3,0,0,1,3.15,1.4,12.993,12.993,0,0,0,6.41,1.63,14,14,0,0,0,2.71-.27v.07l69.75-4.47a3.15,3.15,0,0,0,2.87-3.14h0a3.161,3.161,0,0,0-2.8-3.13Z" fill="none" stroke="#263238" stroke-linecap="round" stroke-linejoin="round" stroke-width="1"/>
      <path id="Trazado_113029" data-name="Trazado 113029" d="M1194.446,3969.771l-43.91-3.56v12.65l43.84-2.82a3.15,3.15,0,0,0,.07-6.27Z" fill="#36c" stroke="#263238" stroke-linecap="round" stroke-linejoin="round" stroke-width="1"/>
      <rect id="Rectángulo_28686" data-name="Rectángulo 28686" width="17.3" height="7.16" rx="3.49" transform="translate(1122.986 3968.681)" fill="#b2b2b2" stroke="#263238" stroke-linecap="round" stroke-linejoin="round" stroke-width="1"/>
      <line id="Línea_239" data-name="Línea 239" y2="4.35" transform="translate(1129.796 3970.171)" fill="none" stroke="#263238" stroke-linecap="round" stroke-linejoin="round" stroke-width="1"/>
      <line id="Línea_240" data-name="Línea 240" y2="4.35" transform="translate(1133.466 3970.171)" fill="none" stroke="#263238" stroke-linecap="round" stroke-linejoin="round" stroke-width="1"/>
    </g>
  </g>
</svg>
