<svg xmlns="http://www.w3.org/2000/svg" xmlns:xlink="http://www.w3.org/1999/xlink" width="344.516" height="349.528" viewBox="0 0 344.516 349.528">
  <defs>
    <clipPath id="clip-path">
      <path id="Trazado_102864" data-name="Trazado 102864" d="M552.313,3175.158a7.618,7.618,0,0,1-2.077.145,61.874,61.874,0,0,1-7.29-.616c-2.557-.4-3.219-1.042-3.219-1.042l-42.071-.145H492.68a5.032,5.032,0,0,1-4.436,3.675c-2.914.4-10.531-.906-11.581-2-3.325-3.493-2.283-12,.266-13.164,0,0,3.706-11.574,7.51-19.974,4.063-9,15.629-19.411,30.574-21.131s29.371,15.1,34.294,23.5a95.458,95.458,0,0,1,7.442,16.025,8.579,8.579,0,0,1,2.328,3.911C559.823,3168.568,559.13,3172.943,552.313,3175.158Z" transform="translate(-474.566 -3120.782)" fill="none"/>
    </clipPath>
    <clipPath id="clip-path-2">
      <path id="Trazado_102905" data-name="Trazado 102905" d="M450.238,3142.069l-2.191,2.945-.4.54s-3.386,34.241-10.3,48.029c-.335.685-.692,1.324-1.05,1.9-7.609,12.243-18.079-52.5-18.079-52.5s3.493-12.608,9.527-14.937l2.534-7.122S448.853,3135.738,450.238,3142.069Z" transform="translate(-418.211 -3120.923)" fill="none"/>
    </clipPath>
    <clipPath id="clip-path-3">
      <path id="Trazado_102910" data-name="Trazado 102910" d="M417.371,3172.3a124.307,124.307,0,0,1,6.308,37.034q.16,5.325-.107,11.1H341.637l-.076-38.426s9.306-14.944,30.193-19.4c16.169-3.447,29.782-18.848,29.782-18.848a36.414,36.414,0,0,1,2.99,3.546" transform="translate(-341.561 -3143.763)" fill="none"/>
    </clipPath>
    <clipPath id="clip-path-4">
      <path id="Trazado_102921" data-name="Trazado 102921" d="M348.9,3205.467c2.587,5.722,4.208,14.3,3.1,27.134l-13.24,3.934-17.128,3.257s-8.9-17.615,1.164-26.975c0,0,2.694-9.519,13.133-18.764a10.88,10.88,0,0,1,2.96.852" transform="translate(-317.996 -3194.053)" fill="none"/>
    </clipPath>
  </defs>
  <g id="Grupo_49882" data-name="Grupo 49882" transform="translate(-193.764 -2847.068)">
    <g id="freepik--background-simple--inject-122" transform="translate(200.002 2857.88)" opacity="0.18">
      <path id="Trazado_102752" data-name="Trazado 102752" d="M244.495,2886.565l.441-.357c40.641-32.91,94.612-34.355,133.914,1.027,20.492,18.467,56.879,14.929,82.94,21.61,89.788,23.025,74.243,132.56,29.9,185.512-40.017,47.778-126.715,58.59-184.971,35.063-51.187-20.651-87.224-66.793-100.053-115.066q-1.926-7.258-3.15-14.648C196.77,2958.624,209.729,2915.008,244.495,2886.565Z" transform="translate(-201.796 -2861.112)" fill="#e36099"/>
    </g>
    <g id="freepik--Windows--inject-122" transform="translate(233.402 2847.595)">
      <path id="Trazado_102753" data-name="Trazado 102753" d="M490.108,2914.983H466.961v17.494" transform="translate(-298.593 -2863.707)" fill="none" stroke="#263238" stroke-linecap="round" stroke-linejoin="round" stroke-width="1.054"/>
      <path id="Trazado_102754" data-name="Trazado 102754" d="M567.16,2982.309v-67.326h-63.5" transform="translate(-307.367 -2863.707)" fill="none" stroke="#263238" stroke-linecap="round" stroke-linejoin="round" stroke-width="1.054"/>
      <path id="Trazado_102755" data-name="Trazado 102755" d="M577.111,3075.042h7.609v-53.79" transform="translate(-324.928 -2889.113)" fill="none" stroke="#263238" stroke-linecap="round" stroke-linejoin="round" stroke-width="1.054"/>
      <line id="Línea_156" data-name="Línea 156" x2="10.447" transform="translate(235.321 185.928)" fill="none" stroke="#263238" stroke-linecap="round" stroke-linejoin="round" stroke-width="1.054"/>
      <path id="Trazado_102756" data-name="Trazado 102756" d="M466.961,2956.732v102.884h62.646" transform="translate(-298.593 -2873.688)" fill="none" stroke="#263238" stroke-linecap="round" stroke-linejoin="round" stroke-width="1.054"/>
      <path id="Trazado_102757" data-name="Trazado 102757" d="M566.871,2972.4h9.648v-5.524" transform="translate(-322.48 -2876.112)" fill="none" stroke="#263238" stroke-linecap="round" stroke-linejoin="round" stroke-width="1.054"/>
      <path id="Trazado_102758" data-name="Trazado 102758" d="M529.471,2949.1v19.045h26.465" transform="translate(-313.538 -2871.864)" fill="none" stroke="#263238" stroke-linecap="round" stroke-linejoin="round" stroke-width="1.054"/>
      <path id="Trazado_102759" data-name="Trazado 102759" d="M532.644,2924.063h-3.173v15.378" transform="translate(-313.538 -2865.877)" fill="none" stroke="#263238" stroke-linecap="round" stroke-linejoin="round" stroke-width="1.054"/>
      <line id="Línea_157" data-name="Línea 157" x1="4.36" transform="translate(221.777 58.185)" fill="none" stroke="#263238" stroke-linecap="round" stroke-linejoin="round" stroke-width="1.054"/>
      <path id="Trazado_102760" data-name="Trazado 102760" d="M571.346,2952.764v-28.7H545.231" transform="translate(-317.306 -2865.877)" fill="none" stroke="#263238" stroke-linecap="round" stroke-linejoin="round" stroke-width="1.054"/>
      <path id="Trazado_102761" data-name="Trazado 102761" d="M566.871,3081.125h9.648v-5.532" transform="translate(-322.48 -2902.105)" fill="none" stroke="#263238" stroke-linecap="round" stroke-linejoin="round" stroke-width="1.054"/>
      <path id="Trazado_102762" data-name="Trazado 102762" d="M529.471,3057.823v19.053h26.465" transform="translate(-313.538 -2897.857)" fill="none" stroke="#263238" stroke-linecap="round" stroke-linejoin="round" stroke-width="1.054"/>
      <path id="Trazado_102763" data-name="Trazado 102763" d="M532.644,3032.783h-3.173v15.386" transform="translate(-313.538 -2891.87)" fill="none" stroke="#263238" stroke-linecap="round" stroke-linejoin="round" stroke-width="1.054"/>
      <line id="Línea_158" data-name="Línea 158" x1="4.36" transform="translate(221.777 140.912)" fill="none" stroke="#263238" stroke-linecap="round" stroke-linejoin="round" stroke-width="1.054"/>
      <path id="Trazado_102764" data-name="Trazado 102764" d="M571.346,3061.485v-28.7H545.231" transform="translate(-317.306 -2891.87)" fill="none" stroke="#263238" stroke-linecap="round" stroke-linejoin="round" stroke-width="1.054"/>
      <path id="Trazado_102765" data-name="Trazado 102765" d="M511.911,3026.655h9.648v-5.532" transform="translate(-309.34 -2889.083)" fill="none" stroke="#263238" stroke-linecap="round" stroke-linejoin="round" stroke-width="1.054"/>
      <path id="Trazado_102766" data-name="Trazado 102766" d="M474.521,3003.353v19.054h26.457" transform="translate(-300.4 -2884.834)" fill="none" stroke="#263238" stroke-linecap="round" stroke-linejoin="round" stroke-width="1.054"/>
      <path id="Trazado_102767" data-name="Trazado 102767" d="M477.686,2978.313h-3.165v15.378" transform="translate(-300.4 -2878.847)" fill="none" stroke="#263238" stroke-linecap="round" stroke-linejoin="round" stroke-width="1.054"/>
      <line id="Línea_159" data-name="Línea 159" x1="4.36" transform="translate(179.957 99.465)" fill="none" stroke="#263238" stroke-linecap="round" stroke-linejoin="round" stroke-width="1.054"/>
      <path id="Trazado_102768" data-name="Trazado 102768" d="M516.388,3007.014v-28.7H490.281" transform="translate(-304.168 -2878.847)" fill="none" stroke="#263238" stroke-linecap="round" stroke-linejoin="round" stroke-width="1.054"/>
      <path id="Trazado_102769" data-name="Trazado 102769" d="M511.911,3080.914h9.648v-5.531" transform="translate(-309.34 -2902.055)" fill="none" stroke="#263238" stroke-linecap="round" stroke-linejoin="round" stroke-width="1.054"/>
      <path id="Trazado_102770" data-name="Trazado 102770" d="M474.521,3057.613v19.053h26.457" transform="translate(-300.4 -2897.807)" fill="none" stroke="#263238" stroke-linecap="round" stroke-linejoin="round" stroke-width="1.054"/>
      <path id="Trazado_102771" data-name="Trazado 102771" d="M477.686,3032.573h-3.165v15.378" transform="translate(-300.4 -2891.82)" fill="none" stroke="#263238" stroke-linecap="round" stroke-linejoin="round" stroke-width="1.054"/>
      <line id="Línea_160" data-name="Línea 160" x1="4.36" transform="translate(179.957 140.753)" fill="none" stroke="#263238" stroke-linecap="round" stroke-linejoin="round" stroke-width="1.054"/>
      <path id="Trazado_102772" data-name="Trazado 102772" d="M516.388,3061.274v-28.7H490.281" transform="translate(-304.168 -2891.82)" fill="none" stroke="#263238" stroke-linecap="round" stroke-linejoin="round" stroke-width="1.054"/>
      <path id="Trazado_102773" data-name="Trazado 102773" d="M529.471,3015.823v9.649h5.7" transform="translate(-313.538 -2887.815)" fill="none" stroke="#263238" stroke-linecap="round" stroke-linejoin="round" stroke-width="1.054"/>
      <path id="Trazado_102774" data-name="Trazado 102774" d="M548.7,2978.423H529.471v26.465" transform="translate(-313.538 -2878.874)" fill="none" stroke="#263238" stroke-linecap="round" stroke-linejoin="round" stroke-width="1.054"/>
      <path id="Trazado_102775" data-name="Trazado 102775" d="M574.772,2981.6v-3.173H559.561" transform="translate(-320.732 -2878.874)" fill="none" stroke="#263238" stroke-linecap="round" stroke-linejoin="round" stroke-width="1.054"/>
      <line id="Línea_161" data-name="Línea 161" y1="4.352" transform="translate(254.04 105.393)" fill="none" stroke="#263238" stroke-linecap="round" stroke-linejoin="round" stroke-width="1.054"/>
      <path id="Trazado_102776" data-name="Trazado 102776" d="M542.061,3020.3h28.527v-26.115" transform="translate(-316.548 -2882.642)" fill="none" stroke="#263238" stroke-linecap="round" stroke-linejoin="round" stroke-width="1.054"/>
      <path id="Trazado_102777" data-name="Trazado 102777" d="M474.521,2961.463v9.641h5.692" transform="translate(-300.4 -2874.819)" fill="none" stroke="#263238" stroke-linecap="round" stroke-linejoin="round" stroke-width="1.054"/>
      <path id="Trazado_102778" data-name="Trazado 102778" d="M493.742,2924.063H474.521v26.465" transform="translate(-300.4 -2865.877)" fill="none" stroke="#263238" stroke-linecap="round" stroke-linejoin="round" stroke-width="1.054"/>
      <path id="Trazado_102779" data-name="Trazado 102779" d="M519.814,2927.228v-3.165h-15.2" transform="translate(-307.594 -2865.877)" fill="none" stroke="#263238" stroke-linecap="round" stroke-linejoin="round" stroke-width="1.054"/>
      <line id="Línea_162" data-name="Línea 162" y1="4.352" transform="translate(212.22 64.029)" fill="none" stroke="#263238" stroke-linecap="round" stroke-linejoin="round" stroke-width="1.054"/>
      <path id="Trazado_102780" data-name="Trazado 102780" d="M487.1,2965.93h28.527v-26.107" transform="translate(-303.408 -2869.645)" fill="none" stroke="#263238" stroke-linecap="round" stroke-linejoin="round" stroke-width="1.054"/>
      <path id="Trazado_102781" data-name="Trazado 102781" d="M268.838,2914.983H245.691v17.494" transform="translate(-245.691 -2863.707)" fill="none" stroke="#263238" stroke-linecap="round" stroke-linejoin="round" stroke-width="1.054"/>
      <path id="Trazado_102782" data-name="Trazado 102782" d="M345.882,2982.309v-67.326H282.391" transform="translate(-254.465 -2863.707)" fill="none" stroke="#263238" stroke-linecap="round" stroke-linejoin="round" stroke-width="1.054"/>
      <path id="Trazado_102783" data-name="Trazado 102783" d="M355.831,3075.042h7.609v-53.79" transform="translate(-272.024 -2889.113)" fill="none" stroke="#263238" stroke-linecap="round" stroke-linejoin="round" stroke-width="1.054"/>
      <line id="Línea_163" data-name="Línea 163" x2="10.44" transform="translate(66.953 185.928)" fill="none" stroke="#263238" stroke-linecap="round" stroke-linejoin="round" stroke-width="1.054"/>
      <path id="Trazado_102784" data-name="Trazado 102784" d="M245.691,2956.732v102.884h62.646" transform="translate(-245.691 -2873.688)" fill="none" stroke="#263238" stroke-linecap="round" stroke-linejoin="round" stroke-width="1.054"/>
      <path id="Trazado_102785" data-name="Trazado 102785" d="M345.6,2972.4h9.648v-5.524" transform="translate(-269.578 -2876.112)" fill="none" stroke="#263238" stroke-linecap="round" stroke-linejoin="round" stroke-width="1.054"/>
      <path id="Trazado_102786" data-name="Trazado 102786" d="M308.2,2949.1v19.045h26.465" transform="translate(-260.636 -2871.864)" fill="none" stroke="#263238" stroke-linecap="round" stroke-linejoin="round" stroke-width="1.054"/>
      <path id="Trazado_102787" data-name="Trazado 102787" d="M311.374,2924.063H308.2v15.378" transform="translate(-260.636 -2865.877)" fill="none" stroke="#263238" stroke-linecap="round" stroke-linejoin="round" stroke-width="1.054"/>
      <line id="Línea_164" data-name="Línea 164" x1="4.352" transform="translate(53.409 58.185)" fill="none" stroke="#263238" stroke-linecap="round" stroke-linejoin="round" stroke-width="1.054"/>
      <path id="Trazado_102788" data-name="Trazado 102788" d="M350.076,2952.764v-28.7H323.961" transform="translate(-264.404 -2865.877)" fill="none" stroke="#263238" stroke-linecap="round" stroke-linejoin="round" stroke-width="1.054"/>
      <path id="Trazado_102789" data-name="Trazado 102789" d="M345.6,3081.125h9.648v-5.532" transform="translate(-269.578 -2902.105)" fill="none" stroke="#263238" stroke-linecap="round" stroke-linejoin="round" stroke-width="1.054"/>
      <path id="Trazado_102790" data-name="Trazado 102790" d="M308.2,3057.823v19.053h26.465" transform="translate(-260.636 -2897.857)" fill="none" stroke="#263238" stroke-linecap="round" stroke-linejoin="round" stroke-width="1.054"/>
      <path id="Trazado_102791" data-name="Trazado 102791" d="M311.374,3032.783H308.2v15.386" transform="translate(-260.636 -2891.87)" fill="none" stroke="#263238" stroke-linecap="round" stroke-linejoin="round" stroke-width="1.054"/>
      <line id="Línea_165" data-name="Línea 165" x1="4.352" transform="translate(53.409 140.912)" fill="none" stroke="#263238" stroke-linecap="round" stroke-linejoin="round" stroke-width="1.054"/>
      <path id="Trazado_102792" data-name="Trazado 102792" d="M350.076,3061.485v-28.7H323.961" transform="translate(-264.404 -2891.87)" fill="none" stroke="#263238" stroke-linecap="round" stroke-linejoin="round" stroke-width="1.054"/>
      <path id="Trazado_102793" data-name="Trazado 102793" d="M290.641,3026.655h9.648v-5.532" transform="translate(-256.438 -2889.083)" fill="none" stroke="#263238" stroke-linecap="round" stroke-linejoin="round" stroke-width="1.054"/>
      <path id="Trazado_102794" data-name="Trazado 102794" d="M253.241,3003.353v19.054h26.465" transform="translate(-247.496 -2884.834)" fill="none" stroke="#263238" stroke-linecap="round" stroke-linejoin="round" stroke-width="1.054"/>
      <path id="Trazado_102795" data-name="Trazado 102795" d="M256.414,2978.313h-3.173v15.378" transform="translate(-247.496 -2878.847)" fill="none" stroke="#263238" stroke-linecap="round" stroke-linejoin="round" stroke-width="1.054"/>
      <line id="Línea_166" data-name="Línea 166" x1="4.352" transform="translate(11.589 99.465)" fill="none" stroke="#263238" stroke-linecap="round" stroke-linejoin="round" stroke-width="1.054"/>
      <path id="Trazado_102796" data-name="Trazado 102796" d="M295.116,3007.014v-28.7H269" transform="translate(-251.264 -2878.847)" fill="none" stroke="#263238" stroke-linecap="round" stroke-linejoin="round" stroke-width="1.054"/>
      <path id="Trazado_102797" data-name="Trazado 102797" d="M290.641,3080.914h9.648v-5.531" transform="translate(-256.438 -2902.055)" fill="none" stroke="#263238" stroke-linecap="round" stroke-linejoin="round" stroke-width="1.054"/>
      <path id="Trazado_102798" data-name="Trazado 102798" d="M253.241,3057.613v19.053h26.465" transform="translate(-247.496 -2897.807)" fill="none" stroke="#263238" stroke-linecap="round" stroke-linejoin="round" stroke-width="1.054"/>
      <path id="Trazado_102799" data-name="Trazado 102799" d="M256.414,3032.573h-3.173v15.378" transform="translate(-247.496 -2891.82)" fill="none" stroke="#263238" stroke-linecap="round" stroke-linejoin="round" stroke-width="1.054"/>
      <line id="Línea_167" data-name="Línea 167" x1="4.352" transform="translate(11.589 140.753)" fill="none" stroke="#263238" stroke-linecap="round" stroke-linejoin="round" stroke-width="1.054"/>
      <path id="Trazado_102800" data-name="Trazado 102800" d="M295.116,3061.274v-28.7H269" transform="translate(-251.264 -2891.82)" fill="none" stroke="#263238" stroke-linecap="round" stroke-linejoin="round" stroke-width="1.054"/>
      <path id="Trazado_102801" data-name="Trazado 102801" d="M308.2,3015.823v9.649h5.7" transform="translate(-260.636 -2887.815)" fill="none" stroke="#263238" stroke-linecap="round" stroke-linejoin="round" stroke-width="1.054"/>
      <path id="Trazado_102802" data-name="Trazado 102802" d="M327.422,2978.423H308.2v26.465" transform="translate(-260.636 -2878.874)" fill="none" stroke="#263238" stroke-linecap="round" stroke-linejoin="round" stroke-width="1.054"/>
      <path id="Trazado_102803" data-name="Trazado 102803" d="M353.5,2981.6v-3.173H338.291" transform="translate(-267.83 -2878.874)" fill="none" stroke="#263238" stroke-linecap="round" stroke-linejoin="round" stroke-width="1.054"/>
      <line id="Línea_168" data-name="Línea 168" y1="4.352" transform="translate(85.672 105.393)" fill="none" stroke="#263238" stroke-linecap="round" stroke-linejoin="round" stroke-width="1.054"/>
      <path id="Trazado_102804" data-name="Trazado 102804" d="M320.781,3020.3h28.534v-26.115" transform="translate(-263.644 -2882.642)" fill="none" stroke="#263238" stroke-linecap="round" stroke-linejoin="round" stroke-width="1.054"/>
      <path id="Trazado_102805" data-name="Trazado 102805" d="M253.241,2961.463v9.641h5.7" transform="translate(-247.496 -2874.819)" fill="none" stroke="#263238" stroke-linecap="round" stroke-linejoin="round" stroke-width="1.054"/>
      <path id="Trazado_102806" data-name="Trazado 102806" d="M272.462,2924.063H253.241v26.465" transform="translate(-247.496 -2865.877)" fill="none" stroke="#263238" stroke-linecap="round" stroke-linejoin="round" stroke-width="1.054"/>
      <path id="Trazado_102807" data-name="Trazado 102807" d="M298.542,2927.228v-3.165H283.331" transform="translate(-254.69 -2865.877)" fill="none" stroke="#263238" stroke-linecap="round" stroke-linejoin="round" stroke-width="1.054"/>
      <line id="Línea_169" data-name="Línea 169" y1="4.352" transform="translate(43.852 64.029)" fill="none" stroke="#263238" stroke-linecap="round" stroke-linejoin="round" stroke-width="1.054"/>
      <path id="Trazado_102808" data-name="Trazado 102808" d="M265.821,2965.93h28.534v-26.107" transform="translate(-250.504 -2869.645)" fill="none" stroke="#263238" stroke-linecap="round" stroke-linejoin="round" stroke-width="1.054"/>
      <path id="Trazado_102809" data-name="Trazado 102809" d="M446.032,2872.713a23.193,23.193,0,0,1-7.061,21.153" transform="translate(-291.901 -2853.6)" fill="none" stroke="#263238" stroke-linecap="round" stroke-linejoin="round" stroke-width="1.054"/>
      <path id="Trazado_102810" data-name="Trazado 102810" d="M417.531,2847.6a23.216,23.216,0,0,1,16.253,6.133" transform="translate(-286.775 -2847.595)" fill="none" stroke="#263238" stroke-linecap="round" stroke-linejoin="round" stroke-width="1.054"/>
      <path id="Trazado_102811" data-name="Trazado 102811" d="M388.045,2875.065a23.238,23.238,0,0,1,18.749-26.982" transform="translate(-279.637 -2847.712)" fill="none" stroke="#263238" stroke-linecap="round" stroke-linejoin="round" stroke-width="1.054"/>
      <path id="Trazado_102812" data-name="Trazado 102812" d="M415.588,2903.793a23.238,23.238,0,0,1-25.567-13.94" transform="translate(-280.198 -2857.698)" fill="none" stroke="#263238" stroke-linecap="round" stroke-linejoin="round" stroke-width="1.054"/>
      <path id="Trazado_102813" data-name="Trazado 102813" d="M399.481,2856.954a20.507,20.507,0,0,1,34.424,11.1" transform="translate(-282.46 -2848.457)" fill="none" stroke="#263238" stroke-linecap="round" stroke-linejoin="round" stroke-width="1.054"/>
      <path id="Trazado_102814" data-name="Trazado 102814" d="M432.147,2877.463a20.5,20.5,0,1,1-38.647-11.52" transform="translate(-280.496 -2851.982)" fill="none" stroke="#263238" stroke-linecap="round" stroke-linejoin="round" stroke-width="1.054"/>
      <path id="Trazado_102815" data-name="Trazado 102815" d="M413.473,2858.053l1.575,15.272-10.067,6.3" transform="translate(-283.775 -2850.095)" fill="none" stroke="#263238" stroke-linecap="round" stroke-linejoin="round" stroke-width="1.054"/>
    </g>
    <g id="freepik--character-1--inject-122" transform="translate(194.291 3005.635)">
      <rect id="Rectángulo_28584" data-name="Rectángulo 28584" width="305.386" height="46.051" transform="translate(14.427 90.292)" fill="#fff"/>
      <line id="Línea_170" data-name="Línea 170" y2="34.059" transform="translate(319.813 90.292)" fill="none" stroke="#12263f" stroke-linecap="round" stroke-linejoin="round" stroke-width="1.054"/>
      <path id="Trazado_102816" data-name="Trazado 102816" d="M518.637,3186.034v-12.091H213.251a32.765,32.765,0,0,0,24.935,31.829,238.884,238.884,0,0,0,64.868,6.331c38.046-1.255,100.517-31.609,146.324-23.467C496.274,3196.976,518.637,3186.034,518.637,3186.034Z" transform="translate(-198.824 -3083.659)" fill="#0f2771" opacity="0.96" style="isolation: isolate"/>
      <path id="Trazado_102817" data-name="Trazado 102817" d="M210.734,3155.682H511.151l8.012,10.9v4.254H202.721" transform="translate(-196.307 -3079.292)" fill="#fff" stroke="#12263f" stroke-linecap="round" stroke-linejoin="round" stroke-width="1.054"/>
      <line id="Línea_171" data-name="Línea 171" x2="319.654" transform="translate(0 87.286)" fill="none" stroke="#12263f" stroke-linecap="round" stroke-linejoin="round" stroke-width="1.054"/>
      <path id="Trazado_102818" data-name="Trazado 102818" d="M273.7,3112.945c-13.5,1.347-25.316,7.031-32.088,20.385,0,0-8.88,6.582-4.33,12.334l77.758-.54s2.945-6.932-4.809-10.653C310.232,3134.494,299.024,3110.418,273.7,3112.945Z" transform="translate(-204.26 -3069.031)" fill="#7cc5ff"/>
      <path id="Trazado_102819" data-name="Trazado 102819" d="M272.481,3114.99s-6.377,2.686,0,9.771l2.678-1.872s5.441,3.127,8.2,3.173,6.924-3.751,6.924-3.751l1.613,3.188s3.683-6.658,0-9.831S272.481,3114.99,272.481,3114.99Z" transform="translate(-212.307 -3069.341)" fill="#69f" opacity="0.4" style="isolation: isolate"/>
      <path id="Trazado_102820" data-name="Trazado 102820" d="M246.191,3139.575a6.932,6.932,0,0,1,5.129,6.133c.472,5.068,53.127,2.214,53.127,2.214s-.533-6.338,4.33-8.37c0,0,.951-1.377-2.321-.761a8.368,8.368,0,0,0-4.763,2.481s-.525-3.744.533-5.441-4.444-.418-4.444,2.222-2.808-2.283-2.092-6.688-2.473,3.3-2.99,6.087-30.338,2.869-31.289,1.887-1.522-6.49-2.815-7.442-1.461,3.371-1.461,3.371-.517-4.565-2.191-5.083.236,4.566.335,7.267c0,0-1.689-1.75-3.485-1.522s-.107,1.8.107,3.6S247.127,3137.574,246.191,3139.575Z" transform="translate(-206.699 -3073.161)" fill="#69f" opacity="0.4" style="isolation: isolate"/>
      <path id="Trazado_102821" data-name="Trazado 102821" d="M281.31,3125.512s-2.465,3.325-2.283,6.848c0,0,3.7-2.283,4.7-4.977,0,0,2.853,4.421,6.24,4.292,0,0-2.694-4.977-3.926-5.753a19.789,19.789,0,0,0,6.772-7.86s-2.237.221-2.184-.54c0,0-4.512,7.472-6.848,8.012a11.6,11.6,0,0,1-5.471-6.087l-4.931-.639S277.148,3124.2,281.31,3125.512Z" transform="translate(-213.2 -3070.17)" fill="#69f" stroke="#12263f" stroke-linecap="round" stroke-linejoin="round" stroke-width="1.054"/>
      <path id="Trazado_102822" data-name="Trazado 102822" d="M282.238,3122.521c-1.294-2.389-6.445-5.228-6.445-5.228l-3.28,4.079c-6.141-5.387,0-10.653,0-10.653,1.682-2.283,15.584-3.69,18.741,0a9.4,9.4,0,0,1,1.674,10.554l-2.93-4.687s-4.923,1.613-6.156,5.927" transform="translate(-212.34 -3068)" fill="#7cc5ff"/>
      <path id="Trazado_102823" data-name="Trazado 102823" d="M289.746,3106.3a46.974,46.974,0,0,0,0,6.848c-1.438,2.024-5.578,4.816-5.578,4.816-3.264-1.1-7.609-5.745-7.609-5.745a12.16,12.16,0,0,0,.152-4.345,43.915,43.915,0,0,0-1.042-5.684c-.046-.183-.068-.289-.068-.289h15.127a7.919,7.919,0,0,0-.616,1.819A20.184,20.184,0,0,0,289.746,3106.3Z" transform="translate(-213.731 -3066.435)" fill="#c76668"/>
      <path id="Trazado_102824" data-name="Trazado 102824" d="M290.135,3103.8a20.144,20.144,0,0,0-.358,2.587c-2.283,2.229-6.574,4.817-13,1.567a43.9,43.9,0,0,0-1.042-5.684A96.489,96.489,0,0,1,290.135,3103.8Z" transform="translate(-213.762 -3066.523)" fill="#12263f"/>
      <path id="Trazado_102825" data-name="Trazado 102825" d="M303.575,3086.007s1.727-.867,2.283.061-.852,5.9-1.134,6.43a13.076,13.076,0,0,0-1.408,1.933c-1,1.719-1.438.943-1.415-.038" transform="translate(-220.018 -3062.547)" fill="#c76668"/>
      <path id="Trazado_102826" data-name="Trazado 102826" d="M267.9,3084.984s-1.674-.951-2.283-.061.517,5.935.761,6.475a13.1,13.1,0,0,1,1.3,2.017c.913,1.773,1.385,1.02,1.415.038" transform="translate(-211.301 -3062.285)" fill="#c76668"/>
      <path id="Trazado_102827" data-name="Trazado 102827" d="M282.834,3064.621c10.5.289,12.426,9.131,12.319,17.752-.175,13.849-6.513,15.348-13.514,15.15-7.168-.206-12.038-.571-12.441-16.352C268.977,3072.747,272.523,3064.332,282.834,3064.621Z" transform="translate(-212.198 -3057.52)" fill="#c76668"/>
      <path id="Trazado_102828" data-name="Trazado 102828" d="M280.58,3079.221s-2.686-1.644-5.509,1.568" transform="translate(-213.604 -3060.911)" fill="none" stroke="#12263f" stroke-linecap="round" stroke-linejoin="round" stroke-width="1.054"/>
      <path id="Trazado_102829" data-name="Trazado 102829" d="M290.971,3079.228a5.265,5.265,0,0,1,5.692,2.123" transform="translate(-217.406 -3060.972)" fill="none" stroke="#12263f" stroke-linecap="round" stroke-linejoin="round" stroke-width="1.054"/>
      <path id="Trazado_102830" data-name="Trazado 102830" d="M280.165,3085.363c0,.852-.495,1.522-1.058,1.522s-.989-.715-.966-1.56.495-1.522,1.058-1.522S280.188,3084.518,280.165,3085.363Z" transform="translate(-214.338 -3062.108)" fill="#12263f"/>
      <path id="Trazado_102831" data-name="Trazado 102831" d="M293.915,3085.75c0,.845-.495,1.522-1.058,1.522s-.989-.715-.966-1.567.495-1.522,1.058-1.522S293.938,3084.9,293.915,3085.75Z" transform="translate(-217.625 -3062.198)" fill="#12263f"/>
      <path id="Trazado_102832" data-name="Trazado 102832" d="M300.041,3091.225s1.415-.594,3.2-4.482" transform="translate(-219.574 -3062.81)" fill="none" stroke="#12263f" stroke-linecap="round" stroke-linejoin="round" stroke-width="1.054"/>
      <path id="Trazado_102833" data-name="Trazado 102833" d="M271.819,3090.55s-2.016-.936-2.618-4.177" transform="translate(-212.201 -3062.722)" fill="none" stroke="#12263f" stroke-linecap="round" stroke-linejoin="round" stroke-width="1.054"/>
      <path id="Trazado_102834" data-name="Trazado 102834" d="M268.114,3080.715a23.593,23.593,0,0,1,1.727-6.452,9.03,9.03,0,0,0,.845-5.189s1.735-4.8,9.542-4.565a16.083,16.083,0,0,1,11.756,5.326s-.335,4.2,0,5.144,2.184,4.672,1.956,7.054c0,0,2.366-4.946,2.169-5.372s1.37-.426,1.278-1.986-2.047-2.587-.837-4.223,2.123-2.389.989-4.018-2.359-3.219-1.864-5.326-5.106-2.5-6.8-3.272-.944-1.522-2.473-2.214-5.151-.152-6.255.35-3.5-1.172-5.9-.137-4.246.875-4.056,2.693-1.453,1.91-2.754,2.861a4.251,4.251,0,0,0-1.393,4.352c.51,1.1-.3,2.009-.928,3.264s-1.1,3.584-.251,4.779,2.169.548,1.727,1.689S268.114,3080.715,268.114,3080.715Z" transform="translate(-211.053 -3055.291)" fill="#12263f"/>
      <path id="Trazado_102835" data-name="Trazado 102835" d="M257.691,3129.093s4.566,9.511.533,16.39" transform="translate(-209.449 -3072.936)" fill="none" stroke="#12263f" stroke-linecap="round" stroke-linejoin="round" stroke-width="1.054"/>
      <path id="Trazado_102836" data-name="Trazado 102836" d="M261.766,3130.513s1.1,5.159-1.195,9.177" transform="translate(-210.137 -3073.275)" fill="none" stroke="#12263f" stroke-linecap="round" stroke-linejoin="round" stroke-width="1.054"/>
      <path id="Trazado_102837" data-name="Trazado 102837" d="M312.243,3128.123s-5.395,8.689,1.689,16.6" transform="translate(-222.021 -3072.704)" fill="none" stroke="#12263f" stroke-linecap="round" stroke-linejoin="round" stroke-width="1.054"/>
      <path id="Trazado_102838" data-name="Trazado 102838" d="M309.092,3130.513a11.266,11.266,0,0,0,.761,8.431" transform="translate(-221.624 -3073.275)" fill="none" stroke="#12263f" stroke-linecap="round" stroke-linejoin="round" stroke-width="1.054"/>
      <path id="Trazado_102839" data-name="Trazado 102839" d="M335.424,3152.413c1.6-3.043-.152-6.848-4.383-7.48s-8.454,1.932-7.092,6.8S333.423,3156.263,335.424,3152.413Z" transform="translate(-225.228 -3076.7)" fill="#c76668"/>
      <path id="Trazado_102840" data-name="Trazado 102840" d="M317.81,3146.743s-16.124,3.173-20.134,2.793-8.8-2.937-10.653-2.093-4.4,5.479-4.817,6.148,2.085,2.047,3.477,1.979a6.856,6.856,0,0,0,2.443-.761s1.263,2.732,8.149.571c0,0,21.846,4.1,27.393-.365,3.447-2.792,2.45-5.326-.129-6.848" transform="translate(-215.299 -3077.155)" fill="#c76668"/>
      <path id="Trazado_102841" data-name="Trazado 102841" d="M289.352,3155.865s.654-1.332-1.461-1.925a5.456,5.456,0,0,1-.586-2.717" transform="translate(-216.517 -3078.226)" fill="none" stroke="#12263f" stroke-linecap="round" stroke-linejoin="round" stroke-width="1.054"/>
      <path id="Trazado_102842" data-name="Trazado 102842" d="M287.434,3154.793a2.411,2.411,0,0,1-2.093.883" transform="translate(-216.06 -3079.08)" fill="none" stroke="#12263f" stroke-linecap="round" stroke-linejoin="round" stroke-width="1.054"/>
      <path id="Trazado_102843" data-name="Trazado 102843" d="M300.656,3157.408s-.464-.571,0-2.115" transform="translate(-219.672 -3079.2)" fill="none" stroke="#12263f" stroke-linecap="round" stroke-linejoin="round" stroke-width="1.054"/>
      <path id="Trazado_102844" data-name="Trazado 102844" d="M237.183,3152.333c-1.392-3.127.609-6.848,4.87-7.168s8.3,2.488,6.62,7.244S238.948,3156.313,237.183,3152.333Z" transform="translate(-204.441 -3076.772)" fill="#c76668"/>
      <path id="Trazado_102845" data-name="Trazado 102845" d="M245.313,3147.233s15.873,4.238,19.9,4.124,8.979-2.344,10.759-1.377,4.025,5.76,4.4,6.453-2.222,1.91-3.607,1.75a7.066,7.066,0,0,1-2.382-.943s-1.446,2.64-8.165,0c0,0-22.067,2.648-27.286-2.177-3.257-3.043-2.093-5.509.578-6.848" transform="translate(-204.49 -3077.273)" fill="#c76668"/>
      <path id="Trazado_102846" data-name="Trazado 102846" d="M286.12,3158.97s-.563-1.377,1.59-1.826a5.4,5.4,0,0,0,.761-2.671" transform="translate(-216.23 -3079.004)" fill="none" stroke="#12263f" stroke-linecap="round" stroke-linejoin="round" stroke-width="1.054"/>
      <path id="Trazado_102847" data-name="Trazado 102847" d="M288.231,3157.943a2.39,2.39,0,0,0,2.024,1.02" transform="translate(-216.75 -3079.833)" fill="none" stroke="#12263f" stroke-linecap="round" stroke-linejoin="round" stroke-width="1.054"/>
      <path id="Trazado_102848" data-name="Trazado 102848" d="M275.411,3159.751s.5-.533.137-2.108" transform="translate(-213.685 -3079.762)" fill="none" stroke="#12263f" stroke-linecap="round" stroke-linejoin="round" stroke-width="1.054"/>
      <path id="Trazado_102849" data-name="Trazado 102849" d="M247.371,3163.263l2.869-4.695s-10.4-.875-12.373-1.659-6.011.959-6.011.959a7.988,7.988,0,0,0-5.707-1.628c-5.136.669-10.554.677-11.231.76l-6.087,3.9s14.374.593,17.988,2.161l2.5.388S239.762,3162.951,247.371,3163.263Z" transform="translate(-197.767 -3079.416)" fill="#69f" stroke="#12263f" stroke-linecap="round" stroke-linejoin="round" stroke-width="1.054"/>
      <path id="Trazado_102850" data-name="Trazado 102850" d="M249.258,3157.523l-2.191,3.675a56.966,56.966,0,0,0-16.793.061l-1.347.411s-5.326-2.891-15.675-2.648l4.741-3.736s9.983-5.22,14.937.129c0,0,.989-1.119,5.745-1.826S249.258,3157.523,249.258,3157.523Z" transform="translate(-198.824 -3078.652)" fill="#fff" stroke="#12263f" stroke-linecap="round" stroke-linejoin="round" stroke-width="1.054"/>
      <path id="Trazado_102851" data-name="Trazado 102851" d="M233.257,3156.173l-3.044,4.695a13.662,13.662,0,0,0-7.175-2.572,16.2,16.2,0,0,0-8.477,1.522" transform="translate(-199.137 -3079.41)" fill="none" stroke="#12263f" stroke-linecap="round" stroke-linejoin="round" stroke-width="1.054"/>
      <path id="Trazado_102852" data-name="Trazado 102852" d="M235.1,3161.7a20.491,20.491,0,0,1,6.848-1.971c4.626-.67,9.991,2.693,9.991,2.693" transform="translate(-204.048 -3080.238)" fill="#fff" stroke="#12263f" stroke-linecap="round" stroke-linejoin="round" stroke-width="1.054"/>
      <path id="Trazado_102853" data-name="Trazado 102853" d="M282.477,3099.092l6.672.236a3.336,3.336,0,0,1-3.442,3.224c-.106,0-.212-.012-.316-.026a3.129,3.129,0,0,1-2.923-3.323Z" transform="translate(-215.371 -3065.763)" fill="#1a2e35"/>
      <path id="Trazado_102854" data-name="Trazado 102854" d="M287.25,3102.441a3.494,3.494,0,0,0-4.241-2.005,1.947,1.947,0,0,0-.3.124,2.93,2.93,0,0,0,2.726,2.206A3.653,3.653,0,0,0,287.25,3102.441Z" transform="translate(-215.431 -3066.048)" fill="#f28f8f"/>
      <path id="Trazado_102855" data-name="Trazado 102855" d="M286.045,3085.891l-.458,6.936,3.92-.668Z" transform="translate(-216.118 -3062.607)" fill="#b0494c"/>
    </g>
    <g id="freepik--character-3--inject-122" transform="translate(253.802 3021.486)">
      <path id="Trazado_102856" data-name="Trazado 102856" d="M546.84,3218.033v34.241l-170.681-3.667h0l-80.574-1.727-17.714-.38v-28.466Z" transform="translate(-273.785 -3110.052)" fill="#e1e1e1" stroke="#fff" stroke-miterlimit="10" stroke-width="1"/>
      <path id="Trazado_102857" data-name="Trazado 102857" d="M542.323,3218.033c-1.811,4.512-5.791,9.747-14.191,14.161-19.35,10.15-58.682-6.224-82.476-5.174-15.591.685-41.379,13.605-69.495,21.617h0c-14.762,4.208-30.17,7.061-45.092,6.088-13.887-.913-26-3.607-35.474-7.807-7.9-3.5-13.97-8.058-17.714-13.506v-15.378Z" transform="translate(-273.787 -3110.052)" fill="#0f2771" opacity="0.69" style="isolation: isolate"/>
      <line id="Línea_172" data-name="Línea 172" y2="34.279" transform="translate(4.086 107.981)" fill="none" stroke="#263238" stroke-linecap="round" stroke-linejoin="round" stroke-width="1.054"/>
      <path id="Trazado_102858" data-name="Trazado 102858" d="M546.743,3189.932H287.735L272.5,3206.376v6.414H547.633" transform="translate(-272.501 -3103.333)" fill="#fff" stroke="#263238" stroke-linecap="round" stroke-linejoin="round" stroke-width="1.054"/>
      <line id="Línea_173" data-name="Línea 173" x2="280.74" transform="translate(3.211 103.043)" fill="none" stroke="#263238" stroke-linecap="round" stroke-linejoin="round" stroke-width="1.054"/>
      <path id="Trazado_102859" data-name="Trazado 102859" d="M522.631,3197.575v6.529H556.72l-3.8-7.381Z" transform="translate(-332.303 -3104.957)" fill="#fff" stroke="#263238" stroke-linecap="round" stroke-linejoin="round" stroke-width="1.054"/>
      <path id="Trazado_102860" data-name="Trazado 102860" d="M571.321,3196.963l22.143-2.8,15.918,5.638-20.294,5.014Z" transform="translate(-343.944 -3104.344)" fill="#fff" stroke="#263238" stroke-linecap="round" stroke-linejoin="round" stroke-width="1.054"/>
      <path id="Trazado_102861" data-name="Trazado 102861" d="M552.313,3175.158a7.618,7.618,0,0,1-2.077.145,61.874,61.874,0,0,1-7.29-.616c-2.557-.4-3.219-1.042-3.219-1.042l-42.071-.145H492.68a5.032,5.032,0,0,1-4.436,3.675c-2.914.4-10.531-.906-11.581-2-3.325-3.493-2.283-12,.266-13.164,0,0,3.706-11.574,7.51-19.974,4.063-9,15.629-19.411,30.574-21.131s29.371,15.1,34.294,23.5a95.458,95.458,0,0,1,7.442,16.025,8.579,8.579,0,0,1,2.328,3.911C559.823,3168.568,559.13,3172.943,552.313,3175.158Z" transform="translate(-320.811 -3086.8)" fill="#69f" stroke="#fff" stroke-miterlimit="10" stroke-width="1"/>
      <g id="Grupo_49869" data-name="Grupo 49869" transform="translate(153.754 33.982)">
        <g id="Grupo_49868" data-name="Grupo 49868" clip-path="url(#clip-path)">
          <g id="Grupo_49867" data-name="Grupo 49867" transform="translate(6.7 3.945)">
            <path id="Trazado_102862" data-name="Trazado 102862" d="M553.573,3181.95a5.189,5.189,0,0,1-1.233,1.012,61.773,61.773,0,0,1-7.29-.617c-2.557-.4-3.219-1.042-3.219-1.042l-42.071-.145c-2.762-1.856-4.642-3.957-4.976-6.194-1.1-7.693-6.5-8.644-11.414-7.959,0,0,1.59-4.649,5.281-4.429s7,4.429,7,4.429c-.563-5.661-7.837-14.632-5.616-14.168s7.244,6.369,7.495,6.658c-.137-.3-3.31-6.955-.563-6.65s5.326,10.858,5.326,10.858,9.283,5.63,15.325,6.445,21.161-7.571,21.161-7.571l.624,5.6s8.172-5.182,11.984-2.693S555.841,3179.173,553.573,3181.95Z" transform="translate(-483.371 -3132.386)" fill="#36c" opacity="0.4" style="isolation: isolate"/>
            <path id="Trazado_102863" data-name="Trazado 102863" d="M522.661,3151.424c-2-3.279-9.938-7.175-9.938-7.175l-4.079,2.283c-9.473-7.4-3.2-17.433-3.2-17.433,2.58-3.181,27.393-5.068,32.278,0s4.314,11.832,2.161,16.481l-5.25-2.321s-7.609,2.214-9.5,8.142" transform="translate(-488.161 -3125.966)" fill="#69f" opacity="0.4" style="isolation: isolate"/>
          </g>
        </g>
      </g>
      <path id="Trazado_102865" data-name="Trazado 102865" d="M552.313,3175.158a7.618,7.618,0,0,1-2.077.145,61.874,61.874,0,0,1-7.29-.616c-2.557-.4-3.219-1.042-3.219-1.042l-42.071-.145H492.68a5.032,5.032,0,0,1-4.436,3.675c-2.914.4-10.531-.906-11.581-2-3.325-3.493-2.283-12,.266-13.164,0,0,3.706-11.574,7.51-19.974,4.063-9,15.629-19.411,30.574-21.131s29.371,15.1,34.294,23.5a95.458,95.458,0,0,1,7.442,16.025,8.579,8.579,0,0,1,2.328,3.911C559.823,3168.568,559.13,3172.943,552.313,3175.158Z" transform="translate(-320.811 -3086.8)" fill="none" stroke="#263238" stroke-linecap="round" stroke-linejoin="round" stroke-width="1.054"/>
      <path id="Trazado_102866" data-name="Trazado 102866" d="M521.77,3153.694s-3.378,4.565-3.173,9.359c0,0,5.075-3.127,6.453-6.848,0,0,3.911,6.087,8.56,5.89,0,0-3.7-6.848-5.387-7.891a27.147,27.147,0,0,0,9.291-10.79s-3.044.312-2.99-.761c0,0-6.194,10.25-9.367,11a15.876,15.876,0,0,1-7.51-8.37l-6.765-.875S516.063,3151.89,521.77,3153.694Z" transform="translate(-329.494 -3092.029)" fill="#69f" stroke="#263238" stroke-linecap="round" stroke-linejoin="round" stroke-width="1.054"/>
      <path id="Trazado_102867" data-name="Trazado 102867" d="M523.036,3147.632c-1.781-3.28-8.842-7.176-8.842-7.176l-3.63,2.283c-8.431-7.4-2.861-17.44-2.861-17.44,2.283-3.181,24.4-5.068,28.732,0s3.85,11.832,1.925,16.489l-4.672-2.29s-6.765,2.222-8.454,8.142" transform="translate(-328.303 -3087.131)" fill="#7cc5ff"/>
      <path id="Trazado_102868" data-name="Trazado 102868" d="M490.321,3151.463s8.073,5.494,10.7,13.742a29.527,29.527,0,0,1,1.157,14.458" transform="translate(-324.578 -3094.135)" fill="none" stroke="#263238" stroke-linecap="round" stroke-linejoin="round" stroke-width="1.054"/>
      <path id="Trazado_102869" data-name="Trazado 102869" d="M501.991,3157.163s3.044,4.626,2.7,12.776" transform="translate(-327.368 -3095.498)" fill="none" stroke="#263238" stroke-linecap="round" stroke-linejoin="round" stroke-width="1.054"/>
      <path id="Trazado_102870" data-name="Trazado 102870" d="M565.09,3148.683s-12.456,10.059-5.494,31.631" transform="translate(-340.635 -3093.471)" fill="none" stroke="#263238" stroke-linecap="round" stroke-linejoin="round" stroke-width="1.054"/>
      <path id="Trazado_102871" data-name="Trazado 102871" d="M559.628,3154.523s-2.983,10.547-1.385,14.784" transform="translate(-340.705 -3094.867)" fill="none" stroke="#263238" stroke-linecap="round" stroke-linejoin="round" stroke-width="1.054"/>
      <path id="Trazado_102872" data-name="Trazado 102872" d="M516.161,3139.3s5.288,7.29,9.938,9.831a24.214,24.214,0,0,0,7.046-9.07c2.61-5.851-16.466-.761-16.466-.761" transform="translate(-330.756 -3090.736)" fill="#12263f"/>
      <path id="Trazado_102873" data-name="Trazado 102873" d="M551.332,3109.2s2.23-1.362,3.12-.175-.479,8.058-.8,8.8a17.864,17.864,0,0,0-1.682,2.77c-1.164,2.435-1.841,1.438-1.91.107" transform="translate(-338.861 -3083.872)" fill="#ff9a79"/>
      <path id="Trazado_102874" data-name="Trazado 102874" d="M502.79,3111.934s-2.366-1.1-3.12.175,1.377,7.952,1.773,8.652a18.279,18.279,0,0,1,1.986,2.564c1.431,2.291,1.986,1.233,1.91-.106" transform="translate(-326.775 -3084.579)" fill="#ff9a79"/>
      <path id="Trazado_102875" data-name="Trazado 102875" d="M521.121,3086.522c14.214-.761,17.813,10.935,18.642,22.561,1.324,18.7-7.054,19.023-16.527,19.556-9.686.54-16.3,3-18.635-18.262C503.354,3099.054,507.181,3087.3,521.121,3086.522Z" transform="translate(-327.939 -3078.601)" fill="#ffbea7"/>
      <path id="Trazado_102876" data-name="Trazado 102876" d="M519.29,3111.041s-3.8-1.91-7.259,2.739" transform="translate(-329.769 -3084.379)" fill="none" stroke="#263238" stroke-linecap="round" stroke-linejoin="round" stroke-width="1.054"/>
      <path id="Trazado_102877" data-name="Trazado 102877" d="M533.241,3109.954a7.142,7.142,0,0,1,7.921,2.222" transform="translate(-334.84 -3084.113)" fill="none" stroke="#263238" stroke-linecap="round" stroke-linejoin="round" stroke-width="1.054"/>
      <path id="Trazado_102878" data-name="Trazado 102878" d="M519.4,3118.426c.068,1.149-.495,2.115-1.248,2.153s-1.423-.852-1.484-1.994.495-2.115,1.248-2.153S519.34,3117.285,519.4,3118.426Z" transform="translate(-330.877 -3085.76)" fill="#12263f"/>
      <path id="Trazado_102879" data-name="Trazado 102879" d="M537.987,3117.394c.068,1.141-.495,2.108-1.248,2.154s-1.423-.86-1.522-2,.5-2.107,1.255-2.153S537.927,3116.245,537.987,3117.394Z" transform="translate(-335.31 -3085.511)" fill="#12263f"/>
      <path id="Trazado_102880" data-name="Trazado 102880" d="M546.991,3120.84s1.849-.959,3.8-6.407" transform="translate(-338.127 -3085.282)" fill="none" stroke="#263238" stroke-linecap="round" stroke-linejoin="round" stroke-width="1.054"/>
      <path id="Trazado_102881" data-name="Trazado 102881" d="M508.681,3123.269s-2.831-1.035-4.01-5.326" transform="translate(-328.009 -3086.122)" fill="none" stroke="#263238" stroke-linecap="round" stroke-linejoin="round" stroke-width="1.054"/>
      <path id="Trazado_102882" data-name="Trazado 102882" d="M528.083,3093.434s-.1,5.235-9.451,9.435c0,0,2.1-1.347,2.876-5.95,0,0-8.431,4.611-12.471,5.479l-4.048.867-1.522,8.416s-3.531-10.478-3.926-16.824,2.785-16.329,16.109-18.391,21.214,5.866,21.214,5.866,8.682,3.439,1.9,26.533a40.041,40.041,0,0,0-3.1-8.081C533.729,3097.238,528.083,3093.434,528.083,3093.434Z" transform="translate(-326.775 -3076.123)" fill="#12263f"/>
      <path id="Trazado_102883" data-name="Trazado 102883" d="M476.984,3186.074c-2.237-4.246.221-9.625,6.141-10.47s11.848,2.7,9.945,9.511S479.83,3191.477,476.984,3186.074Z" transform="translate(-321.194 -3099.878)" fill="#ffbea7"/>
      <path id="Trazado_102884" data-name="Trazado 102884" d="M487.862,3178.133s22.592,4.421,28.207,3.9,12.334-4.109,14.922-2.929,6.171,7.685,6.749,8.621-2.922,2.869-4.877,2.77a9.655,9.655,0,0,1-3.417-1.088s-1.773,3.8-11.414.8c0,0-30.619,5.752-38.358-.51-4.839-3.919-3.432-7.51.175-9.618" transform="translate(-321.29 -3100.512)" fill="#ffbea7"/>
      <path id="Trazado_102885" data-name="Trazado 102885" d="M546.019,3190.9s-.913-1.872,2.047-2.7c0,0,1.187-2.466.814-3.8" transform="translate(-337.863 -3102.009)" fill="none" stroke="#263238" stroke-linecap="round" stroke-linejoin="round" stroke-width="1.054"/>
      <path id="Trazado_102886" data-name="Trazado 102886" d="M548.751,3189.4s1.3,1.6,2.93,1.24" transform="translate(-338.548 -3103.206)" fill="none" stroke="#263238" stroke-linecap="round" stroke-linejoin="round" stroke-width="1.054"/>
      <path id="Trazado_102887" data-name="Trazado 102887" d="M531.051,3193.073s.654-.8,0-2.96" transform="translate(-334.316 -3103.376)" fill="none" stroke="#263238" stroke-linecap="round" stroke-linejoin="round" stroke-width="1.054"/>
      <path id="Trazado_102888" data-name="Trazado 102888" d="M572.076,3171.684a6.086,6.086,0,0,1,5.593,1.263c2.892,2.283,5.92,13.8-2.793,16.192S561.72,3172.948,572.076,3171.684Z" transform="translate(-342.69 -3098.918)" fill="#ffbea7"/>
      <path id="Trazado_102889" data-name="Trazado 102889" d="M572.385,3168.833s-12.9-20.416-15.614-27.051l-8.02,3.508c.19.959,7.366,30.619,15.9,35.421,5.418,3.044,8.241.426,8.872-3.706" transform="translate(-338.548 -3091.821)" fill="#ffbea7"/>
      <path id="Trazado_102890" data-name="Trazado 102890" d="M549.2,3141.379s-3.538-.32-4.566-2.96,3.8-9.443,3.8-9.443-.989-4.611.289-5.25,4.748-3.127,5.867-2.359,2.283,3.2,2.488,6.087-1.56,11.056-1.56,11.056" transform="translate(-337.53 -3086.906)" fill="#ffbea7"/>
      <path id="Trazado_102891" data-name="Trazado 102891" d="M549.681,3130.789s2.23-1.887,3.637-1.986" transform="translate(-338.77 -3088.718)" fill="#fff" stroke="#263238" stroke-linecap="round" stroke-linejoin="round" stroke-width="1.054"/>
      <path id="Trazado_102892" data-name="Trazado 102892" d="M552.761,3128.427a15.237,15.237,0,0,0,.289-2.945" transform="translate(-339.506 -3087.924)" fill="#fff" stroke="#263238" stroke-linecap="round" stroke-linejoin="round" stroke-width="1.054"/>
      <g id="Grupo_49870" data-name="Grupo 49870" transform="translate(179.401 5.676)" opacity="0.2">
        <path id="Trazado_102893" data-name="Trazado 102893" d="M535.626,3083.863a20.733,20.733,0,0,1-4.565,14.906" transform="translate(-513.72 -3083.65)" fill="none" stroke="#fff" stroke-linecap="round" stroke-linejoin="round" stroke-width="1.054"/>
        <path id="Trazado_102894" data-name="Trazado 102894" d="M528.17,3083.583a20.317,20.317,0,0,1-16.139,15.12" transform="translate(-509.17 -3083.583)" fill="none" stroke="#fff" stroke-linecap="round" stroke-linejoin="round" stroke-width="1.054"/>
        <path id="Trazado_102895" data-name="Trazado 102895" d="M523.406,3083.583s-2.686,9.892-15.135,9.093" transform="translate(-508.271 -3083.583)" fill="none" stroke="#fff" stroke-linecap="round" stroke-linejoin="round" stroke-width="1.054"/>
        <path id="Trazado_102896" data-name="Trazado 102896" d="M541.941,3093.663s4.687,3.8,6.087,7.891" transform="translate(-516.321 -3085.993)" fill="none" stroke="#fff" stroke-linecap="round" stroke-linejoin="round" stroke-width="1.054"/>
        <path id="Trazado_102897" data-name="Trazado 102897" d="M541.941,3089s3.417.213,5.037,1.324" transform="translate(-516.321 -3084.879)" fill="none" stroke="#fff" stroke-linecap="round" stroke-linejoin="round" stroke-width="1.054"/>
      </g>
      <path id="Trazado_102898" data-name="Trazado 102898" d="M523.887,3131.372l5.2,1.521a2.708,2.708,0,0,1-3.355,1.849c-.083-.024-.164-.052-.244-.083a2.542,2.542,0,0,1-1.635-3.2Z" transform="translate(-332.566 -3089.332)" fill="#9e6767"/>
      <path id="Trazado_102899" data-name="Trazado 102899" d="M527,3135.018a2.838,2.838,0,0,0-2.937-2.427,1.784,1.784,0,0,0-.259.038,2.382,2.382,0,0,0,1.7,2.283A2.965,2.965,0,0,0,527,3135.018Z" transform="translate(-332.584 -3089.623)" fill="#f28f8f"/>
      <path id="Trazado_102900" data-name="Trazado 102900" d="M528.955,3118.892l.464,8.18,4.489-1.346Z" transform="translate(-333.815 -3086.348)" fill="#f0997a"/>
    </g>
    <g id="freepik--character-2--inject-122" transform="translate(212.842 2961.406)">
      <path id="Trazado_102901" data-name="Trazado 102901" d="M513.7,3243.3H219.781a47.892,47.892,0,0,0,47.885,47.9H465.808a47.892,47.892,0,0,0,47.892-47.892Z" transform="translate(-218.936 -3056.012)" fill="#f6cadd"/>
      <path id="Trazado_102902" data-name="Trazado 102902" d="M430.961,3110.707l8.819-19.594a73.645,73.645,0,0,1,2.5-12.342c1.8-5.7,6.6-28.512,6-39.012s13.21,2.4,13.21,2.4-.906,41.089-2.4,46.819-14.731,59.245-14.731,59.245" transform="translate(-269.426 -3006.365)" fill="#ffbea7"/>
      <path id="Trazado_102903" data-name="Trazado 102903" d="M450.238,3142.069l-2.191,2.945-.4.54s-3.386,34.241-10.3,48.029c-.335.685-.692,1.324-1.05,1.9-7.609,12.243-18.079-52.5-18.079-52.5s3.493-12.608,9.527-14.937l2.534-7.122S448.853,3135.738,450.238,3142.069Z" transform="translate(-266.378 -3026.754)" fill="#7cc5ff"/>
      <g id="Grupo_49873" data-name="Grupo 49873" transform="translate(151.833 94.169)">
        <g id="Grupo_49872" data-name="Grupo 49872" clip-path="url(#clip-path-2)">
          <g id="Grupo_49871" data-name="Grupo 49871" transform="translate(15.238 9.806)">
            <path id="Trazado_102904" data-name="Trazado 102904" d="M452.834,3148.094l-.4.54s-3.386,34.241-10.3,48.029c-4.566-5.776-3.272-19.723-2.207-21.884,1.522-3.044,5.06.761,5.06.761s-2.96-11.079-3.378-14.252,3.173,1.689,5.258,3.4,2.564-9.534,1.575-12.936-13.385-19.655-9.42-17.8C441.93,3135.341,449.167,3143.711,452.834,3148.094Z" transform="translate(-438.236 -3133.809)" fill="#69f" opacity="0.4" style="isolation: isolate"/>
          </g>
        </g>
      </g>
      <path id="Trazado_102906" data-name="Trazado 102906" d="M450.238,3142.069l-2.191,2.945-.4.54s-3.386,34.241-10.3,48.029c-.335.685-.692,1.324-1.05,1.9-7.609,12.243-18.079-52.5-18.079-52.5s3.493-12.608,9.527-14.937l2.534-7.122S448.853,3135.738,450.238,3142.069Z" transform="translate(-266.378 -3026.754)" fill="none"/>
      <path id="Trazado_102907" data-name="Trazado 102907" d="M417.371,3172.3a124.307,124.307,0,0,1,6.308,37.034q.16,5.325-.107,11.1H341.637l-.076-38.426s9.306-14.944,30.193-19.4c16.169-3.447,29.782-18.848,29.782-18.848a36.414,36.414,0,0,1,2.99,3.546" transform="translate(-248.052 -3032.215)" fill="#7cc5ff"/>
      <g id="Grupo_49876" data-name="Grupo 49876" transform="translate(93.509 111.548)">
        <g id="Grupo_49875" data-name="Grupo 49875" clip-path="url(#clip-path-3)">
          <g id="Grupo_49874" data-name="Grupo 49874" transform="translate(0.928 12.669)">
            <path id="Trazado_102908" data-name="Trazado 102908" d="M423.872,3238.353H342.781c2.1-11.231,7.784-20.644,11.558-19.662,6.087,1.583,8.2,12.685,11.475,15.82s9.725-1.233,19.495-3.667,18.947,5.212,24.212,4.474c3.044-.434,9.58-4.642,14.457-8.066Q424.138,3232.562,423.872,3238.353Z" transform="translate(-342.781 -3174.329)" fill="#69f" opacity="0.4" style="isolation: isolate"/>
            <path id="Trazado_102909" data-name="Trazado 102909" d="M363.2,3173.9s-4.718,2.047-6.407,12.076c0,0,5.326-2.61,8.568-2.854s20.94,9.131,20.94,9.131,4.109-15.469,8.652-19.487,13.7-3.15,13.7-3.15-8.256-9.07-15.675-9.2c-3.044-.053-7.967,6.346-13.56,8.431C371.492,3171.766,363.2,3173.9,363.2,3173.9Z" transform="translate(-346.13 -3160.413)" fill="#69f" opacity="0.4" style="isolation: isolate"/>
          </g>
        </g>
      </g>
      <path id="Trazado_102911" data-name="Trazado 102911" d="M417.371,3172.3a124.307,124.307,0,0,1,6.308,37.034q.16,5.325-.107,11.1H341.637l-.076-38.426s9.306-14.944,30.193-19.4c16.169-3.447,29.782-18.848,29.782-18.848a36.414,36.414,0,0,1,2.99,3.546" transform="translate(-248.052 -3032.215)" fill="none"/>
      <path id="Trazado_102912" data-name="Trazado 102912" d="M387.644,3179s5.692-16.74,8.37-17.022,9.565,4.132,9.565,4.132c-12.076-19.4-30.383-9-38.046-4.5-15.644,9.245-13.7,23.048-13.7,23.048s6.087-6.7,8.834-7.564,15.112,7.564,15.112,7.564" transform="translate(-250.968 -3034.845)" fill="#7cc5ff"/>
      <path id="Trazado_102913" data-name="Trazado 102913" d="M391.584,3162.064c-1.1,9.724-7.906,16.656-7.906,16.656-13.765-3.356-16.215-12.434-16.215-12.434a2.8,2.8,0,0,0,.616-.837c.761-1.377,1.628-4.657-.708-11.208a45.738,45.738,0,0,0-2.161-5.075l24.555-4.223a17.546,17.546,0,0,0-1.02,9.314,21.582,21.582,0,0,0,.662,2.853A20.568,20.568,0,0,0,391.584,3162.064Z" transform="translate(-253.706 -3032.497)" fill="#fff"/>
      <path id="Trazado_102914" data-name="Trazado 102914" d="M401.842,3186.09c-1.423-1.75-15.7,3.485-15.7,3.485s-16.177,3.8-15.667,6.506,3.455,8.72,6.7,7.929,7.465-8.568,7.465-8.568l-3.569,15.386h3.569l2.283-15.781c3.173,3.964,5.479,12.449,5.479,12.449l2.039-2.854c-1.332-4.565-5.981-11.1-5.981-11.1s9.892,3.964,12.327,4.284S403.273,3187.833,401.842,3186.09Zm-25.354,13.8c-1.027.236-1.423-1.035-1.819-2.694s8-3.957,8-3.957S377.523,3199.65,376.489,3199.886Zm22.828-6.742c-1.035.631-10.075-2.138-10.075-2.138s10.151-2.937,10.47-1.826.647,3.333-.38,3.964Z" transform="translate(-254.962 -3042.249)" fill="#69f"/>
      <path id="Trazado_102915" data-name="Trazado 102915" d="M389.027,3195.069l-1.606-3.8s2.777-1.925,4.611-1.354l-.388,3.66" transform="translate(-259.016 -3043.222)" fill="#69f"/>
      <path id="Trazado_102916" data-name="Trazado 102916" d="M455.723,3035.042c-.677.167-7.982-2.017-8.827-7.9s-5.966-13.529-5.966-13.529,1.263-2.945,4.033-1.43c1.567.852,2.351,4.7,6.217,6.384a36.642,36.642,0,0,0,1.666-8.37c.5-5.212,1-11.924,3.044-12.434s2.191,1,2.191,2.176-.677,9.078,0,10.257,3.713-11.908,4.565-12.54c2.123-1.621,3.2,1.278,3.2,1.278s-2.861,12.6-2.526,13.613,4.375-8.066,4.565-9.245,2.458-.456,2.519,1.682c.053,1.651-4.033,11.094-3.7,12.1s3.044-5.92,3.8-6.422,2.6.335,1.073,5.083a87.352,87.352,0,0,0-3.173,11.726c-.845,4.71-4.71,7.914-7.906,7.609" transform="translate(-271.81 -2997.166)" fill="#ffbea7"/>
      <path id="Trazado_102917" data-name="Trazado 102917" d="M454.4,3025.3c1.933.761,5.212,2.442,6.224,5.8" transform="translate(-275.03 -3003.893)" fill="none"/>
      <path id="Trazado_102918" data-name="Trazado 102918" d="M459.931,3014.263s8.9.084,12.1,8.91" transform="translate(-276.352 -3001.253)" fill="none"/>
      <path id="Trazado_102919" data-name="Trazado 102919" d="M348.9,3205.467c2.587,5.722,4.208,14.3,3.1,27.134l-13.24,3.934-17.128,3.257s-8.9-17.615,1.164-26.975c0,0,2.694-9.519,13.133-18.764a10.88,10.88,0,0,1,2.96.852" transform="translate(-242.418 -3044.239)" fill="#7cc5ff"/>
      <g id="Grupo_49879" data-name="Grupo 49879" transform="translate(75.578 149.815)">
        <g id="Grupo_49878" data-name="Grupo 49878" clip-path="url(#clip-path-4)">
          <g id="Grupo_49877" data-name="Grupo 49877" transform="translate(10.497 13.905)">
            <path id="Trazado_102920" data-name="Trazado 102920" d="M355.3,3236.97l-8.058,2.4a14.372,14.372,0,0,1-1.088-5.555c-.434-13.521-14.359-16.626-14.359-16.626,5.387-2.792,11.7,2.557,12.54,3.987-1-2.526-2.762-7.944.061-7.267,4.36,1.057,8.53,9.306,8.53,9.306s-2.108-12.9.365-10.615h0C355.2,3218.221,356.239,3226.058,355.3,3236.97Z" transform="translate(-331.791 -3212.327)" fill="#69f" opacity="0.4" style="isolation: isolate"/>
          </g>
        </g>
      </g>
      <path id="Trazado_102922" data-name="Trazado 102922" d="M348.9,3205.467c2.587,5.722,4.208,14.3,3.1,27.134l-13.24,3.934-17.128,3.257s-8.9-17.615,1.164-26.975c0,0,2.694-9.519,13.133-18.764a10.88,10.88,0,0,1,2.96.852" transform="translate(-242.418 -3044.239)" fill="none"/>
      <path id="Trazado_102923" data-name="Trazado 102923" d="M312.655,3245.349c-4.01-5.326.555-10.653,3.409-14.8s5.235-8.066,5.235-8.066,10.052-.761,15.378,5.532,6.346,11.284,3.8,15.713S319.709,3254.785,312.655,3245.349Z" transform="translate(-240.764 -3051.028)" fill="#ffbea7"/>
      <path id="Trazado_102924" data-name="Trazado 102924" d="M390.074,3160.051c-3.8,4-11.7,10.569-21.306,8.37.761-1.377,1.628-4.657-.708-11.208H389.42A21.612,21.612,0,0,0,390.074,3160.051Z" transform="translate(-254.388 -3035.43)" fill="#12263f"/>
      <path id="Trazado_102925" data-name="Trazado 102925" d="M412.381,3109.381s3.143-2.526,4.733-.883.852,12.426.517,13.613-.761.624-2.039,4.565-2.526,2.564-2.9.54" transform="translate(-264.984 -3023.65)" fill="#ff9a79"/>
      <path id="Trazado_102926" data-name="Trazado 102926" d="M338.075,3123.242s-3.843-1.225-4.741.883,3.668,11.9,4.413,12.89.906.312,3.538,3.531,3.28,1.522,2.907-.532" transform="translate(-246.057 -3027.224)" fill="#ff9a79"/>
      <path id="Trazado_102927" data-name="Trazado 102927" d="M361.317,3073.189c21.587-4.01,29.4,13.225,32.955,30.855,5.714,28.359-6.559,34.188-20.956,36.866-14.716,2.732-24.829,4.109-32.582-27.933C336.595,3095.879,340.133,3077.123,361.317,3073.189Z" transform="translate(-247.492 -3015.201)" fill="#ffbea7"/>
      <path id="Trazado_102928" data-name="Trazado 102928" d="M361.59,3105.485s-6.209-2.177-10.569,5.623" transform="translate(-250.314 -3022.996)" fill="none"/>
      <path id="Trazado_102929" data-name="Trazado 102929" d="M382.551,3101.252s6.087-3.63,12.563,1.833" transform="translate(-257.852 -3021.768)" fill="none"/>
      <path id="Trazado_102930" data-name="Trazado 102930" d="M363.34,3118.638c.32,1.742-.35,3.325-1.522,3.538s-2.336-1.02-2.663-2.762.35-3.325,1.522-3.538S363.013,3116.9,363.34,3118.638Z" transform="translate(-252.239 -3025.542)" fill="#12263f"/>
      <path id="Trazado_102931" data-name="Trazado 102931" d="M391.588,3113.387c.32,1.742-.35,3.333-1.522,3.546s-2.344-1.027-2.671-2.77.35-3.325,1.522-3.538S391.245,3111.622,391.588,3113.387Z" transform="translate(-258.99 -3024.286)" fill="#12263f"/>
      <path id="Trazado_102932" data-name="Trazado 102932" d="M389.592,3079.382a22.993,22.993,0,0,0-15.858-10.052c-8.918-4.565-22.7-1.522-33.678,6.255s-5.578,23.459-5.433,24.6c.807,6.521,5.608,15.035,5.608,15.035s.5-14.115,2.047-18.673c.373-5.836,3.485-11.924,3.485-11.924-.9,2.283-.715,6.255-.464,8.819.5-.358,1.042-.723,1.583-1.081,0,0,1.126-.708,3.044-1.659.342-2.283,1.24-5.867,3.576-7.518a12.057,12.057,0,0,0-1.978,6.765,48.79,48.79,0,0,1,9.024-3.09l1.316-.273a29.48,29.48,0,0,1,1.895-2.61,12.124,12.124,0,0,0,2.4-3.843s.586,1.1-2.755,6.179a22.85,22.85,0,0,1,4.322-.335,19.623,19.623,0,0,0,2.755-8.043,18.55,18.55,0,0,1-1.469,8.165c2.321-2.07,3.873-9.131,3.873-9.131,7.153.289,8.667,5.813,9.633,7.571s3.409,3.562,5.144,7.122,5.851,15.067,5.851,15.067S395.657,3088.574,389.592,3079.382Z" transform="translate(-246.045 -3013.907)" fill="#12263f"/>
      <path id="Trazado_102933" data-name="Trazado 102933" d="M406.941,3121.627s2.633-1.826,4.566-10.554" transform="translate(-263.683 -3024.399)" fill="none"/>
      <path id="Trazado_102934" data-name="Trazado 102934" d="M348.4,3133.036s-4.566-1.02-7.191-7.373" transform="translate(-247.968 -3027.887)" fill="none"/>
      <path id="Trazado_102935" data-name="Trazado 102935" d="M430.492,3089.864s-.152-.563-.434-1.522c-1.613-3.553-4.238-8.728-7.069-11.832a26.331,26.331,0,0,1,4.459,4.87c-2.5-5.57-6.468-11.794-11.672-11.558-9.352.426-17.075,12.387-17.075,12.387l2.785,3.12h0l.761.822s6.491-6.171,10.523-4.565,8.971,18.551,8.971,18.551a23.932,23.932,0,0,0-.327-8.979c2.108,4.345,3.66,8.37,3.66,8.37a11.178,11.178,0,0,0,3.622-3.493c-.723-3.34-1.978-7.609-4-10.47,0,0,2.793,2.085,5.2,7.982A10.828,10.828,0,0,0,430.492,3089.864Z" transform="translate(-261.713 -3014.535)" fill="#12263f"/>
      <path id="Trazado_102936" data-name="Trazado 102936" d="M309.151,3112.824s-.061-.578-.129-1.522c.228-3.888.822-9.671,2.351-13.582a26.2,26.2,0,0,0-2.412,6.148c.327-6.087,1.8-13.331,6.742-14.975,8.88-2.967,20.377,5.425,20.377,5.425l-1.476,3.911h0l-.388,1.027s-8.279-3.432-11.467-.495-1.712,20.545-1.712,20.545a24.127,24.127,0,0,1-2.914-8.5c-.4,4.816-.411,9.131-.411,9.131a11.086,11.086,0,0,1-4.634-1.956c-.525-3.378-.9-7.837,0-11.208,0,0-1.849,2.952-1.986,9.321A10.932,10.932,0,0,1,309.151,3112.824Z" transform="translate(-240.258 -3018.944)" fill="#12263f"/>
      <line id="Línea_174" data-name="Línea 174" x2="293.927" transform="translate(0 188.241)" fill="none"/>
      <path id="Trazado_102937" data-name="Trazado 102937" d="M328.386,3234.683s33.686,6.62,42.063,5.829,18.391-6.133,22.257-4.368,9.192,11.414,10.052,12.852-4.352,4.277-7.267,4.132a14.44,14.44,0,0,1-5.1-1.628s-2.64,5.707-17.029,1.194c0,0-45.655,8.583-57.2-.761-7.214-5.836-5.121-11.2.266-14.343" transform="translate(-240.873 -3053.952)" fill="#ffbea7"/>
      <path id="Trazado_102938" data-name="Trazado 102938" d="M415.109,3253.735s-1.362-2.785,3.044-4.025c0,0,1.773-3.683,1.217-5.677" transform="translate(-265.588 -3056.187)" fill="none"/>
      <path id="Trazado_102939" data-name="Trazado 102939" d="M419.181,3251.493s1.94,2.382,4.375,1.849" transform="translate(-266.61 -3057.971)" fill="none"/>
      <path id="Trazado_102940" data-name="Trazado 102940" d="M392.791,3256.964s.974-1.195,0-4.421" transform="translate(-260.3 -3058.222)" fill="none"/>
      <g id="Grupo_49880" data-name="Grupo 49880" transform="translate(94.506 57.029)" opacity="0.2">
        <path id="Trazado_102941" data-name="Trazado 102941" d="M374.5,3072.113a26.969,26.969,0,0,1-7.335,12.852" transform="translate(-348.678 -3072.113)" fill="none"/>
        <path id="Trazado_102942" data-name="Trazado 102942" d="M380.4,3072.113s.251,6.4-1.781,11.132" transform="translate(-351.418 -3072.113)" fill="none"/>
        <path id="Trazado_102943" data-name="Trazado 102943" d="M365.865,3073.793c-2.115,4.124-10.653,7.5-12.684,14.906" transform="translate(-345.336 -3072.515)" fill="none"/>
        <path id="Trazado_102944" data-name="Trazado 102944" d="M353.356,3076.713c-1.058.632-9.976,6.308-10.485,13.94" transform="translate(-342.871 -3073.213)" fill="none"/>
      </g>
      <path id="Trazado_102945" data-name="Trazado 102945" d="M416.771,3183.593s-4.1,28.625-25.97,40.679" transform="translate(-259.824 -3041.737)" fill="none"/>
      <path id="Trazado_102946" data-name="Trazado 102946" d="M446.271,3109.782c1.9,1.027,8.553-2.77,8.553-2.77" transform="translate(-273.086 -3023.428)" fill="none"/>
      <path id="Trazado_102947" data-name="Trazado 102947" d="M442.019,3265.3l-6.978-11.414s25.285-2.13,30.079-4.048,14.625,2.328,14.625,2.328a19.436,19.436,0,0,1,13.879-3.949c12.471,1.621,25.643,1.651,27.294,1.788l14.9,9.481s-35,1.423-43.783,5.228l-6.049.951S460.418,3264.548,442.019,3265.3Z" transform="translate(-270.401 -3057.154)" fill="#69f"/>
      <path id="Trazado_102948" data-name="Trazado 102948" d="M437.481,3250.869l6.338,10.615s33.785-2.222,42.824.951l3.272-.951s13.643-5.638,38.807-5.045l-12.266-10.5s-24.266-12.7-36.319.312c0,0-2.4-2.724-13.955-4.436S437.481,3250.869,437.481,3250.869Z" transform="translate(-270.985 -3055.315)" fill="#d8d8d8" stroke="#fff" stroke-miterlimit="10" stroke-width="1"/>
      <path id="Trazado_102949" data-name="Trazado 102949" d="M493.581,3248.093l7.457,11.414s5.867-5.052,17.44-6.239a39.335,39.335,0,0,1,20.621,3.645" transform="translate(-284.397 -3057.158)" fill="none" stroke="#12263f" stroke-miterlimit="10" stroke-width="1"/>
      <path id="Trazado_102950" data-name="Trazado 102950" d="M490.514,3261.5s-5.395-3.143-16.664-4.786-24.288,6.559-24.288,6.559" transform="translate(-273.873 -3059.167)" fill="#fff" stroke="#12263f" stroke-miterlimit="10" stroke-width="1"/>
      <path id="Trazado_102951" data-name="Trazado 102951" d="M459.191,3262.689a48,48,0,0,1,18.559-2.442c9.671.844,15.066,3.249,15.066,3.249s18.376-8.591,32.339-4.23" transform="translate(-276.175 -3059.534)" fill="none" stroke="#12263f" stroke-miterlimit="10" stroke-width="1"/>
      <path id="Trazado_102952" data-name="Trazado 102952" d="M498.851,3265.98a4.177,4.177,0,0,1,3.447-1.628c2.374,0,2.321,1.628,2.321,1.628" transform="translate(-285.657 -3061.045)" fill="#fff"/>
      <g id="Grupo_49881" data-name="Grupo 49881" transform="translate(119.64 111.728)">
        <path id="Trazado_102953" data-name="Trazado 102953" d="M375.905,3144.49l13.029-.491a6.513,6.513,0,0,1-6.245,6.771c-.207.008-.413.007-.62,0a6.111,6.111,0,0,1-6.166-6.054C375.9,3144.637,375.9,3144.564,375.905,3144.49Z" transform="translate(-375.903 -3143.999)" fill="#9e6767"/>
        <path id="Trazado_102954" data-name="Trazado 102954" d="M385.684,3150.424a6.824,6.824,0,0,0-8.547-3.3,3.9,3.9,0,0,0-.562.284,5.727,5.727,0,0,0,5.625,3.908A7.137,7.137,0,0,0,385.684,3150.424Z" transform="translate(-376.064 -3144.637)" fill="#f28f8f"/>
      </g>
      <path id="Trazado_102955" data-name="Trazado 102955" d="M377.775,3117.3l.832,14.668,8.05-2.415Z" transform="translate(-256.71 -3025.889)" fill="#f0997a"/>
    </g>
  </g>
</svg>
