<svg xmlns="http://www.w3.org/2000/svg" width="380" height="254.461" viewBox="0 0 380 254.461">
  <g id="Grupo_52886" data-name="Grupo 52886" transform="translate(-26.183 -5467.768)">
    <g id="freepik--background-complete--inject-44" transform="translate(26.183 5488.402)">
      <path id="Trazado_114317" data-name="Trazado 114317" d="M196.839,5807.659c-.629,1.2-1.143,2.706-.467,3.862a3.08,3.08,0,0,0,3.321,1.19,8.971,8.971,0,0,0,3.28-1.792,11.37,11.37,0,0,0-3.057,7.664c0,.94.257,2.076,1.15,2.374a2.446,2.446,0,0,0,1.887-.433,28.908,28.908,0,0,0,6.257-4.775,8.216,8.216,0,0,0,.561,3.781,2.815,2.815,0,0,0,3.145,1.637,3.838,3.838,0,0,0,1.637-1.305,28.01,28.01,0,0,0,5.891-12.1,11.741,11.741,0,0,0-.284-7.1c-.96-2.205-2.706-4.687-5.066-4.282h.676A21.644,21.644,0,0,0,196.839,5807.659Z" transform="translate(-81.156 -5594.733)" fill="#12263f"/>
      <path id="Trazado_114318" data-name="Trazado 114318" d="M223.322,5796.955c.054.041-.71.947-1.786,2.516a36.235,36.235,0,0,0-3.551,6.521,33.592,33.592,0,0,0-2.029,7.123c-.318,1.88-.386,3.063-.453,3.057a3.359,3.359,0,0,1,0-.832,20.146,20.146,0,0,1,.169-2.238,29.323,29.323,0,0,1,1.968-7.231,30.736,30.736,0,0,1,3.686-6.527c.568-.771,1.062-1.353,1.42-1.772A3.371,3.371,0,0,1,223.322,5796.955Z" transform="translate(-87.441 -5594.932)" fill="#69f"/>
      <path id="Trazado_114319" data-name="Trazado 114319" d="M215.067,5808.982a6.8,6.8,0,0,1-1.238,1.123c-.8.677-1.941,1.5-3.247,2.381s-2.53,1.609-3.429,2.11a7.148,7.148,0,0,1-1.508.724c-.054-.1,2.124-1.414,4.735-3.159S215,5808.875,215.067,5808.982Z" transform="translate(-84.259 -5598.823)" fill="#69f"/>
      <path id="Trazado_114320" data-name="Trazado 114320" d="M106.121,5650.837a2.44,2.44,0,0,0-2.286,0,1.814,1.814,0,0,0-.46,2.029,5.33,5.33,0,0,0,1.272,1.786,6.636,6.636,0,0,0-4.674-1.259c-.548.062-1.19.3-1.3.839a1.439,1.439,0,0,0,.386,1.062,16.946,16.946,0,0,0,3.213,3.308,4.805,4.805,0,0,0-2.158.588,1.651,1.651,0,0,0-.7,1.935,2.142,2.142,0,0,0,.873.859,16.3,16.3,0,0,0,7.44,2.583,6.9,6.9,0,0,0,4.112-.676c1.217-.71,2.536-1.894,2.137-3.247l.047.393A12.673,12.673,0,0,0,106.121,5650.837Z" transform="translate(-49.642 -5547.552)" fill="#12263f"/>
      <path id="Trazado_114321" data-name="Trazado 114321" d="M115.524,5665.638c0,.033-.6-.345-1.589-.866a21.426,21.426,0,0,0-4.058-1.609,19.372,19.372,0,0,0-4.3-.677c-1.109-.054-1.806,0-1.806-.054a2.574,2.574,0,0,1,.48-.068,12.263,12.263,0,0,1,1.353-.04,17.29,17.29,0,0,1,4.349.643,18.529,18.529,0,0,1,4.058,1.684c.487.284.873.528,1.13.676A2.182,2.182,0,0,1,115.524,5665.638Z" transform="translate(-51.293 -5551.362)" fill="#69f"/>
      <path id="Trazado_114322" data-name="Trazado 114322" d="M111.537,5661.293a4.192,4.192,0,0,1-.737-.643c-.433-.426-1.008-1.028-1.61-1.725s-1.116-1.353-1.468-1.847a4.63,4.63,0,0,1-.528-.825c.054-.041.967,1.136,2.171,2.523S111.585,5661.246,111.537,5661.293Z" transform="translate(-52.4 -5549.399)" fill="#69f"/>
      <path id="Trazado_114323" data-name="Trazado 114323" d="M450.826,5806.435c.588,1.306,1.028,2.915.243,4.106a3.137,3.137,0,0,1-3.571,1.042,9.529,9.529,0,0,1-3.348-2.1,12.015,12.015,0,0,1,2.753,8.272c-.061.994-.406,2.178-1.353,2.428a2.569,2.569,0,0,1-1.961-.575,30.384,30.384,0,0,1-6.29-5.411,8.644,8.644,0,0,1-.832,3.957,2.949,2.949,0,0,1-3.422,1.515,3.969,3.969,0,0,1-1.637-1.481A29.493,29.493,0,0,1,426,5805.062a12.376,12.376,0,0,1,.758-7.44c1.15-2.239,3.138-4.769,5.614-4.187l-.71-.047A22.834,22.834,0,0,1,450.826,5806.435Z" transform="translate(-155.495 -5593.766)" fill="#12263f"/>
      <path id="Trazado_114324" data-name="Trazado 114324" d="M432.364,5793.823c-.054.041.676,1.048,1.725,2.773a38,38,0,0,1,3.328,7.1,35.735,35.735,0,0,1,1.711,7.643c.216,2.029.21,3.253.277,3.253a3.23,3.23,0,0,0,.074-.879,22.432,22.432,0,0,0-.061-2.394,31.076,31.076,0,0,0-1.617-7.758,33.2,33.2,0,0,0-3.463-7.116c-.555-.845-1.035-1.515-1.393-1.955S432.391,5793.775,432.364,5793.823Z" transform="translate(-157.628 -5593.917)" fill="#69f"/>
      <path id="Trazado_114325" data-name="Trazado 114325" d="M439.505,5806.954a7.45,7.45,0,0,0,1.238,1.265c.8.73,1.948,1.7,3.267,2.705s2.563,1.86,3.477,2.448a7.145,7.145,0,0,0,1.542.859c.068-.1-2.144-1.624-4.768-3.632S439.586,5806.866,439.505,5806.954Z" transform="translate(-159.94 -5598.167)" fill="#69f"/>
      <path id="Trazado_114326" data-name="Trazado 114326" d="M530.044,5637.872a2.419,2.419,0,0,1,2.273-.156,1.784,1.784,0,0,1,.6,1.975,5.294,5.294,0,0,1-1.143,1.867,6.688,6.688,0,0,1,4.579-1.569c.548,0,1.2.21,1.353.744a1.419,1.419,0,0,1-.311,1.089,16.67,16.67,0,0,1-2.983,3.518,4.847,4.847,0,0,1,2.2.446,1.643,1.643,0,0,1,.859,1.887,2.255,2.255,0,0,1-.812.92,16.335,16.335,0,0,1-7.258,3.084,6.926,6.926,0,0,1-4.146-.379c-1.265-.629-2.658-1.718-2.354-3.1v.4A12.675,12.675,0,0,1,530.044,5637.872Z" transform="translate(-186.913 -5543.326)" fill="#12263f"/>
      <path id="Trazado_114327" data-name="Trazado 114327" d="M523.155,5653.116s.575-.385,1.529-.974a21.554,21.554,0,0,1,3.916-1.88,19.742,19.742,0,0,1,4.234-.987c1.11-.129,1.807-.136,1.8-.176a2.088,2.088,0,0,0-.488,0,10.98,10.98,0,0,0-1.353.047,17.309,17.309,0,0,0-4.3.934,18.524,18.524,0,0,0-3.93,1.961,12.235,12.235,0,0,0-1.075.785C523.27,5652.967,523.141,5653.1,523.155,5653.116Z" transform="translate(-187.01 -5547.079)" fill="#69f"/>
      <path id="Trazado_114328" data-name="Trazado 114328" d="M530.424,5648.475a4.052,4.052,0,0,0,.676-.677c.406-.453.94-1.089,1.488-1.826s1.021-1.434,1.353-1.948a3.724,3.724,0,0,0,.467-.859c-.054-.034-.886,1.2-1.989,2.665S530.37,5648.434,530.424,5648.475Z" transform="translate(-189.362 -5545.163)" fill="#69f"/>
      <path id="Trazado_114329" data-name="Trazado 114329" d="M169.549,5542.115a6.763,6.763,0,0,0-2.706-3.038,6.533,6.533,0,0,0-3.822-1.055,5.33,5.33,0,0,0-3.673,1.895,5.213,5.213,0,0,0-1.075,2.279,5.257,5.257,0,0,0-1.962-1.184,5.325,5.325,0,0,0-4.146.365,6.487,6.487,0,0,0-2.665,2.936,6.718,6.718,0,0,0-.676,4,8.178,8.178,0,0,0,2.388,4.559,11.515,11.515,0,0,0,4.877,2.482c2.949.785,6.8,1.718,6.8,1.718s2.185-2.895,4.254-5.133a11.631,11.631,0,0,0,2.8-4.735A8.184,8.184,0,0,0,169.549,5542.115Z" transform="translate(-65.851 -5511.136)" fill="#e36099"/>
      <path id="Trazado_114330" data-name="Trazado 114330" d="M485.482,5543.706a6.678,6.678,0,0,0-.724-3.978,6.441,6.441,0,0,0-2.706-2.881,5.226,5.226,0,0,0-6.257,1.109,5.209,5.209,0,0,0-4.8-3.862,6.474,6.474,0,0,0-3.795,1.136,6.715,6.715,0,0,0-2.618,3.084,8.232,8.232,0,0,0-.325,5.141,11.581,11.581,0,0,0,2.895,4.647c2.117,2.2,4.924,4.991,4.924,4.991s3.382-1.353,6.3-2.191a11.632,11.632,0,0,0,4.829-2.583A8.186,8.186,0,0,0,485.482,5543.706Z" transform="translate(-167.864 -5509.866)" fill="#69f"/>
      <path id="Trazado_114331" data-name="Trazado 114331" d="M41.478,5668.047a4.736,4.736,0,0,0-.812-2.706,4.571,4.571,0,0,0-2.137-1.813,3.694,3.694,0,0,0-4.282,1.259,3.686,3.686,0,0,0-3.673-2.334A4.54,4.54,0,0,0,28,5663.542a4.735,4.735,0,0,0-1.6,2.367,5.8,5.8,0,0,0,.176,3.633,8.245,8.245,0,0,0,2.388,3.043c1.657,1.353,3.849,3.118,3.849,3.118s2.259-1.2,4.248-2.029a8.185,8.185,0,0,0,3.193-2.185A5.755,5.755,0,0,0,41.478,5668.047Z" transform="translate(-26.183 -5551.403)" fill="#69f"/>
      <path id="Trazado_114332" data-name="Trazado 114332" d="M546.818,5794.317a4.788,4.788,0,0,0-1.19-2.6,4.59,4.59,0,0,0-2.361-1.5,3.8,3.8,0,0,0-2.895.527,3.748,3.748,0,0,0-1.2,1.353,3.612,3.612,0,0,0-1.082-1.2,3.741,3.741,0,0,0-2.875-.6,4.587,4.587,0,0,0-2.408,1.434,4.781,4.781,0,0,0-1.251,2.57,5.8,5.8,0,0,0,.676,3.571,8.193,8.193,0,0,0,2.787,2.705c1.833,1.137,4.241,2.564,4.241,2.564s2.077-1.508,3.937-2.6a8.121,8.121,0,0,0,2.854-2.6A5.774,5.774,0,0,0,546.818,5794.317Z" transform="translate(-189.714 -5592.724)" fill="#e36099"/>
      <path id="Trazado_114333" data-name="Trazado 114333" d="M286.16,5821.979a4.783,4.783,0,0,0-1.19-2.6,4.591,4.591,0,0,0-2.361-1.5,3.735,3.735,0,0,0-2.895.528,3.676,3.676,0,0,0-1.2,1.319,3.682,3.682,0,0,0-1.082-1.2,3.77,3.77,0,0,0-2.875-.608,4.557,4.557,0,0,0-2.408,1.44,4.74,4.74,0,0,0-1.251,2.563,5.787,5.787,0,0,0,.676,3.571,8.12,8.12,0,0,0,2.787,2.706c1.833,1.136,4.241,2.563,4.241,2.563s2.077-1.508,3.93-2.6a8.205,8.205,0,0,0,2.861-2.6A5.778,5.778,0,0,0,286.16,5821.979Z" transform="translate(-105.361 -5601.673)" fill="#e36099"/>
      <path id="Trazado_114334" data-name="Trazado 114334" d="M580.687,5723.359a4.8,4.8,0,0,0-.731-2.759,4.564,4.564,0,0,0-2.083-1.88,3.746,3.746,0,0,0-2.936,0,3.648,3.648,0,0,0-1.387,1.163,3.789,3.789,0,0,0-.866-1.353,3.746,3.746,0,0,0-2.706-1.076,4.513,4.513,0,0,0-2.611,1.008,4.735,4.735,0,0,0-1.677,2.32,5.8,5.8,0,0,0,.061,3.632,8.331,8.331,0,0,0,2.293,3.118c1.617,1.427,3.747,3.233,3.747,3.233s2.3-1.136,4.315-1.887a8.205,8.205,0,0,0,3.226-2.145A5.8,5.8,0,0,0,580.687,5723.359Z" transform="translate(-200.691 -5569.204)" fill="#12263f"/>
      <path id="Trazado_114335" data-name="Trazado 114335" d="M79.565,5593.082a4.859,4.859,0,0,0-2.029-2,4.621,4.621,0,0,0-2.753-.534,3.76,3.76,0,0,0-2.5,1.542,3.658,3.658,0,0,0-.636,1.657,3.681,3.681,0,0,0-4.369-.264,4.631,4.631,0,0,0-1.718,2.205,4.794,4.794,0,0,0-.237,2.848,5.816,5.816,0,0,0,1.921,3.091,8.314,8.314,0,0,0,3.571,1.488c2.117.393,4.883.846,4.883.846s1.353-2.158,2.706-3.849a8.173,8.173,0,0,0,1.711-3.463A5.81,5.81,0,0,0,79.565,5593.082Z" transform="translate(-38.811 -5528.127)" fill="#12263f"/>
      <path id="Trazado_114336" data-name="Trazado 114336" d="M573.767,5617.407l.8,1.353a9.063,9.063,0,0,0,3.761,3.422l1.353.676-1.319.8a9.068,9.068,0,0,0-3.416,3.774l-.676,1.353-.8-1.353a9.08,9.08,0,0,0-3.781-3.382l-1.387-.676,1.353-.8a9.068,9.068,0,0,0,3.456-3.754Z" transform="translate(-201.621 -5536.828)" fill="#69f"/>
      <path id="Trazado_114337" data-name="Trazado 114337" d="M441.294,5618.645l.8,1.353a9.066,9.066,0,0,0,3.747,3.457l1.387.676-1.353.8a9.081,9.081,0,0,0-3.45,3.747l-.676,1.387-.791-1.353a9.1,9.1,0,0,0-3.754-3.45l-1.387-.676,1.353-.792a9.1,9.1,0,0,0,3.456-3.753Z" transform="translate(-158.746 -5537.229)" fill="#69f"/>
      <path id="Trazado_114338" data-name="Trazado 114338" d="M115.79,5544.275l.8,1.353a9.06,9.06,0,0,0,3.754,3.449l1.353.677-1.353.791a9.114,9.114,0,0,0-3.456,3.754l-.676,1.387-.8-1.353a9.062,9.062,0,0,0-3.754-3.457l-1.353-.676,1.353-.8a9.053,9.053,0,0,0,3.456-3.747Z" transform="translate(-53.406 -5513.161)" fill="#69f"/>
      <path id="Trazado_114339" data-name="Trazado 114339" d="M362.97,5827.135l.791,1.319a9.114,9.114,0,0,0,3.754,3.456l1.387.676-1.353.8a9.075,9.075,0,0,0-3.456,3.754l-.676,1.387-.8-1.353a9.048,9.048,0,0,0-3.747-3.457l-1.387-.676,1.353-.8a9.056,9.056,0,0,0,3.45-3.754Z" transform="translate(-133.397 -5604.699)" fill="#69f"/>
      <path id="Trazado_114340" data-name="Trazado 114340" d="M334.756,5825.365l.379.629a4.291,4.291,0,0,0,1.779,1.637l.676.325-.629.379a4.324,4.324,0,0,0-1.637,1.779l-.325.676-.379-.629a4.316,4.316,0,0,0-1.779-1.637l-.676-.325.629-.379a4.318,4.318,0,0,0,1.637-1.779Z" transform="translate(-125.203 -5604.126)" fill="#69f"/>
      <path id="Trazado_114341" data-name="Trazado 114341" d="M400.576,5809.825l.379.629a4.284,4.284,0,0,0,1.779,1.637l.676.325-.629.379a4.324,4.324,0,0,0-1.637,1.779l-.325.677-.379-.629a4.316,4.316,0,0,0-1.779-1.637l-.676-.325.629-.379a4.279,4.279,0,0,0,1.637-1.778Z" transform="translate(-146.504 -5599.097)" fill="#69f"/>
      <path id="Trazado_114342" data-name="Trazado 114342" d="M50.446,5702.907l.379.629a4.3,4.3,0,0,0,1.779,1.644l.676.325-.629.372a4.316,4.316,0,0,0-1.657,1.766l-.325.676-.379-.629a4.2,4.2,0,0,0-1.779-1.637l-.676-.332.629-.372a4.319,4.319,0,0,0,1.657-1.766Z" transform="translate(-33.19 -5564.497)" fill="#69f"/>
      <path id="Trazado_114343" data-name="Trazado 114343" d="M74.868,5769.73l.379.629A4.288,4.288,0,0,0,77.026,5772l.676.325-.629.378a4.325,4.325,0,0,0-1.657,1.766l-.325.676-.379-.629a4.316,4.316,0,0,0-1.779-1.637l-.676-.325.622-.379a4.292,4.292,0,0,0,1.684-1.765Z" transform="translate(-41.093 -5586.122)" fill="#69f"/>
      <path id="Trazado_114344" data-name="Trazado 114344" d="M549.664,5534.816l.379.629a4.331,4.331,0,0,0,1.786,1.637l.676.324-.629.379a4.289,4.289,0,0,0-1.637,1.779l-.325.676-.379-.629a4.316,4.316,0,0,0-1.779-1.637l-.676-.325.629-.379a4.321,4.321,0,0,0,1.637-1.779Z" transform="translate(-194.753 -5510.1)" fill="#69f"/>
      <path id="Trazado_114345" data-name="Trazado 114345" d="M532.082,5565.265l.372.628a4.323,4.323,0,0,0,1.779,1.638l.676.324-.629.379a4.194,4.194,0,0,0-1.637,1.779l-.331.676-.372-.629a4.316,4.316,0,0,0-1.779-1.637l-.676-.325.629-.379a4.294,4.294,0,0,0,1.644-1.779Z" transform="translate(-189.059 -5519.954)" fill="#69f"/>
      <path id="Trazado_114346" data-name="Trazado 114346" d="M492.236,5498.275l.379.629a4.256,4.256,0,0,0,1.779,1.637l.676.324-.629.379a4.325,4.325,0,0,0-1.637,1.779l-.325.676-.379-.622a4.3,4.3,0,0,0-1.779-1.644l-.676-.325.629-.372a4.322,4.322,0,0,0,1.637-1.779Z" transform="translate(-176.166 -5498.275)" fill="#69f"/>
    </g>
    <g id="freepik--Plants--inject-44" transform="translate(80.689 5549.691)">
      <path id="Trazado_114347" data-name="Trazado 114347" d="M189.931,5758.4A23.283,23.283,0,0,0,191,5772.688c3.308-3.2,6.94-8.414,7.853-12.926a22.264,22.264,0,0,0-1.251-13.3A22.892,22.892,0,0,0,189.931,5758.4Z" transform="translate(-133.468 -5639.882)" fill="#e36099"/>
      <path id="Trazado_114348" data-name="Trazado 114348" d="M193.916,5765.657a4.115,4.115,0,0,1,0-.785c.041-.5.122-1.23.243-2.124a56.345,56.345,0,0,1,3.707-13.616c.345-.839.643-1.508.866-1.961a5.382,5.382,0,0,1,.358-.676,3.687,3.687,0,0,1-.264.737c-.2.467-.467,1.143-.785,1.988a68.362,68.362,0,0,0-2.185,6.689c-.717,2.651-1.2,5.093-1.488,6.872-.142.893-.257,1.61-.325,2.11A5.535,5.535,0,0,1,193.916,5765.657Z" transform="translate(-134.964 -5639.892)" fill="#263238"/>
      <path id="Trazado_114349" data-name="Trazado 114349" d="M159.7,5766.343a23.33,23.33,0,0,0,1.075,14.285c3.308-3.2,6.94-8.414,7.853-12.926a23.136,23.136,0,0,0-1.353-13.528A23.325,23.325,0,0,0,159.7,5766.343Z" transform="translate(-123.687 -5642.376)" fill="#e36099"/>
      <path id="Trazado_114350" data-name="Trazado 114350" d="M163.695,5773.664a5.846,5.846,0,0,1,.041-.785c.041-.5.122-1.231.243-2.124a56.531,56.531,0,0,1,3.68-13.609c.345-.832.643-1.5.866-1.955a5.349,5.349,0,0,1,.358-.676,4.09,4.09,0,0,1-.271.737c-.189.467-.46,1.144-.778,1.989q-1.262,3.285-2.191,6.683c-.676,2.659-1.19,5.1-1.481,6.879-.149.886-.257,1.609-.325,2.11A4.182,4.182,0,0,1,163.695,5773.664Z" transform="translate(-125.19 -5642.487)" fill="#263238"/>
      <path id="Trazado_114351" data-name="Trazado 114351" d="M136.7,5747.164a23.383,23.383,0,0,1-8.5-11.5c4.6.271,10.755,1.86,14.387,4.681a23.1,23.1,0,0,1,7.778,11.16A23.379,23.379,0,0,1,136.7,5747.164Z" transform="translate(-113.702 -5636.387)" fill="#e36099"/>
      <path id="Trazado_114352" data-name="Trazado 114352" d="M136.6,5742.155a5.169,5.169,0,0,0,.541.568c.358.358.893.859,1.569,1.454a56.328,56.328,0,0,0,5.587,4.329,57.815,57.815,0,0,0,6.087,3.592c.812.406,1.468.717,1.934.92a4.05,4.05,0,0,0,.73.291,4.944,4.944,0,0,0-.676-.379c-.446-.229-1.1-.568-1.887-1a68.976,68.976,0,0,1-6.013-3.646,69.967,69.967,0,0,1-5.614-4.241c-.676-.582-1.238-1.055-1.617-1.394A4.359,4.359,0,0,0,136.6,5742.155Z" transform="translate(-116.42 -5638.487)" fill="#263238"/>
      <path id="Trazado_114353" data-name="Trazado 114353" d="M165.7,5737.1a23.29,23.29,0,0,1-8.5-11.5c4.6.264,10.755,1.854,14.387,4.681a23.114,23.114,0,0,1,7.778,11.153A23.281,23.281,0,0,1,165.7,5737.1Z" transform="translate(-123.086 -5633.131)" fill="#e36099"/>
      <path id="Trazado_114354" data-name="Trazado 114354" d="M165.6,5732.1a5.166,5.166,0,0,0,.541.568c.358.359.893.853,1.569,1.455a56.838,56.838,0,0,0,11.661,7.934c.812.413,1.468.724,1.934.926a4.707,4.707,0,0,0,.73.291,3.825,3.825,0,0,0-.676-.385c-.446-.23-1.1-.568-1.887-.995-1.583-.852-3.74-2.1-6.02-3.646a69,69,0,0,1-5.607-4.247c-.676-.575-1.245-1.056-1.623-1.387A4.124,4.124,0,0,0,165.6,5732.1Z" transform="translate(-125.808 -5635.234)" fill="#263238"/>
      <path id="Trazado_114355" data-name="Trazado 114355" d="M196.812,5746.146a3.785,3.785,0,0,1-.6,0l-1.7-.048-1.231-.047H191.82c-1.048,0-2.239,0-3.558.074l-2.07.1c-.724.04-1.468.128-2.239.2-1.549.115-3.186.373-4.917.609a81.8,81.8,0,0,0-21.671,6.514c-1.569.751-3.078,1.447-4.43,2.205-.676.372-1.353.676-1.975,1.068l-1.786,1.056c-1.15.676-2.131,1.353-3.01,1.9-.44.291-.852.548-1.224.8l-1,.716-1.414.995a3.412,3.412,0,0,1-.5.325,3.648,3.648,0,0,1,.46-.379l1.353-1.035.988-.744c.365-.264.771-.528,1.2-.825.879-.582,1.853-1.285,3-1.948l1.779-1.083c.615-.372,1.285-.71,1.968-1.089,1.353-.771,2.861-1.475,4.437-2.246a80.193,80.193,0,0,1,21.759-6.541c1.738-.229,3.382-.473,4.938-.574.778-.062,1.529-.143,2.246-.176l2.077-.082c1.353-.074,2.523,0,3.578,0h1.461l1.231.082,1.7.115A4.488,4.488,0,0,1,196.812,5746.146Z" transform="translate(-118.177 -5639.684)" fill="#263238"/>
      <path id="Trazado_114356" data-name="Trazado 114356" d="M126.266,5769.2a23.315,23.315,0,0,0-8.191,11.762c4.586-.392,10.7-2.151,14.258-5.073a23.129,23.129,0,0,0,7.44-11.356A23.273,23.273,0,0,0,126.266,5769.2Z" transform="translate(-110.427 -5645.729)" fill="#e36099"/>
      <path id="Trazado_114357" data-name="Trazado 114357" d="M126.285,5776.5a5.477,5.477,0,0,1,.528-.582c.345-.365.873-.879,1.529-1.495a56.9,56.9,0,0,1,11.444-8.218c.8-.426,1.447-.757,1.907-.974a4.77,4.77,0,0,1,.717-.311,3.539,3.539,0,0,1-.676.406c-.446.237-1.082.6-1.86,1.042a70.375,70.375,0,0,0-5.918,3.808,69.083,69.083,0,0,0-5.492,4.4c-.676.6-1.217,1.089-1.583,1.434A4.193,4.193,0,0,1,126.285,5776.5Z" transform="translate(-113.084 -5645.855)" fill="#263238"/>
      <path id="Trazado_114358" data-name="Trazado 114358" d="M148.4,5672.3a26.618,26.618,0,0,0-16.233,2.395c3.923,3.517,10.18,7.23,15.4,7.9a26.462,26.462,0,0,0,15.327-2.706A26.633,26.633,0,0,0,148.4,5672.3Z" transform="translate(-114.986 -5615.76)" fill="#e36099"/>
      <path id="Trazado_114359" data-name="Trazado 114359" d="M144.265,5677.545a4.773,4.773,0,0,1,.9,0c.582,0,1.414.041,2.449.108a64.122,64.122,0,0,1,8.008,1.042,65.756,65.756,0,0,1,7.819,2.029c.988.325,1.772.609,2.306.825a4.643,4.643,0,0,1,.825.358,5.607,5.607,0,0,1-.859-.25c-.548-.176-1.353-.433-2.334-.73a78.3,78.3,0,0,0-15.787-3.071c-1.021-.095-1.86-.163-2.435-.2A5.193,5.193,0,0,1,144.265,5677.545Z" transform="translate(-118.902 -5617.571)" fill="#263238"/>
      <path id="Trazado_114360" data-name="Trazado 114360" d="M170.3,5707.413a23.341,23.341,0,0,0-13.108,5.77c4.119,2.029,10.247,3.74,14.806,3.1a23.068,23.068,0,0,0,12.3-5.8A23.319,23.319,0,0,0,170.3,5707.413Z" transform="translate(-123.086 -5627.208)" fill="#e36099"/>
      <path id="Trazado_114361" data-name="Trazado 114361" d="M167.765,5713.618a5.139,5.139,0,0,1,.751-.224c.487-.128,1.2-.3,2.09-.48a56.921,56.921,0,0,1,14.049-1.062c.906.048,1.637.108,2.137.162a4.478,4.478,0,0,1,.778.108,4.387,4.387,0,0,1-.785,0c-.507,0-1.231-.054-2.137-.074a69.432,69.432,0,0,0-7.034.162c-2.706.21-5.2.575-6.974.893-.886.163-1.6.3-2.1.4A4.265,4.265,0,0,1,167.765,5713.618Z" transform="translate(-126.507 -5628.659)" fill="#263238"/>
      <path id="Trazado_114362" data-name="Trazado 114362" d="M183.673,5672.924a23.311,23.311,0,0,1,6.2-12.919c1.914,4.187,3.382,10.369,2.6,14.88a23.069,23.069,0,0,1-6.2,12.1A23.314,23.314,0,0,1,183.673,5672.924Z" transform="translate(-131.593 -5611.902)" fill="#e36099"/>
      <path id="Trazado_114363" data-name="Trazado 114363" d="M189.981,5670.485a5.409,5.409,0,0,0-.25.744c-.142.48-.331,1.19-.548,2.07a57.206,57.206,0,0,0-1.2,6.953,55.98,55.98,0,0,0-.325,7.055c0,.906.047,1.637.088,2.137a4.433,4.433,0,0,0,.088.785,5.422,5.422,0,0,0,0-.785v-2.137a68.773,68.773,0,0,1,.4-7.021,67.506,67.506,0,0,1,1.123-6.946c.189-.879.352-1.6.467-2.083A3.9,3.9,0,0,0,189.981,5670.485Z" transform="translate(-132.943 -5615.293)" fill="#263238"/>
      <path id="Trazado_114364" data-name="Trazado 114364" d="M171.03,5646.224a22.744,22.744,0,0,1,9.124-10.619c.744,4.43.575,10.64-1.353,14.718a22.554,22.554,0,0,1-8.881,9.848A22.765,22.765,0,0,1,171.03,5646.224Z" transform="translate(-127.006 -5604.006)" fill="#e36099"/>
      <path id="Trazado_114365" data-name="Trazado 114365" d="M177.583,5645.025a4.509,4.509,0,0,0-.426.636c-.257.419-.616,1.042-1.035,1.813a54.2,54.2,0,0,0-2.9,6.263,55.356,55.356,0,0,0-2.09,6.575c-.21.859-.365,1.556-.453,2.029a3.968,3.968,0,0,0-.122.757,3.966,3.966,0,0,0,.216-.738c.122-.48.3-1.17.534-2.029a68.219,68.219,0,0,1,2.158-6.527c.974-2.5,2.029-4.735,2.814-6.271.4-.784.737-1.413.967-1.847A3.7,3.7,0,0,0,177.583,5645.025Z" transform="translate(-127.41 -5607.054)" fill="#263238"/>
      <path id="Trazado_114366" data-name="Trazado 114366" d="M211.514,5716.7a.849.849,0,0,1-.183-.122l-.528-.385-2-1.515-1.441-1.1-1.664-1.353c-1.184-.994-2.564-2.09-4-3.382q-1.1-1.014-2.279-2.029c-.791-.676-1.569-1.495-2.4-2.286-1.677-1.555-3.382-3.341-5.147-5.181a160.325,160.325,0,0,1-10.768-12.817,149.949,149.949,0,0,1-9.179-14c-1.231-2.259-2.449-4.383-3.423-6.459-.5-1.028-1.008-2.029-1.454-2.969s-.839-1.907-1.238-2.8c-.812-1.765-1.414-3.422-1.975-4.863l-.771-2.029q-.31-.948-.568-1.725c-.331-1.015-.6-1.813-.778-2.381-.081-.257-.149-.46-.2-.622a1.009,1.009,0,0,1-.054-.209.886.886,0,0,1,.088.2l.23.609c.2.561.48,1.353.839,2.361.176.514.379,1.082.6,1.7s.514,1.285.8,2.029c.582,1.427,1.19,3.077,2.029,4.83l1.245,2.706c.453.96.967,1.941,1.468,2.962.988,2.063,2.212,4.173,3.45,6.426a154.047,154.047,0,0,0,9.179,13.954,164.947,164.947,0,0,0,10.714,12.831c1.786,1.847,3.45,3.632,5.113,5.194.825.792,1.6,1.576,2.381,2.293l2.259,2.029c1.42,1.353,2.787,2.436,3.964,3.437l1.644,1.353,1.414,1.129,1.962,1.563.5.413A2.1,2.1,0,0,1,211.514,5716.7Z" transform="translate(-124.472 -5608.171)" fill="#263238"/>
      <path id="Trazado_114367" data-name="Trazado 114367" d="M155.493,5599.875c-.92-1.881-2.313-3.869-4.4-4.093-1.921-.209-3.707,1.279-4.484,3.051a13.791,13.791,0,0,0-.758,5.716,17.487,17.487,0,0,0-6.764-10.822c-1.17-.866-2.821-1.569-4-.724a3.766,3.766,0,0,0-1.17,2.739,44.487,44.487,0,0,0,.264,12.134,12.61,12.61,0,0,0-5.222-2.746c-1.962-.332-4.275.547-4.89,2.435a5.9,5.9,0,0,0,.142,3.226,43.022,43.022,0,0,0,9.747,18.357c2.476,2.76,5.479,5.276,9.1,6.088s8.286.9,9.929-2.422l-.6.846A33.35,33.35,0,0,0,155.493,5599.875Z" transform="translate(-112.315 -5590.096)" fill="#36c"/>
      <path id="Trazado_114368" data-name="Trazado 114368" d="M155.533,5642.162a1.808,1.808,0,0,1-.108-.317l-.264-.906c-.1-.4-.237-.886-.419-1.441s-.358-1.2-.615-1.887-.507-1.461-.832-2.259-.676-1.65-1.075-2.543a57.074,57.074,0,0,0-2.949-5.587,53.587,53.587,0,0,0-3.632-5.174c-.622-.751-1.2-1.475-1.786-2.1s-1.13-1.231-1.65-1.752-1-.981-1.42-1.353-.8-.737-1.109-1.008l-.676-.629a1.617,1.617,0,0,1-.23-.237,1.376,1.376,0,0,1,.271.189l.744.589c.325.257.676.582,1.143.98s.94.825,1.454,1.353,1.1,1.089,1.684,1.738,1.184,1.353,1.813,2.09a51.792,51.792,0,0,1,3.632,5.141,52.785,52.785,0,0,1,2.956,5.627c.379.9.758,1.745,1.048,2.563s.575,1.576.8,2.279.413,1.353.575,1.907.291,1.055.379,1.455.156.676.21.926A1.093,1.093,0,0,1,155.533,5642.162Z" transform="translate(-117.122 -5597.326)" fill="#263238"/>
      <path id="Trazado_114369" data-name="Trazado 114369" d="M155.29,5626.536a3.036,3.036,0,0,1-.074-.677c-.034-.446-.061-1.089-.088-1.88-.047-1.583-.061-3.774.034-6.2s.271-4.606.44-6.182c.088-.785.162-1.421.23-1.86a3.073,3.073,0,0,1,.129-.676,3.528,3.528,0,0,1,0,.676c0,.5-.081,1.13-.135,1.874-.122,1.576-.264,3.761-.358,6.175s-.108,4.6-.115,6.183v1.874A3.377,3.377,0,0,1,155.29,5626.536Z" transform="translate(-122.406 -5595.417)" fill="#263238"/>
      <g id="Grupo_52880" data-name="Grupo 52880" transform="translate(21.886 17.815)" opacity="0.3">
        <path id="Trazado_114370" data-name="Trazado 114370" d="M139.125,5615.225s9.226,3.788,10.673,12.5C149.8,5627.725,145.084,5619.595,139.125,5615.225Z" transform="translate(-139.125 -5615.225)"/>
      </g>
      <path id="Trazado_114371" data-name="Trazado 114371" d="M120.1,5690.141c-1.353-.5-2.956-.838-4.092,0a3.111,3.111,0,0,0-.8,3.612,9.508,9.508,0,0,0,2.3,3.192,11.932,11.932,0,0,0-8.4-2.2c-.981.115-2.131.534-2.327,1.508a2.588,2.588,0,0,0,.676,1.914,30.234,30.234,0,0,0,5.81,5.9,8.633,8.633,0,0,0-3.876,1.083,2.964,2.964,0,0,0-1.292,3.5,4.07,4.07,0,0,0,1.576,1.529,29.329,29.329,0,0,0,13.433,4.606,12.376,12.376,0,0,0,7.366-1.231c2.178-1.292,4.539-3.43,3.8-5.851l.095.676A22.739,22.739,0,0,0,120.1,5690.141Z" transform="translate(-106.767 -5621.489)" fill="#36c"/>
      <path id="Trazado_114372" data-name="Trazado 114372" d="M137.148,5716.65a.856.856,0,0,1-.2-.1l-.555-.332c-.237-.149-.534-.325-.886-.514s-.737-.433-1.184-.676-.933-.487-1.475-.73-1.109-.5-1.718-.757a36.589,36.589,0,0,0-4.058-1.394,37.529,37.529,0,0,0-4.221-.873c-.676-.081-1.285-.169-1.874-.209s-1.136-.082-1.637-.1-.96,0-1.353,0h-1.7a.685.685,0,0,1-.223,0h.223l.676-.054c.284,0,.629-.047,1.028-.054s.859,0,1.353,0a13.057,13.057,0,0,1,1.65.074c.6.075,1.217.115,1.88.2a35.13,35.13,0,0,1,4.254.859,37.108,37.108,0,0,1,4.1,1.414c.609.271,1.19.514,1.725.784s1.021.515,1.461.758.832.474,1.184.676.629.386.866.541l.541.365C137.094,5716.6,137.155,5716.644,137.148,5716.65Z" transform="translate(-109.776 -5628.356)" fill="#263238"/>
      <path id="Trazado_114373" data-name="Trazado 114373" d="M129.918,5708.881a2.962,2.962,0,0,1-.358-.3c-.223-.209-.534-.514-.92-.893-.764-.771-1.8-1.854-2.881-3.1s-2.029-2.415-2.706-3.273c-.325-.434-.582-.785-.758-1.035a1.739,1.739,0,0,1-.25-.393,2.018,2.018,0,0,1,.311.345l.852.967c.676.839,1.63,2,2.706,3.233s2.1,2.34,2.841,3.125l.873.94A2.562,2.562,0,0,1,129.918,5708.881Z" transform="translate(-111.711 -5624.808)" fill="#263238"/>
      <g id="Grupo_52881" data-name="Grupo 52881" transform="translate(6.519 81.81)" opacity="0.3">
        <path id="Trazado_114374" data-name="Trazado 114374" d="M116.4,5710.635s6.372-2.436,11.154,1.217C127.559,5711.859,121.383,5710.019,116.4,5710.635Z" transform="translate(-116.405 -5709.839)"/>
      </g>
      <path id="Trazado_114375" data-name="Trazado 114375" d="M467.249,5754.505a23.288,23.288,0,0,1-.095,14.326c-3.517-2.969-7.494-7.927-8.712-12.364a22.265,22.265,0,0,1,.338-13.352A22.836,22.836,0,0,1,467.249,5754.505Z" transform="translate(-220.295 -5638.798)" fill="#e36099"/>
      <path id="Trazado_114376" data-name="Trazado 114376" d="M465.835,5761.888a4.08,4.08,0,0,0-.088-.785c-.074-.5-.21-1.217-.392-2.1a56.283,56.283,0,0,0-4.6-13.325c-.4-.805-.737-1.454-.988-1.894a4.79,4.79,0,0,0-.412-.676,5.247,5.247,0,0,0,.318.717c.223.453.541,1.109.919,1.928a69.234,69.234,0,0,1,4.586,13.284c.2.879.358,1.59.467,2.083A4.1,4.1,0,0,0,465.835,5761.888Z" transform="translate(-220.87 -5638.794)" fill="#263238"/>
      <path id="Trazado_114377" data-name="Trazado 114377" d="M497.972,5760.358a23.289,23.289,0,0,1-.095,14.326c-3.517-2.969-7.494-7.927-8.712-12.364a23.071,23.071,0,0,1,.446-13.6A23.328,23.328,0,0,1,497.972,5760.358Z" transform="translate(-230.254 -5640.613)" fill="#e36099"/>
      <path id="Trazado_114378" data-name="Trazado 114378" d="M496.541,5767.838a3.878,3.878,0,0,0-.095-.785c-.068-.5-.2-1.217-.386-2.1a56.689,56.689,0,0,0-1.88-6.8,55.5,55.5,0,0,0-2.706-6.513c-.4-.812-.737-1.461-.994-1.9a4.467,4.467,0,0,0-.406-.676,5.06,5.06,0,0,0,.318.717c.223.453.541,1.116.92,1.928a69.859,69.859,0,0,1,2.631,6.527,67.6,67.6,0,0,1,1.948,6.764c.21.879.365,1.589.473,2.083A4.068,4.068,0,0,0,496.541,5767.838Z" transform="translate(-230.811 -5640.72)" fill="#263238"/>
      <path id="Trazado_114379" data-name="Trazado 114379" d="M514.076,5739.375a23.3,23.3,0,0,0,7.7-12.08c-4.566.582-10.6,2.584-14.028,5.654a23.086,23.086,0,0,0-6.98,11.654A23.293,23.293,0,0,0,514.076,5739.375Z" transform="translate(-234.271 -5633.678)" fill="#e36099"/>
      <path id="Trazado_114380" data-name="Trazado 114380" d="M516.423,5734.4a4.968,4.968,0,0,1-.5.6c-.331.386-.832.913-1.468,1.563a56.963,56.963,0,0,1-5.276,4.687,55.98,55.98,0,0,1-5.824,4c-.771.467-1.414.825-1.86,1.055a3.5,3.5,0,0,1-.71.338,5.966,5.966,0,0,1,.676-.426c.433-.258,1.055-.677,1.819-1.123a68.687,68.687,0,0,0,11.059-8.678c.676-.623,1.17-1.136,1.529-1.495A4.138,4.138,0,0,1,516.423,5734.4Z" transform="translate(-234.278 -5635.976)" fill="#263238"/>
      <path id="Trazado_114381" data-name="Trazado 114381" d="M484.437,5731.322a23.28,23.28,0,0,0,7.7-12.087c-4.566.582-10.592,2.59-14.028,5.655a23,23,0,0,0-7,11.654A23.294,23.294,0,0,0,484.437,5731.322Z" transform="translate(-224.672 -5631.07)" fill="#e36099"/>
      <path id="Trazado_114382" data-name="Trazado 114382" d="M486.809,5726.335a3.986,3.986,0,0,1-.5.609c-.331.378-.832.913-1.468,1.556a56.93,56.93,0,0,1-5.276,4.694,58.134,58.134,0,0,1-5.817,4c-.778.46-1.414.819-1.867,1.048a5.061,5.061,0,0,1-.676.345,3.723,3.723,0,0,1,.676-.433c.433-.257,1.055-.676,1.813-1.123a67.194,67.194,0,0,0,5.756-4.059c2.164-1.7,4.011-3.382,5.31-4.62.676-.622,1.17-1.136,1.522-1.495A4.876,4.876,0,0,1,486.809,5726.335Z" transform="translate(-224.705 -5633.367)" fill="#263238"/>
      <path id="Trazado_114383" data-name="Trazado 114383" d="M437.965,5743.965a3.149,3.149,0,0,1,.582-.1l1.691-.237,1.217-.156c.453-.047.94-.081,1.461-.122,1.048-.081,2.246-.21,3.565-.223l2.083-.061h2.252c1.556,0,3.213.128,4.965.244a79.546,79.546,0,0,1,22.152,5.039c1.623.676,3.179,1.258,4.579,1.941.676.325,1.4.622,2.029.953l1.846.954c1.19.588,2.205,1.218,3.118,1.738.453.271.879.507,1.265.744l1.028.677c.6.392,1.075.676,1.42.94a4.3,4.3,0,0,1,.487.345,2.978,2.978,0,0,1-.521-.291l-1.454-.879-1.048-.676c-.386-.223-.818-.453-1.272-.717-.92-.5-1.948-1.116-3.138-1.691l-1.853-.927c-.643-.325-1.353-.609-2.029-.933-1.4-.677-2.949-1.251-4.572-1.9a82.139,82.139,0,0,0-22.064-5.019c-1.738-.122-3.382-.264-4.944-.271-.778,0-1.529-.054-2.246-.047l-2.07.041c-1.353,0-2.516.108-3.565.169-.521.034-1.008.054-1.454.088l-1.224.135-1.691.162A3.583,3.583,0,0,1,437.965,5743.965Z" transform="translate(-213.948 -5638.781)" fill="#263238"/>
      <path id="Trazado_114384" data-name="Trazado 114384" d="M525.677,5761.374a23.3,23.3,0,0,1,8.969,11.167c-4.6-.074-10.822-1.414-14.563-4.059a23.117,23.117,0,0,1-8.238-10.822A23.273,23.273,0,0,1,525.677,5761.374Z" transform="translate(-237.856 -5643.495)" fill="#e36099"/>
      <path id="Trazado_114385" data-name="Trazado 114385" d="M528.831,5768.472a4.319,4.319,0,0,0-.568-.541c-.372-.345-.927-.818-1.623-1.394a56.718,56.718,0,0,0-11.979-7.44c-.825-.372-1.495-.677-1.968-.846a3.841,3.841,0,0,0-.737-.257,4.937,4.937,0,0,0,.676.352c.46.21,1.116.521,1.928.92a68.483,68.483,0,0,1,11.965,7.407c.676.547,1.285,1,1.677,1.353A3.955,3.955,0,0,0,528.831,5768.472Z" transform="translate(-237.892 -5643.613)" fill="#263238"/>
      <path id="Trazado_114386" data-name="Trazado 114386" d="M480.449,5667.256a26.013,26.013,0,0,1,15.969.987c-3.524,3.74-9.3,7.866-14.319,8.956a25.773,25.773,0,0,1-15.124-1.353A25.994,25.994,0,0,1,480.449,5667.256Z" transform="translate(-223.336 -5613.985)" fill="#e36099"/>
      <path id="Trazado_114387" data-name="Trazado 114387" d="M488.7,5671.594a4.879,4.879,0,0,0-.873.054c-.561.054-1.353.156-2.367.3a62.687,62.687,0,0,0-15.1,4.309c-.927.4-1.671.737-2.171.987a4.24,4.24,0,0,0-.771.419,6.02,6.02,0,0,0,.818-.311c.514-.223,1.272-.534,2.205-.906a77.548,77.548,0,0,1,7.44-2.537c2.949-.838,5.675-1.407,7.657-1.759.988-.176,1.792-.311,2.347-.392A4.723,4.723,0,0,0,488.7,5671.594Z" transform="translate(-223.478 -5615.652)" fill="#263238"/>
      <path id="Trazado_114388" data-name="Trazado 114388" d="M467.96,5697.494a22.7,22.7,0,0,1,13.223,4.525c-3.828,2.333-9.652,4.478-14.136,4.233a7.214,7.214,0,1,1,.913-8.759Z" transform="translate(-219.336 -5624.034)" fill="#e36099"/>
      <path id="Trazado_114389" data-name="Trazado 114389" d="M474.283,5703.206a5.389,5.389,0,0,0-.751-.156c-.48-.088-1.19-.189-2.063-.291a55.194,55.194,0,0,0-13.751.129c-.873.122-1.576.236-2.029.338a4.192,4.192,0,0,0-.744.169,3.782,3.782,0,0,0,.764-.074c.487-.067,1.19-.155,2.063-.25,1.745-.2,4.173-.393,6.852-.42a68.418,68.418,0,0,1,6.859.284c.873.081,1.583.156,2.07.217A3.859,3.859,0,0,0,474.283,5703.206Z" transform="translate(-219.443 -5625.619)" fill="#263238"/>
      <path id="Trazado_114390" data-name="Trazado 114390" d="M456.345,5670.621a22.744,22.744,0,0,0-7.1-12.046c-1.515,4.228-2.442,10.362-1.3,14.7a22.516,22.516,0,0,0,7.034,11.249A22.713,22.713,0,0,0,456.345,5670.621Z" transform="translate(-217.014 -5611.439)" fill="#e36099"/>
      <path id="Trazado_114391" data-name="Trazado 114391" d="M452.765,5668.6a4.079,4.079,0,0,1,.3.676c.189.46.426,1.13.71,1.969a56.3,56.3,0,0,1,1.745,6.662,54.389,54.389,0,0,1,.893,6.831c.061.88.088,1.59.095,2.084a4.581,4.581,0,0,1,0,.771,3.974,3.974,0,0,1-.081-.764c0-.494-.088-1.2-.169-2.077-.162-1.751-.46-4.159-.974-6.8a67.593,67.593,0,0,0-1.664-6.656c-.257-.839-.473-1.521-.622-1.988A4.778,4.778,0,0,1,452.765,5668.6Z" transform="translate(-218.737 -5614.685)" fill="#263238"/>
      <path id="Trazado_114392" data-name="Trazado 114392" d="M465.187,5643.789a22.193,22.193,0,0,0-9.747-9.564c-.365,4.37.318,10.4,2.5,14.2a22.013,22.013,0,0,0,9.469,8.833A22.228,22.228,0,0,0,465.187,5643.789Z" transform="translate(-219.573 -5603.559)" fill="#e36099"/>
      <path id="Trazado_114393" data-name="Trazado 114393" d="M460.535,5643.015a5.316,5.316,0,0,1,.467.588c.291.386.676.954,1.163,1.678a53.6,53.6,0,0,1,5.912,12.06c.277.818.487,1.481.616,1.948a4.752,4.752,0,0,1,.176.724,3.586,3.586,0,0,1-.271-.677c-.156-.453-.392-1.109-.676-1.914a66,66,0,0,0-2.631-6.168c-1.157-2.347-2.354-4.4-3.26-5.857-.453-.73-.832-1.319-1.1-1.718A4.078,4.078,0,0,1,460.535,5643.015Z" transform="translate(-221.252 -5606.404)" fill="#263238"/>
      <path id="Trazado_114394" data-name="Trazado 114394" d="M416.2,5715.208l.149-.155.453-.446,1.772-1.685,1.285-1.21,1.481-1.481c1.062-1.075,2.293-2.266,3.565-3.673l2.029-2.178c.676-.764,1.387-1.59,2.124-2.428,1.488-1.657,2.956-3.531,4.539-5.479a161.2,161.2,0,0,0,9.368-13.332,151.64,151.64,0,0,0,7.765-14.326c1.015-2.286,2.029-4.444,2.814-6.527.413-1.035.825-2.029,1.184-3s.676-1.908.987-2.8c.676-1.779,1.123-3.436,1.569-4.87q.325-1.089.609-2.029c.156-.622.3-1.19.44-1.711.264-1.008.474-1.8.622-2.361.068-.25.128-.453.169-.608a1.111,1.111,0,0,1,.068-.21,1.023,1.023,0,0,1-.034.217c-.034.155-.081.358-.135.622-.135.562-.318,1.353-.555,2.374-.129.521-.264,1.1-.413,1.718s-.372,1.3-.582,2.029c-.433,1.448-.872,3.1-1.522,4.89-.31.9-.628,1.84-.967,2.821s-.772,1.989-1.2,3c-.771,2.1-1.786,4.261-2.793,6.561a145.315,145.315,0,0,1-7.738,14.407,153.377,153.377,0,0,1-9.409,13.352c-1.59,1.941-3.071,3.815-4.572,5.472-.737.832-1.441,1.657-2.144,2.415l-2.029,2.164c-1.285,1.4-2.536,2.584-3.605,3.639l-1.529,1.454-1.305,1.19-1.819,1.637-.473.419C416.256,5715.167,416.2,5715.215,416.2,5715.208Z" transform="translate(-206.903 -5606.947)" fill="#263238"/>
      <path id="Trazado_114395" data-name="Trazado 114395" d="M466.163,5597.517c.737-1.9,1.928-3.95,3.93-4.343,1.853-.365,3.713.934,4.62,2.6a13.414,13.414,0,0,1,1.2,5.492,17.091,17.091,0,0,1,5.668-11.065c1.062-.934,2.611-1.759,3.828-1.035a3.623,3.623,0,0,1,1.353,2.57,43.274,43.274,0,0,1,.791,11.83,12.252,12.252,0,0,1,4.85-3.1c1.874-.48,4.2.176,4.958,1.961a5.734,5.734,0,0,1,.129,3.139,41.93,41.93,0,0,1-7.921,18.621c-2.178,2.888-4.89,5.587-8.34,6.676s-7.981,1.569-9.855-1.528l.676.771A32.528,32.528,0,0,1,466.163,5597.517Z" transform="translate(-222.416 -5588.887)" fill="#36c"/>
      <path id="Trazado_114396" data-name="Trazado 114396" d="M478.283,5638.108a2.161,2.161,0,0,0,.081-.317c.041-.237.1-.535.176-.907s.162-.879.291-1.434.25-1.2.44-1.887.372-1.454.622-2.259.528-1.664.832-2.563a56.687,56.687,0,0,1,2.408-5.675,54.017,54.017,0,0,1,3.1-5.33c.541-.785,1.042-1.529,1.563-2.2s1-1.286,1.461-1.84.893-1.035,1.265-1.461.717-.784.994-1.075l.636-.676a1.47,1.47,0,0,0,.21-.25,1.521,1.521,0,0,0-.25.209l-.676.636a12.643,12.643,0,0,0-1.035,1.042c-.358.419-.845.886-1.3,1.447s-.988,1.143-1.495,1.827-1.042,1.406-1.59,2.185a47.077,47.077,0,0,0-5.533,11.065c-.3.906-.6,1.766-.812,2.584s-.433,1.583-.6,2.279-.291,1.353-.4,1.9-.2,1.048-.25,1.447-.095.677-.128.92A1.325,1.325,0,0,0,478.283,5638.108Z" transform="translate(-226.994 -5595.795)" fill="#263238"/>
      <path id="Trazado_114397" data-name="Trazado 114397" d="M483.535,5622.952a2.755,2.755,0,0,0,0-.676c0-.433,0-1.055-.068-1.826-.088-1.549-.257-3.68-.548-6.02s-.676-4.457-.94-5.972c-.149-.765-.277-1.353-.379-1.8a3.248,3.248,0,0,0-.176-.643,2.954,2.954,0,0,0,.074.676q.108.716.284,1.806c.244,1.522.568,3.632.859,5.973s.494,4.457.629,6c.061.724.115,1.353.156,1.82A3.551,3.551,0,0,0,483.535,5622.952Z" transform="translate(-228.012 -5594.43)" fill="#263238"/>
      <g id="Grupo_52882" data-name="Grupo 52882" transform="translate(255.8 14.676)" opacity="0.3">
        <path id="Trazado_114398" data-name="Trazado 114398" d="M494.3,5610.585s-8.664,4.464-9.341,13.034C484.921,5623.6,488.831,5615.327,494.3,5610.585Z" transform="translate(-484.955 -5610.585)"/>
      </g>
      <path id="Trazado_114399" data-name="Trazado 114399" d="M516.362,5677.911c1.3-.6,2.888-1.042,4.058-.257a3.149,3.149,0,0,1,1.048,3.551,9.469,9.469,0,0,1-2.076,3.341,11.953,11.953,0,0,1,8.232-2.766c.988.054,2.164.392,2.421,1.353a2.556,2.556,0,0,1-.568,1.955,30.486,30.486,0,0,1-5.411,6.283,8.665,8.665,0,0,1,3.943.812,2.924,2.924,0,0,1,1.522,3.382,4,4,0,0,1-1.468,1.644,29.346,29.346,0,0,1-13.02,5.452,12.458,12.458,0,0,1-7.44-.73c-2.266-1.136-4.735-3.111-4.194-5.58l-.047.71A22.762,22.762,0,0,1,516.362,5677.911Z" transform="translate(-235.102 -5617.477)" fill="#36c"/>
      <path id="Trazado_114400" data-name="Trazado 114400" d="M503.855,5705.256l.2-.122.534-.365c.23-.162.507-.365.845-.575s.71-.48,1.143-.73.893-.555,1.414-.832,1.075-.575,1.671-.88a38.373,38.373,0,0,1,3.977-1.664,35.285,35.285,0,0,1,4.153-1.156c.676-.129,1.272-.257,1.853-.338s1.13-.156,1.63-.209.954-.081,1.353-.115.744-.047,1.021-.047h.906a.825.825,0,0,0-.23,0h-1.7a12.621,12.621,0,0,0-1.353.088c-.494.054-1.055.095-1.637.189s-1.211.2-1.867.318a32.691,32.691,0,0,0-8.177,2.841c-.6.3-1.157.588-1.664.893s-.988.582-1.414.852-.8.534-1.13.758-.609.433-.832.608l-.514.393A1,1,0,0,0,503.855,5705.256Z" transform="translate(-235.271 -5624.267)" fill="#263238"/>
      <path id="Trazado_114401" data-name="Trazado 114401" d="M516.955,5696.915a2.334,2.334,0,0,0,.331-.332c.21-.217.507-.541.859-.947.71-.818,1.671-1.968,2.665-3.288s1.853-2.543,2.448-3.449c.3-.454.528-.825.676-1.082a1.884,1.884,0,0,0,.223-.413,2.247,2.247,0,0,0-.291.372l-.737,1.048c-.622.879-1.488,2.1-2.482,3.382s-1.934,2.476-2.618,3.308l-.812.995A2.044,2.044,0,0,0,516.955,5696.915Z" transform="translate(-239.51 -5620.769)" fill="#263238"/>
      <g id="Grupo_52883" data-name="Grupo 52883" transform="translate(277.959 73.391)" opacity="0.3">
        <path id="Trazado_114402" data-name="Trazado 114402" d="M528.76,5697.895s-6.52-2-11.045,1.968C517.749,5699.863,523.728,5697.618,528.76,5697.895Z" transform="translate(-517.715 -5697.393)"/>
      </g>
    </g>
    <g id="freepik--Characters--inject-44" transform="translate(140.57 5467.768)">
      <path id="Trazado_114403" data-name="Trazado 114403" d="M321.195,5584.266c-4.931-3.132-10.491-7.494-9.8-13.25.6-4.931,5.661-8.312,6.94-13.115,1.691-6.372-3.612-12.175-6.439-18.08-3.057-6.405-3.28-13.744-3.078-20.833s3.159-20.589,1.5-27.475-5.675-17.762-14.488-14.745l-.149,3.382c-20.7,16.49-32.939,42.761-32.067,68.815.312,9.219,2.212,18.486,6.548,26.643s11.214,15.158,19.851,18.723q.619-2.03,1.251-4.059a19.1,19.1,0,0,0,13.095,5.682l-2.881-5.411a13.048,13.048,0,0,0,13.819,1.813,6,6,0,0,1-3.084-3.8A7.509,7.509,0,0,0,321.195,5584.266Z" transform="translate(-217.391 -5470.513)" fill="#7a2347"/>
      <path id="Trazado_114404" data-name="Trazado 114404" d="M352.464,5491.175l-1.17-3.132c-6.439-2.171-13.859.155-18.8,4.822s-7.63,11.337-8.617,18.06-.413,13.575.325,20.333,1.637,13.528,1.285,20.325c-.115,2.252-.345,4.626.622,6.669a8.343,8.343,0,0,0,5.519,4.092,22.927,22.927,0,0,0,7.068.3c7.806-.508,15.557-1.353,23.356-2.185a3.865,3.865,0,0,0,2.753-1.083,3.8,3.8,0,0,0,.521-2.36A178.712,178.712,0,0,0,352.464,5491.175Z" transform="translate(-236.736 -5474.064)" fill="#12263f"/>
      <path id="Trazado_114405" data-name="Trazado 114405" d="M328.188,5518.24c-.954-8.888,7.021-19.29,15.942-19.865l29.342.555.717,4.734,8.252,58.88h0s.791,19.317-15.34,20.968c-14.488,1.474-16.287-13.792-16.287-13.8l-1.447-11.12s-11.654,1.516-16.484-12.75C330.481,5538.762,329.229,5528.116,328.188,5518.24Z" transform="translate(-238.277 -5477.673)" fill="#ffbe9d"/>
      <path id="Trazado_114406" data-name="Trazado 114406" d="M334.323,5543.752c.277.21,1.522-1.089,3.544-1.427s3.68.413,3.855.129c.095-.129-.223-.528-.947-.886a5.174,5.174,0,0,0-3.138-.413,5.009,5.009,0,0,0-2.766,1.448C334.33,5543.184,334.195,5543.664,334.323,5543.752Z" transform="translate(-240.274 -5491.49)" fill="#263238"/>
      <path id="Trazado_114407" data-name="Trazado 114407" d="M362.383,5540.232c.277.2,1.522-1.089,3.544-1.434s3.68.419,3.855.136c.088-.129-.223-.528-.947-.893a5.228,5.228,0,0,0-3.138-.406,5.013,5.013,0,0,0-2.773,1.448C362.39,5539.664,362.255,5540.145,362.383,5540.232Z" transform="translate(-249.354 -5490.351)" fill="#263238"/>
      <path id="Trazado_114408" data-name="Trazado 114408" d="M353.757,5550.742a16.343,16.343,0,0,0-3.382.041c-.528.041-1.028,0-1.17-.25a2.194,2.194,0,0,1,.115-1.353q.433-1.7.927-3.578c.358-1.306,1.962-8.6,1.874-9.267-.237,0-1.461,4.058-2.706,9.145q-.446,1.88-.866,3.592a2.249,2.249,0,0,0,.041,1.759,1.314,1.314,0,0,0,.967.5,4.589,4.589,0,0,0,.893-.041A13.324,13.324,0,0,0,353.757,5550.742Z" transform="translate(-244.84 -5489.958)" fill="#263238"/>
      <path id="Trazado_114409" data-name="Trazado 114409" d="M359.415,5583.455a37.822,37.822,0,0,0,18.736-8.59s-3.267,11.093-18.168,12.229Z" transform="translate(-248.408 -5502.426)" fill="#eb996e"/>
      <path id="Trazado_114410" data-name="Trazado 114410" d="M362.7,5556.374c-.331.041.041,2.232-1.576,4.112s-3.991,2.029-3.957,2.347c0,.142.6.338,1.59.2a5.516,5.516,0,0,0,3.321-1.833,4.825,4.825,0,0,0,1.184-3.422C363.185,5556.84,362.846,5556.333,362.7,5556.374Z" transform="translate(-247.68 -5496.441)" fill="#263238"/>
      <path id="Trazado_114411" data-name="Trazado 114411" d="M361.748,5525.127c.338.588,2.029-.176,4.133-.393s3.984.088,4.106-.548c.047-.3-.4-.818-1.224-1.251a5.865,5.865,0,0,0-3.308-.588,5.291,5.291,0,0,0-2.969,1.306C361.856,5524.254,361.612,5524.85,361.748,5525.127Z" transform="translate(-249.151 -5485.417)" fill="#263238"/>
      <path id="Trazado_114412" data-name="Trazado 114412" d="M332.118,5529.243c.433.514,1.853-.2,3.632-.4s3.314.055,3.605-.555c.129-.291-.162-.818-.873-1.278a4.788,4.788,0,0,0-5.83.771C332.077,5528.4,331.928,5528.993,332.118,5529.243Z" transform="translate(-239.549 -5486.727)" fill="#263238"/>
      <path id="Trazado_114413" data-name="Trazado 114413" d="M371.159,5544.917a8.929,8.929,0,0,0-4.985.19,4.057,4.057,0,0,0-1.765,1.035,2.032,2.032,0,0,0-.521,1.9c.311.994,1.481,1.421,2.516,1.556a11.3,11.3,0,0,0,5.736-.73,2.515,2.515,0,0,0,1-.676,1.645,1.645,0,0,0,.216-2.029,3.8,3.8,0,0,0-2.2-1.264" transform="translate(-249.837 -5492.648)" fill="#ffab85"/>
      <path id="Trazado_114414" data-name="Trazado 114414" d="M337.869,5550.4a4.369,4.369,0,0,0-3.45,0,2.456,2.456,0,0,0-1.184.954,2.514,2.514,0,0,0-.284,1.874,2.35,2.35,0,0,0,1.806,1.65,5.508,5.508,0,0,0,3.957-.494,1.648,1.648,0,0,0,.676-.622,2.122,2.122,0,0,0,.068-2,3.014,3.014,0,0,0-1.576-1.353" transform="translate(-239.822 -5494.393)" fill="#ffab85"/>
      <path id="Trazado_114415" data-name="Trazado 114415" d="M327.819,5518.7a1.245,1.245,0,0,1-.135-.291,6.014,6.014,0,0,1-.291-.873,18.064,18.064,0,0,1-.521-3.341,35.318,35.318,0,0,1,0-5.005,24.028,24.028,0,0,1,1.1-6.034,21.656,21.656,0,0,1,2.706-5.505,22.468,22.468,0,0,1,3.308-3.768,24.567,24.567,0,0,1,2.632-2.11c.325-.23.581-.4.764-.507a1.065,1.065,0,0,1,.277-.155,9.054,9.054,0,0,1-.96.771,32.012,32.012,0,0,0-2.544,2.185,23.816,23.816,0,0,0-3.213,3.768,22.688,22.688,0,0,0-2.651,5.411,24.828,24.828,0,0,0-1.109,5.952,36.626,36.626,0,0,0-.081,4.964,20.4,20.4,0,0,0,.406,3.321C327.684,5518.286,327.86,5518.691,327.819,5518.7Z" transform="translate(-237.848 -5475.324)" fill="#e36099"/>
      <path id="Trazado_114416" data-name="Trazado 114416" d="M236.236,5602.285c-.947.636-15.077,8.678-26.021,20.224l16.084,41.017,15.225,46.332-5.289,20.785s30.376,4.112,50.5,5.039c21.5.981,47.252-2.8,47.252-2.8s-23.748-97.373-30.059-114.167-32.974-15.632-32.974-15.632Z" transform="translate(-200.125 -5511.3)" fill="#e36099"/>
      <g id="Grupo_52884" data-name="Grupo 52884" transform="translate(43.402 119.955)" opacity="0.3">
        <path id="Trazado_114417" data-name="Trazado 114417" d="M329.478,5713.085c-.365-10.443-.737-20.927-2.584-31.215s-5.228-20.441-11.16-29.038a15.232,15.232,0,0,0-5.452-5.33c-2.908-1.434-6.331-1.17-9.551-.792-6.257.724-12.5,1.731-18.8,1.847s-12.73-.677-18.4-3.443l-4.058.148c1.914,4.545,5.479,8.185,9.314,11.275s8.022,5.743,11.735,8.982c2.908,2.55,5.715,5.56,9.469,6.487,3.571.873,7.318-.338,10.626-1.948s6.453-3.646,10-4.586c2.347,9.523,7.393,18.418,8.117,28.192.676,8.861-4.058,16.781-6.953,25.175l13.44-6.209c1.17-.291,1.048,1.8,1.738.8S329.518,5714.2,329.478,5713.085Z" transform="translate(-259.465 -5645.115)"/>
      </g>
      <path id="Trazado_114418" data-name="Trazado 114418" d="M314.631,5690.205a1.169,1.169,0,0,1,.135.311l.325.913c.142.4.3.886.453,1.468s.359,1.225.5,1.969.331,1.542.453,2.421.23,1.813.331,2.807a43.076,43.076,0,0,1,0,6.473,43.7,43.7,0,0,1-1.082,6.392c-.271.953-.507,1.874-.8,2.706s-.575,1.616-.859,2.313-.575,1.312-.825,1.853a14.5,14.5,0,0,1-.676,1.353l-.473.845a1.711,1.711,0,0,1-.183.284,1.231,1.231,0,0,1,.122-.318l.413-.873c.189-.372.413-.839.643-1.386s.521-1.157.771-1.867.555-1.461.812-2.307.507-1.745.764-2.706a45.046,45.046,0,0,0,1.048-6.337,44.493,44.493,0,0,0,.041-6.426c-.088-.98-.156-1.921-.3-2.787s-.264-1.677-.406-2.415-.311-1.353-.446-1.968-.271-1.076-.392-1.475-.189-.677-.264-.927A1.737,1.737,0,0,1,314.631,5690.205Z" transform="translate(-233.04 -5539.752)" fill="#263238"/>
      <path id="Trazado_114419" data-name="Trazado 114419" d="M199.289,5563.979c2.029-3.713,4.681-7.521,4.234-11.729-.2-1.86-1.008-3.646-.947-5.513.162-4.823,5.8-7.826,6.764-12.554,1.19-5.939-5.411-12.175-2.482-17.484,1.407-2.543,4.484-3.592,6.595-5.594,5.37-5.086,1.759-15.476,14.88-26.082l3.524,23.626a608.908,608.908,0,0,0,.088,62.356c-11.147,1.637-24.255,7.555-33.6,24.066C195.718,5591.759,197.267,5567.693,199.289,5563.979Z" transform="translate(-195.834 -5473.353)" fill="#7a2347"/>
      <path id="Trazado_114420" data-name="Trazado 114420" d="M282.6,5470.958c-5.682-3.233-12.6-3.8-19.034-2.631s-12.452,3.97-18.168,7.149c-3.206,1.786-6.405,3.747-8.732,6.581-4.254,5.167-4.951,12.3-5.465,18.979-.419,5.411-.791,11.052,1.407,16a16.647,16.647,0,0,0,11.045,9.247l49.5-41.51A22.522,22.522,0,0,0,282.6,5470.958Z" transform="translate(-206.813 -5467.768)" fill="#7a2347"/>
      <path id="Trazado_114421" data-name="Trazado 114421" d="M299.816,5505.586c-.514-10.646-7.366-23.8-17.978-22.835l-24.627,5.83a18.193,18.193,0,0,0-13.967,16.518c-.041.4-.068-.095-.068.21l.676,64.256a19.176,19.176,0,0,0,19.27,18.939h0a19.183,19.183,0,0,0,19.088-18.824c.1-5.174.21-11.275.21-11.248s13.622-2.029,16.7-19.744C300.647,5529.9,300.39,5517.416,299.816,5505.586Z" transform="translate(-210.791 -5472.601)" fill="#ffbe9d"/>
      <path id="Trazado_114422" data-name="Trazado 114422" d="M291.035,5507.715a18.547,18.547,0,0,0,5.12,1.143,18.885,18.885,0,0,0,5.249.088c-.007-.115-2.34-.175-5.195-.521S291.062,5507.586,291.035,5507.715Z" transform="translate(-226.279 -5480.689)" fill="#eb996e"/>
      <path id="Trazado_114423" data-name="Trazado 114423" d="M296.9,5506.868a8.655,8.655,0,0,0,3.179.677,7.819,7.819,0,0,0,3.247-.189,23.379,23.379,0,0,0-3.213-.25A23.855,23.855,0,0,0,296.9,5506.868Z" transform="translate(-228.179 -5480.41)" fill="#eb996e"/>
      <path id="Trazado_114424" data-name="Trazado 114424" d="M285.075,5557.732c.115,0,.277-.71,1.008-1.15s1.427-.325,1.461-.44-.149-.176-.473-.223a1.81,1.81,0,0,0-1.224.3,1.878,1.878,0,0,0-.785.988C284.974,5557.522,285.021,5557.725,285.075,5557.732Z" transform="translate(-224.331 -5496.291)" fill="#eb996e"/>
      <path id="Trazado_114425" data-name="Trazado 114425" d="M318.924,5536.943a2.266,2.266,0,0,1-2.225,2.259,2.172,2.172,0,0,1-2.31-2.023c0-.021,0-.04,0-.06a2.279,2.279,0,0,1,2.225-2.266,2.177,2.177,0,0,1,2.311,2.037C318.922,5536.907,318.923,5536.925,318.924,5536.943Z" transform="translate(-233.836 -5489.476)" fill="#263238"/>
      <path id="Trazado_114426" data-name="Trazado 114426" d="M317.816,5526.417c-.291.291-1.989-1.015-4.437-1.042s-4.261,1.17-4.518.865c-.129-.135.162-.676.954-1.224a6.256,6.256,0,0,1,3.625-1.062,6.041,6.041,0,0,1,3.524,1.2C317.708,5525.74,317.958,5526.281,317.816,5526.417Z" transform="translate(-232.039 -5485.95)" fill="#263238"/>
      <path id="Trazado_114427" data-name="Trazado 114427" d="M286.194,5535.716a2.279,2.279,0,0,1-2.225,2.266,2.178,2.178,0,0,1-2.311-2.037c0-.018,0-.035,0-.053a2.273,2.273,0,0,1,2.225-2.259,2.171,2.171,0,0,1,2.311,2.022C286.192,5535.675,286.193,5535.7,286.194,5535.716Z" transform="translate(-223.244 -5489.081)" fill="#263238"/>
      <path id="Trazado_114428" data-name="Trazado 114428" d="M284.4,5526.56c-.291.291-2-1.008-4.444-1.035s-4.254,1.163-4.518.859c-.129-.136.169-.677.96-1.225a6.252,6.252,0,0,1,3.625-1.055,5.987,5.987,0,0,1,3.524,1.2C284.3,5525.89,284.539,5526.431,284.4,5526.56Z" transform="translate(-221.224 -5485.999)" fill="#263238"/>
      <path id="Trazado_114429" data-name="Trazado 114429" d="M298.879,5544.995c0-.142,1.515-.386,3.984-.676.622-.055,1.217-.169,1.353-.6a3.216,3.216,0,0,0-.392-1.853c-.568-1.522-1.157-3.118-1.779-4.789-2.462-6.812-4.241-12.412-3.964-12.507s2.5,5.344,4.965,12.175q.887,2.516,1.7,4.809a3.6,3.6,0,0,1,.284,2.455,1.554,1.554,0,0,1-1.042.9,4.3,4.3,0,0,1-1.062.136C300.422,5545.144,298.886,5545.13,298.879,5544.995Z" transform="translate(-228.55 -5486.151)" fill="#263238"/>
      <path id="Trazado_114430" data-name="Trazado 114430" d="M266.575,5584.745s5.54,12.276,23.329,10.876l.081-4.167A44.711,44.711,0,0,1,266.575,5584.745Z" transform="translate(-218.364 -5505.624)" fill="#eb996e"/>
      <path id="Trazado_114431" data-name="Trazado 114431" d="M294.114,5562.632a4.415,4.415,0,0,0-3.93-1.7,4.06,4.06,0,0,0-2.8,1.455,2.53,2.53,0,0,0-.237,2.908,2.948,2.948,0,0,0,3.193.859,9.077,9.077,0,0,0,3.152-1.819,2.533,2.533,0,0,0,.676-.71.831.831,0,0,0,0-.913" transform="translate(-224.907 -5497.911)" fill="#eb996e"/>
      <path id="Trazado_114432" data-name="Trazado 114432" d="M288.382,5557.1c.4,0,.365,2.638,2.611,4.56s5.08,1.67,5.093,2.029c0,.163-.676.5-1.833.521a6.615,6.615,0,0,1-4.254-1.556,5.741,5.741,0,0,1-2.029-3.822C287.9,5557.74,288.2,5557.085,288.382,5557.1Z" transform="translate(-225.284 -5496.678)" fill="#263238"/>
      <path id="Trazado_114433" data-name="Trazado 114433" d="M284.994,5514.911c-.25.676-2.706.3-5.567.608s-5.208,1.055-5.58.453c-.169-.291.243-.913,1.19-1.542a9.73,9.73,0,0,1,8.5-.812C284.6,5514.059,285.1,5514.586,284.994,5514.911Z" transform="translate(-220.705 -5482.406)" fill="#263238"/>
      <path id="Trazado_114434" data-name="Trazado 114434" d="M316.953,5515.853c-.433.555-2.11-.048-4.139-.108s-3.747.318-4.139-.271c-.162-.284.115-.832.873-1.353a5.991,5.991,0,0,1,6.669.311C316.926,5514.994,317.149,5515.588,316.953,5515.853Z" transform="translate(-231.973 -5482.488)" fill="#263238"/>
      <path id="Trazado_114435" data-name="Trazado 114435" d="M241,5535.226c-.183-.514-9.375-4.011-9.666,5.817-.277,9.551,9.388,7.833,9.415,7.562S241,5535.226,241,5535.226Z" transform="translate(-206.957 -5489.268)" fill="#ffbe9d"/>
      <path id="Trazado_114436" data-name="Trazado 114436" d="M239.042,5546.391c-.041,0-.169.115-.453.237a1.7,1.7,0,0,1-1.245,0c-.994-.4-1.806-2.029-1.806-3.748a5.549,5.549,0,0,1,.528-2.367,1.943,1.943,0,0,1,1.285-1.244.85.85,0,0,1,.974.48c.122.271.054.46.1.48s.21-.155.142-.548a1.016,1.016,0,0,0-.359-.608,1.241,1.241,0,0,0-.913-.271,2.347,2.347,0,0,0-1.779,1.434,5.669,5.669,0,0,0-.643,2.645c0,1.928.947,3.754,2.313,4.194a1.794,1.794,0,0,0,1.529-.217C239.021,5546.621,239.075,5546.411,239.042,5546.391Z" transform="translate(-208.105 -5490.753)" fill="#eb996e"/>
      <path id="Trazado_114437" data-name="Trazado 114437" d="M287.072,5477.673a38.2,38.2,0,0,0-50.377,33.738l3.8,3.267a9.509,9.509,0,0,0,12.7-1.461c3.172-3.889,2.9-9.983,6.615-13.358,2.029-1.853,4.863-2.482,7.535-3.172,4.816-1.238,9.638-2.942,13.487-6.088S287.471,5482.638,287.072,5477.673Z" transform="translate(-208.694 -5470.316)" fill="#7a2347"/>
      <path id="Trazado_114438" data-name="Trazado 114438" d="M279.954,5544.679a8.115,8.115,0,0,0-5.053-1.042,4.053,4.053,0,0,0-2.029.765,2.586,2.586,0,0,0-.988,2.1,3.059,3.059,0,0,0,2.137,2.449,10.15,10.15,0,0,0,5.945.6,2.545,2.545,0,0,0,1.17-.527,2.163,2.163,0,0,0,.717-2.3,4.019,4.019,0,0,0-1.9-2.029" transform="translate(-220.082 -5492.301)" fill="#ffab85"/>
      <path id="Trazado_114439" data-name="Trazado 114439" d="M256.6,5590.609c1.989-3.125,3.693-6.764,2.956-10.423-.859-4.248-4.735-7.089-8.171-9.7s-7.082-5.979-7.1-10.309c0-5.641,6.182-10.47,4.66-15.9-.751-2.706-3.274-4.626-3.916-7.339-.832-3.544,1.765-6.9,4.248-9.564s5.215-5.83,4.735-9.469l-15.422.676c2.367,19.534-3.382,39.1-3.862,58.765-.129,5.675.169,11.465-1.414,16.91-.988,3.382-2.706,6.608-3.057,10.146-.616,5.979,2.848,11.762,7.44,15.658,2.219,1.9,5.053,3.537,7.914,2.983s4.836-3.071,5.628-5.8.534-5.621.237-8.441a26.119,26.119,0,0,1,0-8.462C252.22,5596.758,254.608,5593.734,256.6,5590.609Z" transform="translate(-206.586 -5483.993)" fill="#7a2347"/>
      <path id="Trazado_114440" data-name="Trazado 114440" d="M233.72,5516.862a.718.718,0,0,1-.088-.149c-.054-.108-.135-.257-.223-.467a6.108,6.108,0,0,1-.426-1.92,7.985,7.985,0,0,1,.494-3.078,10.244,10.244,0,0,1,2.2-3.5,15.326,15.326,0,0,1,4.092-2.875,54.976,54.976,0,0,1,5.289-2.2,118.417,118.417,0,0,0,11.931-5.33,116.565,116.565,0,0,0,11.275-6.615,68.682,68.682,0,0,0,8.536-6.405,19.3,19.3,0,0,0,4.369-5.641,13.887,13.887,0,0,0,.73-1.806l.156-.487a.774.774,0,0,1,.068-.162,10.251,10.251,0,0,1-.832,2.516,18.738,18.738,0,0,1-4.322,5.763,66.871,66.871,0,0,1-8.5,6.507,113.023,113.023,0,0,1-11.282,6.656,114.359,114.359,0,0,1-12.013,5.344,55.356,55.356,0,0,0-5.269,2.157,15.078,15.078,0,0,0-4.058,2.787,10.011,10.011,0,0,0-2.2,3.382,8.011,8.011,0,0,0-.541,3A7.115,7.115,0,0,0,233.72,5516.862Z" transform="translate(-207.491 -5470.505)" fill="#fff"/>
      <path id="Trazado_114441" data-name="Trazado 114441" d="M212.421,5565.029a2.892,2.892,0,0,1-.237-.216,6.014,6.014,0,0,1-.622-.676,7.71,7.71,0,0,1-1.353-3.382,11.968,11.968,0,0,1,.582-5.688,48.761,48.761,0,0,1,3.253-6.858,36.158,36.158,0,0,0,3.057-8.61,75.627,75.627,0,0,0,1.461-10.423c.311-3.7.494-7.6.981-11.627a50.676,50.676,0,0,1,2.881-12.175,24.957,24.957,0,0,1,7.122-10.247,31.944,31.944,0,0,1,10.295-5.465c3.537-1.2,6.994-1.968,10.2-2.76a79.781,79.781,0,0,0,8.793-2.556,32.69,32.69,0,0,0,6.764-3.382,23.006,23.006,0,0,0,4.349-3.673,18.485,18.485,0,0,0,2.171-2.875c.223-.345.358-.629.467-.812l.169-.277s-.041.1-.135.291-.23.48-.44.832a17.928,17.928,0,0,1-2.131,2.936,23.02,23.02,0,0,1-4.309,3.72,33.207,33.207,0,0,1-6.764,3.422,80.881,80.881,0,0,1-8.793,2.6c-3.213.8-6.662,1.576-10.146,2.78a31.7,31.7,0,0,0-10.186,5.411,24.731,24.731,0,0,0-7.007,10.146,50.247,50.247,0,0,0-2.868,12.107c-.494,4-.676,7.907-1.008,11.614a74.976,74.976,0,0,1-1.495,10.457,36.2,36.2,0,0,1-3.118,8.665,51.362,51.362,0,0,0-3.294,6.811,11.944,11.944,0,0,0-.629,5.6,7.827,7.827,0,0,0,1.258,3.334A7.21,7.21,0,0,0,212.421,5565.029Z" transform="translate(-200.086 -5469.566)" fill="#e36099"/>
      <path id="Trazado_114442" data-name="Trazado 114442" d="M406.822,5714.235l-19.534,2.651c0,.217-33.143,4.471-33.1,3.917l2.063,10.024-28.063,13.142,15.232,6.256,20.535,20.427s31.635-9.1,39.826-22.077S406.822,5714.235,406.822,5714.235Z" transform="translate(-238.302 -5547.528)" fill="#263238"/>
      <path id="Trazado_114443" data-name="Trazado 114443" d="M358.748,5588.471a47.989,47.989,0,0,1,11.5-.934c6.033.236,11.688,2.131,15.611,5.83,5.668,5.351,7.846,13.813,10.383,22.321,2.246,7.562,6.723,28.022,6.723,28.022l6.906,32.142s-.487,7.928-2.875,9.875-24.532,7.386-30.857,7.386-24.742,4.329-27.123,2.381-1.3-23.619-1.955-26.866-11.045-44.2-11.045-44.2l9.077-27.813Z" transform="translate(-240.836 -5506.515)" fill="#36c"/>
      <path id="Trazado_114444" data-name="Trazado 114444" d="M255.2,5610.014l-15.557-9.659-1.089-8.414c-.1-.778-1.353-3.118-2.5-2.97s-3.321-.223-3.727,2.706l-6.629.724s-2.706,1.536-2.591,3.382a11.664,11.664,0,0,0-1.847,4.058,27.865,27.865,0,0,1-1.353,4.661,2.591,2.591,0,0,0-.616,3.382c1.177,1.955,4.309,2.739,4.309,2.739l6.967.94L247.9,5625.7Z" transform="translate(-202.942 -5506.989)" fill="#ffbe9d"/>
      <path id="Trazado_114445" data-name="Trazado 114445" d="M335.041,5590.769c-5.688-5.885-18.939,4.295-18.939,4.295l-25.628,21.245c-2.259-.6-5.113,1.319-5.113,1.319l-23.146-12.263c-5.8,4.606-12.29,17.525-12.29,17.525s30.7,22.382,37.242,22.646,14.671-4.978,29.585-11.992c14.312-6.764,19.744-17.234,20.068-18.743S340.73,5596.66,335.041,5590.769Z" transform="translate(-212.976 -5506.98)" fill="#36c"/>
      <path id="Trazado_114446" data-name="Trazado 114446" d="M353.306,5590.989a11.374,11.374,0,0,1,5.7.433,9.934,9.934,0,0,1,3.51,2.158,13.407,13.407,0,0,1,2.9,4.058,21.894,21.894,0,0,1,1.725,5.465,23.774,23.774,0,0,1,.358,6.332,17.733,17.733,0,0,1-.622,3.307,20.052,20.052,0,0,1-1.3,3.213,25.734,25.734,0,0,1-1.833,2.942,33.317,33.317,0,0,1-2.131,2.591,48.929,48.929,0,0,1-4.593,4.356,90.958,90.958,0,0,1-8.651,6.291c-2.564,1.65-4.7,2.881-6.2,3.686-.758.4-1.353.676-1.745.9l-.46.223-.162.068a.671.671,0,0,1,.149-.1l.44-.25,1.711-.954c1.475-.846,3.585-2.11,6.128-3.781a93.238,93.238,0,0,0,8.577-6.331,48.366,48.366,0,0,0,4.545-4.342,32.88,32.88,0,0,0,2.11-2.563,24.951,24.951,0,0,0,1.792-2.9,19.556,19.556,0,0,0,1.278-3.152,18.084,18.084,0,0,0,.622-3.24,23.975,23.975,0,0,0-.338-6.236c-.676-3.93-2.279-7.339-4.478-9.416a9.908,9.908,0,0,0-3.382-2.151,10.927,10.927,0,0,0-3-.636,9.466,9.466,0,0,0-1.123-.034,5.967,5.967,0,0,0-.825,0H353.5Z" transform="translate(-242.062 -5507.586)" fill="#263238"/>
      <g id="Grupo_52885" data-name="Grupo 52885" transform="translate(97.716 112.887)" opacity="0.3">
        <path id="Trazado_114447" data-name="Trazado 114447" d="M339.765,5651.209l.318-.082a33.486,33.486,0,0,0,22-16.463A101.174,101.174,0,0,1,339.765,5651.209Z" transform="translate(-339.765 -5634.665)"/>
      </g>
      <path id="Trazado_114448" data-name="Trazado 114448" d="M240.277,5700.479h0s-12.229-48.125-26.379-63.58c-2.78-3.037-5.634-4.816-8.489-4.735,0,0-6.886,4.424-9.253,16.274a50.017,50.017,0,0,0,.2,18.79c3.294,18.262,12.3,63.864,26.061,70.134S296,5748.475,296,5748.475l2.658-26Z" transform="translate(-195.319 -5520.968)" fill="#e36099"/>
      <path id="Trazado_114449" data-name="Trazado 114449" d="M231.408,5674.244s.061.2.162.6.243,1,.433,1.786c.392,1.576.96,3.9,1.691,6.906,1.495,6.013,3.68,14.772,6.669,25.7l-.074-.082,58.4,21.949.122.047v.129c-.846,8.333-1.732,17.031-2.645,26v.169H296c-6.906-.575-14.15-1.271-21.509-2.029-10.038-1.076-19.832-2.273-29.24-3.748-4.735-.75-9.314-1.556-13.791-2.57-2.232-.507-4.43-1.076-6.568-1.786-.528-.189-1.069-.345-1.583-.574a9.849,9.849,0,0,1-1.522-.71l-.737-.406-.676-.494c-.216-.169-.453-.325-.676-.507l-.609-.562c-3.2-3.07-5.283-6.906-7.109-10.612a104.858,104.858,0,0,1-4.518-11.187c-2.536-7.366-4.4-14.387-5.952-20.812s-2.76-12.3-3.767-17.457c-.5-2.584-.94-4.985-1.353-7.2s-.676-4.254-.859-6.087a48.916,48.916,0,0,1-.081-8.516,27.994,27.994,0,0,1,.358-2.956,4.807,4.807,0,0,1-.088.751c-.088.494-.135,1.238-.2,2.205a50.985,50.985,0,0,0,.149,8.5c.176,1.84.467,3.875.886,6.087s.859,4.613,1.353,7.19c1.021,5.154,2.246,11.011,3.815,17.437s3.443,13.433,5.986,20.778a104.529,104.529,0,0,0,4.518,11.147c1.819,3.693,3.9,7.5,7.055,10.511l.6.547a6.691,6.691,0,0,0,.676.494l.676.487.717.393a10.411,10.411,0,0,0,1.488.676c.507.223,1.042.379,1.569.568,2.117.677,4.309,1.265,6.541,1.772,4.457,1,9.064,1.806,13.764,2.557,9.4,1.468,19.189,2.658,29.227,3.733,7.352.785,14.59,1.481,21.5,2.063l-.183.155c.913-8.969,1.806-17.667,2.658-26l.108.169-58.4-22.111h-.054v-.054c-2.963-10.917-5.113-19.683-6.568-25.7l-1.63-6.919c-.176-.785-.311-1.353-.406-1.792S231.408,5674.244,231.408,5674.244Z" transform="translate(-195.297 -5529.729)" fill="#263238"/>
      <path id="Trazado_114450" data-name="Trazado 114450" d="M359.227,5743.083s12.648-1.44,13.649-.615,8.644,3.077,10,6.4c0,0,8.935,6.635,9.551,10.2a24.9,24.9,0,0,1-.487,8.239l-29.267,7.014-16.355-14.387-3.2-6.276.616-6.271s1.7-2.212,3.125.25a27.448,27.448,0,0,1,2.286,5.533l6.027,3.07-4.3-4.18-3.45-11.065s3.443-2.706,5.783,1.718,3.686,5.661,3.686,5.661l7.636,2.456,5.316-2.144s-5.56.3-6.669-.312S358.854,5747.142,359.227,5743.083Z" transform="translate(-243.133 -5555.922)" fill="#ffbe9d"/>
      <path id="Trazado_114451" data-name="Trazado 114451" d="M404.565,5727.545l22.6-14.6c3.165-7.778,2.232-17.234-.575-32.466,0,0,9.638,15.74,11.336,21.13,3.6,11.431,4,21.441-3.49,32.906-6.087,9.327-26.947,19.3-26.947,19.3Z" transform="translate(-263.019 -5536.603)" fill="#e36099"/>
      <path id="Trazado_114452" data-name="Trazado 114452" d="M350.819,5759.966a37.432,37.432,0,0,0,4.43-4.918c2.334-3.077,13.649-9.1,14.015-9.1s10.822-7.129,10.822-7.129,3.064.981.845,5.04-10.207,8.61-9.591,11.072,4.058,4.545,8.746,6.02a54.947,54.947,0,0,0,10.071,1.968s4.18-2.706,4.917-2.09.616,1.6,0,3.815-2.949,3.808-5.039,4.423-7.873,0-7.873,0,2.462,2.583,1.109,5.29h0a4.9,4.9,0,0,1-4.376,2.705h-1.529a1.982,1.982,0,0,1-.92,2.029c-1.231.92-12.114,3.26-14.326,2.645s-17.816.081-17.816.081l2.191-21.5Z" transform="translate(-243.518 -5555.483)" fill="#ffbe9d"/>
      <path id="Trazado_114453" data-name="Trazado 114453" d="M363.008,5781.98a4.688,4.688,0,0,1-1.143-.108c-1.711-.474-12.33-.149-17.708.094h-.392l2.266-22.165,4.471-.365a37.893,37.893,0,0,0,4.3-4.8c2.192-2.881,12.946-8.9,14.2-9.219h0c.528-.2,6.7-4.342,10.728-7.082l.135-.094.156.047a2.919,2.919,0,0,1,1.677,1.609,4.611,4.611,0,0,1-.636,3.917c-1.035,1.9-3.22,3.835-5.337,5.7s-4.5,4-4.234,5.133c.541,2.165,3.565,4.221,8.516,5.79a55.639,55.639,0,0,0,9.882,1.941c1.657-1.062,4.43-2.665,5.222-2.029.96.8.676,2.1.108,4.16-.676,2.34-3.118,4.059-5.269,4.661-1.684.494-5.533.237-7.21.088a4.98,4.98,0,0,1,.676,5.025,5.189,5.189,0,0,1-4.687,2.9h-1.15a2.441,2.441,0,0,1-1.089,1.961C375.393,5780,366.647,5781.98,363.008,5781.98Zm-6.087-1.028a28.976,28.976,0,0,1,5.134.271c2.164.6,12.885-1.725,14.035-2.591a1.676,1.676,0,0,0,.8-1.67l-.108-.426h1.962a4.538,4.538,0,0,0,4.058-2.516c1.231-2.456-1.028-4.883-1.048-4.9l-.629-.677.906.1c.061,0,5.736.6,7.745,0s4.227-2.1,4.809-4.194c.629-2.266.676-3,.108-3.456-.352-.2-2.469.784-4.518,2.11l-.095.067h-.122a56.606,56.606,0,0,1-10.146-1.982c-5.188-1.644-8.374-3.869-8.969-6.263-.386-1.542,1.846-3.511,4.43-5.8,1.975-1.745,4.214-3.72,5.195-5.52a4.044,4.044,0,0,0,.6-3.334,2.222,2.222,0,0,0-1.116-1.164c-10.389,7.068-10.734,7.068-10.863,7.068-.676.209-11.5,6.006-13.751,8.969a37.174,37.174,0,0,1-4.471,4.964l-.081.075-4.139.338-2.124,20.826c1.63-.047,7.778-.3,12.391-.3Z" transform="translate(-243.344 -5555.298)" fill="#eb996e"/>
      <path id="Trazado_114454" data-name="Trazado 114454" d="M409.77,5559.213a5.915,5.915,0,0,0,.717-2.57c.115-3.382-5.039-7.149-6.919-9.923-4.4-6.5-3.477-15.238-6.459-22.51-2-4.85-5.655-8.841-7.988-13.527-2.753-5.54-3.632-12-7.224-17.039a21.583,21.583,0,0,0-12.628-8.184,29.7,29.7,0,0,0-15.192.676l-.041.413a41.575,41.575,0,0,0-8.38,2.171c-2.78,1.048-5.6,3.592-5.858,6.764a7.844,7.844,0,0,0,1.427,4.566,21.2,21.2,0,0,0,18.147,10.254c1.617-.048,3.314-.277,4.8.466a9.906,9.906,0,0,1,4.1,4.62,20.259,20.259,0,0,1,.913,2.665c.676,2.6.94,5.357,2.1,7.792,1.441,3.023,4.8,5.039,5.452,8.326,1.035,5.249-3.734,6.479-6.473,11.072a16.613,16.613,0,0,0-1.664,4.735c-1.894,7.129-.561,18.262,4.829,25.087a4.593,4.593,0,0,0,5.81,1.156c1.6-.872,3.274-1.731,4.985-2.6,2.773-1.617,5.127-2.178,7.264-3.693,4.464-2.347,11.032-3.646,14.495-6.649a12.967,12.967,0,0,0,3.686-3.829l.149-.183Z" transform="translate(-242.055 -5473.273)" fill="#12263f"/>
      <path id="Trazado_114455" data-name="Trazado 114455" d="M397.315,5565.032a1.355,1.355,0,0,1,.054-.236c.041-.176.1-.4.176-.677.162-.608.4-1.5.676-2.658a52.014,52.014,0,0,0,1.562-9.929,28.967,28.967,0,0,0-.46-6.906,22.966,22.966,0,0,0-2.753-7.406,17.626,17.626,0,0,0-6.087-6.176c-1.292-.818-2.665-1.569-3.97-2.489a10.819,10.819,0,0,1-3.382-3.47,11.817,11.817,0,0,1-1.393-4.646c-.183-1.59-.2-3.152-.277-4.681a20.138,20.138,0,0,0-.616-4.424,9.376,9.376,0,0,0-2.029-3.706,15.651,15.651,0,0,0-6.689-4.059c-2.327-.825-4.62-1.353-6.656-2.029-4.058-1.292-7.116-3.233-8.57-5.161a8.949,8.949,0,0,1-1.353-2.4c-.074-.291-.142-.521-.189-.676-.022-.078-.04-.157-.054-.237a1,1,0,0,1,.088.23c.061.169.135.393.223.676a9.261,9.261,0,0,0,1.353,2.34c1.468,1.874,4.484,3.761,8.536,5.012,2.029.636,4.315,1.15,6.683,2a16.058,16.058,0,0,1,6.831,4.139,9.746,9.746,0,0,1,2.083,3.835,20.561,20.561,0,0,1,.636,4.5c.081,1.529.1,3.091.277,4.654a11.436,11.436,0,0,0,1.353,4.5,10.4,10.4,0,0,0,3.274,3.382c1.285.906,2.651,1.657,3.95,2.482a18.35,18.35,0,0,1,3.551,2.828,18.893,18.893,0,0,1,2.624,3.47,23.22,23.22,0,0,1,2.766,7.521,29.062,29.062,0,0,1,.413,6.974,49.454,49.454,0,0,1-1.671,9.949c-.3,1.157-.568,2.029-.751,2.645l-.21.677A.992.992,0,0,1,397.315,5565.032Z" transform="translate(-247.078 -5475.955)" fill="#e36099"/>
      <path id="Trazado_114456" data-name="Trazado 114456" d="M403.427,5530.343a9.008,9.008,0,0,0-.94-2.225,15.005,15.005,0,0,0-4.775-4.5c-1.157-.785-2.476-1.589-3.774-2.625a14.114,14.114,0,0,1-1.874-1.786,12.081,12.081,0,0,1-1.495-2.307,26.7,26.7,0,0,1-1.765-5.573,28.787,28.787,0,0,0-1.813-5.938,10.034,10.034,0,0,0-4.058-4.478,18.763,18.763,0,0,0-5.411-2.029c-1.806-.413-3.551-.676-5.181-.94a33.781,33.781,0,0,1-4.491-1.028,17.185,17.185,0,0,1-3.5-1.488,11.109,11.109,0,0,1-2.293-1.738,8.15,8.15,0,0,1-1.136-1.414l-.244-.406c-.047-.095-.074-.142-.068-.149a13.029,13.029,0,0,0,1.542,1.874,11.961,11.961,0,0,0,2.293,1.664,17.813,17.813,0,0,0,3.477,1.42,34.8,34.8,0,0,0,4.47.981c1.63.257,3.382.5,5.2.906a19.23,19.23,0,0,1,5.5,2.029,10.348,10.348,0,0,1,4.214,4.626,28.725,28.725,0,0,1,1.833,6.007,25.977,25.977,0,0,0,1.718,5.512,11.675,11.675,0,0,0,1.441,2.246,13.464,13.464,0,0,0,1.819,1.759c1.272,1.035,2.577,1.854,3.734,2.651a21.155,21.155,0,0,1,2.969,2.381,10.343,10.343,0,0,1,1.779,2.259,6.842,6.842,0,0,1,.676,1.671,4.086,4.086,0,0,1,.1.46A.507.507,0,0,1,403.427,5530.343Z" transform="translate(-248.793 -5475.518)" fill="#e36099"/>
    </g>
  </g>
</svg>
