<svg xmlns="http://www.w3.org/2000/svg" width="678.198" height="321.64" viewBox="0 0 678.198 321.64">
  <g id="Grupo_53065" data-name="Grupo 53065" transform="translate(7886.189 7643.64)">
    <path id="Trazado_115065" data-name="Trazado 115065" d="M10,0H153.62a10,10,0,0,1,10,10V44.558a10,10,0,0,1-10,10H10a10,10,0,0,1-10-10V10A10,10,0,0,1,10,0Z" transform="translate(-7886.189 -7422.577)" fill="#7cc5ff"/>
    <path id="Trazado_115066" data-name="Trazado 115066" d="M10,0H121.771a10,10,0,0,1,10,10V38.518a10,10,0,0,1-10,10H10a10,10,0,0,1-10-10V10A10,10,0,0,1,10,0Z" transform="translate(-7818.891 -7541.046)" fill="#7cc5ff"/>
    <path id="Trazado_115067" data-name="Trazado 115067" d="M10,0H121.771a10,10,0,0,1,10,10V38.518a10,10,0,0,1-10,10H10a10,10,0,0,1-10-10V10A10,10,0,0,1,10,0Z" transform="translate(-7696.136 -7643.64)" fill="#7cc5ff"/>
    <path id="Trazado_115068" data-name="Trazado 115068" d="M10,0H121.771a10,10,0,0,1,10,10V38.518a10,10,0,0,1-10,10H10a10,10,0,0,1-10-10V10A10,10,0,0,1,10,0Z" transform="translate(-7339.764 -7422.577)" fill="#7cc5ff"/>
    <path id="Trazado_115069" data-name="Trazado 115069" d="M10,0H121.77a10,10,0,0,1,10,10V38.518a10,10,0,0,1-10,10H10a10,10,0,0,1-10-10V10A10,10,0,0,1,10,0Z" transform="translate(-7375.212 -7541.046)" fill="#7cc5ff"/>
    <path id="Trazado_115070" data-name="Trazado 115070" d="M10,0H121.771a10,10,0,0,1,10,10V38.518a10,10,0,0,1-10,10H10a10,10,0,0,1-10-10V10A10,10,0,0,1,10,0Z" transform="translate(-7497.968 -7643.64)" fill="#7cc5ff"/>
    <path id="Trazado_115071" data-name="Trazado 115071" d="M76.408,0A76.408,76.408,0,1,1,0,76.408,76.408,76.408,0,0,1,76.408,0Z" transform="translate(-7608.543 -7486.046)" fill="#69f"/>
    <path id="Trazado_111108" data-name="Trazado 111108" d="M587.846,7554.153h.793a86.051,86.051,0,1,1,25.2,60.846,85.779,85.779,0,0,1-25.2-60.846h-1.587a87.637,87.637,0,1,0,87.637-87.638,87.636,87.636,0,0,0-87.637,87.638Z" transform="translate(-8206.824 -14963.79)" fill="#36c"/>
    <path id="Trazado_111109" data-name="Trazado 111109" d="M614.822,7551.482v5.081H613.11v-12.978H617.9a4.812,4.812,0,0,1,3.338,1.087,3.688,3.688,0,0,1,1.207,2.88,3.638,3.638,0,0,1-1.181,2.91,5.024,5.024,0,0,1-3.383,1.021Zm0-1.4H617.9a3.074,3.074,0,0,0,2.1-.647,2.366,2.366,0,0,0,.731-1.871,2.446,2.446,0,0,0-.731-1.857,2.879,2.879,0,0,0-2-.723h-3.173Z" transform="translate(-8212.199 -14979.689)" fill="#fff"/>
    <path id="Trazado_111110" data-name="Trazado 111110" d="M626.6,7552.472a5.7,5.7,0,0,1,.558-2.55,4.158,4.158,0,0,1,1.551-1.747,4.23,4.23,0,0,1,2.268-.615,4.069,4.069,0,0,1,3.187,1.363,5.25,5.25,0,0,1,1.217,3.628v.116a5.745,5.745,0,0,1-.54,2.527,4.1,4.1,0,0,1-1.541,1.743,4.273,4.273,0,0,1-2.3.624,4.053,4.053,0,0,1-3.178-1.365,5.216,5.216,0,0,1-1.218-3.609Zm1.659.2a4.133,4.133,0,0,0,.744,2.577,2.521,2.521,0,0,0,3.988-.014,4.515,4.515,0,0,0,.74-2.758,4.127,4.127,0,0,0-.752-2.573,2.4,2.4,0,0,0-2-.984,2.367,2.367,0,0,0-1.969.971A4.479,4.479,0,0,0,628.264,7552.667Z" transform="translate(-8214.983 -14980.51)" fill="#fff"/>
    <path id="Trazado_111111" data-name="Trazado 111111" d="M642.1,7556.377h-1.649v-13.691H642.1Z" transform="translate(-8217.84 -14979.504)" fill="#fff"/>
    <path id="Trazado_111112" data-name="Trazado 111112" d="M647.687,7542.7h2l-2.388,2.62-1.328,0Zm-.017,13.682h-1.659v-9.644h1.659Z" transform="translate(-8218.978 -14979.507)" fill="#fff"/>
    <path id="Trazado_111113" data-name="Trazado 111113" d="M653.47,7544.842v2.336h1.8v1.274h-1.8v5.989a1.336,1.336,0,0,0,.241.87,1.013,1.013,0,0,0,.82.29,3.993,3.993,0,0,0,.785-.107v1.33a4.79,4.79,0,0,1-1.266.178,2.053,2.053,0,0,1-1.667-.668,2.873,2.873,0,0,1-.562-1.9v-5.98h-1.756v-1.274h1.756v-2.336Z" transform="translate(-8219.823 -14979.949)" fill="#fff"/>
    <path id="Trazado_111114" data-name="Trazado 111114" d="M659.062,7544.313a.986.986,0,0,1,.245-.678.923.923,0,0,1,.726-.276.938.938,0,0,1,.731.276.975.975,0,0,1,.249.678,1.02,1.02,0,0,1-1.706.669A.953.953,0,0,1,659.062,7544.313Zm1.783,12.2H659.2v-9.645h1.65Z" transform="translate(-8221.68 -14979.643)" fill="#fff"/>
    <path id="Trazado_111115" data-name="Trazado 111115" d="M668.389,7556.216a2.372,2.372,0,0,0,1.541-.535,1.884,1.884,0,0,0,.732-1.338h1.56a2.984,2.984,0,0,1-.571,1.578,3.753,3.753,0,0,1-1.4,1.194,4.059,4.059,0,0,1-1.859.446,3.973,3.973,0,0,1-3.133-1.314,5.236,5.236,0,0,1-1.164-3.6v-.276a5.8,5.8,0,0,1,.517-2.5,3.939,3.939,0,0,1,1.484-1.7,4.217,4.217,0,0,1,2.287-.606,3.869,3.869,0,0,1,2.7.972,3.474,3.474,0,0,1,1.145,2.523h-1.56a2.276,2.276,0,0,0-.709-1.539,2.209,2.209,0,0,0-1.573-.6,2.306,2.306,0,0,0-1.948.9,4.252,4.252,0,0,0-.691,2.617v.311a4.168,4.168,0,0,0,.686,2.568A2.321,2.321,0,0,0,668.389,7556.216Z" transform="translate(-8222.717 -14980.51)" fill="#fff"/>
    <path id="Trazado_111116" data-name="Trazado 111116" d="M682.554,7557.383a3.462,3.462,0,0,1-.232-1.016,3.68,3.68,0,0,1-2.745,1.195,3.4,3.4,0,0,1-2.34-.807,2.608,2.608,0,0,1-.914-2.046,2.724,2.724,0,0,1,1.145-2.339,5.4,5.4,0,0,1,3.222-.833h1.6v-.758a1.85,1.85,0,0,0-.517-1.376,2.079,2.079,0,0,0-1.525-.514,2.4,2.4,0,0,0-1.479.447,1.312,1.312,0,0,0-.6,1.078h-1.659a2.278,2.278,0,0,1,.514-1.4,3.489,3.489,0,0,1,1.391-1.065,4.68,4.68,0,0,1,1.929-.392,3.819,3.819,0,0,1,2.611.833,3.008,3.008,0,0,1,.981,2.3v4.438a5.424,5.424,0,0,0,.339,2.113v.142Zm-2.736-1.257a2.9,2.9,0,0,0,1.47-.4,2.426,2.426,0,0,0,1.007-1.042V7552.7H681q-3.031,0-3.031,1.774a1.5,1.5,0,0,0,.517,1.212A1.983,1.983,0,0,0,679.818,7556.125Z" transform="translate(-8225.24 -14980.51)" fill="#fff"/>
    <path id="Trazado_111117" data-name="Trazado 111117" d="M705.176,7556.563h-1.721l-6.534-10v10H695.2v-12.978h1.72l6.552,10.045v-10.045h1.7Z" transform="translate(-8229.135 -14979.689)" fill="#fff"/>
    <path id="Trazado_111118" data-name="Trazado 111118" d="M717.155,7557.383a3.486,3.486,0,0,1-.232-1.016,3.678,3.678,0,0,1-2.745,1.195,3.406,3.406,0,0,1-2.34-.807,2.609,2.609,0,0,1-.913-2.046,2.724,2.724,0,0,1,1.145-2.339,5.4,5.4,0,0,1,3.222-.833h1.6v-.758a1.853,1.853,0,0,0-.516-1.376,2.08,2.08,0,0,0-1.525-.514,2.4,2.4,0,0,0-1.479.447,1.312,1.312,0,0,0-.6,1.078H711.12a2.282,2.282,0,0,1,.513-1.4,3.5,3.5,0,0,1,1.391-1.065,4.684,4.684,0,0,1,1.93-.392,3.82,3.82,0,0,1,2.611.833,3.007,3.007,0,0,1,.98,2.3v4.438a5.438,5.438,0,0,0,.339,2.113v.142Zm-2.736-1.257a2.9,2.9,0,0,0,1.471-.4,2.42,2.42,0,0,0,1.006-1.042V7552.7H715.6q-3.031,0-3.03,1.774a1.5,1.5,0,0,0,.517,1.212A1.984,1.984,0,0,0,714.419,7556.125Z" transform="translate(-8232.379 -14980.51)" fill="#fff"/>
    <path id="Trazado_111119" data-name="Trazado 111119" d="M727.54,7556.216a2.376,2.376,0,0,0,1.542-.535,1.886,1.886,0,0,0,.731-1.338h1.56a2.988,2.988,0,0,1-.57,1.578,3.761,3.761,0,0,1-1.4,1.194,4.056,4.056,0,0,1-1.859.446,3.974,3.974,0,0,1-3.133-1.314,5.236,5.236,0,0,1-1.164-3.6v-.276a5.8,5.8,0,0,1,.517-2.5,3.936,3.936,0,0,1,1.485-1.7,4.212,4.212,0,0,1,2.286-.606,3.866,3.866,0,0,1,2.7.972,3.47,3.47,0,0,1,1.145,2.523h-1.56a2.276,2.276,0,0,0-.709-1.539,2.206,2.206,0,0,0-1.573-.6,2.307,2.307,0,0,0-1.948.9,4.251,4.251,0,0,0-.69,2.617v.311a4.162,4.162,0,0,0,.687,2.568A2.32,2.32,0,0,0,727.54,7556.216Z" transform="translate(-8234.92 -14980.51)" fill="#fff"/>
    <path id="Trazado_111120" data-name="Trazado 111120" d="M735.834,7544.313a.987.987,0,0,1,.245-.678.921.921,0,0,1,.726-.276.935.935,0,0,1,.73.276.976.976,0,0,1,.25.678,1.02,1.02,0,0,1-1.706.669A.953.953,0,0,1,735.834,7544.313Zm1.783,12.2h-1.649v-9.645h1.649Z" transform="translate(-8237.518 -14979.643)" fill="#fff"/>
    <path id="Trazado_111121" data-name="Trazado 111121" d="M740.853,7552.472a5.7,5.7,0,0,1,.557-2.55,4.158,4.158,0,0,1,1.551-1.747,4.23,4.23,0,0,1,2.268-.615,4.07,4.07,0,0,1,3.187,1.363,5.25,5.25,0,0,1,1.217,3.628v.116a5.745,5.745,0,0,1-.54,2.527,4.1,4.1,0,0,1-1.541,1.743,4.274,4.274,0,0,1-2.3.624,4.053,4.053,0,0,1-3.178-1.365,5.216,5.216,0,0,1-1.217-3.609Zm1.658.2a4.133,4.133,0,0,0,.745,2.577,2.521,2.521,0,0,0,3.988-.014,4.515,4.515,0,0,0,.74-2.758,4.127,4.127,0,0,0-.752-2.573,2.4,2.4,0,0,0-2-.984,2.367,2.367,0,0,0-1.969.971A4.479,4.479,0,0,0,742.511,7552.667Z" transform="translate(-8238.553 -14980.51)" fill="#fff"/>
    <path id="Trazado_111122" data-name="Trazado 111122" d="M756.08,7547.739l.055,1.212a3.511,3.511,0,0,1,2.888-1.391q3.057,0,3.084,3.45v6.373h-1.649V7551a2.223,2.223,0,0,0-.477-1.542,1.912,1.912,0,0,0-1.457-.5,2.388,2.388,0,0,0-1.409.427,2.907,2.907,0,0,0-.944,1.124v6.872h-1.65v-9.644Z" transform="translate(-8241.372 -14980.51)" fill="#fff"/>
    <path id="Trazado_111123" data-name="Trazado 111123" d="M773.094,7557.383a3.46,3.46,0,0,1-.232-1.016,3.68,3.68,0,0,1-2.745,1.195,3.4,3.4,0,0,1-2.34-.807,2.608,2.608,0,0,1-.914-2.046,2.724,2.724,0,0,1,1.145-2.339,5.4,5.4,0,0,1,3.222-.833h1.6v-.758a1.851,1.851,0,0,0-.517-1.376,2.079,2.079,0,0,0-1.525-.514,2.4,2.4,0,0,0-1.479.447,1.312,1.312,0,0,0-.6,1.078h-1.659a2.278,2.278,0,0,1,.513-1.4,3.5,3.5,0,0,1,1.391-1.065,4.68,4.68,0,0,1,1.93-.392,3.818,3.818,0,0,1,2.611.833,3.008,3.008,0,0,1,.981,2.3v4.438a5.423,5.423,0,0,0,.339,2.113v.142Zm-2.736-1.257a2.9,2.9,0,0,0,1.47-.4,2.426,2.426,0,0,0,1.007-1.042V7552.7h-1.292q-3.031,0-3.031,1.774a1.5,1.5,0,0,0,.517,1.212A1.983,1.983,0,0,0,770.358,7556.125Z" transform="translate(-8243.918 -14980.51)" fill="#fff"/>
    <path id="Trazado_111124" data-name="Trazado 111124" d="M781.55,7556.377H779.9v-13.691h1.649Z" transform="translate(-8246.608 -14979.504)" fill="#fff"/>
    <path id="Trazado_111125" data-name="Trazado 111125" d="M633.689,7579.075a5.651,5.651,0,0,1,1.052-3.57,3.579,3.579,0,0,1,5.437-.191v-5.027h1.649v13.691h-1.515l-.08-1.034a3.358,3.358,0,0,1-2.755,1.211,3.294,3.294,0,0,1-2.732-1.372,5.714,5.714,0,0,1-1.056-3.583Zm1.649.187a4.275,4.275,0,0,0,.678,2.568,2.189,2.189,0,0,0,1.872.927,2.406,2.406,0,0,0,2.291-1.408v-4.431a2.424,2.424,0,0,0-2.273-1.364,2.2,2.2,0,0,0-1.889.936A4.7,4.7,0,0,0,635.338,7579.261Z" transform="translate(-8216.445 -14985.197)" fill="#fff"/>
    <path id="Trazado_111126" data-name="Trazado 111126" d="M651.06,7585.16a4.214,4.214,0,0,1-3.191-1.288,4.78,4.78,0,0,1-1.229-3.444v-.3a5.783,5.783,0,0,1,.549-2.563,4.276,4.276,0,0,1,1.533-1.764,3.847,3.847,0,0,1,2.135-.637,3.61,3.61,0,0,1,2.923,1.239,5.363,5.363,0,0,1,1.043,3.547v.687h-6.534a3.433,3.433,0,0,0,.833,2.3,2.621,2.621,0,0,0,2.028.878,2.879,2.879,0,0,0,1.48-.356,3.72,3.72,0,0,0,1.06-.946l1.007.785A4.048,4.048,0,0,1,651.06,7585.16Zm-.2-8.645a2.2,2.2,0,0,0-1.676.726,3.527,3.527,0,0,0-.837,2.037h4.831v-.125a3.142,3.142,0,0,0-.678-1.948A2.072,2.072,0,0,0,650.855,7576.515Z" transform="translate(-8219.116 -14986.203)" fill="#fff"/>
    <path id="Trazado_111127" data-name="Trazado 111127" d="M667.239,7584.163h-1.711v-12.979h1.711Z" transform="translate(-8223.014 -14985.383)" fill="#fff"/>
    <path id="Trazado_111128" data-name="Trazado 111128" d="M672.86,7575.337l.054,1.213a3.514,3.514,0,0,1,2.888-1.391q3.057,0,3.083,3.45v6.373h-1.648V7578.6a2.226,2.226,0,0,0-.477-1.543,1.913,1.913,0,0,0-1.457-.5,2.38,2.38,0,0,0-1.409.428,2.913,2.913,0,0,0-.945,1.124v6.872H671.3v-9.646Z" transform="translate(-8224.204 -14986.203)" fill="#fff"/>
    <path id="Trazado_111129" data-name="Trazado 111129" d="M684.616,7583.929v-8.37h-1.524v-1.276h1.524v-.989a3.284,3.284,0,0,1,.829-2.4,3.132,3.132,0,0,1,2.344-.848,4.308,4.308,0,0,1,1.133.152l-.089,1.329a4.641,4.641,0,0,0-.891-.081,1.606,1.606,0,0,0-1.239.47,1.9,1.9,0,0,0-.437,1.346v1.019h2.059v1.276h-2.059v8.37Z" transform="translate(-8226.637 -14985.148)" fill="#fff"/>
    <path id="Trazado_111130" data-name="Trazado 111130" d="M697.858,7584.983a3.458,3.458,0,0,1-.232-1.016,3.682,3.682,0,0,1-2.745,1.193,3.4,3.4,0,0,1-2.34-.806,2.608,2.608,0,0,1-.914-2.046,2.729,2.729,0,0,1,1.145-2.341,5.4,5.4,0,0,1,3.222-.832h1.6v-.758a1.853,1.853,0,0,0-.517-1.377,2.08,2.08,0,0,0-1.524-.513,2.4,2.4,0,0,0-1.48.446,1.311,1.311,0,0,0-.6,1.078h-1.658a2.272,2.272,0,0,1,.513-1.4,3.5,3.5,0,0,1,1.391-1.065,4.689,4.689,0,0,1,1.93-.392,3.813,3.813,0,0,1,2.611.833,3.006,3.006,0,0,1,.98,2.3v4.438a5.435,5.435,0,0,0,.339,2.113v.143Zm-2.736-1.257a2.9,2.9,0,0,0,1.47-.4,2.423,2.423,0,0,0,1.007-1.043V7580.3h-1.292q-3.031,0-3.03,1.775a1.5,1.5,0,0,0,.517,1.212A1.987,1.987,0,0,0,695.122,7583.726Z" transform="translate(-8228.397 -14986.203)" fill="#fff"/>
    <path id="Trazado_111131" data-name="Trazado 111131" d="M706.047,7575.337l.054,1.213a3.514,3.514,0,0,1,2.888-1.391q3.056,0,3.083,3.45v6.373h-1.649V7578.6a2.23,2.23,0,0,0-.476-1.543,1.914,1.914,0,0,0-1.457-.5,2.382,2.382,0,0,0-1.41.428,2.91,2.91,0,0,0-.944,1.124v6.872h-1.649v-9.646Z" transform="translate(-8231.051 -14986.203)" fill="#fff"/>
    <path id="Trazado_111132" data-name="Trazado 111132" d="M720.933,7583.815a2.374,2.374,0,0,0,1.542-.535,1.887,1.887,0,0,0,.732-1.337h1.559a2.99,2.99,0,0,1-.57,1.578,3.758,3.758,0,0,1-1.4,1.195,4.052,4.052,0,0,1-1.859.445,3.971,3.971,0,0,1-3.133-1.314,5.232,5.232,0,0,1-1.164-3.6v-.277a5.794,5.794,0,0,1,.517-2.5,3.923,3.923,0,0,1,1.484-1.7,4.217,4.217,0,0,1,2.287-.606,3.871,3.871,0,0,1,2.7.97,3.474,3.474,0,0,1,1.145,2.523h-1.559a2.279,2.279,0,0,0-.71-1.538,2.206,2.206,0,0,0-1.572-.6,2.309,2.309,0,0,0-1.948.9,4.251,4.251,0,0,0-.691,2.616v.312a4.16,4.16,0,0,0,.687,2.567A2.319,2.319,0,0,0,720.933,7583.815Z" transform="translate(-8233.557 -14986.203)" fill="#fff"/>
    <path id="Trazado_111133" data-name="Trazado 111133" d="M729.227,7571.913a.987.987,0,0,1,.245-.678.921.921,0,0,1,.726-.275.937.937,0,0,1,.731.275.975.975,0,0,1,.249.678.94.94,0,0,1-.249.669.955.955,0,0,1-.731.268.938.938,0,0,1-.726-.268A.952.952,0,0,1,729.227,7571.913Zm1.783,12.2H729.36v-9.646h1.649Z" transform="translate(-8236.154 -14985.337)" fill="#fff"/>
    <path id="Trazado_111134" data-name="Trazado 111134" d="M740.68,7584.983a3.486,3.486,0,0,1-.232-1.016,3.682,3.682,0,0,1-2.745,1.193,3.405,3.405,0,0,1-2.34-.806,2.609,2.609,0,0,1-.913-2.046,2.728,2.728,0,0,1,1.145-2.341,5.4,5.4,0,0,1,3.222-.832h1.6v-.758a1.856,1.856,0,0,0-.516-1.377,2.082,2.082,0,0,0-1.525-.513,2.4,2.4,0,0,0-1.479.446,1.311,1.311,0,0,0-.6,1.078h-1.659a2.277,2.277,0,0,1,.513-1.4,3.5,3.5,0,0,1,1.391-1.065,4.692,4.692,0,0,1,1.93-.392,3.813,3.813,0,0,1,2.611.833,3.006,3.006,0,0,1,.98,2.3v4.438a5.434,5.434,0,0,0,.339,2.113v.143Zm-2.736-1.257a2.9,2.9,0,0,0,1.471-.4,2.42,2.42,0,0,0,1.006-1.043V7580.3h-1.292q-3.031,0-3.03,1.775a1.5,1.5,0,0,0,.517,1.212A1.987,1.987,0,0,0,737.944,7583.726Z" transform="translate(-8237.231 -14986.203)" fill="#fff"/>
    <path id="Trazado_111135" data-name="Trazado 111135" d="M755.884,7582.614l2.246-7.23H759.9l-3.877,11.134q-.9,2.406-2.862,2.407l-.311-.026-.615-.116v-1.337l.445.036a2.2,2.2,0,0,0,1.306-.338,2.458,2.458,0,0,0,.77-1.24l.366-.98-3.441-9.538h1.8Z" transform="translate(-8240.785 -14986.25)" fill="#fff"/>
    <path id="Trazado_111136" data-name="Trazado 111136" d="M637.323,7608.368h-5.438l-1.221,3.4H628.9l4.957-12.978h1.5l4.965,12.978h-1.756Zm-4.921-1.4h4.412l-2.21-6.071Z" transform="translate(-8215.457 -14991.078)" fill="#fff"/>
    <path id="Trazado_111137" data-name="Trazado 111137" d="M644.655,7606.675a5.652,5.652,0,0,1,1.052-3.57,3.577,3.577,0,0,1,5.437-.192v-5.027h1.649v13.691h-1.515l-.08-1.034a3.359,3.359,0,0,1-2.754,1.212,3.3,3.3,0,0,1-2.733-1.372,5.723,5.723,0,0,1-1.056-3.583Zm1.649.188a4.278,4.278,0,0,0,.678,2.567,2.19,2.19,0,0,0,1.872.927,2.4,2.4,0,0,0,2.291-1.409v-4.43a2.422,2.422,0,0,0-2.272-1.364,2.2,2.2,0,0,0-1.89.936A4.709,4.709,0,0,0,646.3,7606.863Z" transform="translate(-8218.707 -14990.893)" fill="#fff"/>
    <path id="Trazado_111138" data-name="Trazado 111138" d="M657.582,7607.671a5.693,5.693,0,0,1,.557-2.549,4.148,4.148,0,0,1,1.551-1.747,4.215,4.215,0,0,1,2.269-.616,4.065,4.065,0,0,1,3.186,1.365,5.241,5.241,0,0,1,1.218,3.627v.117a5.744,5.744,0,0,1-.54,2.527,4.1,4.1,0,0,1-1.542,1.743,4.269,4.269,0,0,1-2.3.624,4.06,4.06,0,0,1-3.178-1.363,5.226,5.226,0,0,1-1.217-3.61Zm1.659.2a4.125,4.125,0,0,0,.744,2.576,2.522,2.522,0,0,0,3.989-.014,4.513,4.513,0,0,0,.739-2.759,4.115,4.115,0,0,0-.752-2.571,2.4,2.4,0,0,0-2-.986,2.369,2.369,0,0,0-1.97.972A4.475,4.475,0,0,0,659.241,7607.868Z" transform="translate(-8221.374 -14991.897)" fill="#fff"/>
    <path id="Trazado_111139" data-name="Trazado 111139" d="M673.079,7611.578H671.43v-13.691h1.649Z" transform="translate(-8224.23 -14990.893)" fill="#fff"/>
    <path id="Trazado_111140" data-name="Trazado 111140" d="M680.725,7612.761a4.214,4.214,0,0,1-3.192-1.288,4.775,4.775,0,0,1-1.229-3.445v-.3a5.779,5.779,0,0,1,.548-2.563,4.28,4.28,0,0,1,1.533-1.765,3.853,3.853,0,0,1,2.134-.638,3.615,3.615,0,0,1,2.924,1.239,5.368,5.368,0,0,1,1.042,3.549v.686h-6.533a3.43,3.43,0,0,0,.833,2.3,2.618,2.618,0,0,0,2.027.878,2.876,2.876,0,0,0,1.481-.357,3.717,3.717,0,0,0,1.06-.944l1.007.785A4.051,4.051,0,0,1,680.725,7612.761Zm-.206-8.646a2.2,2.2,0,0,0-1.675.726,3.537,3.537,0,0,0-.838,2.038h4.831v-.125a3.141,3.141,0,0,0-.677-1.948A2.07,2.07,0,0,0,680.519,7604.115Z" transform="translate(-8225.236 -14991.897)" fill="#fff"/>
    <path id="Trazado_111141" data-name="Trazado 111141" d="M694.527,7610.025a1.215,1.215,0,0,0-.5-1.039,4.861,4.861,0,0,0-1.756-.638,8.269,8.269,0,0,1-1.988-.641,2.84,2.84,0,0,1-1.087-.891,2.129,2.129,0,0,1-.352-1.23,2.5,2.5,0,0,1,1-2.005,3.914,3.914,0,0,1,2.563-.821,4.029,4.029,0,0,1,2.66.847,2.689,2.689,0,0,1,1.021,2.166h-1.659a1.487,1.487,0,0,0-.575-1.167,2.157,2.157,0,0,0-1.448-.491,2.248,2.248,0,0,0-1.408.393,1.233,1.233,0,0,0-.508,1.024,1,1,0,0,0,.472.9,5.819,5.819,0,0,0,1.706.58,8.859,8.859,0,0,1,2,.659,2.915,2.915,0,0,1,1.137.923,2.267,2.267,0,0,1,.37,1.314,2.469,2.469,0,0,1-1.034,2.073,4.335,4.335,0,0,1-2.683.779,4.85,4.85,0,0,1-2.05-.41,3.32,3.32,0,0,1-1.394-1.146,2.756,2.756,0,0,1-.5-1.59h1.649a1.707,1.707,0,0,0,.664,1.314,2.572,2.572,0,0,0,1.635.486,2.659,2.659,0,0,0,1.5-.379A1.164,1.164,0,0,0,694.527,7610.025Z" transform="translate(-8227.754 -14991.897)" fill="#fff"/>
    <path id="Trazado_111142" data-name="Trazado 111142" d="M704.632,7611.416a2.373,2.373,0,0,0,1.541-.535,1.879,1.879,0,0,0,.732-1.336h1.56a2.986,2.986,0,0,1-.571,1.578,3.746,3.746,0,0,1-1.4,1.193,4.046,4.046,0,0,1-1.859.446,3.973,3.973,0,0,1-3.133-1.314,5.236,5.236,0,0,1-1.164-3.6v-.276a5.811,5.811,0,0,1,.517-2.5,3.95,3.95,0,0,1,1.484-1.7,4.221,4.221,0,0,1,2.287-.606,3.87,3.87,0,0,1,2.7.972,3.469,3.469,0,0,1,1.145,2.523h-1.56a2.278,2.278,0,0,0-.709-1.539,2.208,2.208,0,0,0-1.573-.6,2.308,2.308,0,0,0-1.948.9,4.253,4.253,0,0,0-.69,2.616v.313a4.166,4.166,0,0,0,.686,2.567A2.32,2.32,0,0,0,704.632,7611.416Z" transform="translate(-8230.194 -14991.897)" fill="#fff"/>
    <path id="Trazado_111143" data-name="Trazado 111143" d="M716.808,7612.761a4.214,4.214,0,0,1-3.191-1.288,4.775,4.775,0,0,1-1.229-3.445v-.3a5.779,5.779,0,0,1,.548-2.563,4.281,4.281,0,0,1,1.533-1.765,3.853,3.853,0,0,1,2.134-.638,3.615,3.615,0,0,1,2.924,1.239,5.368,5.368,0,0,1,1.042,3.549v.686h-6.533a3.43,3.43,0,0,0,.833,2.3,2.618,2.618,0,0,0,2.027.878,2.876,2.876,0,0,0,1.481-.357,3.716,3.716,0,0,0,1.06-.944l1.007.785A4.051,4.051,0,0,1,716.808,7612.761Zm-.206-8.646a2.2,2.2,0,0,0-1.676.726,3.538,3.538,0,0,0-.838,2.038h4.831v-.125a3.141,3.141,0,0,0-.677-1.948A2.07,2.07,0,0,0,716.6,7604.115Z" transform="translate(-8232.68 -14991.897)" fill="#fff"/>
    <path id="Trazado_111144" data-name="Trazado 111144" d="M726.659,7602.938l.055,1.212a3.513,3.513,0,0,1,2.888-1.391q3.057,0,3.084,3.45v6.374h-1.649V7606.2a2.221,2.221,0,0,0-.477-1.542,1.907,1.907,0,0,0-1.456-.5,2.389,2.389,0,0,0-1.41.428,2.9,2.9,0,0,0-.944,1.122v6.873H725.1v-9.645Z" transform="translate(-8235.303 -14991.897)" fill="#fff"/>
    <path id="Trazado_111145" data-name="Trazado 111145" d="M741.547,7611.416a2.373,2.373,0,0,0,1.541-.535,1.879,1.879,0,0,0,.732-1.336h1.56a2.986,2.986,0,0,1-.571,1.578,3.746,3.746,0,0,1-1.4,1.193,4.044,4.044,0,0,1-1.859.446,3.973,3.973,0,0,1-3.133-1.314,5.236,5.236,0,0,1-1.164-3.6v-.276a5.812,5.812,0,0,1,.517-2.5,3.951,3.951,0,0,1,1.484-1.7,4.221,4.221,0,0,1,2.287-.606,3.87,3.87,0,0,1,2.7.972,3.468,3.468,0,0,1,1.145,2.523h-1.56a2.278,2.278,0,0,0-.709-1.539,2.208,2.208,0,0,0-1.573-.6,2.308,2.308,0,0,0-1.948.9,4.253,4.253,0,0,0-.69,2.616v.313a4.166,4.166,0,0,0,.686,2.567A2.321,2.321,0,0,0,741.547,7611.416Z" transform="translate(-8237.81 -14991.897)" fill="#fff"/>
    <path id="Trazado_111146" data-name="Trazado 111146" d="M749.841,7599.514a.978.978,0,0,1,.245-.677.916.916,0,0,1,.726-.277.93.93,0,0,1,.731.277.968.968,0,0,1,.25.677,1.021,1.021,0,0,1-1.707.668A.951.951,0,0,1,749.841,7599.514Zm1.783,12.2h-1.649v-9.645h1.649Z" transform="translate(-8240.406 -14991.031)" fill="#fff"/>
    <path id="Trazado_111147" data-name="Trazado 111147" d="M761.292,7612.583a3.462,3.462,0,0,1-.232-1.016,3.681,3.681,0,0,1-2.745,1.194,3.4,3.4,0,0,1-2.34-.807,2.607,2.607,0,0,1-.914-2.046,2.727,2.727,0,0,1,1.145-2.34,5.405,5.405,0,0,1,3.222-.833h1.6v-.757a1.853,1.853,0,0,0-.516-1.377,2.079,2.079,0,0,0-1.525-.513,2.407,2.407,0,0,0-1.48.445,1.313,1.313,0,0,0-.6,1.078h-1.658a2.276,2.276,0,0,1,.513-1.4,3.508,3.508,0,0,1,1.391-1.064,4.667,4.667,0,0,1,1.93-.393,3.813,3.813,0,0,1,2.611.833,3.005,3.005,0,0,1,.98,2.3v4.44a5.437,5.437,0,0,0,.339,2.112v.142Zm-2.736-1.256a2.907,2.907,0,0,0,1.47-.4,2.426,2.426,0,0,0,1.007-1.043V7607.9h-1.292q-3.031,0-3.03,1.773a1.5,1.5,0,0,0,.517,1.212A1.987,1.987,0,0,0,758.557,7611.327Z" transform="translate(-8241.484 -14991.897)" fill="#fff"/>
    <path id="Trazado_111148" data-name="Trazado 111148" d="M567.766,7343.678l62.113,89.957a1.8,1.8,0,0,0,2.546.45,1.89,1.89,0,0,0,.441-2.6l-62.114-89.957a1.8,1.8,0,0,0-2.545-.451,1.89,1.89,0,0,0-.441,2.6" transform="translate(-8202.776 -14937.844)" fill="#69f"/>
    <path id="Trazado_111149" data-name="Trazado 111149" d="M663.57,7448.569l-7.877,18.975-20.521,1.042-.065-.092,28.4-20.017Z" transform="translate(-8224.934 -14970.18)" fill="#69f"/>
    <path id="Trazado_111150" data-name="Trazado 111150" d="M500.5,7440.333l71.069,48.145a1.825,1.825,0,0,0,2.529-.479,1.8,1.8,0,0,0-.48-2.516l-71.069-48.145a1.826,1.826,0,0,0-2.529.478,1.806,1.806,0,0,0,.48,2.517" transform="translate(-8188.803 -14957.707)" fill="#69f"/>
    <path id="Trazado_111151" data-name="Trazado 111151" d="M604.354,7486.054l-.707,20.532-18.846,8.187-.094-.064,19.552-28.719Z" transform="translate(-8214.957 -14974.809)" fill="#69f"/>
    <path id="Trazado_111152" data-name="Trazado 111152" d="M458.357,7592.38l84.438-1.1a2,2,0,0,0-.041-3.969l-84.439,1.1a2,2,0,0,0,.042,3.969" transform="translate(-8179.902 -14988.711)" fill="#69f"/>
    <path id="Trazado_111153" data-name="Trazado 111153" d="M573.946,7567.969l11.173,17.241-10.768,17.5h-.113l-.4-34.741Z" transform="translate(-8214.82 -14984.721)" fill="#69f"/>
    <path id="Trazado_111154" data-name="Trazado 111154" d="M797.066,7341.525,735.675,7431.5a1.9,1.9,0,0,0,.432,2.588,1.758,1.758,0,0,0,2.5-.446L800,7343.668a1.9,1.9,0,0,0-.432-2.589,1.757,1.757,0,0,0-2.5.447" transform="translate(-8230.583 -14937.844)" fill="#69f"/>
    <path id="Trazado_111155" data-name="Trazado 111155" d="M750.213,7469.093,729.7,7468.04l-7.867-18.981.065-.093L750.278,7469Z" transform="translate(-8226.898 -14970.688)" fill="#69f"/>
    <path id="Trazado_111156" data-name="Trazado 111156" d="M863.08,7437.339l-71.335,48.145a1.8,1.8,0,0,0-.482,2.516,1.837,1.837,0,0,0,2.538.479l71.336-48.145a1.8,1.8,0,0,0,.482-2.516,1.838,1.838,0,0,0-2.539-.479" transform="translate(-8242.432 -14957.707)" fill="#69f"/>
    <path id="Trazado_111157" data-name="Trazado 111157" d="M803.352,7514.772l-18.844-8.184-.708-20.536.094-.063,19.552,28.719Z" transform="translate(-8238.121 -14974.808)" fill="#69f"/>
    <path id="Trazado_111158" data-name="Trazado 111158" d="M899.541,7588.411l-84.438-1.1a2,2,0,0,0-.042,3.969l84.438,1.1a2,2,0,0,0,.041-3.969" transform="translate(-8243.555 -14988.711)" fill="#69f"/>
    <path id="Trazado_111159" data-name="Trazado 111159" d="M815.977,7602.708l-10.768-17.5,11.173-17.245h.113l-.4,34.741Z" transform="translate(-8239.885 -14984.719)" fill="#69f"/>
    <path id="Trazado_111160" data-name="Trazado 111160" d="M525.489,7315.331v-11.285h3.185a5.124,5.124,0,0,1,2.6.651,4.4,4.4,0,0,1,1.748,1.853,6.037,6.037,0,0,1,.624,2.758v.722a6.057,6.057,0,0,1-.616,2.8,4.332,4.332,0,0,1-1.76,1.845,5.45,5.45,0,0,1-2.663.659Zm1.488-10.068v8.852h1.565a3.4,3.4,0,0,0,2.678-1.071,4.418,4.418,0,0,0,.957-3.048v-.66a4.492,4.492,0,0,0-.9-2.99,3.213,3.213,0,0,0-2.562-1.082Z" transform="translate(-8194.123 -14930.273)" fill="#12263f"/>
    <path id="Trazado_111161" data-name="Trazado 111161" d="M538.331,7304.68a.857.857,0,0,1,.213-.589.8.8,0,0,1,.632-.24.815.815,0,0,1,.636.24.849.849,0,0,1,.217.589.849.849,0,1,1-1.7,0Zm1.55,10.611h-1.434V7306.9h1.434Z" transform="translate(-8196.772 -14930.232)" fill="#12263f"/>
    <path id="Trazado_111162" data-name="Trazado 111162" d="M543.718,7315.127v-7.277h-1.325v-1.108h1.325v-.86a2.856,2.856,0,0,1,.721-2.085,2.727,2.727,0,0,1,2.039-.736,3.757,3.757,0,0,1,.984.131l-.078,1.155a4.171,4.171,0,0,0-.775-.07,1.4,1.4,0,0,0-1.078.409,1.655,1.655,0,0,0-.379,1.17v.887h1.79v1.108h-1.79v7.277Z" transform="translate(-8197.61 -14930.07)" fill="#12263f"/>
    <path id="Trazado_111163" data-name="Trazado 111163" d="M553.284,7316.2a3.665,3.665,0,0,1-2.775-1.12,4.157,4.157,0,0,1-1.07-3v-.264a5.031,5.031,0,0,1,.477-2.229,3.715,3.715,0,0,1,1.333-1.534,3.348,3.348,0,0,1,1.856-.554,3.14,3.14,0,0,1,2.542,1.077,4.663,4.663,0,0,1,.907,3.085v.6h-5.681a2.978,2.978,0,0,0,.725,2,2.275,2.275,0,0,0,1.763.764,2.492,2.492,0,0,0,1.287-.31,3.226,3.226,0,0,0,.923-.822l.875.683A3.524,3.524,0,0,1,553.284,7316.2Zm-.179-7.519a1.915,1.915,0,0,0-1.457.632,3.064,3.064,0,0,0-.729,1.771h4.2v-.108a2.735,2.735,0,0,0-.589-1.694A1.8,1.8,0,0,0,553.105,7308.681Z" transform="translate(-8199.064 -14930.986)" fill="#12263f"/>
    <path id="Trazado_111164" data-name="Trazado 111164" d="M564.547,7308.944a4.242,4.242,0,0,0-.706-.054,1.891,1.891,0,0,0-1.914,1.2v5.953h-1.433v-8.386h1.394l.024.969a2.232,2.232,0,0,1,2-1.124,1.483,1.483,0,0,1,.636.108Z" transform="translate(-8201.345 -14930.986)" fill="#12263f"/>
    <path id="Trazado_111165" data-name="Trazado 111165" d="M570.466,7316.2a3.667,3.667,0,0,1-2.775-1.12,4.16,4.16,0,0,1-1.069-3v-.264a5.043,5.043,0,0,1,.476-2.229,3.723,3.723,0,0,1,1.333-1.534,3.348,3.348,0,0,1,1.857-.554,3.14,3.14,0,0,1,2.542,1.077,4.663,4.663,0,0,1,.906,3.085v.6h-5.681a2.981,2.981,0,0,0,.725,2,2.277,2.277,0,0,0,1.764.764,2.493,2.493,0,0,0,1.287-.31,3.235,3.235,0,0,0,.922-.822l.876.683A3.525,3.525,0,0,1,570.466,7316.2Zm-.178-7.519a1.913,1.913,0,0,0-1.457.632,3.064,3.064,0,0,0-.729,1.771h4.2v-.108a2.735,2.735,0,0,0-.589-1.694A1.8,1.8,0,0,0,570.288,7308.681Z" transform="translate(-8202.609 -14930.986)" fill="#12263f"/>
    <path id="Trazado_111166" data-name="Trazado 111166" d="M579.032,7307.658l.047,1.054a3.054,3.054,0,0,1,2.511-1.209q2.659,0,2.682,3v5.542h-1.434v-5.549a1.934,1.934,0,0,0-.414-1.341,1.66,1.66,0,0,0-1.268-.434,2.065,2.065,0,0,0-1.225.372,2.523,2.523,0,0,0-.821.977v5.976h-1.434v-8.386Z" transform="translate(-8204.89 -14930.986)" fill="#12263f"/>
    <path id="Trazado_111167" data-name="Trazado 111167" d="M591.979,7315.029a2.062,2.062,0,0,0,1.341-.465,1.635,1.635,0,0,0,.636-1.163h1.356a2.6,2.6,0,0,1-.5,1.373,3.261,3.261,0,0,1-1.221,1.038,3.519,3.519,0,0,1-1.616.388,3.456,3.456,0,0,1-2.725-1.144,4.549,4.549,0,0,1-1.011-3.127v-.241a5.045,5.045,0,0,1,.449-2.178,3.425,3.425,0,0,1,1.291-1.48,3.667,3.667,0,0,1,1.988-.527,3.362,3.362,0,0,1,2.345.844,3.024,3.024,0,0,1,1,2.194h-1.356a1.978,1.978,0,0,0-.616-1.337,1.919,1.919,0,0,0-1.368-.523,2.008,2.008,0,0,0-1.694.787,3.693,3.693,0,0,0-.6,2.275v.271a3.623,3.623,0,0,0,.6,2.232A2.018,2.018,0,0,0,591.979,7315.029Z" transform="translate(-8207.069 -14930.986)" fill="#12263f"/>
    <path id="Trazado_111168" data-name="Trazado 111168" d="M599.19,7304.68a.861.861,0,0,1,.213-.589.8.8,0,0,1,.632-.24.814.814,0,0,1,.636.24.846.846,0,0,1,.217.589.888.888,0,0,1-1.485.582A.832.832,0,0,1,599.19,7304.68Zm1.55,10.611h-1.434V7306.9h1.434Z" transform="translate(-8209.328 -14930.232)" fill="#12263f"/>
    <path id="Trazado_111169" data-name="Trazado 111169" d="M609.149,7316.044a3.034,3.034,0,0,1-.2-.883,3.2,3.2,0,0,1-2.387,1.039,2.96,2.96,0,0,1-2.034-.7,2.27,2.27,0,0,1-.794-1.779,2.37,2.37,0,0,1,1-2.035,4.7,4.7,0,0,1,2.8-.725h1.4v-.659a1.612,1.612,0,0,0-.449-1.2,1.809,1.809,0,0,0-1.326-.445,2.1,2.1,0,0,0-1.287.387,1.143,1.143,0,0,0-.519.938H603.9a1.98,1.98,0,0,1,.445-1.213,3.03,3.03,0,0,1,1.21-.926,4.069,4.069,0,0,1,1.678-.341,3.313,3.313,0,0,1,2.271.725,2.614,2.614,0,0,1,.853,2v3.86a4.723,4.723,0,0,0,.294,1.836v.124Zm-2.38-1.093a2.519,2.519,0,0,0,1.279-.348,2.113,2.113,0,0,0,.876-.907v-1.721H607.8q-2.636,0-2.635,1.542a1.305,1.305,0,0,0,.449,1.054A1.729,1.729,0,0,0,606.769,7314.951Z" transform="translate(-8210.265 -14930.986)" fill="#12263f"/>
    <path id="Trazado_111170" data-name="Trazado 111170" d="M616.5,7315.169h-1.433v-11.905H616.5Z" transform="translate(-8212.604 -14930.111)" fill="#12263f"/>
    <path id="Trazado_111171" data-name="Trazado 111171" d="M396.543,7442.492a3.44,3.44,0,0,1-1.6,1.229,6.47,6.47,0,0,1-2.391.407,4.636,4.636,0,0,1-2.449-.647,4.313,4.313,0,0,1-1.654-1.841,6.346,6.346,0,0,1-.6-2.768v-.984a5.939,5.939,0,0,1,1.19-3.953,4.146,4.146,0,0,1,3.345-1.4,4.284,4.284,0,0,1,2.845.9,3.935,3.935,0,0,1,1.318,2.562h-1.488a2.461,2.461,0,0,0-2.667-2.248,2.635,2.635,0,0,0-2.267,1.051,5.133,5.133,0,0,0-.779,3.044v.924a4.81,4.81,0,0,0,.868,3.021,2.815,2.815,0,0,0,2.349,1.121,5.214,5.214,0,0,0,1.465-.185,2.268,2.268,0,0,0,1.038-.627v-2.529h-2.612v-1.216h4.093Z" transform="translate(-8167.728 -14954.779)" fill="#12263f"/>
    <path id="Trazado_111172" data-name="Trazado 111172" d="M405.03,7444.006a3.664,3.664,0,0,1-2.775-1.12,4.157,4.157,0,0,1-1.069-3v-.264a5.039,5.039,0,0,1,.476-2.229,3.73,3.73,0,0,1,1.333-1.535,3.359,3.359,0,0,1,1.856-.554,3.138,3.138,0,0,1,2.542,1.078,4.661,4.661,0,0,1,.906,3.084v.6h-5.681a2.985,2.985,0,0,0,.725,2,2.279,2.279,0,0,0,1.764.764,2.488,2.488,0,0,0,1.287-.311,3.239,3.239,0,0,0,.922-.821l.876.682A3.523,3.523,0,0,1,405.03,7444.006Zm-.178-7.518a1.911,1.911,0,0,0-1.457.632,3.065,3.065,0,0,0-.729,1.771h4.2v-.108a2.736,2.736,0,0,0-.589-1.694A1.8,1.8,0,0,0,404.852,7436.488Zm.7-4.542h1.736l-2.077,2.279-1.155,0Z" transform="translate(-8170.48 -14954.658)" fill="#12263f"/>
    <path id="Trazado_111173" data-name="Trazado 111173" d="M413.6,7436.339l.047,1.054a3.056,3.056,0,0,1,2.511-1.209q2.659,0,2.682,3v5.542H417.4v-5.549a1.936,1.936,0,0,0-.414-1.341,1.663,1.663,0,0,0-1.268-.434,2.072,2.072,0,0,0-1.225.372,2.535,2.535,0,0,0-.822.977v5.976H412.24v-8.386Z" transform="translate(-8172.76 -14955.533)" fill="#12263f"/>
    <path id="Trazado_111174" data-name="Trazado 111174" d="M426.661,7444.881a3.663,3.663,0,0,1-2.775-1.12,4.158,4.158,0,0,1-1.07-3v-.264a5.04,5.04,0,0,1,.477-2.229,3.724,3.724,0,0,1,1.333-1.535,3.357,3.357,0,0,1,1.857-.554,3.138,3.138,0,0,1,2.542,1.078,4.666,4.666,0,0,1,.906,3.084v.6H424.25a2.981,2.981,0,0,0,.725,2,2.279,2.279,0,0,0,1.764.764,2.49,2.49,0,0,0,1.287-.311,3.239,3.239,0,0,0,.922-.821l.876.682A3.523,3.523,0,0,1,426.661,7444.881Zm-.178-7.518a1.911,1.911,0,0,0-1.457.632,3.06,3.06,0,0,0-.729,1.771h4.2v-.108a2.732,2.732,0,0,0-.59-1.694A1.8,1.8,0,0,0,426.483,7437.363Z" transform="translate(-8174.942 -14955.533)" fill="#12263f"/>
    <path id="Trazado_111175" data-name="Trazado 111175" d="M437.924,7437.626a4.237,4.237,0,0,0-.7-.055,1.889,1.889,0,0,0-1.914,1.2v5.953h-1.434v-8.386h1.4l.023.969a2.234,2.234,0,0,1,2-1.124,1.471,1.471,0,0,1,.635.108Z" transform="translate(-8177.223 -14955.533)" fill="#12263f"/>
    <path id="Trazado_111176" data-name="Trazado 111176" d="M439.98,7440.455a4.952,4.952,0,0,1,.485-2.217,3.609,3.609,0,0,1,1.349-1.519,3.673,3.673,0,0,1,1.972-.535,3.539,3.539,0,0,1,2.772,1.186,4.565,4.565,0,0,1,1.058,3.155v.1a5.01,5.01,0,0,1-.469,2.2,3.557,3.557,0,0,1-1.341,1.515,3.707,3.707,0,0,1-2,.542,3.529,3.529,0,0,1-2.764-1.186,4.541,4.541,0,0,1-1.058-3.139Zm1.442.17a3.586,3.586,0,0,0,.647,2.24,2.193,2.193,0,0,0,3.468-.011,3.928,3.928,0,0,0,.644-2.4,3.579,3.579,0,0,0-.655-2.236,2.08,2.08,0,0,0-1.741-.856,2.059,2.059,0,0,0-1.713.844A3.9,3.9,0,0,0,441.422,7440.625Z" transform="translate(-8178.483 -14955.533)" fill="#12263f"/>
    <path id="Trazado_111177" data-name="Trazado 111177" d="M768.924,7315.331h-1.488v-11.285h1.488Z" transform="translate(-8244.036 -14930.273)" fill="#12263f"/>
    <path id="Trazado_111178" data-name="Trazado 111178" d="M773.811,7307.658l.047,1.054a3.054,3.054,0,0,1,2.511-1.209q2.658,0,2.682,3v5.542h-1.434v-5.549a1.933,1.933,0,0,0-.414-1.341,1.661,1.661,0,0,0-1.268-.434,2.065,2.065,0,0,0-1.225.372,2.516,2.516,0,0,0-.821.977v5.976h-1.434v-8.386Z" transform="translate(-8245.072 -14930.986)" fill="#12263f"/>
    <path id="Trazado_111179" data-name="Trazado 111179" d="M785.171,7305.139v2.031h1.566v1.108h-1.566v5.207a1.164,1.164,0,0,0,.21.757.882.882,0,0,0,.713.251,3.463,3.463,0,0,0,.683-.093v1.156a4.176,4.176,0,0,1-1.1.155,1.784,1.784,0,0,1-1.449-.582,2.5,2.5,0,0,1-.488-1.651v-5.2h-1.527v-1.108h1.527v-2.031Z" transform="translate(-8247.085 -14930.498)" fill="#12263f"/>
    <path id="Trazado_111180" data-name="Trazado 111180" d="M793.409,7316.2a3.667,3.667,0,0,1-2.775-1.12,4.161,4.161,0,0,1-1.07-3v-.264a5.042,5.042,0,0,1,.477-2.229,3.717,3.717,0,0,1,1.333-1.534,3.346,3.346,0,0,1,1.857-.554,3.141,3.141,0,0,1,2.542,1.077,4.667,4.667,0,0,1,.906,3.085v.6H791a2.977,2.977,0,0,0,.725,2,2.276,2.276,0,0,0,1.764.764,2.493,2.493,0,0,0,1.287-.31,3.234,3.234,0,0,0,.922-.822l.876.683A3.525,3.525,0,0,1,793.409,7316.2Zm-.178-7.519a1.913,1.913,0,0,0-1.457.632,3.065,3.065,0,0,0-.729,1.771h4.2v-.108a2.731,2.731,0,0,0-.59-1.694A1.8,1.8,0,0,0,793.231,7308.681Z" transform="translate(-8248.602 -14930.986)" fill="#12263f"/>
    <path id="Trazado_111181" data-name="Trazado 111181" d="M804.673,7308.944a4.256,4.256,0,0,0-.706-.054,1.89,1.89,0,0,0-1.914,1.2v5.953h-1.434v-8.386h1.4l.023.969a2.233,2.233,0,0,1,2-1.124,1.486,1.486,0,0,1,.636.108Z" transform="translate(-8250.882 -14930.986)" fill="#12263f"/>
    <path id="Trazado_111182" data-name="Trazado 111182" d="M812.179,7313.82a1.055,1.055,0,0,0-.438-.9,4.2,4.2,0,0,0-1.527-.554,7.231,7.231,0,0,1-1.728-.558,2.459,2.459,0,0,1-.946-.775,1.856,1.856,0,0,1-.305-1.07,2.175,2.175,0,0,1,.871-1.744,3.405,3.405,0,0,1,2.229-.713,3.5,3.5,0,0,1,2.314.736,2.341,2.341,0,0,1,.887,1.884h-1.441a1.294,1.294,0,0,0-.5-1.016,1.873,1.873,0,0,0-1.26-.426,1.963,1.963,0,0,0-1.225.341,1.074,1.074,0,0,0-.442.892.869.869,0,0,0,.411.782,5.053,5.053,0,0,0,1.484.5,7.732,7.732,0,0,1,1.74.573,2.551,2.551,0,0,1,.988.8,1.967,1.967,0,0,1,.322,1.144,2.146,2.146,0,0,1-.9,1.8,3.775,3.775,0,0,1-2.333.679,4.217,4.217,0,0,1-1.783-.357,2.9,2.9,0,0,1-1.213-1,2.4,2.4,0,0,1-.438-1.384h1.434a1.485,1.485,0,0,0,.577,1.144,2.246,2.246,0,0,0,1.422.422,2.316,2.316,0,0,0,1.306-.33A1.012,1.012,0,0,0,812.179,7313.82Z" transform="translate(-8252.188 -14930.986)" fill="#12263f"/>
    <path id="Trazado_111183" data-name="Trazado 111183" d="M821.085,7316.2a3.665,3.665,0,0,1-2.775-1.12,4.157,4.157,0,0,1-1.07-3v-.264a5.032,5.032,0,0,1,.477-2.229,3.721,3.721,0,0,1,1.333-1.534,3.35,3.35,0,0,1,1.857-.554,3.139,3.139,0,0,1,2.542,1.077,4.663,4.663,0,0,1,.907,3.085v.6h-5.681a2.978,2.978,0,0,0,.725,2,2.276,2.276,0,0,0,1.764.764,2.5,2.5,0,0,0,1.287-.31,3.235,3.235,0,0,0,.922-.822l.875.683A3.524,3.524,0,0,1,821.085,7316.2Zm-.179-7.519a1.916,1.916,0,0,0-1.457.632,3.069,3.069,0,0,0-.729,1.771h4.2v-.108a2.726,2.726,0,0,0-.589-1.694A1.8,1.8,0,0,0,820.906,7308.681Z" transform="translate(-8254.312 -14930.986)" fill="#12263f"/>
    <path id="Trazado_111184" data-name="Trazado 111184" d="M831.562,7315.029a2.064,2.064,0,0,0,1.341-.465,1.634,1.634,0,0,0,.635-1.163h1.356a2.6,2.6,0,0,1-.5,1.373,3.249,3.249,0,0,1-1.221,1.038,3.517,3.517,0,0,1-1.616.388,3.454,3.454,0,0,1-2.724-1.144,4.549,4.549,0,0,1-1.012-3.127v-.241a5.045,5.045,0,0,1,.45-2.178,3.415,3.415,0,0,1,1.291-1.48,3.666,3.666,0,0,1,1.987-.527,3.364,3.364,0,0,1,2.345.844,3.02,3.02,0,0,1,1,2.194h-1.356a1.971,1.971,0,0,0-.616-1.337,1.919,1.919,0,0,0-1.368-.523,2.006,2.006,0,0,0-1.693.787,3.693,3.693,0,0,0-.6,2.275v.271a3.623,3.623,0,0,0,.6,2.232A2.018,2.018,0,0,0,831.562,7315.029Z" transform="translate(-8256.495 -14930.986)" fill="#12263f"/>
    <path id="Trazado_111185" data-name="Trazado 111185" d="M842.031,7315.029a2.061,2.061,0,0,0,1.341-.465,1.635,1.635,0,0,0,.636-1.163h1.356a2.6,2.6,0,0,1-.5,1.373,3.255,3.255,0,0,1-1.221,1.038,3.519,3.519,0,0,1-1.616.388,3.456,3.456,0,0,1-2.725-1.144,4.553,4.553,0,0,1-1.011-3.127v-.241a5.045,5.045,0,0,1,.449-2.178,3.425,3.425,0,0,1,1.291-1.48,3.667,3.667,0,0,1,1.988-.527,3.361,3.361,0,0,1,2.345.844,3.024,3.024,0,0,1,1,2.194h-1.356a1.974,1.974,0,0,0-.616-1.337,1.919,1.919,0,0,0-1.368-.523,2.008,2.008,0,0,0-1.694.787,3.694,3.694,0,0,0-.6,2.275v.271a3.629,3.629,0,0,0,.6,2.232A2.018,2.018,0,0,0,842.031,7315.029Z" transform="translate(-8258.654 -14930.986)" fill="#12263f"/>
    <path id="Trazado_111186" data-name="Trazado 111186" d="M849.242,7304.68a.858.858,0,0,1,.214-.589.8.8,0,0,1,.632-.24.813.813,0,0,1,.635.24.846.846,0,0,1,.217.589.888.888,0,0,1-1.484.582A.829.829,0,0,1,849.242,7304.68Zm1.55,10.611h-1.433V7306.9h1.433Z" transform="translate(-8260.913 -14930.232)" fill="#12263f"/>
    <path id="Trazado_111187" data-name="Trazado 111187" d="M853.607,7311.773a4.949,4.949,0,0,1,.485-2.216,3.615,3.615,0,0,1,1.349-1.52,3.673,3.673,0,0,1,1.972-.534,3.539,3.539,0,0,1,2.772,1.186,4.564,4.564,0,0,1,1.058,3.154v.1a5.011,5.011,0,0,1-.469,2.2,3.562,3.562,0,0,1-1.341,1.515,3.712,3.712,0,0,1-2,.543,3.529,3.529,0,0,1-2.764-1.186,4.544,4.544,0,0,1-1.058-3.14Zm1.442.171a3.587,3.587,0,0,0,.647,2.24,2.193,2.193,0,0,0,3.469-.012,3.927,3.927,0,0,0,.644-2.4,3.583,3.583,0,0,0-.655-2.236,2.083,2.083,0,0,0-1.741-.856,2.059,2.059,0,0,0-1.713.845A3.9,3.9,0,0,0,855.049,7311.944Z" transform="translate(-8261.813 -14930.986)" fill="#12263f"/>
    <path id="Trazado_111188" data-name="Trazado 111188" d="M866.848,7307.658l.047,1.054a3.054,3.054,0,0,1,2.511-1.209q2.658,0,2.682,3v5.542h-1.434v-5.549a1.933,1.933,0,0,0-.414-1.341,1.66,1.66,0,0,0-1.268-.434,2.065,2.065,0,0,0-1.225.372,2.523,2.523,0,0,0-.821.977v5.976h-1.434v-8.386Z" transform="translate(-8264.266 -14930.986)" fill="#12263f"/>
    <path id="Trazado_111189" data-name="Trazado 111189" d="M881.643,7316.044a2.981,2.981,0,0,1-.2-.883,3.2,3.2,0,0,1-2.387,1.039,2.96,2.96,0,0,1-2.034-.7,2.27,2.27,0,0,1-.795-1.779,2.372,2.372,0,0,1,1-2.035,4.7,4.7,0,0,1,2.8-.725h1.4v-.659a1.609,1.609,0,0,0-.45-1.2,1.808,1.808,0,0,0-1.325-.445,2.1,2.1,0,0,0-1.287.387,1.143,1.143,0,0,0-.519.938h-1.442a1.981,1.981,0,0,1,.446-1.213,3.032,3.032,0,0,1,1.209-.926,4.076,4.076,0,0,1,1.679-.341,3.314,3.314,0,0,1,2.271.725,2.613,2.613,0,0,1,.852,2v3.86a4.723,4.723,0,0,0,.295,1.836v.124Zm-2.38-1.093a2.521,2.521,0,0,0,1.279-.348,2.114,2.114,0,0,0,.876-.907v-1.721h-1.124q-2.636,0-2.636,1.542a1.305,1.305,0,0,0,.45,1.054A1.728,1.728,0,0,0,879.263,7314.951Z" transform="translate(-8266.479 -14930.986)" fill="#12263f"/>
    <path id="Trazado_111190" data-name="Trazado 111190" d="M889,7315.169h-1.434v-11.905H889Z" transform="translate(-8268.818 -14930.111)" fill="#12263f"/>
    <path id="Trazado_111191" data-name="Trazado 111191" d="M934.459,7433.681V7422.4h3.186a5.126,5.126,0,0,1,2.6.651A4.408,4.408,0,0,1,942,7424.9a6.03,6.03,0,0,1,.624,2.76v.721a6.059,6.059,0,0,1-.616,2.8,4.343,4.343,0,0,1-1.76,1.845,5.454,5.454,0,0,1-2.662.659Zm1.488-10.069v8.852h1.566a3.405,3.405,0,0,0,2.678-1.071,4.428,4.428,0,0,0,.957-3.049v-.659a4.491,4.491,0,0,0-.9-2.99,3.215,3.215,0,0,0-2.562-1.083Z" transform="translate(-8278.494 -14954.688)" fill="#12263f"/>
    <path id="Trazado_111192" data-name="Trazado 111192" d="M950.677,7434.549a3.661,3.661,0,0,1-2.775-1.12,4.153,4.153,0,0,1-1.07-3v-.264a5.025,5.025,0,0,1,.477-2.229,3.725,3.725,0,0,1,1.333-1.535,3.355,3.355,0,0,1,1.857-.554,3.138,3.138,0,0,1,2.542,1.077,4.664,4.664,0,0,1,.907,3.085v.6h-5.681a2.981,2.981,0,0,0,.725,2,2.279,2.279,0,0,0,1.763.764,2.5,2.5,0,0,0,1.287-.311,3.247,3.247,0,0,0,.922-.821l.875.682A3.522,3.522,0,0,1,950.677,7434.549Zm-.179-7.519a1.917,1.917,0,0,0-1.457.631,3.074,3.074,0,0,0-.729,1.771h4.2v-.108a2.733,2.733,0,0,0-.589-1.693A1.8,1.8,0,0,0,950.5,7427.03Z" transform="translate(-8281.046 -14955.402)" fill="#12263f"/>
    <path id="Trazado_111193" data-name="Trazado 111193" d="M962.679,7432.169a1.055,1.055,0,0,0-.438-.9,4.211,4.211,0,0,0-1.527-.555,7.233,7.233,0,0,1-1.728-.558,2.459,2.459,0,0,1-.946-.775,1.857,1.857,0,0,1-.305-1.069,2.175,2.175,0,0,1,.871-1.744,3.405,3.405,0,0,1,2.229-.713,3.507,3.507,0,0,1,2.314.736,2.338,2.338,0,0,1,.887,1.883h-1.441a1.293,1.293,0,0,0-.5-1.015,1.869,1.869,0,0,0-1.26-.427,1.966,1.966,0,0,0-1.225.341,1.073,1.073,0,0,0-.442.892.871.871,0,0,0,.411.783,5.061,5.061,0,0,0,1.484.5,7.751,7.751,0,0,1,1.74.574,2.534,2.534,0,0,1,.988.8,1.964,1.964,0,0,1,.322,1.143,2.148,2.148,0,0,1-.9,1.8,3.778,3.778,0,0,1-2.333.678,4.217,4.217,0,0,1-1.783-.356,2.908,2.908,0,0,1-1.213-1,2.4,2.4,0,0,1-.438-1.384h1.434a1.481,1.481,0,0,0,.577,1.143,2.238,2.238,0,0,0,1.422.424,2.312,2.312,0,0,0,1.306-.33A1.013,1.013,0,0,0,962.679,7432.169Z" transform="translate(-8283.236 -14955.402)" fill="#12263f"/>
    <path id="Trazado_111194" data-name="Trazado 111194" d="M973.315,7434.394a2.974,2.974,0,0,1-.2-.883,3.2,3.2,0,0,1-2.387,1.038,2.961,2.961,0,0,1-2.035-.7,2.268,2.268,0,0,1-.794-1.778,2.369,2.369,0,0,1,1-2.034,4.7,4.7,0,0,1,2.8-.725h1.395v-.659a1.608,1.608,0,0,0-.449-1.2,1.809,1.809,0,0,0-1.325-.446,2.1,2.1,0,0,0-1.287.388,1.141,1.141,0,0,0-.519.938h-1.442a1.976,1.976,0,0,1,.446-1.212,3.03,3.03,0,0,1,1.209-.927,4.083,4.083,0,0,1,1.679-.341,3.32,3.32,0,0,1,2.271.725,2.613,2.613,0,0,1,.852,2v3.86a4.727,4.727,0,0,0,.294,1.837v.124Zm-2.38-1.093a2.522,2.522,0,0,0,1.279-.349,2.1,2.1,0,0,0,.875-.907v-1.721h-1.124q-2.635,0-2.635,1.543a1.3,1.3,0,0,0,.45,1.054A1.722,1.722,0,0,0,970.935,7433.3Z" transform="translate(-8285.392 -14955.402)" fill="#12263f"/>
    <path id="Trazado_111195" data-name="Trazado 111195" d="M983.132,7427.294a4.306,4.306,0,0,0-.706-.055,1.89,1.89,0,0,0-1.914,1.2v5.953h-1.434v-8.386h1.4l.023.968a2.234,2.234,0,0,1,2-1.123,1.47,1.47,0,0,1,.636.108Z" transform="translate(-8287.698 -14955.402)" fill="#12263f"/>
    <path id="Trazado_111196" data-name="Trazado 111196" d="M989.9,7427.294a4.293,4.293,0,0,0-.706-.055,1.891,1.891,0,0,0-1.914,1.2v5.953h-1.433v-8.386h1.395l.024.968a2.233,2.233,0,0,1,2-1.123,1.468,1.468,0,0,1,.636.108Z" transform="translate(-8289.095 -14955.402)" fill="#12263f"/>
    <path id="Trazado_111197" data-name="Trazado 111197" d="M991.955,7430.123a4.954,4.954,0,0,1,.484-2.217,3.621,3.621,0,0,1,1.349-1.52,3.669,3.669,0,0,1,1.972-.534,3.535,3.535,0,0,1,2.771,1.186,4.561,4.561,0,0,1,1.058,3.154v.1a4.993,4.993,0,0,1-.469,2.2,3.559,3.559,0,0,1-1.341,1.517,3.716,3.716,0,0,1-2,.542,3.528,3.528,0,0,1-2.764-1.187,4.535,4.535,0,0,1-1.058-3.139Zm1.441.171a3.585,3.585,0,0,0,.648,2.239,2.192,2.192,0,0,0,3.468-.011,3.927,3.927,0,0,0,.644-2.4,3.583,3.583,0,0,0-.656-2.236,2.08,2.08,0,0,0-1.74-.856,2.058,2.058,0,0,0-1.713.845A3.9,3.9,0,0,0,993.4,7430.294Z" transform="translate(-8290.355 -14955.402)" fill="#12263f"/>
    <path id="Trazado_111198" data-name="Trazado 111198" d="M1005.43,7433.52H1004v-11.906h1.434Z" transform="translate(-8292.839 -14954.527)" fill="#12263f"/>
    <path id="Trazado_111199" data-name="Trazado 111199" d="M1010.283,7433.52h-1.433v-11.906h1.433Z" transform="translate(-8293.841 -14954.527)" fill="#12263f"/>
    <path id="Trazado_111200" data-name="Trazado 111200" d="M1013.068,7430.123a4.943,4.943,0,0,1,.485-2.217,3.613,3.613,0,0,1,1.348-1.52,3.671,3.671,0,0,1,1.972-.534,3.534,3.534,0,0,1,2.771,1.186,4.561,4.561,0,0,1,1.058,3.154v.1a5,5,0,0,1-.468,2.2,3.56,3.56,0,0,1-1.341,1.517,3.715,3.715,0,0,1-2,.542,3.527,3.527,0,0,1-2.764-1.187,4.539,4.539,0,0,1-1.058-3.139Zm1.442.171a3.585,3.585,0,0,0,.647,2.239,2.192,2.192,0,0,0,3.468-.011,3.928,3.928,0,0,0,.644-2.4,3.588,3.588,0,0,0-.655-2.236,2.083,2.083,0,0,0-1.741-.856,2.059,2.059,0,0,0-1.713.845A3.9,3.9,0,0,0,1014.51,7430.294Z" transform="translate(-8294.711 -14955.402)" fill="#12263f"/>
    <path id="Trazado_111201" data-name="Trazado 111201" d="M950.447,7457.681h-1.5v-5.216h-5.689v5.216h-1.488V7446.4h1.488v4.852h5.689V7446.4h1.5Z" transform="translate(-8280.003 -14959.64)" fill="#12263f"/>
    <path id="Trazado_111202" data-name="Trazado 111202" d="M960.917,7457.6a3.044,3.044,0,0,1-2.456.984,2.608,2.608,0,0,1-2.042-.778,3.376,3.376,0,0,1-.71-2.306v-5.457h1.434v5.418q0,1.906,1.55,1.906a2.148,2.148,0,0,0,2.186-1.225v-6.1h1.433v8.386h-1.364Z" transform="translate(-8282.878 -14960.393)" fill="#12263f"/>
    <path id="Trazado_111203" data-name="Trazado 111203" d="M968.12,7450.008l.038.93a3.1,3.1,0,0,1,2.488-1.085,2.4,2.4,0,0,1,2.4,1.348,3.174,3.174,0,0,1,1.089-.977,3.214,3.214,0,0,1,1.585-.371q2.758,0,2.806,2.922v5.619h-1.434v-5.534a1.927,1.927,0,0,0-.41-1.345,1.81,1.81,0,0,0-1.379-.446,1.9,1.9,0,0,0-1.326.478,1.93,1.93,0,0,0-.613,1.282v5.565h-1.441v-5.5a1.6,1.6,0,0,0-1.791-1.83,1.92,1.92,0,0,0-1.93,1.2v6.123h-1.433v-8.386Z" transform="translate(-8285.158 -14960.354)" fill="#12263f"/>
    <path id="Trazado_111204" data-name="Trazado 111204" d="M989.418,7458.394a3.03,3.03,0,0,1-.2-.883,3.2,3.2,0,0,1-2.387,1.038,2.958,2.958,0,0,1-2.034-.7,2.267,2.267,0,0,1-.794-1.778,2.369,2.369,0,0,1,1-2.034,4.7,4.7,0,0,1,2.8-.725h1.4v-.659a1.612,1.612,0,0,0-.449-1.2,1.81,1.81,0,0,0-1.326-.446,2.093,2.093,0,0,0-1.287.388,1.142,1.142,0,0,0-.52.938h-1.441a1.975,1.975,0,0,1,.445-1.212,3.027,3.027,0,0,1,1.21-.927,4.077,4.077,0,0,1,1.678-.341,3.317,3.317,0,0,1,2.271.725,2.613,2.613,0,0,1,.853,2v3.86a4.727,4.727,0,0,0,.294,1.837v.124Zm-2.38-1.093a2.517,2.517,0,0,0,1.279-.349,2.106,2.106,0,0,0,.876-.907v-1.721h-1.124q-2.636,0-2.635,1.543a1.3,1.3,0,0,0,.449,1.054A1.724,1.724,0,0,0,987.038,7457.3Z" transform="translate(-8288.714 -14960.354)" fill="#12263f"/>
    <path id="Trazado_111205" data-name="Trazado 111205" d="M996.538,7450.008l.046,1.054a3.056,3.056,0,0,1,2.511-1.209q2.66,0,2.682,3v5.541h-1.433v-5.549a1.934,1.934,0,0,0-.415-1.342,1.664,1.664,0,0,0-1.268-.435,2.071,2.071,0,0,0-1.225.373,2.526,2.526,0,0,0-.821.977v5.976h-1.433v-8.386Z" transform="translate(-8291.021 -14960.354)" fill="#12263f"/>
    <path id="Trazado_111206" data-name="Trazado 111206" d="M1005.738,7454.123a4.943,4.943,0,0,1,.485-2.217,3.615,3.615,0,0,1,1.349-1.52,3.671,3.671,0,0,1,1.972-.534,3.534,3.534,0,0,1,2.771,1.186,4.561,4.561,0,0,1,1.058,3.154v.1a5,5,0,0,1-.468,2.2,3.561,3.561,0,0,1-1.341,1.517,3.716,3.716,0,0,1-2,.542,3.527,3.527,0,0,1-2.764-1.187,4.539,4.539,0,0,1-1.058-3.139Zm1.442.171a3.585,3.585,0,0,0,.647,2.239,2.193,2.193,0,0,0,3.469-.011,3.928,3.928,0,0,0,.644-2.4,3.588,3.588,0,0,0-.655-2.236,2.083,2.083,0,0,0-1.741-.856,2.059,2.059,0,0,0-1.713.845A3.9,3.9,0,0,0,1007.18,7454.294Z" transform="translate(-8293.198 -14960.354)" fill="#12263f"/>
    <path id="Trazado_111207" data-name="Trazado 111207" d="M319.023,7583.091v-11.285h3.186a5.126,5.126,0,0,1,2.6.651,4.4,4.4,0,0,1,1.748,1.853,6.028,6.028,0,0,1,.625,2.759v.721a6.05,6.05,0,0,1-.617,2.8,4.332,4.332,0,0,1-1.76,1.844,5.449,5.449,0,0,1-2.662.659Zm1.488-10.068v8.852h1.566a3.4,3.4,0,0,0,2.678-1.071,4.423,4.423,0,0,0,.957-3.05v-.658a4.491,4.491,0,0,0-.9-2.991,3.209,3.209,0,0,0-2.561-1.082Z" transform="translate(-8161.53 -14983.512)" fill="#12263f"/>
    <path id="Trazado_111208" data-name="Trazado 111208" d="M335.241,7583.96a3.664,3.664,0,0,1-2.775-1.12,4.158,4.158,0,0,1-1.07-3v-.264a5.038,5.038,0,0,1,.477-2.229,3.712,3.712,0,0,1,1.333-1.534,3.35,3.35,0,0,1,1.856-.555,3.14,3.14,0,0,1,2.542,1.078,4.664,4.664,0,0,1,.906,3.084v.6H332.83a2.982,2.982,0,0,0,.725,2,2.279,2.279,0,0,0,1.764.764,2.488,2.488,0,0,0,1.287-.311,3.234,3.234,0,0,0,.922-.822l.876.682A3.523,3.523,0,0,1,335.241,7583.96Zm-.178-7.518a1.911,1.911,0,0,0-1.457.632,3.065,3.065,0,0,0-.729,1.771h4.2v-.108a2.728,2.728,0,0,0-.59-1.693A1.8,1.8,0,0,0,335.063,7576.442Z" transform="translate(-8164.083 -14984.225)" fill="#12263f"/>
    <path id="Trazado_111209" data-name="Trazado 111209" d="M346.505,7576.706a4.253,4.253,0,0,0-.706-.055,1.889,1.889,0,0,0-1.914,1.2v5.953h-1.434v-8.386h1.4l.023.968a2.234,2.234,0,0,1,2-1.124,1.469,1.469,0,0,1,.636.109Z" transform="translate(-8166.363 -14984.225)" fill="#12263f"/>
    <path id="Trazado_111210" data-name="Trazado 111210" d="M352.425,7583.96a3.661,3.661,0,0,1-2.775-1.12,4.154,4.154,0,0,1-1.07-3v-.264a5.027,5.027,0,0,1,.477-2.229,3.716,3.716,0,0,1,1.333-1.534,3.352,3.352,0,0,1,1.857-.555,3.139,3.139,0,0,1,2.542,1.078,4.66,4.66,0,0,1,.907,3.084v.6h-5.681a2.983,2.983,0,0,0,.725,2,2.279,2.279,0,0,0,1.763.764,2.493,2.493,0,0,0,1.287-.311,3.234,3.234,0,0,0,.922-.822l.875.682A3.522,3.522,0,0,1,352.425,7583.96Zm-.179-7.518a1.912,1.912,0,0,0-1.457.632,3.065,3.065,0,0,0-.729,1.771h4.2v-.108a2.728,2.728,0,0,0-.589-1.693A1.8,1.8,0,0,0,352.246,7576.442Z" transform="translate(-8167.627 -14984.225)" fill="#12263f"/>
    <path id="Trazado_111211" data-name="Trazado 111211" d="M362.9,7582.79a2.066,2.066,0,0,0,1.341-.465,1.633,1.633,0,0,0,.636-1.163h1.356a2.6,2.6,0,0,1-.5,1.373,3.26,3.26,0,0,1-1.221,1.038,3.523,3.523,0,0,1-1.616.388,3.457,3.457,0,0,1-2.725-1.143,4.555,4.555,0,0,1-1.011-3.127v-.24a5.043,5.043,0,0,1,.449-2.178,3.435,3.435,0,0,1,1.291-1.481,3.671,3.671,0,0,1,1.988-.527,3.362,3.362,0,0,1,2.345.845,3.018,3.018,0,0,1,1,2.193h-1.356a1.971,1.971,0,0,0-.616-1.336,1.916,1.916,0,0,0-1.368-.523,2.007,2.007,0,0,0-1.694.786,3.7,3.7,0,0,0-.6,2.275v.271a3.62,3.62,0,0,0,.6,2.232A2.015,2.015,0,0,0,362.9,7582.79Z" transform="translate(-8169.812 -14984.225)" fill="#12263f"/>
    <path id="Trazado_111212" data-name="Trazado 111212" d="M371.537,7575.559a3.051,3.051,0,0,1,2.48-1.17q2.66,0,2.682,3v5.542h-1.434v-5.549a1.929,1.929,0,0,0-.414-1.341,1.663,1.663,0,0,0-1.268-.434,2.073,2.073,0,0,0-1.225.372,2.531,2.531,0,0,0-.822.977v5.976H370.1v-11.905h1.434Z" transform="translate(-8172.067 -14983.351)" fill="#12263f"/>
    <path id="Trazado_111213" data-name="Trazado 111213" d="M380.641,7579.534a4.952,4.952,0,0,1,.484-2.217,3.615,3.615,0,0,1,1.349-1.519,3.67,3.67,0,0,1,1.973-.535,3.539,3.539,0,0,1,2.771,1.186,4.569,4.569,0,0,1,1.058,3.155v.1a5.01,5.01,0,0,1-.469,2.2,3.564,3.564,0,0,1-1.341,1.516,3.711,3.711,0,0,1-2,.542,3.526,3.526,0,0,1-2.763-1.186,4.537,4.537,0,0,1-1.058-3.139Zm1.441.17a3.587,3.587,0,0,0,.647,2.24,2.194,2.194,0,0,0,3.469-.011,3.928,3.928,0,0,0,.643-2.4,3.581,3.581,0,0,0-.655-2.236,2.08,2.08,0,0,0-1.74-.856,2.059,2.059,0,0,0-1.714.844A3.9,3.9,0,0,0,382.082,7579.7Z" transform="translate(-8174.242 -14984.225)" fill="#12263f"/>
    <path id="Trazado_111214" data-name="Trazado 111214" d="M397.318,7581.581a1.055,1.055,0,0,0-.438-.9,4.221,4.221,0,0,0-1.527-.555,7.185,7.185,0,0,1-1.729-.558,2.449,2.449,0,0,1-.945-.774,1.858,1.858,0,0,1-.306-1.07,2.172,2.172,0,0,1,.872-1.743,3.4,3.4,0,0,1,2.228-.714,3.509,3.509,0,0,1,2.314.736,2.339,2.339,0,0,1,.887,1.884h-1.442a1.294,1.294,0,0,0-.5-1.015,1.869,1.869,0,0,0-1.26-.426,1.964,1.964,0,0,0-1.224.34,1.074,1.074,0,0,0-.442.891.872.872,0,0,0,.41.784,5.083,5.083,0,0,0,1.485.5,7.743,7.743,0,0,1,1.74.573,2.537,2.537,0,0,1,.988.8,1.967,1.967,0,0,1,.321,1.143,2.148,2.148,0,0,1-.9,1.8,3.779,3.779,0,0,1-2.333.678,4.22,4.22,0,0,1-1.783-.356,2.9,2.9,0,0,1-1.213-1,2.4,2.4,0,0,1-.438-1.384h1.434a1.485,1.485,0,0,0,.577,1.144,2.245,2.245,0,0,0,1.422.422,2.315,2.315,0,0,0,1.306-.33A1.014,1.014,0,0,0,397.318,7581.581Z" transform="translate(-8176.603 -14984.225)" fill="#12263f"/>
    <path id="Trazado_111215" data-name="Trazado 111215" d="M410.3,7581.745l1.953-6.286h1.535l-3.372,9.681q-.783,2.093-2.488,2.093l-.271-.023-.535-.1v-1.162l.387.031a1.908,1.908,0,0,0,1.136-.295,2.143,2.143,0,0,0,.671-1.078l.317-.852-2.991-8.294H408.2Z" transform="translate(-8179.604 -14984.266)" fill="#12263f"/>
    <path id="Trazado_111216" data-name="Trazado 111216" d="M292.148,7603.7a5.029,5.029,0,0,1-.875,3.085,2.809,2.809,0,0,1-2.372,1.17,3.077,3.077,0,0,1-2.4-.968v4.038h-1.434v-11.611h1.31l.07.93a2.954,2.954,0,0,1,2.434-1.085,2.86,2.86,0,0,1,2.391,1.14,5.072,5.072,0,0,1,.879,3.169Zm-1.433-.163a3.7,3.7,0,0,0-.6-2.24,1.946,1.946,0,0,0-1.659-.822,2.108,2.108,0,0,0-1.953,1.155v4.006a2.112,2.112,0,0,0,1.969,1.148,1.939,1.939,0,0,0,1.639-.818A4.047,4.047,0,0,0,290.714,7603.542Z" transform="translate(-8154.524 -14989.176)" fill="#12263f"/>
    <path id="Trazado_111217" data-name="Trazado 111217" d="M300.338,7600.706a4.254,4.254,0,0,0-.706-.055,1.889,1.889,0,0,0-1.914,1.2v5.953h-1.434v-8.386h1.4l.023.968a2.234,2.234,0,0,1,2-1.124,1.469,1.469,0,0,1,.636.109Z" transform="translate(-8156.839 -14989.176)" fill="#12263f"/>
    <path id="Trazado_111218" data-name="Trazado 111218" d="M302.394,7603.534a4.952,4.952,0,0,1,.484-2.217,3.615,3.615,0,0,1,1.348-1.519,3.669,3.669,0,0,1,1.972-.535,3.54,3.54,0,0,1,2.772,1.186,4.569,4.569,0,0,1,1.058,3.155v.1a5.01,5.01,0,0,1-.469,2.2,3.564,3.564,0,0,1-1.341,1.516,3.711,3.711,0,0,1-2,.542,3.526,3.526,0,0,1-2.763-1.186,4.537,4.537,0,0,1-1.058-3.139Zm1.441.17a3.587,3.587,0,0,0,.647,2.24,2.193,2.193,0,0,0,3.468-.011,3.923,3.923,0,0,0,.644-2.4,3.582,3.582,0,0,0-.655-2.236,2.08,2.08,0,0,0-1.741-.856,2.059,2.059,0,0,0-1.713.844A3.9,3.9,0,0,0,303.835,7603.7Z" transform="translate(-8158.099 -14989.176)" fill="#12263f"/>
    <path id="Trazado_111219" data-name="Trazado 111219" d="M315.96,7596.9v2.031h1.566v1.108H315.96v5.208a1.165,1.165,0,0,0,.21.757.883.883,0,0,0,.714.251,3.471,3.471,0,0,0,.682-.093v1.156a4.175,4.175,0,0,1-1.1.154,1.785,1.785,0,0,1-1.449-.582,2.5,2.5,0,0,1-.488-1.65v-5.2H313v-1.108h1.527V7596.9Z" transform="translate(-8160.287 -14988.688)" fill="#12263f"/>
    <path id="Trazado_111220" data-name="Trazado 111220" d="M324.2,7607.96a3.664,3.664,0,0,1-2.775-1.12,4.157,4.157,0,0,1-1.069-3v-.264a5.038,5.038,0,0,1,.476-2.229,3.712,3.712,0,0,1,1.333-1.534,3.352,3.352,0,0,1,1.856-.555,3.14,3.14,0,0,1,2.542,1.078,4.66,4.66,0,0,1,.906,3.084v.6h-5.681a2.987,2.987,0,0,0,.725,2,2.279,2.279,0,0,0,1.764.764,2.488,2.488,0,0,0,1.287-.311,3.234,3.234,0,0,0,.922-.822l.876.682A3.523,3.523,0,0,1,324.2,7607.96Zm-.178-7.518a1.911,1.911,0,0,0-1.457.632,3.065,3.065,0,0,0-.729,1.771h4.2v-.108a2.732,2.732,0,0,0-.589-1.693A1.8,1.8,0,0,0,324.019,7600.442Z" transform="translate(-8161.804 -14989.176)" fill="#12263f"/>
    <path id="Trazado_111221" data-name="Trazado 111221" d="M334.674,7606.79a2.069,2.069,0,0,0,1.341-.465,1.639,1.639,0,0,0,.636-1.163h1.356a2.613,2.613,0,0,1-.5,1.373,3.266,3.266,0,0,1-1.221,1.038,3.528,3.528,0,0,1-1.617.388,3.454,3.454,0,0,1-2.724-1.143,4.551,4.551,0,0,1-1.012-3.127v-.24a5.043,5.043,0,0,1,.45-2.178,3.435,3.435,0,0,1,1.291-1.481,3.671,3.671,0,0,1,1.988-.527,3.363,3.363,0,0,1,2.345.845,3.021,3.021,0,0,1,1,2.193h-1.356a1.975,1.975,0,0,0-.617-1.336,1.914,1.914,0,0,0-1.368-.523,2.007,2.007,0,0,0-1.694.786,3.694,3.694,0,0,0-.6,2.275v.271a3.62,3.62,0,0,0,.6,2.232A2.016,2.016,0,0,0,334.674,7606.79Z" transform="translate(-8163.988 -14989.176)" fill="#12263f"/>
    <path id="Trazado_111222" data-name="Trazado 111222" d="M345.143,7606.79a2.069,2.069,0,0,0,1.341-.465,1.635,1.635,0,0,0,.635-1.163h1.356a2.6,2.6,0,0,1-.5,1.373,3.253,3.253,0,0,1-1.221,1.038,3.523,3.523,0,0,1-1.616.388,3.454,3.454,0,0,1-2.724-1.143,4.551,4.551,0,0,1-1.012-3.127v-.24a5.043,5.043,0,0,1,.45-2.178,3.435,3.435,0,0,1,1.291-1.481,3.671,3.671,0,0,1,1.987-.527,3.365,3.365,0,0,1,2.345.845,3.017,3.017,0,0,1,1,2.193h-1.356a1.971,1.971,0,0,0-.616-1.336,1.916,1.916,0,0,0-1.368-.523,2.007,2.007,0,0,0-1.693.786,3.694,3.694,0,0,0-.6,2.275v.271a3.62,3.62,0,0,0,.6,2.232A2.016,2.016,0,0,0,345.143,7606.79Z" transform="translate(-8166.147 -14989.176)" fill="#12263f"/>
    <path id="Trazado_111223" data-name="Trazado 111223" d="M352.354,7596.44a.856.856,0,0,1,.214-.589.8.8,0,0,1,.632-.241.815.815,0,0,1,.636.241.847.847,0,0,1,.217.589.82.82,0,0,1-.217.581.828.828,0,0,1-.636.232.813.813,0,0,1-.632-.232A.828.828,0,0,1,352.354,7596.44Zm1.551,10.61h-1.434v-8.386H353.9Z" transform="translate(-8168.406 -14988.422)" fill="#12263f"/>
    <path id="Trazado_111224" data-name="Trazado 111224" d="M356.72,7602.66a4.952,4.952,0,0,1,.484-2.217,3.615,3.615,0,0,1,1.349-1.519,3.67,3.67,0,0,1,1.973-.535,3.539,3.539,0,0,1,2.771,1.186,4.565,4.565,0,0,1,1.058,3.155v.1a5,5,0,0,1-.469,2.2,3.567,3.567,0,0,1-1.341,1.516,3.716,3.716,0,0,1-2,.542,3.527,3.527,0,0,1-2.763-1.186,4.537,4.537,0,0,1-1.058-3.139Zm1.441.17a3.587,3.587,0,0,0,.648,2.24,2.193,2.193,0,0,0,3.468-.011,3.928,3.928,0,0,0,.643-2.4,3.582,3.582,0,0,0-.655-2.236,2.08,2.08,0,0,0-1.74-.856,2.059,2.059,0,0,0-1.714.844A3.9,3.9,0,0,0,358.161,7602.83Zm3.015-7.805h1.736l-2.077,2.279-1.155,0Z" transform="translate(-8169.307 -14988.302)" fill="#12263f"/>
    <path id="Trazado_111225" data-name="Trazado 111225" d="M369.96,7599.419l.047,1.054a3.057,3.057,0,0,1,2.511-1.209q2.66,0,2.682,3v5.542h-1.434v-5.549a1.929,1.929,0,0,0-.414-1.341,1.663,1.663,0,0,0-1.268-.434,2.073,2.073,0,0,0-1.225.372,2.531,2.531,0,0,0-.821.977v5.976H368.6v-8.386Z" transform="translate(-8171.758 -14989.176)" fill="#12263f"/>
    <path id="Trazado_111226" data-name="Trazado 111226" d="M384.6,7596.44a.855.855,0,0,1,.213-.589.8.8,0,0,1,.632-.241.814.814,0,0,1,.636.241.847.847,0,0,1,.217.589.849.849,0,1,1-1.7,0Zm1.55,10.61h-1.434v-8.386h1.434Z" transform="translate(-8175.059 -14988.422)" fill="#12263f"/>
    <path id="Trazado_111227" data-name="Trazado 111227" d="M390.8,7599.419l.047,1.054a3.057,3.057,0,0,1,2.511-1.209q2.659,0,2.682,3v5.542h-1.434v-5.549a1.933,1.933,0,0,0-.414-1.341,1.663,1.663,0,0,0-1.268-.434,2.071,2.071,0,0,0-1.225.372,2.531,2.531,0,0,0-.821.977v5.976h-1.434v-8.386Z" transform="translate(-8176.058 -14989.176)" fill="#12263f"/>
    <path id="Trazado_111228" data-name="Trazado 111228" d="M402.161,7596.9v2.031h1.565v1.108h-1.565v5.208a1.17,1.17,0,0,0,.209.757.883.883,0,0,0,.714.251,3.471,3.471,0,0,0,.682-.093v1.156a4.165,4.165,0,0,1-1.1.154,1.785,1.785,0,0,1-1.449-.582,2.5,2.5,0,0,1-.488-1.65v-5.2H399.2v-1.108h1.527V7596.9Z" transform="translate(-8178.07 -14988.688)" fill="#12263f"/>
    <path id="Trazado_111229" data-name="Trazado 111229" d="M410.4,7607.96a3.664,3.664,0,0,1-2.775-1.12,4.157,4.157,0,0,1-1.069-3v-.264a5.038,5.038,0,0,1,.476-2.229,3.718,3.718,0,0,1,1.333-1.534,3.352,3.352,0,0,1,1.856-.555,3.14,3.14,0,0,1,2.542,1.078,4.66,4.66,0,0,1,.907,3.084v.6h-5.682a2.987,2.987,0,0,0,.725,2,2.28,2.28,0,0,0,1.764.764,2.488,2.488,0,0,0,1.287-.311,3.224,3.224,0,0,0,.922-.822l.876.682A3.523,3.523,0,0,1,410.4,7607.96Zm-.178-7.518a1.911,1.911,0,0,0-1.457.632,3.065,3.065,0,0,0-.729,1.771h4.2v-.108a2.732,2.732,0,0,0-.589-1.693A1.8,1.8,0,0,0,410.22,7600.442Z" transform="translate(-8179.587 -14989.176)" fill="#12263f"/>
    <path id="Trazado_111230" data-name="Trazado 111230" d="M417.179,7603.542a4.934,4.934,0,0,1,.906-3.12,3.126,3.126,0,0,1,4.8-.073l.07-.93h1.31v8.185a3.414,3.414,0,0,1-.964,2.566,3.561,3.561,0,0,1-2.593.938,4.312,4.312,0,0,1-1.775-.388,3.05,3.05,0,0,1-1.325-1.062l.744-.86a2.8,2.8,0,0,0,2.256,1.14,2.194,2.194,0,0,0,1.632-.59,2.252,2.252,0,0,0,.585-1.658v-.721a2.948,2.948,0,0,1-2.349.992,2.865,2.865,0,0,1-2.384-1.186A5.186,5.186,0,0,1,417.179,7603.542Zm1.441.163a3.761,3.761,0,0,0,.582,2.229,1.888,1.888,0,0,0,1.627.81,2.1,2.1,0,0,0,1.992-1.233v-3.829a2.125,2.125,0,0,0-1.976-1.2,1.907,1.907,0,0,0-1.636.813A4.1,4.1,0,0,0,418.62,7603.7Z" transform="translate(-8181.779 -14989.176)" fill="#12263f"/>
    <path id="Trazado_111231" data-name="Trazado 111231" d="M432.883,7600.706a4.254,4.254,0,0,0-.706-.055,1.889,1.889,0,0,0-1.914,1.2v5.953h-1.434v-8.386h1.4l.023.968a2.234,2.234,0,0,1,2-1.124,1.469,1.469,0,0,1,.636.109Z" transform="translate(-8184.183 -14989.176)" fill="#12263f"/>
    <path id="Trazado_111232" data-name="Trazado 111232" d="M440.332,7607.8a3.032,3.032,0,0,1-.2-.883,3.2,3.2,0,0,1-2.387,1.038,2.964,2.964,0,0,1-2.034-.7,2.269,2.269,0,0,1-.795-1.779,2.369,2.369,0,0,1,1-2.034,4.7,4.7,0,0,1,2.8-.725h1.4v-.659a1.61,1.61,0,0,0-.449-1.2,1.809,1.809,0,0,0-1.325-.446,2.09,2.09,0,0,0-1.287.388,1.14,1.14,0,0,0-.52.938h-1.441a1.979,1.979,0,0,1,.445-1.213,3.039,3.039,0,0,1,1.21-.926,4.072,4.072,0,0,1,1.678-.341,3.317,3.317,0,0,1,2.271.725,2.617,2.617,0,0,1,.853,2v3.86a4.728,4.728,0,0,0,.294,1.837v.124Zm-2.38-1.093a2.517,2.517,0,0,0,1.279-.348,2.113,2.113,0,0,0,.876-.907v-1.721h-1.124q-2.636,0-2.635,1.542a1.305,1.305,0,0,0,.449,1.055A1.729,1.729,0,0,0,437.952,7606.712Z" transform="translate(-8185.438 -14989.176)" fill="#12263f"/>
    <path id="Trazado_111233" data-name="Trazado 111233" d="M447.686,7606.93h-1.434v-11.905h1.434Z" transform="translate(-8187.777 -14988.302)" fill="#12263f"/>
    <path id="Trazado_111234" data-name="Trazado 111234" d="M977.206,7587.892a4.156,4.156,0,0,1-1.322,2.764,4.333,4.333,0,0,1-2.957.973,3.979,3.979,0,0,1-3.2-1.434,5.766,5.766,0,0,1-1.2-3.837v-1.086a6.43,6.43,0,0,1,.562-2.767,4.187,4.187,0,0,1,1.592-1.833,4.43,4.43,0,0,1,2.387-.64,4.078,4.078,0,0,1,2.884,1,4.2,4.2,0,0,1,1.264,2.778h-1.5a3.247,3.247,0,0,0-.84-1.959,2.546,2.546,0,0,0-1.81-.607,2.662,2.662,0,0,0-2.236,1.055,4.841,4.841,0,0,0-.81,3v1.095a4.982,4.982,0,0,0,.767,2.925,2.48,2.48,0,0,0,2.147,1.085,2.866,2.866,0,0,0,1.9-.562,3.124,3.124,0,0,0,.879-1.958Z" transform="translate(-8288.52 -14984.209)" fill="#12263f"/>
    <path id="Trazado_111235" data-name="Trazado 111235" d="M986.909,7591.438a3.047,3.047,0,0,1-2.457.984,2.608,2.608,0,0,1-2.042-.779,3.374,3.374,0,0,1-.71-2.306v-5.457h1.434v5.418q0,1.906,1.55,1.906a2.147,2.147,0,0,0,2.186-1.225v-6.1H988.3v8.386H986.94Z" transform="translate(-8291.239 -14985.002)" fill="#12263f"/>
    <path id="Trazado_111236" data-name="Trazado 111236" d="M996.818,7585.127a4.3,4.3,0,0,0-.706-.054,1.89,1.89,0,0,0-1.914,1.2v5.953h-1.433v-8.386h1.395l.024.969a2.233,2.233,0,0,1,2-1.124,1.476,1.476,0,0,1,.636.108Z" transform="translate(-8293.521 -14984.963)" fill="#12263f"/>
    <path id="Trazado_111237" data-name="Trazado 111237" d="M1004.325,7590a1.055,1.055,0,0,0-.438-.9,4.2,4.2,0,0,0-1.527-.555,7.194,7.194,0,0,1-1.729-.558,2.453,2.453,0,0,1-.945-.774,1.86,1.86,0,0,1-.306-1.07,2.174,2.174,0,0,1,.872-1.744,3.4,3.4,0,0,1,2.228-.713,3.505,3.505,0,0,1,2.314.736,2.34,2.34,0,0,1,.888,1.883h-1.442a1.293,1.293,0,0,0-.5-1.015,1.869,1.869,0,0,0-1.26-.426,1.963,1.963,0,0,0-1.225.34,1.073,1.073,0,0,0-.441.892.872.872,0,0,0,.41.783,5.06,5.06,0,0,0,1.484.5,7.783,7.783,0,0,1,1.74.574,2.548,2.548,0,0,1,.988.8,1.972,1.972,0,0,1,.322,1.143,2.148,2.148,0,0,1-.9,1.8,3.777,3.777,0,0,1-2.333.678,4.213,4.213,0,0,1-1.783-.356,2.9,2.9,0,0,1-1.213-1,2.4,2.4,0,0,1-.438-1.384h1.433a1.487,1.487,0,0,0,.578,1.143,2.236,2.236,0,0,0,1.422.423,2.317,2.317,0,0,0,1.306-.33A1.013,1.013,0,0,0,1004.325,7590Z" transform="translate(-8294.827 -14984.963)" fill="#12263f"/>
    <path id="Trazado_111238" data-name="Trazado 111238" d="M1009.366,7587.956a4.941,4.941,0,0,1,.485-2.217,3.614,3.614,0,0,1,1.349-1.52,3.674,3.674,0,0,1,1.972-.535,3.536,3.536,0,0,1,2.771,1.186,4.561,4.561,0,0,1,1.058,3.155v.1a5,5,0,0,1-.468,2.2,3.559,3.559,0,0,1-1.341,1.516,3.707,3.707,0,0,1-2,.542,3.529,3.529,0,0,1-2.764-1.186,4.541,4.541,0,0,1-1.058-3.139Zm1.442.17a3.584,3.584,0,0,0,.647,2.24,2.192,2.192,0,0,0,3.468-.011,3.925,3.925,0,0,0,.644-2.4,3.58,3.58,0,0,0-.656-2.236,2.178,2.178,0,0,0-3.453-.012A3.9,3.9,0,0,0,1010.808,7588.126Z" transform="translate(-8296.946 -14984.963)" fill="#12263f"/>
    <path id="Trazado_111239" data-name="Trazado 111239" d="M1025.763,7587.089a4.907,4.907,0,0,1,.914-3.1,3.111,3.111,0,0,1,4.728-.167v-4.372h1.434v11.905h-1.318l-.07-.9a2.92,2.92,0,0,1-2.4,1.054,2.864,2.864,0,0,1-2.375-1.194,4.966,4.966,0,0,1-.918-3.115Zm1.433.163a3.71,3.71,0,0,0,.59,2.232,1.9,1.9,0,0,0,1.627.806,2.092,2.092,0,0,0,1.992-1.225v-3.852a2.107,2.107,0,0,0-1.976-1.187,1.912,1.912,0,0,0-1.643.815A4.085,4.085,0,0,0,1027.2,7587.252Z" transform="translate(-8300.329 -14984.088)" fill="#12263f"/>
    <path id="Trazado_111240" data-name="Trazado 111240" d="M1040.867,7592.382a3.666,3.666,0,0,1-2.775-1.12,4.157,4.157,0,0,1-1.07-3V7588a5.038,5.038,0,0,1,.477-2.229,3.724,3.724,0,0,1,1.333-1.535,3.357,3.357,0,0,1,1.856-.554,3.139,3.139,0,0,1,2.542,1.078,4.668,4.668,0,0,1,.906,3.084v.6h-5.681a2.982,2.982,0,0,0,.725,2,2.279,2.279,0,0,0,1.764.764,2.492,2.492,0,0,0,1.287-.311,3.246,3.246,0,0,0,.922-.821l.876.682A3.523,3.523,0,0,1,1040.867,7592.382Zm-.178-7.518a1.913,1.913,0,0,0-1.457.631,3.069,3.069,0,0,0-.729,1.771h4.2v-.108a2.733,2.733,0,0,0-.59-1.694A1.8,1.8,0,0,0,1040.689,7584.864Z" transform="translate(-8302.652 -14984.963)" fill="#12263f"/>
    <path id="Trazado_111241" data-name="Trazado 111241" d="M1055.58,7590.322l2.077-6.441h1.465l-3.008,8.386h-1.092l-3.039-8.386h1.465Z" transform="translate(-8305.738 -14985.002)" fill="#12263f"/>
    <path id="Trazado_111242" data-name="Trazado 111242" d="M1062.726,7580.862a.856.856,0,0,1,.213-.589.8.8,0,0,1,.632-.24.81.81,0,0,1,.636.24.848.848,0,0,1,.217.589.849.849,0,1,1-1.7,0Zm1.55,10.611h-1.434v-8.386h1.434Z" transform="translate(-8307.955 -14984.209)" fill="#12263f"/>
    <path id="Trazado_111243" data-name="Trazado 111243" d="M1067.13,7587.089a4.912,4.912,0,0,1,.914-3.1,3.111,3.111,0,0,1,4.728-.167v-4.372h1.434v11.905h-1.318l-.07-.9a2.92,2.92,0,0,1-2.4,1.054,2.865,2.865,0,0,1-2.376-1.194,4.971,4.971,0,0,1-.918-3.115Zm1.434.163a3.716,3.716,0,0,0,.589,2.232,1.9,1.9,0,0,0,1.627.806,2.092,2.092,0,0,0,1.992-1.225v-3.852a2.107,2.107,0,0,0-1.976-1.187,1.913,1.913,0,0,0-1.643.815A4.091,4.091,0,0,0,1068.564,7587.252Z" transform="translate(-8308.863 -14984.088)" fill="#12263f"/>
    <path id="Trazado_111244" data-name="Trazado 111244" d="M1083.964,7592.227a3.03,3.03,0,0,1-.2-.883,3.2,3.2,0,0,1-2.387,1.039,2.958,2.958,0,0,1-2.034-.7,2.267,2.267,0,0,1-.794-1.778,2.369,2.369,0,0,1,1-2.034,4.694,4.694,0,0,1,2.8-.725h1.4v-.659a1.608,1.608,0,0,0-.45-1.2,1.806,1.806,0,0,0-1.325-.446,2.092,2.092,0,0,0-1.287.388,1.141,1.141,0,0,0-.519.938h-1.441a1.979,1.979,0,0,1,.445-1.213,3.038,3.038,0,0,1,1.209-.926,4.07,4.07,0,0,1,1.678-.341,3.318,3.318,0,0,1,2.271.725,2.614,2.614,0,0,1,.852,2v3.86a4.73,4.73,0,0,0,.3,1.837v.124Zm-2.379-1.093a2.514,2.514,0,0,0,1.279-.349,2.107,2.107,0,0,0,.876-.907v-1.721h-1.124q-2.636,0-2.635,1.542a1.3,1.3,0,0,0,.449,1.054A1.722,1.722,0,0,0,1081.584,7591.134Z" transform="translate(-8311.219 -14984.963)" fill="#12263f"/>
  </g>
</svg>
