<svg xmlns="http://www.w3.org/2000/svg" width="871.259" height="318.658" viewBox="0 0 871.259 318.658">
  <g id="Grupo_53028" data-name="Grupo 53028" transform="translate(-247 -482)">
    <g id="Grupo_49158" data-name="Grupo 49158" transform="translate(154.25 -235.399)">
      <g id="freepik--character-1--inject-15">
        <g id="freepik--group--inject-15">
          <path id="Trazado_99035" data-name="Trazado 99035" d="M216.21,892.953l-1.53-12.79a2.752,2.752,0,0,1-2.21-2.17c-.43-2.66-1.15-7.69-.8-8.59s6.26-1.38,7.25-.32,1.21,7,1.21,8.26a2.856,2.856,0,0,1-1.33,2.08l2.47,12.94Z" fill="#ebb376"/>
          <path id="Trazado_99036" data-name="Trazado 99036" d="M243.88,893.253s-16.12,7-18.36,5.19-4.83-15.92-4.83-15.92l-6.64,2.69s1.15,18.9,4.91,24.28,28.31-1.19,28.31-1.19Z" fill="#36c" stroke="#407bff" stroke-miterlimit="10" stroke-width="0"/>
          <path id="Trazado_99037" data-name="Trazado 99037" d="M247.27,908.3s-5.11,1.37-11,2.35c-7,1.16-15.24,1.76-17.28-1.16-3.76-5.38-4.91-24.28-4.91-24.28l6.64-2.69s2.6,14.15,4.83,15.92,18.36-5.19,18.36-5.19l2,9.05Z" fill="#dee7f3" opacity="0.5" style="isolation: isolate"/>
          <path id="Trazado_99038" data-name="Trazado 99038" d="M247.27,908.3s-5.11,1.37-11,2.35c2.45-4.75,8-7.6,9.68-8.35Z" opacity="0.2" style="isolation: isolate"/>
          <path id="Trazado_99039" data-name="Trazado 99039" d="M305.34,854.243l9-9.24a2.772,2.772,0,0,1,.29-3.09c1.8-2,5.25-5.75,6.17-6s5,4,4.82,5.42-4.68,5.37-5.65,6.15a2.85,2.85,0,0,1-2.45.28l-8.55,10.02Z" fill="#ebb376"/>
          <path id="Trazado_99040" data-name="Trazado 99040" d="M282.81,875.483c7.22-6.84,29.52-29.32,29.52-29.32l4.47,5.35-33.22,44.52Z" fill="#36c" stroke="#407bff" stroke-miterlimit="10" stroke-width="0"/>
          <path id="Trazado_99041" data-name="Trazado 99041" d="M316.8,851.513l-26.08,35-6.28,8.42-.86,1.15-.22-6-.22-5.88-.33-8.69c7.22-6.84,29.52-29.32,29.52-29.32Z" fill="#dee7f3" opacity="0.5" style="isolation: isolate"/>
          <path id="Trazado_99042" data-name="Trazado 99042" d="M290.72,886.463l-6.28,8.42-1.08-4.83-1.27-5.69a9.537,9.537,0,0,1,1-.23C284.97,883.873,288.52,883.693,290.72,886.463Z" opacity="0.2" style="isolation: isolate"/>
          <path id="Trazado_99043" data-name="Trazado 99043" d="M250.45,942.733s-11.56-14.21-24.27-6.16,9.25,49.87,58.94,43.55,49.41-46.14,40.16-51.8-29.42,10.54-29.42,10.54Z" fill="#36c" stroke="#407bff" stroke-miterlimit="10" stroke-width="0"/>
          <path id="Trazado_99044" data-name="Trazado 99044" d="M329.97,943.863c-1.29,13.83-12.46,32.15-44.8,36.27-17.84,2.26-32.09-1.67-42.46-8-18.54-11.33-24.65-30.38-16.5-35.55,12.73-8,24.28,6.16,24.28,6.16l45.41-3.87s20.18-16.2,29.42-10.54C328.51,930.293,330.64,936.443,329.97,943.863Z" fill="#dee7f3" opacity="0.5" style="isolation: isolate"/>
          <path id="Trazado_99045" data-name="Trazado 99045" d="M329.97,943.863c-1.29,13.83-12.46,32.15-44.8,36.27-17.84,2.26-32.09-1.67-42.46-8-9.45-8.1-7.38-18.17-7.38-18.17s7.42-19.51,20.76-11.69S295.9,958.6,295.9,958.6s4.25,0,14.83-19C314.85,932.123,325.06,937.363,329.97,943.863Z" opacity="0.2" style="isolation: isolate"/>
          <path id="Trazado_99046" data-name="Trazado 99046" d="M299.35,938.733s-15.13-46.83-16.54-63.25c0,0-11.15,10.51-17.06,11.23-15.3,1.86-21.87,6.54-21.87,6.54s-.37,27.76,5.37,53.28Z" fill="#36c" stroke="#407bff" stroke-miterlimit="10" stroke-width="0"/>
          <path id="Trazado_99047" data-name="Trazado 99047" d="M299.35,938.733s-15.13-46.83-16.54-63.25c0,0-11.15,10.51-17.06,11.23-15.3,1.86-21.87,6.54-21.87,6.54s-.37,27.76,5.37,53.28Z" fill="#dee7f3" opacity="0.6" style="isolation: isolate"/>
          <path id="Trazado_99048" data-name="Trazado 99048" d="M256.52,888.713s-3.27,2.93-3.08,4.49c.58,4.81,12.08,12.59,12.08,12.59l2.68-6.74,2.88.2,3.07-3.47,9.43.25S279.73,875.153,256.52,888.713Z" opacity="0.2" style="isolation: isolate"/>
          <path id="Trazado_99049" data-name="Trazado 99049" d="M259.15,886.263s-4.65,5.78-5.71,6.94,11.84,9.63,11.84,9.63l2.67-6.74,2.88.19,3.08-3.47,7.1.2S277.68,877.793,259.15,886.263Z" fill="#36c" stroke="#407bff" stroke-miterlimit="10" stroke-width="0"/>
          <path id="Trazado_99050" data-name="Trazado 99050" d="M259.15,886.263s-4.65,5.78-5.71,6.94,11.84,9.63,11.84,9.63l2.67-6.74,2.88.19,3.08-3.47,7.1.2S277.68,877.793,259.15,886.263Z" fill="#dee7f3" opacity="0.6" style="isolation: isolate"/>
          <path id="Trazado_99051" data-name="Trazado 99051" d="M270.97,882.7a6.926,6.926,0,0,0,1.2,5.24,8.66,8.66,0,0,0,.62.77,10.726,10.726,0,0,0,1.14,1l-3.56,5.19-12-3.52-1.31-.39a13,13,0,0,0,1.11-10.55,17.809,17.809,0,0,0-2.49-5l11.76,1.92,5.34.84A11.479,11.479,0,0,0,270.97,882.7Z" fill="#ebb376"/>
          <path id="Trazado_99052" data-name="Trazado 99052" d="M270.97,882.7a6.926,6.926,0,0,0,1.2,5.24,8.66,8.66,0,0,0,.62.77c-6.4.15-11.77-4.91-14.6-8.24a17.807,17.807,0,0,0-2.49-5l11.74,1.89,5.34.84A11.479,11.479,0,0,0,270.97,882.7Z" opacity="0.2" style="isolation: isolate"/>
          <path id="Trazado_99053" data-name="Trazado 99053" d="M274.64,903.913a1.09,1.09,0,1,1-1.1-1.08h.019A1.079,1.079,0,0,1,274.64,903.913Z" opacity="0.2" style="isolation: isolate"/>
          <path id="Trazado_99054" data-name="Trazado 99054" d="M277.62,918.183a1.09,1.09,0,1,1-1.1-1.08h.019A1.089,1.089,0,0,1,277.62,918.183Z" opacity="0.2" style="isolation: isolate"/>
          <path id="Trazado_99055" data-name="Trazado 99055" d="M282.09,933.363a1.09,1.09,0,1,1-1.1-1.08h.019A1.089,1.089,0,0,1,282.09,933.363Z" opacity="0.2" style="isolation: isolate"/>
          <path id="Trazado_99056" data-name="Trazado 99056" d="M288.52,961.093a10.405,10.405,0,0,1-1.71,1.53.18.18,0,0,1-.21,0,.211.211,0,0,1-.11-.19c0-.33.35-3.24,1.33-3.78a.757.757,0,0,1,.73,0,1,1,0,0,1,.69.9A2.266,2.266,0,0,1,288.52,961.093Zm-.48-2c-.53.28-.9,1.82-1.06,3,1.21-1,1.9-1.86,1.87-2.42a.716.716,0,0,0-.45-.56.357.357,0,0,0-.36,0Z" fill="#36c" stroke="#407bff" stroke-miterlimit="10" stroke-width="0"/>
          <path id="Trazado_99057" data-name="Trazado 99057" d="M286.97,960.513a10.317,10.317,0,0,1,.26,2.29.169.169,0,0,1-.11.18.25.25,0,0,1-.22,0c-.25-.22-2.44-2.17-2.3-3.28a.731.731,0,0,1,.43-.58,1.071,1.071,0,0,1,1.14,0A2.315,2.315,0,0,1,286.97,960.513Zm-1.94-.79c-.08.59,1,1.8,1.82,2.6-.08-1.55-.4-2.62-.88-2.92a.757.757,0,0,0-.73,0,.4.4,0,0,0-.21.29Z" fill="#36c" stroke="#407bff" stroke-miterlimit="10" stroke-width="0"/>
          <path id="Trazado_99058" data-name="Trazado 99058" d="M285.45,962.453l-6.21,7.3a.6.6,0,0,0,0,.848v0h0l5.48,5.27a1.49,1.49,0,0,0,2.1-.151l.008-.009c2.13-2.58,3-3.92,5.72-7.15,1.67-2,5.16-5.72,7-8.78s-1.21-4.81-2.27-3.68c-2.52,2.67-7.56,4.93-10.56,5.54A2.361,2.361,0,0,0,285.45,962.453Z" fill="#12263f"/>
          <path id="Trazado_99059" data-name="Trazado 99059" d="M316.97,977.643a10.494,10.494,0,0,1-1.61-1.64.222.222,0,0,1,0-.22.242.242,0,0,1,.19-.11c.33,0,3.25.21,3.83,1.17a.727.727,0,0,1,0,.73,1.061,1.061,0,0,1-.87.73A2.285,2.285,0,0,1,316.97,977.643Zm2-.56c-.31-.52-1.87-.83-3-.94,1,1.17,1.93,1.82,2.49,1.76a.73.73,0,0,0,.55-.47.358.358,0,0,0,0-.35Z" fill="#36c" stroke="#407bff" stroke-miterlimit="10" stroke-width="0"/>
          <path id="Trazado_99060" data-name="Trazado 99060" d="M317.42,976.033a10.25,10.25,0,0,1-2.27.35.192.192,0,0,1-.19-.1.25.25,0,0,1,0-.22c.21-.26,2.06-2.53,3.18-2.44a.778.778,0,0,1,.6.41,1.088,1.088,0,0,1,.08,1.14A2.3,2.3,0,0,1,317.42,976.033Zm.71-2c-.59-.05-1.75,1-2.52,1.93,1.55-.15,2.61-.51,2.88-1a.738.738,0,0,0-.06-.72A.368.368,0,0,0,318.13,974.033Z" fill="#36c" stroke="#407bff" stroke-miterlimit="10" stroke-width="0"/>
          <path id="Trazado_99061" data-name="Trazado 99061" d="M315.43,974.633l-7.55-5.9a.62.62,0,0,0-.86.07h0l-5,5.69a1.521,1.521,0,0,0,.24,2.11c2.67,2,4.05,2.84,7.39,5.41a75.527,75.527,0,0,0,9.06,6.65c3.13,1.73,4.76-1.42,3.59-2.43-2.78-2.4-5.25-7.35-6-10.32A2.352,2.352,0,0,0,315.43,974.633Z" fill="#12263f"/>
          <path id="Trazado_99062" data-name="Trazado 99062" d="M231.2,934.463c12.39-6.4,55.37,26.69,55.37,26.69l-5.6,11.87s-44.52-12.15-49.81-19.13C225.03,945.743,222.36,939.023,231.2,934.463Z" fill="#36c" stroke="#407bff" stroke-miterlimit="10" stroke-width="0"/>
          <path id="Trazado_99063" data-name="Trazado 99063" d="M231.2,934.463c12.39-6.4,55.37,26.69,55.37,26.69l-5.6,11.87s-44.52-12.15-49.81-19.13C225.03,945.743,222.36,939.023,231.2,934.463Z" fill="#dee7f3" opacity="0.5" style="isolation: isolate"/>
          <path id="Trazado_99064" data-name="Trazado 99064" d="M329.97,931.053c7.76,9.48-12.5,45-12.5,45l-12.76-6.29s6.44-29,9.66-36.65C318.3,923.663,325.73,925.923,329.97,931.053Z" fill="#36c" stroke="#407bff" stroke-miterlimit="10" stroke-width="0"/>
          <path id="Trazado_99065" data-name="Trazado 99065" d="M329.97,931.053c7.76,9.48-12.5,45-12.5,45l-12.76-6.29s6.44-29,9.66-36.65C318.3,923.663,325.73,925.923,329.97,931.053Z" fill="#dee7f3" opacity="0.5" style="isolation: isolate"/>
          <path id="Trazado_99066" data-name="Trazado 99066" d="M326.73,811.043l-1.79-4.88-.06,5.19Z" fill="#12263f"/>
          <path id="Trazado_99067" data-name="Trazado 99067" d="M325.74,806.023a.81.81,0,1,1-.945-.648l.015,0A.809.809,0,0,1,325.74,806.023Z" fill="#36c" stroke="#407bff" stroke-miterlimit="10" stroke-width="0"/>
          <path id="Trazado_99068" data-name="Trazado 99068" d="M331.09,816a1.09,1.09,0,0,1-2.06.713,1.119,1.119,0,0,1-.06-.353,1.09,1.09,0,0,1,2.14-.37Z" fill="#dee7f3" opacity="0.5" style="isolation: isolate"/>
          <path id="Trazado_99069" data-name="Trazado 99069" d="M324.57,817.123a1.08,1.08,0,1,1-1.25-.88,1.079,1.079,0,0,1,1.25.88Z" fill="#dee7f3" opacity="0.5" style="isolation: isolate"/>
          <rect id="Rectángulo_28375" data-name="Rectángulo 28375" width="4.45" height="1.23" transform="matrix(0.986, -0.169, 0.169, 0.986, 325.009, 819.687)" fill="#dee7f3" opacity="0.5" style="isolation: isolate"/>
          <path id="Trazado_99070" data-name="Trazado 99070" d="M266.48,844.583s14.7,5.52,5.44,20.1C261.46,881.153,266.48,844.583,266.48,844.583Z" fill="#12263f"/>
          <path id="Trazado_99071" data-name="Trazado 99071" d="M243.97,869.723c3.66,8.64,12,16.74,19.81,15.55,14.3-2.17,18.69-6.56,16.75-17.06-1.69-9.47-9.75-22.61-21.78-21.43S238.97,857.743,243.97,869.723Z" fill="#ebb376"/>
          <path id="Trazado_99072" data-name="Trazado 99072" d="M269.84,850.023a25.843,25.843,0,0,1-12.79,5.25s-5.09,2.72-1.84,8.39-2.68,11.38-.2,19.51c0,0-8.73,1.85-16-15.31-5.33-12.5,4.1-21.28,15.61-25C264.22,839.823,273.34,844.363,269.84,850.023Z" fill="#12263f"/>
          <path id="Trazado_99073" data-name="Trazado 99073" d="M265.11,865.363c.42,1.11,1.37,1.8,2.09,1.51s1-1.42.54-2.53-1.37-1.78-2.1-1.5S264.68,864.253,265.11,865.363Z" fill="#12263f"/>
          <path id="Trazado_99074" data-name="Trazado 99074" d="M273.82,861.493c.4,1.06,1.31,1.71,2,1.43s.92-1.35.51-2.41-1.31-1.7-2-1.44S273.41,860.423,273.82,861.493Z" fill="#12263f"/>
          <path id="Trazado_99075" data-name="Trazado 99075" d="M266.14,858.543a.532.532,0,0,0,.08-.32.549.549,0,0,0-.63-.43,5.262,5.262,0,0,0-3.93,2.91.53.53,0,0,0,.28.7l.01.005h0a.56.56,0,0,0,.7-.28h0a4.169,4.169,0,0,1,3.18-2.26A.538.538,0,0,0,266.14,858.543Z" fill="#12263f"/>
          <path id="Trazado_99076" data-name="Trazado 99076" d="M274.97,855.663a.59.59,0,0,0,.23-.24.558.558,0,0,0-.35-.68,5.281,5.281,0,0,0-4.85.68.541.541,0,0,0-.08.75h0a.561.561,0,0,0,.75.09h0a4.191,4.191,0,0,1,3.88-.47A.54.54,0,0,0,274.97,855.663Z" fill="#12263f"/>
          <path id="Trazado_99077" data-name="Trazado 99077" d="M272.58,863.453l.66,5.15a6.389,6.389,0,0,0,3.46-1.55A15.025,15.025,0,0,1,272.58,863.453Z" fill="#d58745"/>
          <path id="Trazado_99078" data-name="Trazado 99078" d="M255.83,871.683s-4.29-4.57-6.46-1.86,1.64,11.54,5.79,10S258.75,873.913,255.83,871.683Z" fill="#ebb376"/>
          <path id="Trazado_99079" data-name="Trazado 99079" d="M274.78,871.793a30.444,30.444,0,0,0-.64,4.27c-.25,0-.51.05-.76.06-3.44.26-5.12-.76-5.94-2a4.3,4.3,0,0,1-.69-2,4.159,4.159,0,0,1,0-1.2c1.9.95,5.13,1,6.85.9A9.473,9.473,0,0,0,274.78,871.793Z" fill="#12263f"/>
          <path id="Trazado_99080" data-name="Trazado 99080" d="M273.61,871.863l-.22,1.25c-3.24.23-5.56,0-6.64-.95a4.159,4.159,0,0,1,0-1.2C268.66,871.913,271.89,871.923,273.61,871.863Z" fill="#dee7f3"/>
          <path id="Trazado_99081" data-name="Trazado 99081" d="M273.38,876.123c-3.44.26-5.12-.76-5.94-2a11.053,11.053,0,0,1,3.88.48A4.191,4.191,0,0,1,273.38,876.123Z" fill="#de5753"/>
          <path id="Trazado_99082" data-name="Trazado 99082" d="M266.78,846.093c5.22-.5,5.62,5.92-.11,8.79l1.09-2.32s-3.88,4.5-8.61,4.14c0,0,2-1.13,2.14-4.41A6.3,6.3,0,0,1,266.78,846.093Z" fill="#12263f"/>
        </g>
      </g>
      <g id="Grupo_49132" data-name="Grupo 49132">
        <g id="Grupo_49131" data-name="Grupo 49131">
          <g id="Grupo_49130" data-name="Grupo 49130">
            <path id="Trazado_99083" data-name="Trazado 99083" d="M416.276,1022.338a.5.5,0,0,1-.314-.111,132.012,132.012,0,0,1-45.824-74.706.5.5,0,1,1,.978-.209,131.009,131.009,0,0,0,45.476,74.138.5.5,0,0,1-.316.888Z" fill="#0a4b6e"/>
          </g>
          <path id="Trazado_99084" data-name="Trazado 99084" d="M373.258,957.623s-17.374-25.784-8.771-29.656S373.258,957.623,373.258,957.623Z" fill="#0a4b6e"/>
          <path id="Trazado_99085" data-name="Trazado 99085" d="M377.3,968.75s-30.323-6.871-26.711-15.587S377.3,968.75,377.3,968.75Z" fill="#0a4b6e"/>
          <path id="Trazado_99086" data-name="Trazado 99086" d="M377.3,968.75s8.2-29.99,16.749-26S377.3,968.75,377.3,968.75Z" fill="#0a4b6e"/>
          <path id="Trazado_99087" data-name="Trazado 99087" d="M381.636,978.307s13.117-28.188,20.874-22.818S381.636,978.307,381.636,978.307Z" fill="#0a4b6e"/>
          <path id="Trazado_99088" data-name="Trazado 99088" d="M387.126,988.887S400.243,960.7,408,966.069,387.126,988.887,387.126,988.887Z" fill="#0a4b6e"/>
          <path id="Trazado_99089" data-name="Trazado 99089" d="M393.838,998.582s13.118-28.188,20.874-22.818S393.838,998.582,393.838,998.582Z" fill="#0a4b6e"/>
          <path id="Trazado_99090" data-name="Trazado 99090" d="M381.636,978.307s-31.09-.278-29.41-9.562S381.636,978.307,381.636,978.307Z" fill="#0a4b6e"/>
          <path id="Trazado_99091" data-name="Trazado 99091" d="M387.126,988.887s-30.763,4.509-30.532-4.923S387.126,988.887,387.126,988.887Z" fill="#0a4b6e"/>
          <path id="Trazado_99092" data-name="Trazado 99092" d="M393.838,998.582s-30.45,6.283-30.765-3.146S393.838,998.582,393.838,998.582Z" fill="#0a4b6e"/>
        </g>
      </g>
      <g id="Grupo_49136" data-name="Grupo 49136">
        <g id="Grupo_49135" data-name="Grupo 49135">
          <g id="Grupo_49134" data-name="Grupo 49134">
            <g id="Grupo_49133" data-name="Grupo 49133">
              <path id="Trazado_99093" data-name="Trazado 99093" d="M663.017,1014.784a.5.5,0,0,1-.381-.824,114.51,114.51,0,0,0,27.224-70.98.512.512,0,0,1,.513-.486.5.5,0,0,1,.487.514,115.507,115.507,0,0,1-27.463,71.6A.494.494,0,0,1,663.017,1014.784Z" fill="#0a4b6e"/>
            </g>
          </g>
          <path id="Trazado_99094" data-name="Trazado 99094" d="M689.73,952.19s10.814-24.947,2.8-26.9S689.73,952.19,689.73,952.19Z" fill="#0a4b6e"/>
          <path id="Trazado_99095" data-name="Trazado 99095" d="M688.033,962.4s24.972-10.758,20.472-17.674S688.033,962.4,688.033,962.4Z" fill="#0a4b6e"/>
          <path id="Trazado_99096" data-name="Trazado 99096" d="M688.033,962.4s-11.849-24.473-18.559-19.673S688.033,962.4,688.033,962.4Z" fill="#0a4b6e"/>
          <path id="Trazado_99097" data-name="Trazado 99097" d="M685.836,971.315s-15.787-22.137-21.6-16.279S685.836,971.315,685.836,971.315Z" fill="#0a4b6e"/>
          <path id="Trazado_99098" data-name="Trazado 99098" d="M682.809,981.29s-15.788-22.138-21.6-16.28S682.809,981.29,682.809,981.29Z" fill="#0a4b6e"/>
          <path id="Trazado_99099" data-name="Trazado 99099" d="M678.588,990.7s-15.787-22.138-21.6-16.279S678.588,990.7,678.588,990.7Z" fill="#0a4b6e"/>
          <path id="Trazado_99100" data-name="Trazado 99100" d="M685.836,971.315s26.686-5.213,23.757-12.926S685.836,971.315,685.836,971.315Z" fill="#0a4b6e"/>
          <path id="Trazado_99101" data-name="Trazado 99101" d="M682.809,981.29s27.17-1.045,25.463-9.117S682.809,981.29,682.809,981.29Z" fill="#0a4b6e"/>
          <path id="Trazado_99102" data-name="Trazado 99102" d="M678.588,990.7s27.186.531,25.949-7.627S678.588,990.7,678.588,990.7Z" fill="#0a4b6e"/>
        </g>
      </g>
      <path id="Trazado_99103" data-name="Trazado 99103" d="M490.244,991.551s-38.222-25.721-31.165-71.588C459.079,919.963,486.128,930.833,490.244,991.551Z" fill="#0a4b6e"/>
      <path id="Trazado_99104" data-name="Trazado 99104" d="M490.244,991.551s-10-32.281,13.525-54.287C503.769,937.264,510.825,964.938,490.244,991.551Z" fill="#0a4b6e"/>
      <path id="Trazado_99105" data-name="Trazado 99105" d="M876.484,1036.057H188.209c65.071-40.548,148.579-48.815,219.007-18.511,67.752-17.863,141.742-19.8,210.456-6.1C658.5,994.209,799.277,981.4,876.484,1036.057Z" fill="#416862"/>
      <g id="freepik--character-3--inject-15">
        <g id="freepik--group--inject-15-2" data-name="freepik--group--inject-15">
          <path id="Trazado_99106" data-name="Trazado 99106" d="M771.508,820.164s-2.648,18.692,0,33.447,5.155,23.977,3.826,30.491l4.276,1.149s1.8-4.206,1.639-7.293c0,0,.589,5.425,0,7.293s0,.729,0,.729,18.2,1.689,28.262-.729,1-56.016,1-56.016S784.875,817.3,771.508,820.164Z" fill="#12263f"/>
          <path id="Trazado_99107" data-name="Trazado 99107" d="M756.542,862.5l-2.557-6.684s1.2-4.266-.22-5.764-9.671-5.515-10.989-5.415-4.246,4.775-3.777,6.993,9.131,5.995,9.131,5.995l2.368,7.233Z" fill="#ebb376"/>
          <path id="Trazado_99108" data-name="Trazado 99108" d="M784.545,871.374s-3,1.589-7.063,3.477c-6.294,2.947-15.045,6.624-18.682,6.154-5.994-.769-11.059-20.65-11.059-20.65l7.213-4.166s4.436,8.991,7.323,12.108,8.651-5.764,16.824-9.94l2.887,6.893Z" fill="#36c"/>
          <path id="Trazado_99109" data-name="Trazado 99109" d="M784.545,871.374s-3,1.589-7.063,3.477a14.089,14.089,0,0,1,4.506-9.6Z" opacity="0.2" style="isolation: isolate"/>
          <path id="Trazado_99110" data-name="Trazado 99110" d="M790.18,948.5l15.685,13.047s-23.887,9.291-48.753,2.768a61.832,61.832,0,0,1-5.915-1.849c-26.834-9.91,26.2-51.63,26.2-51.63l25.975,8.862,5.345,1.818Z" fill="#12263f"/>
          <path id="Trazado_99111" data-name="Trazado 99111" d="M790.18,948.5l15.685,13.047s-23.887,9.291-48.753,2.768a8.894,8.894,0,0,1-1.289-5.2c.869-14.616,34.357-39.482,34.357-39.482a110.3,110.3,0,0,1,13.187.06l5.345,1.818Z" opacity="0.2" style="isolation: isolate"/>
          <path id="Trazado_99112" data-name="Trazado 99112" d="M842.8,960.648a1.049,1.049,0,0,1-.379,1.069.762.762,0,0,1-.68.24c-1.109-.2-2.308-2.867-2.437-3.177a.229.229,0,0,1,0-.21.191.191,0,0,1,.209-.05,10.088,10.088,0,0,1,2.1.929A2.291,2.291,0,0,1,842.8,960.648Zm-1,.889a.372.372,0,0,0,.33-.119.722.722,0,0,0,.25-.68c-.13-.549-1.059-1.169-2.518-1.718C840.372,960.079,841.211,961.428,841.8,961.537Z" fill="#36c" stroke="#407bff" stroke-miterlimit="10" stroke-width="1"/>
          <path id="Trazado_99113" data-name="Trazado 99113" d="M840,962.107a1,1,0,0,1-1.089.32.742.742,0,0,1-.59-.42c-.479-1,1-3.537,1.169-3.826a.269.269,0,0,1,.2-.09.18.18,0,0,1,.16.14,10.352,10.352,0,0,1,.46,2.257A2.2,2.2,0,0,1,840,962.107Zm-1.279-.27a.363.363,0,0,0,.29.21.758.758,0,0,0,.7-.19c.36-.43.33-1.548-.07-3.057-.559,1-1.179,2.5-.919,3Z" fill="#36c" stroke="#407bff" stroke-miterlimit="10" stroke-width="1"/>
          <path id="Trazado_99114" data-name="Trazado 99114" d="M838.313,959.1l-8.152-4.995a.62.62,0,0,1-.239-.83h0l3.566-6.7a1.508,1.508,0,0,1,2.058-.51c2.817,1.8,4.076,2.8,7.643,5,2.2,1.358,6.673,3.836,9.391,6.164s.329,4.995-1,4.206c-3.227-1.759-8.712-2.348-11.749-2A2.36,2.36,0,0,1,838.313,959.1Z" fill="#12263f"/>
          <path id="Trazado_99115" data-name="Trazado 99115" d="M783.057,895.091a69.349,69.349,0,0,0,.15-11.778c-.51-8.8-2.138-18.742-4.106-24.916,0,0,4.565-4.995,19.92-6.284s22.718,2,22.718,2,1.059,5.075,2.218,12.868a264.213,264.213,0,0,1,2.788,29.451Z" fill="#36c"/>
          <path id="Trazado_99116" data-name="Trazado 99116" d="M808.392,854.541l-12.228,4.295-4.486-2.148a8.154,8.154,0,0,0,1.359-2.118c2.268-5.045-2.6-9.44-2.6-9.44l5.065-1.9,11.159-4.166C802.408,848.736,808.392,854.541,808.392,854.541Z" fill="#ebb376"/>
          <path id="Trazado_99117" data-name="Trazado 99117" d="M805.066,843.231s-4.426,10.48-12.059,11.339c2.268-5.045-2.6-9.44-2.6-9.44l5.065-1.9Z" opacity="0.2" style="isolation: isolate"/>
          <path id="Trazado_99118" data-name="Trazado 99118" d="M783.057,895.091l43.688,1.339s5.394,22.518,0,35.516-23.827,18.562-23.827,18.562l28.4.18s6.164,3.9,6.993,8.452c0,0-54.777,13.317-68.344,5.325s20.2-44.8,20.2-44.8l-12.768-8.8C782.407,899.088,783.057,895.091,783.057,895.091Z" fill="#12263f"/>
          <path id="Trazado_99119" data-name="Trazado 99119" d="M791.389,852.273s7.483,4.775,15.984-1.868l3.927,3.636s-5.845,8.1-13.607,7.912-9.861-5.774-9.861-5.774Z" fill="#36c"/>
          <path id="Trazado_99120" data-name="Trazado 99120" d="M772.267,818.3s-7.273,13.9,9.331,18.593C800.35,842.2,772.267,818.3,772.267,818.3Z" fill="#12263f"/>
          <path id="Trazado_99121" data-name="Trazado 99121" d="M805.735,822.072c3,8.871,2.2,20.46-4.4,24.776-12.1,7.9-18.292,7.553-23.847-1.559-4.995-8.182-7.782-23.327,2-30.47S801.549,809.764,805.735,822.072Z" fill="#ebb376"/>
          <path id="Trazado_99122" data-name="Trazado 99122" d="M773.386,824.589a25.841,25.841,0,0,0,12.988-4.595s10.929-.2,12.288,6.184,4.236,5.535,7.8,13.237c0,0,7.743-4.436,1.759-22.089-4.346-12.857-17.224-13.117-28.243-8.192C770.779,813.25,767.042,822.741,773.386,824.589Z" fill="#12263f"/>
          <path id="Trazado_99123" data-name="Trazado 99123" d="M787.123,832.871c.419,1.109.17,2.248-.57,2.508s-1.648-.41-2.078-1.529-.159-2.227.57-2.507S786.683,831.752,787.123,832.871Z" fill="#12263f"/>
          <path id="Trazado_99124" data-name="Trazado 99124" d="M778.052,835.779c.409,1.069.169,2.158-.54,2.407s-1.578-.4-2-1.458-.16-2.138.529-2.408S777.692,834.72,778.052,835.779Z" fill="#12263f"/>
          <path id="Trazado_99125" data-name="Trazado 99125" d="M781.808,828.486a.643.643,0,0,1-.27-.19.549.549,0,0,1,.18-.739,5.253,5.253,0,0,1,4.865-.45.529.529,0,0,1,.264.7l0,.008h0a.569.569,0,0,1-.719.26h0a4.2,4.2,0,0,0-3.866.43A.544.544,0,0,1,781.808,828.486Z" fill="#12263f"/>
          <path id="Trazado_99126" data-name="Trazado 99126" d="M773.346,832.152a.5.5,0,0,1-.519-.769,5.264,5.264,0,0,1,4.056-2.728.549.549,0,0,1,.569.51h0a.559.559,0,0,1-.509.559h0a4.216,4.216,0,0,0-3.2,2.238A.612.612,0,0,1,773.346,832.152Z" fill="#12263f"/>
          <path id="Trazado_99127" data-name="Trazado 99127" d="M811.32,830.334s3.506,5.724,3.6,15.255-4.995,17.893-5.694,23.028.579,6.654.579,6.654l-5.335-1.159s-1.668-7.313,1.688-12.129a14.478,14.478,0,0,0-3.236,6.664s-1.339-3.437,1.4-12.438,4.376-15.775.24-20.321S811.32,830.334,811.32,830.334Z" fill="#12263f"/>
          <path id="Trazado_99128" data-name="Trazado 99128" d="M780.279,836.418l3,4.286a6.522,6.522,0,0,1-3.617,1.149A15.1,15.1,0,0,0,780.279,836.418Z" fill="#d58745"/>
          <path id="Trazado_99129" data-name="Trazado 99129" d="M798.242,831.4s.15-6.264,3.577-5.685,6.463,9.691,2.367,11.329S797.543,835.009,798.242,831.4Z" fill="#ebb376"/>
          <path id="Trazado_99130" data-name="Trazado 99130" d="M784.535,844.57a29.522,29.522,0,0,1,3.537,2.468,6.881,6.881,0,0,0,.569-.51c2.558-2.318,3-4.226,2.658-5.654a4.35,4.35,0,0,0-1-1.869,4.168,4.168,0,0,0-.879-.819c-.62,2-2.828,4.376-4.066,5.575A10.926,10.926,0,0,1,784.535,844.57Z" fill="#12263f"/>
          <path id="Trazado_99131" data-name="Trazado 99131" d="M785.4,843.761l1.058.709c2.4-2.188,3.8-4.056,3.887-5.465a4.168,4.168,0,0,0-.879-.819C788.841,840.214,786.683,842.562,785.4,843.761Z" fill="#dee7f3"/>
          <path id="Trazado_99132" data-name="Trazado 99132" d="M788.681,846.528c2.558-2.318,3-4.226,2.658-5.654a10.886,10.886,0,0,0-2.318,3.137A4.143,4.143,0,0,0,788.681,846.528Z" fill="#de5753"/>
          <path id="Trazado_99133" data-name="Trazado 99133" d="M770.529,818.665s-2,5.245,6.264,8.991l3.566-1.848-1.258-1.239,6.7,1.139h4.176l-4.176-2.887s7.133,1.8,8.991,6.384h4.6l-.36-1.608s4.7,5.654,8.372,7.872,3.907-5.1,3.907-5.1-9.9-16.754-22.739-16.764S770.529,818.665,770.529,818.665Z" fill="#12263f"/>
          <path id="Trazado_99134" data-name="Trazado 99134" d="M783.057,895.091a69.349,69.349,0,0,0,.15-11.778c4.755,4.995,13.507,8.122,13.507,8.122s15.4-6.734,18.2-9.631,3-16.884,3-16.884l5.994,2.059A264.228,264.228,0,0,1,826.7,896.43Z" opacity="0.2" style="isolation: isolate"/>
          <path id="Trazado_99135" data-name="Trazado 99135" d="M802.918,894.092l-6.784,2.3s-4.206-1.369-5.754,0-5.9,9.441-5.845,10.79,4.606,4.425,6.854,4,6.344-8.882,6.344-8.882l7.333-2.088Z" fill="#ebb376"/>
          <path id="Trazado_99136" data-name="Trazado 99136" d="M817.5,856.179c-1.629,3.616,4,22.079,2.078,26.694s-21.46,10.64-21.46,10.64l2.058,8.821s28.093-4.785,30.97-12.288c2.078-5.385-2.307-24.4-5.774-30.97S819.232,852.333,817.5,856.179Z" fill="#36c"/>
        </g>
      </g>
      <g id="Grupo_49157" data-name="Grupo 49157">
        <g id="Grupo_49156" data-name="Grupo 49156">
          <g id="Grupo_49139" data-name="Grupo 49139">
            <g id="Grupo_49138" data-name="Grupo 49138">
              <path id="Trazado_99137" data-name="Trazado 99137" d="M632.071,1033.672H420.891v-6.37h6.53c1.56,0,5.36-6.3,5.36-17.96s-3.8-17.95-5.36-17.95h-6.53v-6.38h211.18C647.711,985.012,647.711,1033.672,632.071,1033.672Z" fill="#3e2954"/>
              <path id="Trazado_99138" data-name="Trazado 99138" d="M632.071,1033.672H420.891v-6.37h5.87c148.3,13.19,186.17-25.64,195.5-42.29h9.81C647.711,985.012,647.711,1033.672,632.071,1033.672Z" fill="#2d1e3d"/>
              <path id="Trazado_99139" data-name="Trazado 99139" d="M637.431,1009.342c0,.24,0,.48-.01.71a44.39,44.39,0,0,1-.3,4.84c-.05.49-.12.96-.19,1.42a32.182,32.182,0,0,1-1.08,4.84c-.15.5-.31.98-.47,1.42-1.16,3.11-2.52,4.73-3.31,4.73H427.421c.79,0,2.15-1.62,3.31-4.73.16-.44.32-.92.47-1.42a32.178,32.178,0,0,0,1.08-4.84c.02-.12.04-.24.05-.37.05-.34.1-.69.14-1.05a47.06,47.06,0,0,0,.3-4.84c.01-.23.01-.47.01-.71s0-.48-.01-.71a47.24,47.24,0,0,0-.3-4.84c-.06-.49-.12-.96-.19-1.42a32.179,32.179,0,0,0-1.08-4.84c-.15-.5-.31-.98-.47-1.42-1.16-3.11-2.52-4.72-3.31-4.72h204.65c.79,0,2.15,1.61,3.31,4.72.16.44.32.92.47,1.42a32.183,32.183,0,0,1,1.08,4.84c.07.46.14.93.19,1.42a44.551,44.551,0,0,1,.3,4.84C637.431,1008.862,637.431,1009.1,637.431,1009.342Z" fill="#dee7f3"/>
              <path id="Trazado_99140" data-name="Trazado 99140" d="M637.421,1008.632c.01.23.01.47.01.71s0,.48-.01.71a44.39,44.39,0,0,1-.3,4.84c-.05.49-.12.96-.19,1.42a32.182,32.182,0,0,1-1.08,4.84c-.15.5-.31.98-.47,1.42-1.16,3.11-2.52,4.73-3.31,4.73H427.421c.79,0,2.15-1.62,3.31-4.73.16-.44.32-.92.47-1.42a32.178,32.178,0,0,0,1.08-4.84c.02-.12.04-.24.05-.37,113.01,14.8,163.22-9.83,182.32-24.55h17.42c.79,0,2.15,1.61,3.31,4.72.16.44.32.92.47,1.42a32.183,32.183,0,0,1,1.08,4.84c.07.46.14.93.19,1.42A44.551,44.551,0,0,1,637.421,1008.632Z" fill="#fadbc0"/>
              <g id="Grupo_49137" data-name="Grupo 49137">
                <path id="Trazado_99141" data-name="Trazado 99141" d="M635.855,997.534H431.2c-.153-.5-.313-.982-.479-1.422H635.377C635.543,996.552,635.7,997.03,635.855,997.534Z" fill="#d6b598"/>
                <path id="Trazado_99142" data-name="Trazado 99142" d="M637.118,1003.795H432.467c-.051-.491-.115-.962-.185-1.422H636.933C637,1002.833,637.067,1003.3,637.118,1003.795Z" fill="#d6b598"/>
                <path id="Trazado_99143" data-name="Trazado 99143" d="M637.43,1009.343c0,.242,0,.478-.006.714H432.773c.006-.236.006-.472.006-.714s0-.479-.006-.715H637.424C637.43,1008.864,637.43,1009.1,637.43,1009.343Z" fill="#d6b598"/>
                <path id="Trazado_99144" data-name="Trazado 99144" d="M637.118,1014.89c-.051.491-.115.963-.185,1.422H432.282c.07-.459.134-.931.185-1.422Z" fill="#d6b598"/>
                <path id="Trazado_99145" data-name="Trazado 99145" d="M635.855,1021.151c-.153.5-.312.982-.478,1.422H430.726c.166-.44.326-.918.479-1.422Z" fill="#d6b598"/>
              </g>
            </g>
          </g>
          <g id="Grupo_49143" data-name="Grupo 49143">
            <g id="Grupo_49142" data-name="Grupo 49142">
              <g id="Grupo_49141" data-name="Grupo 49141">
                <g id="Grupo_49140" data-name="Grupo 49140">
                  <path id="Trazado_99146" data-name="Trazado 99146" d="M526.389,819.413h-10.3v132.7H546.2v-132.7Z" fill="#fcb647"/>
                  <rect id="Rectángulo_28376" data-name="Rectángulo 28376" width="10.036" height="132.701" transform="translate(526.125 819.413)" fill="#fcc977"/>
                </g>
                <rect id="Rectángulo_28377" data-name="Rectángulo 28377" width="30.109" height="14.497" transform="translate(516.089 952.115)" fill="#3e2954"/>
                <rect id="Rectángulo_28378" data-name="Rectángulo 28378" width="7.016" height="14.497" transform="translate(539.181 952.115)" fill="#2d1e3d"/>
                <path id="Trazado_99147" data-name="Trazado 99147" d="M546.2,966.612v3.34a15.055,15.055,0,1,1-30.11,0v-3.34Z" fill="#eb576a"/>
                <path id="Trazado_99148" data-name="Trazado 99148" d="M539.951,966.612a15.041,15.041,0,0,1-20.14,13.25,15.027,15.027,0,0,1-3.72-9.91v-3.34Z" fill="#fc7788"/>
              </g>
              <path id="Trazado_99149" data-name="Trazado 99149" d="M546.2,819.414h-30.11l8.84-11.32,6.22-7.96,6.22,7.96Z" fill="#dee7f3"/>
              <path id="Trazado_99150" data-name="Trazado 99150" d="M537.366,808.094a10.072,10.072,0,0,1-12.44,0l6.22-7.96Z" fill="#3e2954"/>
            </g>
          </g>
          <g id="Grupo_49148" data-name="Grupo 49148">
            <g id="Grupo_49147" data-name="Grupo 49147">
              <g id="Grupo_49146" data-name="Grupo 49146">
                <g id="Grupo_49144" data-name="Grupo 49144">
                  <path id="Trazado_99151" data-name="Trazado 99151" d="M196.958,959.863a.488.488,0,0,1-.2-.043.5.5,0,0,1-.253-.66l73.157-164.115a.5.5,0,1,1,.913.407L197.415,959.567A.5.5,0,0,1,196.958,959.863Z" fill="#3e2954"/>
                </g>
                <g id="Grupo_49145" data-name="Grupo 49145">
                  <path id="Trazado_99152" data-name="Trazado 99152" d="M343.273,959.863a.5.5,0,0,1-.457-.3L269.659,795.452a.5.5,0,1,1,.913-.407L343.729,959.16a.5.5,0,0,1-.253.66A.488.488,0,0,1,343.273,959.863Z" fill="#3e2954"/>
                </g>
              </g>
            </g>
            <path id="Trazado_99153" data-name="Trazado 99153" d="M352.351,956.262v6.07a33.033,33.033,0,0,1-33.03,33.03H220.9a33.024,33.024,0,0,1-33.02-33.03v-6.07Z" fill="#6c93a8"/>
            <path id="Trazado_99154" data-name="Trazado 99154" d="M329.5,956.262v6.07a33.033,33.033,0,0,1-33.03,33.03H220.9a33.024,33.024,0,0,1-33.02-33.03v-6.07Z" fill="#9db7c5"/>
          </g>
          <g id="Grupo_49153" data-name="Grupo 49153">
            <g id="Grupo_49152" data-name="Grupo 49152">
              <g id="Grupo_49151" data-name="Grupo 49151">
                <g id="Grupo_49149" data-name="Grupo 49149">
                  <path id="Trazado_99155" data-name="Trazado 99155" d="M719.011,959.863a.488.488,0,0,1-.2-.043.5.5,0,0,1-.253-.66l73.157-164.115a.5.5,0,0,1,.913.407L719.468,959.567A.5.5,0,0,1,719.011,959.863Z" fill="#3e2954"/>
                </g>
                <g id="Grupo_49150" data-name="Grupo 49150">
                  <path id="Trazado_99156" data-name="Trazado 99156" d="M865.326,959.863a.5.5,0,0,1-.457-.3L791.712,795.452a.5.5,0,0,1,.913-.407L865.782,959.16a.5.5,0,0,1-.253.66A.492.492,0,0,1,865.326,959.863Z" fill="#3e2954"/>
                </g>
              </g>
            </g>
            <path id="Trazado_99157" data-name="Trazado 99157" d="M874.4,956.262v6.07a33.024,33.024,0,0,1-33.02,33.03h-98.42a33.032,33.032,0,0,1-33.03-33.03v-6.07Z" fill="#6c93a8"/>
            <path id="Trazado_99158" data-name="Trazado 99158" d="M852.011,956.262v6.07a33.032,33.032,0,0,1-33.03,33.03h-76.02a33.032,33.032,0,0,1-33.03-33.03v-6.07Z" fill="#9db7c5"/>
          </g>
          <g id="Grupo_49155" data-name="Grupo 49155">
            <path id="Trazado_99159" data-name="Trazado 99159" d="M792.191,790.652v7.81l-226.65,15.92a33.978,33.978,0,0,1-21.02-5.48l-13.38-8.77-13.37,8.77a34.007,34.007,0,0,1-21.03,5.48l-226.65-15.92v-7.81H485.4a43.055,43.055,0,0,0,27.48-9.92l11.96-9.93a9.844,9.844,0,0,1,12.6,0l11.97,9.93a43.008,43.008,0,0,0,27.47,9.92Z" fill="#3b6f8b"/>
            <path id="Trazado_99160" data-name="Trazado 99160" d="M788.921,790.652l-223.38,15.69a33.912,33.912,0,0,1-21.02-5.48l-13.38-8.76-13.37,8.76a33.941,33.941,0,0,1-21.03,5.48l-223.38-15.69H485.4a43.055,43.055,0,0,0,27.48-9.92l11.96-9.93a9.844,9.844,0,0,1,12.6,0l11.97,9.93a43.008,43.008,0,0,0,27.47,9.92Z" fill="#6c93a8"/>
            <g id="Grupo_49154" data-name="Grupo 49154">
              <circle id="Elipse_3936" data-name="Elipse 3936" cx="8.94" cy="8.94" r="8.94" transform="matrix(0.23, -0.973, 0.973, 0.23, 259.36, 801.896)" fill="#fcb647"/>
              <circle id="Elipse_3937" data-name="Elipse 3937" cx="8.94" cy="8.94" r="8.94" transform="translate(781.914 787.851) rotate(-9.192)" fill="#fcb647"/>
            </g>
          </g>
        </g>
        <path id="Trazado_99161" data-name="Trazado 99161" d="M709.529,904.668H580.667c3.017-3.475,5.857-6.519,10.078-8.352s9.823-1.356,12.576,2.332a34.175,34.175,0,0,1,1.267-14.519c1.5-4.528,4.961-8.639,9.586-9.8s10.2,1.429,11.375,6.052c.39-7.228,1.084-15.606,5.693-21.186A25.818,25.818,0,0,1,650,849.615c7.236-.2,14.619,3.468,18.271,9.718,2.757,4.716,3.286,10.478,2.5,15.884s-2.8,10.548-4.873,15.6a14.415,14.415,0,0,1,13.189-1.9,14.022,14.022,0,0,1,8.81,9.739c3.361-2.131,7.487-2.188,11.4-1.449S707.177,901.459,709.529,904.668Z" fill="#dee7f3"/>
        <path id="Trazado_99162" data-name="Trazado 99162" d="M964.009,810.988H835.147c3.017-3.475,5.857-6.519,10.078-8.351s9.824-1.357,12.576,2.331a34.168,34.168,0,0,1,1.267-14.518c1.5-4.529,4.961-8.64,9.586-9.8s10.2,1.43,11.375,6.052c.39-7.228,1.084-15.605,5.693-21.186a25.825,25.825,0,0,1,18.758-9.579c7.236-.2,14.619,3.469,18.271,9.718,2.757,4.716,3.286,10.478,2.5,15.884s-2.8,10.548-4.873,15.6a14.418,14.418,0,0,1,13.189-1.9,14.025,14.025,0,0,1,8.81,9.739c3.361-2.131,7.487-2.187,11.4-1.449S961.657,807.779,964.009,810.988Z" fill="#dee7f3"/>
        <path id="Trazado_99163" data-name="Trazado 99163" d="M474.38,772.46H345.518c3.017-3.475,5.857-6.519,10.078-8.352s9.823-1.356,12.576,2.332a34.175,34.175,0,0,1,1.267-14.519c1.5-4.528,4.961-8.639,9.586-9.8s10.2,1.429,11.375,6.052c.389-7.228,1.083-15.6,5.693-21.186a25.816,25.816,0,0,1,18.758-9.579c7.236-.2,14.618,3.469,18.271,9.718,2.757,4.716,3.286,10.478,2.5,15.884s-2.8,10.548-4.873,15.6a14.415,14.415,0,0,1,13.189-1.9,14.022,14.022,0,0,1,8.81,9.739c3.361-2.131,7.487-2.188,11.4-1.449S472.028,769.251,474.38,772.46Z" fill="#dee7f3"/>
        <path id="Trazado_99164" data-name="Trazado 99164" d="M221.612,873.862H92.75c3.017-3.476,5.857-6.52,10.078-8.352s9.823-1.357,12.576,2.331a34.169,34.169,0,0,1,1.267-14.518c1.5-4.529,4.96-8.64,9.586-9.8s10.2,1.43,11.375,6.052c.389-7.228,1.083-15.6,5.693-21.186a25.823,25.823,0,0,1,18.758-9.579c7.236-.2,14.618,3.469,18.271,9.718,2.757,4.717,3.286,10.478,2.5,15.884s-2.8,10.548-4.873,15.6a14.419,14.419,0,0,1,13.189-1.9,14.025,14.025,0,0,1,8.81,9.739c3.361-2.13,7.486-2.187,11.4-1.449S219.26,870.652,221.612,873.862Z" fill="#dee7f3"/>
      </g>
    </g>
  </g>
</svg>
