<svg id="Icon" xmlns="http://www.w3.org/2000/svg" width="103.304" height="103.304" viewBox="0 0 103.304 103.304">
  <circle id="Base" cx="51.652" cy="51.652" r="51.652" fill="#ea3065"/>
  <g id="Grupo_49635" data-name="Grupo 49635" transform="translate(23.253 19.889)">
    <path id="Trazado_100034" data-name="Trazado 100034" d="M230.116,233.028a.931.931,0,1,0-1.681-.8,2.413,2.413,0,0,1-4.36,0,.931.931,0,0,0-1.681.8,4.274,4.274,0,0,0,7.723,0Z" transform="translate(-198.085 -202.95)" fill="#fff"/>
    <ellipse id="Elipse_3940" data-name="Elipse 3940" cx="1.344" cy="2.001" rx="1.344" ry="2.001" transform="translate(19.952 22.244)" fill="#fff"/>
    <ellipse id="Elipse_3941" data-name="Elipse 3941" cx="1.344" cy="2.001" rx="1.344" ry="2.001" transform="translate(33.7 22.244)" fill="#fff"/>
    <path id="Trazado_100035" data-name="Trazado 100035" d="M331.444,313.312a.93.93,0,0,0-1.107-.712l-10.3,2.233a.931.931,0,1,0,.394,1.819l10.3-2.233a.931.931,0,0,0,.712-1.107Z" transform="translate(-283.046 -273.795)" fill="#fff"/>
    <path id="Trazado_100036" data-name="Trazado 100036" d="M330.337,340.47l-10.3,2.233a.931.931,0,1,0,.394,1.819l10.3-2.233a.931.931,0,1,0-.394-1.819Z" transform="translate(-283.045 -298.207)" fill="#fff"/>
    <path id="Trazado_100037" data-name="Trazado 100037" d="M80.372,36.441h-.557V34.8a3.783,3.783,0,0,0-4.584-3.7L70.38,32.152a9.233,9.233,0,0,0,.564-2.73q.047-.92.076-1.842a4.159,4.159,0,0,0-.064-8.141q-.168-3.5-.578-6.976A19.165,19.165,0,0,0,74.8,5.65a3.158,3.158,0,0,0-.288-2.871,2.386,2.386,0,0,0-1.937-.99,4.911,4.911,0,0,0-2.965,1.3,3.31,3.31,0,0,0-.419-1.967A2.51,2.51,0,0,0,66.906,0,5.535,5.535,0,0,0,62.8,2.1,3.065,3.065,0,0,0,62.274.889,2.255,2.255,0,0,0,60.4,0c-1.508,0-2.7,1.251-3.882,2.767a18,18,0,0,0-2-.969c-.369-.151-.75-.29-1.135-.415A10.726,10.726,0,0,0,49.576.815l-.031,0h-.009c-.172.01-.339.025-.513.047a6.36,6.36,0,0,0-4.717,3.024c-2.019-.707-5.278-.962-7.053,1.916a.931.931,0,1,0,1.584.977c1.66-2.69,5.3-.961,5.456-.887a.93.93,0,0,0,1.238-.408,4.7,4.7,0,0,1,3.725-2.775c.127-.016.25-.027.377-.035l.059,0a8.9,8.9,0,0,1,3.126.481c.339.11.677.234,1,.367a16.136,16.136,0,0,1,1.563.743,8.386,8.386,0,0,1-3.03,2.867A.931.931,0,0,0,53,8.877c1.719-.635,3.038-2.385,4.314-4.077,1.039-1.378,2.216-2.939,3.092-2.939.25,0,.331.079.388.154.458.6.236,2.464-.058,3.532a.931.931,0,0,0,1.767.578c.016-.043,1.689-4.264,4.4-4.264.554,0,.673.189.712.251.431.685-.158,2.655-.692,3.771a.931.931,0,0,0,1.573.975,16.779,16.779,0,0,1,1.55-1.682c1.463-1.377,2.246-1.528,2.517-1.528h0a.536.536,0,0,1,.467.258,1.641,1.641,0,0,1-.023,1.237c-.913,3.235-6.146,9.118-10.245,10.7-5.348,2.066-12.5.95-15.935-2.489a.931.931,0,0,0-1.579.523A10.027,10.027,0,0,1,44.3,16.72a4.228,4.228,0,0,1-3.8,2.639h-.07a4.138,4.138,0,0,0-1.384.238,31.734,31.734,0,0,1-1.1-9.7.931.931,0,0,0-1.853-.174A34.786,34.786,0,0,0,37.4,20.68a4.156,4.156,0,0,0,2.151,6.9q.03.923.076,1.842a9.221,9.221,0,0,0,.523,2.622L35.794,31.1a3.783,3.783,0,0,0-4.585,3.7v1.644h-.557a3.543,3.543,0,0,0-3.539,3.539v2.342a3.543,3.543,0,0,0,3.539,3.539h.557v9.909a3.8,3.8,0,0,0,2.982,3.7l18.63,4.037h0c.026.005.052.009.078.013l.018,0a.931.931,0,0,0,.094,0h5a.932.932,0,0,0,.094,0l.018,0c.026,0,.053-.007.078-.013h0l18.63-4.037a3.8,3.8,0,0,0,2.982-3.7V54.5a.931.931,0,0,0-1.861,0v1.269a1.933,1.933,0,0,1-1.515,1.879l-17.5,3.793V36.537L75.625,32.92A1.922,1.922,0,0,1,77.954,34.8V36.75a3.544,3.544,0,0,0-2.1,3.231v2.342a3.543,3.543,0,0,0,2.1,3.231V50.78a.931.931,0,0,0,1.861,0V45.862h.557a3.543,3.543,0,0,0,3.539-3.539V39.981a3.544,3.544,0,0,0-3.54-3.539ZM72.431,23.518a2.3,2.3,0,0,1-1.366,2.1q.027-2.1-.033-4.214A2.3,2.3,0,0,1,72.431,23.518Zm-34.3,0a2.3,2.3,0,0,1,1.4-2.115c-.04,1.4-.049,2.81-.031,4.213A2.3,2.3,0,0,1,38.135,23.518Zm3.347,5.809c-.14-2.7-.165-5.449-.079-8.174a6.191,6.191,0,0,0,4.542-3.568,11.457,11.457,0,0,0,.772-1.877,16,16,0,0,0,7.211,2.809,19.11,19.11,0,0,0,9.51-.934,17.987,17.987,0,0,0,5.25-3.459,99.278,99.278,0,0,1,.4,15.2,7.359,7.359,0,0,1-.989,3.32l-10.19,2.208H53.118L42.4,32.534a7.349,7.349,0,0,1-.923-3.207Zm12.467,7.39h3.126V61.666H53.949ZM28.974,42.322V39.981A1.68,1.68,0,0,1,30.653,38.3h.976a1.68,1.68,0,0,1,1.678,1.678v2.342A1.68,1.68,0,0,1,31.628,44h-.976A1.68,1.68,0,0,1,28.974,42.322Zm4.1,13.449V45.553a3.544,3.544,0,0,0,2.1-3.231V39.981a3.543,3.543,0,0,0-2.1-3.231V34.8A1.922,1.922,0,0,1,35.4,32.92l16.688,3.617V61.443l-17.5-3.793a1.933,1.933,0,0,1-1.515-1.879ZM82.05,42.322A1.68,1.68,0,0,1,80.372,44H79.4a1.68,1.68,0,0,1-1.678-1.678V39.981A1.68,1.68,0,0,1,79.4,38.3h.976a1.68,1.68,0,0,1,1.678,1.678Z" transform="translate(-27.113 0)" fill="#fff"/>
  </g>
</svg>
