<svg xmlns="http://www.w3.org/2000/svg" width="361" height="360.71" viewBox="0 0 361 360.71">
  <g id="Grupo_53044" data-name="Grupo 53044" transform="translate(6083 9256)">
    <rect id="Rectángulo_28715" data-name="Rectángulo 28715" width="360" height="360" transform="translate(-6083 -9256)" fill="none"/>
    <g id="Grupo_53043" data-name="Grupo 53043" transform="translate(-6947.5 -12102.522)">
      <g id="Image_Place_Holder" data-name="Image Place Holder" transform="translate(864.5 2962.863)" opacity="0.13">
        <rect id="Image_Place_Holder-2" data-name="Image Place Holder" width="361" height="244.369" rx="10" fill="#ea3065"/>
      </g>
      <g id="Grupo_52934" data-name="Grupo 52934" transform="translate(918.532 2874.955)">
        <g id="Grupo_52924" data-name="Grupo 52924" transform="translate(29.742 23.818)">
          <g id="Grupo_52917" data-name="Grupo 52917" transform="translate(0)">
            <path id="Trazado_114545" data-name="Trazado 114545" d="M737.329,6007.2l-1.707-9.158,10.571-4.835,1.138,8.463Z" transform="translate(-720.813 -5942.634)" fill="#f28f8f"/>
            <path id="Trazado_114546" data-name="Trazado 114546" d="M737.563,6015.029l-2.584-10.43,12.287-5.879,1.677,11.569Z" transform="translate(-720.693 -5943.668)" fill="#fffbfc"/>
            <path id="Trazado_114547" data-name="Trazado 114547" d="M788.175,6021.581s-20.7,11.553-28.445,10.281c-2.887-.473-7-15.553-9.982-26.72a37.5,37.5,0,0,0-14.769,6.906s.8,28.394,15.345,36.451c12.559,6.956,35.943-5.279,35.943-5.279Z" transform="translate(-720.693 -5944.873)" fill="#12263f"/>
            <path id="Trazado_114548" data-name="Trazado 114548" d="M851.263,6028.072s6.916,4.739,15.852,19.222c7.989,12.946,12.585,39.6,12.585,39.6l-16.688-.2s-2.492-16.657-7.923-26.162Z" transform="translate(-742.502 -5949.174)" fill="#12263f"/>
            <path id="Trazado_114549" data-name="Trazado 114549" d="M817.282,6090.885h-30.1s2.836-55.991,5.651-61.821c2.829-5.859,15.581-9.068,24.451-9.068s21.622,3.208,24.451,9.068c2.815,5.83,5.651,61.821,5.651,61.821Z" transform="translate(-730.483 -5947.658)" fill="#0a4b6e"/>
            <circle id="Elipse_5303" data-name="Elipse 5303" cx="6.643" cy="6.643" r="6.643" transform="translate(96.422 90.352)" fill="#004067"/>
            <g id="Grupo_52914" data-name="Grupo 52914" transform="translate(67.947 73.433)">
              <path id="Trazado_114550" data-name="Trazado 114550" d="M807.426,6021.349s-6.367-.605-6.4,13.033a46.92,46.92,0,0,0,5.243,2.244,35.584,35.584,0,0,0-2.8,8.321s9.259,11.7,15.679,20.285Z" transform="translate(-801.028 -6021.345)" fill="#004067"/>
              <path id="Trazado_114551" data-name="Trazado 114551" d="M835.068,6021.349s6.367-.605,6.4,13.033a46.866,46.866,0,0,1-5.243,2.244,35.568,35.568,0,0,1,2.795,8.321s-9.258,11.7-15.679,20.285Z" transform="translate(-805.213 -6021.345)" fill="#004067"/>
            </g>
            <path id="Trazado_114552" data-name="Trazado 114552" d="M809.07,6024.007l11.593,41.849,11.593-41.849Z" transform="translate(-734.589 -5948.412)" fill="#dfdbdc"/>
            <g id="Grupo_52915" data-name="Grupo 52915" transform="translate(74.481 75.596)">
              <path id="Trazado_114553" data-name="Trazado 114553" d="M809.07,6024.007l11.593,41.849-9.811-41.849Z" transform="translate(-809.07 -6024.007)" fill="#c8c4c5"/>
              <path id="Trazado_114554" data-name="Trazado 114554" d="M833.15,6024.007l-9.811,41.849,11.593-41.849Z" transform="translate(-811.746 -6024.007)" fill="#c8c4c5"/>
            </g>
            <path id="Trazado_114555" data-name="Trazado 114555" d="M816.073,6024.007h-7l1.759,6.351a30.589,30.589,0,0,0,5.2,5.3s.672-7.316,4.825-8.085A10.4,10.4,0,0,1,816.073,6024.007Z" transform="translate(-734.589 -5948.412)" fill="#c8c4c5"/>
            <path id="Trazado_114556" data-name="Trazado 114556" d="M828.352,6024.007a10.406,10.406,0,0,1-4.78,3.568c4.154.77,4.826,8.085,4.826,8.085a28.852,28.852,0,0,0,4.622-4.593l1.956-7.061Z" transform="translate(-737.309 -5948.412)" fill="#c8c4c5"/>
            <path id="Trazado_114557" data-name="Trazado 114557" d="M822.423,6066.943l4.283-15.46c-.56-9.146-2.181-21.68-4.094-21.68-1.993,0-3.669,13.608-4.158,22.812Z" transform="translate(-736.349 -5949.499)" fill="#ea3065"/>
            <path id="Trazado_114558" data-name="Trazado 114558" d="M826.535,6053.458l-4.113,14.844-3.813-13.765c-.061.864-.114,1.707-.156,2.515l3.969,14.328,4.283-15.46C826.657,6055.122,826.6,6054.3,826.535,6053.458Z" transform="translate(-736.349 -5953.935)" fill="#ad1022"/>
            <path id="Trazado_114559" data-name="Trazado 114559" d="M820.277,6037.974a6.092,6.092,0,0,0,5.355,0c-.735-4.659-1.666-8.169-2.678-8.169S821.012,6033.315,820.277,6037.974Z" transform="translate(-736.691 -5949.499)" fill="#ad1022"/>
            <path id="Trazado_114560" data-name="Trazado 114560" d="M826.882,6032.062a4.3,4.3,0,1,1-4.3-4.3A4.3,4.3,0,0,1,826.882,6032.062Z" transform="translate(-736.315 -5949.115)" fill="#ff1e38"/>
            <path id="Trazado_114561" data-name="Trazado 114561" d="M828.713,6016.946c0,6.125-2.992,6.874-6.684,6.874s-6.684-.75-6.684-6.874,2.993-12.96,6.684-12.96S828.713,6010.821,828.713,6016.946Z" transform="translate(-735.766 -5944.656)" fill="#ffa8a7"/>
            <g id="freepik--characters--inject-19" transform="translate(63.822 17.25)">
              <g id="freepik--Chartacter--inject-19">
                <g id="freepik--top--inject-19">
                  <g id="freepik--head--inject-19">
                    <path id="Trazado_114562" data-name="Trazado 114562" d="M839.884,5965.067s3.3.207,5.509,4.333c1.1,2.074,1.932,5.875-.9,16.79a44.271,44.271,0,0,1-5.08,12.069,5.406,5.406,0,0,1-3.092,2.528l.111-8.364.239-5.827s-4.771-4.206-5.208-8.387c-.588-5.382,1.471-8.459,1.471-8.459Z" transform="translate(-802.592 -5954.606)" fill="#12263f"/>
                    <path id="Trazado_114563" data-name="Trazado 114563" d="M834.432,5962.922c-.874-4.69-6.908-10.231-18.42-10.7-9.429-.381-14.9,2.927-18.11,8.46s-.922,12.624-.922,12.624L826.562,5971Z" transform="translate(-795.995 -5952.191)" fill="#12263f"/>
                    <path id="Trazado_114564" data-name="Trazado 114564" d="M837.574,5994.848c-4.308,2.163-6.264-1.224-6.264-1.224a16.3,16.3,0,0,1-6.141,11.256v9.521c-8.244,11.217-22.308,3.948-13.309-4.5v-3.975c-1.257-.014-4.988-.119-6.23-.318-3.848-.557-6.288-3.577-7.481-7.711-1.765-6.13-2.552-15.955-.373-26.45.429-2.027,1.271-4.237,3.116-5.184,4.572-2.329,8.873.9,15.319,3.316,2.664,1,9.111,1.383,10.8.564-2.211,2.5-2.091,10.335,1.248,13.428a7.131,7.131,0,0,0,1.678,2.13c1.414,1.2,2.527-1.964,3.688-3.18a4.85,4.85,0,0,1,7.536,1.638,7.87,7.87,0,0,1-3.4,10.6C837.7,5994.786,837.638,5994.818,837.574,5994.848Z" transform="translate(-796.045 -5954.679)" fill="#ffa8a7"/>
                    <path id="Trazado_114565" data-name="Trazado 114565" d="M821.1,5978.271l4.253,1.813a2.385,2.385,0,0,0-1.271-3.1,2.25,2.25,0,0,0-2.947,1.2C821.12,5978.212,821.108,5978.242,821.1,5978.271Z" transform="translate(-800.667 -5956.808)" fill="#12263f"/>
                    <path id="Trazado_114566" data-name="Trazado 114566" d="M801.294,5978.418l4.451-1.344a2.233,2.233,0,0,0-2.711-1.621l-.11.03A2.441,2.441,0,0,0,801.294,5978.418Z" transform="translate(-796.938 -5956.542)" fill="#12263f"/>
                    <path id="Trazado_114567" data-name="Trazado 114567" d="M823.29,5983.809a1.884,1.884,0,1,1-1.836-1.931,1.884,1.884,0,0,1,1.836,1.931Z" transform="translate(-800.372 -5957.76)" fill="#12263f"/>
                    <path id="Trazado_114568" data-name="Trazado 114568" d="M806.078,5983.165a1.884,1.884,0,1,1-1.843-1.924h.007a1.71,1.71,0,0,1,1.836,1.923Z" transform="translate(-797.144 -5957.639)" fill="#12263f"/>
                    <path id="Trazado_114569" data-name="Trazado 114569" d="M813.817,5979.207l-1.4,11.988-6.36-2.258A28,28,0,0,1,813.817,5979.207Z" transform="translate(-797.846 -5957.259)" fill="#f28f8f"/>
                    <path id="Trazado_114570" data-name="Trazado 114570" d="M828.226,5986.3c-.715,8.181-3.561,8.635-6.487,9-3.88.485-5.708-1.677-12.6-1.948-4.19-.167-5.565,1.026-7.95,1.908-1.789.661-3.18.382-3.824-1.216a27.808,27.808,0,0,1-.97-8.912,66.279,66.279,0,0,0-.19,13.452c.421,3.879,1.693,7.226,3.752,9.118,2.854,2.608,8.976,3.864,16.758,2.472,7.664-1.383,10.812-4.491,11.854-7.155,3.354-8.744,2.337-12.942,3.411-14.58S828.226,5986.3,828.226,5986.3Z" transform="translate(-795.951 -5958.371)" fill="#12263f"/>
                    <path id="Trazado_114571" data-name="Trazado 114571" d="M811.9,5998.327c3.975.072,5.2.794,5.287,3.538.119,3.87-.127,5.167-1.59,5.31-1.748.167-3.029.222-3.044-.875a4.5,4.5,0,0,1,.341-2.464c.644-.707.438-.795-1.3-.858s-1.717.278-1.232.794c.357.406.278,1.734.246,2.5s-.238,1.145-2.711.794c-2.162-.294-1.725-2.019-1.59-5.333C806.447,5999.542,807.441,5998.247,811.9,5998.327Z" transform="translate(-797.87 -5960.844)" fill="#ffa8a7"/>
                    <path id="Trazado_114572" data-name="Trazado 114572" d="M816.3,5999.247l-6.415.628a3.181,3.181,0,0,0,3.338,3.015c.041,0,.08-.005.12-.01A3.393,3.393,0,0,0,816.3,5999.247Z" transform="translate(-798.564 -5961.017)" fill="#b16668"/>
                    <path id="Trazado_114573" data-name="Trazado 114573" d="M816.012,6000.41a3.574,3.574,0,0,1,.8.094,3.337,3.337,0,0,1-2.886,2.6,2.424,2.424,0,1,1,2.09-2.694Z" transform="translate(-799.127 -5961.234)" fill="#f28f8f"/>
                  </g>
                </g>
              </g>
            </g>
            <path id="Trazado_114574" data-name="Trazado 114574" d="M820.137,6026.506a10.289,10.289,0,0,1-6.684-8.2,13.635,13.635,0,0,0-8.2,3.844,27.176,27.176,0,0,0,9.122,9.622S815.984,6027.276,820.137,6026.506Z" transform="translate(-733.874 -5947.341)" fill="#fffbfc"/>
            <path id="Trazado_114575" data-name="Trazado 114575" d="M823.572,6026.506a10.289,10.289,0,0,0,6.684-8.2,13.635,13.635,0,0,1,8.2,3.844,27.166,27.166,0,0,1-9.122,9.622S827.726,6027.276,823.572,6026.506Z" transform="translate(-737.309 -5947.341)" fill="#fffbfc"/>
            <path id="Trazado_114576" data-name="Trazado 114576" d="M741.2,5977.683s-10.877-3.073-15.408,1.53c-2.635,2.677-.7,12.771,1.18,14.568,4.247,4.055,9.211,4.112,17.354-2.046Z" transform="translate(-718.729 -5939.534)" fill="#f28f8f"/>
            <path id="Trazado_114577" data-name="Trazado 114577" d="M738.96,5999.875h0a2.144,2.144,0,0,1-2.651-1.456l-18.829-64.725a2.145,2.145,0,0,1,1.456-2.65h0a2.145,2.145,0,0,1,2.651,1.456l18.829,64.724A2.145,2.145,0,0,1,738.96,5999.875Z" transform="translate(-717.395 -5930.959)" fill="#574039"/>
            <path id="Trazado_114578" data-name="Trazado 114578" d="M727.32,5996.408c1.084-1.819,8.887-3.9,9.078-1.086.22,3.268-7.724,5.009-8.741,3.771A2.192,2.192,0,0,1,727.32,5996.408Z" transform="translate(-719.195 -5942.772)" fill="#ffa8a7"/>
            <path id="Trazado_114579" data-name="Trazado 114579" d="M734.978,5996.55c-.271-.674-.034-1.423,1.03-1.559a.937.937,0,0,1,.718,1.67C736.038,5997.233,735.194,5997.084,734.978,5996.55Z" transform="translate(-720.673 -5942.967)" fill="#ffe2d6"/>
            <path id="Trazado_114580" data-name="Trazado 114580" d="M723.741,5991.761c1.456-2.083,10.912-4.21,11.291-.913.44,3.828-9.227,5.549-10.71,4.063C723.57,5994.159,722.841,5993.047,723.741,5991.761Z" transform="translate(-718.507 -5941.871)" fill="#ffa8a7"/>
            <path id="Trazado_114581" data-name="Trazado 114581" d="M721.594,5979.786c1.627-2.892,12.454-4.647,12.828.033.306,3.826-10.089,4.642-11.984,3.11C721.48,5982.153,720.814,5981.173,721.594,5979.786Z" transform="translate(-718.118 -5939.581)" fill="#ffa8a7"/>
            <path id="Trazado_114582" data-name="Trazado 114582" d="M732.431,5980.341c0-1.08.742-1.98,2.284-1.575a1.393,1.393,0,0,1,.063,2.7C733.512,5981.873,732.431,5981.2,732.431,5980.341Z" transform="translate(-720.215 -5939.908)" fill="#ffe2d6"/>
            <path id="Trazado_114583" data-name="Trazado 114583" d="M721.22,5986.187c1.5-2.737,12.628-4.855,12.949-.441.262,3.609-10.463,4.839-12.191,3.4A2.16,2.16,0,0,1,721.22,5986.187Z" transform="translate(-718.052 -5940.758)" fill="#ffa8a7"/>
            <path id="Trazado_114584" data-name="Trazado 114584" d="M732.119,5986.354c-.1-1.076.565-2.039,2.137-1.772a1.393,1.393,0,0,1,.3,2.686C733.33,5987.784,732.194,5987.207,732.119,5986.354Z" transform="translate(-720.155 -5941.008)" fill="#ffe2d6"/>
            <path id="Trazado_114585" data-name="Trazado 114585" d="M733.274,5991.833c-.163-.861.293-1.691,1.583-1.6a1.131,1.131,0,0,1,.457,2.145C734.366,5992.891,733.4,5992.516,733.274,5991.833Z" transform="translate(-720.367 -5942.075)" fill="#ffe2d6"/>
            <path id="Trazado_114586" data-name="Trazado 114586" d="M746.277,5991.571s1.928-4.437-1.328-11.4-9.969-4.347-10.027-.734c-.06,3.769-.191,7.324,3.179,6.379,2.132-.6,3.241-3.974,3.241-3.974S741.8,5993.232,746.277,5991.571Z" transform="translate(-720.678 -5939.37)" fill="#ffa8a7"/>
            <path id="Trazado_114587" data-name="Trazado 114587" d="M736.8,5982.205a.73.73,0,0,0-.813.679c-.081,1.208-.086,2.716,1.007,2.674s1.361-1.36,1.427-2.464a.731.731,0,0,0-.641-.771C737.477,5982.285,737.115,5982.241,736.8,5982.205Z" transform="translate(-720.876 -5940.57)" fill="#ffe2d6"/>
            <g id="Grupo_52916" data-name="Grupo 52916" transform="translate(97.267 90.721)">
              <path id="Trazado_114588" data-name="Trazado 114588" d="M847.015,6052.523a5.8,5.8,0,1,1,0-8.2A5.8,5.8,0,0,1,847.015,6052.523Z" transform="translate(-837.116 -6042.624)" fill="#fffbfc"/>
              <path id="Trazado_114589" data-name="Trazado 114589" d="M846.567,6052.076a4.858,4.858,0,1,1,0-6.87A4.858,4.858,0,0,1,846.567,6052.076Z" transform="translate(-837.333 -6042.842)" fill="#ea3065"/>
              <path id="Trazado_114590" data-name="Trazado 114590" d="M839.7,6052.076a4.858,4.858,0,0,1,6.87-6.87Z" transform="translate(-837.333 -6042.842)" fill="#ff7b89"/>
            </g>
          </g>
          <g id="Grupo_52922" data-name="Grupo 52922" transform="translate(45.348 65.445)">
            <g id="Grupo_52918" data-name="Grupo 52918" transform="translate(48.151 5.446)">
              <path id="Trazado_114591" data-name="Trazado 114591" d="M843.667,6077.876v-31.327l-4.429-23.563" transform="translate(-833.746 -6019.11)" fill="none" stroke="#8bacb1" stroke-linecap="round" stroke-linejoin="round" stroke-width="2.547"/>
              <rect id="Rectángulo_28692" data-name="Rectángulo 28692" width="15.709" height="8.24" rx="4.12" transform="translate(2.066 55.804)" fill="#526d71"/>
              <path id="Trazado_114592" data-name="Trazado 114592" d="M848.2,6100.213H836.6a4.132,4.132,0,0,1-4.12-4.12h0a4.132,4.132,0,0,1,4.12-4.12h11.6a4.132,4.132,0,0,1,4.12,4.12h0A4.132,4.132,0,0,1,848.2,6100.213Z" transform="translate(-832.478 -6032.05)" fill="#334649"/>
              <path id="Trazado_114593" data-name="Trazado 114593" d="M841.853,6026.257a2.523,2.523,0,1,1-2.523-2.522A2.522,2.522,0,0,1,841.853,6026.257Z" transform="translate(-833.29 -6019.251)" fill="#334649"/>
              <path id="Trazado_114594" data-name="Trazado 114594" d="M842.22,6022.092a3.876,3.876,0,1,1-3.876-3.876A3.876,3.876,0,0,1,842.22,6022.092Z" transform="translate(-832.851 -6018.216)" fill="#476063"/>
              <path id="Trazado_114595" data-name="Trazado 114595" d="M838.212,6021.74a1.365,1.365,0,1,1-1.365-1.365A1.364,1.364,0,0,1,838.212,6021.74Z" transform="translate(-833.041 -6018.621)" fill="#7e9a9f"/>
            </g>
            <g id="Grupo_52919" data-name="Grupo 52919" transform="translate(71.111 17.572)">
              <path id="Trazado_114596" data-name="Trazado 114596" d="M871.555,6080.676v-28.729l-6.044-14.035" transform="translate(-861.633 -6034.036)" fill="none" stroke="#7e9a9f" stroke-linecap="round" stroke-linejoin="round" stroke-width="2.547"/>
              <rect id="Rectángulo_28693" data-name="Rectángulo 28693" width="15.709" height="8.24" rx="4.12" transform="translate(2.067 43.678)" fill="#526d71"/>
              <path id="Trazado_114597" data-name="Trazado 114597" d="M876.461,6100.213h-11.6a4.132,4.132,0,0,1-4.12-4.12h0a4.132,4.132,0,0,1,4.12-4.12h11.6a4.132,4.132,0,0,1,4.12,4.12h0A4.132,4.132,0,0,1,876.461,6100.213Z" transform="translate(-860.739 -6044.176)" fill="#334649"/>
              <path id="Trazado_114598" data-name="Trazado 114598" d="M869.025,6040.208a2.523,2.523,0,1,1-3.1-1.771A2.524,2.524,0,0,1,869.025,6040.208Z" transform="translate(-861.363 -6034.118)" fill="#334649"/>
              <path id="Trazado_114599" data-name="Trazado 114599" d="M868.356,6036a3.876,3.876,0,1,1-4.758-2.722A3.877,3.877,0,0,1,868.356,6036Z" transform="translate(-860.738 -6033.141)" fill="#476063"/>
              <path id="Trazado_114600" data-name="Trazado 114600" d="M864.264,6036.886a1.365,1.365,0,1,1-1.675-.959A1.366,1.366,0,0,1,864.264,6036.886Z" transform="translate(-860.897 -6033.655)" fill="#7e9a9f"/>
            </g>
            <g id="Grupo_52920" data-name="Grupo 52920" transform="translate(0 17.572)">
              <path id="Trazado_114601" data-name="Trazado 114601" d="M785.422,6080.676v-28.729l6.044-14.035" transform="translate(-775.501 -6034.036)" fill="none" stroke="#8bacb1" stroke-linecap="round" stroke-linejoin="round" stroke-width="2.547"/>
              <rect id="Rectángulo_28694" data-name="Rectángulo 28694" width="15.709" height="8.24" rx="4.12" transform="translate(17.776 51.918) rotate(180)" fill="#526d71"/>
              <path id="Trazado_114602" data-name="Trazado 114602" d="M777.331,6100.213h11.6a4.132,4.132,0,0,0,4.12-4.12h0a4.132,4.132,0,0,0-4.12-4.12h-11.6a4.132,4.132,0,0,0-4.12,4.12h0A4.132,4.132,0,0,0,777.331,6100.213Z" transform="translate(-773.211 -6044.176)" fill="#334649"/>
              <path id="Trazado_114603" data-name="Trazado 114603" d="M788.183,6040.208a2.522,2.522,0,1,0,3.1-1.771A2.523,2.523,0,0,0,788.183,6040.208Z" transform="translate(-776.002 -6034.118)" fill="#334649"/>
              <path id="Trazado_114604" data-name="Trazado 114604" d="M788.227,6036a3.876,3.876,0,1,0,4.758-2.722A3.876,3.876,0,0,0,788.227,6036Z" transform="translate(-776.002 -6033.141)" fill="#476063"/>
              <path id="Trazado_114605" data-name="Trazado 114605" d="M790.118,6035.148a1.365,1.365,0,1,0,1.675-.958A1.365,1.365,0,0,0,790.118,6035.148Z" transform="translate(-776.373 -6033.329)" fill="#7e9a9f"/>
            </g>
            <g id="Grupo_52921" data-name="Grupo 52921" transform="translate(22.42)">
              <path id="Trazado_114606" data-name="Trazado 114606" d="M813.746,6076.62v-36.773l4.428-23.562" transform="translate(-803.234 -6012.408)" fill="none" stroke="#7e9a9f" stroke-linecap="round" stroke-linejoin="round" stroke-width="2.547"/>
              <rect id="Rectángulo_28695" data-name="Rectángulo 28695" width="16.645" height="8.24" rx="4.12" transform="translate(18.835 69.489) rotate(180)" fill="#526d71"/>
              <path id="Trazado_114607" data-name="Trazado 114607" d="M804.927,6100.213h12.785a4.131,4.131,0,0,0,4.119-4.12h0a4.131,4.131,0,0,0-4.119-4.12H804.927a4.132,4.132,0,0,0-4.12,4.12h0A4.132,4.132,0,0,0,804.927,6100.213Z" transform="translate(-800.807 -6026.604)" fill="#334649"/>
              <path id="Trazado_114608" data-name="Trazado 114608" d="M815.418,6019.555a2.522,2.522,0,1,0,2.522-2.522A2.522,2.522,0,0,0,815.418,6019.555Z" transform="translate(-803.547 -6012.549)" fill="#334649"/>
              <path id="Trazado_114609" data-name="Trazado 114609" d="M814.426,6015.39a3.876,3.876,0,1,0,3.876-3.876A3.876,3.876,0,0,0,814.426,6015.39Z" transform="translate(-803.361 -6011.514)" fill="#476063"/>
              <path id="Trazado_114610" data-name="Trazado 114610" d="M816.143,6014.289a1.365,1.365,0,1,0,1.365-1.365A1.365,1.365,0,0,0,816.143,6014.289Z" transform="translate(-803.683 -6011.778)" fill="#7e9a9f"/>
            </g>
          </g>
          <g id="Grupo_52923" data-name="Grupo 52923" transform="translate(31.606 135.545)">
            <path id="Trazado_114611" data-name="Trazado 114611" d="M856.465,6248.91H779.129l-9.8-135.018h96.928Z" transform="translate(-758.742 -6100.815)" fill="#7cc5ff"/>
            <path id="Trazado_114612" data-name="Trazado 114612" d="M853.9,6221.716l6.458-87.525a6.362,6.362,0,0,0-6.344-6.831h-68.9a6.362,6.362,0,0,0-6.344,6.831l6.458,87.525a6.362,6.362,0,0,0,6.344,5.893h55.981A6.362,6.362,0,0,0,853.9,6221.716Z" transform="translate(-760.509 -6103.341)" fill="#69f"/>
            <circle id="Elipse_5304" data-name="Elipse 5304" cx="33.263" cy="33.263" r="33.263" transform="translate(19.743 99.978) rotate(-78.311)" fill="#69f"/>
            <rect id="Rectángulo_28696" data-name="Rectángulo 28696" width="90.452" height="13.892" rx="5.103" transform="translate(13.829 130.043)" fill="#36c"/>
            <rect id="Rectángulo_28697" data-name="Rectángulo 28697" width="99.193" height="13.892" rx="5.344" transform="translate(9.458 136.989)" fill="#0f2771"/>
            <path id="Trazado_114613" data-name="Trazado 114613" d="M867.882,6282.222H765.066a2.794,2.794,0,0,1-2.787-2.785h0a2.8,2.8,0,0,1,2.787-2.788H867.882a2.8,2.8,0,0,1,2.787,2.788h0A2.8,2.8,0,0,1,867.882,6282.222Z" transform="translate(-757.419 -6131.34)" fill="#36c"/>
            <path id="Trazado_114614" data-name="Trazado 114614" d="M867.617,6117.27H765.049a4.406,4.406,0,0,1-4.393-4.393h0a4.406,4.406,0,0,1,4.393-4.393H867.617a4.405,4.405,0,0,1,4.393,4.393h0A4.405,4.405,0,0,1,867.617,6117.27Z" transform="translate(-757.115 -6099.8)" fill="#36c"/>
            <rect id="Rectángulo_28698" data-name="Rectángulo 28698" width="118.437" height="11.705" rx="3.439" fill="#7cc5ff"/>
            <path id="Trazado_114615" data-name="Trazado 114615" d="M783.578,6200.857H856.51l2.264-30.686H781.314Z" transform="translate(-760.989 -6111.371)" fill="#0f2771"/>
            <path id="Trazado_114616" data-name="Trazado 114616" d="M788.043,6185.515a33.1,33.1,0,0,0,3.753,15.342h59.021a33.24,33.24,0,0,0,0-30.686H791.8A33.1,33.1,0,0,0,788.043,6185.515Z" transform="translate(-762.251 -6111.371)" fill="#69f"/>
            <path id="Trazado_114617" data-name="Trazado 114617" d="M783.232,6196.171h73.831l1.365-18.5H781.867Z" transform="translate(-761.093 -6112.777)" fill="#7cc5ff"/>
            <path id="Trazado_114618" data-name="Trazado 114618" d="M788.043,6186.922a33.26,33.26,0,0,0,1.314,9.25h63.9a33.224,33.224,0,0,0,0-18.5h-63.9A33.263,33.263,0,0,0,788.043,6186.922Z" transform="translate(-762.251 -6112.777)" fill="#0f2771"/>
            <circle id="Elipse_5305" data-name="Elipse 5305" cx="31.423" cy="31.423" r="31.423" transform="translate(27.632 42.721)" fill="#7cc5ff"/>
            <circle id="Elipse_5306" data-name="Elipse 5306" cx="28.034" cy="28.034" r="28.034" transform="matrix(0.158, -0.987, 0.987, 0.158, 26.932, 97.381)" fill="#fffbfc"/>
            <circle id="Elipse_5307" data-name="Elipse 5307" cx="23.52" cy="23.52" r="23.52" transform="translate(35.534 50.624)" fill="#d5d2d3"/>
            <circle id="Elipse_5308" data-name="Elipse 5308" cx="20.467" cy="20.467" r="20.467" transform="translate(38.588 53.677)" fill="#eb6d7a"/>
            <path id="Trazado_114619" data-name="Trazado 114619" d="M809.787,6198.8a20.467,20.467,0,1,1,28.945-28.945Z" transform="translate(-765.205 -6110.187)" fill="#ff7b89"/>
          </g>
        </g>
        <g id="Grupo_52925" data-name="Grupo 52925" transform="translate(0 0)">
          <circle id="Elipse_5309" data-name="Elipse 5309" cx="22.061" cy="22.061" r="22.061" transform="translate(0 27.941) rotate(-39.292)" fill="#e36099"/>
        </g>
        <g id="Grupo_52926" data-name="Grupo 52926" transform="translate(10.875 10.875)">
          <circle id="Elipse_5310" data-name="Elipse 5310" cx="18.327" cy="18.327" r="18.327" transform="matrix(0.106, -0.994, 0.994, 0.106, 0, 36.446)" fill="#fff"/>
        </g>
        <g id="Grupo_52933" data-name="Grupo 52933" transform="translate(20.299 16.875)">
          <g id="Grupo_52927" data-name="Grupo 52927" transform="translate(9.411 13.501)">
            <path id="Trazado_114620" data-name="Trazado 114620" d="M719.809,5939.376a.3.3,0,0,0-.59-.094.774.774,0,0,1-1.343.394.3.3,0,1,0-.445.4,1.371,1.371,0,0,0,2.378-.7Z" transform="translate(-717.355 -5939.03)" fill="#12263f"/>
          </g>
          <g id="Grupo_52928" data-name="Grupo 52928" transform="translate(7.582 12.389)">
            <path id="Trazado_114621" data-name="Trazado 114621" d="M715.374,5937.674c.228-.066.495.155.594.5s0,.67-.233.737-.495-.154-.595-.495S715.145,5937.741,715.374,5937.674Z" transform="translate(-715.103 -5937.663)" fill="#12263f"/>
          </g>
          <g id="Grupo_52929" data-name="Grupo 52929" transform="translate(11.816 11.151)">
            <path id="Trazado_114622" data-name="Trazado 114622" d="M720.585,5936.15c.229-.067.495.155.595.5s-.006.669-.234.738-.495-.155-.594-.5S720.357,5936.217,720.585,5936.15Z" transform="translate(-720.314 -5936.138)" fill="#12263f"/>
          </g>
          <g id="Grupo_52930" data-name="Grupo 52930" transform="translate(14.223 15.123)">
            <path id="Trazado_114623" data-name="Trazado 114623" d="M726.81,5941.184a.3.3,0,0,0-.4-.12l-2.973,1.616a.3.3,0,0,0,.226.549.247.247,0,0,0,.059-.024l2.973-1.616A.3.3,0,0,0,726.81,5941.184Z" transform="translate(-723.277 -5941.028)" fill="#12263f"/>
          </g>
          <g id="Grupo_52931" data-name="Grupo 52931" transform="translate(14.534 16.188)">
            <path id="Trazado_114624" data-name="Trazado 114624" d="M726.789,5942.375l-2.972,1.615a.3.3,0,0,0,.226.55.286.286,0,0,0,.059-.024l2.972-1.617a.3.3,0,1,0-.285-.523Z" transform="translate(-723.66 -5942.338)" fill="#12263f"/>
          </g>
          <g id="Grupo_52932" data-name="Grupo 52932" transform="translate(0)">
            <path id="Trazado_114625" data-name="Trazado 114625" d="M727.6,5936.024l-.232.068-.2-.687a1.643,1.643,0,0,0-2.362-.981l-1.894,1.03a4,4,0,0,0-.1-1.206c-.061-.26-.126-.52-.193-.778a1.806,1.806,0,0,0-1.02-3.385q-.5-1.438-1.092-2.838a8.313,8.313,0,0,0,1.015-3.38,1.374,1.374,0,0,0-.47-1.162,1.039,1.039,0,0,0-.929-.176,2.134,2.134,0,0,0-1.077.9,1.441,1.441,0,0,0-.414-.769,1.09,1.09,0,0,0-1.091-.189,2.406,2.406,0,0,0-1.454,1.378,1.329,1.329,0,0,0-.368-.442.98.98,0,0,0-.888-.144c-.628.185-.972.851-1.28,1.628a7.569,7.569,0,0,0-.951-.161c-.172-.018-.348-.029-.523-.035a4.654,4.654,0,0,0-1.659.228l-.013.005h0c-.07.024-.138.051-.208.082a2.759,2.759,0,0,0-1.6,1.835,2.472,2.472,0,0,0-2.707,1.659.4.4,0,0,0,.283.5.4.4,0,0,0,.22,0,.4.4,0,0,0,.277-.28c.363-1.324,2.094-1.048,2.166-1.035a.405.405,0,0,0,.466-.321,2.041,2.041,0,0,1,1.215-1.611c.05-.021.1-.041.153-.06l.023-.009a3.875,3.875,0,0,1,1.362-.181c.154,0,.31.015.463.03a7,7,0,0,1,.742.12,3.644,3.644,0,0,1-.913,1.564.4.4,0,0,0,.482.649,4.835,4.835,0,0,0,1.3-2.226c.265-.7.565-1.495.93-1.6a.18.18,0,0,1,.18.017,2.465,2.465,0,0,1,.406,1.48.4.4,0,0,0,.807.025c0-.02.184-1.983,1.316-2.315.231-.067.3,0,.327.018.263.233.258,1.126.171,1.657a.4.4,0,0,0,.774.214,7.344,7.344,0,0,1,.441-.891c.442-.752.75-.91.863-.943h0a.232.232,0,0,1,.226.052.708.708,0,0,1,.141.518,9.49,9.49,0,0,1-2.965,5.711c-1.977,1.514-5.094,1.92-6.946.906a.4.4,0,0,0-.595.41,4.375,4.375,0,0,1-.052,1.3,1.836,1.836,0,0,1-1.26,1.563h0l-.028.008a1.785,1.785,0,0,0-.548.268,13.768,13.768,0,0,1-1.642-3.911.4.4,0,0,0-.794.153,15.105,15.105,0,0,0,1.879,4.411,1.8,1.8,0,0,0,1.739,2.615c.083.254.168.507.256.758a4,4,0,0,0,.538,1.029l-1.929.137a1.644,1.644,0,0,0-1.461,2.1l.2.685-.232.068a1.54,1.54,0,0,0-1.044,1.907l.286.977a1.54,1.54,0,0,0,1.907,1.044l.232-.068,1.209,4.13a1.653,1.653,0,0,0,1.694,1.178l8.258-.589h0l.034,0h.008l.04-.01h0l2.079-.608h0l.038-.013.007,0,.031-.016h0l7.274-3.955a1.652,1.652,0,0,0,.791-1.905l-.154-.529a.4.4,0,0,0-.776.227l.154.529a.839.839,0,0,1-.4.968l-6.833,3.716-3.037-10.382,6.516-3.543a.834.834,0,0,1,1.2.5l.238.814a1.54,1.54,0,0,0-.48,1.6l.286.977a1.54,1.54,0,0,0,1.268,1.091l.637,2.178a.4.4,0,1,0,.776-.227l-.6-2.049.232-.068a1.54,1.54,0,0,0,1.044-1.907l-.286-.976A1.539,1.539,0,0,0,727.6,5936.024Zm-4.887-4.418a1,1,0,0,1-.314,1.041q-.245-.88-.528-1.752A1,1,0,0,1,722.716,5931.606Zm-14.3,4.182a1,1,0,0,1,.325-1.051q.231.884.5,1.759A1,1,0,0,1,708.42,5935.788Zm2.1,2.014c-.388-1.11-.734-2.251-1.03-3.4a2.692,2.692,0,0,0,1.458-2.042,5.026,5.026,0,0,0,.093-.877,6.935,6.935,0,0,0,3.348.292,8.3,8.3,0,0,0,3.85-1.549,7.821,7.821,0,0,0,1.767-2.082,43.071,43.071,0,0,1,2.02,6.289,3.206,3.206,0,0,1-.008,1.505l-3.978,2.163-2,.584-4.75.339A3.192,3.192,0,0,1,710.524,5937.8Zm6.1,1.56,1.3-.381,3.043,10.4-1.3.381Zm-9.727,5.382-.285-.975a.73.73,0,0,1,.495-.9l.406-.119a.731.731,0,0,1,.9.495l.286.977a.73.73,0,0,1-.495.9l-.407.12A.731.731,0,0,1,706.895,5944.744Zm3.348,5.108-1.246-4.26a1.539,1.539,0,0,0,.48-1.6l-.286-.977a1.539,1.539,0,0,0-1.268-1.091l-.238-.814a.835.835,0,0,1,.742-1.066l7.4-.528,3.038,10.382-7.759.553A.839.839,0,0,1,710.243,5949.852Zm18.777-11.581a.73.73,0,0,1-.5.9l-.406.12a.73.73,0,0,1-.9-.5l-.286-.976a.73.73,0,0,1,.495-.9l.407-.119a.729.729,0,0,1,.9.495Z" transform="translate(-705.771 -5922.413)" fill="#12263f"/>
          </g>
        </g>
      </g>
    </g>
  </g>
</svg>
