<svg xmlns="http://www.w3.org/2000/svg" width="88" height="88" viewBox="0 0 88 88">
  <g id="Grupo_53046" data-name="Grupo 53046" transform="translate(-196 -6459.086)">
    <g id="Grupo_52908" data-name="Grupo 52908" transform="translate(0 599.086)">
      <circle id="Elipse_5302" data-name="Elipse 5302" cx="44" cy="44" r="44" transform="translate(196 5860)" fill="#ea3065"/>
      <g id="Grupo_52906" data-name="Grupo 52906" transform="translate(215 5874)">
        <g id="Grupo_52913" data-name="Grupo 52913" transform="translate(0 -26.404)">
          <path id="Trazado_100566" data-name="Trazado 100566" d="M246.983,38.016a.988.988,0,0,0,.988-.988V31.994a.988.988,0,1,0-1.976,0v5.033A.988.988,0,0,0,246.983,38.016Z" transform="translate(-221.688)" fill="#fff"/>
          <path id="Trazado_100567" data-name="Trazado 100567" d="M155.412,66.457a.988.988,0,1,0,1.672-1.054l-2.633-4.177a.988.988,0,1,0-1.672,1.054Z" transform="translate(-137.546 -26.818)" fill="#fff"/>
          <path id="Trazado_100568" data-name="Trazado 100568" d="M313.208,66.767a.988.988,0,0,0,1.363-.31l2.63-4.177a.988.988,0,1,0-1.672-1.053L312.9,65.4A.988.988,0,0,0,313.208,66.767Z" transform="translate(-281.844 -26.819)" fill="#fff"/>
          <path id="Trazado_100569" data-name="Trazado 100569" d="M50.272,132.037,48.555,129a.988.988,0,0,0-1.72.973l1.716,3.032a.487.487,0,0,1,.043.373.466.466,0,0,1-.221.283l-2.646,1.466a.5.5,0,0,1-.67-.178l-.672-1.189-.009-.016-6.949-12.292a.481.481,0,0,1-.044-.369.463.463,0,0,1,.22-.282l2.649-1.466a.492.492,0,0,1,.667.179l1.549,2.736a.988.988,0,0,0,1.72-.973l-1.548-2.735a2.473,2.473,0,0,0-3.344-.936l-2.649,1.466a2.455,2.455,0,0,0-1,3.245l-1.459.423a5.745,5.745,0,0,1-1.208.277h0a2.467,2.467,0,0,1-.75-.225c-.2-.077-.457-.173-.769-.282l-2.585-.9a5.923,5.923,0,0,0-3.009-.387l-4.409.395c-2.01.178-3.291.631-4,1.418l-2.512-.728a2.454,2.454,0,0,0-1-3.231L11.3,117.61a2.475,2.475,0,0,0-3.346.935L.321,132.035a2.458,2.458,0,0,0,.938,3.359l2.648,1.466a2.478,2.478,0,0,0,3.346-.935l.28-.495a4.641,4.641,0,0,1,1.841,1.4,3.317,3.317,0,0,0,2.144,5.45,3.313,3.313,0,0,0,2.917,3.644,3.312,3.312,0,0,0,2.917,3.644,3.323,3.323,0,0,0,5.379,2.941l2.069-1.655a3.332,3.332,0,0,0,.448-.432l1.182.944a3.32,3.32,0,0,0,5.334-1.956,3.3,3.3,0,0,0,1.082.181,3.422,3.422,0,0,0,.376-.021,3.315,3.315,0,0,0,2.936-3.646,3.31,3.31,0,0,0,2.917-3.643,3.321,3.321,0,0,0,2.145-5.45,4.622,4.622,0,0,1,1.839-1.4l.28.5a2.478,2.478,0,0,0,3.347.934l2.646-1.466a2.461,2.461,0,0,0,.942-3.357Zm-44.74,2.915a.5.5,0,0,1-.67.179l-2.647-1.466a.465.465,0,0,1-.22-.282.485.485,0,0,1,.044-.373l7.63-13.493a.482.482,0,0,1,.423-.242.507.507,0,0,1,.246.064l2.647,1.466h0a.463.463,0,0,1,.22.281.482.482,0,0,1-.045.371Zm7.211,5.085a1.345,1.345,0,0,1-1.681-2.1l3.7-2.957a1.351,1.351,0,0,1,1.895.211,1.346,1.346,0,0,1-.211,1.886l-.017.015-3.684,2.943Zm1.024,3.432a1.349,1.349,0,0,1,.21-1.889h0l5.328-4.257a1.35,1.35,0,0,1,1.895.211,1.35,1.35,0,0,1-.212,1.89l-5.327,4.256a1.351,1.351,0,0,1-1.9-.21Zm3.82,4.139a1.344,1.344,0,0,1-.692-2.385h0l3.687-2.946.013-.01a1.35,1.35,0,0,1,1.893.21,1.349,1.349,0,0,1-.212,1.89l-3.7,2.957a1.341,1.341,0,0,1-.992.284Zm6.474.8a1.334,1.334,0,0,1-.5.9L21.5,150.968a1.35,1.35,0,0,1-1.9-.21,1.349,1.349,0,0,1,.209-1.888h0l2.069-1.654,0,0a1.351,1.351,0,0,1,1.895.211A1.331,1.331,0,0,1,24.061,148.41Zm15.679-8.583a1.355,1.355,0,0,1-1.893.21h0L35.2,137.924a.988.988,0,0,0-1.234,1.544l2.643,2.112a1.345,1.345,0,1,1-1.682,2.1l-2.868-2.289a.988.988,0,1,0-1.233,1.545l2.867,2.288a1.347,1.347,0,0,1-1.684,2.1l-1.427-1.141-.007-.006-1.206-.964-.225-.18a.988.988,0,0,0-1.234,1.543l1.435,1.148a1.346,1.346,0,0,1-1.685,2.1l-1.628-1.3a3.306,3.306,0,0,0-1.9-3.266,3.316,3.316,0,0,0-1.288-4.946,3.321,3.321,0,0,0-4-4.994,3.3,3.3,0,0,0-.649-1.36,3.33,3.33,0,0,0-4.671-.521l-2.646,2.115A6.511,6.511,0,0,0,8.509,133.7l5.442-9.626,2.9.84a3.232,3.232,0,0,0,.08.491c.7,2.884,3.357,4.228,6.93,3.508,3.011-.606,4.25.3,6.719,2.094.256.186.522.38.8.58,1.775,1.274,3.673,2.771,4.945,3.785l3.207,2.563a1.349,1.349,0,0,1,.209,1.89Zm-.031-4.277-2.152-1.72c-1.29-1.029-3.214-2.547-5.026-3.847-.275-.2-.537-.388-.789-.571-2.56-1.864-4.41-3.211-8.272-2.434-1.182.238-4,.517-4.62-2.037-.088-.361,0-.484.039-.537.132-.184.664-.632,2.744-.817l4.413-.395a4.047,4.047,0,0,1,2.178.285l2.586.9c.287.1.517.187.72.264,1.245.472,1.575.472,3.211,0l1.906-.552,5.435,9.613A6.493,6.493,0,0,0,39.709,135.55Z" transform="translate(0 -77.768)" fill="#fff"/>
          <path id="Trazado_100570" data-name="Trazado 100570" d="M451.558,193.562a.989.989,0,1,0-.988-.99v0A.987.987,0,0,0,451.558,193.562Z" transform="translate(-406.049 -144.711)" fill="#fff"/>
        </g>
      </g>
    </g>
  </g>
</svg>
