<svg xmlns="http://www.w3.org/2000/svg" xmlns:xlink="http://www.w3.org/1999/xlink" width="162" height="162" viewBox="0 0 162 162">
  <defs>
    <clipPath id="clip-path">
      <path id="Trazado_112501" data-name="Trazado 112501" d="M586.591,1301.648a45.972,45.972,0,0,0-45.973-45.972c-15.005,0-77.687-21.313-93,.374-19.4,27.478,47.03,35.214,47.03,45.6a45.973,45.973,0,1,0,91.945,0Z" fill="none"/>
    </clipPath>
  </defs>
  <g id="Grupo_53063" data-name="Grupo 53063" transform="translate(6781 7727)">
    <rect id="Rectángulo_28723" data-name="Rectángulo 28723" width="162" height="162" transform="translate(-6781 -7727)" fill="none"/>
    <g id="Grupo_53057" data-name="Grupo 53057" transform="translate(-7215.064 -8943.313)">
      <circle id="Elipse_4025" data-name="Elipse 4025" cx="45.973" cy="45.973" r="45.973" transform="translate(494.646 1255.676)" fill="#e36099"/>
      <g id="Grupo_50630" data-name="Grupo 50630">
        <g id="Grupo_50629" data-name="Grupo 50629" clip-path="url(#clip-path)">
          <g id="Grupo_50628" data-name="Grupo 50628">
            <g id="Grupo_50627" data-name="Grupo 50627">
              <path id="Trazado_112451" data-name="Trazado 112451" d="M534.735,1281.8l-4.71-.253a17.974,17.974,0,0,1,4.885-5.468s-4.545.112-6.644,1.512c0,0,2.034-7.275,13.712-10.6s29.446.7,40.907,15.371,8.581,33.432,4.04,42.157l-.616-4.54s-1.107,7-4.821,10.529l.165-4.75s-1.514,8.654-13.532,11.888c-12.122,3.263-18.032-.506-17.779-2.01l18.144-23.181s-24.462-19.819-24.8-19.741-10.661-8.476-10.661-8.476Z" fill="#0f2771"/>
              <path id="Trazado_112452" data-name="Trazado 112452" d="M534.815,1273.645c2.242-.421,5.042-.959,7.243-.077-1.065,1.845-3.407,2.724-3.626,5.053a.294.294,0,0,0,.33.3c1.792-.121,3.447-.906,5.234-1.093a14.254,14.254,0,0,0,3.923-.767c-.685,1.915-1.517,3.777-2.313,5.647a.292.292,0,0,0,.388.358c1.738-.882,3.575-1.553,5.359-2.336-.04,1.261-.048,2.527,0,3.795a.286.286,0,0,0,.4.279,32.3,32.3,0,0,0,5.295-3.3c.383,2.065-.119,4.15.049,6.238a.276.276,0,0,0,.4.2,21.044,21.044,0,0,0,3.25-2.059c.874-.543,1.331,1.031,1.635,1.652.256.53.505,1.071.764,1.6a25.881,25.881,0,0,0,2.425,4.714c1.891,2.4,3.175-2.1,3.859-3.9,2.446,3.885,2.879,8.612,4.158,12.936.05.154.228.312.4.2a19.362,19.362,0,0,0,2.363-2.154c1.383,2.886-.012,6.975-.874,9.79-1.176,3.822-2.678,7.6-3.509,11.506a.283.283,0,0,0,.333.3c2.218-.465,3.968-1.786,5.846-2.975.642,2.9-.33,5.8-1.086,8.6a.285.285,0,0,0,.443.317c2.5-1.854,3.764-4.708,5.5-7.211a23.206,23.206,0,0,1-1.187,8.925c-.1.107-.208.216-.32.322l.165-4.75s-1.514,8.654-13.532,11.888c-12.122,3.263-18.032-.506-17.779-2.01l18.144-23.181s-24.462-19.819-24.8-19.741-10.661-8.476-10.661-8.476l1.706-2.441-4.71-.253a17.974,17.974,0,0,1,4.885-5.468s-4.545.112-6.644,1.512a6.547,6.547,0,0,1,.3-.758A14.5,14.5,0,0,1,534.815,1273.645Z" fill="#93602d" opacity="0.4" style="mix-blend-mode: multiply;isolation: isolate"/>
              <path id="Trazado_112453" data-name="Trazado 112453" d="M554.377,1359.166s2.463,8.72,2.152,16.414-1.971,12.783-1.412,13.89,1.9,1.351,2.786,4.536-.061,6.915-.642,6.365.033-4.046-1.086-5.962a14.615,14.615,0,0,1,.137,5.27c-.513,2.287-1.173,2.153-1.383-1.222s-.4-5.076-.569-4.311-.313,7.093-1.479,7.3.24-5.995-.832-7.37a13.394,13.394,0,0,1-.833,4.76c-.883,2.075-1.661,2.348-1.418-.413s.35-6.891-1.152-5.686-2.206,3.012-3.487,2.309,1.284-3.657,2.511-4.738,3.12-1.619,3.417-2.521,2.17-8.905,1.978-13.791c-.216-5.676-1.5-12.089-2.33-13.711Z" fill="#ffbea7"/>
              <path id="Trazado_112454" data-name="Trazado 112454" d="M502.459,1384.845l-3.361-4.3s-7.2,3.87-17.071,19.16-10.917,19.318-10.917,19.318-.754-.885-2.313.163c0,0-.294.3-1.574-.7s-5.733-4.484-8.637-4.888-4.913-.126-3.506,2.824a51.648,51.648,0,0,0,9.263,12.066c3.721,3.522,5.467,4.292,7.053,3.452s4.6-5.306,4.7-6.474-1.618-2.511-.621-4.584,10.093-18.248,14.657-24.056S502.459,1384.845,502.459,1384.845Z" fill="#ffbea7"/>
              <path id="Trazado_112455" data-name="Trazado 112455" d="M458.586,1413.6c2.9.4,7.362,3.887,8.637,4.888s1.574.7,1.574.7c1.559-1.048,2.313-.163,2.313-.163s.722-2.754,6.552-12.359a10.09,10.09,0,0,0,2.915,2.427c.359.2.764.447,1.185.662-3.1,5.224-5.779,10.062-6.29,11.13-1,2.073.714,3.419.621,4.584s-3.112,5.639-4.7,6.474-3.332.07-7.053-3.452a51.648,51.648,0,0,1-9.263-12.066C453.673,1413.476,455.683,1413.2,458.586,1413.6Z" fill="#ece9e0"/>
              <path id="Trazado_112456" data-name="Trazado 112456" d="M458.586,1413.6c2.9.4,7.362,3.887,8.637,4.888s1.574.7,1.574.7c1.559-1.048,2.313-.163,2.313-.163s.025-.064.068-.2a2.909,2.909,0,0,0,3.714-.777,23.928,23.928,0,0,0,2.749-4.14c.959-1.622,1.947-3.214,2.929-4.816l.007,0c.359.2.764.447,1.185.662-3.1,5.224-5.779,10.062-6.29,11.13-1,2.073.714,3.419.621,4.584s-3.112,5.639-4.7,6.474-3.332.07-7.053-3.452a51.648,51.648,0,0,1-9.263-12.066C453.673,1413.476,455.683,1413.2,458.586,1413.6Z" fill="#ece9e0" style="mix-blend-mode: multiply;isolation: isolate"/>
              <path id="Trazado_112457" data-name="Trazado 112457" d="M458.586,1413.6c2.9.4,7.362,3.887,8.637,4.888s1.574.7,1.574.7c1.339-.9,2.085-.38,2.266-.207a.874.874,0,0,0,.158.216,28.53,28.53,0,0,0,2.124,1.915c.337.282.651.587.957.894.257.256.9.73,1,1.077.273.934.847,1.7.792,2.386-.1,1.168-3.112,5.639-4.7,6.474s-3.332.07-7.053-3.452a51.648,51.648,0,0,1-9.263-12.066C453.673,1413.476,455.683,1413.2,458.586,1413.6Z" fill="#958878"/>
              <path id="Trazado_112458" data-name="Trazado 112458" d="M458.352,1415.33a.267.267,0,0,1,.026.039,75.583,75.583,0,0,1,9.249,9.3,17.086,17.086,0,0,1,3.157,4.993,3.3,3.3,0,0,1,.137,2.475c-1.47.461-3.221-.46-6.578-3.646a51.648,51.648,0,0,1-9.263-12.066c-.679-1.43-.553-2.235.086-2.635C455.978,1413.74,457.212,1414.473,458.352,1415.33Z" fill="#958878" opacity="0.5" style="mix-blend-mode: multiply;isolation: isolate"/>
              <path id="Trazado_112459" data-name="Trazado 112459" d="M457.423,1416.152c.736.772,1.489,1.519,2.208,2.314,1.579,1.761,3.194,3.5,4.75,5.271,1.368,1.558,2.551,3.256,3.871,4.85a7.263,7.263,0,0,1,1.974,3.657c-1.351.021-3.035-1.049-5.883-3.752a51.648,51.648,0,0,1-9.263-12.066,2.913,2.913,0,0,1-.389-2.035C455.651,1414.173,456.827,1415.543,457.423,1416.152Z" fill="#958878" opacity="0.5" style="mix-blend-mode: multiply;isolation: isolate"/>
              <path id="Trazado_112460" data-name="Trazado 112460" d="M467.154,1422a1.16,1.16,0,0,1-.488-.967,9.683,9.683,0,0,0-.032-1.949c-.074-.431-.229-.855-.3-1.281.37.279.687.52.894.687a4.344,4.344,0,0,0,1.074.666c.055.71.2,1.412.28,2.118a1.647,1.647,0,0,1-.087,1.039c-.279.346-.837.042-1.114-.144A2.256,2.256,0,0,1,467.154,1422Z" fill="#958878" opacity="0.5" style="mix-blend-mode: multiply;isolation: isolate"/>
              <path id="Trazado_112461" data-name="Trazado 112461" d="M520.562,1395.163l5.712,1.819s-4.544,5.524-5.643,16.157-2.68,27.385-2.631,27.849,1.493.159,1.672,1.829.207,6.581-.665,7.3-7,.652-11.965-.144a19.9,19.9,0,0,1-9.316-4.267c-.507-.536.178-1.438,1.936-1.981a84.268,84.268,0,0,1,10.249-1.59,1.445,1.445,0,0,0,1.523-.989c.255-.552.76-1.37,1.741-1.051,0,0,.964-21.42,1.671-28.166S518.83,1397.045,520.562,1395.163Z" fill="#ffbea7"/>
              <path id="Trazado_112462" data-name="Trazado 112462" d="M499.662,1443.73a84.268,84.268,0,0,1,10.249-1.59,1.445,1.445,0,0,0,1.523-.989c.255-.552.76-1.37,1.741-1.051,0,0,.268-5.885.617-12.45a11.052,11.052,0,0,1,2.413-.005,13.154,13.154,0,0,1,2.909.8c-.641,6.706-1.141,12.278-1.114,12.544.053.474,1.493.159,1.672,1.829s.207,6.581-.665,7.3-7,.652-11.965-.144a19.9,19.9,0,0,1-9.316-4.267C497.219,1445.175,497.9,1444.273,499.662,1443.73Z" fill="#ece9e0"/>
              <path id="Trazado_112463" data-name="Trazado 112463" d="M499.662,1443.73a84.268,84.268,0,0,1,10.249-1.59,1.445,1.445,0,0,0,1.523-.989c.255-.552.76-1.37,1.741-1.051,0,0,0-.089.015-.257a3.485,3.485,0,0,0,1.9.171c1.6-.342,1.843-2.424,1.991-3.718.2-1.831.242-3.655.259-5.5,0-.293-.066-1.779-.007-2.923.606.158,1.2.368,1.78.57-.641,6.706-1.141,12.278-1.114,12.544.053.474,1.493.159,1.672,1.829s.207,6.581-.665,7.3-7,.652-11.965-.144a19.9,19.9,0,0,1-9.316-4.267C497.219,1445.175,497.9,1444.273,499.662,1443.73Z" fill="#ece9e0" style="mix-blend-mode: multiply;isolation: isolate"/>
              <path id="Trazado_112464" data-name="Trazado 112464" d="M499.662,1443.73a84.268,84.268,0,0,1,10.249-1.59,1.445,1.445,0,0,0,1.523-.989c.255-.552.76-1.37,1.741-1.051a7.212,7.212,0,0,1,1.775.726c.418.284.725.921,1.269.965a3.587,3.587,0,0,0,1.9-.628c.358.241,1.4.241,1.551,1.654.18,1.669.207,6.581-.665,7.3s-7,.652-11.965-.144a19.9,19.9,0,0,1-9.316-4.267C497.219,1445.175,497.9,1444.273,499.662,1443.73Z" fill="#958878"/>
              <path id="Trazado_112465" data-name="Trazado 112465" d="M513.861,1444.629a.919.919,0,0,1-.326.5,2.05,2.05,0,0,1-1.087.589.734.734,0,0,1-.683-.261c-.182-.264-.293-.6-.45-.876a8.57,8.57,0,0,0-1.129-1.691,3.672,3.672,0,0,0-.386-.393c-.075-.063-.334-.33-.422-.326a4.341,4.341,0,0,1,.533-.03,1.625,1.625,0,0,0,.942-.239,6.692,6.692,0,0,1,1.57.75,3.666,3.666,0,0,1,1.426,1.716A.673.673,0,0,1,513.861,1444.629Z" fill="#958878" opacity="0.5" style="mix-blend-mode: multiply;isolation: isolate"/>
              <path id="Trazado_112466" data-name="Trazado 112466" d="M500.833,1446.289a24.812,24.812,0,0,0,7.838,2.511,30.089,30.089,0,0,0,8.711.04,7.938,7.938,0,0,0,2.243-.731,3.612,3.612,0,0,1-.618,2.013c-.867.731-7,.652-11.965-.144a19.9,19.9,0,0,1-9.316-4.267c-.338-.367-.128-.889.583-1.365A6.076,6.076,0,0,0,500.833,1446.289Z" fill="#958878" opacity="0.5" style="mix-blend-mode: multiply;isolation: isolate"/>
              <g id="Grupo_50623" data-name="Grupo 50623">
                <path id="Trazado_112467" data-name="Trazado 112467" d="M535.774,1380.971s.885,6.24-5.679,20.921c0,0-12.338-2.893-17.638-6.67l4.015-10.519-8.428,8.381s-11.119-7.241-13.991-13.517c0,0,9.322-8.652,10.107-9.953a15.864,15.864,0,0,0,1.329-3.309Z" fill="#c69701"/>
                <path id="Trazado_112468" data-name="Trazado 112468" d="M519.257,1397.2a11.075,11.075,0,0,0,2.352-4.58c.948-2.834,2.507-6.822.482-9.567-1.367-1.856-3.557-2.665-5.472-3.83a54.791,54.791,0,0,1-7.224-5.158,18.029,18.029,0,0,1-4.66-5.608,18.659,18.659,0,0,0,.754-2.154l30.285,14.666s.885,6.24-5.679,20.921a94.427,94.427,0,0,1-12.132-3.818A4.887,4.887,0,0,0,519.257,1397.2Z" fill="#c69701" opacity="0.5" style="mix-blend-mode: multiply;isolation: isolate"/>
                <g id="Grupo_50622" data-name="Grupo 50622" style="mix-blend-mode: multiply;isolation: isolate">
                  <path id="Trazado_112469" data-name="Trazado 112469" d="M502,1371.975a20.814,20.814,0,0,0,2.162-2.361,15.864,15.864,0,0,0,1.329-3.309l3.265,1.582C507.5,1370.346,505.309,1373.073,502,1371.975Z" fill="#c69701" opacity="0.5"/>
                  <path id="Trazado_112470" data-name="Trazado 112470" d="M533.076,1379.665l2.7,1.306s.415,2.9-1.4,9.372C529.475,1387.827,531.1,1383.01,533.076,1379.665Z" fill="#c69701" opacity="0.5"/>
                </g>
              </g>
              <path id="Trazado_112471" data-name="Trazado 112471" d="M537.08,1332.8s-19.831-6.171-22.014-12.394c0,0-5.995,5.077-7.122,11.873,0,0,5.653,6.6,11.279,7.094,0,0-7.817,8.905-14.737,27.764,0,0,13.391,15.393,33.383,16.022,0,0,6.463-24.63,6.471-24.926s.968,4.668.968,4.668,8.581-1.814,11.223-3.531c0,0-1.2-15.071-14.069-23.264Z" fill="#e36099"/>
              <path id="Trazado_112472" data-name="Trazado 112472" d="M523.739,1376.68c2.694-2.3,3.6-5.768,5.043-8.867,1.9-4.063,4.078-7.978,5.916-12.067.969-2.142,2.18-4.175,3.033-6.371a10.748,10.748,0,0,0,.975-4.11,2.917,2.917,0,0,0-.764-1.889,25.6,25.6,0,0,0-2.257-1.517,2.792,2.792,0,0,1-.889-1.782c-.223-1.394.246-2.8-.018-4.2a2.382,2.382,0,0,0-1.226-1.482c-1.081-.647-2.18-1.266-3.24-1.945a28.268,28.268,0,0,1-3.245-2.4,13.208,13.208,0,0,1-2.242-2.076,103.8,103.8,0,0,0,12.255,4.817l5.382,3.306c12.867,8.193,14.069,23.264,14.069,23.264-2.642,1.717-11.223,3.531-11.223,3.531s-.961-4.966-.968-4.668-6.471,24.926-6.471,24.926a43.811,43.811,0,0,1-18.07-4.7A8.315,8.315,0,0,0,523.739,1376.68Z" fill="#fdacbf" opacity="0.5" style="mix-blend-mode: multiply;isolation: isolate"/>
              <path id="Trazado_112473" data-name="Trazado 112473" d="M512.272,1323.355a18.256,18.256,0,0,0,2.652,7.816,16.91,16.91,0,0,0,6.912,5.642,16.725,16.725,0,0,0-2.714,2.549c-5.594-.561-11.178-7.086-11.178-7.086A19.893,19.893,0,0,1,512.272,1323.355Z" fill="#fdacbf" opacity="0.5" style="mix-blend-mode: multiply;isolation: isolate"/>
              <path id="Trazado_112474" data-name="Trazado 112474" d="M512.333,1327.818a29.059,29.059,0,0,1-4.389,4.458c1.092-6.584,6.753-11.559,7.106-11.86A14.662,14.662,0,0,1,512.333,1327.818Z" fill="#e97276"/>
              <path id="Trazado_112475" data-name="Trazado 112475" d="M537.57,1332.168a21.964,21.964,0,0,0-1.574,6.538c-.068,1.443.571,3.483,2.173,3.859a3.339,3.339,0,0,0,3.614-1.773,13.539,13.539,0,0,0,1.479-3.077,25.124,25.124,0,0,1,.724-2.634.255.255,0,0,0-.064-.409c-1.841-.8-3.538-1.99-5.4-2.813a.5.5,0,0,0-.389,0A.483.483,0,0,0,537.57,1332.168Z" fill="#f4c3a7"/>
              <path id="Trazado_112476" data-name="Trazado 112476" d="M543.266,1352.964a13.509,13.509,0,0,1,.9,3.269c.243,1.359.53,2.653.641,4.028a53.4,53.4,0,0,1-1.7-7.252C543.093,1352.924,543.231,1352.888,543.266,1352.964Z" fill="#e97276"/>
              <path id="Trazado_112477" data-name="Trazado 112477" d="M519.627,1338.448a9.1,9.1,0,0,1,2.382-2.048c.082-.046.176.061.108.127-1.526,1.514-4.467,4.935-4.324,4.671A12.655,12.655,0,0,1,519.627,1338.448Z" fill="#e97276"/>
              <path id="Trazado_112478" data-name="Trazado 112478" d="M533.446,1280.757s-11.987,6.312-15.184,27.7,29.984,37.7,44.27,22.485c0,0,2.056,5.44,6.438.307s.034-9.37-6.352-4.311c0,0,.419-1.725,3.876-7.194a74.691,74.691,0,0,0,6.136-13.257l-2.352,3.7s-.981-10.877-1.7-14.217l-2.374,8.2s-5.994-13.341-6.217-13.951l-7.532,5.085,1.819-8.11-9,2.811,3.559-5.135-11.02.554,5.023-4.21Z" fill="#ffbea7"/>
              <g id="Grupo_50624" data-name="Grupo 50624">
                <path id="Trazado_112479" data-name="Trazado 112479" d="M547.781,1307.085a4.374,4.374,0,0,1,4.356-.852,3.82,3.82,0,0,1,1.631,1.172,3.587,3.587,0,0,1,.672,2.147c.022.132-.138.212-.208.1a4,4,0,0,0-1.656-2.51,4.2,4.2,0,0,0-3.438-.113,2.715,2.715,0,0,1,1.949,1.836c.137.378-.407.584-.615.273-.638-.937-1.181-1.52-2.406-1.405A.384.384,0,0,1,547.781,1307.085Z" fill="#12263f"/>
                <path id="Trazado_112480" data-name="Trazado 112480" d="M566.754,1326.988a1.5,1.5,0,0,1,1.815,1.619.11.11,0,0,1-.2.036c-.347-.671-.741-1.274-1.591-1.015s-1.043,1.27-1.287,1.988c-.094.26-.558.361-.617.015A2.5,2.5,0,0,1,566.754,1326.988Z" fill="#c39368"/>
              </g>
              <g id="Grupo_50625" data-name="Grupo 50625">
                <path id="Trazado_112481" data-name="Trazado 112481" d="M532.351,1296.135a2.189,2.189,0,0,0,.78,2.953,2.088,2.088,0,0,0,2.9-.578l.031-.049a2.188,2.188,0,0,0-.772-2.95,2.1,2.1,0,0,0-2.907.581Z" fill="#263238"/>
                <path id="Trazado_112482" data-name="Trazado 112482" d="M531.512,1289.35c.1.385,2.145.109,4.206,1.256s2.992,3.035,3.369,2.888c.166-.05.177-.636-.216-1.478a6.033,6.033,0,0,0-2.565-2.634,5.8,5.8,0,0,0-3.516-.694C531.926,1288.846,531.456,1289.173,531.512,1289.35Z" fill="#263238"/>
                <path id="Trazado_112483" data-name="Trazado 112483" d="M551.1,1301.052c.1.385,2.146.109,4.206,1.256s2.992,3.035,3.37,2.889c.173-.048.181-.626-.217-1.479a5.965,5.965,0,0,0-2.518-2.614,5.765,5.765,0,0,0-3.516-.695C551.514,1300.548,551.068,1300.885,551.1,1301.052Z" fill="#263238"/>
                <path id="Trazado_112484" data-name="Trazado 112484" d="M535.905,1311.577a18.126,18.126,0,0,0-3.06-2.4c-.5-.339-.95-.7-.868-1.062s.534-.755,1.068-1.129l3.406-2.541c4.792-3.649,8.523-6.767,8.294-6.987s-4.228,2.6-9.017,6.239q-1.761,1.356-3.356,2.6a2.529,2.529,0,0,0-1.227,1.61,1.507,1.507,0,0,0,.517,1.119,4.966,4.966,0,0,0,.836.6A18.167,18.167,0,0,0,535.905,1311.577Z" fill="#263238"/>
                <path id="Trazado_112485" data-name="Trazado 112485" d="M541.746,1314.152c-.318-.2-1.564,2.036-4.359,2.562s-5.031-1.037-5.235-.738c-.107.129.3.729,1.284,1.313a6.348,6.348,0,0,0,4.3.739,5.5,5.5,0,0,0,3.507-2.209C541.845,1314.938,541.91,1314.219,541.746,1314.152Z" fill="#263238"/>
                <path id="Trazado_112486" data-name="Trazado 112486" d="M552.9,1296.585c-.115.862,2.2,1.431,4.566,2.939s4.018,3.306,4.662,2.75c.292-.272.254-1.16-.248-2.273a7.693,7.693,0,0,0-2.92-3.278,6.927,6.927,0,0,0-4.112-1.063C553.707,1295.76,552.981,1296.182,552.9,1296.585Z" fill="#263238"/>
                <path id="Trazado_112487" data-name="Trazado 112487" d="M534.448,1284.41c-.07.953,2.064,1.63,4.1,3.2s3.337,3.347,4.229,3.01c.424-.172.651-1,.383-2.171a6.611,6.611,0,0,0-2.5-3.65,6.686,6.686,0,0,0-4.229-1.357C535.239,1283.514,534.51,1283.944,534.448,1284.41Z" fill="#263238"/>
              </g>
              <path id="Trazado_112488" data-name="Trazado 112488" d="M534.492,1290.465s2.994,5.353-2.9,8.58l-71.723-19.2,9.152-27.685Z" fill="#927a70"/>
              <path id="Trazado_112489" data-name="Trazado 112489" d="M468.935,1254.957c.836,3.542,3.439,6.923,3,10.561-.629,5.175,2.342,7.659,5.512,9.392,3.693,2.011,37.474,15.963,50.45,20.1,2.778.885,4.411-1.645,5.358-4.224a3.458,3.458,0,0,0,.2-.94l1.041.615s2.994,5.353-2.9,8.58l-71.723-19.2,8.7-26.319C468.7,1254,468.826,1254.475,468.935,1254.957Z" fill="#927a70" opacity="0.3" style="mix-blend-mode: multiply;isolation: isolate"/>
              <path id="Trazado_112490" data-name="Trazado 112490" d="M472.371,1267.376c-.912,4.121-7.228,14.579-14.48,11.883s-5.11-18.575,1.315-25.343S475.906,1251.417,472.371,1267.376Z" fill="#836e60"/>
              <path id="Trazado_112491" data-name="Trazado 112491" d="M470.739,1266.915c-.912,4.129-7.227,14.585-14.484,11.889s-5.1-18.575,1.321-25.348S474.273,1250.96,470.739,1266.915Z" fill="#a38b84"/>
              <path id="Trazado_112492" data-name="Trazado 112492" d="M469.809,1266.53c-.856,3.8-6.641,13.489-13.169,11.053s-4.462-17.06,1.395-23.349S473.129,1251.8,469.809,1266.53Z" fill="#797478"/>
              <path id="Trazado_112493" data-name="Trazado 112493" d="M457.682,1277.869c-.13-.131-.261-.268-.376-.409-3.81-4.749-3.091-11.593-.6-16.75a27.359,27.359,0,0,1,3.392-5.332c1.46-1.8,3.507-3.725,6.029-3.364a7.253,7.253,0,0,1,.759.155c2.915,1.812,4.682,6.559,2.925,14.361C469,1270.13,463.772,1278.994,457.682,1277.869Z" fill="#797478" opacity="0.2" style="mix-blend-mode: multiply;isolation: isolate"/>
              <g id="Grupo_50626" data-name="Grupo 50626">
                <path id="Trazado_112494" data-name="Trazado 112494" d="M463.619,1256.307a8.828,8.828,0,0,1,4.771-2.8c1.953,2.368,2.844,6.686,1.419,13.021-.707,3.153-4.815,10.351-9.916,11.328C456.392,1273.095,458.628,1261.669,463.619,1256.307Z" fill="#9ddcf9"/>
              </g>
              <path id="Trazado_112495" data-name="Trazado 112495" d="M487.094,1269.5a18.982,18.982,0,0,0-.942-6.376c-.039-.147.174-.248.241-.107,1.928,3.66,1.336,8.768.183,12.574a17.324,17.324,0,0,1-2.813,5.759c-1.192,1.505-2.379,3.235-4.3,3.849a.2.2,0,0,1-.164-.369c3.427-2.034,5.433-5.7,6.688-9.378A23.8,23.8,0,0,0,487.094,1269.5Z" fill="#7e5b6c" opacity="0.5" style="mix-blend-mode: multiply;isolation: isolate"/>
              <path id="Trazado_112496" data-name="Trazado 112496" d="M501.895,1272.083a11.9,11.9,0,0,1,1.025,8.39c-.571,3.015-1.787,6.44-4.388,8.271-.112.076-.223-.081-.143-.174a22.45,22.45,0,0,0,2.541-3.63,20.327,20.327,0,0,0,1.868-9.218,15.617,15.617,0,0,0-1-3.6C501.785,1272.067,501.865,1272.027,501.895,1272.083Z" fill="#7e5b6c" opacity="0.5" style="mix-blend-mode: multiply;isolation: isolate"/>
              <path id="Trazado_112497" data-name="Trazado 112497" d="M520.9,1283.57c-.005-.056.071-.054.078-.005a15.469,15.469,0,0,1,.25,5.6,10.276,10.276,0,0,1-2.552,5.163c-.073.072-.213-.015-.154-.115a18.63,18.63,0,0,0,2.265-5.152A16.729,16.729,0,0,0,520.9,1283.57Z" fill="#7e5b6c" opacity="0.5" style="mix-blend-mode: multiply;isolation: isolate"/>
              <path id="Trazado_112498" data-name="Trazado 112498" d="M514.2,1324.372a25.357,25.357,0,0,1-7.186-14.218c-1.152-8.745-.178-13.787.84-13.958s2.838,1.506,3.857-2.566-1.912-1.317-2.333-.72l-7.95-2.055a3.324,3.324,0,0,0,.53,4.1c1.926,1.821.68,2.6.209,6.436s-.887,19.044,8.906,28A16.8,16.8,0,0,0,514.2,1324.372Z" fill="#ffbea7"/>
            </g>
            <path id="Trazado_112499" data-name="Trazado 112499" d="M464.936,1257.816c.413-.506,3.266-2.914,3.552-1.1a.861.861,0,0,1-.2.733,27.233,27.233,0,0,0-1.639,2.384c-.931,1.533-1.332,3.657-2.6,4.924a1.133,1.133,0,0,1-1.886-.458C461.611,1261.942,463.516,1259.542,464.936,1257.816Z" fill="#fff"/>
            <path id="Trazado_112500" data-name="Trazado 112500" d="M462.07,1266.75a.681.681,0,0,1,.785.3,1.616,1.616,0,0,1,.1,1.171c-.023.164,0,.383-.039.559a3.62,3.62,0,0,1-.283.759.862.862,0,0,1-1.569-.162,2.4,2.4,0,0,1,.056-1.6A1.739,1.739,0,0,1,462.07,1266.75Z" fill="#fff"/>
          </g>
        </g>
      </g>
    </g>
  </g>
</svg>
