<svg xmlns="http://www.w3.org/2000/svg" width="465.212" height="583.72" viewBox="0 0 465.212 583.72">
  <g id="Grupo_53050" data-name="Grupo 53050" transform="translate(-723.789 -944)">
    <g id="Grupo_49671" data-name="Grupo 49671" transform="translate(467.347 -2409.088)">
      <path id="Trazado_102243" data-name="Trazado 102243" d="M416.5,3445.428l3.118,4.789a1.33,1.33,0,0,0,1.077.606l5.7.148a1.324,1.324,0,0,1,.99,2.153l-3.588,4.442a1.313,1.313,0,0,0-.247,1.237l1.621,5.481a1.312,1.312,0,0,1-1.732,1.609l-5.333-2.054a1.346,1.346,0,0,0-1.237.148l-4.7,3.205a1.324,1.324,0,0,1-2.054-1.164l.3-5.7a1.308,1.308,0,0,0-.52-1.114l-4.529-3.489a1.311,1.311,0,0,1,.458-2.314l5.519-1.485a1.325,1.325,0,0,0,.9-.829l1.918-5.4a1.311,1.311,0,0,1,2.339-.272Z" transform="translate(35.228 21.778)" fill="#ebebeb"/>
      <path id="Trazado_102244" data-name="Trazado 102244" d="M346.016,3519.394a11.452,11.452,0,0,0-9.021-2.6c.8-4.071-2.747-7.994-6.768-9.021s-8.241.1-12.176,1.423a15.139,15.139,0,0,0-30.229.049c-6.6-1.732-16.346.619-17.744,9.058a6.013,6.013,0,0,0-7.56,2.4,7.96,7.96,0,0,0,.4,8.266c3.341,5.16,10.518,5.8,16.668,5.9l51.97.83a31.071,31.071,0,0,0,10.1-.953c3.242-1.039,6.187-3.39,7.177-6.657A8.881,8.881,0,0,0,346.016,3519.394Z" transform="translate(1.212 33.675)" fill="#f5f5f5"/>
      <path id="Trazado_102245" data-name="Trazado 102245" d="M353.155,3662.061a13.185,13.185,0,0,0-10.345-2.97c.94-4.665-3.143-9.157-7.746-10.333s-9.441.112-13.945,1.621a17.315,17.315,0,0,0-34.573.136c-7.573-1.98-18.734.706-20.33,10.382a6.891,6.891,0,0,0-8.662,2.734,9.147,9.147,0,0,0,.445,9.479c3.836,5.915,12.052,6.645,19.093,6.756l59.493.953c3.9.062,7.87.111,11.57-1.089s7.164-3.873,8.216-7.623A10.179,10.179,0,0,0,353.155,3662.061Z" transform="translate(0 66.716)" fill="#ebebeb"/>
      <g id="freepik--Ribbon--inject-38" transform="translate(261.72 3353.088)">
        <path id="Trazado_102246" data-name="Trazado 102246" d="M307.518,3399.4l-46.81,18.029,27.9,13.426-19.118,29.537,81.321-26.307-6.806-22.149Z" transform="translate(-260.708 -3342.094)" fill="#eea0c2"/>
        <path id="Trazado_102247" data-name="Trazado 102247" d="M602.837,3398.668l44.5,23.151-29.227,10.221,15.7,31.5-79.6-36.033,10.963-20.454Z" transform="translate(-191.035 -3342.268)" fill="#eea0c2"/>
        <path id="Trazado_102248" data-name="Trazado 102248" d="M489.327,3353.088c-120.831-.086-200,39.807-200,39.807l24.228,45.87s190.78-69.689,337.386,5.729l27.755-48.877S591.819,3353.162,489.327,3353.088Z" transform="translate(-253.914 -3353.088)" fill="#f4bfd6"/>
        <path id="Trazado_102249" data-name="Trazado 102249" d="M365.044,3416.626a6.831,6.831,0,0,1-1.039.3l-2.982.706c-2.586.644-6.335,1.559-10.938,2.8-9.206,2.475-21.852,6.187-35.649,10.753l-.767.26-.272.086-.124-.247-17.064-32.469c-2.128-4.133-3.861-7.424-5.1-9.9-.569-1.126-1.015-2.029-1.349-2.7a5.189,5.189,0,0,1-.433-.953,9.1,9.1,0,0,1,.544.891l1.46,2.648,5.271,9.763,17.237,32.419-.384-.161.78-.26c13.809-4.579,26.48-8.229,35.736-10.567,4.615-1.237,8.39-2.042,10.988-2.6l3.019-.606A6.406,6.406,0,0,1,365.044,3416.626Z" transform="translate(-253.914 -3345.451)" fill="#0a4b6e"/>
        <path id="Trazado_102250" data-name="Trazado 102250" d="M615.082,3387.458a6.092,6.092,0,0,1-.4.817l-1.237,2.289-4.628,8.353-15.455,27.42c-2.017,3.526-3.96,6.954-5.779,10.146l-.136.248-.26-.111-21.493-9.627-6.187-2.846-1.646-.792c-.384-.185-.569-.284-.557-.309a4.047,4.047,0,0,1,.594.21l1.7.693,6.3,2.685,21.568,9.417-.4.124,5.766-10.159c6.076-10.642,11.594-20.281,15.616-27.334,2-3.427,3.638-6.187,4.8-8.241l1.336-2.227A3.863,3.863,0,0,1,615.082,3387.458Z" transform="translate(-190.299 -3344.929)" fill="#0a4b6e"/>
      </g>
      <path id="Trazado_102251" data-name="Trazado 102251" d="M523.157,3792.965l.161,8.439a1.943,1.943,0,0,0,.879,1.584l7.053,4.652a1.943,1.943,0,0,1-.433,3.465l-7.981,2.771a1.958,1.958,0,0,0-1.237,1.312l-2.24,8.142a1.943,1.943,0,0,1-3.428.656l-5.1-6.719a1.947,1.947,0,0,0-1.646-.78l-8.427.384a1.943,1.943,0,0,1-1.683-3.056l4.826-6.917a1.99,1.99,0,0,0,.223-1.807l-2.97-7.895a1.943,1.943,0,0,1,2.388-2.549l8.08,2.475a1.94,1.94,0,0,0,1.769-.347l6.6-5.271a1.955,1.955,0,0,1,3.168,1.46Z" transform="translate(57.515 103.974)" fill="#7cc5ff"/>
      <path id="Trazado_102252" data-name="Trazado 102252" d="M431.555,3412.506l5.321,6.545a1.926,1.926,0,0,0,1.67.705l8.414-.667a1.942,1.942,0,0,1,1.794,2.994l-4.591,7.09a1.944,1.944,0,0,0-.161,1.807l3.242,7.8a1.942,1.942,0,0,1-2.289,2.611l-8.167-2.165a1.931,1.931,0,0,0-1.757.408l-6.41,5.47a1.955,1.955,0,0,1-3.217-1.374l-.458-8.439a1.954,1.954,0,0,0-.928-1.546l-7.14-4.368a1.943,1.943,0,0,1,.309-3.477l7.808-3.068a1.941,1.941,0,0,0,1.237-1.361l1.967-8.216a1.943,1.943,0,0,1,3.353-.742Z" transform="translate(37.863 13.942)" fill="#7cc5ff"/>
      <path id="Trazado_102253" data-name="Trazado 102253" d="M335.607,3647.192l3.65,2.97a1.1,1.1,0,0,0,.99.2l4.529-1.336a1.089,1.089,0,0,1,1.324,1.435l-1.7,4.393a1.076,1.076,0,0,0,.124,1l2.648,3.885a1.076,1.076,0,0,1-.953,1.7l-4.7-.247a1.076,1.076,0,0,0-.916.42l-2.871,3.712a1.088,1.088,0,0,1-1.906-.383l-1.237-4.554a1.1,1.1,0,0,0-.693-.742l-4.43-1.584a1.076,1.076,0,0,1-.223-1.93l3.947-2.562a1.1,1.1,0,0,0,.495-.878l.136-4.715a1.089,1.089,0,0,1,1.782-.779Z" transform="translate(17.163 69.757)" fill="#7cc5ff"/>
      <path id="Trazado_102254" data-name="Trazado 102254" d="M596.838,3705.058c-7.325-6.546-17.719-9.119-27.458-7.907,2.475-12.374-8.352-24.3-20.565-27.433s-25.094.3-37.047,4.319c-1.46-23.164-22.941-43.309-46.155-43.172s-44.546,20.355-45.783,43.531c-20.1-5.271-49.731,1.868-53.987,27.557-7.857-4.083-18.412-.3-23,7.276s-3.613,17.744,1.237,25.181c10.171,15.7,31.986,17.633,50.733,17.93l158,2.475c10.332.161,20.9.3,30.737-2.883s19.006-10.308,21.8-20.256C607.913,3722.245,604.163,3711.6,596.838,3705.058Z" transform="translate(19.805 65.94)" fill="#f5f5f5"/>
      <path id="Trazado_102255" data-name="Trazado 102255" d="M654.453,3560.548a18.39,18.39,0,0,0-14.477-4.158c1.3-6.521-4.405-12.819-10.84-14.478s-13.24.161-19.538,2.289c-.767-12.212-12.089-22.817-24.327-22.768s-23.51,10.728-24.154,22.953c-10.592-2.784-26.22.978-28.46,14.527-4.145-2.153-9.714-.161-12.139,3.836a12.83,12.83,0,0,0,.631,13.277c5.37,8.278,16.866,9.293,26.728,9.454l83.363,1.324c5.444.086,11.013.161,16.2-1.51s10.023-5.444,11.508-10.691A14.267,14.267,0,0,0,654.453,3560.548Z" transform="translate(62.32 39.963)" fill="#f5f5f5"/>
      <g id="freepik--character-1--inject-38" transform="translate(402.439 3503.334)">
        <path id="Trazado_102256" data-name="Trazado 102256" d="M387.09,3811.38l.037-29.326,22.446.124-3.947,25.33Z" transform="translate(-371.425 -3401.503)" fill="#ffbe9d"/>
        <path id="Trazado_102257" data-name="Trazado 102257" d="M389.427,3806.746l.631,1.237s-17.187,19.452-15.331,23.646l42.616-21.58-7.758-13.9A27.3,27.3,0,0,1,389.427,3806.746Z" transform="translate(-374.393 -3398.156)" fill="#c1507f"/>
        <path id="Trazado_102258" data-name="Trazado 102258" d="M417.33,3808.025l-1.868-3.341L375.309,3826.6s-1.485,1.782-.594,3.007Z" transform="translate(-374.43 -3396.131)" fill="#e0e0e0"/>
        <path id="Trazado_102259" data-name="Trazado 102259" d="M390.382,3810.322c.062,0,0-.384-.285-.879a4.73,4.73,0,0,0-3.712-2.289c-.569,0-.916.074-.916.136a11.09,11.09,0,0,1,2.784.99C389.652,3809.158,390.246,3810.433,390.382,3810.322Z" transform="translate(-371.809 -3395.545)" fill="#0a4b6e"/>
        <path id="Trazado_102260" data-name="Trazado 102260" d="M392.026,3809.035A4.112,4.112,0,0,0,390,3806.7a4.174,4.174,0,0,0-3.007-.754,28.117,28.117,0,0,1,2.735,1.237A24.957,24.957,0,0,1,392.026,3809.035Z" transform="translate(-371.448 -3395.842)" fill="#0a4b6e"/>
        <path id="Trazado_102261" data-name="Trazado 102261" d="M387.827,3812.61a3.27,3.27,0,0,0-1.027-2.389,3.138,3.138,0,0,0-2.24-1.237,21.829,21.829,0,0,1,1.856,1.634C387.307,3811.645,387.678,3812.647,387.827,3812.61Z" transform="translate(-372.025 -3395.11)" fill="#0a4b6e"/>
        <path id="Trazado_102262" data-name="Trazado 102262" d="M386.131,3808.7a2.937,2.937,0,0,0,0-1.77,9.163,9.163,0,0,0-.656-1.819c-.161-.322-.322-.655-.507-1a4.722,4.722,0,0,0-.334-.557.956.956,0,0,0-.742-.346.706.706,0,0,0-.643.582,1.458,1.458,0,0,0,0,.693,5.287,5.287,0,0,0,.346,1.114,5.8,5.8,0,0,0,1.064,1.633,3.1,3.1,0,0,0,1.448,1.027c0-.074-.52-.433-1.237-1.237a6.5,6.5,0,0,1-.9-1.584,5.864,5.864,0,0,1-.3-1.027c-.074-.346,0-.693.173-.668s.421.272.606.631l.532.978a11.612,11.612,0,0,1,.73,1.708C386.082,3808.03,386.044,3808.7,386.131,3808.7Z" transform="translate(-372.347 -3396.482)" fill="#0a4b6e"/>
        <path id="Trazado_102263" data-name="Trazado 102263" d="M386.175,3808.136h.52l-.124-.136a5.946,5.946,0,0,0-1.584-1.237,7.384,7.384,0,0,0-1.46-.606c-.285-.081-.574-.146-.866-.2a1.617,1.617,0,0,0-.544,0,.794.794,0,0,0-.544.383.693.693,0,0,0,.186.817,2.546,2.546,0,0,0,.52.334,7.639,7.639,0,0,0,1.015.42,6.859,6.859,0,0,0,1.794.285,2.9,2.9,0,0,0,1.646-.31,9.47,9.47,0,0,0-1.621,0,6.287,6.287,0,0,1-1.67-.371,4.536,4.536,0,0,1-.916-.408c-.334-.149-.582-.4-.495-.47.111-.272.891,0,1.374.062a8.841,8.841,0,0,1,1.4.508,11.391,11.391,0,0,1,1.67.99v-.136C386.262,3808.013,386.163,3808.05,386.175,3808.136Z" transform="translate(-372.749 -3395.834)" fill="#0a4b6e"/>
        <path id="Trazado_102264" data-name="Trazado 102264" d="M454.943,3796.928,441.79,3770.72l20.12-9.986,7.857,24.414Z" transform="translate(-358.44 -3406.564)" fill="#ffbe9d"/>
        <path id="Trazado_102265" data-name="Trazado 102265" d="M452.081,3792.843l1.138.854s-6.657,25.057-3.143,27.99l28.373-38.421-13.166-8.921A27.282,27.282,0,0,1,452.081,3792.843Z" transform="translate(-356.716 -3403.333)" fill="#c1507f"/>
        <path id="Trazado_102266" data-name="Trazado 102266" d="M478.422,3781.965l-3.168-2.141-25.985,37.6s-.52,2.264.829,2.957Z" transform="translate(-356.688 -3402.032)" fill="#e0e0e0"/>
        <path id="Trazado_102267" data-name="Trazado 102267" d="M457.415,3792.761a2.021,2.021,0,0,0-.656-.656,4.585,4.585,0,0,0-2.128-.718,4.725,4.725,0,0,0-2.215.334c-.532.235-.792.482-.755.532a7.088,7.088,0,0,1,5.754.507Z" transform="translate(-356.097 -3399.292)" fill="#0a4b6e"/>
        <path id="Trazado_102268" data-name="Trazado 102268" d="M458.288,3790.831a4.134,4.134,0,0,0-2.858-1.175,4.071,4.071,0,0,0-3.019.681,27.189,27.189,0,0,1,2.97-.173Q456.85,3790.424,458.288,3790.831Z" transform="translate(-355.919 -3399.712)" fill="#0a4b6e"/>
        <path id="Trazado_102269" data-name="Trazado 102269" d="M456.158,3795.834c.111-.074-.594-1.126-1.98-1.67a3.145,3.145,0,0,0-2.6-.148c0,.148,1.151.111,2.4.619S456.047,3795.932,456.158,3795.834Z" transform="translate(-356.116 -3398.714)" fill="#0a4b6e"/>
        <path id="Trazado_102270" data-name="Trazado 102270" d="M452.828,3793.133a2.772,2.772,0,0,0-.817-1.572,8.763,8.763,0,0,0-1.411-1.336c-.285-.223-.582-.445-.9-.668a4.291,4.291,0,0,0-.544-.334.9.9,0,0,0-.817,0,.718.718,0,0,0-.322.8,1.6,1.6,0,0,0,.322.619,5.834,5.834,0,0,0,.817.841,5.769,5.769,0,0,0,1.683.99,3.218,3.218,0,0,0,1.757.26c0-.086-.656-.161-1.609-.594a6.362,6.362,0,0,1-1.522-1.015,5.438,5.438,0,0,1-.73-.779c-.223-.272-.309-.631-.136-.681a.926.926,0,0,1,.817.3l.9.631a10.708,10.708,0,0,1,1.423,1.237C452.482,3792.552,452.754,3793.17,452.828,3793.133Z" transform="translate(-356.968 -3399.824)" fill="#0a4b6e"/>
        <path id="Trazado_102271" data-name="Trazado 102271" d="M452.65,3792.626a.652.652,0,0,0,.3-.111l.136-.074h-.161a6.008,6.008,0,0,0-1.98-.4,7.918,7.918,0,0,0-1.572.111c-.285.062-.582.124-.866.21a1.813,1.813,0,0,0-.495.235.819.819,0,0,0-.309.582.679.679,0,0,0,.532.656,2.849,2.849,0,0,0,.619,0,6.54,6.54,0,0,0,2.821-.631c.94-.47,1.361-.965,1.324-1.015s-.557.322-1.473.681a7.526,7.526,0,0,1-1.658.42,6.479,6.479,0,0,1-1,0c-.371,0-.705-.086-.656-.2a3.533,3.533,0,0,1,1.237-.557,8.394,8.394,0,0,1,1.485-.173,10.96,10.96,0,0,1,1.93.124v-.136C452.65,3792.527,452.575,3792.6,452.65,3792.626Z" transform="translate(-357.037 -3399.132)" fill="#0a4b6e"/>
        <path id="Trazado_102272" data-name="Trazado 102272" d="M394.327,3651.818l-11.557,91.727,1.386,84.514,25.985-.978,5.618-78.574,10.3-62.005,8.389,73.946,24.438,48.394s16.247.421,21.531-9.589L464.1,3750.487l3.613-81.135-4.813-19.377C444.132,3661.7,419.508,3657.522,394.327,3651.818Z" transform="translate(-372.45 -3432.857)" fill="#0a4b6e"/>
        <path id="Trazado_102273" data-name="Trazado 102273" d="M401.26,3500.1l1.324,34.189,1.7,13.252,1.015,39.683,18.845-.792s-3.712-40.833-3.8-52.8-4.776-35.562-4.776-35.562Z" transform="translate(-368.061 -3468.916)" fill="#ffbe9d"/>
        <path id="Trazado_102274" data-name="Trazado 102274" d="M418.688,3505.7s2.871-7.152,3.712-10.419,5.024-8.835,5.024-8.835a3.875,3.875,0,0,0-3.984-.285c-1.893,1.238-6.36,6.966-7.424,6.954a5.761,5.761,0,0,1-3.353-2.734c-.074-.619-2.475-15.294-3.91-15.74s-3.428.285-3.39,1.856,2.326,9.479,1.237,9.615-4.244-9.714-5.655-9.689a2.376,2.376,0,0,0-2.492,2.253,2.4,2.4,0,0,0,.017.432c.359,1.534,2.722,8.958,1.819,9.231s-3.056-7.808-4.022-7.994-2.19,1.386-1.918,2.289,3.254,10.629,2.066,11.248-4.479-4.158-5.234-4.517c-.99-.482-2.042,1.6-.4,3.614.52.643,12.077,14.688,13.537,16.234S418.688,3505.7,418.688,3505.7Z" transform="translate(-370.751 -3474.51)" fill="#ffbe9d"/>
        <path id="Trazado_102275" data-name="Trazado 102275" d="M398.82,3493.777a4.784,4.784,0,0,1,2.6,0,9.005,9.005,0,0,1,5.271,3.391l.285.408h-.569a16.323,16.323,0,0,1,3.316-4.949,6.807,6.807,0,0,1,1.906-1.522,26.448,26.448,0,0,0-4.628,6.707l-.223.52-.346-.47-.26-.384a9.4,9.4,0,0,0-4.863-3.341C399.822,3493.826,398.82,3493.888,398.82,3493.777Z" transform="translate(-368.64 -3470.571)" fill="#eb996e"/>
        <path id="Trazado_102276" data-name="Trazado 102276" d="M500.914,3551.456c-3.069-6.112-8.241-5.691-11.557-11.668s-2.623-9.9-11.557-13.611a35.782,35.782,0,0,0-8.08-1.547s-6.4-7.882-12.25-8.662c-6.88-.9-13.054-.421-18.722,3.588s-9.9,9.652-14.514,14.849-9.9,10.147-16.606,12.077a5.257,5.257,0,0,0,6.187,5.815l-4.059,2.475a39.054,39.054,0,0,0,14.651,16.086l38.582,4.021a46,46,0,0,0,30.526,5.482c2.475-.421,5.011-1.139,6.583-3.057,2.475-3.044,1.349-7.523.1-11.248l4.578,6.187a28.589,28.589,0,0,0,11-7.833C509.056,3563.323,504,3557.569,500.914,3551.456Z" transform="translate(-366.559 -3464.76)" fill="#0a4b6e"/>
        <path id="Trazado_102277" data-name="Trazado 102277" d="M432.039,3538.183c3.576-9.107,16.581-15.183,25.527-11.223l17.323,9.417a14.626,14.626,0,0,1,6.806,17.707l-3.564,10.109-15.752,44.422h0s-9.008,19.154-25.5,12.6c-14.849-5.89-8.847-21.629-8.835-21.642l4.207-11.533s-12.077-4.417-9.553-20.714C423.884,3559.269,428.067,3548.305,432.039,3538.183Z" transform="translate(-363.054 -3462.352)" fill="#ffbe9d"/>
        <path id="Trazado_102278" data-name="Trazado 102278" d="M432.051,3548.958a2.091,2.091,0,0,0,1.237,2.623,1.991,1.991,0,0,0,2.6-1.076l.02-.05a2.079,2.079,0,0,0-1.237-2.623,2.017,2.017,0,0,0-2.622,1.124Z" transform="translate(-360.778 -3457.139)" fill="#0a4b6e"/>
        <path id="Trazado_102279" data-name="Trazado 102279" d="M430.478,3544.929c.2.244,1.889.011,4.039.654s3.567,1.747,3.852,1.66-.061-.4-.677-.891a8.672,8.672,0,0,0-3.045-1.562,7.969,7.969,0,0,0-3.256-.323C430.657,3544.618,430.363,3544.825,430.478,3544.929Z" transform="translate(-361.131 -3457.913)" fill="#0a4b6e"/>
        <path id="Trazado_102280" data-name="Trazado 102280" d="M446.8,3553.379a2.091,2.091,0,0,0,1.237,2.623,1.992,1.992,0,0,0,2.6-1.082l.022-.057a2.078,2.078,0,0,0-1.237-2.611,1.993,1.993,0,0,0-2.6,1.078Z" transform="translate(-357.276 -3456.091)" fill="#0a4b6e"/>
        <path id="Trazado_102281" data-name="Trazado 102281" d="M446.659,3548.684c.224.261,2.084.184,4.434,1.035s3.871,2.137,4.184,2.063-.053-.412-.709-.979a10.375,10.375,0,0,0-3.285-1.856,9.389,9.389,0,0,0-3.582-.624C446.9,3548.374,446.555,3548.57,446.659,3548.684Z" transform="translate(-357.288 -3456.988)" fill="#0a4b6e"/>
        <path id="Trazado_102282" data-name="Trazado 102282" d="M438.21,3560.918a19.408,19.408,0,0,0-3.316-1.634c-.532-.223-1.015-.482-1.015-.792a2.134,2.134,0,0,1,.742-1.139l2.6-2.685a86.519,86.519,0,0,0,6.187-7.214c-.21-.148-3.341,2.846-6.979,6.682l-2.475,2.722c-.346.421-.866.841-.792,1.572a1.445,1.445,0,0,0,.705.916,4.987,4.987,0,0,0,.9.409A18.079,18.079,0,0,0,438.21,3560.918Z" transform="translate(-360.49 -3457.195)" fill="#0a4b6e"/>
        <path id="Trazado_102283" data-name="Trazado 102283" d="M430.447,3576.174a41.466,41.466,0,0,0,22.545,1.139s-8.785,9.12-23.832,2.685Z" transform="translate(-361.438 -3450.376)" fill="#eb996e"/>
        <path id="Trazado_102284" data-name="Trazado 102284" d="M448.49,3543.2c0,.742,2.042.841,4.219,1.708s3.824,2.1,4.269,1.546c.2-.272,0-1-.557-1.844a6.557,6.557,0,0,0-2.92-2.24,5.777,5.777,0,0,0-3.539-.235C449.034,3542.4,448.49,3542.892,448.49,3543.2Z" transform="translate(-356.849 -3458.497)" fill="#0a4b6e"/>
        <path id="Trazado_102285" data-name="Trazado 102285" d="M432.1,3537.482c.161.717,1.893.742,3.712,1.448s3.192,1.732,3.786,1.237c.26-.223.247-.878-.21-1.683a5.055,5.055,0,0,0-2.636-2.128,5.238,5.238,0,0,0-3.415-.074C432.485,3536.653,432.039,3537.148,432.1,3537.482Z" transform="translate(-360.741 -3459.905)" fill="#0a4b6e"/>
        <path id="Trazado_102286" data-name="Trazado 102286" d="M443.53,3561.324a9.015,9.015,0,0,1-.52,4.578,3.708,3.708,0,0,1-2.97,2.141,4.157,4.157,0,0,1-3.514-1.905,12.169,12.169,0,0,1-1.6-3.836C437.578,3561.967,440.832,3561.658,443.53,3561.324Z" transform="translate(-360.068 -3453.902)" fill="#eb996e"/>
        <path id="Trazado_102287" data-name="Trazado 102287" d="M437.165,3567.858a7.383,7.383,0,0,0,2.846,0,4.666,4.666,0,0,0,2.475-1.584,4.734,4.734,0,0,0,.965-3.439,4.41,4.41,0,0,0-.421-1.473l.3.186c-4.739.148-8.291,1.027-8.328.841a8.7,8.7,0,0,1,2.326-.705,35.343,35.343,0,0,1,5.977-.779h.21l.087.185a4.948,4.948,0,0,1,.495,1.671,5.221,5.221,0,0,1-1.151,3.885,4.945,4.945,0,0,1-2.858,1.658A3.706,3.706,0,0,1,437.165,3567.858Z" transform="translate(-360.051 -3454.001)" fill="#0a4b6e"/>
        <path id="Trazado_102288" data-name="Trazado 102288" d="M477.171,3537.9a20.549,20.549,0,0,0-6.917-6.311,49.516,49.516,0,0,0-19.8-6.979l-4.1-2.066c.074,7.424,6.076,20.306,12.312,24.389,1.967,1.3,4.232,2.351,5.556,4.306a10.307,10.307,0,0,1,1.064,7.424,68.014,68.014,0,0,0-1.336,7.523,4.951,4.951,0,0,0,.705,3.167,3.708,3.708,0,0,0,3.712,1.237,6.808,6.808,0,0,0,3.477-2.178,22.929,22.929,0,0,0,4.046-7.721,52.276,52.276,0,0,0,3.254-11.347A17.487,17.487,0,0,0,477.171,3537.9Z" transform="translate(-357.355 -3463.107)" fill="#0a4b6e"/>
        <path id="Trazado_102289" data-name="Trazado 102289" d="M466.049,3556.434c.272,0,10.419.309,7,9.664s-12.089,3.985-12,3.712S466.049,3556.434,466.049,3556.434Z" transform="translate(-353.868 -3455.062)" fill="#ffbe9d"/>
        <path id="Trazado_102290" data-name="Trazado 102290" d="M464.4,3566.534a4.272,4.272,0,0,0,.346.408,1.8,1.8,0,0,0,1.237.47c1.114,0,2.475-1.237,3.18-2.945a5.791,5.791,0,0,0,.4-2.475,2,2,0,0,0-.767-1.695.879.879,0,0,0-1.126.086c-.223.223-.235.433-.285.421s-.148-.223.074-.582a1.08,1.08,0,0,1,.582-.458,1.242,1.242,0,0,1,.99.1,2.477,2.477,0,0,1,1.163,2.066,5.928,5.928,0,0,1-.384,2.809c-.742,1.856-2.351,3.267-3.848,3.168a1.853,1.853,0,0,1-1.4-.792C464.343,3566.77,464.368,3566.546,464.4,3566.534Z" transform="translate(-353.077 -3454.286)" fill="#eb996e"/>
        <path id="Trazado_102291" data-name="Trazado 102291" d="M472.864,3559.936a17.727,17.727,0,0,0,3.267-.878,11.581,11.581,0,0,0,3.329-2.079,11.2,11.2,0,0,0,2.97-4.145l.3.334a11.587,11.587,0,0,1-6.731-.124l-.557-.186.483-.334a9.042,9.042,0,0,0,3.811-6l.359.359a26.976,26.976,0,0,1-20.491-5.3,26.66,26.66,0,0,1-7.115-8.525,25.988,25.988,0,0,1-2.475-7.053,20.125,20.125,0,0,1-.285-2.017,2.592,2.592,0,0,1,0-.706c.062,0,.173.965.569,2.673a27.913,27.913,0,0,0,2.685,6.892,26.417,26.417,0,0,0,27.1,13.4h.433l-.074.421a9.611,9.611,0,0,1-4.108,6.4v-.507a11.276,11.276,0,0,0,6.41.2l.507-.136-.21.458a11.45,11.45,0,0,1-3.168,4.269,12.265,12.265,0,0,1-3.477,2.029,11.114,11.114,0,0,1-2.475.594A4.385,4.385,0,0,1,472.864,3559.936Z" transform="translate(-356.562 -3462.932)" fill="#455a64"/>
        <path id="Trazado_102292" data-name="Trazado 102292" d="M425.27,3535.921a3.066,3.066,0,0,1,.247-.754,12.907,12.907,0,0,1,1.052-1.993,15.7,15.7,0,0,1,5.878-5.469l.124.52H425.6l.705-.557a32.414,32.414,0,0,1,4.95-3.155,31.6,31.6,0,0,1,15.789-3.452,29.274,29.274,0,0,1,4.888.644,8.707,8.707,0,0,1,1.732.532,53.8,53.8,0,0,0-6.632-.717,31.986,31.986,0,0,0-20.318,6.645l-.186-.557,6.076.086h1.1l-.978.5a16.374,16.374,0,0,0-5.878,5.16C425.8,3534.918,425.344,3535.958,425.27,3535.921Z" transform="translate(-362.361 -3463.467)" fill="#455a64"/>
        <path id="Trazado_102293" data-name="Trazado 102293" d="M453.579,3556.676a11.548,11.548,0,0,0-5.84-.1,3.4,3.4,0,0,0-2.537,1.782,2.476,2.476,0,0,0,.309,2.128,4.943,4.943,0,0,0,1.621,1.5,6.554,6.554,0,0,0,4.405,1.113c1.534-.247,3.551-1.237,3.786-2.8a3.392,3.392,0,0,0-1.745-3.625" transform="translate(-357.657 -3455.106)" fill="#ffae8a"/>
        <path id="Trazado_102294" data-name="Trazado 102294" d="M431.893,3552.717a6.968,6.968,0,0,0-4.566-.087,2.8,2.8,0,0,0-1.98,1.782,3.084,3.084,0,0,0,.235,2.129,4.4,4.4,0,0,0,1.237,1.5,4.255,4.255,0,0,0,3.44,1.089,3.589,3.589,0,0,0,1.609-6.41" transform="translate(-362.365 -3456.046)" fill="#ffae8a"/>
        <path id="Trazado_102295" data-name="Trazado 102295" d="M508.81,3521.864c-.458,1.125-20.974,32.506-24.315,36.354s-21.036,29.623-21.036,29.623l12.894,14.106s13.4-21.036,22.5-30.663c11.05-11.768,25-45.622,25-45.622Z" transform="translate(-353.295 -3463.269)" fill="#ffbe9d"/>
        <path id="Trazado_102296" data-name="Trazado 102296" d="M502.275,3528.683s-3.18-7.016-4.17-10.233-5.4-8.662-5.4-8.662a3.861,3.861,0,0,1,3.96-.458c1.943,1.1,6.657,6.682,7.771,6.607a5.69,5.69,0,0,0,3.217-2.871c0-.619,1.757-15.393,3.217-15.9s3.44.136,3.465,1.707-1.893,9.565-.8,9.664,3.8-9.9,5.222-9.9a2.365,2.365,0,0,1,2.611,2.562c-.285,1.547-2.326,9.07-1.4,9.305s2.7-7.932,3.712-8.167,2.24,1.237,2,2.2-2.772,10.765-1.571,11.334,4.294-4.355,5.036-4.751c.978-.52,2.1,1.51.557,3.588-.495.668-11.421,15.22-12.807,16.829S502.275,3528.683,502.275,3528.683Z" transform="translate(-346.352 -3469.172)" fill="#ffbe9d"/>
        <path id="Trazado_102297" data-name="Trazado 102297" d="M516.983,3515.921c0,.112-1,.1-2.475.606a9.361,9.361,0,0,0-4.7,3.551l-.247.384-.309.5-.26-.52a26,26,0,0,0-4.95-6.484,6.217,6.217,0,0,1,1.98,1.423,16.8,16.8,0,0,1,3.526,4.776h-.569l.272-.421a8.924,8.924,0,0,1,5.135-3.6A4.828,4.828,0,0,1,516.983,3515.921Z" transform="translate(-343.662 -3465.146)" fill="#eb996e"/>
        <path id="Trazado_102298" data-name="Trazado 102298" d="M407.524,3593.646,402.76,3562.2s25.738.8,25.5,2.227,4,23.078,4,23.078Z" transform="translate(-367.705 -3453.692)" fill="#7cc5ff"/>
        <path id="Trazado_102299" data-name="Trazado 102299" d="M436.344,3582.676l1.559-.112c3.551,7.3,17.46,9.244,29.982,4.38l2.982.544,16.272,16.086-18.5,34.165.631,43.481a84.969,84.969,0,0,0-29.7,5.346c-15.084,5.791-16.668,3.576-37.48-3.267s-18.35-6.929-12.114-18.091,21.716-77.139,21.716-77.139Z" transform="translate(-371.789 -3448.859)" fill="#7cc5ff"/>
        <path id="Trazado_102300" data-name="Trazado 102300" d="M451.7,3589.42c.359,0,15.17-16.816,15.17-16.816l21.951,13.265-18.883,22.471Z" transform="translate(-356.087 -3451.224)" fill="#7cc5ff"/>
        <path id="Trazado_102301" data-name="Trazado 102301" d="M431.815,3645.246a10.7,10.7,0,0,1-1.237-1.5c-.792-.99-1.868-2.475-3.155-4.318a119.941,119.941,0,0,1-8.934-15.22,121.321,121.321,0,0,1-6.6-16.383c-.681-2.153-1.237-3.911-1.485-5.135a10.236,10.236,0,0,1-.408-1.918,11.637,11.637,0,0,1,.643,1.844c.384,1.237.94,2.933,1.683,5.074a139.87,139.87,0,0,0,15.467,31.491c1.237,1.881,2.264,3.391,2.995,4.417A13.7,13.7,0,0,1,431.815,3645.246Z" transform="translate(-365.986 -3444.536)" fill="#0a4b6e"/>
        <path id="Trazado_102302" data-name="Trazado 102302" d="M461.156,3600.26a6.448,6.448,0,0,1-.668-2.264,17.86,17.86,0,0,1,1.732-11.137,6.045,6.045,0,0,1,1.324-1.955,31.83,31.83,0,0,0-2.475,7.424A32.771,32.771,0,0,0,461.156,3600.26Z" transform="translate(-354.06 -3448.304)" fill="#0a4b6e"/>
        <path id="Trazado_102303" data-name="Trazado 102303" d="M430.579,3582.738c0,.2-4.306-.161-9.553.334s-9.417,1.6-9.466,1.4a10.518,10.518,0,0,1,2.685-.891,42.769,42.769,0,0,1,6.719-1.15,44.327,44.327,0,0,1,6.818-.087A10.957,10.957,0,0,1,430.579,3582.738Z" transform="translate(-365.616 -3448.934)" fill="#0a4b6e"/>
        <g id="Grupo_49669" data-name="Grupo 49669" transform="translate(45.152 180.317)" opacity="0.3">
          <path id="Trazado_102304" data-name="Trazado 102304" d="M410.92,3620.234a56.432,56.432,0,0,0,9.713,31.417c2.648,3.873,6.521,7.746,11.2,7.424A146.061,146.061,0,0,1,410.92,3620.234Z" transform="translate(-410.92 -3620.234)"/>
        </g>
      </g>
      <g id="Grupo_49670" data-name="Grupo 49670" transform="translate(365.103 3375.422)">
        <path id="Trazado_102305" data-name="Trazado 102305" d="M344.257,3389.807l5.207-1.219a7.334,7.334,0,0,1,5,.226,4.351,4.351,0,0,1,2.133,3.048,5.976,5.976,0,0,1-.669,4.574c-1,1.583-2.9,2.577-5.414,3.166l-1.909.447.344,5.869-3.731.874Zm5.688,7a4.376,4.376,0,0,0,2.464-1.309,3.047,3.047,0,0,0,.526-2.641,2.129,2.129,0,0,0-.76-1.287,2.867,2.867,0,0,0-2.428-.209l-1.627.379.329,5.416Z" transform="translate(-344.257 -3367.068)" fill="#0f2771"/>
        <path id="Trazado_102306" data-name="Trazado 102306" d="M356.667,3386.938l5.578-1.189a6.666,6.666,0,0,1,4.592.274,4.528,4.528,0,0,1,2.128,3.146,5.515,5.515,0,0,1-.239,3.262,6.772,6.772,0,0,1-2.491,2.741l3.947,6.015-4.009.855-3.185-5.54-2.2.469.244,6.167-3.748.8Zm5.463,6.922a4.077,4.077,0,0,0,2.716-1.467,3.1,3.1,0,0,0,.429-2.37,2.054,2.054,0,0,0-.782-1.314,2.775,2.775,0,0,0-2.13-.16l-1.873.4.2,5.219Z" transform="translate(-341.311 -3367.73)" fill="#0f2771"/>
        <path id="Trazado_102307" data-name="Trazado 102307" d="M369,3395.088a14.127,14.127,0,0,1,.479-7.029,7.861,7.861,0,0,1,6.391-5.271c3.851-.731,6.813.657,7.689,5.273a14.273,14.273,0,0,1-.454,7.047,7.857,7.857,0,0,1-6.46,5.261C372.84,3401.093,369.876,3399.683,369,3395.088Zm10.435-.8a12.422,12.422,0,0,0,.246-5.51c-.5-2.648-1.762-3.316-3.425-3a3.936,3.936,0,0,0-3.106,3.106,12.318,12.318,0,0,0-.246,5.51c.5,2.625,1.741,3.319,3.4,3A3.979,3.979,0,0,0,379.438,3394.286Z" transform="translate(-338.439 -3368.415)" fill="#0f2771"/>
        <path id="Trazado_102308" data-name="Trazado 102308" d="M387.564,3383.992l-5.125.828.043-2.806,14.21-2.293-.351,2.856-4.994.8-.191,14.205-3.783.61Z" transform="translate(-335.193 -3369.1)" fill="#0f2771"/>
        <path id="Trazado_102309" data-name="Trazado 102309" d="M396.323,3379.727l11.222-1.478-.412,2.841-7.157.942-.156,4.11,5.7-.75-.134,2.917-5.7.751-.167,4.358,7.511-.988-.082,2.8-11.354,1.5Z" transform="translate(-332.07 -3369.449)" fill="#0f2771"/>
        <path id="Trazado_102310" data-name="Trazado 102310" d="M406.834,3388.818a12.681,12.681,0,0,1,2.126-8.594,8.071,8.071,0,0,1,5.93-3.009,14.737,14.737,0,0,1,4.778.368l-.693,2.8a12.721,12.721,0,0,0-3.491-.246,4.31,4.31,0,0,0-3.765,2.488,10.841,10.841,0,0,0-.958,5.618,4.537,4.537,0,0,0,.974,2.68c.724.781,1.769.949,3.21.809a19,19,0,0,0,3.315-.654l.178,2.78a16.251,16.251,0,0,1-4.029.9C409.863,3395.193,407.268,3393.341,406.834,3388.818Z" transform="translate(-329.417 -3369.709)" fill="#0f2771"/>
        <path id="Trazado_102311" data-name="Trazado 102311" d="M418.609,3387.625a12.687,12.687,0,0,1,2.512-8.49,8.068,8.068,0,0,1,6.059-2.74,14.741,14.741,0,0,1,4.758.583l-.819,2.762a12.675,12.675,0,0,0-3.477-.4,4.306,4.306,0,0,0-3.873,2.315,10.841,10.841,0,0,0-1.21,5.569,4.538,4.538,0,0,0,.853,2.722c.687.812,1.724,1.027,3.17.953a19.192,19.192,0,0,0,3.341-.5l.053,2.784a16.224,16.224,0,0,1-4.067.72C421.35,3394.131,418.841,3392.162,418.609,3387.625Z" transform="translate(-326.611 -3369.893)" fill="#0f2771"/>
        <path id="Trazado_102312" data-name="Trazado 102312" d="M433.164,3376.5l3.832-.042-2.757,16.786-3.81.042Z" transform="translate(-323.801 -3369.875)" fill="#0f2771"/>
        <path id="Trazado_102313" data-name="Trazado 102313" d="M437.154,3388.191a14.131,14.131,0,0,1,1.84-6.8,7.86,7.86,0,0,1,7.3-3.926c3.921.033,6.556,1.971,6.516,6.673a14.268,14.268,0,0,1-1.818,6.824,7.861,7.861,0,0,1-7.364,3.9C439.749,3394.829,437.115,3392.869,437.154,3388.191Zm10.394,1.246a12.429,12.429,0,0,0,1.315-5.359c.023-2.695-1.084-3.6-2.777-3.61a3.942,3.942,0,0,0-3.653,2.442,12.368,12.368,0,0,0-1.315,5.359c-.022,2.673,1.062,3.6,2.754,3.611A3.98,3.98,0,0,0,447.548,3389.437Zm-3.773-14.916,5.6-3.384,1.425,2.664-5.993,2.512Z" transform="translate(-322.205 -3371.137)" fill="#0f2771"/>
        <path id="Trazado_102314" data-name="Trazado 102314" d="M454.263,3376.657l2.761.083,5.73,11.131,2.261-10.9,3.362.1-3.457,16.653-3.006-.089-5.589-10.594-2.136,10.364-3.361-.1Z" transform="translate(-318.959 -3369.827)" fill="#0f2771"/>
        <path id="Trazado_102315" data-name="Trazado 102315" d="M473.659,3377.418l3.826.222-3.9,16.556-3.8-.22Z" transform="translate(-314.46 -3369.646)" fill="#0f2771"/>
        <path id="Trazado_102316" data-name="Trazado 102316" d="M480.383,3377.82l2.753.228,5.139,11.422,2.832-10.765,3.353.276-4.331,16.454-3-.247-5.027-10.876-2.678,10.241-3.352-.276Z" transform="translate(-312.965 -3369.551)" fill="#0f2771"/>
        <path id="Trazado_102317" data-name="Trazado 102317" d="M497.867,3382.341l-5.151-.615.814-2.684,14.283,1.708-1.124,2.647-5.02-.6-4.092,13.594-3.8-.454Z" transform="translate(-309.015 -3369.261)" fill="#0f2771"/>
        <path id="Trazado_102318" data-name="Trazado 102318" d="M508.357,3380.825l11.175,1.8-1.21,2.6-7.127-1.149-1.328,3.894,5.675.915-.964,2.757-5.675-.916-1.411,4.128,7.479,1.207-.88,2.656-11.306-1.824Z" transform="translate(-306.625 -3368.837)" fill="#0f2771"/>
        <path id="Trazado_102319" data-name="Trazado 102319" d="M516.191,3397.714a6.7,6.7,0,0,1-.71-5.343c.726-3.42,3.014-7.011,5.895-8.244a9.118,9.118,0,0,1,5.556-.323,20.038,20.038,0,0,1,5.081,1.92l-1.559,2.516a16.07,16.07,0,0,0-3.875-1.482,4.746,4.746,0,0,0-3.961.639,10.033,10.033,0,0,0-3.225,5.646,4.234,4.234,0,0,0,.226,3.008,3.575,3.575,0,0,0,2.547,1.52c.349.074,1.225.238,1.761.283l1.355-3.378-2.287-.486,1.052-2.6,6.014,1.276-3.258,8.052a19.422,19.422,0,0,1-5.666-.337C518.63,3399.849,517.069,3398.948,516.191,3397.714Z" transform="translate(-303.665 -3368.196)" fill="#0f2771"/>
        <path id="Trazado_102320" data-name="Trazado 102320" d="M534.6,3386.03l5.492,1.526a6.672,6.672,0,0,1,3.94,2.367,4.527,4.527,0,0,1,.429,3.771,5.5,5.5,0,0,1-1.72,2.78,6.772,6.772,0,0,1-3.475,1.274l.714,7.155-3.947-1.1-.259-6.381-2.167-.6-2.637,5.576-3.689-1.027Zm1.636,8.658a4.065,4.065,0,0,0,3.085-.043,3.091,3.091,0,0,0,1.476-1.9,2.047,2.047,0,0,0-.084-1.525,2.78,2.78,0,0,0-1.812-1.128l-1.845-.513-2.236,4.716Z" transform="translate(-300.809 -3367.602)" fill="#0f2771"/>
        <path id="Trazado_102321" data-name="Trazado 102321" d="M552.189,3391.032l3.965,1.42-2.715,16.826-3.691-1.321.791-4.191-5.119-1.833-3.329,3.281-3.608-1.293Zm-1.138,9.983,1.193-5.775-.042-.015-4.571,4.565Z" transform="translate(-298.151 -3366.414)" fill="#0f2771"/>
        <path id="Trazado_102322" data-name="Trazado 102322" d="M561.683,3395.024l3.475,1.559-7.982,11.747,6.786,3.045L562.4,3413.7l-10.259-4.606Z" transform="translate(-294.907 -3365.467)" fill="#0f2771"/>
      </g>
    </g>
  </g>
</svg>
