<svg xmlns="http://www.w3.org/2000/svg" xmlns:xlink="http://www.w3.org/1999/xlink" width="162" height="162" viewBox="0 0 162 162">
  <defs>
    <clipPath id="clip-path">
      <path id="Trazado_112632" data-name="Trazado 112632" d="M448.6,1431.326c-39.212-46.392-8.411-54,20.977-70.877,8.691-4.99,41.454,19.915,52.255,19.915,15.006,0,30.031,23.639,43.875,22.073,24.493-2.771,18.142,33.482,18.142,43.866,0,6.948-30.345,5.366-33.1,11.27a45.987,45.987,0,0,1-78.431,8.177C466.525,1458.061,465.058,1450.8,448.6,1431.326Z" fill="none"/>
    </clipPath>
  </defs>
  <g id="Grupo_53064" data-name="Grupo 53064" transform="translate(6773 7474)">
    <rect id="Rectángulo_28726" data-name="Rectángulo 28726" width="162" height="162" transform="translate(-6773 -7474)" fill="none"/>
    <g id="Grupo_53058" data-name="Grupo 53058" transform="translate(-7199.074 -8814.788)">
      <circle id="Elipse_4026" data-name="Elipse 4026" cx="45.973" cy="45.973" r="45.973" transform="translate(463.096 1392.161)" fill="#36c"/>
      <g id="Grupo_50667" data-name="Grupo 50667">
        <g id="Grupo_50666" data-name="Grupo 50666" clip-path="url(#clip-path)">
          <g id="Grupo_50645" data-name="Grupo 50645">
            <path id="Trazado_112502" data-name="Trazado 112502" d="M508.39,1433.349s15.053-8.6,22.386-21.372c-2.528,0-4.93-2.4-4.681-3.666s4.93.761,4.93.761-3.92-5.822-2.271-7.205c1.636-1.4,4.42,6.065,4.42,6.065s.386-7.467,1.9-7.21.508,7.589.508,7.589,3.921-4.553,5.56-3.793-3.538,5.178-3.538,5.178,4.678-.122,4.806,1.021-4.677,1.387-4.677,1.387-2.151,2.4-4.428,1.653c-6.324,8.589-15.687,19.344-23.65,23.264Z" fill="#ffbea7"/>
            <path id="Trazado_112503" data-name="Trazado 112503" d="M459.408,1428.389s-8.236-10.9-10.391-31.306c1.945-.538,5.83-3.562,5.179-4.963s-4.746,1.616-4.746,1.616,2.913-7.448,1.293-8.527-2.7,6.584-2.7,6.584-.428-7.662-2.16-7.662-.539,7.336-.539,7.336-3.563-5.288-4.857-4.107,2.806,6.161,2.806,6.161-4.1-2.374-4.75-1.511,4.213,4.752,7.127,5.286c1.294,12.957,7.342,29.256,11.655,34.546C458.41,1430.009,459.408,1428.389,459.408,1428.389Z" fill="#ffbea7"/>
            <g id="Grupo_50631" data-name="Grupo 50631">
              <path id="Trazado_112504" data-name="Trazado 112504" d="M461.11,1492.951l-4.507-1.979s-1.76,21.321,2.253,42.067c1.311-.219,3.127-.562,4.644-.943C461.049,1519.448,458.976,1502.045,461.11,1492.951Z" fill="#ffbea7"/>
              <path id="Trazado_112505" data-name="Trazado 112505" d="M462.848,1543.131a2.249,2.249,0,0,0,2.982-.836c-.737-2.639-1.55-6.18-2.33-10.2-1.517.381-3.333.724-4.644.943a98.892,98.892,0,0,0,2.429,9.951A2.4,2.4,0,0,1,462.848,1543.131Z" fill="#006ab0"/>
              <path id="Trazado_112506" data-name="Trazado 112506" d="M469.219,1544.667c-1.137-2.484-2.489-3.048-3.389-2.372a2.249,2.249,0,0,1-2.982.836,2.4,2.4,0,0,0-1.563-.141c.013.029.021.068.034.1-8.2,5.163-14.273,9.323-13.989,12.253,4.642-.376,15.386-1.729,22.628-6.406C470.414,1547.419,469.831,1546.02,469.219,1544.667Z" fill="#fecb27"/>
              <path id="Trazado_112507" data-name="Trazado 112507" d="M447.33,1555.343c0,.009,0,.02,0,.037.337,2.934,13.651.906,18.839-2.365,2.352-1.476,3.417-2.822,3.789-4.078C462.716,1553.614,451.972,1554.967,447.33,1555.343Z" fill="#e8ebca"/>
            </g>
            <g id="Grupo_50632" data-name="Grupo 50632">
              <path id="Trazado_112508" data-name="Trazado 112508" d="M497.523,1539.584l-2.725-10.525-3.139,1.388c1.251,4.377,2.406,8.336,3.311,11.3A6.433,6.433,0,0,1,497.523,1539.584Z" fill="#006ab0"/>
              <path id="Trazado_112509" data-name="Trazado 112509" d="M486.151,1495.685l-4.173-.009s5.389,19.762,9.681,34.771l3.139-1.388Z" fill="#ffbea7"/>
              <path id="Trazado_112510" data-name="Trazado 112510" d="M497.8,1553.248c2.211.634,6.134.163,12.766-4.369,5.665-3.873,9.611-8.373,8.978-11.036C513.742,1540.172,502.158,1549.608,497.8,1553.248Z" fill="#b1b568"/>
              <path id="Trazado_112511" data-name="Trazado 112511" d="M499.541,1540.191a1.912,1.912,0,0,0-2.018-.607,6.433,6.433,0,0,0-2.553,2.167c-1.182,1.4-.492,8.488.858,10.281,3.366-2.992,12.652-10.817,22.621-15.647C515.084,1534.311,506.317,1538.3,499.541,1540.191Z" fill="#fecb27"/>
              <path id="Trazado_112512" data-name="Trazado 112512" d="M518.474,1536.4c-.009-.008-.022-.011-.025-.018-9.969,4.83-19.255,12.655-22.621,15.647a.931.931,0,0,0,.149.191,4.149,4.149,0,0,0,1.824,1.025c4.357-3.64,15.941-13.076,21.744-15.405A2.373,2.373,0,0,0,518.474,1536.4Z" fill="#e8ebca"/>
            </g>
            <g id="Grupo_50633" data-name="Grupo 50633" style="mix-blend-mode: multiply;isolation: isolate">
              <path id="Trazado_112513" data-name="Trazado 112513" d="M461.11,1492.951l-4.507-1.979s-.12,1.532-.232,4.16l4.173,1.28A28.145,28.145,0,0,1,461.11,1492.951Z" fill="#ffbea7"/>
            </g>
            <g id="Grupo_50634" data-name="Grupo 50634" style="mix-blend-mode: multiply;isolation: isolate">
              <path id="Trazado_112514" data-name="Trazado 112514" d="M486.151,1495.685l-4.173-.009s.347,1.267.935,3.4l4.017-.375Z" fill="#ffbea7"/>
            </g>
            <path id="Trazado_112515" data-name="Trazado 112515" d="M458.06,1469.8s-4.464,11-6.236,20.214c9.5,4.06,15.942,6.035,15.942,6.035l2.874-8.609,1.392,9.2,19.511-.495-1.288-16.443Z" fill="#009a9a"/>
            <g id="Grupo_50635" data-name="Grupo 50635" opacity="0.5" style="mix-blend-mode: multiply;isolation: isolate">
              <path id="Trazado_112516" data-name="Trazado 112516" d="M465.213,1495.213c1.64.565,2.553.84,2.553.84l2.874-8.609.163,1.045v-5.1Z" fill="#009a9a"/>
              <path id="Trazado_112517" data-name="Trazado 112517" d="M490.255,1479.71l-7.279-2.238c.417,3.759,1.207,11.313,1.77,18.859l6.8-.178Z" fill="#009a9a"/>
            </g>
            <path id="Trazado_112518" data-name="Trazado 112518" d="M493.65,1436.046a32.077,32.077,0,0,1-5.939.521c-.816,4.045-2.734,8.1-7.475,7.4-4.554-.669-4.786-5.741-4.271-9.606a41.872,41.872,0,0,1-4.85-2.165,74.658,74.658,0,0,0-6.437,10.709s-8.32,20.248-9.909,26c10.085,6.471,26.2,11.8,37.143,11.8,4.172-18.715,4.464-31.379,4.464-31.379A58.065,58.065,0,0,0,493.65,1436.046Z" fill="#f1f1eb"/>
            <g id="Grupo_50636" data-name="Grupo 50636">
              <path id="Trazado_112519" data-name="Trazado 112519" d="M507.743,1429.619a31.153,31.153,0,0,1-14.093,6.427,58.065,58.065,0,0,1,2.726,13.287L512.207,1442Z" fill="#f1f1eb"/>
              <path id="Trazado_112520" data-name="Trazado 112520" d="M464.263,1427.852l-3.093-3.192-6.7,12.059,10.208,6.185a74.658,74.658,0,0,1,6.437-10.709A51.232,51.232,0,0,1,464.263,1427.852Z" fill="#f1f1eb"/>
            </g>
            <g id="Grupo_50637" data-name="Grupo 50637">
              <path id="Trazado_112521" data-name="Trazado 112521" d="M496.35,1435.412l4.043,12.058,4.887-2.271-3.9-11.635A32.675,32.675,0,0,1,496.35,1435.412Z" fill="#0f2771"/>
              <path id="Trazado_112522" data-name="Trazado 112522" d="M512.207,1442l-4.464-12.381a21.42,21.42,0,0,1-2.352,1.731l4.007,11.942Z" fill="#0f2771"/>
              <path id="Trazado_112523" data-name="Trazado 112523" d="M461.17,1424.66l-6.7,12.059,1.732,1.048,6.428-11.6Z" fill="#0f2771"/>
              <path id="Trazado_112524" data-name="Trazado 112524" d="M464.832,1428.261l-6.121,11.03,3.033,1.837,6.027-10.866C466.8,1429.65,465.821,1428.977,464.832,1428.261Z" fill="#0f2771"/>
            </g>
            <g id="Grupo_50638" data-name="Grupo 50638">
              <path id="Trazado_112525" data-name="Trazado 112525" d="M454.769,1468.908c10.085,6.471,26.2,11.8,37.143,11.8.269-1.211.523-2.4.759-3.555-14.505-.8-31.449-8.473-36.968-11.155C455.3,1467.159,454.981,1468.157,454.769,1468.908Z" fill="#0f2771"/>
              <path id="Trazado_112526" data-name="Trazado 112526" d="M493.65,1436.046a32.077,32.077,0,0,1-5.939.521,16.586,16.586,0,0,1-1.157,3.69l8.805,2.126A62.957,62.957,0,0,0,493.65,1436.046Z" fill="#0f2771"/>
              <path id="Trazado_112527" data-name="Trazado 112527" d="M457.315,1461.54c5.568,2.819,22.951,11.1,36.1,11.839.382-2.007.708-3.922.995-5.717-17.158-1.456-31.321-9-35.155-11.2C458.582,1458.183,457.923,1459.911,457.315,1461.54Z" fill="#0f2771"/>
              <path id="Trazado_112528" data-name="Trazado 112528" d="M475.965,1434.36a41.872,41.872,0,0,1-4.85-2.165c-.9,1.206-1.761,2.482-2.539,3.722l7.209,1.737A19.29,19.29,0,0,1,475.965,1434.36Z" fill="#0f2771"/>
              <path id="Trazado_112529" data-name="Trazado 112529" d="M462.952,1447.14c-.587,1.459-1.281,3.2-2.022,5.072,4.7,2.188,20.971,9.408,34.186,10.683.278-2.079.5-3.953.668-5.6C485.628,1455.921,469.172,1449.619,462.952,1447.14Z" fill="#0f2771"/>
              <path id="Trazado_112530" data-name="Trazado 112530" d="M496.376,1449.333q-.084-1.109-.215-2.191l-12.65-3.574a5.614,5.614,0,0,1-3.275.4,4.56,4.56,0,0,1-3.492-2.312l-9.912-2.809c-1.131,2-1.9,3.538-2.1,3.942l31.491,9.48C496.35,1450.36,496.376,1449.333,496.376,1449.333Z" fill="#0f2771"/>
            </g>
            <g id="Grupo_50639" data-name="Grupo 50639">
              <path id="Trazado_112531" data-name="Trazado 112531" d="M484.83,1436.42c-.547,3.958-2.019,6.188-4.942,5.176-2.219-.762-2.455-3.829-2.167-6.631-.583-.193-1.169-.384-1.756-.6-.515,3.865-.283,8.937,4.271,9.606,4.741.7,6.659-3.354,7.475-7.4C486.776,1436.565,485.808,1436.515,484.83,1436.42Z" fill="#005d75"/>
              <path id="Trazado_112532" data-name="Trazado 112532" d="M479.888,1441.6c2.923,1.012,4.395-1.218,4.942-5.176a34.885,34.885,0,0,1-7.109-1.455C477.433,1437.767,477.669,1440.834,479.888,1441.6Z" fill="#d4a87f"/>
            </g>
            <g id="Grupo_50640" data-name="Grupo 50640" style="mix-blend-mode: multiply;isolation: isolate">
              <path id="Trazado_112533" data-name="Trazado 112533" d="M507.743,1429.619a31.153,31.153,0,0,1-14.093,6.427,32.077,32.077,0,0,1-5.939.521c-.816,4.045-2.734,8.1-7.475,7.4-4.554-.669-4.786-5.741-4.271-9.606a41.872,41.872,0,0,1-4.85-2.165,51.232,51.232,0,0,1-6.852-4.343l-3.093-3.192-.591,1.064c1.666,3.14,5.824,9.185,13.617,10.745,0,5.991,2.792,9.054,7.055,9.054s6.655-4.395,7.187-6.655l4.48-.043s1.2,24.267-5.62,41.609a41.617,41.617,0,0,0,4.614.278c4.172-18.715,4.464-31.379,4.464-31.379L512.207,1442Z" fill="silver"/>
            </g>
            <g id="Grupo_50644" data-name="Grupo 50644">
              <g id="Grupo_50641" data-name="Grupo 50641">
                <path id="Trazado_112534" data-name="Trazado 112534" d="M512.22,1405.242c-2.631-.319-9.039-6.626-9.039-6.626s.317,5.161-1.995,5.046-3.89-5.359-3.89-5.359-5.255,3.259-7.256,2.944-.317-2.944-.317-2.944-9.354,1.894-12.606,1.79-4.21-1.259-.844-3.261c-7.778,2.632-12.088,1.369-12.088,1.369L461.1,1412.53c-1.508,15.764,4.75,21.21,20.4,24.346,21.678,3.475,29.565-7.655,31.419-17.855l2.133-16.09S513.9,1405.345,512.22,1405.242Z" fill="#ffbea7"/>
                <path id="Trazado_112535" data-name="Trazado 112535" d="M520.114,1388.646c-4.99-7.767-14.029-8.929-14.029-8.929s3.359-1.156,1.157-1.856-5.564,2.082-5.564,2.082l-2.437-3.358-.462,2.439c-17.16-12.525-40,10.318-41.161,14.028s1.975,1.974,1.975,1.974c-.925.923-3.477,6.6-2.554,7.3s2.554-1.045,2.554-1.045a25.541,25.541,0,0,0,1.508,11.246l3.084-14.329s4.31,1.263,12.088-1.369c-3.366,2-2.416,3.158.844,3.261s12.606-1.79,12.606-1.79-1.679,2.628.317,2.944,7.256-2.944,7.256-2.944,1.577,5.257,3.89,5.359,1.995-5.046,1.995-5.046,6.408,6.307,9.039,6.626c1.678.1,2.835-2.311,2.835-2.311l-2.133,16.09c12.637-7.075,8.584-17.274,8.584-17.274l1.389,2.086A19.692,19.692,0,0,0,520.114,1388.646Z" fill="#b0494c"/>
              </g>
              <g id="Grupo_50642" data-name="Grupo 50642" opacity="0.5" style="mix-blend-mode: multiply;isolation: isolate">
                <path id="Trazado_112536" data-name="Trazado 112536" d="M493.526,1393.26a30.362,30.362,0,0,1-6.121,5.485c1.384-.256,2.318-.442,2.318-.442s-1.679,2.628.317,2.944a2.458,2.458,0,0,0,.437.019C490.255,1399.309,491.891,1396.4,493.526,1393.26Z" fill="#925f2d"/>
                <path id="Trazado_112537" data-name="Trazado 112537" d="M480.462,1394.375c-9.252,3.613-16.492,2.508-18.1,0a66.472,66.472,0,0,1-1.962,16.1,19.227,19.227,0,0,0,.7,2.052l3.084-14.329s4.31,1.263,12.088-1.369c-3,1.78-2.572,2.893-.137,3.182C476.119,1398.74,477.7,1396.773,480.462,1394.375Z" fill="#925f2d"/>
                <path id="Trazado_112538" data-name="Trazado 112538" d="M517.463,1400.4c-6.541,8.15-15.992-7.144-15.992-7.144l1.694,6.893a13.827,13.827,0,0,0,.016-1.537s6.408,6.307,9.039,6.626c1.678.1,2.835-2.311,2.835-2.311l-2.133,16.09c.5-.278.96-.561,1.406-.847C514.1,1413.992,515.519,1407.864,517.463,1400.4Z" fill="#925f2d"/>
                <path id="Trazado_112539" data-name="Trazado 112539" d="M495.772,1399.186c.9-.492,1.524-.883,1.524-.883s1.495,4.964,3.7,5.328c-1.765-2.118-3.072-6-3.65-10.974A18.175,18.175,0,0,1,495.772,1399.186Z" fill="#925f2d"/>
              </g>
              <path id="Trazado_112540" data-name="Trazado 112540" d="M513.573,1413.489l-.861,7.025s4.425.755,4.965-2.921S513.573,1413.489,513.573,1413.489Z" fill="#efcaa6"/>
              <path id="Trazado_112541" data-name="Trazado 112541" d="M516.036,1416.914a1.577,1.577,0,0,0-.509-.241,2.189,2.189,0,0,0-.586-.071,1.819,1.819,0,0,0-.691.147,1.942,1.942,0,0,0-.317.2,1.161,1.161,0,0,0-.248.252,1.022,1.022,0,0,0-.163.282.9.9,0,0,0-.1.268,1.282,1.282,0,0,0-.043.411,1.17,1.17,0,0,0,.008.152s.035-.045.091-.125c.026-.04.055-.087.09-.144s.086-.106.129-.174a1.8,1.8,0,0,1,.144-.187,2.145,2.145,0,0,1,.181-.175,1.559,1.559,0,0,1,.445-.285,1.7,1.7,0,0,1,.258-.108c.091-.008.175-.055.265-.069.18-.037.356-.049.506-.072C515.818,1416.937,516.036,1416.914,516.036,1416.914Z" fill="#c39368"/>
              <path id="Trazado_112542" data-name="Trazado 112542" d="M461.761,1409.392a3.2,3.2,0,0,0-4.862,1.726c-1.085,3.242,2.377,5.394,3.885,5.07A49.293,49.293,0,0,1,461.761,1409.392Z" fill="#efcaa6"/>
              <path id="Trazado_112543" data-name="Trazado 112543" d="M458.565,1411.382a1.565,1.565,0,0,1,.565-.075,2.037,2.037,0,0,1,.583.112,1.613,1.613,0,0,1,.6.361.987.987,0,0,1,.241.277,1.148,1.148,0,0,1,.161.31,1.264,1.264,0,0,1,.077.32.822.822,0,0,1,.005.283,1.11,1.11,0,0,1-.078.41.72.72,0,0,1-.056.144,1.114,1.114,0,0,1-.043-.152.817.817,0,0,1-.045-.161,1.158,1.158,0,0,0-.073-.2,1.071,1.071,0,0,0-.078-.229,1.843,1.843,0,0,0-.12-.218,1.7,1.7,0,0,0-.337-.416,1.452,1.452,0,0,0-.211-.173c-.082-.043-.15-.1-.232-.145a2.853,2.853,0,0,0-.462-.233C458.766,1411.471,458.565,1411.382,458.565,1411.382Z" fill="#c39368"/>
              <g id="Grupo_50643" data-name="Grupo 50643">
                <path id="Trazado_112544" data-name="Trazado 112544" d="M495.912,1409.4c-.065-.1-.579.165-1.151.568s-1.015.806-.91.9.586-.163,1.151-.568S495.979,1409.489,495.912,1409.4Z" fill="#fafafa"/>
                <path id="Trazado_112545" data-name="Trazado 112545" d="M472.283,1414.778a2.093,2.093,0,0,0,1.889,2.222,2,2,0,0,0,2.25-1.711c0-.021.006-.042.008-.063a2.093,2.093,0,0,0-1.889-2.222,2.008,2.008,0,0,0-2.253,1.727Z" fill="#263238"/>
                <path id="Trazado_112546" data-name="Trazado 112546" d="M471.556,1411.356c.238.287,1.895-.806,4.151-.675s3.841,1.348,4.1,1.08c.127-.115-.113-.623-.8-1.186a5.787,5.787,0,0,0-3.267-1.2,5.522,5.522,0,0,0-3.322.882C471.692,1410.746,471.433,1411.228,471.556,1411.356Z" fill="#263238"/>
                <path id="Trazado_112547" data-name="Trazado 112547" d="M493.594,1416.313a2.093,2.093,0,0,0,1.889,2.222,2,2,0,0,0,2.251-1.711c0-.021.005-.042.007-.063a2.094,2.094,0,0,0-1.889-2.222,2.007,2.007,0,0,0-2.252,1.727Z" fill="#263238"/>
                <path id="Trazado_112548" data-name="Trazado 112548" d="M493.693,1412.975c.246.289,1.9-.8,4.151-.676s3.841,1.349,4.1,1.081c.127-.115-.1-.621-.8-1.186a5.723,5.723,0,0,0-3.269-1.2,5.534,5.534,0,0,0-3.32.874C493.837,1412.367,493.574,1412.831,493.693,1412.975Z" fill="#263238"/>
                <path id="Trazado_112549" data-name="Trazado 112549" d="M491.847,1429.2c-.365-.042-.5,2.4-2.69,4.028s-4.791,1.249-4.817,1.551c-.038.154.55.5,1.65.6a6.137,6.137,0,0,0,4.02-1.164,5.347,5.347,0,0,0,2.1-3.385C492.255,1429.815,492.011,1429.192,491.847,1429.2Z" fill="#263238"/>
                <path id="Trazado_112550" data-name="Trazado 112550" d="M492.29,1406.257c.231,1.067,3.151.72,6.526,1.456s6.061,2.114,6.559,1.195c.231-.439-.2-1.45-1.251-2.526a9.423,9.423,0,0,0-4.774-2.542,8.53,8.53,0,0,0-5.2.52C492.864,1404.967,492.158,1405.743,492.29,1406.257Z" fill="#263238"/>
                <path id="Trazado_112551" data-name="Trazado 112551" d="M471.578,1406.174c.422.92,2.3.093,4.494.168s4.017.806,4.494-.093c.214-.435-.032-1.344-.8-2.219a4.832,4.832,0,0,0-3.563-1.646,5.131,5.131,0,0,0-3.654,1.589C471.7,1404.829,471.4,1405.73,471.578,1406.174Z" fill="#263238"/>
                <path id="Trazado_112552" data-name="Trazado 112552" d="M484.7,1428.354a11.185,11.185,0,0,0-2.158-.359c-.322-.081-.721-.082-1.071-.145a1.122,1.122,0,0,1-.79-.686,1.074,1.074,0,0,1-.062-.569,2.152,2.152,0,0,1,.226-.611c.2-.447.4-.9.61-1.371.827-1.879,1.554-3.587,2.067-4.827a11.976,11.976,0,0,0,.748-2.053,11.269,11.269,0,0,0-1.013,1.938c-.578,1.208-1.355,2.92-2.183,4.774-.2.471-.4.925-.6,1.374l-.148.33a1.748,1.748,0,0,0-.1.391,1.477,1.477,0,0,0,.1.766,1.451,1.451,0,0,0,1.068.877c.425.057.8.076,1.115.1A11.86,11.86,0,0,0,484.7,1428.354Z" fill="#263238"/>
                <path id="Trazado_112553" data-name="Trazado 112553" d="M500.8,1424.135a.232.232,0,0,0,.31-.037c.1-.088.146-.224.075-.3a.24.24,0,0,0-.309.029C500.772,1423.909,500.733,1424.062,500.8,1424.135Z" fill="#8c5249"/>
                <path id="Trazado_112554" data-name="Trazado 112554" d="M497.19,1424.1c.092.023.174-.209.174-.47s-.079-.467-.176-.467-.175.209-.175.47S497.092,1424.1,497.19,1424.1Z" fill="#8c5249"/>
                <path id="Trazado_112555" data-name="Trazado 112555" d="M493.855,1423.137c.084.021.165-.138.157-.3s-.092-.283-.19-.283-.167.146-.157.3S493.755,1423.145,493.855,1423.137Z" fill="#8c5249"/>
                <path id="Trazado_112556" data-name="Trazado 112556" d="M498.336,1427.6c.075.06.244-.028.376-.2s.172-.364.1-.414-.243.029-.375.2S498.254,1427.54,498.336,1427.6Z" fill="#8c5249"/>
                <path id="Trazado_112557" data-name="Trazado 112557" d="M495.423,1426.517c.094-.018.147-.167.084-.338s-.134-.277-.228-.26-.146.159-.121.32S495.329,1426.534,495.423,1426.517Z" fill="#8c5249"/>
                <path id="Trazado_112558" data-name="Trazado 112558" d="M475.613,1422.62c.1.025.224-.115.362-.276s.243-.323.2-.407-.284-.071-.47.184S475.521,1422.6,475.613,1422.62Z" fill="#8c5249"/>
                <path id="Trazado_112559" data-name="Trazado 112559" d="M473.244,1422.42c.09-.035.065-.261.019-.5s-.229-.424-.319-.389-.1.251-.018.5S473.139,1422.483,473.244,1422.42Z" fill="#8c5249"/>
                <path id="Trazado_112560" data-name="Trazado 112560" d="M470.826,1422.713c.088-.027.111-.217.049-.428s-.2-.342-.288-.316-.112.225-.049.428S470.73,1422.738,470.826,1422.713Z" fill="#8c5249"/>
                <path id="Trazado_112561" data-name="Trazado 112561" d="M474.68,1426.394c.075.059.228,0,.333-.129s.138-.291.086-.345-.218-.006-.333.129S474.607,1426.327,474.68,1426.394Z" fill="#8c5249"/>
                <path id="Trazado_112562" data-name="Trazado 112562" d="M472.359,1425.579c.084.021.162-.131.157-.271s-.1-.245-.192-.243-.171.129-.157.271S472.259,1425.587,472.359,1425.579Z" fill="#8c5249"/>
                <path id="Trazado_112563" data-name="Trazado 112563" d="M485.328,1424.48c.084.021.17-.193.172-.429s-.079-.435-.176-.435-.179.192-.173.429S485.23,1424.48,485.328,1424.48Z" fill="#8c5249"/>
                <path id="Trazado_112564" data-name="Trazado 112564" d="M479.61,1422.623a.159.159,0,0,0,.208-.083v0a.158.158,0,0,0-.105-.2l-.008,0a.174.174,0,0,0-.217.085A.166.166,0,0,0,479.61,1422.623Z" fill="#8c5249"/>
                <path id="Trazado_112565" data-name="Trazado 112565" d="M486.815,1421.032c.092.023.2-.071.253-.23s.019-.305-.072-.336-.205.071-.26.228S486.725,1421,486.815,1421.032Z" fill="#8c5249"/>
                <path id="Trazado_112566" data-name="Trazado 112566" d="M490.726,1424.287c.092.023.169-.153.165-.333s-.1-.326-.19-.317-.169.154-.165.334S490.623,1424.31,490.726,1424.287Z" fill="#8c5249"/>
                <path id="Trazado_112567" data-name="Trazado 112567" d="M487.511,1415.5c.092.023.176-.152.162-.326s-.088-.332-.188-.324-.168.154-.157.336S487.419,1415.506,487.511,1415.5Z" fill="#8c5249"/>
              </g>
            </g>
          </g>
          <g id="Grupo_50665" data-name="Grupo 50665">
            <g id="Grupo_50648" data-name="Grupo 50648">
              <g id="Grupo_50646" data-name="Grupo 50646">
                <path id="Trazado_112568" data-name="Trazado 112568" d="M513.394,1516.972c.536,1.221,2.948.955,4.676.126.012-.319.012-.647.012-1.011,0-1.661.091-5.092.227-8.947a22.756,22.756,0,0,0-4.416-.048c-.174,2.641-.288,5.17-.28,7.237-.515.084-1.066.18-1.634.281A6.636,6.636,0,0,1,513.394,1516.972Z" fill="#ecefe6"/>
                <path id="Trazado_112569" data-name="Trazado 112569" d="M507.2,1518.261c1.074.332,3.925.363,3.69-.691a8.886,8.886,0,0,0-1.315-2.436,18.149,18.149,0,0,0-2.046.64C506.706,1516.876,506.37,1518.005,507.2,1518.261Z" fill="#ecefe6" stroke="#ecefe6" stroke-miterlimit="10" stroke-width="0.944"/>
                <path id="Trazado_112570" data-name="Trazado 112570" d="M513.394,1516.972a6.636,6.636,0,0,0-1.415-2.362c-.782.144-1.6.312-2.4.524a8.886,8.886,0,0,1,1.315,2.436c.235,1.054-2.616,1.023-3.69.691-.831-.256-.495-1.385.329-2.487-2.556.975-4.6,2.572-4.541,5.392.145,1.671,7.932,1.139,12.287.448,1.857-.32,2.684-.885,2.794-4.516C516.342,1517.927,513.93,1518.193,513.394,1516.972Z" fill="#820006"/>
                <path id="Trazado_112571" data-name="Trazado 112571" d="M518.309,1507.14c.249-6.731.647-14.743.952-16.844l-3.636-.5s-1.18,9.176-1.732,17.3A22.756,22.756,0,0,1,518.309,1507.14Z" fill="#ffbea7"/>
                <path id="Trazado_112572" data-name="Trazado 112572" d="M518.975,1493.5c.1-1.46.2-2.584.286-3.2l-3.636-.5s-.152,1.19-.372,3.09C516.5,1493.048,517.741,1493.258,518.975,1493.5Z" fill="#efcaa6"/>
              </g>
              <g id="Grupo_50647" data-name="Grupo 50647">
                <path id="Trazado_112573" data-name="Trazado 112573" d="M503.22,1519.549c.018-.062.037-.114.056-.174A.985.985,0,0,0,503.22,1519.549Z" fill="none"/>
                <path id="Trazado_112574" data-name="Trazado 112574" d="M503.421,1519.034c-.05.109-.1.222-.145.341a1.74,1.74,0,0,1,.2-.359Z" fill="#820006"/>
                <path id="Trazado_112575" data-name="Trazado 112575" d="M503.22,1519.549a4.7,4.7,0,0,0-.231,1.617c.145,1.671,7.932,1.139,12.287.448,1.21-.2,1.975-.527,2.4-1.719-1.515.866-4.533,1.543-9.341,1.665C503.337,1521.691,503.005,1520.33,503.22,1519.549Z" fill="#680020" style="mix-blend-mode: multiply;isolation: isolate"/>
              </g>
            </g>
            <g id="Grupo_50651" data-name="Grupo 50651">
              <g id="Grupo_50649" data-name="Grupo 50649">
                <path id="Trazado_112576" data-name="Trazado 112576" d="M540.387,1516.595c-.461,1.258-2.883,1.153-4.661.445-.035-.316-.056-.642-.087-1.009-.106-1.652-.431-5.074-.831-8.91a22.62,22.62,0,0,1,4.4-.349c.359,2.624.642,5.139.771,7.2.522.047,1.081.106,1.656.169A6.525,6.525,0,0,0,540.387,1516.595Z" fill="#ecefe6"/>
                <path id="Trazado_112577" data-name="Trazado 112577" d="M546.655,1517.458c-1.058.407-3.9.638-3.734-.436a8.958,8.958,0,0,1,1.149-2.525,20.954,20.954,0,0,1,2.079.5C547.049,1516.047,547.457,1517.143,546.655,1517.458Z" fill="#ecefe6" stroke="#ecefe6" stroke-miterlimit="10" stroke-width="0.944"/>
                <path id="Trazado_112578" data-name="Trazado 112578" d="M540.387,1516.595a6.525,6.525,0,0,1,1.248-2.45c.787.086,1.614.2,2.435.352a8.958,8.958,0,0,0-1.149,2.525c-.166,1.074,2.676.843,3.734.436.8-.315.394-1.411-.506-2.462,2.62.806,4.771,2.253,4.9,5.073-.031,1.68-7.838,1.68-12.235,1.287-1.866-.193-2.729-.7-3.088-4.316C537.5,1517.748,539.926,1517.853,540.387,1516.595Z" fill="#820006"/>
                <path id="Trazado_112579" data-name="Trazado 112579" d="M534.808,1507.121c-.711-6.692-1.652-14.66-2.1-16.738l3.6-.749s1.8,9.067,2.907,17.138A22.62,22.62,0,0,0,534.808,1507.121Z" fill="#ffbea7"/>
                <path id="Trazado_112580" data-name="Trazado 112580" d="M533.211,1493.556c-.2-1.445-.377-2.563-.506-3.173l3.6-.749s.233,1.182.582,3.055C535.646,1492.939,534.425,1493.235,533.211,1493.556Z" fill="#efcaa6"/>
              </g>
              <g id="Grupo_50650" data-name="Grupo 50650">
                <path id="Trazado_112581" data-name="Trazado 112581" d="M550.708,1518.47c-.02-.056-.045-.108-.071-.17A1.446,1.446,0,0,1,550.708,1518.47Z" fill="none"/>
                <path id="Trazado_112582" data-name="Trazado 112582" d="M550.471,1517.973a2.877,2.877,0,0,1,.166.327,1.8,1.8,0,0,0-.22-.34Z" fill="#820006"/>
                <path id="Trazado_112583" data-name="Trazado 112583" d="M550.708,1518.47a5.055,5.055,0,0,1,.341,1.6c-.031,1.68-7.838,1.68-12.235,1.287a2.543,2.543,0,0,1-2.5-1.551c1.572.759,4.627,1.228,9.432,1.024C550.739,1520.616,550.973,1519.238,550.708,1518.47Z" fill="#680020" style="mix-blend-mode: multiply;isolation: isolate"/>
              </g>
            </g>
            <path id="Trazado_112584" data-name="Trazado 112584" d="M526.619,1457.2c4.31.7,5.6-3.513,5-8.167a29.2,29.2,0,0,1-8.472.005C522.883,1451.421,522.77,1456.584,526.619,1457.2Z" fill="#ffbea7"/>
            <g id="Grupo_50652" data-name="Grupo 50652">
              <path id="Trazado_112585" data-name="Trazado 112585" d="M531.744,1451.61a15.718,15.718,0,0,0-.128-2.572,29.2,29.2,0,0,1-8.472.005,16.779,16.779,0,0,0-.087,2.787A17.069,17.069,0,0,0,531.744,1451.61Z" fill="#efcaa6"/>
            </g>
            <g id="Grupo_50653" data-name="Grupo 50653">
              <path id="Trazado_112586" data-name="Trazado 112586" d="M534.248,1450.005s16.272,1.491,25,2.97c1.413-1.926,2.51-4.119,3.417-3.989s-.5,1.884-.553,2.957c4.16-1.967,5.49-2.154,5.634-1.649s-3.841,2.313-3.841,2.313,5.4-.085,5.679,1.006-5.177.761-5.177.761,4.515,1.032,4.557,2.029-4.968-.309-4.968-.309,3.379,2.314,2.934,3.039-4.236-1.772-4.236-1.772-2.517.63-3.507-1.32c-8.424-.719-23.924-1.014-23.924-1.014Z" fill="#ffbea7"/>
              <path id="Trazado_112587" data-name="Trazado 112587" d="M536.622,1450.233c-1.474-.144-2.374-.228-2.374-.228l1.013,5.022s1.119.028,2.9.069Q537.417,1452.653,536.622,1450.233Z" fill="#efcaa6"/>
              <path id="Trazado_112588" data-name="Trazado 112588" d="M562.126,1451.61a1.793,1.793,0,0,1,.2.505,2.426,2.426,0,0,1,.06.547,2.513,2.513,0,0,1-.08.633,2.251,2.251,0,0,1-.267.6,1.713,1.713,0,0,1-.387.419,1.181,1.181,0,0,1-.347.191.916.916,0,0,1-.14.046s.029-.046.079-.121c.023-.038.061-.085.091-.133s.068-.115.106-.177.068-.133.106-.2a1.964,1.964,0,0,0,.1-.236c.038-.071.053-.168.1-.251s.05-.177.079-.265a10.082,10.082,0,0,0,.213-1.039C562.085,1451.83,562.126,1451.61,562.126,1451.61Z" fill="#c39368"/>
            </g>
            <g id="Grupo_50654" data-name="Grupo 50654">
              <path id="Trazado_112589" data-name="Trazado 112589" d="M521.416,1449.42s-16.34,0-25.164.673c-1.232-2.045-2.124-4.329-3.039-4.283s.325,1.92.279,2.991c-3.957-2.332-5.269-2.642-5.459-2.155s3.615,2.658,3.615,2.658-5.368-.573-5.747.485,5.085,1.228,5.085,1.228-4.59.616-4.718,1.606,4.971.144,4.971.144-3.576,1.995-3.2,2.758,4.379-1.379,4.379-1.379,2.45.861,3.611-.989c8.456.052,23.92,1.17,23.92,1.17Z" fill="#ffbea7"/>
              <path id="Trazado_112590" data-name="Trazado 112590" d="M519.03,1449.427c1.487-.009,2.386-.007,2.386-.007l-1.466,4.907s-1.112-.079-2.9-.2Q518.017,1451.768,519.03,1449.427Z" fill="#efcaa6"/>
              <path id="Trazado_112591" data-name="Trazado 112591" d="M493.508,1448.476a1.824,1.824,0,0,0-.238.484,2.308,2.308,0,0,0-.11.54,2.09,2.09,0,0,0,.019.634,2.237,2.237,0,0,0,.211.622,1.661,1.661,0,0,0,.345.452,1.249,1.249,0,0,0,.328.228c.087.038.136.056.136.056s-.026-.049-.064-.132a.931.931,0,0,1-.083-.138c-.031-.059-.053-.123-.083-.189a1.259,1.259,0,0,1-.09-.209,1.978,1.978,0,0,1-.083-.239,2.072,2.072,0,0,1-.069-.26,2.614,2.614,0,0,1-.06-.276c-.068-.364-.092-.754-.118-1.051S493.508,1448.476,493.508,1448.476Z" fill="#c39368"/>
            </g>
            <path id="Trazado_112592" data-name="Trazado 112592" d="M534.315,1448.518a24.6,24.6,0,0,1-2.7.52c.608,4.654-.687,8.864-5,8.167-3.849-.621-3.736-5.784-3.475-8.162-.753-.119-1.508-.273-2.265-.471,0,0-9.353,30.42-9.981,40.513,0,0,15.384,4.517,29.807,1.191C540.705,1490.276,537.462,1455.96,534.315,1448.518Z" fill="#ecefe6" stroke="#ecefe6" stroke-miterlimit="10" stroke-width="0.944"/>
            <g id="Grupo_50655" data-name="Grupo 50655">
              <path id="Trazado_112593" data-name="Trazado 112593" d="M523.057,1451.764c-1.241,0-2.322,0-3.145,0-.129.44-.269.907-.415,1.414.887-.027,2.185-.055,3.7-.083A9.873,9.873,0,0,1,523.057,1451.764Z" fill="#36c"/>
              <path id="Trazado_112594" data-name="Trazado 112594" d="M523.575,1454.52c-1.856.053-3.46.11-4.519.145-.165.569-.339,1.163-.513,1.775,1.221-.063,3.463-.187,6.019-.3A4.6,4.6,0,0,1,523.575,1454.52Z" fill="#36c"/>
              <path id="Trazado_112595" data-name="Trazado 112595" d="M536.81,1459.189c-.1-.611-.2-1.215-.309-1.8-4.654-.214-14.707.255-18.359.441-.182.631-.37,1.288-.559,1.956C520.593,1459.527,530.52,1458.738,536.81,1459.189Z" fill="#36c"/>
              <path id="Trazado_112596" data-name="Trazado 112596" d="M535.67,1453.235c-.092-.43-.19-.843-.285-1.238-1.017-.062-2.279-.112-3.656-.144a9.983,9.983,0,0,1-.129,1.219C533.114,1453.1,534.52,1453.151,535.67,1453.235Z" fill="#36c"/>
              <path id="Trazado_112597" data-name="Trazado 112597" d="M530.437,1455.93c2.222-.06,4.295-.078,5.784-.022-.1-.549-.212-1.069-.308-1.581-1.329-.013-2.929-.005-4.629.018A5.235,5.235,0,0,1,530.437,1455.93Z" fill="#36c"/>
              <path id="Trazado_112598" data-name="Trazado 112598" d="M539.869,1482.241c-.057-.545-.117-1.1-.184-1.68-8.416,1.108-23.572-.489-27.221-.909-.14.646-.276,1.278-.4,1.891C516.509,1482.007,530.656,1483.3,539.869,1482.241Z" fill="#36c"/>
              <path id="Trazado_112599" data-name="Trazado 112599" d="M539.3,1477.17c-.06-.473-.113-.95-.172-1.432-7.37.144-21.487-.545-25.58-.752-.137.573-.277,1.135-.41,1.7C517.371,1476.958,532.947,1477.889,539.3,1477.17Z" fill="#36c"/>
              <path id="Trazado_112600" data-name="Trazado 112600" d="M540.289,1486.149c-.041-.374-.083-.77-.128-1.182-8.325,1.432-24.067-.215-28.616-.745-.118.648-.216,1.271-.306,1.859C515.817,1486.732,529.037,1488.256,540.289,1486.149Z" fill="#36c"/>
              <path id="Trazado_112601" data-name="Trazado 112601" d="M510.951,1488.415c-.023.231-.038.457-.053.67,0,0,15.384,4.517,29.807,1.191,0,0-.053-.533-.151-1.481C525.455,1490.694,515.276,1489.294,510.951,1488.415Z" fill="#36c"/>
              <path id="Trazado_112602" data-name="Trazado 112602" d="M538.16,1468.155c-.093-.7-.192-1.4-.29-2.092-6.465-.525-18.262-.544-21.883-.536-.17.647-.348,1.3-.521,1.959C519.858,1467.544,533.6,1467.766,538.16,1468.155Z" fill="#36c"/>
              <path id="Trazado_112603" data-name="Trazado 112603" d="M537.552,1463.855q-.135-.891-.272-1.769c-4.991-.53-16-.576-20.181-.576-.171.607-.34,1.217-.511,1.834C520.66,1463.243,532,1463.061,537.552,1463.855Z" fill="#36c"/>
              <path id="Trazado_112604" data-name="Trazado 112604" d="M538.589,1471.416c-6.095-.73-19.577-.769-23.958-.763-.194.756-.387,1.521-.575,2.272,4.071.136,19.277.614,24.788.531C538.761,1472.78,538.678,1472.1,538.589,1471.416Z" fill="#36c"/>
            </g>
            <g id="Grupo_50663" data-name="Grupo 50663">
              <path id="Trazado_112605" data-name="Trazado 112605" d="M510.838,1408.8s-8.092-4.434-17.538,8.624c-5.652,7.5-6.052,14.31-6.052,14.31l2.97,1.4a19.477,19.477,0,0,1,2.783-5.608c-1.353,2.052-1.274,5.842-1.274,5.842l3.789-5.465a35.431,35.431,0,0,0-1.221,6.513l3.59.674s1.225-2.814,3.7-7.17S510.838,1408.8,510.838,1408.8Z" fill="#efc36a"/>
              <g id="Grupo_50656" data-name="Grupo 50656" style="mix-blend-mode: multiply;isolation: isolate">
                <path id="Trazado_112606" data-name="Trazado 112606" d="M495.7,1434.676l2.184.41s1.225-2.814,3.7-7.17,9.251-19.118,9.251-19.118a6.393,6.393,0,0,0-1.746-.558C498.566,1417.257,496.222,1429.72,495.7,1434.676Z" fill="#efc36a"/>
              </g>
              <path id="Trazado_112607" data-name="Trazado 112607" d="M553.892,1414.041a7.92,7.92,0,0,1,8.865-.188c5.009,2.93,9.093,14.914,6.919,25.69l-3.748.759s-.392-4.316-1.345-5.542c-.347,3.862-.358,5.969-.358,5.969h-1.77l-.693-5.085-1.293,6.091-3.757-.755S562.081,1421.24,553.892,1414.041Z" fill="#efc36a"/>
              <g id="Grupo_50657" data-name="Grupo 50657" style="mix-blend-mode: multiply;isolation: isolate">
                <path id="Trazado_112608" data-name="Trazado 112608" d="M557.271,1412.681a7.632,7.632,0,0,0-3.379,1.36c8.189,7.2,2.82,26.939,2.82,26.939l2.412.482C563.631,1426.411,560.129,1417.18,557.271,1412.681Z" fill="#efc36a"/>
              </g>
              <path id="Trazado_112609" data-name="Trazado 112609" d="M551.684,1411.011l3.191-1.917.142,4.31a12.226,12.226,0,0,1,4.818,1.939,40.074,40.074,0,0,0-3.063,3.046l-2.287-4.581Z" fill="#36c"/>
              <path id="Trazado_112610" data-name="Trazado 112610" d="M508.225,1413.04l-2.891-3.049,4.124-.973,1.01-4.158,2.888,3.168-3.447,1.361Z" fill="#36c"/>
              <g id="Grupo_50659" data-name="Grupo 50659">
                <path id="Trazado_112611" data-name="Trazado 112611" d="M558.286,1427.507c.842-12.667-9.293-25.432-21.505-21.755-4.268-5.1-17.376-4.9-25.943,3.046a29.114,29.114,0,0,0-9.364,28.286c3.217,10.6,11.1,11.89,15.1,11.146,0,0-9.322-4.12-8.3-11.83s.908-8.893.908-8.893l2.85.385s.991-6.951,4.5-9.827c-2,3.029-2.541,9.41-2.541,9.41l7.984.538s1.422-7.1,3.947-8.929a20.067,20.067,0,0,0-2.257,8.832l11.765.793a27.941,27.941,0,0,0,1.35-7.441c1.627,3.192.226,7.928.226,7.928l8.705-.444a16.483,16.483,0,0,0,.567-6.883c1.4,4.363.725,6.353.725,6.353l1.02-.2a19.113,19.113,0,0,1-4.531,16.015C547.555,1445.018,557.438,1440.174,558.286,1427.507Z" fill="#f2cf81"/>
                <path id="Trazado_112612" data-name="Trazado 112612" d="M548.031,1428.019l-1.02.2s.68-1.99-.725-6.353a16.483,16.483,0,0,1-.567,6.883l-8.705.444s1.4-4.736-.226-7.928a27.941,27.941,0,0,1-1.35,7.441l-11.765-.793a20.067,20.067,0,0,1,2.257-8.832c-2.525,1.824-3.947,8.929-3.947,8.929l-7.984-.538s.544-6.381,2.541-9.41c-3.509,2.876-4.5,9.827-4.5,9.827l-2.85-.385s.116,1.187-.908,8.893,8.3,11.83,8.3,11.83c6.224,2.8,18.737,4.166,26.923-4.2A19.113,19.113,0,0,0,548.031,1428.019Z" fill="#ffbea7"/>
                <g id="Grupo_50658" data-name="Grupo 50658" style="mix-blend-mode: multiply;isolation: isolate">
                  <path id="Trazado_112613" data-name="Trazado 112613" d="M517.526,1415.391c-5.83,3.652-6.144,10.6-6.144,10.6l-4.921-.362s-.489-2.056,2.789-8.958c-2.8,2.115-5.114,8.991-4.612,13.955-2.949-2.124-2.435-7.67-2.125-9.746a28.929,28.929,0,0,0-1.039,16.2c3.217,10.6,11.1,11.89,15.1,11.146,0,0-9.322-4.12-8.3-11.83s.908-8.893.908-8.893l2.85.385s.991-6.951,4.5-9.827c-2,3.029-2.541,9.41-2.541,9.41l1.3.085C515.126,1424.329,516.15,1420.346,517.526,1415.391Z" fill="#f2cf81"/>
                  <path id="Trazado_112614" data-name="Trazado 112614" d="M520.735,1427.923l1.248.09s1.422-7.1,3.947-8.929a20.067,20.067,0,0,0-2.257,8.832l1.324.091a63.226,63.226,0,0,1,2.241-12.317C523.376,1418.708,521.477,1424.856,520.735,1427.923Z" fill="#f2cf81"/>
                  <path id="Trazado_112615" data-name="Trazado 112615" d="M535.957,1415.505c.589,4.012-.707,10.35-1.358,13.144l.839.06a27.941,27.941,0,0,0,1.35-7.441c1.627,3.192.226,7.928.226,7.928l1.672-.079C539.053,1426.419,539.42,1420.117,535.957,1415.505Z" fill="#f2cf81"/>
                  <path id="Trazado_112616" data-name="Trazado 112616" d="M556.772,1418.389c3.559,11.964-2.763,15.075-2.442,11.169s-1.036-9.049-4.834-11.691a13.422,13.422,0,0,1,1.927,8.655l-3.051,0s.245-2.165-3.089-8.56a18.853,18.853,0,0,1-.71,10.85l1.146-.062a16.483,16.483,0,0,0,.567-6.883c1.4,4.363.725,6.353.725,6.353l1.02-.2a19.113,19.113,0,0,1-4.531,16.015c4.055.984,13.938-3.86,14.786-16.527a23.631,23.631,0,0,0-1.861-10.722A9.972,9.972,0,0,0,556.772,1418.389Z" fill="#f2cf81"/>
                </g>
              </g>
              <g id="Grupo_50660" data-name="Grupo 50660" style="mix-blend-mode: multiply;isolation: isolate">
                <path id="Trazado_112617" data-name="Trazado 112617" d="M514.134,1414.076a12.219,12.219,0,0,0-1.995.919c-.318.2-.632.378-.934.585s-.609.41-.882.651-.566.455-.816.726-.521.5-.756.781-.469.553-.691.836l-.608.907c-.2.3-.354.629-.53.945l-.257.482-.2.506c-.135.334-.287.665-.4,1.009l-.295,1.052c-.049.174-.106.346-.147.521l-.1.537-.184,1.081c-.057.363-.066.73-.1,1.092l-.083,1.094-.2-.155,1.058-.138a10.455,10.455,0,0,1,1.059-.048c.356-.01.707-.01,1.058,0s.7.023,1.052.048c-.348.013-.7.038-1.052.059s-.7.044-1.043.085l-.522.053c-.173.019-.352.031-.522.066l-1.013.184-.2.035,0-.189.033-1.119c.02-.366,0-.745.046-1.111l.168-1.117.082-.555c.038-.184.091-.36.144-.544l.287-1.087c.122-.353.273-.7.408-1.045l.213-.525.272-.5c.188-.326.34-.674.555-.98l.654-.922c.235-.289.491-.568.734-.851a9.651,9.651,0,0,1,.816-.776,10.672,10.672,0,0,1,.878-.7c.287-.235.619-.411.929-.618s.655-.369.983-.53.681-.313,1.028-.429A7.321,7.321,0,0,1,514.134,1414.076Z" fill="#f2cf81"/>
                <path id="Trazado_112618" data-name="Trazado 112618" d="M550.118,1418.33a6.922,6.922,0,0,1,.76,1,8.89,8.89,0,0,1,.61,1.1c.083.19.182.381.249.579s.158.393.227.588a10.892,10.892,0,0,1,.336,1.23c.052.2.079.414.113.627s.072.411.08.628l.045.634c.015.206,0,.423,0,.633s0,.425-.026.633l-.064.637c-.016.207-.069.414-.1.618l-.116.629-.031.161h-.158l-2.012.025c-.333.008-.665-.009-1-.013s-.666-.012-1-.022c.33-.051.667-.088.99-.12s.666-.084,1-.112l1.985-.177-.19.167.095-.606c.026-.205.071-.4.076-.6l.048-.614a5.125,5.125,0,0,0,.016-.607,11.869,11.869,0,0,0-.038-1.222c-.007-.2-.045-.4-.068-.6s-.05-.405-.091-.607l-.12-.6-.145-.594c-.053-.2-.116-.392-.174-.589s-.136-.385-.2-.578-.155-.38-.235-.57-.167-.375-.25-.569A11.345,11.345,0,0,0,550.118,1418.33Z" fill="#f2cf81"/>
              </g>
              <path id="Trazado_112619" data-name="Trazado 112619" d="M508.872,1431.519s-3.5-.937-4.143,3.41a3.489,3.489,0,0,0,3.471,3.979C508.123,1436.91,509.016,1433.13,508.872,1431.519Z" fill="#ffbea7"/>
              <path id="Trazado_112620" data-name="Trazado 112620" d="M548.364,1431.054a23.859,23.859,0,0,1-.945,6.211c2.367.221,5.6-1.346,5.354-4.575S549.771,1429.346,548.364,1431.054Z" fill="#ffbea7"/>
              <g id="Grupo_50661" data-name="Grupo 50661">
                <path id="Trazado_112621" data-name="Trazado 112621" d="M505.731,1434.748a1.742,1.742,0,0,1,.525-.034,2.76,2.76,0,0,1,.521.094,2.94,2.94,0,0,1,.568.243,2.442,2.442,0,0,1,.488.389,1.711,1.711,0,0,1,.309.454,1.621,1.621,0,0,1,.14.506,1.009,1.009,0,0,1-.11-.1c-.06-.061-.15-.14-.26-.239-.046-.045-.114-.091-.174-.142a1.919,1.919,0,0,0-.2-.15c-.067-.054-.147-.094-.219-.148s-.156-.093-.231-.144c-.314-.185-.653-.35-.91-.486S505.731,1434.748,505.731,1434.748Z" fill="#c39368"/>
                <path id="Trazado_112622" data-name="Trazado 112622" d="M550.81,1433.269s-.144.134-.343.3-.469.38-.711.6a6,6,0,0,0-.632.647,3.136,3.136,0,0,0-.2.25c-.053.062-.084.1-.084.1a1.222,1.222,0,0,1,.023-.478,1.748,1.748,0,0,1,.2-.457,2.129,2.129,0,0,1,.365-.435,2.451,2.451,0,0,1,.461-.31,2.013,2.013,0,0,1,.453-.172A1.409,1.409,0,0,1,550.81,1433.269Z" fill="#c39368"/>
              </g>
              <g id="Grupo_50662" data-name="Grupo 50662">
                <path id="Trazado_112623" data-name="Trazado 112623" d="M518.536,1437.723a1.356,1.356,0,0,0,1.324,1.35,1.292,1.292,0,0,0,1.381-1.2l0-.036a1.355,1.355,0,0,0-1.319-1.351,1.3,1.3,0,0,0-1.386,1.2Z" fill="#263238"/>
                <path id="Trazado_112624" data-name="Trazado 112624" d="M516.007,1434.329c.17.177,1.188-.6,2.648-.612s2.539.717,2.7.522c.074-.078-.1-.4-.569-.729a3.734,3.734,0,0,0-2.186-.632,3.584,3.584,0,0,0-2.1.7C516.075,1433.931,515.923,1434.251,516.007,1434.329Z" fill="#263238"/>
                <path id="Trazado_112625" data-name="Trazado 112625" d="M531.857,1437.707a1.359,1.359,0,0,0,1.324,1.355,1.3,1.3,0,0,0,1.383-1.219v-.015a1.355,1.355,0,0,0-1.319-1.356,1.3,1.3,0,0,0-1.387,1.2Z" fill="#263238"/>
                <path id="Trazado_112626" data-name="Trazado 112626" d="M530.131,1434.628c.171.177,1.188-.6,2.648-.612s2.539.716,2.7.522c.079-.079-.093-.393-.569-.729a3.692,3.692,0,0,0-2.155-.636,3.57,3.57,0,0,0-2.105.7C530.2,1434.229,530.063,1434.547,530.131,1434.628Z" fill="#263238"/>
                <path id="Trazado_112627" data-name="Trazado 112627" d="M525.177,1444.944a11.254,11.254,0,0,0-2.381-.354c-.372-.03-.727-.088-.792-.306a1.566,1.566,0,0,1,.229-.934l1.054-2.41c1.462-3.431,2.514-6.252,2.324-6.3s-1.48,2.692-2.942,6.118q-.531,1.269-1.01,2.426a1.565,1.565,0,0,0-.168,1.242.94.94,0,0,0,.621.444,3.015,3.015,0,0,0,.635.068A11.215,11.215,0,0,0,525.177,1444.944Z" fill="#263238"/>
                <path id="Trazado_112628" data-name="Trazado 112628" d="M529.109,1444.541c-.233-.011-.218,1.575-1.561,2.714s-3.025.982-3.043,1.2c-.018.1.381.3,1.093.314a3.931,3.931,0,0,0,2.539-.919,3.4,3.4,0,0,0,1.21-2.262C529.4,1444.934,529.217,1444.527,529.109,1444.541Z" fill="#263238"/>
                <path id="Trazado_112629" data-name="Trazado 112629" d="M529.731,1431.673c.2.5,1.621.1,3.357.183s3.175.549,3.351.052c.074-.235-.219-.7-.83-1.147a4.754,4.754,0,0,0-2.575-.869,4.284,4.284,0,0,0-2.538.686C529.913,1430.981,529.652,1431.431,529.731,1431.673Z" fill="#263238"/>
                <path id="Trazado_112630" data-name="Trazado 112630" d="M516.074,1430.771c.254.534,1.61.245,3.19.468s2.821.78,3.2.325c.176-.223.045-.737-.458-1.285a4.092,4.092,0,0,0-2.461-1.2,4.133,4.133,0,0,0-2.691.565C516.226,1430.047,515.965,1430.5,516.074,1430.771Z" fill="#263238"/>
              </g>
            </g>
            <g id="Grupo_50664" data-name="Grupo 50664" opacity="0.7" style="mix-blend-mode: multiply;isolation: isolate">
              <path id="Trazado_112631" data-name="Trazado 112631" d="M525.817,1482.051c-12.159-.555-9.974-15.249-8.276-22.117-2.752,9.73-6.271,23.092-6.643,29.151,0,0,15.384,4.517,29.807,1.191,0,0-2.019-21.29-4.4-33.97C536.9,1459.621,540.569,1482.724,525.817,1482.051Z" fill="#c4c6be"/>
            </g>
          </g>
        </g>
      </g>
    </g>
  </g>
</svg>
