<svg xmlns="http://www.w3.org/2000/svg" xmlns:xlink="http://www.w3.org/1999/xlink" width="162" height="162" viewBox="0 0 162 162">
  <defs>
    <clipPath id="clip-path">
      <path id="Trazado_112450" data-name="Trazado 112450" d="M449.659,996.024c-38.86-46.551,21.294-20.783,31.893-29.205a45.776,45.776,0,0,1,28.578-9.96c15.006,0,42.791,11.842,56.635,10.276,24.493-2.771,18.142,33.482,18.142,43.866,0,6.947-30.345,5.365-33.1,11.27a45.986,45.986,0,0,1-78.43,8.176C467.587,1022.758,466,1015.6,449.659,996.024Z" fill="none"/>
    </clipPath>
  </defs>
  <g id="Grupo_53061" data-name="Grupo 53061" transform="translate(6765 8179)">
    <rect id="Rectángulo_28725" data-name="Rectángulo 28725" width="162" height="162" transform="translate(-6765 -8179)" fill="none"/>
    <g id="Grupo_53055" data-name="Grupo 53055" transform="translate(-7194.735 -9100.859)">
      <circle id="Elipse_4024" data-name="Elipse 4024" cx="45.973" cy="45.973" r="45.973" transform="translate(464.157 956.859)" fill="#36c"/>
      <g id="Grupo_50620" data-name="Grupo 50620">
        <g id="Grupo_50619" data-name="Grupo 50619" clip-path="url(#clip-path)">
          <g id="Grupo_50600" data-name="Grupo 50600">
            <g id="Grupo_50583" data-name="Grupo 50583">
              <g id="Grupo_50581" data-name="Grupo 50581">
                <path id="Trazado_112323" data-name="Trazado 112323" d="M514.455,1081.669c.537,1.222,2.948.956,4.676.127.012-.32.012-.648.012-1.011,0-1.661.091-5.092.228-8.947a22.679,22.679,0,0,0-4.416-.048c-.175,2.641-.288,5.169-.281,7.237-.515.084-1.066.18-1.634.281A6.626,6.626,0,0,1,514.455,1081.669Z" fill="#ecefe6"/>
                <path id="Trazado_112324" data-name="Trazado 112324" d="M508.263,1082.959c1.073.332,3.924.363,3.689-.691a8.9,8.9,0,0,0-1.314-2.437,18.3,18.3,0,0,0-2.047.641C507.767,1081.574,507.432,1082.7,508.263,1082.959Z" fill="#ecefe6" stroke="#ecefe6" stroke-miterlimit="10" stroke-width="0.944"/>
                <path id="Trazado_112325" data-name="Trazado 112325" d="M514.455,1081.669a6.626,6.626,0,0,0-1.415-2.361c-.781.144-1.6.312-2.4.523a8.9,8.9,0,0,1,1.314,2.437c.235,1.054-2.616,1.023-3.689.691-.831-.257-.5-1.385.328-2.487-2.556.975-4.6,2.572-4.541,5.392.145,1.671,7.932,1.138,12.288.448,1.856-.321,2.684-.885,2.793-4.516C517.4,1082.625,514.992,1082.891,514.455,1081.669Z" fill="#820006"/>
                <path id="Trazado_112326" data-name="Trazado 112326" d="M519.371,1071.838c.248-6.731.647-14.744.951-16.844l-3.636-.5s-1.18,9.175-1.731,17.3A22.679,22.679,0,0,1,519.371,1071.838Z" fill="#ffbea7"/>
                <path id="Trazado_112327" data-name="Trazado 112327" d="M520.036,1058.2c.1-1.46.2-2.584.286-3.2l-3.636-.5s-.152,1.19-.371,3.09C517.563,1057.746,518.8,1057.956,520.036,1058.2Z" fill="#efcaa6"/>
              </g>
              <g id="Grupo_50582" data-name="Grupo 50582">
                <path id="Trazado_112328" data-name="Trazado 112328" d="M504.281,1084.247c.019-.062.038-.114.057-.174A.959.959,0,0,0,504.281,1084.247Z" fill="none"/>
                <path id="Trazado_112329" data-name="Trazado 112329" d="M504.482,1083.731c-.049.109-.1.222-.144.342a1.737,1.737,0,0,1,.2-.36Z" fill="#820006"/>
                <path id="Trazado_112330" data-name="Trazado 112330" d="M504.281,1084.247a4.723,4.723,0,0,0-.231,1.617c.145,1.671,7.932,1.138,12.288.448,1.209-.2,1.974-.527,2.4-1.719-1.515.866-4.533,1.543-9.341,1.664C504.4,1086.388,504.066,1085.027,504.281,1084.247Z" fill="#680020" style="mix-blend-mode: multiply;isolation: isolate"/>
              </g>
            </g>
            <g id="Grupo_50586" data-name="Grupo 50586">
              <g id="Grupo_50584" data-name="Grupo 50584">
                <path id="Trazado_112331" data-name="Trazado 112331" d="M541.448,1081.293c-.461,1.257-2.883,1.153-4.661.444-.034-.315-.056-.641-.087-1.009-.105-1.651-.431-5.073-.831-8.909a22.469,22.469,0,0,1,4.4-.349c.36,2.624.643,5.138.771,7.2.522.047,1.082.105,1.656.168A6.531,6.531,0,0,0,541.448,1081.293Z" fill="#ecefe6"/>
                <path id="Trazado_112332" data-name="Trazado 112332" d="M547.717,1082.155c-1.058.408-3.9.638-3.734-.435a8.923,8.923,0,0,1,1.149-2.526,21.219,21.219,0,0,1,2.078.5C548.11,1080.745,548.518,1081.841,547.717,1082.155Z" fill="#ecefe6" stroke="#ecefe6" stroke-miterlimit="10" stroke-width="0.944"/>
                <path id="Trazado_112333" data-name="Trazado 112333" d="M541.448,1081.293a6.531,6.531,0,0,1,1.248-2.451c.787.086,1.614.2,2.436.352a8.923,8.923,0,0,0-1.149,2.526c-.167,1.073,2.676.843,3.734.435.8-.314.393-1.41-.507-2.461,2.62.806,4.772,2.253,4.9,5.072-.03,1.681-7.837,1.681-12.235,1.288-1.866-.194-2.729-.7-3.088-4.317C538.565,1082.446,540.987,1082.55,541.448,1081.293Z" fill="#820006"/>
                <path id="Trazado_112334" data-name="Trazado 112334" d="M535.869,1071.819c-.711-6.692-1.652-14.661-2.1-16.738l3.6-.75s1.8,9.068,2.906,17.139A22.469,22.469,0,0,0,535.869,1071.819Z" fill="#ffbea7"/>
                <path id="Trazado_112335" data-name="Trazado 112335" d="M534.273,1058.253c-.2-1.445-.378-2.563-.506-3.172l3.6-.75s.233,1.182.581,3.056C536.708,1057.637,535.486,1057.933,534.273,1058.253Z" fill="#efcaa6"/>
              </g>
              <g id="Grupo_50585" data-name="Grupo 50585">
                <path id="Trazado_112336" data-name="Trazado 112336" d="M551.769,1083.168c-.019-.056-.045-.108-.071-.17A1.236,1.236,0,0,1,551.769,1083.168Z" fill="none"/>
                <path id="Trazado_112337" data-name="Trazado 112337" d="M551.532,1082.671a2.867,2.867,0,0,1,.166.327,1.783,1.783,0,0,0-.22-.341Z" fill="#820006"/>
                <path id="Trazado_112338" data-name="Trazado 112338" d="M551.769,1083.168a5.019,5.019,0,0,1,.341,1.6c-.03,1.681-7.837,1.681-12.235,1.288a2.544,2.544,0,0,1-2.5-1.552c1.573.76,4.628,1.228,9.432,1.025C551.8,1085.313,552.034,1083.936,551.769,1083.168Z" fill="#680020" style="mix-blend-mode: multiply;isolation: isolate"/>
              </g>
            </g>
            <path id="Trazado_112339" data-name="Trazado 112339" d="M527.68,1021.9c4.31.7,5.606-3.513,5-8.166a29.24,29.24,0,0,1-8.472.005C523.944,1016.119,523.832,1021.282,527.68,1021.9Z" fill="#ffbea7"/>
            <g id="Grupo_50587" data-name="Grupo 50587">
              <path id="Trazado_112340" data-name="Trazado 112340" d="M532.806,1016.307a15.714,15.714,0,0,0-.129-2.571,29.24,29.24,0,0,1-8.472.005,16.778,16.778,0,0,0-.086,2.786A17.048,17.048,0,0,0,532.806,1016.307Z" fill="#efcaa6"/>
            </g>
            <g id="Grupo_50588" data-name="Grupo 50588">
              <path id="Trazado_112341" data-name="Trazado 112341" d="M535.31,1014.7s16.271,1.491,25,2.97c1.414-1.926,2.51-4.119,3.417-3.989s-.5,1.884-.553,2.957c4.16-1.967,5.49-2.155,5.634-1.65s-3.841,2.314-3.841,2.314,5.4-.085,5.679,1.006-5.177.76-5.177.76,4.515,1.032,4.557,2.03-4.968-.309-4.968-.309,3.38,2.313,2.934,3.038-4.236-1.771-4.236-1.771-2.517.629-3.507-1.321c-8.423-.718-23.923-1.013-23.923-1.013Z" fill="#ffbea7"/>
              <path id="Trazado_112342" data-name="Trazado 112342" d="M537.683,1014.93c-1.474-.143-2.373-.227-2.373-.227l1.013,5.022,2.9.068Q538.479,1017.351,537.683,1014.93Z" fill="#efcaa6"/>
              <path id="Trazado_112343" data-name="Trazado 112343" d="M563.187,1016.307a1.813,1.813,0,0,1,.2.505,2.49,2.49,0,0,1,.061.547,2.522,2.522,0,0,1-.081.634,2.214,2.214,0,0,1-.267.6,1.7,1.7,0,0,1-.386.42,1.167,1.167,0,0,1-.348.19.8.8,0,0,1-.14.046l.08-.12c.022-.038.06-.085.09-.133s.068-.115.107-.177.068-.133.1-.2a2.224,2.224,0,0,0,.106-.236c.037-.071.053-.168.094-.252s.05-.177.08-.265a10.324,10.324,0,0,0,.212-1.038C563.147,1016.527,563.187,1016.307,563.187,1016.307Z" fill="#c39368"/>
            </g>
            <g id="Grupo_50589" data-name="Grupo 50589">
              <path id="Trazado_112344" data-name="Trazado 112344" d="M522.478,1014.117s-16.34,0-25.164.674c-1.233-2.045-2.125-4.329-3.039-4.283s.324,1.919.279,2.991c-3.958-2.332-5.27-2.642-5.46-2.155s3.615,2.658,3.615,2.658-5.368-.573-5.747.484,5.085,1.228,5.085,1.228-4.589.616-4.717,1.607,4.97.144,4.97.144-3.576,1.995-3.2,2.758,4.378-1.379,4.378-1.379,2.451.861,3.611-.989c8.457.051,23.92,1.17,23.92,1.17Z" fill="#ffbea7"/>
              <path id="Trazado_112345" data-name="Trazado 112345" d="M520.091,1014.125c1.488-.01,2.387-.008,2.387-.008l-1.467,4.908s-1.111-.079-2.9-.2Q519.078,1016.465,520.091,1014.125Z" fill="#efcaa6"/>
              <path id="Trazado_112346" data-name="Trazado 112346" d="M494.569,1013.173a1.882,1.882,0,0,0-.238.484,2.32,2.32,0,0,0-.109.541,2.089,2.089,0,0,0,.018.634,2.189,2.189,0,0,0,.212.621,1.65,1.65,0,0,0,.344.453,1.239,1.239,0,0,0,.328.227c.087.039.137.057.137.057s-.027-.049-.064-.132a.9.9,0,0,1-.083-.138c-.032-.059-.054-.123-.084-.189a1.368,1.368,0,0,1-.09-.21,1.907,1.907,0,0,1-.083-.238,2.117,2.117,0,0,1-.068-.26,2.235,2.235,0,0,1-.06-.276c-.069-.364-.092-.754-.119-1.051S494.569,1013.173,494.569,1013.173Z" fill="#c39368"/>
            </g>
            <path id="Trazado_112347" data-name="Trazado 112347" d="M535.377,1013.215a24.451,24.451,0,0,1-2.7.521c.609,4.653-.687,8.863-5,8.166-3.848-.62-3.736-5.783-3.475-8.161-.753-.119-1.508-.273-2.264-.471,0,0-9.354,30.42-9.982,40.512,0,0,15.384,4.517,29.807,1.192C541.766,1054.974,538.523,1020.658,535.377,1013.215Z" fill="#ecefe6" stroke="#ecefe6" stroke-miterlimit="10" stroke-width="0.944"/>
            <g id="Grupo_50590" data-name="Grupo 50590">
              <path id="Trazado_112348" data-name="Trazado 112348" d="M524.119,1016.461c-1.242,0-2.322,0-3.146,0-.128.44-.269.908-.415,1.415.888-.027,2.185-.056,3.7-.083A9.887,9.887,0,0,1,524.119,1016.461Z" fill="#36c"/>
              <path id="Trazado_112349" data-name="Trazado 112349" d="M524.636,1019.218c-1.855.052-3.46.11-4.518.145-.165.569-.34,1.163-.514,1.775,1.221-.063,3.464-.187,6.019-.3A4.612,4.612,0,0,1,524.636,1019.218Z" fill="#36c"/>
              <path id="Trazado_112350" data-name="Trazado 112350" d="M537.872,1023.887c-.1-.611-.2-1.215-.31-1.8-4.654-.214-14.707.255-18.359.441-.181.631-.369,1.288-.559,1.956C521.654,1024.224,531.581,1023.435,537.872,1023.887Z" fill="#36c"/>
              <path id="Trazado_112351" data-name="Trazado 112351" d="M536.731,1017.932c-.092-.429-.19-.842-.284-1.237-1.017-.062-2.28-.112-3.656-.145a10.231,10.231,0,0,1-.129,1.22C534.175,1017.8,535.581,1017.849,536.731,1017.932Z" fill="#36c"/>
              <path id="Trazado_112352" data-name="Trazado 112352" d="M531.5,1020.627c2.223-.059,4.3-.077,5.784-.022-.1-.549-.212-1.068-.308-1.58-1.328-.013-2.928-.005-4.629.018A5.2,5.2,0,0,1,531.5,1020.627Z" fill="#36c"/>
              <path id="Trazado_112353" data-name="Trazado 112353" d="M540.93,1046.938c-.057-.545-.117-1.1-.184-1.679-8.416,1.108-23.572-.49-27.221-.909-.14.646-.276,1.278-.4,1.89C517.57,1046.7,531.717,1048,540.93,1046.938Z" fill="#36c"/>
              <path id="Trazado_112354" data-name="Trazado 112354" d="M540.36,1041.868c-.061-.474-.113-.95-.173-1.432-7.37.143-21.486-.545-25.58-.753-.136.574-.277,1.136-.409,1.7C518.433,1041.655,534.009,1042.587,540.36,1041.868Z" fill="#36c"/>
              <path id="Trazado_112355" data-name="Trazado 112355" d="M541.351,1050.846c-.041-.374-.083-.77-.129-1.181-8.325,1.432-24.067-.215-28.615-.745-.118.648-.216,1.271-.307,1.858C516.878,1051.43,530.1,1052.954,541.351,1050.846Z" fill="#36c"/>
              <path id="Trazado_112356" data-name="Trazado 112356" d="M512.013,1053.113c-.024.23-.038.457-.054.669,0,0,15.384,4.517,29.807,1.192,0,0-.052-.534-.151-1.481C526.516,1055.392,516.338,1053.992,512.013,1053.113Z" fill="#36c"/>
              <path id="Trazado_112357" data-name="Trazado 112357" d="M539.221,1032.853c-.093-.7-.191-1.4-.29-2.093-6.465-.524-18.261-.543-21.883-.535-.17.646-.347,1.3-.521,1.958C520.92,1032.242,534.659,1032.464,539.221,1032.853Z" fill="#36c"/>
              <path id="Trazado_112358" data-name="Trazado 112358" d="M538.614,1028.553q-.137-.891-.273-1.769c-4.991-.53-16-.576-20.181-.576q-.255.909-.51,1.833C521.721,1027.941,533.06,1027.759,538.614,1028.553Z" fill="#36c"/>
              <path id="Trazado_112359" data-name="Trazado 112359" d="M539.65,1036.114c-6.1-.731-19.576-.769-23.958-.763-.194.755-.386,1.521-.574,2.271,4.071.137,19.276.614,24.788.532C539.823,1037.478,539.739,1036.8,539.65,1036.114Z" fill="#36c"/>
            </g>
            <g id="Grupo_50598" data-name="Grupo 50598">
              <path id="Trazado_112360" data-name="Trazado 112360" d="M511.9,973.5s-8.091-4.434-17.538,8.624c-5.652,7.5-6.052,14.31-6.052,14.31l2.97,1.4a19.493,19.493,0,0,1,2.783-5.607c-1.353,2.051-1.273,5.842-1.273,5.842l3.789-5.465a35.407,35.407,0,0,0-1.222,6.513l3.591.674s1.224-2.815,3.7-7.17S511.9,973.5,511.9,973.5Z" fill="#efc36a"/>
              <g id="Grupo_50591" data-name="Grupo 50591" style="mix-blend-mode: multiply;isolation: isolate">
                <path id="Trazado_112361" data-name="Trazado 112361" d="M496.762,999.374l2.185.41s1.224-2.815,3.7-7.17S511.9,973.5,511.9,973.5a6.411,6.411,0,0,0-1.746-.559C499.628,981.955,497.284,994.418,496.762,999.374Z" fill="#efc36a"/>
              </g>
              <path id="Trazado_112362" data-name="Trazado 112362" d="M554.953,978.739a7.923,7.923,0,0,1,8.866-.189c5.009,2.931,9.092,14.915,6.918,25.691l-3.747.759s-.393-4.316-1.346-5.542c-.347,3.862-.358,5.969-.358,5.969h-1.77l-.692-5.085-1.293,6.091-3.757-.756S563.142,985.937,554.953,978.739Z" fill="#efc36a"/>
              <g id="Grupo_50592" data-name="Grupo 50592" style="mix-blend-mode: multiply;isolation: isolate">
                <path id="Trazado_112363" data-name="Trazado 112363" d="M558.332,977.379a7.64,7.64,0,0,0-3.379,1.36c8.189,7.2,2.821,26.938,2.821,26.938l2.412.482C564.693,991.109,561.191,981.878,558.332,977.379Z" fill="#efc36a"/>
              </g>
              <path id="Trazado_112364" data-name="Trazado 112364" d="M552.746,975.709l3.19-1.918.143,4.311a12.232,12.232,0,0,1,4.817,1.938,39.944,39.944,0,0,0-3.063,3.047l-2.287-4.582Z" fill="#36c"/>
              <path id="Trazado_112365" data-name="Trazado 112365" d="M509.286,977.737l-2.891-3.049,4.124-.973,1.01-4.158,2.888,3.169-3.447,1.361Z" fill="#36c"/>
              <g id="Grupo_50594" data-name="Grupo 50594">
                <path id="Trazado_112366" data-name="Trazado 112366" d="M559.347,992.205c.842-12.668-9.293-25.432-21.505-21.755-4.268-5.1-17.376-4.9-25.943,3.046a29.117,29.117,0,0,0-9.364,28.286c3.217,10.6,11.1,11.89,15.1,11.146,0,0-9.322-4.121-8.294-11.83s.908-8.893.908-8.893l2.85.385s.99-6.951,4.5-9.828c-2,3.03-2.54,9.411-2.54,9.411l7.984.538s1.421-7.1,3.947-8.929a20.049,20.049,0,0,0-2.257,8.832l11.765.793a27.989,27.989,0,0,0,1.35-7.442c1.626,3.193.226,7.929.226,7.929l8.7-.444a16.484,16.484,0,0,0,.567-6.883c1.406,4.363.725,6.353.725,6.353l1.021-.2a19.114,19.114,0,0,1-4.532,16.016C548.616,1009.716,558.5,1004.872,559.347,992.205Z" fill="#f2cf81"/>
                <path id="Trazado_112367" data-name="Trazado 112367" d="M549.093,992.716l-1.021.2s.681-1.99-.725-6.353a16.484,16.484,0,0,1-.567,6.883l-8.7.444s1.4-4.736-.226-7.929a27.989,27.989,0,0,1-1.35,7.442l-11.765-.793a20.049,20.049,0,0,1,2.257-8.832c-2.526,1.824-3.947,8.929-3.947,8.929l-7.984-.538s.544-6.381,2.54-9.411c-3.509,2.877-4.5,9.828-4.5,9.828l-2.85-.385s.116,1.187-.908,8.893,8.294,11.83,8.294,11.83c6.224,2.8,18.738,4.166,26.923-4.2A19.114,19.114,0,0,0,549.093,992.716Z" fill="#ffbea7"/>
                <g id="Grupo_50593" data-name="Grupo 50593" style="mix-blend-mode: multiply;isolation: isolate">
                  <path id="Trazado_112368" data-name="Trazado 112368" d="M518.587,980.088c-5.83,3.653-6.144,10.6-6.144,10.6l-4.92-.363s-.49-2.055,2.788-8.957c-2.8,2.114-5.114,8.991-4.611,13.954-2.95-2.124-2.435-7.669-2.125-9.745a28.928,28.928,0,0,0-1.04,16.2c3.217,10.6,11.1,11.89,15.1,11.146,0,0-9.322-4.121-8.294-11.83s.908-8.893.908-8.893l2.85.385s.99-6.951,4.5-9.828c-2,3.03-2.54,9.411-2.54,9.411l1.3.084C516.187,989.027,517.212,985.043,518.587,980.088Z" fill="#f2cf81"/>
                  <path id="Trazado_112369" data-name="Trazado 112369" d="M521.8,992.621l1.248.09s1.421-7.1,3.947-8.929a20.049,20.049,0,0,0-2.257,8.832l1.323.091a63.291,63.291,0,0,1,2.241-12.317C524.437,983.406,522.539,989.554,521.8,992.621Z" fill="#f2cf81"/>
                  <path id="Trazado_112370" data-name="Trazado 112370" d="M537.018,980.2c.589,4.012-.706,10.35-1.357,13.144l.839.06a27.989,27.989,0,0,0,1.35-7.442c1.626,3.193.226,7.929.226,7.929l1.671-.079C540.114,991.116,540.481,984.815,537.018,980.2Z" fill="#f2cf81"/>
                  <path id="Trazado_112371" data-name="Trazado 112371" d="M557.833,983.087c3.559,11.964-2.763,15.075-2.441,11.169s-1.036-9.049-4.835-11.692a13.417,13.417,0,0,1,1.927,8.656l-3.05,0s.245-2.166-3.09-8.56a18.844,18.844,0,0,1-.71,10.85l1.146-.062a16.484,16.484,0,0,0,.567-6.883c1.406,4.363.725,6.353.725,6.353l1.021-.2a19.114,19.114,0,0,1-4.532,16.016c4.055.984,13.938-3.86,14.786-16.527a23.619,23.619,0,0,0-1.861-10.722A10.07,10.07,0,0,0,557.833,983.087Z" fill="#f2cf81"/>
                </g>
              </g>
              <g id="Grupo_50595" data-name="Grupo 50595" style="mix-blend-mode: multiply;isolation: isolate">
                <path id="Trazado_112372" data-name="Trazado 112372" d="M515.2,978.773a12.4,12.4,0,0,0-2,.919c-.317.2-.632.379-.933.586s-.61.41-.882.651-.567.454-.816.726-.522.5-.757.781-.468.553-.69.836l-.609.907c-.2.3-.353.629-.53.945l-.257.482-.2.506c-.136.333-.288.664-.4,1.009l-.294,1.052c-.049.174-.107.346-.148.521l-.1.536-.184,1.082c-.057.362-.065.73-.1,1.092l-.084,1.093-.2-.155,1.059-.137a10.4,10.4,0,0,1,1.058-.048c.356-.011.708-.011,1.058,0s.7.023,1.053.048c-.349.013-.7.038-1.053.059s-.7.044-1.043.085l-.521.053c-.174.019-.352.03-.522.066l-1.013.183-.2.036,0-.19.034-1.119c.019-.365,0-.745.046-1.11l.167-1.117.083-.556c.037-.183.09-.359.144-.543l.286-1.087c.122-.353.273-.7.408-1.046l.213-.525.272-.495c.189-.326.341-.674.555-.98l.655-.922c.234-.289.491-.568.733-.852a9.957,9.957,0,0,1,.816-.775,11.031,11.031,0,0,1,.878-.7c.287-.235.62-.411.93-.618s.654-.369.983-.531.68-.312,1.028-.428A7.377,7.377,0,0,1,515.2,978.773Z" fill="#f2cf81"/>
                <path id="Trazado_112373" data-name="Trazado 112373" d="M551.18,983.028a6.922,6.922,0,0,1,.759,1,8.752,8.752,0,0,1,.61,1.1c.083.191.182.382.249.58s.159.393.227.588a10.892,10.892,0,0,1,.336,1.23c.053.2.079.414.113.626s.072.412.08.629l.046.634c.015.206,0,.423,0,.633s0,.425-.027.633l-.064.637c-.016.207-.069.413-.1.618l-.116.628-.03.162H553.1l-2.012.025c-.333.007-.665-.009-1-.014s-.665-.011-1-.022c.33-.05.666-.088.99-.119s.665-.084.995-.112l1.985-.177-.19.166.1-.6a5.646,5.646,0,0,0,.076-.6l.049-.614a5.352,5.352,0,0,0,.016-.608c.014-.407-.012-.813-.038-1.221-.008-.2-.046-.4-.069-.6s-.049-.4-.091-.606l-.12-.6-.144-.594c-.054-.2-.117-.392-.174-.589s-.136-.385-.2-.578-.155-.381-.235-.57-.166-.375-.25-.569A11.319,11.319,0,0,0,551.18,983.028Z" fill="#f2cf81"/>
              </g>
              <path id="Trazado_112374" data-name="Trazado 112374" d="M509.934,996.217s-3.5-.938-4.143,3.41a3.488,3.488,0,0,0,3.47,3.979C509.184,1001.608,510.077,997.827,509.934,996.217Z" fill="#ffbea7"/>
              <path id="Trazado_112375" data-name="Trazado 112375" d="M549.426,995.752a23.91,23.91,0,0,1-.945,6.211c2.367.221,5.595-1.346,5.353-4.576C553.592,994.173,550.832,994.044,549.426,995.752Z" fill="#ffbea7"/>
              <g id="Grupo_50596" data-name="Grupo 50596">
                <path id="Trazado_112376" data-name="Trazado 112376" d="M506.792,999.445a1.767,1.767,0,0,1,.525-.033,2.693,2.693,0,0,1,.522.094,2.873,2.873,0,0,1,.567.243,2.407,2.407,0,0,1,.488.389,1.656,1.656,0,0,1,.45.96,1,1,0,0,1-.11-.1c-.061-.062-.151-.14-.261-.239-.045-.045-.113-.091-.174-.142a2.03,2.03,0,0,0-.2-.15c-.068-.055-.148-.094-.22-.148s-.155-.093-.231-.144c-.313-.185-.652-.35-.91-.487S506.792,999.445,506.792,999.445Z" fill="#c39368"/>
                <path id="Trazado_112377" data-name="Trazado 112377" d="M551.871,997.967s-.143.134-.343.3-.469.38-.711.6a6.01,6.01,0,0,0-.632.647c-.083.1-.154.184-.2.25s-.084.1-.084.1a1.223,1.223,0,0,1,.023-.478,1.711,1.711,0,0,1,.2-.457,2.1,2.1,0,0,1,.364-.435,2.406,2.406,0,0,1,.461-.31,1.945,1.945,0,0,1,.454-.172A1.4,1.4,0,0,1,551.871,997.967Z" fill="#c39368"/>
              </g>
              <g id="Grupo_50597" data-name="Grupo 50597">
                <path id="Trazado_112378" data-name="Trazado 112378" d="M519.6,1002.421a1.355,1.355,0,0,0,1.324,1.35,1.294,1.294,0,0,0,1.381-1.2l0-.036a1.356,1.356,0,0,0-1.319-1.351,1.3,1.3,0,0,0-1.387,1.2Z" fill="#263238"/>
                <path id="Trazado_112379" data-name="Trazado 112379" d="M517.068,999.027c.171.177,1.188-.6,2.648-.612s2.539.716,2.7.522c.074-.078-.1-.4-.57-.729a3.732,3.732,0,0,0-2.186-.632,3.582,3.582,0,0,0-2.105.7C517.137,998.629,516.984,998.948,517.068,999.027Z" fill="#263238"/>
                <path id="Trazado_112380" data-name="Trazado 112380" d="M532.918,1002.405a1.36,1.36,0,0,0,1.325,1.355,1.3,1.3,0,0,0,1.382-1.219v-.015a1.356,1.356,0,0,0-1.32-1.356,1.3,1.3,0,0,0-1.386,1.2Z" fill="#263238"/>
                <path id="Trazado_112381" data-name="Trazado 112381" d="M531.192,999.325c.171.178,1.188-.6,2.648-.612s2.539.717,2.7.523c.079-.079-.094-.393-.57-.73a3.705,3.705,0,0,0-2.155-.636,3.574,3.574,0,0,0-2.1.7C531.261,998.927,531.124,999.245,531.192,999.325Z" fill="#263238"/>
                <path id="Trazado_112382" data-name="Trazado 112382" d="M526.238,1009.642a11.138,11.138,0,0,0-2.381-.354c-.372-.03-.726-.088-.792-.306a1.572,1.572,0,0,1,.229-.934l1.055-2.41c1.461-3.432,2.514-6.252,2.323-6.3s-1.479,2.692-2.941,6.118q-.533,1.269-1.011,2.426a1.562,1.562,0,0,0-.167,1.241.929.929,0,0,0,.621.444,3.069,3.069,0,0,0,.634.069A11.215,11.215,0,0,0,526.238,1009.642Z" fill="#263238"/>
                <path id="Trazado_112383" data-name="Trazado 112383" d="M530.17,1009.239c-.233-.011-.218,1.574-1.561,2.714s-3.025.982-3.043,1.205c-.018.1.382.3,1.093.313a3.922,3.922,0,0,0,2.539-.918,3.4,3.4,0,0,0,1.211-2.262C530.464,1009.631,530.279,1009.225,530.17,1009.239Z" fill="#263238"/>
                <path id="Trazado_112384" data-name="Trazado 112384" d="M530.792,996.371c.2.5,1.622.1,3.358.183s3.174.549,3.35.052c.074-.236-.218-.7-.829-1.147a4.768,4.768,0,0,0-2.575-.87,4.292,4.292,0,0,0-2.538.687C530.974,995.679,530.713,996.129,530.792,996.371Z" fill="#263238"/>
                <path id="Trazado_112385" data-name="Trazado 112385" d="M517.135,995.469c.255.534,1.61.245,3.19.468s2.821.779,3.2.325c.175-.223.044-.737-.459-1.286a4.1,4.1,0,0,0-2.461-1.2,4.141,4.141,0,0,0-2.691.565C517.287,994.744,517.026,995.2,517.135,995.469Z" fill="#263238"/>
              </g>
            </g>
            <g id="Grupo_50599" data-name="Grupo 50599" opacity="0.7" style="mix-blend-mode: multiply;isolation: isolate">
              <path id="Trazado_112386" data-name="Trazado 112386" d="M526.879,1046.749c-12.16-.556-9.974-15.249-8.276-22.117-2.752,9.73-6.272,23.092-6.644,29.15,0,0,15.384,4.517,29.807,1.192,0,0-2.019-21.29-4.4-33.971C537.964,1024.319,541.63,1047.421,526.879,1046.749Z" fill="#c4c6be"/>
            </g>
          </g>
          <g id="Grupo_50618" data-name="Grupo 50618">
            <g id="Grupo_50616" data-name="Grupo 50616">
              <g id="Grupo_50605" data-name="Grupo 50605">
                <path id="Trazado_112387" data-name="Trazado 112387" d="M510.111,1015.562a11.7,11.7,0,0,1,1.367-2.759,9.538,9.538,0,0,0,1.985-6.788c-.386-3.125-2.6-5.584-2.528-3.447,0,0-.342-1.957-1.259-1.894s-.559,2.167-.358,3.412c0,0-.456-2.479-1.56-2.341s-.692,4.238-.692,4.238.567,3.784-1.283,3.43-3.582-.532-1.391,2.176,3.373,3.143,3.714,3.932Z" fill="#994b4b"/>
                <g id="Grupo_50604" data-name="Grupo 50604">
                  <g id="Grupo_50601" data-name="Grupo 50601">
                    <path id="Trazado_112388" data-name="Trazado 112388" d="M510.9,1002.037s.039.355.093.882.137,1.226.189,1.929c.016.172.032.346.039.515s.019.347.019.511c.006.325,0,.628-.019.89a3.409,3.409,0,0,1-.042.355,1.672,1.672,0,0,1-.051.27c-.041.152-.061.239-.061.239s.042-.076.112-.219a1.764,1.764,0,0,0,.107-.265,1.928,1.928,0,0,0,.1-.355,3.176,3.176,0,0,0,.075-.43,4.662,4.662,0,0,0,.035-.485,8.494,8.494,0,0,0-.022-1.052,12.34,12.34,0,0,0-.316-1.932A7.965,7.965,0,0,0,510.9,1002.037Z" fill="#12263f"/>
                  </g>
                  <g id="Grupo_50602" data-name="Grupo 50602">
                    <path id="Trazado_112389" data-name="Trazado 112389" d="M509.473,1002.016s.013.093.042.267.058.4.1.686.077.616.108.971c.023.176.033.364.046.548s.019.374.032.568c.013.377,0,.753-.016,1.107-.022.177-.029.351-.049.513s-.046.311-.07.453-.061.263-.086.375a2.844,2.844,0,0,1-.087.289c-.052.163-.078.256-.078.256s.045-.084.129-.232a1.926,1.926,0,0,0,.135-.276c.044-.112.1-.237.148-.37a6.969,6.969,0,0,0,.213-.98c.019-.182.035-.373.048-.565s.01-.382,0-.58a9.742,9.742,0,0,0-.109-1.137c-.053-.361-.139-.693-.207-.973A6.95,6.95,0,0,0,509.473,1002.016Z" fill="#12263f"/>
                  </g>
                  <g id="Grupo_50603" data-name="Grupo 50603">
                    <path id="Trazado_112390" data-name="Trazado 112390" d="M509.364,1009.258a2.658,2.658,0,0,0-.486.509,3.212,3.212,0,0,0-.608,1.447,2.756,2.756,0,0,0-.038.433,3.07,3.07,0,0,0,.025.422,2.823,2.823,0,0,0,.08.381,1.565,1.565,0,0,0,.106.327,2.081,2.081,0,0,0,.119.265c.045.076.081.141.113.193.065.11.1.168.1.168s-.018-.072-.05-.188c-.019-.058-.039-.13-.064-.208s-.032-.18-.059-.278a2.349,2.349,0,0,1-.054-.322c-.01-.117-.035-.24-.035-.365a3.841,3.841,0,0,1,0-.387,2.63,2.63,0,0,1,.041-.4,2.8,2.8,0,0,1,.077-.392c.03-.126.075-.25.11-.374s.083-.233.132-.335.093-.211.141-.3c.1-.18.178-.336.245-.439S509.364,1009.258,509.364,1009.258Z" fill="#12263f"/>
                  </g>
                </g>
              </g>
              <g id="Grupo_50606" data-name="Grupo 50606">
                <path id="Trazado_112391" data-name="Trazado 112391" d="M438.294,1002.566s-3.263,18.244-2.49,19.191,3.906.551,3.906.551l-.081,5.614s-7.221,1.094-9.135-1.207,4.154-22.59,4.154-22.59l.361-1.8Z" fill="#f4c3a7"/>
                <path id="Trazado_112392" data-name="Trazado 112392" d="M429.571,1003.617s1.319,19.223,3.819,20.472a14.536,14.536,0,0,0,6.185,1.039l1.03,5.535s-8.064.861-10.684-.72c-3.221-1.945-4.163-25.994-4.163-25.994Z" fill="#b0494c"/>
                <path id="Trazado_112393" data-name="Trazado 112393" d="M433.919,1015.251a3.951,3.951,0,0,1-2.057-.733c1.277-5.345,2.786-10.393,2.786-10.393l.361-1.8,3.285.243s-1.261,7.074-2.033,12.646A5.289,5.289,0,0,1,433.919,1015.251Z" fill="#ece9e0"/>
                <path id="Trazado_112394" data-name="Trazado 112394" d="M435.8,1005.835c-.984.679-1.332,2.088-1.6,3.192-.48,1.987-1.033,3.963-1.454,5.969a4.07,4.07,0,0,1-.885-.478c1.277-5.345,2.786-10.393,2.786-10.393l.361-1.8,3.285.243s-.2,1.105-.483,2.782A6.626,6.626,0,0,0,435.8,1005.835Z" fill="#ece9e0" style="mix-blend-mode: multiply;isolation: isolate"/>
                <path id="Trazado_112395" data-name="Trazado 112395" d="M430.977,1016.417a3.516,3.516,0,0,1-2.117.836,10.526,10.526,0,0,1-2.125-.007c-.716-6.61-.977-13.3-.977-13.3l3.813-.332S430.05,1010.594,430.977,1016.417Z" fill="#ece9e0"/>
                <path id="Trazado_112396" data-name="Trazado 112396" d="M427.73,1006.976c-.621,1.021-.412,2.39-.351,3.518a47.692,47.692,0,0,0,.477,5.7,5.107,5.107,0,0,0,.322,1.1,10.348,10.348,0,0,1-1.443-.051c-.716-6.61-.977-13.3-.977-13.3l3.813-.332s.064.913.186,2.35C429.014,1006.166,428.174,1006.257,427.73,1006.976Z" fill="#ece9e0" style="mix-blend-mode: multiply;isolation: isolate"/>
              </g>
              <g id="Grupo_50607" data-name="Grupo 50607">
                <path id="Trazado_112397" data-name="Trazado 112397" d="M459.874,1030.511s-5.594,2.939-19.678,1.179c0,0-4.228-6.5-1.135-13.822,0,0,15.451-4.562,20.014-.053l.984,7.105Z" fill="#e63f8c"/>
                <path id="Trazado_112398" data-name="Trazado 112398" d="M453.759,1018.044a8.74,8.74,0,0,0-.5,2.173c-.058.634.194,2-.765,1.926-1.062-.076-2.138-.206-3.2-.245a7.042,7.042,0,0,1-2.971-.354c-1.065-.586-.615-2.156-.353-3.1a5.968,5.968,0,0,1,1.152-2.266,27.947,27.947,0,0,1,7.9-.125A5.03,5.03,0,0,0,453.759,1018.044Z" fill="#e63f8c" opacity="0.5" style="mix-blend-mode: multiply;isolation: isolate"/>
                <path id="Trazado_112399" data-name="Trazado 112399" d="M438.056,1021.589c0,.3.007.61.026.906.167,2.492,1.268,5.5,4.2,5.68a17.117,17.117,0,0,0,3.365-.3,33.932,33.932,0,0,1,3.7-.2c1.467-.041,3.952.029,4.694-1.6.683-1.508.209-3.259.615-4.839a9.29,9.29,0,0,1,2.523-4.6,5.624,5.624,0,0,1,1.9,1.189l.984,7.105-.185,5.591s-5.594,2.939-19.678,1.179A16.358,16.358,0,0,1,438.056,1021.589Z" fill="#e63f8c" opacity="0.5" style="mix-blend-mode: multiply;isolation: isolate"/>
                <path id="Trazado_112400" data-name="Trazado 112400" d="M446.246,1021.082s6.979.618,6.992.714-.392-4.166,3.353-5.387a22.361,22.361,0,0,0-9.525-.178S445.406,1017.387,446.246,1021.082Z" fill="#bb258f"/>
              </g>
              <path id="Trazado_112401" data-name="Trazado 112401" d="M488.4,1028.595c-.07.008-.779,1.976,2.13,2.616s5.3,1.972,5.69,1.583-.483-1.939-3.341-2.34a16.9,16.9,0,0,1,4.331,1.046c2.433.92,2.459-1.6-3.1-2.544a15.182,15.182,0,0,1,4.083.836c2.4.8,3.33-.319.537-1.387a10.6,10.6,0,0,0-3.88-.978,14.343,14.343,0,0,1,4.428.668c2.612.778,1.538-1.56-1.684-1.94a17.2,17.2,0,0,0-3.195-.244,3.307,3.307,0,0,1,1.777-.557c1.145-.065.5-1.892-2.517-.785s-4.1,1.367-4.345,1.96S488.4,1028.595,488.4,1028.595Z" fill="#994b4b"/>
              <path id="Trazado_112402" data-name="Trazado 112402" d="M491.685,1014.812s3.424-1.454,7.273,1.844,7.954,6.961,7.954,6.961a51.331,51.331,0,0,0,.759-8.386,5.346,5.346,0,0,1,3.746.047s.656,10.443-2.784,12.5-13.673-7.321-13.673-7.321a26.3,26.3,0,0,1-6.48,5.266l1.387.166a18.746,18.746,0,0,1-1.554,4.4,84.383,84.383,0,0,1-13.016.153s-11.9,2.266-16.807,1.507c0,0-4.413-5.117,1.01-16.469,0,0,11.854.022,16.423-5.621C475.923,1009.861,479.831,1005.046,491.685,1014.812Z" fill="#7cc5ff"/>
              <path id="Trazado_112403" data-name="Trazado 112403" d="M457.145,1022.367a3.718,3.718,0,0,0,.9,1.024c1.97,1.55,4.756,1.71,7.147,1.339,2.6-.4,4.547-2,6.375-3.783-1.053,1.591-2.909,3.677-2.629,5.753.3,2.226,4.341,2.8,6.317,2.875,4.382.18,9.917.632,14.023-1.55a10.111,10.111,0,0,1-.965,2.266,84.383,84.383,0,0,1-13.016.153s-11.9,2.266-16.807,1.507C458.49,1031.951,455.889,1028.926,457.145,1022.367Z" fill="#70c2c6" opacity="0.5" style="mix-blend-mode: multiply;isolation: isolate"/>
              <path id="Trazado_112404" data-name="Trazado 112404" d="M496.576,1018.024c.019-.024.036-.039.052-.062a7.327,7.327,0,0,0,2.471,3.717,30.7,30.7,0,0,0,4.588,3.333c1.629.973,3.472,1.658,5.265.7a5.034,5.034,0,0,0,1.988-2.365c-.4,1.965-1.107,3.714-2.307,4.433-3.395,2.035-13.4-7.068-13.653-7.308A5.756,5.756,0,0,0,496.576,1018.024Z" fill="#70c2c6" opacity="0.5" style="mix-blend-mode: multiply;isolation: isolate"/>
              <path id="Trazado_112405" data-name="Trazado 112405" d="M476.263,1023.307c1.173-1.065,2.344-2.178,3.432-3.346-.791,1.333-1.287,2.954,0,3.819a7.841,7.841,0,0,0,3.156.721,18.487,18.487,0,0,0,3.74.114,11.611,11.611,0,0,0,3.875-.932,16.624,16.624,0,0,0,2.718-1.739,18.475,18.475,0,0,0,1.635-1.323,27.247,27.247,0,0,1-5.75,4.785,8.188,8.188,0,0,1-1.367.24.272.272,0,0,0-.088-.018c-.209,0-.415-.007-.621-.014-.717-.034-1.426-.129-2.146-.157a3.4,3.4,0,0,0-1.4-.084,29.613,29.613,0,0,1-3.108-.13c-1.552-.123-3.09.24-4.627.053a3.171,3.171,0,0,1-.592-.284A4.121,4.121,0,0,1,476.263,1023.307Z" fill="#70c2c6" opacity="0.5" style="mix-blend-mode: multiply;isolation: isolate"/>
              <path id="Trazado_112406" data-name="Trazado 112406" d="M484.967,1017.3a13.345,13.345,0,0,0-.986-1.064,16.232,16.232,0,0,0-1.544-1.281,9.908,9.908,0,0,0-1.255-.878c-.715-.385-1.416-.025-2.136.14a2.815,2.815,0,0,1-2.183-.247,7.49,7.49,0,0,1-2.158-2.206c-.615-.869,2.493-1.574,2.052-2.53,1.683-.889,6.1-1.7,14.928,5.573,0,0,3.424-1.454,7.273,1.844l2.142,1.85a6.606,6.606,0,0,1-2.558-.482,7.757,7.757,0,0,0-3.063-.876c-2.622.157-4.19,3.4-6.938,2.918C486.99,1019.794,485.977,1018.493,484.967,1017.3Z" fill="#70c2c6" opacity="0.5" style="mix-blend-mode: multiply;isolation: isolate"/>
              <path id="Trazado_112407" data-name="Trazado 112407" d="M494.066,1021.037a2.646,2.646,0,0,1,.554-.616c.282-.312.57-.614.849-.932a7.35,7.35,0,0,0,.849-1.132,5.26,5.26,0,0,1,.5-.961.047.047,0,0,1,.077.046,6.279,6.279,0,0,1-2.731,3.691C494.1,1021.174,494.037,1021.09,494.066,1021.037Z" fill="#69f"/>
              <path id="Trazado_112408" data-name="Trazado 112408" d="M468.732,1024.679a23.985,23.985,0,0,1,4.209-5.567,11.461,11.461,0,0,1,5.711-3.22.071.071,0,0,1,.032.138c-3.7,1.074-6.779,4.423-8.727,7.626-.433.712-.887,1.387-1.267,2.125a5.389,5.389,0,0,0-.592,1.687c-.094.85.791,1.283,1.445,1.516a39.865,39.865,0,0,0,5.548,1.114c.106.019.067.167-.027.169a14.2,14.2,0,0,1-3.253-.219,10.463,10.463,0,0,1-2.972-.825,1.917,1.917,0,0,1-1.2-1.53A6.448,6.448,0,0,1,468.732,1024.679Z" fill="#69f"/>
              <path id="Trazado_112409" data-name="Trazado 112409" d="M476.866,1022.647c1.078-1,2.217-1.971,3.244-3.024.113-.115.32.042.222.177a20.875,20.875,0,0,1-3.146,3.18,9.4,9.4,0,0,0-1.706,1.971,19.067,19.067,0,0,1,2.1.081,56.117,56.117,0,0,1,10.178.582c.068.014.048.128-.016.121-2.252-.2-4.531-.133-6.794-.213-1.122-.039-2.256-.017-3.377-.02-.474-.006-.943-.011-1.416-.058-.393-.036-.735.122-1.1-.057a.234.234,0,0,1-.113-.209C474.933,1024.261,476.268,1023.2,476.866,1022.647Z" fill="#69f"/>
              <path id="Trazado_112410" data-name="Trazado 112410" d="M488.319,1018.058a1.908,1.908,0,0,0,1.9,1.147,3.336,3.336,0,0,0,2.209-3.411h0c.058-.348.237-.724-.139-.952a6.16,6.16,0,0,0-2.113-.367,4.6,4.6,0,0,0-1.678.024.277.277,0,0,0-.2-.047l-.033,0a.287.287,0,0,0-.216.273A5.931,5.931,0,0,0,488.319,1018.058Z" fill="#f4c3a7"/>
              <path id="Trazado_112411" data-name="Trazado 112411" d="M489.442,1018.62c1.445.589,2.536-.9,2.993-2.417a3.3,3.3,0,0,1-2.212,3,1.908,1.908,0,0,1-1.9-1.147,2.775,2.775,0,0,1-.213-.578A2.718,2.718,0,0,0,489.442,1018.62Z" fill="#f4c3a7" opacity="0.5" style="mix-blend-mode: multiply;isolation: isolate"/>
              <path id="Trazado_112412" data-name="Trazado 112412" d="M457.266,993.781c.046-.052.094-.1.139-.144-1.542-.191-2.622-1.3-2.052-2.89a6.065,6.065,0,0,1,3.436-3.39c-1.783-.489-3.151-1.955-1.625-3.8a5.523,5.523,0,0,1,3.71-1.7,5.755,5.755,0,0,1-.852-.363c-.847-.452-1.269-1.329-.57-2.08.772-.836,2.538-.847,3.552-.769a7.242,7.242,0,0,1,1.3.217c-.084-.108-.17-.212-.251-.32-.689-.89-1.474-2.386-.772-3.458.685-1.049,2.41-.594,3.34-.268a8.013,8.013,0,0,1,.9.388c-.088-.139-.169-.288-.25-.442a2.094,2.094,0,0,1,.939-2.785c1.089-.645,2.7-.164,3.781.224.228.079.474.181.718.294a2.892,2.892,0,0,1,0-2.905,1.965,1.965,0,0,1,2.5-.421,6.134,6.134,0,0,1,1.017.59,2.166,2.166,0,0,1,1.275-2.65c1.292-.59,2.889.348,3.924,1.035a6.012,6.012,0,0,1,1.43,1.334,3.785,3.785,0,0,1,1.389-3.251c1.063-.759,2.2-.11,2.926.738a4.559,4.559,0,0,1,.739,1.243,4.356,4.356,0,0,1,1.137-1.736,1.988,1.988,0,0,1,2.7.22,3.069,3.069,0,0,1,.927,1.434,3,3,0,0,1,1.693-1.855c.92-.3,1.673.915,1.955,1.569a6.3,6.3,0,0,1,.438,1.876,3.758,3.758,0,0,1,3.753-2.487c1.57.073,2.359,1.777,2.645,3.081a10.739,10.739,0,0,1,.18,1.192c.637-1.5,1.74-2.723,3.3-1.846,1.03.581.9,2.7,1.014,3.66.055.467.113.941.152,1.414.038-.079.07-.168.1-.252.4-.9,1.5-3.561,2.894-3.185,1.447.391,1.241,2.522,1.187,3.669a10.1,10.1,0,0,1-.384,2.328,3.572,3.572,0,0,1,1.314-.389c.9-.093,1.815.056,2.137.988.275.794-.484,1.531-1.044,1.953a5.537,5.537,0,0,1-.672.427,12.333,12.333,0,0,1,2.462.668c.863.331,2.349,1.186,2.458,2.229.142,1.289-1.434,1.985-2.439,2.291a5.269,5.269,0,0,1-2.465.129c1.242.652,2.42,1.763,2.43,3.038.016,1.38-1.252,1.606-2.36,1.264a5.613,5.613,0,0,1,.851.944c.354.508,1.112,1.486.882,2.184-.32.967-1.192,1.037-2.047.766a2.2,2.2,0,0,1,.151.338c.222.649-.181,1.374-.91,1.14a.275.275,0,0,1-.078-.053c-1.615.259-3.494-.169-4.4,1.478a21.076,21.076,0,0,0-.984,2.52,14.815,14.815,0,0,1-1.105,2.152c-1.662,2.812-5.061,4.64-8.028,5.769-3.378,1.284-6.9,1.493-10.477,1.8-.933.077-1.873.179-2.809.209a26.042,26.042,0,0,1-2.622-.256c-.927-.059-1.842-.129-2.769-.218a5.065,5.065,0,0,0-2.259.153c.58.836,1.186,1.661,1.752,2.5.513.753,1.006,1.8.26,2.557-.657.671-2.291-.3-2.848-.721a5.478,5.478,0,0,1-1.261-1.373,11.349,11.349,0,0,1-.422,1.976c-.119.4-.428,1.18-.949,1.184-1.172,0-1.564-1.646-1.648-2.974a5.2,5.2,0,0,1-1.119,1.135c-.524.375-1.558,1.055-2.246.67-.965-.547-.875-1.818-.525-2.931a5.224,5.224,0,0,1-1.425.752c-.483.179-1.561.518-2.054.153a1.823,1.823,0,0,1-.643-1.889,2.479,2.479,0,0,1-3.025-.086,2.334,2.334,0,0,1-.373-2.34,2.063,2.063,0,0,1,.341-.684.806.806,0,0,1-.985-.831,3.936,3.936,0,0,1,.786-2.345c-.11.023-.216.038-.323.051a2.07,2.07,0,0,1-2.477-1.77,5.8,5.8,0,0,1,1.473-3.992c.052-.067.1-.122.162-.187-.946.257-2.526.273-3.022-.685C455.616,995.789,456.469,994.653,457.266,993.781Z" fill="#12263f"/>
              <path id="Trazado_112413" data-name="Trazado 112413" d="M464.371,1011.063a3.644,3.644,0,0,0,3.122-1.907,7.7,7.7,0,0,0,1.4-5.28,32.128,32.128,0,0,1-.746-3.995,16.814,16.814,0,0,1,.071-2.387,2.541,2.541,0,0,1,1.569-1.626c1.571-.584,3.016-.569,3.638-2.39.495-1.459.463-3.049,1.17-4.45.354-.7,1.7-1.891,2.214-.541.187.486.278.921.8,1.127,1.332.526,2.864-1.4,3.208-2.465a4.146,4.146,0,0,1,.554-1.547c.656-.751,1.038.486,1.177.835a3.208,3.208,0,0,0,.908,1.555c.656.447,1.7.916,1.718-.28.01-.776-1.029-3.31.132-3.614.839-.225,1.815.6,2.5.965a2.982,2.982,0,0,0,1.751.5.2.2,0,0,0,.168-.215c-.091-.378-.316-1.5.334-1.368a8.392,8.392,0,0,1,1.448.459,19.96,19.96,0,0,0,2.368.882c.566.145,2.87.325,2.484-.933-.182-.6-1.023-.995-1.051-1.639-.033-.762.762-.588,1.244-.457a19.919,19.919,0,0,1,3.958,1.755,30.681,30.681,0,0,0,3.553,1.792,5.045,5.045,0,0,0,2.182.179,3.961,3.961,0,0,1,2.342.335c.421.246.8.545,1.21.8,1.062.674,2.889,1.113,3.8-.053a1.257,1.257,0,0,0,.129-1.3,3.715,3.715,0,0,1,2.056,2.823c.016,1.38-1.252,1.606-2.36,1.264a5.613,5.613,0,0,1,.851.944c.354.508,1.112,1.486.882,2.184-.32.967-1.192,1.037-2.047.766a2.2,2.2,0,0,1,.151.338c.222.649-.181,1.374-.91,1.14a.275.275,0,0,1-.078-.053c-1.615.259-3.494-.169-4.4,1.478a21.076,21.076,0,0,0-.984,2.52,14.815,14.815,0,0,1-1.105,2.152c-1.662,2.812-5.061,4.64-8.028,5.769-3.378,1.284-6.9,1.493-10.477,1.8-.933.077-1.873.179-2.809.209a26.042,26.042,0,0,1-2.622-.256c-.927-.059-1.842-.129-2.769-.218a5.065,5.065,0,0,0-2.259.153c.58.836,1.186,1.661,1.752,2.5.513.753,1.006,1.8.26,2.557-.657.671-2.291-.3-2.848-.721a5.478,5.478,0,0,1-1.261-1.373,11.349,11.349,0,0,1-.422,1.976c-.119.4-.428,1.18-.949,1.184-1.172,0-1.564-1.646-1.648-2.974a5.2,5.2,0,0,1-1.119,1.135c-.524.375-1.558,1.055-2.246.67-.965-.547-.875-1.818-.525-2.931a5.224,5.224,0,0,1-1.425.752c-.483.179-1.561.518-2.054.153a1.62,1.62,0,0,1-.6-.86A1.7,1.7,0,0,0,464.371,1011.063Z" fill="#6e3f19" opacity="0.3" style="mix-blend-mode: multiply;isolation: isolate"/>
              <g id="Grupo_50609" data-name="Grupo 50609">
                <path id="Trazado_112414" data-name="Trazado 112414" d="M421.923,990.4c-.233.546-.658,3.628,2.683,6.659a87.979,87.979,0,0,0,7.625,6.608c1.3.777,1.742.922,2.353.32s.737.953,1.68.965,2.169-.107,2.5-1.091a7.828,7.828,0,0,1,1.636-2.551c.6-.657.489-2.627-4.872-5.705S422.346,989.367,421.923,990.4Z" fill="#b7b838"/>
                <path id="Trazado_112415" data-name="Trazado 112415" d="M421.923,990.4a.286.286,0,0,1,.2-.155,1.068,1.068,0,0,0,.007.312c.161.828,1.139,1.561,1.75,2.043,1.133.9,2.381,1.634,3.579,2.447,1.818,1.227,3.636,2.425,5.538,3.515,1.027.59,2.078,1.121,3.114,1.688a6.76,6.76,0,0,0,2.475,1.06,1.813,1.813,0,0,0,2.024-1.036,1.121,1.121,0,0,1-.209,1.036,7.828,7.828,0,0,0-1.636,2.551c-.33.984-1.552,1.1-2.5,1.091s-1.072-1.559-1.68-.965c-.5.493-.9.48-1.728.037.116-.6.3-1.194.387-1.8.057-.382-.985-.86-1.126-.542-.158.361-.47,1.1-.622,1.462-1.515-1.148-4.076-3.528-6.889-6.09C421.265,994.024,421.69,990.942,421.923,990.4Z" fill="#ebe710" opacity="0.5"/>
                <path id="Trazado_112416" data-name="Trazado 112416" d="M423.92,993.871c.856.673,1.766,1.258,2.665,1.861,1.258.854,2.784,1.223,4.021,2.087,1.439,1.009,2.17,2.718,3.615,3.7a5.971,5.971,0,0,0,3.3,1.17,3.452,3.452,0,0,0,3.1-1.841.891.891,0,0,1-.222.454,7.828,7.828,0,0,0-1.636,2.551c-.33.984-1.552,1.1-2.5,1.091s-1.072-1.559-1.68-.965c-.5.493-.9.48-1.728.037.116-.6.3-1.194.387-1.8.057-.382-.985-.86-1.126-.542-.158.361-.47,1.1-.622,1.462-1.515-1.148-4.076-3.528-6.889-6.09a7.654,7.654,0,0,1-2.838-5.511A7.964,7.964,0,0,0,423.92,993.871Z" fill="#ebe710" opacity="0.5" style="mix-blend-mode: multiply;isolation: isolate"/>
                <g id="Grupo_50608" data-name="Grupo 50608">
                  <path id="Trazado_112417" data-name="Trazado 112417" d="M437.412,1000.334a6.43,6.43,0,0,1,1.23-.8,5.413,5.413,0,0,1,1.077-.587.048.048,0,0,1,.042.081,4.6,4.6,0,0,1-.92.6c-.463.248-.885.56-1.345.814C437.429,1000.487,437.358,1000.39,437.412,1000.334Z" fill="#b7b838" style="mix-blend-mode: multiply;isolation: isolate"/>
                  <path id="Trazado_112418" data-name="Trazado 112418" d="M435.572,999.447a5.539,5.539,0,0,1,1.538-.787c.5-.2.959-.473,1.461-.654a.074.074,0,0,1,.071.124,9.058,9.058,0,0,1-1.425.718,11.421,11.421,0,0,1-1.532.806A.122.122,0,0,1,435.572,999.447Z" fill="#b7b838" style="mix-blend-mode: multiply;isolation: isolate"/>
                  <path id="Trazado_112419" data-name="Trazado 112419" d="M433.513,998.446a24.716,24.716,0,0,1,3.652-1.6c.032-.012.046.034.023.058a10.9,10.9,0,0,1-1.783.811c-.624.262-1.226.572-1.86.807C433.5,998.539,433.474,998.468,433.513,998.446Z" fill="#b7b838" style="mix-blend-mode: multiply;isolation: isolate"/>
                  <path id="Trazado_112420" data-name="Trazado 112420" d="M431.756,997.552a6.75,6.75,0,0,1,1.814-1.03c.618-.277,1.2-.59,1.822-.853.017-.007.032.011.02.024a9.849,9.849,0,0,1-1.533.889,14.189,14.189,0,0,1-2.011,1.125C431.774,997.742,431.665,997.632,431.756,997.552Z" fill="#b7b838" style="mix-blend-mode: multiply;isolation: isolate"/>
                  <path id="Trazado_112421" data-name="Trazado 112421" d="M429.813,996.487a6.434,6.434,0,0,1,1.393-.886c.668-.341,1.238-.85,1.913-1.18.052-.029.124.052.065.091a19.092,19.092,0,0,1-3.27,2.107C429.832,996.659,429.738,996.554,429.813,996.487Z" fill="#b7b838" style="mix-blend-mode: multiply;isolation: isolate"/>
                  <path id="Trazado_112422" data-name="Trazado 112422" d="M427.772,995.081a4.912,4.912,0,0,1,1.19-.945,6.593,6.593,0,0,1,1.61-.953c.061-.019.109.07.061.107a15.073,15.073,0,0,1-1.371.94,5.356,5.356,0,0,1-1.387.989A.094.094,0,0,1,427.772,995.081Z" fill="#b7b838" style="mix-blend-mode: multiply;isolation: isolate"/>
                  <path id="Trazado_112423" data-name="Trazado 112423" d="M425.436,993.575A12.392,12.392,0,0,1,427.6,992.2a.045.045,0,0,1,.051.072,6.424,6.424,0,0,1-.9.617c-.412.254-.781.586-1.2.83C425.455,993.768,425.352,993.639,425.436,993.575Z" fill="#b7b838" style="mix-blend-mode: multiply;isolation: isolate"/>
                  <path id="Trazado_112424" data-name="Trazado 112424" d="M423.865,992.116a3.742,3.742,0,0,1,.651-.487c.256-.185.514-.355.771-.531.049-.033.11.044.065.078a9.679,9.679,0,0,1-1.429,1.018C423.871,992.224,423.833,992.159,423.865,992.116Z" fill="#b7b838" style="mix-blend-mode: multiply;isolation: isolate"/>
                </g>
              </g>
              <path id="Trazado_112425" data-name="Trazado 112425" d="M430.128,1005.458s-3.231.589-4.924-.706c0,0-.286.735-.65.8a4.733,4.733,0,0,1-2.159-1.127c-.17-.3.28-.785-.286-1.012a53.026,53.026,0,0,1-8.753-6.214c-2.271-2.3-3.057-3.216-2.767-3.876s3.082-.061,7.543,1.025,8.456,2.3,10.715,2.991,2.967,1.373,2.594,2.685-.6,2.2-.927,3.15A5.206,5.206,0,0,0,430.128,1005.458Z" fill="#b7b838"/>
              <path id="Trazado_112426" data-name="Trazado 112426" d="M410.589,993.328a.38.38,0,0,1,.229-.184c.092.626.947,1.177,1.411,1.432a56.24,56.24,0,0,0,11.823,4.352c1.059.29,7.433,2.656,7.208-.144-.007-.071-.019-.144-.028-.215a1.507,1.507,0,0,1,.209,1.46c-.38,1.308-.6,2.2-.927,3.15a5.206,5.206,0,0,0-.386,2.279s-3.231.589-4.924-.706c0,0-.286.735-.65.8a4.733,4.733,0,0,1-2.159-1.127c-.116-.2.054-.489,0-.727a12.2,12.2,0,0,0,.37-1.833c.017-.485-1.081-1.03-1.21-.673a8.348,8.348,0,0,0-.437,1.657,51.985,51.985,0,0,1-7.762-5.65C411.085,994.907,410.3,993.988,410.589,993.328Z" fill="#ebe710"/>
              <path id="Trazado_112427" data-name="Trazado 112427" d="M410.589,993.328a.424.424,0,0,1,.054-.065,4.626,4.626,0,0,0,1.867,2.487,26.273,26.273,0,0,0,2.551,1.712,11.2,11.2,0,0,0,5.084,2,5.241,5.241,0,0,1,3.183,1.044,6.116,6.116,0,0,0,1.992,1.021c1.567.408,3.654.656,5.1-.239a1.889,1.889,0,0,0,.834-2.535c-.01-.064-.016-.127-.025-.187a1.507,1.507,0,0,1,.209,1.46c-.38,1.308-.6,2.2-.927,3.15a5.206,5.206,0,0,0-.386,2.279s-3.231.589-4.924-.706c0,0-.286.735-.65.8a4.733,4.733,0,0,1-2.159-1.127c-.116-.2.054-.489,0-.727a12.2,12.2,0,0,0,.37-1.833c.017-.485-1.081-1.03-1.21-.673a8.348,8.348,0,0,0-.437,1.657,51.985,51.985,0,0,1-7.762-5.65C411.085,994.907,410.3,993.988,410.589,993.328Z" fill="#ebe710" style="mix-blend-mode: multiply;isolation: isolate"/>
              <g id="Grupo_50610" data-name="Grupo 50610" style="mix-blend-mode: multiply;isolation: isolate">
                <path id="Trazado_112428" data-name="Trazado 112428" d="M427.244,999.556a8.134,8.134,0,0,1,2.417-1.744c.054-.021.1.063.054.1-.312.278-.662.52-1,.77a10.855,10.855,0,0,1-1.358,1.024A.093.093,0,0,1,427.244,999.556Z" fill="#b7b838"/>
                <path id="Trazado_112429" data-name="Trazado 112429" d="M425.172,999.036a12.013,12.013,0,0,1,2.471-1.774c.038-.025.084.032.052.068-.325.307-.7.564-1.043.846a8.968,8.968,0,0,1-1.332,1.056A.124.124,0,0,1,425.172,999.036Z" fill="#b7b838"/>
                <path id="Trazado_112430" data-name="Trazado 112430" d="M422.662,998.347a9.234,9.234,0,0,1,2.5-1.681.032.032,0,0,1,.038.049c-.406.325-.85.586-1.262.895a7.162,7.162,0,0,1-1.2.849A.071.071,0,0,1,422.662,998.347Z" fill="#b7b838"/>
                <path id="Trazado_112431" data-name="Trazado 112431" d="M420.493,997.482a10.264,10.264,0,0,1,2.211-1.559c.048-.025.1.047.061.086a9.549,9.549,0,0,1-1.036.786c-.393.258-.7.634-1.111.854A.106.106,0,0,1,420.493,997.482Z" fill="#b7b838"/>
                <path id="Trazado_112432" data-name="Trazado 112432" d="M418.19,996.806a13.172,13.172,0,0,1,2.1-1.5c.064-.037.116.046.071.1a8.1,8.1,0,0,1-2.074,1.537A.084.084,0,0,1,418.19,996.806Z" fill="#b7b838"/>
                <path id="Trazado_112433" data-name="Trazado 112433" d="M416.052,995.953c.67-.461,1.29-.955,2-1.362a.039.039,0,0,1,.044.062,8.554,8.554,0,0,1-2.007,1.358C416.046,996.035,416.02,995.977,416.052,995.953Z" fill="#b7b838"/>
                <path id="Trazado_112434" data-name="Trazado 112434" d="M413.582,994.791a9.621,9.621,0,0,1,1.312-.965c.058-.039.119.05.071.092a5.556,5.556,0,0,1-1.3.983C413.6,994.933,413.521,994.842,413.582,994.791Z" fill="#b7b838"/>
              </g>
              <g id="Grupo_50611" data-name="Grupo 50611">
                <path id="Trazado_112435" data-name="Trazado 112435" d="M508.277,997.072a.133.133,0,0,0,.153.118,1.154,1.154,0,0,0,.049.317,1.1,1.1,0,0,0,.261.42c.266,1.3,1.4,3.474,2.927,2.894,1.41-.527,1.835-2.549,1.519-3.877-.27-1.154-1.406-3.35-2.957-2.793C509.2,994.527,508.038,995.9,508.277,997.072Z" fill="#994b4b"/>
                <path id="Trazado_112436" data-name="Trazado 112436" d="M510.229,994.151a1.388,1.388,0,0,1,.715-.061,1.789,1.789,0,0,0-1.046.572c-.956,1.077.2,1.8,1.185,1.984.83.156,1.113.561.778,1.419a5.587,5.587,0,0,0-.383,1.335,1.1,1.1,0,0,0,.581,1.216,2,2,0,0,1-.392.2c-1.531.58-2.661-1.595-2.927-2.894a1.1,1.1,0,0,1-.261-.42,1.154,1.154,0,0,1-.049-.317.133.133,0,0,1-.153-.118C508.038,995.9,509.2,994.527,510.229,994.151Z" fill="#994b4b" opacity="0.5" style="mix-blend-mode: multiply;isolation: isolate"/>
                <path id="Trazado_112437" data-name="Trazado 112437" d="M512.053,996.748c.091.038.085.187-.025.181a1.226,1.226,0,0,0-1.217.553.093.093,0,0,1,.033-.007c.338-.039.515.148.769.324a.079.079,0,0,1-.061.144,1.252,1.252,0,0,0-.547-.114,1.078,1.078,0,0,0-.322.105.858.858,0,0,0-.161.124c-.071.182-.129.365-.19.556a.179.179,0,0,1-.35-.056C509.9,997.5,510.986,996.281,512.053,996.748Z" fill="#12263f"/>
              </g>
              <g id="Grupo_50615" data-name="Grupo 50615">
                <g id="Grupo_50612" data-name="Grupo 50612">
                  <path id="Trazado_112438" data-name="Trazado 112438" d="M494.419,1027.378a1.788,1.788,0,0,0,.184.032c.12.01.283.045.477.075s.428.051.673.08.5.073.765.105.525.049.766.095.476.07.669.091c.4.037.67.05.67.05s-.248-.1-.63-.213c-.194-.06-.42-.117-.664-.181a2.488,2.488,0,0,0-.38-.078c-.128-.021-.263-.032-.4-.05-.265-.029-.532-.058-.782-.073-.122-.011-.245-.005-.361-.005s-.225.006-.324.012A4.27,4.27,0,0,0,494.419,1027.378Z" fill="#12263f"/>
                </g>
                <g id="Grupo_50613" data-name="Grupo 50613">
                  <path id="Trazado_112439" data-name="Trazado 112439" d="M493.586,1028.842s.062.02.174.05.267.066.454.116.409.087.643.136.486.094.737.143l.376.064c.123.022.252.033.364.058.236.048.454.087.641.121.386.057.647.077.647.077s-.235-.11-.6-.24c-.181-.068-.4-.138-.63-.209s-.49-.107-.74-.157-.512-.091-.754-.115-.467-.039-.662-.044A5.6,5.6,0,0,0,493.586,1028.842Z" fill="#12263f"/>
                </g>
                <g id="Grupo_50614" data-name="Grupo 50614">
                  <path id="Trazado_112440" data-name="Trazado 112440" d="M492.553,1030.381s.252.076.625.177.881.208,1.39.312c.252.044.5.1.741.143s.457.1.646.134.347.073.46.1.174.032.174.032-.055-.032-.154-.085-.251-.132-.432-.2-.4-.149-.634-.221-.492-.13-.743-.182a11.592,11.592,0,0,0-1.422-.194C492.817,1030.369,492.553,1030.381,492.553,1030.381Z" fill="#12263f"/>
                </g>
              </g>
              <path id="Trazado_112441" data-name="Trazado 112441" d="M507.221,988.04s-6.057-1.979-9.142-4.036a23.919,23.919,0,0,1,2.532,3.644.672.672,0,0,1,.042.185c.042.729-5.808-.4-8.627-2.245,0,0,1.777,2.514,1.464,2.748s-3.617-.039-6.838-2.371c0,0,.393,7.079-1.908,7.024s-2.957-5.3-2.957-5.3-3.746,7.545-4.582,6.331a5.368,5.368,0,0,1-.67-3.041,17.023,17.023,0,0,0-1.312,2.8c-.149.75-.181,6.395,1.409,9.542,0,0,.389.781.215.949s-1.541-1.394-2.3-2.789-2.871-1.89-3.8-.749a4.592,4.592,0,0,0,.869,6,3.126,3.126,0,0,0,4.074.373,12.742,12.742,0,0,0,5.142,6.193c3.916,2.444,14.786,4.764,22.505-.017,6.12-3.793,8.528-7.2,6.43-15.84C507.954,990,507.221,988.04,507.221,988.04Z" fill="#994b4b"/>
            </g>
            <g id="Grupo_50617" data-name="Grupo 50617">
              <path id="Trazado_112442" data-name="Trazado 112442" d="M501.891,998.426a1.393,1.393,0,0,1-1.036,1.646,1.33,1.33,0,0,1-1.65-.9l-.01-.035a1.4,1.4,0,0,1,1.031-1.647,1.335,1.335,0,0,1,1.656.906Z" fill="#263238"/>
              <path id="Trazado_112443" data-name="Trazado 112443" d="M503.692,994.461c-.133.215-1.325-.342-2.8-.037s-2.4,1.276-2.6,1.115c-.091-.062.014-.42.413-.857a3.84,3.84,0,0,1,2.06-1.114,3.69,3.69,0,0,1,2.27.247C503.536,994.075,503.759,994.363,503.692,994.461Z" fill="#263238"/>
              <path id="Trazado_112444" data-name="Trazado 112444" d="M488.5,1001.322a1.4,1.4,0,0,1-1.036,1.653,1.341,1.341,0,0,1-1.656-.923l0-.015a1.4,1.4,0,0,1,1.03-1.652,1.335,1.335,0,0,1,1.657.906Z" fill="#263238"/>
              <path id="Trazado_112445" data-name="Trazado 112445" d="M489.558,997.849c-.132.216-1.325-.341-2.8-.036s-2.4,1.276-2.6,1.115c-.1-.062.008-.415.413-.858a3.808,3.808,0,0,1,2.027-1.11,3.668,3.668,0,0,1,2.27.247C489.4,997.464,489.609,997.754,489.558,997.849Z" fill="#263238"/>
              <path id="Trazado_112446" data-name="Trazado 112446" d="M496.8,1007.137a11.539,11.539,0,0,1,2.316-.876c.367-.112.711-.248.729-.481a1.62,1.62,0,0,0-.434-.889l-1.587-2.193c-2.22-3.129-3.895-5.734-3.714-5.825s2.076,2.383,4.295,5.508q.813,1.16,1.546,2.217a1.609,1.609,0,0,1,.44,1.212.958.958,0,0,1-.527.582,3.127,3.127,0,0,1-.623.208A11.536,11.536,0,0,1,496.8,1007.137Z" fill="#263238"/>
              <path id="Trazado_112447" data-name="Trazado 112447" d="M492.754,1007.592c.231-.062.563,1.535,2.162,2.387s3.256.326,3.323.546c.041.1-.317.387-1.03.554a4.038,4.038,0,0,1-2.753-.368,3.5,3.5,0,0,1-1.712-2.01C492.544,1008.051,492.641,1007.6,492.754,1007.592Z" fill="#263238"/>
              <path id="Trazado_112448" data-name="Trazado 112448" d="M489.314,994.792c-.094.546-1.609.451-3.335.918s-3.071,1.246-3.357.785c-.126-.221.067-.753.583-1.334a4.9,4.9,0,0,1,2.4-1.438,4.412,4.412,0,0,1,2.7.136C488.98,994.136,489.341,994.531,489.314,994.792Z" fill="#263238"/>
              <path id="Trazado_112449" data-name="Trazado 112449" d="M502.846,990.9c-.139.592-1.564.6-3.1,1.168s-2.665,1.4-3.143,1.026c-.226-.186-.206-.731.18-1.393a4.349,4.349,0,0,1,5.04-1.765C502.536,990.2,502.9,990.6,502.846,990.9Z" fill="#263238"/>
            </g>
          </g>
        </g>
      </g>
    </g>
  </g>
</svg>
