<svg xmlns="http://www.w3.org/2000/svg" width="86" height="86" viewBox="0 0 86 86">
  <g id="Grupo_53050" data-name="Grupo 53050" transform="translate(10247 2485)">
    <rect id="Rectángulo_28718" data-name="Rectángulo 28718" width="86" height="86" transform="translate(-10247 -2485)" fill="none"/>
    <g id="ley" transform="translate(-10238.108 -2476.108)">
      <path id="Trazado_102976" data-name="Trazado 102976" d="M1.339,13.363H8.021v49.71a5.351,5.351,0,0,0,5.345,5.345H34.88a1.336,1.336,0,1,0,0-2.673H17.992a5.311,5.311,0,0,0,.719-2.673V60.4H62.275v2.673A2.676,2.676,0,0,1,59.6,65.746H46.907a1.336,1.336,0,0,0,0,2.673H59.6a5.351,5.351,0,0,0,5.345-5.345V59.064a1.336,1.336,0,0,0-1.336-1.336H56.929V25.237A113.555,113.555,0,0,0,68.288,7.263a1.34,1.34,0,0,0-.868-1.875l-.011,0A39.231,39.231,0,0,0,56.48,4.269,6.7,6.7,0,0,0,50.248,0H5.348A5.351,5.351,0,0,0,0,5.345v6.681a1.336,1.336,0,0,0,1.336,1.336ZM51.9,27.2c-.629.737-1.3,1.476-1.99,2.2H42.23a1.336,1.336,0,0,0-1.2,1.934l2.1,4.2a80.357,80.357,0,0,1-9.647,6.531,38.921,38.921,0,0,1,7.467-18.013H50.4a1.336,1.336,0,1,0,0-2.673H43.137a41.515,41.515,0,0,1,5.747-5.345h7.127a1.336,1.336,0,1,0,0-2.673H52.805A41.635,41.635,0,0,1,64.6,8.546,112.384,112.384,0,0,1,51.9,27.2ZM32.93,33.3c.4-6.511,1.981-14.458,6.786-19.54l-1.056,8.8c0,.039-.007.078-.008.117A42.209,42.209,0,0,0,32.93,33.3Zm8.862-14.407.924-7.7a22.633,22.633,0,0,1,6.841-3.186l-2.891,6.124a1.333,1.333,0,0,0-.106.332,44.189,44.189,0,0,0-4.769,4.428ZM57.9,6.915c.839,0,1.644.029,2.4.078a44.457,44.457,0,0,0-9.384,4.395l1.932-4.093A32.709,32.709,0,0,1,57.9,6.915ZM50.248,2.673a4.021,4.021,0,0,1,3.358,1.82,26.021,26.021,0,0,0-14.959,6.556c-5.527,5.143-7.681,13.295-8.3,20.855a64.14,64.14,0,0,0,.21,12.6L30.3,48.107H14.7a1.336,1.336,0,1,0,0,2.673H36.885a1.336,1.336,0,0,0,0-2.673h-3.91l.2-2.807a80.226,80.226,0,0,0,12.484-8.361A1.336,1.336,0,0,0,46.01,35.3l-1.617-3.233h6.089a1.337,1.337,0,0,0,.957-.4c.874-.9,1.714-1.819,2.5-2.738.107-.125.213-.253.319-.379V57.728H17.375a1.336,1.336,0,0,0-1.336,1.336v4.009a2.673,2.673,0,0,1-5.345,0V5.345a5.311,5.311,0,0,0-.719-2.673ZM2.676,5.345a2.673,2.673,0,0,1,5.345,0V10.69H2.676Z" transform="translate(-0.003 0)" fill="#00223d"/>
      <path id="Trazado_102977" data-name="Trazado 102977" d="M101.339,322.673h11.492a1.336,1.336,0,1,0,0-2.672H101.339a1.336,1.336,0,1,0,0,2.672Z" transform="translate(-86.64 -277.239)" fill="#00223d"/>
      <path id="Trazado_102978" data-name="Trazado 102978" d="M111.021,76.036A8.018,8.018,0,1,0,103,68.018,8.027,8.027,0,0,0,111.021,76.036Zm0-13.363a5.345,5.345,0,1,1-5.345,5.345A5.351,5.351,0,0,1,111.021,62.673Z" transform="translate(-89.239 -51.982)" fill="#00223d"/>
      <ellipse id="Elipse_4016" data-name="Elipse 4016" cx="1.589" cy="0.794" rx="1.589" ry="0.794" transform="translate(39.853 66.573)" fill="#00223d"/>
    </g>
  </g>
</svg>
