<svg id="Icon" xmlns="http://www.w3.org/2000/svg" width="103.304" height="103.304" viewBox="0 0 103.304 103.304">
  <circle id="Base" cx="51.652" cy="51.652" r="51.652" fill="#ea3065"/>
  <g id="Grupo_49636" data-name="Grupo 49636" transform="translate(28.768 22.31)">
    <path id="Trazado_100038" data-name="Trazado 100038" d="M226.112,67.878a1.2,1.2,0,0,1-.234-.024,1.229,1.229,0,0,1-.224-.068,1.273,1.273,0,0,1-.208-.111,1.193,1.193,0,0,1-.534-1,1.222,1.222,0,0,1,.024-.235,1.2,1.2,0,0,1,.069-.225,1.207,1.207,0,0,1,.259-.39,1.325,1.325,0,0,1,.182-.149,1.285,1.285,0,0,1,.208-.111,1.219,1.219,0,0,1,.224-.068,1.181,1.181,0,0,1,.469,0,1.212,1.212,0,0,1,.225.068,1.286,1.286,0,0,1,.208.111,1.386,1.386,0,0,1,.182.149,1.355,1.355,0,0,1,.149.183,1.27,1.27,0,0,1,.11.207,1.2,1.2,0,0,1,.068.225,1.194,1.194,0,0,1-.328,1.084,1.254,1.254,0,0,1-.182.149,1.275,1.275,0,0,1-.208.111,1.232,1.232,0,0,1-.225.068A1.2,1.2,0,0,1,226.112,67.878Z" transform="translate(-197.861 -59.042)" fill="#fff"/>
    <path id="Trazado_100039" data-name="Trazado 100039" d="M163.469,243.507a2.673,2.673,0,0,1-1.9-.784,1.2,1.2,0,0,1,1.7-1.7.283.283,0,0,0,.4,0,1.2,1.2,0,0,1,1.7,1.7A2.674,2.674,0,0,1,163.469,243.507Z" transform="translate(-141.829 -213.168)" fill="#fff"/>
    <path id="Trazado_100040" data-name="Trazado 100040" d="M204.026,193.894a2.676,2.676,0,0,1-1.9-.784,1.2,1.2,0,0,1,1.7-1.7.283.283,0,0,0,.4,0,1.2,1.2,0,0,1,1.7,1.7A2.676,2.676,0,0,1,204.026,193.894Z" transform="translate(-177.508 -169.521)" fill="#fff"/>
    <path id="Trazado_100041" data-name="Trazado 100041" d="M122.907,193.894a2.675,2.675,0,0,1-1.9-.784,1.2,1.2,0,0,1,1.7-1.7.283.283,0,0,0,.4,0,1.2,1.2,0,1,1,1.7,1.7A2.676,2.676,0,0,1,122.907,193.894Z" transform="translate(-106.147 -169.521)" fill="#fff"/>
    <path id="Trazado_100042" data-name="Trazado 100042" d="M39.246,38.5V29.583a17.607,17.607,0,1,0-35.214,0V38.5a7.714,7.714,0,0,0,.33,13.728A6.54,6.54,0,0,0,3.2,55.953v13.51a1.2,1.2,0,0,0,1.2,1.2H38.877a1.2,1.2,0,0,0,1.2-1.2V55.953a6.54,6.54,0,0,0-1.161-3.729A7.716,7.716,0,0,0,39.246,38.5ZM18.771,44.23a10.244,10.244,0,0,1-6.952-7.169,1.2,1.2,0,0,0-.969-.879,1.265,1.265,0,0,1-.189-2.451,1.2,1.2,0,0,0,.827-1.14v-.182a9.617,9.617,0,0,0,5.4-2.6,7.831,7.831,0,0,0,1.626-2.435c2.738,3.342,8.346,5.139,12.547,5.139h.738v.075a1.2,1.2,0,0,0,.827,1.141,1.265,1.265,0,0,1-.189,2.45,1.2,1.2,0,0,0-.969.879,10.244,10.244,0,0,1-6.953,7.169,1.2,1.2,0,0,0-.851,1.283l.574,5.194a1.2,1.2,0,0,0,1.193,1.069H33.5a4.183,4.183,0,0,1,4.166,3.868H5.613a4.183,4.183,0,0,1,4.167-3.868h8.076a1.2,1.2,0,0,0,1.193-1.069l.573-5.194A1.2,1.2,0,0,0,18.771,44.23ZM5.6,63.85H9.434v4.412H5.6Zm6.233,4.412V62.65a1.2,1.2,0,0,0-1.2-1.2H5.6V58.044H37.676V61.45H32.644a1.2,1.2,0,0,0-1.2,1.2v5.613Zm22.01,0V63.85h3.832v4.412Zm3.165-17.872a6.541,6.541,0,0,0-3.51-1.017h-7l-.35-3.17a12.679,12.679,0,0,0,7.438-7.865,3.669,3.669,0,0,0,.607-6.5V28.956c0-.032,0-.065,0-.1v-.043a12.522,12.522,0,0,0-1.678-6.266,1.2,1.2,0,0,0-2.078,1.2,10.114,10.114,0,0,1,1.355,5.063v1.3h-.734c-4.757,0-11.714-2.742-11.79-7.039a1.2,1.2,0,1,0-2.4.043,6.707,6.707,0,0,1-1.681,5A7.051,7.051,0,0,1,11.49,29.97V28.818A10.147,10.147,0,0,1,21.62,18.695h.046a10.22,10.22,0,0,1,2.063.21,1.2,1.2,0,1,0,.486-2.35,12.588,12.588,0,0,0-2.548-.26H21.62A12.551,12.551,0,0,0,9.091,28.7c0,.034,0,.069,0,.1v3.031a3.669,3.669,0,0,0,.607,6.5A12.68,12.68,0,0,0,17.131,46.2l-.35,3.17h-7a6.539,6.539,0,0,0-3.51,1.017,5.316,5.316,0,0,1-.58-10.029,1.2,1.2,0,0,0,.743-1.11V29.583a15.207,15.207,0,1,1,30.413,0v9.669a1.2,1.2,0,0,0,.743,1.11,5.316,5.316,0,0,1-.579,10.029Z" transform="translate(0 -11.976)" fill="#fff"/>
    <path id="Trazado_100043" data-name="Trazado 100043" d="M340.7,41.212a9.845,9.845,0,0,1-6.985-2.92l-3.979-.229a1.2,1.2,0,0,1-.934-1.857l2.188-3.332a9.831,9.831,0,1,1,9.71,8.338Zm-8.751-5.426,2.382.137a1.2,1.2,0,0,1,.828.4,7.423,7.423,0,1,0-1.728-3.436,1.2,1.2,0,0,1-.172.9Z" transform="translate(-289.078 -20.399)" fill="#fff"/>
  </g>
</svg>
