<svg xmlns="http://www.w3.org/2000/svg" width="88" height="88" viewBox="0 0 88 88">
  <g id="Grupo_53047" data-name="Grupo 53047" transform="translate(-196 -6229)">
    <g id="Grupo_53045" data-name="Grupo 53045">
      <g id="Grupo_52908" data-name="Grupo 52908" transform="translate(0 369.043)">
        <circle id="Elipse_5302" data-name="Elipse 5302" cx="44" cy="44" r="44" transform="translate(196 5859.958)" fill="#ea3065"/>
        <g id="Grupo_52912" data-name="Grupo 52912" transform="translate(138 5864.958)">
          <path id="Trazado_100563" data-name="Trazado 100563" d="M117.914,49.357,107.78,45.978V43.922a10.947,10.947,0,0,0,4.54-6.168,10.829,10.829,0,0,1,2.4,6.955v1.928l1.569-1.121c.3-.213,7.361-5.319,7.361-10.728a8.918,8.918,0,0,0-1.279-4.8c-.8-1.514-1.7-3.23-1.7-8.1V14.4a6.4,6.4,0,0,0-11.312-4.1l-1.6,1.92a14.795,14.795,0,0,0-11.877,0l-1.6-1.92a6.4,6.4,0,0,0-11.313,4.1V21.89c0,4.871-.9,6.588-1.7,8.1A8.919,8.919,0,0,0,80,34.788C80,40.2,87.06,45.3,87.361,45.516l1.569,1.121V44.709a10.823,10.823,0,0,1,2.4-6.954,10.947,10.947,0,0,0,4.54,6.168v2.056L85.741,49.357a6.934,6.934,0,0,0-4.748,6.587V69.513h41.67V55.944a6.934,6.934,0,0,0-4.748-6.587Zm-4.3,11.517a3.8,3.8,0,0,1,0,5.371l-.872.872v.411H90.914v-.411l-.872-.872a3.8,3.8,0,0,1,0-5.371L90.914,60V49.723l1.984-.662v7.553a4.966,4.966,0,0,0,4.961,4.961H105.8a4.966,4.966,0,0,0,4.961-4.961V49.062l1.984.662V60Zm-.872-26.269V29.018a2.958,2.958,0,0,1,0,5.587Zm-1.85-23.033a4.413,4.413,0,0,1,7.8,2.825V21.89c0,5.361,1.068,7.392,1.925,9.025a7,7,0,0,1,1.052,3.873c0,3.077-3.175,6.294-5.1,7.96a12.608,12.608,0,0,0-2.845-6.393,4.964,4.964,0,0,0,2.982-4.543V25.859a14.87,14.87,0,0,0-7.148-12.69Zm3.835,14.286v2.01a4.909,4.909,0,0,0-2.976-1.018,11.338,11.338,0,0,1-8.9-4.277l-1.024-1.279L100.8,22.574a11.334,11.334,0,0,1-8.9,4.277,4.909,4.909,0,0,0-2.976,1.018v-2.01a12.9,12.9,0,0,1,25.8,0Zm-25.8,5.953a2.972,2.972,0,0,1,1.984-2.794V34.6A2.97,2.97,0,0,1,88.929,31.811ZM87.082,42.748c-1.923-1.666-5.1-4.883-5.1-7.96a7,7,0,0,1,1.052-3.873c.857-1.632,1.925-3.664,1.925-9.025V14.4a4.413,4.413,0,0,1,7.8-2.825l1.329,1.6a14.87,14.87,0,0,0-7.148,12.69v5.953a4.948,4.948,0,0,0,2.988,4.535A12.623,12.623,0,0,0,87.082,42.748Zm5.816-7.96v-6a13.281,13.281,0,0,0,8.929-4.352,13.281,13.281,0,0,0,8.929,4.352v6a8.929,8.929,0,1,1-17.859,0ZM101.827,45.7a10.841,10.841,0,0,0,3.969-.758v1.339l-3.969,3.969-3.969-3.969V44.943A10.841,10.841,0,0,0,101.827,45.7Zm-1.814,6.945a1,1,0,0,1,.7.291l1.112,1.112,1.112-1.112a1,1,0,0,1,.7-.291h.171a.993.993,0,0,1,.6,1.786l-2.581,1.935-2.581-1.935a.993.993,0,0,1,.6-1.786ZM96.6,47.828,99.47,50.7a2.965,2.965,0,0,0-1.413,5.319l3.77,2.829,3.77-2.829a2.965,2.965,0,0,0-1.413-5.319l2.871-2.871,1.716.572v8.214a2.98,2.98,0,0,1-2.976,2.976H97.859a2.98,2.98,0,0,1-2.976-2.976V48.4ZM82.976,55.944a4.954,4.954,0,0,1,3.392-4.706l2.561-.853v8.8l-.291.291a5.771,5.771,0,0,0-.108,8.057H82.976Zm37.7,11.584h-5.554a5.771,5.771,0,0,0-.108-8.057l-.291-.291v-8.8l2.561.853a4.955,4.955,0,0,1,3.392,4.706Z" transform="translate(0 0)" fill="#fff"/>
          <circle id="Elipse_3943" data-name="Elipse 3943" cx="1.125" cy="1.125" r="1.125" transform="translate(95.753 29.754)" fill="#fff"/>
          <circle id="Elipse_3944" data-name="Elipse 3944" cx="1.125" cy="1.125" r="1.125" transform="translate(105.505 29.754)" fill="#fff"/>
          <path id="Trazado_100564" data-name="Trazado 100564" d="M231.937,240h-1.984a1.984,1.984,0,1,1-3.969,0H224a3.969,3.969,0,1,0,7.937,0Z" transform="translate(-126.141 -203.228)" fill="#fff"/>
          <path id="Trazado_100565" data-name="Trazado 100565" d="M168,69.953a2.969,2.969,0,0,0,5.838.774,2.949,2.949,0,0,0,3.616-1.172,2.876,2.876,0,0,0,2.919,0,2.949,2.949,0,0,0,3.616,1.172,2.975,2.975,0,1,0,1.754-3.532,2.938,2.938,0,0,0-4.321-1.8,2.96,2.96,0,0,0-5.018,0,2.938,2.938,0,0,0-4.321,1.8A2.967,2.967,0,0,0,168,69.953Zm18.851-.992a.992.992,0,1,1-.992.992A.993.993,0,0,1,186.851,68.961Zm-3.969-1.984a.992.992,0,1,1-.992.992A.992.992,0,0,1,182.882,66.976Zm-3.969-.992a.992.992,0,1,1-.992.992A.993.993,0,0,1,178.914,65.984Zm-3.969.992a.992.992,0,1,1-.992.992A.993.993,0,0,1,174.945,66.976Zm-2.976,2.976a.992.992,0,1,1-.992-.992A.992.992,0,0,1,171.969,69.953Z" transform="translate(-77.086 -49.055)" fill="#fff"/>
        </g>
      </g>
    </g>
  </g>
</svg>
