<svg xmlns="http://www.w3.org/2000/svg" width="360" height="360" viewBox="0 0 360 360">
  <g id="Grupo_53046" data-name="Grupo 53046" transform="translate(7272 9256)">
    <rect id="Rect치ngulo_28714" data-name="Rect치ngulo 28714" width="360" height="360" transform="translate(-7272 -9256)" fill="none"/>
    <g id="Grupo_53041" data-name="Grupo 53041" transform="translate(-7447.5 -12106.743)">
      <g id="Image_Place_Holder" data-name="Image Place Holder" transform="translate(176.5 2964.568)" opacity="0.13">
        <rect id="Image_Place_Holder-2" data-name="Image Place Holder" width="359" height="243.015" rx="10" fill="#ea3065"/>
      </g>
      <g id="Grupo_49711" data-name="Grupo 49711" transform="translate(177.053 2854)">
        <g id="freepik--background-complete--inject-92" transform="translate(6.267 0)">
          <path id="Trazado_102451" data-name="Trazado 102451" d="M538.148,4001.3c-1.957-6.717-8.116-11.818-14.962-13.254s-14.176.537-19.889,4.534c-2.509,1.768-4.889,3.989-7.9,4.534-2.433.453-4.927-.242-7.4-.136-6.43.279-11.546,6.09-13.178,12.324s-.567,12.846.514,19.163l11.41,1.632c-1.851-2.426-.295-6.2,2.342-7.746s5.871-1.466,8.917-1.345l17.818.665c5.252.2,10.813.325,15.385-2.267C537.3,4016.031,540.106,4008.013,538.148,4001.3Z" transform="translate(-235.32 -3946.769)" fill="#ecd5df"/>
          <path id="Trazado_102452" data-name="Trazado 102452" d="M569.6,3969.781c-1.572-2.267-5.516-3.778-8.221-1.625a5.97,5.97,0,0,0-.582,7.557,5.66,5.66,0,0,0,7.352,1.33A5.349,5.349,0,0,0,569.6,3969.781Z" transform="translate(-256.269 -3941.769)" fill="#ecd5df"/>
          <path id="Trazado_102453" data-name="Trazado 102453" d="M519.826,4257.25c-12.937-8.577-16.224-25-16.073-39.837,0-2.479-.317-5.079.808-7.277s3.839-3.779,6.045-2.758c1.859.816,2.713,2.932,3.778,4.677a14.437,14.437,0,0,0,5.939,5.4c1.594.756,3.552,1.232,5.093.34,2.1-1.232,2.267-4.187,2.206-6.649q-.2-6.877-.416-13.76a22.858,22.858,0,0,1,.567-7.322,7.743,7.743,0,0,1,4.67-5.29c2.327-.755,5.252.567,5.8,2.969a21.579,21.579,0,0,1,.144,3.061,2.583,2.583,0,0,0,1.579,2.4,3,3,0,0,0,2.675-1.194,32.811,32.811,0,0,0,5.66-9.007,44.379,44.379,0,0,1,5.289-9.287c2.267-2.766,5.373-4.994,8.894-5.29s7.33,1.8,8.312,5.237-.967,7.02-3.1,9.876a54.987,54.987,0,0,1-11.161,11.206,4.534,4.534,0,0,0-1.866,2.1c-.491,1.655,1.1,3.249,2.735,3.779,1.851.566,3.839.325,5.758.506s4.028.975,4.8,2.773c1.065,2.493-.975,5.176-3.023,6.952a47.077,47.077,0,0,1-13.692,8.35,15.989,15.989,0,0,0-5.116,2.645c-1.428,1.307-2.267,3.537-1.33,5.251s3.2,2.215,5.093,1.813,3.559-1.466,5.35-2.191c3.348-1.36,7.723-1.232,9.959,1.64a7.767,7.767,0,0,1,1,6.868,17.951,17.951,0,0,1-3.582,6.167,47.362,47.362,0,0,1-19.866,14.689c-7.783,2.917-15.03,3.824-22.9,1.164" transform="translate(-242.584 -3990.953)" fill="#ecd5df"/>
          <path id="Trazado_102454" data-name="Trazado 102454" d="M529.8,4248.511a220.411,220.411,0,0,1,8.184-23.954l2.463-6.174c.816-2.018,1.625-4.027,2.531-5.939a111.438,111.438,0,0,1,5.864-10.7c2.033-3.31,4.081-6.377,6.045-9.234s3.778-5.471,5.6-7.791a87.418,87.418,0,0,1,9.234-10.307c1.186-1.126,2.138-1.972,2.788-2.531l.756-.635a2.025,2.025,0,0,1,.264-.2,1.635,1.635,0,0,1-.234.234l-.71.672c-.635.582-1.564,1.451-2.728,2.592a91.582,91.582,0,0,0-9.158,10.375c-1.776,2.327-3.612,4.958-5.539,7.814s-3.952,5.931-5.97,9.241a111.563,111.563,0,0,0-5.818,10.662c-.9,1.9-1.7,3.9-2.516,5.924l-2.463,6.166a226.757,226.757,0,0,0-8.2,23.894" transform="translate(-248.957 -3991.6)" fill="#e0e0e0"/>
          <path id="Trazado_102455" data-name="Trazado 102455" d="M546.041,4217.075a5.074,5.074,0,0,1-.264-1.043c-.144-.68-.325-1.663-.529-2.887-.4-2.441-.854-5.8-1.307-9.574s-.975-7.119-1.421-9.552c-.212-1.209-.4-2.191-.536-2.872a4.977,4.977,0,0,1-.166-1.065,4.555,4.555,0,0,1,.333,1.028c.2.665.431,1.64.688,2.849.521,2.426,1.073,5.8,1.549,9.552s.884,7.035,1.2,9.589c.151,1.149.28,2.124.385,2.9A4.686,4.686,0,0,1,546.041,4217.075Z" transform="translate(-251.895 -3996.252)" fill="#e0e0e0"/>
          <path id="Trazado_102456" data-name="Trazado 102456" d="M578.91,4216.924a6.657,6.657,0,0,1-1.262.181c-.809.091-1.98.219-3.423.423-2.894.386-6.869,1.051-11.221,1.979s-8.252,1.958-11.055,2.773c-1.406.4-2.531.755-3.31.99a6.61,6.61,0,0,1-1.232.332,7.1,7.1,0,0,1,1.171-.5c.756-.295,1.882-.7,3.279-1.133,2.788-.9,6.687-1.973,11.055-2.91a110.723,110.723,0,0,1,11.274-1.858c1.451-.159,2.63-.234,3.453-.272A6.526,6.526,0,0,1,578.91,4216.924Z" transform="translate(-253.261 -4002.804)" fill="#e0e0e0"/>
          <path id="Trazado_102457" data-name="Trazado 102457" d="M524.828,4259.836a1.522,1.522,0,0,1-.227-.378l-.567-1.134c-.491-.982-1.164-2.425-1.972-4.224-1.609-3.582-3.688-8.614-5.9-14.191s-4.239-10.617-5.773-14.229l-1.836-4.262-.491-1.163a1.764,1.764,0,0,1-.144-.424,1.685,1.685,0,0,1,.227.385l.567,1.126c.491.99,1.164,2.433,1.972,4.224,1.609,3.589,3.688,8.615,5.9,14.2s4.239,10.617,5.773,14.229l1.836,4.277.491,1.171A1.735,1.735,0,0,1,524.828,4259.836Z" transform="translate(-243.611 -4003.522)" fill="#e0e0e0"/>
          <path id="Trazado_102458" data-name="Trazado 102458" d="M572.009,4253.493a1.485,1.485,0,0,1-.416.189l-1.209.438-4.466,1.564c-3.778,1.323-8.962,3.219-14.69,5.29s-10.949,3.937-14.75,5.184c-1.9.627-3.438,1.119-4.534,1.436l-1.239.355a1.616,1.616,0,0,1-.438.091,1.654,1.654,0,0,1,.416-.182l1.209-.438,4.466-1.564c3.778-1.322,8.962-3.219,14.69-5.29s10.942-3.944,14.743-5.191c1.9-.619,3.446-1.11,4.534-1.428l1.239-.355A1.8,1.8,0,0,1,572.009,4253.493Z" transform="translate(-249.072 -4011.747)" fill="#e0e0e0"/>
          <path id="Trazado_102459" data-name="Trazado 102459" d="M160.14,4178.725s-5.554,2.69,1.851,14.357a166.876,166.876,0,0,0,12.294,17.38s1.375,2.743-.975,3.408-7.708.317-8.5,3.347,1.647,5.8,6.363,7.9,14.871,7.073,15.785,7.557,1.882,1.693.348,2.4-13.284,3.06-11.833,8.569,15.528,9.128,17.04,9.574,1.972,1.066,1.927,1.821-4.065,1.239-7.383,2.04-7.02,2.32-5.917,5.434,9.823,9.067,29.583,9.136l9.166-.56,4.254-8.191c8.033-18.074,6.189-28.442,3.778-30.717s-5.29.477-7.375,3.167-4.126,6.188-4.9,5.894-1.141-.915-.907-2.494,2.652-15.937-1.776-19.519-11.388,6.2-12.642,7.307-2.01-.294-2.04-1.3-.408-12.325-.385-17.486-1.39-8.509-4.6-9.068c-3.091-.521-4.965,4.534-6.536,6.377s-3.514-.506-3.514-.506a159.713,159.713,0,0,0-10.768-18.332c-7.609-11.531-12.461-7.443-12.461-7.443" transform="translate(-158.141 -3993.32)" fill="#ecd5df"/>
          <path id="Trazado_102460" data-name="Trazado 102460" d="M223.344,4276.825c-5.554-8.5-15.2-23.772-23.516-36.838s-15.869-24.875-21.385-33.406c-2.758-4.247-4.987-7.693-6.536-10.088-.756-1.179-1.368-2.1-1.776-2.743l-.461-.718c-.1-.159-.144-.249-.144-.249l.174.233.476.7,1.821,2.713c1.579,2.365,3.839,5.8,6.619,10.042,5.554,8.494,13.126,20.3,21.453,33.362s17.924,28.352,23.425,36.875" transform="translate(-160.923 -3996.913)" fill="#e0e0e0"/>
          <path id="Trazado_102461" data-name="Trazado 102461" d="M176.847,4230.933a2.657,2.657,0,0,1,.657.113c.416.09,1.013.242,1.753.438,1.511.393,3.5.981,5.72,1.67l5.682,1.8,1.723.529a3.774,3.774,0,0,1,.627.219,2.394,2.394,0,0,1-.657-.114c-.416-.09-1.013-.241-1.746-.445-1.511-.4-3.491-1.021-5.713-1.708l-5.69-1.746-1.73-.529A3.365,3.365,0,0,1,176.847,4230.933Z" transform="translate(-162.712 -4006.235)" fill="#e0e0e0"/>
          <path id="Trazado_102462" data-name="Trazado 102462" d="M199,4230.271c-.076,0,.952-4.247,2.267-9.438s2.516-9.385,2.592-9.37-.96,4.247-2.312,9.445S199.071,4230.293,199,4230.271Z" transform="translate(-168.123 -4001.477)" fill="#e0e0e0"/>
          <path id="Trazado_102463" data-name="Trazado 102463" d="M214.717,4258.781a3.179,3.179,0,0,1,.317-.6c.257-.423.574-.952.945-1.579.8-1.337,1.889-3.189,3.023-5.29s2.093-4.013,2.781-5.411c.325-.657.6-1.209.809-1.655a2.858,2.858,0,0,1,.332-.589,3.69,3.69,0,0,1-.227.635c-.166.408-.408.99-.756,1.7-.635,1.42-1.572,3.362-2.705,5.456s-2.267,3.93-3.1,5.244c-.423.658-.756,1.179-1.02,1.511A3.082,3.082,0,0,1,214.717,4258.781Z" transform="translate(-171.966 -4009.343)" fill="#e0e0e0"/>
          <path id="Trazado_102464" data-name="Trazado 102464" d="M193.627,4263.116a2.313,2.313,0,0,1,.627-.045h7.33c2.2,0,4.179.067,5.614.113l1.708.068a2.24,2.24,0,0,1,.62.067,3.458,3.458,0,0,1-.62.046h-7.33c-2.2,0-4.179-.068-5.622-.113l-1.7-.068A3.354,3.354,0,0,1,193.627,4263.116Z" transform="translate(-166.812 -4014.086)" fill="#e0e0e0"/>
          <path id="Trazado_102465" data-name="Trazado 102465" d="M204.417,4288.973a4.836,4.836,0,0,1,.8-.053l2.184-.038h7.209c2.819,0,5.357,0,7.2.06L224,4289a4.078,4.078,0,0,1,.8.06,4.826,4.826,0,0,1-.8.053h-9.385c-2.811,0-5.365,0-7.209-.061l-2.184-.053A3.664,3.664,0,0,1,204.417,4288.973Z" transform="translate(-169.449 -4020.395)" fill="#e0e0e0"/>
          <path id="Trazado_102466" data-name="Trazado 102466" d="M230.747,4282.653a5.316,5.316,0,0,1,.385-.756c.287-.529.665-1.225,1.126-2.056.945-1.73,2.267-4.126,3.6-6.8s2.539-5.146,3.378-6.93l.99-2.123a5.252,5.252,0,0,1,.393-.756,5.8,5.8,0,0,1-.295.809c-.2.515-.514,1.254-.907,2.161-.756,1.807-1.934,4.292-3.3,6.982s-2.7,5.07-3.688,6.8c-.5.847-.914,1.512-1.209,2A4.336,4.336,0,0,1,230.747,4282.653Z" transform="translate(-175.883 -4014.127)" fill="#e0e0e0"/>
          <path id="Trazado_102467" data-name="Trazado 102467" d="M284.569,4117.036a16.948,16.948,0,0,1-7.723-6.348,7.65,7.65,0,0,1-1.262-5.025,3.984,3.984,0,0,1,3.453-3.46,4.183,4.183,0,0,1,3.174,1.511,12.484,12.484,0,0,1,1.889,3.068,5.291,5.291,0,0,1,2.9-4.2,3.884,3.884,0,0,1,4.7,1.323,5.025,5.025,0,0,1-.174,5.138,23.457,23.457,0,0,1-3.332,3.778c-1.511,1.511-3.627,2.758-3.627,4.254" transform="translate(-186.83 -3974.779)" fill="#ecd5df"/>
          <path id="Trazado_102468" data-name="Trazado 102468" d="M570.778,4091.224a11.718,11.718,0,0,1-5.342-4.4,5.3,5.3,0,0,1-.877-3.476,2.758,2.758,0,0,1,2.388-2.418,2.89,2.89,0,0,1,2.2,1.027,8.626,8.626,0,0,1,1.315,2.131,3.666,3.666,0,0,1,2-2.917,2.7,2.7,0,0,1,3.257.922,3.489,3.489,0,0,1-.121,3.559,17.094,17.094,0,0,1-2.3,2.6c-1.058,1.065-2.516,1.912-2.516,2.947" transform="translate(-257.445 -3969.581)" fill="#f5f5f5"/>
          <path id="Trazado_102469" data-name="Trazado 102469" d="M394.187,4066.079a10.588,10.588,0,0,1-4.813-3.967,4.762,4.762,0,0,1-.756-3.136,2.494,2.494,0,0,1,2.154-2.153,2.611,2.611,0,0,1,1.98.929,7.737,7.737,0,0,1,1.179,1.912,3.3,3.3,0,0,1,1.806-2.622,2.426,2.426,0,0,1,2.932.831,3.119,3.119,0,0,1-.106,3.2,14.542,14.542,0,0,1-2.078,2.343c-.952.959-2.267,1.723-2.267,2.66" transform="translate(-214.453 -3963.69)" fill="#ecd5df"/>
          <path id="Trazado_102470" data-name="Trazado 102470" d="M174.956,4086.189a18.972,18.972,0,0,1-8.622-7.1,8.541,8.541,0,0,1-1.421-5.622,4.473,4.473,0,0,1,3.861-3.869,4.712,4.712,0,0,1,3.552,1.67,14.1,14.1,0,0,1,2.116,3.431,5.887,5.887,0,0,1,3.234-4.7,4.345,4.345,0,0,1,5.29,1.511,5.658,5.658,0,0,1-.2,5.743,26.5,26.5,0,0,1-3.725,4.179c-1.708,1.708-4.058,3.075-4.058,4.753" transform="translate(-159.786 -3966.812)" fill="#f5f5f5"/>
          <path id="Trazado_102471" data-name="Trazado 102471" d="M478.13,4130.018a16.236,16.236,0,0,1-7.367-6.045,7.3,7.3,0,0,1-1.217-4.8,3.823,3.823,0,0,1,3.3-3.3,4.033,4.033,0,0,1,3.023,1.42,12.006,12.006,0,0,1,1.806,2.932,5.042,5.042,0,0,1,2.766-4.012,3.717,3.717,0,0,1,4.5,1.217,4.8,4.8,0,0,1-.166,4.911,22.708,22.708,0,0,1-3.181,3.59c-1.458,1.466-3.461,2.629-3.461,4.065" transform="translate(-234.226 -3978.119)" fill="#ecd5df"/>
          <path id="Trazado_102472" data-name="Trazado 102472" d="M183.815,4010.213l.756,1.383a9.282,9.282,0,0,0,3.68,3.7l1.383.755-1.383.756a9.173,9.173,0,0,0-3.68,3.68l-.756,1.383-.756-1.383a9.271,9.271,0,0,0-3.68-3.68l-1.383-.756,1.383-.755a9.368,9.368,0,0,0,3.68-3.68Z" transform="translate(-162.993 -3952.3)" fill="#ecd5df"/>
          <path id="Trazado_102473" data-name="Trazado 102473" d="M489.4,3946.413l.756,1.382a9.214,9.214,0,0,0,3.672,3.68l1.383.756-1.383.755a9.3,9.3,0,0,0-3.672,3.68l-.756,1.383-.756-1.383a9.3,9.3,0,0,0-3.672-3.68l-1.383-.755,1.383-.756a9.2,9.2,0,0,0,3.672-3.68Z" transform="translate(-237.666 -3936.71)" fill="#ecd5df"/>
          <path id="Trazado_102474" data-name="Trazado 102474" d="M231.5,4021.752l1.1,2a13.407,13.407,0,0,0,5.29,5.29l2,1.1-2,1.1a13.4,13.4,0,0,0-5.29,5.29l-1.1,2-1.088-2a13.365,13.365,0,0,0-5.327-5.29l-1.995-1.035,1.995-1.1a13.362,13.362,0,0,0,5.327-5.29Z" transform="translate(-174.011 -3955.12)" fill="#ecd5df"/>
          <path id="Trazado_102475" data-name="Trazado 102475" d="M225.6,3960.933l.408.755a5.022,5.022,0,0,0,2.018,2.01l.756.416-.756.416a5.1,5.1,0,0,0-2.018,2.01l-.408.756-.416-.756a5.1,5.1,0,0,0-2.018-2.01l-.756-.416.756-.416a5.019,5.019,0,0,0,2.04-2.01Z" transform="translate(-173.845 -3940.259)" fill="#f5f5f5"/>
          <path id="Trazado_102476" data-name="Trazado 102476" d="M515.816,3933.573l.416.755a5.071,5.071,0,0,0,2.01,2.018l.756.408-.756.416a5.068,5.068,0,0,0-2.01,2.018l-.416.755-.416-.755a5.051,5.051,0,0,0-2.018-2.018l-.756-.416.756-.408a5.062,5.062,0,0,0,2.01-2.018Z" transform="translate(-244.762 -3933.573)" fill="#f5f5f5"/>
        </g>
        <g id="freepik--Floor--inject-92" transform="translate(0 280.729)">
          <path id="Trazado_102477" data-name="Trazado 102477" d="M488.043,4305.279c0,.105-75.715.2-169.09.2s-169.105-.091-169.105-.2,75.693-.2,169.105-.2S488.043,4305.166,488.043,4305.279Z" transform="translate(-149.847 -4305.083)" fill="#263238"/>
        </g>
        <g id="freepik--House--inject-92" transform="translate(31.775 40.51)">
          <path id="Trazado_102478" data-name="Trazado 102478" d="M465.567,4062.8v-22.888h28.866v48.278Z" transform="translate(-258.77 -4000.068)" fill="#69f"/>
          <rect id="Rect치ngulo_28391" data-name="Rect치ngulo 28391" width="33.815" height="9.952" transform="translate(203.926 38.493)" fill="#69f"/>
          <path id="Trazado_102479" data-name="Trazado 102479" d="M495.541,4051.229c0,.113-7.556.2-16.851.2s-16.843-.083-16.843-.2,7.556-.2,16.843-.2S495.541,4051.124,495.541,4051.229Z" transform="translate(-257.861 -4002.784)" fill="#263238"/>
          <path id="Trazado_102480" data-name="Trazado 102480" d="M191.9,4099.434l131.014-112.251,150.547,112.681-12.619,10.821-137.5-100.213-118.19,100.077Z" transform="translate(-191.897 -3987.183)" fill="#69f"/>
          <g id="Grupo_49697" data-name="Grupo 49697" transform="translate(131.013)" opacity="0.3">
            <path id="Trazado_102481" data-name="Trazado 102481" d="M365.7,4010.472l-.423-23.289,150.547,112.681-12.619,10.821Z" transform="translate(-365.277 -3987.183)"/>
          </g>
          <path id="Trazado_102482" data-name="Trazado 102482" d="M365.661,4010.472a4.533,4.533,0,0,1-.076-.915c0-.672-.053-1.511-.083-2.494-.068-2.191-.151-5.062-.249-8.229s-.144-6.128-.136-8.237c0-1.05,0-1.9.045-2.493a4.012,4.012,0,0,1,.076-.922,4.545,4.545,0,0,1,.076.922c0,.665.053,1.511.083,2.493.068,2.191.151,5.056.249,8.229s.144,6.121.136,8.229c0,1.058,0,1.912-.045,2.5A3.83,3.83,0,0,1,365.661,4010.472Z" transform="translate(-234.224 -3987.183)" fill="#263238"/>
        </g>
        <g id="freepik--Characters--inject-92" transform="translate(23.908 83.465)">
          <path id="Trazado_102483" data-name="Trazado 102483" d="M320.023,4078.013a36.851,36.851,0,0,1-2.871-7.753,12.421,12.421,0,0,1,.756-8.1,43.942,43.942,0,0,0,2.418-4.194c.809-2.07.612-4.534,1.995-6.3,2.146-2.735,6.468-1.9,9.672-3.242,2.5-1.042,4.315-3.445,6.922-4.171,2.267-.627,4.7.166,6.8,1.186s4.209,2.267,6.536,2.7a46.846,46.846,0,0,0,5.048.227,6.652,6.652,0,0,1,4.587,1.8c1.133,1.247,1.292,3.461,0,4.5,2.97-.37,5.622,2.683,5.456,5.668s-2.516,5.523-5.289,6.649a18.223,18.223,0,0,1-8.841.756c-8.4-1.005-16.745-4.534-22.231-11.01" transform="translate(-214.549 -4044.028)" fill="#263238"/>
          <path id="Trazado_102484" data-name="Trazado 102484" d="M321.518,4069.5l-7.481,41.515c-1.269,7.058.892,18.136,8.826,19.058h0c8.478.936,14.425-1.511,15.612-8.116.559-3.128,1.3-12.242,1.383-12.559,0,0,10.745.907,13.39-9.416,1.285-4.988,3.083-15.476,4.594-24.989a19.85,19.85,0,0,0-14.916-22.405l-1-.242C331.024,4050.359,323.211,4058.519,321.518,4069.5Z" transform="translate(-213.793 -4045.987)" fill="#ffbe9d"/>
          <path id="Trazado_102485" data-name="Trazado 102485" d="M344.27,4125.582a25.786,25.786,0,0,1-12.513-7.269s1.64,8.833,12.2,10.412Z" transform="translate(-218.206 -4062.18)" fill="#eb996e"/>
          <path id="Trazado_102486" data-name="Trazado 102486" d="M362.852,4091.479a1.51,1.51,0,0,1-1.791,1.141,1.458,1.458,0,0,1-1.206-1.672l0-.027a1.512,1.512,0,0,1,1.791-1.149,1.466,1.466,0,0,1,1.205,1.687Z" transform="translate(-225.067 -4055.197)" fill="#263238"/>
          <path id="Trazado_102487" data-name="Trazado 102487" d="M365.655,4087.655c-.227.151-1.149-.952-2.735-1.338s-2.955.128-3.076-.105c-.068-.106.2-.408.8-.658a4.25,4.25,0,0,1,2.524-.151,4.037,4.037,0,0,1,2.123,1.308C365.723,4087.2,365.768,4087.594,365.655,4087.655Z" transform="translate(-225.066 -4054.108)" fill="#263238"/>
          <path id="Trazado_102488" data-name="Trazado 102488" d="M343.064,4087.192a1.512,1.512,0,0,1-1.783,1.148,1.459,1.459,0,0,1-1.208-1.672l.006-.036a1.512,1.512,0,0,1,1.791-1.141,1.444,1.444,0,0,1,1.2,1.649C343.071,4087.158,343.068,4087.174,343.064,4087.192Z" transform="translate(-220.233 -4054.151)" fill="#263238"/>
          <path id="Trazado_102489" data-name="Trazado 102489" d="M344.863,4083.012c-.227.144-1.149-.952-2.743-1.337s-2.947.129-3.076-.106c-.06-.113.2-.415.809-.657a4.116,4.116,0,0,1,2.516-.151,3.957,3.957,0,0,1,2.123,1.3C344.893,4082.559,344.976,4082.944,344.863,4083.012Z" transform="translate(-219.984 -4052.972)" fill="#263238"/>
          <path id="Trazado_102490" data-name="Trazado 102490" d="M350.627,4096.908a10.814,10.814,0,0,1,2.7.167c.416.052.824.067.96-.189a2.142,2.142,0,0,0,0-1.278l-.453-3.385c-.6-4.806-.922-8.728-.756-8.75s.831,3.861,1.428,8.675c.144,1.187.272,2.313.393,3.393a2.4,2.4,0,0,1-.174,1.648,1.065,1.065,0,0,1-.816.43,2.763,2.763,0,0,1-.71-.076A10.591,10.591,0,0,1,350.627,4096.908Z" transform="translate(-222.817 -4053.667)" fill="#263238"/>
          <path id="Trazado_102491" data-name="Trazado 102491" d="M343.859,4101.2c.264.045-.151,1.775,1.028,3.362s3.023,1.844,3.023,2.085c0,.113-.491.235-1.27.068a4.415,4.415,0,0,1-2.547-1.646,3.853,3.853,0,0,1-.756-2.789C343.451,4101.542,343.746,4101.164,343.859,4101.2Z" transform="translate(-221.029 -4057.999)" fill="#263238"/>
          <path id="Trazado_102492" data-name="Trazado 102492" d="M346.892,4074.976c-.257.393-1.8-.2-3.718-.431s-3.559-.083-3.71-.537c-.068-.211.295-.552,1.005-.824a6.5,6.5,0,0,1,5.66.756C346.749,4074.363,347.013,4074.787,346.892,4074.976Z" transform="translate(-220.087 -4051.071)" fill="#263238"/>
          <path id="Trazado_102493" data-name="Trazado 102493" d="M366.516,4081.353c-.363.295-1.368-.347-2.683-.687s-2.494-.348-2.66-.793c-.068-.2.2-.529.756-.755a4.012,4.012,0,0,1,4.3,1.186C366.622,4080.795,366.682,4081.2,366.516,4081.353Z" transform="translate(-225.391 -4052.552)" fill="#263238"/>
          <path id="Trazado_102494" data-name="Trazado 102494" d="M320.016,4085.215c-.159-.121-6.6-3.838-8.093,3.3s5.97,7.163,6.045,6.958S320.016,4085.215,320.016,4085.215Z" transform="translate(-213.311 -4053.83)" fill="#ffbe9d"/>
          <path id="Trazado_102495" data-name="Trazado 102495" d="M316.947,4093.015a2.585,2.585,0,0,1-.37.113,1.264,1.264,0,0,1-.937-.174,3.137,3.137,0,0,1-.839-3.061,4.083,4.083,0,0,1,.718-1.7,1.509,1.509,0,0,1,1.133-.755.649.649,0,0,1,.665.5.739.739,0,0,1,0,.37c0,.023.174-.09.181-.393a.828.828,0,0,0-.189-.507.94.94,0,0,0-.65-.324,1.782,1.782,0,0,0-1.511.831,4.375,4.375,0,0,0-.854,1.9c-.249,1.451.2,2.947,1.171,3.461a1.34,1.34,0,0,0,1.171.053C316.9,4093.2,316.97,4093.052,316.947,4093.015Z" transform="translate(-213.922 -4054.549)" fill="#eb996e"/>
          <path id="Trazado_102496" data-name="Trazado 102496" d="M362.288,4064.921c-1.337,2.607-7.723,3.37-12.309,1.775-4.232-1.511-5.667-4.254-8.312-6.74-1.662-1.572-1.662-1.572-4.458-1.98-2.267-.325-4.186,1.859-5.97,3.295.718,5.75-2.055,11.3-4.745,16.428a2.848,2.848,0,0,1-1.224,1.428c-.99.446-2.123-.363-2.667-1.307a8.707,8.707,0,0,1-.756-5.085,29.975,29.975,0,0,1,2.841-11.463,20.307,20.307,0,0,1,7.881-8.675,19.283,19.283,0,0,1,14.357-1.776,23.717,23.717,0,0,1,12.211,8.04,13.78,13.78,0,0,1,3.128,6.045" transform="translate(-215.768 -4045.528)" fill="#263238"/>
          <path id="Trazado_102497" data-name="Trazado 102497" d="M355.087,4089.644c.06,0,.068-.619.393-1.655a6.99,6.99,0,0,1,2.7-3.589,6.8,6.8,0,0,1,6.4-.65,6.686,6.686,0,0,1-.491,12.551,6.8,6.8,0,0,1-6.325-1.179,6.938,6.938,0,0,1-2.388-3.778c-.242-1.065-.2-1.686-.257-1.686s-.038.151-.053.446a5.314,5.314,0,0,0,.091,1.285,6.927,6.927,0,0,0,2.35,4.065,7.143,7.143,0,0,0,6.74,1.375,7.071,7.071,0,0,0,3.468-2.365,7.187,7.187,0,0,0-9.589-10.488l-.151.1a6.953,6.953,0,0,0-2.675,3.854,5.248,5.248,0,0,0-.2,1.277C355.065,4089.493,355.065,4089.644,355.087,4089.644Z" transform="translate(-223.9 -4053.491)" fill="#263238"/>
          <path id="Trazado_102498" data-name="Trazado 102498" d="M332.7,4084.775c.06,0,.06-.619.393-1.662a6.939,6.939,0,0,1,2.7-3.582,6.8,6.8,0,0,1,6.393-.65,6.676,6.676,0,0,1,2.667,10.345,6.621,6.621,0,0,1-3.189,2.206,6.749,6.749,0,0,1-6.317-1.179,6.975,6.975,0,0,1-2.388-3.778c-.249-1.058-.2-1.678-.257-1.678s-.038.151-.06.446a5.692,5.692,0,0,0,.091,1.277,6.917,6.917,0,0,0,2.35,4.073,7.179,7.179,0,0,0,10.115-.866c.035-.041.068-.083.1-.124a7.19,7.19,0,0,0-9.588-10.5c-.051.035-.1.07-.153.106a6.944,6.944,0,0,0-2.683,3.861,5.642,5.642,0,0,0-.2,1.27C332.666,4084.616,332.673,4084.775,332.7,4084.775Z" transform="translate(-218.419 -4052.301)" fill="#263238"/>
          <path id="Trazado_102499" data-name="Trazado 102499" d="M351.275,4087.906c.068.144,1-.241,2.048.128s1.511,1.24,1.685,1.164.045-.3-.181-.672a2.546,2.546,0,0,0-3.023-1.043C351.427,4087.635,351.238,4087.839,351.275,4087.906Z" transform="translate(-222.974 -4054.609)" fill="#263238"/>
          <path id="Trazado_102500" data-name="Trazado 102500" d="M320.037,4083.974a22.67,22.67,0,0,0,5.108.43,23.509,23.509,0,0,0,5.123-.151,23.187,23.187,0,0,0-5.108-.431A22.9,22.9,0,0,0,320.037,4083.974Z" transform="translate(-215.342 -4053.744)" fill="#263238"/>
          <path id="Trazado_102501" data-name="Trazado 102501" d="M213.9,4160.8l13.972,15.869,17.2-15.869,13.957,16.3s-15.755,16.36-24.12,19.949c-7.859,3.37-11.592.347-14.289-.333s-16.987-26.364-16.987-26.364Z" transform="translate(-186.896 -4072.563)" fill="#ffbe9d"/>
          <path id="Trazado_102502" data-name="Trazado 102502" d="M217.229,4135.836s-.756,1.111-2.72,4.625-1.768,7.708-2.841,11.017c-1.285,3.99-2.531,4.738-2.531,4.738l-10.919,7.413s-5.289-3.257-7.073-6.227-4.662-13.178-4.662-13.178l-4.98-8.939a1.513,1.513,0,0,1,.083-.755,2.418,2.418,0,0,1,4.126-.174h0s1.693-1.511,4.534.2a3.745,3.745,0,0,1,2.123,3.422c1.39.658,8.07,11.139,9.74,8.426a11.088,11.088,0,0,1,2.909-3.355c5.29-2.8,4.315-2.8,6.582-5.78S216.73,4133.6,217.229,4135.836Z" transform="translate(-181.486 -4065.838)" fill="#ffbe9d"/>
          <path id="Trazado_102503" data-name="Trazado 102503" d="M190.9,4149.312a1.9,1.9,0,0,1-.068-.445c0-.341-.068-.756-.113-1.292-.091-1.171-.2-2.773-.348-4.738-.068-1.005-.136-2.1-.219-3.272,0-.589-.076-1.2-.113-1.828a5.3,5.3,0,0,1,.091-1.988,1.6,1.6,0,0,1,.68-.876,1.829,1.829,0,0,1,1.1-.242,2.539,2.539,0,0,1,1.889,1.164,6.293,6.293,0,0,1,.756,2.116c.159.756.325,1.466.484,2.214.861,3.959,1.662,7.67,2.342,10.828l-.174-.128a10.271,10.271,0,0,1,4.534.756,10.605,10.605,0,0,1,3.023,1.836,10.07,10.07,0,0,1,1.511,1.67c.151.211.249.393.317.506s.106.174.1.181a14.565,14.565,0,0,0-2.07-2.207,10.73,10.73,0,0,0-2.977-1.73,10.186,10.186,0,0,0-4.383-.673h-.151v-.144c-.7-3.158-1.511-6.869-2.388-10.82-.166-.756-.325-1.512-.491-2.214a5.892,5.892,0,0,0-.756-1.988,2.122,2.122,0,0,0-1.594-1,1.277,1.277,0,0,0-1.413.869,5.226,5.226,0,0,0-.091,1.852c0,.627.068,1.231.1,1.82.06,1.179.121,2.268.174,3.28.091,1.964.166,3.574.219,4.746v1.292A2.534,2.534,0,0,1,190.9,4149.312Z" transform="translate(-183.563 -4066.165)" fill="#eb996e"/>
          <path id="Trazado_102504" data-name="Trazado 102504" d="M212.953,4145.152a9.014,9.014,0,0,1-1.156.846,10.129,10.129,0,0,0-2.38,2.388,6.993,6.993,0,0,0-1.164,3.128,12.261,12.261,0,0,1-.1,1.421,3.536,3.536,0,0,1-.181-1.443,6.357,6.357,0,0,1,1.118-3.325,8.544,8.544,0,0,1,2.554-2.426A3.72,3.72,0,0,1,212.953,4145.152Z" transform="translate(-187.956 -4068.738)" fill="#eb996e"/>
          <path id="Trazado_102505" data-name="Trazado 102505" d="M189.573,4140.017a26.911,26.911,0,0,1-1.451-2.743,14.918,14.918,0,0,1-1.315-2.811,10.616,10.616,0,0,1,1.67,2.622A8.439,8.439,0,0,1,189.573,4140.017Z" transform="translate(-182.786 -4066.127)" fill="#eb996e"/>
          <path id="Trazado_102506" data-name="Trazado 102506" d="M244.115,4191.642a33.636,33.636,0,0,0-3.415-5.463,34.413,34.413,0,0,0-4.662-4.435,6.685,6.685,0,0,1,1.632,1,18.922,18.922,0,0,1,3.34,3.189,18.664,18.664,0,0,1,2.456,3.914A6.3,6.3,0,0,1,244.115,4191.642Z" transform="translate(-194.816 -4077.68)" fill="#eb996e"/>
          <path id="Trazado_102507" data-name="Trazado 102507" d="M299.638,4123.453s-20.221,5.395-29.055,11.4c-4.413,3.022-19.647,21.014-19.647,21.014l15.219,22.549,15.725-15.423Z" transform="translate(-198.457 -4063.436)" fill="#e0e0e0"/>
          <path id="Trazado_102508" data-name="Trazado 102508" d="M280.1,4165.481l5.206,60.633,12.385.861h60.376l-.159-62.386-2.66-27.445-23.251-8.864c-8.259,8.032-21.513,6.007-25.284-4.677Z" transform="translate(-205.582 -4063.473)" fill="#e0e0e0"/>
          <path id="Trazado_102509" data-name="Trazado 102509" d="M278.043,4154.022c.106,0,.884,8.313,1.73,18.574s1.451,18.6,1.345,18.62-.884-8.312-1.738-18.582S277.937,4154.03,278.043,4154.022Z" transform="translate(-205.077 -4070.905)" fill="#263238"/>
          <g id="Grupo_49698" data-name="Grupo 49698" transform="translate(98.204 138.49)" opacity="0.3">
            <path id="Trazado_102510" data-name="Trazado 102510" d="M312.754,4240.353l-1.307.491a33.665,33.665,0,0,0,25.027-13.541C328.91,4232.313,321.263,4237.285,312.754,4240.353Z" transform="translate(-311.447 -4227.303)"/>
          </g>
          <path id="Trazado_102511" data-name="Trazado 102511" d="M336.76,4202.083a1.309,1.309,0,0,1-.144.37c-.136.272-.295.612-.5,1.028s-.484.982-.839,1.586-.756,1.314-1.2,2.063a56.877,56.877,0,0,1-3.529,5.107,61.721,61.721,0,0,1-5.033,5.69,62.428,62.428,0,0,1-5.735,4.995,55.626,55.626,0,0,1-5.131,3.491c-.756.476-1.458.846-2.07,1.186s-1.149.612-1.594.824l-1.028.491a1.335,1.335,0,0,1-.37.144,1.622,1.622,0,0,1,.332-.211l.99-.56c.438-.227.967-.513,1.564-.884s1.3-.756,2.033-1.224a60.013,60.013,0,0,0,5.055-3.544,65.4,65.4,0,0,0,5.675-4.987,68.69,68.69,0,0,0,5.033-5.637c1.428-1.836,2.637-3.544,3.574-5.033.491-.755.884-1.42,1.247-2.017s.657-1.126.892-1.557l.559-.99A3.039,3.039,0,0,1,336.76,4202.083Z" transform="translate(-212.788 -4082.65)" fill="#263238"/>
          <path id="Trazado_102512" data-name="Trazado 102512" d="M221.738,4307.044l4.776,21.762s-20.742,10.564-20.289,14.675l42.792-6.151-6.045-34.208Z" transform="translate(-187.529 -4107.34)" fill="#0a4b6e"/>
          <g id="Grupo_49699" data-name="Grupo 49699" transform="translate(49.979 217.228)" opacity="0.6">
            <path id="Trazado_102513" data-name="Trazado 102513" d="M249.448,4331.5a1.759,1.759,0,0,1,1.557,1.768,1.708,1.708,0,0,1-1.73,1.564,1.867,1.867,0,0,1-1.647-1.882,1.768,1.768,0,0,1,1.987-1.428" transform="translate(-247.627 -4331.503)" fill="#fff"/>
          </g>
          <g id="Grupo_49700" data-name="Grupo 49700" transform="translate(18.512 226.545)" opacity="0.6">
            <path id="Trazado_102514" data-name="Trazado 102514" d="M248.96,4347.279l-.612-3.446-41.122,7.375a3.026,3.026,0,0,0-1.239,2.562Z" transform="translate(-205.984 -4343.833)" fill="#fff"/>
          </g>
          <path id="Trazado_102515" data-name="Trazado 102515" d="M232.106,4336.877c.045.2,1.1.113,2.267.6s1.851,1.254,2.025,1.134-.355-1.263-1.746-1.821S232.03,4336.7,232.106,4336.877Z" transform="translate(-193.855 -4115.5)" fill="#263238"/>
          <path id="Trazado_102516" data-name="Trazado 102516" d="M226.627,4340.465c0,.2.952.394,1.814,1.148s1.239,1.64,1.443,1.594.128-1.246-.967-2.161S226.627,4340.262,226.627,4340.465Z" transform="translate(-192.517 -4116.429)" fill="#263238"/>
          <path id="Trazado_102517" data-name="Trazado 102517" d="M223.873,4347.121c.2,0,.295-1.081-.446-2.116s-1.821-1.322-1.882-1.1.657.687,1.254,1.557S223.631,4347.136,223.873,4347.121Z" transform="translate(-191.274 -4117.288)" fill="#263238"/>
          <path id="Trazado_102518" data-name="Trazado 102518" d="M231.393,4329.892c.121.174,1.02-.287,2.214-.423s2.169.068,2.267-.128-.937-.755-2.335-.6S231.265,4329.749,231.393,4329.892Z" transform="translate(-193.678 -4113.594)" fill="#263238"/>
          <g id="Grupo_49701" data-name="Grupo 49701" transform="translate(35.161 200.377)" opacity="0.3">
            <path id="Trazado_102519" data-name="Trazado 102519" d="M228.017,4312.837l.846,3.884,20.863-4-.612-3.521Z" transform="translate(-228.017 -4309.202)"/>
          </g>
          <path id="Trazado_102520" data-name="Trazado 102520" d="M230.227,4323a4.012,4.012,0,0,0,2.131-.393,9.684,9.684,0,0,0,2.1-1.1,10.317,10.317,0,0,0,1.111-.869,2.688,2.688,0,0,0,.552-.62.921.921,0,0,0-.106-1.118,1.143,1.143,0,0,0-1-.31,2.546,2.546,0,0,0-.756.256,7.521,7.521,0,0,0-2.97,2.343c-.824,1.088-1.02,1.927-.937,1.957s.469-.687,1.33-1.625a8.617,8.617,0,0,1,1.708-1.42,8.35,8.35,0,0,1,1.156-.6c.423-.2.809-.272.96-.091s.068.1,0,.242a2.158,2.158,0,0,1-.408.453,9.986,9.986,0,0,1-1.013.846,11.654,11.654,0,0,1-1.912,1.164A17.648,17.648,0,0,0,230.227,4323Z" transform="translate(-193.396 -4111.116)" fill="#263238"/>
          <path id="Trazado_102521" data-name="Trazado 102521" d="M229.427,4322.673a3.471,3.471,0,0,0,.189-2.161,7.128,7.128,0,0,0-1.511-3.468,1.8,1.8,0,0,0-1.557-.831,1.02,1.02,0,0,0-.756.755,3.315,3.315,0,0,0-.076.824,4.85,4.85,0,0,0,.264,1.436,4.943,4.943,0,0,0,1.307,2.032c1.035.953,1.942,1.043,1.95.968a8.95,8.95,0,0,1-1.579-1.33,5,5,0,0,1-1.035-1.874,4.5,4.5,0,0,1-.181-1.239c0-.469.083-.862.264-.847a1.568,1.568,0,0,1,.869.56,8.348,8.348,0,0,1,.756,1.058,7.731,7.731,0,0,1,.756,2.056C229.427,4321.85,229.336,4322.666,229.427,4322.673Z" transform="translate(-192.294 -4110.538)" fill="#263238"/>
          <path id="Trazado_102522" data-name="Trazado 102522" d="M219.977,4287.816s-14.675-60.074-14.841-68.295c-.174-8.728,7.836-16.065,13.216-17.32s17.319,2.886,23.924,11.139,27.626,23.916,27.626,23.916c8.69,6.521,21.566,9.294,33.248,3.181,0,0,17.183,26.727,18.3,26.054,2.018-1.224.7,2.139-.907,6.295-3.181,8.206-9.483,15.2-16.8,15.377l-42,1.881-16.337-18.279,1.511,12.642Z" transform="translate(-187.265 -4082.625)" fill="#263238"/>
          <path id="Trazado_102523" data-name="Trazado 102523" d="M257.024,4285.964a3.669,3.669,0,0,1-.151-.643c-.083-.415-.219-1.035-.34-1.843a68.337,68.337,0,0,1-.756-6.861,99.745,99.745,0,0,1-.106-10.239c.06-1.927.166-3.944.295-6.044a62.5,62.5,0,0,0,.189-6.461,78.837,78.837,0,0,0-1.383-12.408,69.62,69.62,0,0,0-2.569-9.868,36.752,36.752,0,0,0-2.773-6.279,17.838,17.838,0,0,0-.982-1.587,4.685,4.685,0,0,1-.34-.567,4.041,4.041,0,0,1,.408.514,15.032,15.032,0,0,1,1.043,1.564,33.5,33.5,0,0,1,2.9,6.264,66.013,66.013,0,0,1,2.667,9.892,77.486,77.486,0,0,1,1.421,12.46,62.79,62.79,0,0,1-.2,6.5q-.2,3.14-.317,6.045c-.159,3.839-.144,7.308,0,10.209s.431,5.244.65,6.854c.1.809.212,1.428.264,1.858A3.989,3.989,0,0,1,257.024,4285.964Z" transform="translate(-197.765 -4087.801)" fill="#0a4b6e"/>
          <path id="Trazado_102524" data-name="Trazado 102524" d="M294.27,4262.481c-.121,0,0-2.576-.469-5.7s-1.232-5.577-1.118-5.614a5.94,5.94,0,0,1,.627,1.579,26.231,26.231,0,0,1,.884,3.982,25.222,25.222,0,0,1,.242,4.072A6.017,6.017,0,0,1,294.27,4262.481Z" transform="translate(-208.655 -4094.643)" fill="#0a4b6e"/>
          <path id="Trazado_102525" data-name="Trazado 102525" d="M271.174,4312.87l-20.977,7.5s2.086,23.221-1.655,24.981l-17.516-39.52,32.19-13.042Z" transform="translate(-193.592 -4104.815)" fill="#0a4b6e"/>
          <g id="Grupo_49702" data-name="Grupo 49702" transform="translate(50.399 201.782)" opacity="0.6">
            <path id="Trazado_102526" data-name="Trazado 102526" d="M251.178,4311.72a1.768,1.768,0,0,0-2.32-.386,1.693,1.693,0,0,0-.408,2.267,1.867,1.867,0,0,0,2.463.4,1.76,1.76,0,0,0,.159-2.441" transform="translate(-248.183 -4311.061)" fill="#fff"/>
          </g>
          <g id="Grupo_49703" data-name="Grupo 49703" transform="translate(37.435 199.705)" opacity="0.6">
            <path id="Trazado_102527" data-name="Trazado 102527" d="M231.027,4309.628l3.249-1.315,15.574,38.749a3.022,3.022,0,0,1-1.511,2.418Z" transform="translate(-231.027 -4308.313)" fill="#fff"/>
          </g>
          <path id="Trazado_102528" data-name="Trazado 102528" d="M255.81,4329.119c-.2.076-.68-.869-1.693-1.587s-2.048-.891-2.04-1.1,1.254-.378,2.471.513S256.006,4329.088,255.81,4329.119Z" transform="translate(-198.735 -4112.994)" fill="#263238"/>
          <path id="Trazado_102529" data-name="Trazado 102529" d="M255.624,4335.963c-.174.121-.846-.6-1.942-.937s-2.048-.174-2.116-.371.99-.756,2.342-.325S255.805,4335.88,255.624,4335.963Z" transform="translate(-198.61 -4114.927)" fill="#263238"/>
          <path id="Trazado_102530" data-name="Trazado 102530" d="M251.524,4342.117c-.113-.159.756-.824,2.033-.756s2.063.824,1.934.967-.929-.189-1.98-.234S251.6,4342.305,251.524,4342.117Z" transform="translate(-198.598 -4116.682)" fill="#263238"/>
          <path id="Trazado_102531" data-name="Trazado 102531" d="M262.469,4325.755c-.212,0-.295-1.021-.816-2.1s-1.209-1.8-1.081-1.973,1.156.386,1.746,1.663S262.665,4325.786,262.469,4325.755Z" transform="translate(-200.807 -4111.867)" fill="#263238"/>
          <g id="Grupo_49704" data-name="Grupo 49704" transform="translate(62.001 189.723)" opacity="0.3">
            <path id="Trazado_102532" data-name="Trazado 102532" d="M274.963,4314.915l-3.733,1.338-7.692-19.806,3.31-1.345Z" transform="translate(-263.537 -4295.102)"/>
          </g>
          <path id="Trazado_102533" data-name="Trazado 102533" d="M268.3,4322.638a4.233,4.233,0,0,1-.793-2.018,10.082,10.082,0,0,1-.2-2.357,10.338,10.338,0,0,1,.159-1.4,2.806,2.806,0,0,1,.227-.8.931.931,0,0,1,1.005-.507,1.155,1.155,0,0,1,.793.68,2.717,2.717,0,0,1,.2.8,7.569,7.569,0,0,1,.068,1.42,7.4,7.4,0,0,1-.476,2.335c-.491,1.277-1.1,1.89-1.164,1.836s.332-.755.673-1.995a8.693,8.693,0,0,0,.295-2.191,7.706,7.706,0,0,0-.106-1.3c-.06-.469-.2-.832-.431-.869-.091,0-.121,0-.212.135a2.292,2.292,0,0,0-.166.589,10.48,10.48,0,0,0-.181,1.3,12.084,12.084,0,0,0,0,2.267A15.548,15.548,0,0,1,268.3,4322.638Z" transform="translate(-202.458 -4110.374)" fill="#263238"/>
          <path id="Trazado_102534" data-name="Trazado 102534" d="M268.146,4324.153c-.06-.061.491-.756,1.73-1.307a7.265,7.265,0,0,1,2.312-.6,6.839,6.839,0,0,1,1.421,0,1.775,1.775,0,0,1,1.511.877,1.011,1.011,0,0,1-.219,1.065,3.077,3.077,0,0,1-.657.5,5,5,0,0,1-1.353.544,5.063,5.063,0,0,1-2.418,0c-1.36-.37-1.919-1.1-1.859-1.142a17.355,17.355,0,0,0,1.965.628,4.932,4.932,0,0,0,2.146-.113,4.6,4.6,0,0,0,1.141-.5c.408-.234.688-.536.574-.672a1.62,1.62,0,0,0-.937-.446,7.383,7.383,0,0,0-1.285-.06,7.784,7.784,0,0,0-2.161.408C268.871,4323.745,268.221,4324.266,268.146,4324.153Z" transform="translate(-202.661 -4112.002)" fill="#263238"/>
          <path id="Trazado_102535" data-name="Trazado 102535" d="M276.285,4274.363s42.135-39.407,55.963-37.307,17.191,8.8,18.445,14.244.839,21.8-18.022,31.442-59.114,20.123-59.114,20.123l-8.38-23.477Z" transform="translate(-201.937 -4091.176)" fill="#263238"/>
          <path id="Trazado_102536" data-name="Trazado 102536" d="M276.273,4274.3s-.242.128-.718.354l-2.131.983-8.229,3.778.045-.113c2.086,5.8,4.972,13.8,8.441,23.463l-.174-.1c9.891-2.653,21.491-5.993,34.11-10.232,6.3-2.138,12.846-4.488,19.481-7.368,1.662-.687,3.287-1.511,4.934-2.267.831-.378,1.6-.884,2.411-1.322l1.2-.68c.408-.22.756-.514,1.156-.756a32.651,32.651,0,0,0,8.229-7.556,27.726,27.726,0,0,0,5.864-16.285,19.271,19.271,0,0,0-.567-5.606,16.436,16.436,0,0,0-2.184-5.063,15.028,15.028,0,0,0-3.74-3.9,19.587,19.587,0,0,0-4.685-2.524,33.313,33.313,0,0,0-5.01-1.511l-2.531-.453-1.247-.076-1.247.113a21.065,21.065,0,0,0-4.753,1.338,58.747,58.747,0,0,0-8.486,4.314,160.93,160.93,0,0,0-14.131,9.688c-8.312,6.332-14.788,11.879-19.216,15.717-2.206,1.927-3.907,3.446-5.055,4.474l-1.315,1.194c-.295.265-.453.393-.453.393l.423-.423,1.285-1.2c1.133-1.043,2.811-2.584,5.01-4.534,4.4-3.876,10.806-9.453,19.148-15.823a160.243,160.243,0,0,1,14.123-9.748,59.041,59.041,0,0,1,8.531-4.352,21.5,21.5,0,0,1,4.836-1.368c.423-.039.854-.1,1.285-.121l1.307.076,2.554.454a32.6,32.6,0,0,1,5.07,1.511,20.068,20.068,0,0,1,4.776,2.562,15.273,15.273,0,0,1,3.831,3.989,17.1,17.1,0,0,1,2.267,5.176,19.814,19.814,0,0,1,.574,5.712c0,.967-.136,1.935-.227,2.9a15.589,15.589,0,0,1-.574,2.872,28.355,28.355,0,0,1-5.131,10.677,32.858,32.858,0,0,1-8.312,7.67,11.542,11.542,0,0,1-1.171.756l-1.209.687c-.816.446-1.594.953-2.433,1.33-1.655.793-3.287,1.609-4.957,2.3-6.627,2.887-13.2,5.229-19.511,7.36-12.642,4.224-24.249,7.556-34.155,10.164l-.128.038-.045-.128c-3.431-9.665-6.272-17.69-8.312-23.493v-.075h.076l8.252-3.7,2.154-.952A5.785,5.785,0,0,1,276.273,4274.3Z" transform="translate(-201.924 -4091.116)" fill="#0a4b6e"/>
          <path id="Trazado_102537" data-name="Trazado 102537" d="M305.307,4245.18c-.65-1.179.688-3.25-.582-3.695-4.866-1.716-1.133-9.408-6.113-8.063l-6.665,11.8c2.909,1.783,1.67,6.8,4.209,9.067,1.511,1.322,3.71,1.248,5.637.809,7.33-1.64,13.518-5.508,15.408-12.778C317.51,4240.993,305.926,4246.366,305.307,4245.18Z" transform="translate(-208.478 -4090.269)" fill="#e0e0e0"/>
          <path id="Trazado_102538" data-name="Trazado 102538" d="M397.964,4076.933c-4.141.559-8.743,3.166-10.33,7.042-1.232,3.022.174,7.511.227,10.775,0,2.63.083,5.29.234,7.9a6.264,6.264,0,0,1-.091.756,71.1,71.1,0,0,0-.756,10.534,23.488,23.488,0,0,0,.227,2.833c.068.461.128.922.227,1.375s.166.914.287,1.345a27.515,27.515,0,0,0,1.715,4.919,40.843,40.843,0,0,0,4.443,7.443,51.569,51.569,0,0,0,3.68,4.458l.28.3,3.075,7.889a26.87,26.87,0,0,0,3.892,7.488c1.806,2.2,4.534,3.778,7.315,3.506a8.168,8.168,0,0,0,6.045-4.285,15.647,15.647,0,0,0,1.753-7.466Zm-2.562,54.074a50.517,50.517,0,0,1-3.884-7.368,27.077,27.077,0,0,1-2.116-9.74v-1.594a104.9,104.9,0,0,0,4.844,14.462l2.448,6.279c-.408-.665-.839-1.345-1.292-2.078Z" transform="translate(-231.736 -4052.069)" fill="#263238"/>
          <path id="Trazado_102539" data-name="Trazado 102539" d="M441.171,4143.993l-29.954,12.045s11.063,24.664,20.561,22.45,14.115-24.823,14.115-24.823Z" transform="translate(-237.622 -4068.455)" fill="#ffbe9d"/>
          <path id="Trazado_102540" data-name="Trazado 102540" d="M438.956,4144.821s3.295,22.533-6.226,24.354c-6.672,1.269-22.178-14.8-22.178-14.8a27.238,27.238,0,0,0-6.854,3.521,16.351,16.351,0,0,0-6.219,20.4c3.31,7.647,7.655,17.6,10.111,22.745,4.33,9.068,14.471,14.735,14.471,14.735l-.831,19.284s26.153-5.486,40.17-4.08,23.3-1.655,23.3-1.655l-18.627-32.409-14.236-53.53S445.333,4143.847,438.956,4144.821Z" transform="translate(-233.926 -4068.308)" fill="#0a4b6e"/>
          <path id="Trazado_102541" data-name="Trazado 102541" d="M469.261,4143.393s8.5-.076,13.443,10.133c2.547,5.252,13.148,22.919,13.148,22.474l15.974-23.728,13.934,7.753s-12.99,27.482-15.052,31.608-4.745,9.9-12.581,10.723-15.461-5.772-17.108-9.687-13.6-24.332-13.6-24.937S469.261,4143.393,469.261,4143.393Z" transform="translate(-251.355 -4068.308)" fill="#0a4b6e"/>
          <path id="Trazado_102542" data-name="Trazado 102542" d="M497.016,4226.082a2.73,2.73,0,0,1-.287-.423c-.189-.31-.431-.756-.756-1.232-.657-1.118-1.579-2.683-2.728-4.617-2.3-3.975-5.494-9.476-9.121-15.717V4204c-.076-1.708-.166-3.484-.31-5.29a52.477,52.477,0,0,0-2.146-11.728,28.978,28.978,0,0,0-4.292-8.683,21.723,21.723,0,0,0-4.609-4.64c-.635-.445-1.133-.755-1.511-.982a3.623,3.623,0,0,1-.529-.347,4.154,4.154,0,0,1,.567.271,16.38,16.38,0,0,1,1.511.937,20.683,20.683,0,0,1,4.738,4.595,28.566,28.566,0,0,1,4.443,8.735,51.775,51.775,0,0,1,2.191,11.8c.144,1.821.227,3.6.3,5.29v-.091c3.574,6.272,6.725,11.8,9.007,15.786,1.1,1.964,1.987,3.543,2.622,4.677l.7,1.27A3.044,3.044,0,0,1,497.016,4226.082Z" transform="translate(-252.164 -4075.38)" fill="#263238"/>
          <path id="Trazado_102543" data-name="Trazado 102543" d="M505.683,4196.916a18.51,18.51,0,0,1-.793-4.995,29.716,29.716,0,0,1,0-3.574,4.985,4.985,0,0,1,.2-1.474c.113,0,0,2.267.2,5.024S505.8,4196.893,505.683,4196.916Z" transform="translate(-260.499 -4078.933)" fill="#263238"/>
          <path id="Trazado_102544" data-name="Trazado 102544" d="M456.494,4191.933a4.185,4.185,0,0,1,.37.929,10.62,10.62,0,0,1,.332,1.125c.106.439.257.945.34,1.512a17.428,17.428,0,0,1,.264,1.867c.091.672.1,1.4.128,2.161a24.354,24.354,0,0,1-1.942,9.679,21.166,21.166,0,0,1-.952,1.95,15.65,15.65,0,0,1-.96,1.617c-.3.491-.627.9-.9,1.27a11.111,11.111,0,0,1-.756.907,4.747,4.747,0,0,1-.7.718c-.06-.053.907-1.1,2.108-3.022a17.411,17.411,0,0,0,.907-1.625c.325-.582.6-1.247.907-1.935a27.138,27.138,0,0,0,1.413-4.67,27.756,27.756,0,0,0,.5-4.866,16.055,16.055,0,0,0-.091-2.131c-.091-.665-.128-1.285-.212-1.851C456.94,4193.323,456.419,4191.986,456.494,4191.933Z" transform="translate(-247.52 -4080.17)" fill="#263238"/>
          <path id="Trazado_102545" data-name="Trazado 102545" d="M425.9,4088.211a17.545,17.545,0,0,0-21.636-12.149q-.325.092-.648.2a18.128,18.128,0,0,0-11.871,21.664c1.995,7.995,4.179,16,5.365,18.74,3.582,8.266,9.823,9.438,12.241,9.566a11.624,11.624,0,0,0,2.441-.385h0a.068.068,0,0,1,.076.045l2.116,10.33c1.768,6.6,7.617,10.693,14.3,8.954s9.657-8.637,8.01-15.294Z" transform="translate(-232.732 -4051.695)" fill="#ffbe9d"/>
          <path id="Trazado_102546" data-name="Trazado 102546" d="M399.489,4110.153a1.429,1.429,0,0,0,1.708,1.05,1.4,1.4,0,0,0,1.127-1.624v-.008a1.428,1.428,0,0,0-1.708-1.05,1.4,1.4,0,0,0-1.127,1.624Z" transform="translate(-234.751 -4059.779)" fill="#263238"/>
          <path id="Trazado_102547" data-name="Trazado 102547" d="M395.726,4106.357c.219.136,1.081-.914,2.592-1.307s2.8.068,2.917-.151-.2-.385-.756-.6a3.941,3.941,0,0,0-2.4-.105,3.848,3.848,0,0,0-2,1.27C395.688,4105.934,395.643,4106.3,395.726,4106.357Z" transform="translate(-233.828 -4058.695)" fill="#263238"/>
          <path id="Trazado_102548" data-name="Trazado 102548" d="M418.189,4105.673a1.422,1.422,0,0,0,1.708,1.043,1.391,1.391,0,0,0,1.129-1.61l0-.014a1.435,1.435,0,0,0-1.708-1.051,1.39,1.39,0,0,0-1.13,1.609Z" transform="translate(-239.32 -4058.683)" fill="#263238"/>
          <path id="Trazado_102549" data-name="Trazado 102549" d="M415.423,4101.617c.219.136,1.088-.921,2.592-1.308s2.8.068,2.924-.159c.053-.1-.2-.377-.756-.6a4,4,0,0,0-2.4-.1,3.91,3.91,0,0,0-2.01,1.269C415.393,4101.186,415.317,4101.556,415.423,4101.617Z" transform="translate(-238.639 -4057.537)" fill="#263238"/>
          <path id="Trazado_102550" data-name="Trazado 102550" d="M410.588,4114.849a10.417,10.417,0,0,0-2.562.2c-.393.069-.756.084-.907-.158a2.01,2.01,0,0,1,0-1.2c.128-1.013.257-2.078.4-3.2.529-4.534.809-8.252.62-8.267s-.756,3.657-1.292,8.2c-.121,1.118-.234,2.191-.348,3.211a2.311,2.311,0,0,0,.181,1.512,1,1,0,0,0,.756.393,3,3,0,0,0,.68-.083A10.447,10.447,0,0,0,410.588,4114.849Z" transform="translate(-236.457 -4058.248)" fill="#263238"/>
          <path id="Trazado_102551" data-name="Trazado 102551" d="M418.527,4139.779s5.939-1.042,12.09-7.276c0,0-.363,8.221-11.554,10.058Z" transform="translate(-239.409 -4065.647)" fill="#eb996e"/>
          <path id="Trazado_102552" data-name="Trazado 102552" d="M413.96,4122.914a2.841,2.841,0,0,1,2.176-1.632,2.548,2.548,0,0,1,1.95.468,1.586,1.586,0,0,1,.567,1.745,1.89,1.89,0,0,1-1.844,1.013,5.886,5.886,0,0,1-2.222-.643,1.654,1.654,0,0,1-.544-.325.515.515,0,0,1-.136-.559" transform="translate(-238.272 -4062.897)" fill="#eb996e"/>
          <path id="Trazado_102553" data-name="Trazado 102553" d="M416.92,4118.752c-.249.045.159,1.67-.945,3.188s-2.894,1.791-2.849,2.017c0,.106.469.211,1.209.046a4.285,4.285,0,0,0,2.4-1.6,3.636,3.636,0,0,0,.688-2.644C417.283,4119.062,417.033,4118.714,416.92,4118.752Z" transform="translate(-238.089 -4062.286)" fill="#263238"/>
          <path id="Trazado_102554" data-name="Trazado 102554" d="M412.9,4095.342c.257.37,1.708-.212,3.536-.461s3.37-.151,3.514-.574c.06-.2-.287-.521-.96-.756a6.243,6.243,0,0,0-5.373.793C413.034,4094.76,412.785,4095.167,412.9,4095.342Z" transform="translate(-238.027 -4056.059)" fill="#263238"/>
          <path id="Trazado_102555" data-name="Trazado 102555" d="M394.508,4100.842c.348.271,1.3-.355,2.539-.7s2.365-.371,2.524-.793c.06-.2-.2-.5-.756-.7a3.852,3.852,0,0,0-4.073,1.194C394.4,4100.335,394.342,4100.706,394.508,4100.842Z" transform="translate(-233.518 -4057.336)" fill="#263238"/>
          <path id="Trazado_102556" data-name="Trazado 102556" d="M450.111,4124.664q-3.65-13.217-8.312-26.123a76.684,76.684,0,0,0-6.8-15.022c-2.932-4.662-6.8-8.833-11.735-11.281a19.9,19.9,0,0,0-11.3-2.018,14.463,14.463,0,0,0-10.36,3.023c-1.428,1.209-2.637,3.181-1.866,4.9.612,1.36,2.184,1.942,3.6,2.388l11.675,3.7.091.091.68.718a18.942,18.942,0,0,1,3.378,5.184,30.6,30.6,0,0,1,2.35,8.908c.416,3.478.37,7.4.521,11.577a41.3,41.3,0,0,0,1.821,11.8,36.181,36.181,0,0,0,4.39,8.675,46.174,46.174,0,0,0,3.846,4.881,11.661,11.661,0,0,1,.249,1.852c.106,1.821-.242,3.635-.227,5.464a6.458,6.458,0,0,0,1.882,4.956,5.106,5.106,0,0,0,5.184.582,8.857,8.857,0,0,0,3.944-3.687,19.412,19.412,0,0,0,2.365-11.6c-.038-.5-.091-.99-.151-1.512a9.8,9.8,0,0,0,2.04-.589,5.117,5.117,0,0,0,3.136-3.514A7.548,7.548,0,0,0,450.111,4124.664Zm-20.576,5.7a40.4,40.4,0,0,1-3.816-8.471,43.58,43.58,0,0,1-1.557-11.259c-.1-2.615-.136-5.185-.295-7.647.212,1,.4,2.018.582,3.022,1.39,7.769,2.2,15.732,5.093,23.07.514,1.3,1.1,2.6,1.6,3.907C430.638,4132.2,430.1,4131.328,429.534,4130.361Z" transform="translate(-234.759 -4050.396)" fill="#263238"/>
          <path id="Trazado_102557" data-name="Trazado 102557" d="M436.4,4085.718l-.348-.053-1.013-.1c-.446-.045-.982-.1-1.6-.174s-1.337-.143-2.116-.265c-1.572-.2-3.431-.513-5.478-.914s-4.284-.944-6.612-1.594-4.534-1.391-6.468-2.1-3.7-1.444-5.153-2.085c-.756-.311-1.375-.62-1.942-.885s-1.065-.491-1.458-.687l-.922-.446-.325-.144a1.745,1.745,0,0,0,.3.182l.907.483c.393.2.877.453,1.443.756s1.209.6,1.934.914c1.443.665,3.189,1.391,5.146,2.131s4.156,1.458,6.483,2.123,4.572,1.172,6.627,1.58,3.922.68,5.494.869c.756.113,1.511.174,2.123.234s1.164.105,1.61.136l1.013.061A1.836,1.836,0,0,0,436.4,4085.718Z" transform="translate(-235.606 -4051.907)" fill="#0a4b6e"/>
          <path id="Trazado_102558" data-name="Trazado 102558" d="M436.8,4088.014a1.876,1.876,0,0,0-.363,0l-1.035.068-.756.053h-.892c-.635,0-1.368.06-2.169.038h-1.269c-.438,0-.892-.045-1.368-.068-.945,0-1.95-.151-3.023-.249a52.292,52.292,0,0,1-13.413-3.355c-.982-.416-1.919-.793-2.773-1.209-.431-.2-.854-.386-1.239-.589l-1.126-.59c-.756-.355-1.345-.755-1.9-1.058l-.756-.446-.635-.4-.884-.552a1.776,1.776,0,0,0-.317-.174l.295.211.861.582.627.423.756.461c.552.325,1.171.755,1.889,1.1l1.126.6c.385.2.809.393,1.239.6.846.423,1.791.809,2.781,1.225a50.125,50.125,0,0,0,13.458,3.385c1.065.1,2.07.212,3.023.235.476,0,.937.053,1.375.053h1.269c.809,0,1.511,0,2.176-.061l.892-.053.756-.068,1.035-.106Z" transform="translate(-235.584 -4052.692)" fill="#fff"/>
          <path id="Trazado_102559" data-name="Trazado 102559" d="M450.029,4146.138v-.575a15.983,15.983,0,0,0-.136-1.632,55.553,55.553,0,0,0-.967-5.97c-.529-2.493-1.322-5.432-2.342-8.651s-2.222-6.718-3.468-10.405l-6.438-18.891c-.831-2.4-1.511-4.345-1.972-5.706l-.544-1.549-.151-.4a.974.974,0,0,0-.053-.136.42.42,0,0,0,.038.144l.121.408.514,1.564,1.9,5.728c1.632,4.844,3.884,11.516,6.378,18.891,1.239,3.687,2.463,7.186,3.483,10.4s1.836,6.136,2.38,8.63a58.275,58.275,0,0,1,1.035,5.939c.091.7.136,1.262.174,1.632l.045.423Z" transform="translate(-243.179 -4055.805)" fill="#0a4b6e"/>
          <path id="Trazado_102560" data-name="Trazado 102560" d="M439.16,4123.993a2.319,2.319,0,0,0-.038-.347c-.038-.25-.091-.582-.151-1.005-.136-.869-.348-2.123-.627-3.672-.552-3.091-1.39-7.353-2.471-12.031s-2.191-8.878-3.023-11.9c-.431-1.511-.756-2.736-1.05-3.575l-.3-.967a1.735,1.735,0,0,0-.121-.333,2.517,2.517,0,0,0,.083.348c.06.242.151.567.257.975.242.869.574,2.085.982,3.589.824,3.022,1.912,7.239,3.023,11.909s1.942,8.932,2.531,12.015c.287,1.512.521,2.773.7,3.657.076.416.144.755.189,1A1.831,1.831,0,0,0,439.16,4123.993Z" transform="translate(-242.549 -4055.301)" fill="#0a4b6e"/>
          <path id="Trazado_102561" data-name="Trazado 102561" d="M529.7,4146.177a31.332,31.332,0,0,0,1.337-6.279c.416-3.664.423-3.854-.385-5.47s-2.267-2.267-2.917-3.068,1.866-1.784,4.065-.28a18.552,18.552,0,0,1,4.368,5.033c2.327,3.408,4.345,3.5,4.345,3.5l8.818-2.267s1.836-2.667,3.461-2.312l.71.128.287-.166a1.133,1.133,0,0,1,1.708.892,1.593,1.593,0,0,1-.189.756c-.627,1.27-6.249,6.256-6.536,7.6s0,3.476-2.471,5.849a14.171,14.171,0,0,1-8.471,3.672l-.476,1.292-9.423-5.236Z" transform="translate(-266.068 -4065.108)" fill="#ffbe9d"/>
          <path id="Trazado_102562" data-name="Trazado 102562" d="M551.752,4149.417a3.839,3.839,0,0,1,.091-.831c.106-.62.234-1.375.393-2.267s.393-2.108.627-3.34a2.872,2.872,0,0,0,0-1.836.984.984,0,0,0-.665-.543,1.1,1.1,0,0,0-.854.271,4.363,4.363,0,0,0-1,2.131c-.242.749-.469,1.511-.68,2.184-.431,1.33-.809,2.509-1.126,3.476v.076h-.076a2.925,2.925,0,0,0-1.466.574c-.3.227-.431.393-.453.378s.083-.2.37-.476a2.93,2.93,0,0,1,1.511-.755l-.106.09c.287-.982.627-2.168,1.013-3.506q.317-1.043.657-2.2c.121-.385.227-.756.37-1.186a2.623,2.623,0,0,1,.756-1.142,1.51,1.51,0,0,1,1.179-.347,1.362,1.362,0,0,1,.929.756,3.149,3.149,0,0,1,.053,2.085c-.264,1.231-.506,2.35-.71,3.325s-.378,1.625-.514,2.267A3.065,3.065,0,0,1,551.752,4149.417Z" transform="translate(-270.69 -4067.518)" fill="#eb996e"/>
          <path id="Trazado_102563" data-name="Trazado 102563" d="M560.523,4136.823a31.96,31.96,0,0,1-2.4,4.4,31.269,31.269,0,0,1-2.743,4.2,64.012,64.012,0,0,1,5.146-8.6Z" transform="translate(-272.849 -4066.703)" fill="#eb996e"/>
          <path id="Trazado_102564" data-name="Trazado 102564" d="M555.094,4141.4a2.977,2.977,0,0,1,.567-1.972c.6-1,1.4-1.512,1.458-1.437s-.567.71-1.118,1.641S555.208,4141.421,555.094,4141.4Z" transform="translate(-272.778 -4066.986)" fill="#eb996e"/>
          <path id="Trazado_102565" data-name="Trazado 102565" d="M539.686,4139.842a3.569,3.569,0,0,1,1.035,1.164,8.137,8.137,0,0,1,.824,7.307,3.7,3.7,0,0,1-.756,1.368c-.06,0,.219-.552.484-1.458a8.989,8.989,0,0,0-.793-7.073A13.928,13.928,0,0,1,539.686,4139.842Z" transform="translate(-269.014 -4067.441)" fill="#eb996e"/>
          <path id="Trazado_102566" data-name="Trazado 102566" d="M547.012,4147.9c-.113,0-.227-1.157-.854-2.418s-1.466-2.079-1.383-2.169a5.077,5.077,0,0,1,2.267,4.587Z" transform="translate(-270.257 -4068.289)" fill="#eb996e"/>
          <path id="Trazado_102567" data-name="Trazado 102567" d="M549.756,4144.343a3.981,3.981,0,0,1-1.511.755,3.846,3.846,0,0,1-1.647.393,3.991,3.991,0,0,1,1.511-.756A3.6,3.6,0,0,1,549.756,4144.343Z" transform="translate(-270.703 -4068.541)" fill="#eb996e"/>
          <path id="Trazado_102568" data-name="Trazado 102568" d="M518.087,4306.316l19.911,5.7s-.529,21.664,3.023,23.077l13.866-37.729-30.664-10.148Z" transform="translate(-263.737 -4103.452)" fill="#a22f5f"/>
          <g id="Grupo_49705" data-name="Grupo 49705" transform="translate(276.207 195.506)" opacity="0.6">
            <path id="Trazado_102569" data-name="Trazado 102569" d="M547.257,4303.457a1.639,1.639,0,0,1,2.131-.5,1.571,1.571,0,0,1,.514,2.108,1.732,1.732,0,0,1-2.267.514,1.633,1.633,0,0,1-.295-2.267" transform="translate(-547.011 -4302.756)" fill="#fff"/>
          </g>
          <g id="Grupo_49706" data-name="Grupo 49706" transform="translate(275.992 192.889)" opacity="0.6">
            <path id="Trazado_102570" data-name="Trazado 102570" d="M561.908,4300.313l-3.091-1.021-12.09,36.9a2.76,2.76,0,0,0,1.549,2.146Z" transform="translate(-546.727 -4299.293)" fill="#fff"/>
          </g>
          <path id="Trazado_102571" data-name="Trazado 102571" d="M543.89,4319.843c.189.06.574-.847,1.474-1.572s1.844-.952,1.821-1.148-1.186-.271-2.267.62S543.671,4319.827,543.89,4319.843Z" transform="translate(-270.021 -4110.729)" fill="#263238"/>
          <path id="Trazado_102572" data-name="Trazado 102572" d="M544.365,4326.191c.174.105.756-.6,1.746-.975s1.889-.295,1.942-.477-.967-.657-2.191-.158S544.191,4326.13,544.365,4326.191Z" transform="translate(-270.149 -4112.529)" fill="#263238"/>
          <path id="Trazado_102573" data-name="Trazado 102573" d="M548.556,4331.669c.1-.151-.756-.718-1.927-.574s-1.874.892-1.738,1.02.846-.234,1.821-.34S548.466,4331.851,548.556,4331.669Z" transform="translate(-270.283 -4114.169)" fill="#263238"/>
          <path id="Trazado_102574" data-name="Trazado 102574" d="M538.018,4317.117c.2,0,.219-.96.635-1.995s1.013-1.746.884-1.9-1.05.424-1.511,1.648S537.844,4317.162,538.018,4317.117Z" transform="translate(-268.547 -4109.802)" fill="#263238"/>
          <path id="Trazado_102575" data-name="Trazado 102575" d="M479.064,4301.664l-18.778,8.743s3.914,21.316.6,23.273l-19.586-35.1,28.714-14.818Z" transform="translate(-244.973 -4102.609)" fill="#a22f5f"/>
          <g id="Grupo_49707" data-name="Grupo 49707" transform="translate(208.513 195.433)" opacity="0.6">
            <path id="Trazado_102576" data-name="Trazado 102576" d="M460.132,4303.16a1.64,1.64,0,0,0-2.184-.159,1.58,1.58,0,0,0-.174,2.162,1.717,1.717,0,0,0,2.312.159,1.624,1.624,0,0,0-.068-2.267" transform="translate(-457.427 -4302.659)" fill="#fff"/>
          </g>
          <g id="Grupo_49708" data-name="Grupo 49708" transform="translate(196.324 194.461)" opacity="0.6">
            <path id="Trazado_102577" data-name="Trazado 102577" d="M441.3,4302.884l2.894-1.511,17.758,34.57a2.78,2.78,0,0,1-1.194,2.358Z" transform="translate(-441.297 -4301.373)" fill="#fff"/>
          </g>
          <path id="Trazado_102578" data-name="Trazado 102578" d="M465.874,4318.9c-.181.083-.7-.755-1.708-1.33s-1.972-.658-1.98-.854,1.126-.446,2.327.272S466.048,4318.854,465.874,4318.9Z" transform="translate(-250.077 -4110.61)" fill="#263238"/>
          <path id="Trazado_102579" data-name="Trazado 102579" d="M466.287,4325.218c-.143.128-.831-.476-1.874-.7s-1.912,0-1.987-.167.846-.793,2.138-.5S466.453,4325.135,466.287,4325.218Z" transform="translate(-250.134 -4112.387)" fill="#263238"/>
          <path id="Trazado_102580" data-name="Trazado 102580" d="M463.033,4331.261c-.121-.144.627-.832,1.814-.869s1.987.582,1.874.756-.877-.1-1.851-.053S463.139,4331.428,463.033,4331.261Z" transform="translate(-250.281 -4114.003)" fill="#263238"/>
          <path id="Trazado_102581" data-name="Trazado 102581" d="M471.752,4315.226c-.2,0-.37-.915-.937-1.874s-1.277-1.564-1.171-1.73,1.1.257,1.761,1.391S471.933,4315.241,471.752,4315.226Z" transform="translate(-251.897 -4109.408)" fill="#263238"/>
          <path id="Trazado_102582" data-name="Trazado 102582" d="M498.24,4249.808s28.82-7.345,36.09-5.8,16.292,2.66,17.614,8.047.884,14.2-4.405,19.042-69.806,25.541-69.806,25.541l-6.385-17.38-16.329-29.7C469.253,4250.261,484.948,4251.538,498.24,4249.808Z" transform="translate(-248.325 -4092.842)" fill="#12263f"/>
          <path id="Trazado_102583" data-name="Trazado 102583" d="M482.627,4283.467a2.626,2.626,0,0,1,.529-.227l1.511-.566c1.337-.5,3.257-1.255,5.592-2.267a94.079,94.079,0,0,0,17.206-9.892c3.136-2.266,6.045-4.625,8.8-6.574a44.842,44.842,0,0,1,7.745-4.534,22.578,22.578,0,0,1,5.8-1.716,14.015,14.015,0,0,1,1.64-.174,2.892,2.892,0,0,1,.567,0c0,.045-.756.091-2.184.34a24.021,24.021,0,0,0-5.713,1.821,45.2,45.2,0,0,0-7.655,4.571c-2.735,1.949-5.622,4.285-8.765,6.589a88.56,88.56,0,0,1-17.334,9.824c-2.35,1-4.292,1.715-5.645,2.168-.673.234-1.2.386-1.564.5A3.828,3.828,0,0,1,482.627,4283.467Z" transform="translate(-255.072 -4096.192)" fill="#0a4b6e"/>
          <path id="Trazado_102584" data-name="Trazado 102584" d="M437.615,4249.161S428.873,4251.9,426.53,4264s3.96,25.768,5.539,27.747,32.19,3.3,32.19,3.3l42.943,6.6s4.73-3.74,5.675-11.84c.756-6.144.053-7.98.053-7.98l-46.094-22.012S445.308,4247.642,437.615,4249.161Z" transform="translate(-241.238 -4094.121)" fill="#12263f"/>
          <path id="Trazado_102585" data-name="Trazado 102585" d="M450.257,4251.393a3.225,3.225,0,0,1,.325.136l.967.438,3.7,1.73,13.715,6.483,46.381,22.065.091.045v.1a28.471,28.471,0,0,1,.166,7.277,22.362,22.362,0,0,1-2.055,7.216,19.923,19.923,0,0,1-1.731,2.978,15.548,15.548,0,0,1-2.154,2.569l-.068.053H509.5l-31.057-4.8c-2.373-.37-4.685-.756-6.937-1.042a55.741,55.741,0,0,1-6.438-1.512,68.927,68.927,0,0,1-10.964-4.405,76.307,76.307,0,0,1-8.38-4.912c-1.156-.832-2.267-1.579-3.2-2.35s-1.821-1.458-2.577-2.116-1.4-1.277-1.957-1.8-1.013-1-1.368-1.382-.627-.665-.816-.876-.264-.3-.264-.3l.295.279.839.847c.363.377.816.839,1.39,1.353s1.2,1.141,1.98,1.768,1.609,1.36,2.592,2.086,2.048,1.511,3.211,2.32a78.632,78.632,0,0,0,8.38,4.851,69.572,69.572,0,0,0,10.934,4.337,55.662,55.662,0,0,0,6.4,1.511c2.267.294,4.534.665,6.929,1.02l31.072,4.76-.159.045a18.163,18.163,0,0,0,3.778-5.38,22.147,22.147,0,0,0,2.025-7.087,28.338,28.338,0,0,0-.166-7.171l.106.144-46.291-22.261-13.662-6.589-3.665-1.783-.952-.476C450.355,4251.453,450.257,4251.393,450.257,4251.393Z" transform="translate(-243.565 -4094.699)" fill="#0a4b6e"/>
          <path id="Trazado_102586" data-name="Trazado 102586" d="M431.605,4293a1.723,1.723,0,0,1-.219-.377c-.128-.257-.317-.643-.544-1.134-.461-.99-1.1-2.44-1.8-4.269a46.884,46.884,0,0,1-3.227-14.894,32.807,32.807,0,0,1,.718-8.395,25.431,25.431,0,0,1,1.088-3.521,21.378,21.378,0,0,1,1.436-2.879,19.494,19.494,0,0,1,2.826-3.672c.378-.393.71-.665.922-.861a1.76,1.76,0,0,1,.348-.272L432,4253.962a21.339,21.339,0,0,0-4.065,6.566,24.985,24.985,0,0,0-1.043,3.483,33.439,33.439,0,0,0-.68,8.312,49.138,49.138,0,0,0,3.1,14.811c.657,1.836,1.254,3.294,1.67,4.307l.484,1.156A1.857,1.857,0,0,1,431.605,4293Z" transform="translate(-241.182 -4095.024)" fill="#0a4b6e"/>
          <path id="Trazado_102587" data-name="Trazado 102587" d="M370.972,4141.649c-1.738-5.758-4.473-11.251-5.365-17.206l-5.463.756a15.657,15.657,0,0,0-11.335,17.841c.6,3.43,2.335,6.574,3.159,9.966s.461,7.481-2.267,9.62a5.558,5.558,0,0,0,3.65-1.111,5.169,5.169,0,0,1-.982,3.6,10.01,10.01,0,0,0,6.914-1.557,3.02,3.02,0,0,1-1.088,2.463,14.513,14.513,0,0,0,12.158-6.884C373.36,4153.989,372.71,4147.407,370.972,4141.649Z" transform="translate(-222.314 -4063.678)" fill="#263238"/>
          <path id="Trazado_102588" data-name="Trazado 102588" d="M356.156,4141.9c-.861-5.841,4.126-12.914,10-13.526l14.01.46a5.167,5.167,0,0,1,4.481,2.932h0l6.763,38.667h0s2.766,12.014-7.836,13.525c-9.521,1.36-11.116-8.674-11.116-8.674l-1.254-7.3s-7.647,1.308-11.214-7.979C358.211,4155.379,357.115,4148.39,356.156,4141.9Z" transform="translate(-224.144 -4064.638)" fill="#ffbe9d"/>
          <path id="Trazado_102589" data-name="Trazado 102589" d="M363.7,4154.939a1.263,1.263,0,0,0,1.451.991,1.211,1.211,0,0,0,1.039-1.359l0-.024a1.262,1.262,0,0,0-1.451-.99,1.209,1.209,0,0,0-1.038,1.358Z" transform="translate(-226.009 -4070.788)" fill="#263238"/>
          <path id="Trazado_102590" data-name="Trazado 102590" d="M359.855,4151.957c.189.128.975-.756,2.267-1.042s2.441.181,2.554,0-.166-.34-.657-.56a3.418,3.418,0,0,0-2.078-.188,3.361,3.361,0,0,0-1.791,1.028C359.84,4151.579,359.765,4151.9,359.855,4151.957Z" transform="translate(-225.063 -4069.944)" fill="#263238"/>
          <path id="Trazado_102591" data-name="Trazado 102591" d="M378.5,4151.779a1.254,1.254,0,0,0,1.451.99,1.2,1.2,0,0,0,1.04-1.344l0-.031a1.262,1.262,0,0,0-1.451-1,1.209,1.209,0,0,0-1.038,1.358Z" transform="translate(-229.625 -4070.016)" fill="#263238"/>
          <path id="Trazado_102592" data-name="Trazado 102592" d="M376.056,4148.8c.189.128.975-.755,2.3-1.035s2.433.174,2.547,0-.159-.348-.65-.567a3.5,3.5,0,0,0-2.086-.188,3.334,3.334,0,0,0-1.783,1.027C376.048,4148.443,375.965,4148.745,376.056,4148.8Z" transform="translate(-229.022 -4069.172)" fill="#263238"/>
          <path id="Trazado_102593" data-name="Trazado 102593" d="M372.333,4160.2a10.648,10.648,0,0,0-2.267.121c-.34.038-.673.045-.756-.136a1.333,1.333,0,0,1,.038-.9c.166-.755.34-1.549.521-2.388a62.323,62.323,0,0,0,.99-6.166,36.179,36.179,0,0,0-1.564,6.113l-.476,2.387a1.47,1.47,0,0,0,.076,1.164.835.835,0,0,0,.65.3,2.709,2.709,0,0,0,.589-.045A10.108,10.108,0,0,0,372.333,4160.2Z" transform="translate(-227.241 -4070.102)" fill="#263238"/>
          <path id="Trazado_102594" data-name="Trazado 102594" d="M376.037,4178.879a25.012,25.012,0,0,0,12.136-6.166s-1.866,7.405-11.69,8.554Z" transform="translate(-229.026 -4075.473)" fill="#eb996e"/>
          <path id="Trazado_102595" data-name="Trazado 102595" d="M377.673,4162.3c-.219.038.083,1.473-.929,2.758s-2.584,1.45-2.547,1.654.4.211,1.05.091a3.7,3.7,0,0,0,2.146-1.3,3.236,3.236,0,0,0,.688-2.268C378.005,4162.6,377.771,4162.28,377.673,4162.3Z" transform="translate(-228.576 -4072.929)" fill="#263238"/>
          <path id="Trazado_102596" data-name="Trazado 102596" d="M375.4,4142.794c.242.378,1.315-.166,2.72-.37s2.63-.045,2.69-.469c0-.2-.28-.529-.839-.756a3.888,3.888,0,0,0-2.2-.3,3.528,3.528,0,0,0-1.927.944C375.434,4142.22,375.29,4142.613,375.4,4142.794Z" transform="translate(-228.861 -4067.688)" fill="#263238"/>
          <path id="Trazado_102597" data-name="Trazado 102597" d="M358.508,4145.893c.295.325,1.217-.181,2.38-.355s2.191-.053,2.373-.461c.068-.2-.136-.544-.612-.824a3.18,3.18,0,0,0-3.831.658C358.462,4145.341,358.371,4145.734,358.508,4145.893Z" transform="translate(-224.728 -4068.428)" fill="#263238"/>
          <path id="Trazado_102598" data-name="Trazado 102598" d="M362.621,4124.47c-2.267,6.007,3.536,7.186,6.68,8.955a42.6,42.6,0,0,0,10.133,3.687,3.625,3.625,0,0,1,3.34,3.083q.968,3.112,1.934,6.227a17.471,17.471,0,0,1,.967,4.534,5.87,5.87,0,0,1-1.4,4.277,3.3,3.3,0,0,0,2.267-1.285,12.641,12.641,0,0,1-1.413,6.514,7.554,7.554,0,0,0,6.665-4.367,3.961,3.961,0,0,0,1.625,2.523c.348.3.99.492.831.061a29.66,29.66,0,0,1-.756-3.022c1.39.567,1.746,1.005,4.693.1a6.954,6.954,0,0,1-2.826-3.846s.8,1.632,3.348.831a10.369,10.369,0,0,1-3.544-6.981c-.212-3.779-.068-8.313-.846-12.045a16.922,16.922,0,0,0-5.546-9.748,18.686,18.686,0,0,0-8.577-3.589,29.4,29.4,0,0,0-10,0c-2.086.347-6.635,1.1-7.609,4.118" transform="translate(-225.622 -4062.579)" fill="#263238"/>
          <path id="Trazado_102599" data-name="Trazado 102599" d="M389.885,4160.416a18.33,18.33,0,0,0,2.146-.506,7.554,7.554,0,0,0,2.267-1.209,6.715,6.715,0,0,0,2.108-2.69l.144-.355.091.37a4.543,4.543,0,0,0,.756,1.685,2.555,2.555,0,0,0,1.647,1.05l-.159.181c-.257-1.043-.529-2.146-.816-3.287l-.091-.378.333.2a4.936,4.936,0,0,0,4.534.075v.3a6.954,6.954,0,0,1-2.909-3.944l-.272-.953.6.794a2.685,2.685,0,0,0,3.121.756l-.045.325a10.811,10.811,0,0,1-3.552-6.748,43.328,43.328,0,0,1-.325-7.458,21.314,21.314,0,0,0-.846-6.8,16.735,16.735,0,0,0-6.937-9.068,17.176,17.176,0,0,0-7.375-2.531,20.7,20.7,0,0,0-2.138-.09h-.756a12.061,12.061,0,0,1,2.909-.068,16.713,16.713,0,0,1,14.637,11.667,21.717,21.717,0,0,1,.884,6.9,43.707,43.707,0,0,0,.325,7.4,10.509,10.509,0,0,0,3.408,6.513l.249.2-.287.128a3.024,3.024,0,0,1-3.574-.892l.325-.167a6.69,6.69,0,0,0,2.743,3.778l.264.174-.28.128a5.288,5.288,0,0,1-4.859-.105l.234-.182.793,3.295.053.211h-.2a2.792,2.792,0,0,1-1.844-1.171,4.873,4.873,0,0,1-.793-1.8h.242a6.731,6.731,0,0,1-2.229,2.765,7.425,7.425,0,0,1-2.373,1.179,8.373,8.373,0,0,1-1.617.34A2.992,2.992,0,0,1,389.885,4160.416Z" transform="translate(-230.338 -4062.594)" fill="#0a4b6e"/>
          <path id="Trazado_102600" data-name="Trazado 102600" d="M392.536,4151.294a1.523,1.523,0,0,1,0-.438c0-.333.045-.756.076-1.262a34.49,34.49,0,0,0,0-4.609,15.788,15.788,0,0,0-1.776-6.506,10.428,10.428,0,0,0-2.509-3.068,12.257,12.257,0,0,0-3.733-2.047,34.5,34.5,0,0,0-8.214-1.459,36.117,36.117,0,0,1-6.8-1.111,13.5,13.5,0,0,1-4.2-1.972,9.734,9.734,0,0,1-.967-.824c-.2-.2-.31-.31-.295-.325s.453.408,1.353,1.02a13.992,13.992,0,0,0,4.186,1.828,37.864,37.864,0,0,0,6.755,1.028,33.532,33.532,0,0,1,8.312,1.443,12.567,12.567,0,0,1,3.854,2.124,10.647,10.647,0,0,1,2.577,3.188,15.851,15.851,0,0,1,1.738,6.665,30.207,30.207,0,0,1-.151,4.64c-.053.544-.106.967-.151,1.254A1.485,1.485,0,0,1,392.536,4151.294Z" transform="translate(-226.113 -4064.467)" fill="#0a4b6e"/>
          <path id="Trazado_102601" data-name="Trazado 102601" d="M350.751,4228.252l-.514,6.045a27.415,27.415,0,0,1,12.733,3.657l-.348-9.7Z" transform="translate(-222.722 -4089.044)" fill="#ffbe9d"/>
          <path id="Trazado_102602" data-name="Trazado 102602" d="M360.224,4275.7s-5.992,16.625-1.322,24.748,6.34,9.355,12.264,9.007,9.914-4.852,11.123-6.582,3.778-25.639,3.778-25.639l-1.043-22.443-17.833.793Z" transform="translate(-224.404 -4095.53)" fill="#263238"/>
          <path id="Trazado_102603" data-name="Trazado 102603" d="M417.308,4252.873a151.54,151.54,0,0,1,1.927,23.425c-.174,10.942-4.111,24.309-8.312,29.78-2.018,2.6-7.247,3.3-10.911,3.022-3.4-.287-6.672-3.022-6.846-8.244s.824-25.586.756-25.238-4.813-15.211-4.813-15.211l2.909-6.045Z" transform="translate(-232.22 -4095.06)" fill="#263238"/>
          <path id="Trazado_102604" data-name="Trazado 102604" d="M396.214,4277.552a30.262,30.262,0,0,1-.446,4.852,31.013,31.013,0,0,1-.831,4.806,29.419,29.419,0,0,1,.446-4.851A30.1,30.1,0,0,1,396.214,4277.552Z" transform="translate(-233.644 -4101.09)" fill="#0a4b6e"/>
          <path id="Trazado_102605" data-name="Trazado 102605" d="M358.883,4303.581a1.642,1.642,0,0,1-.242-.294,4.466,4.466,0,0,1-.552-.944,12.542,12.542,0,0,1-.929-3.915,45.913,45.913,0,0,1,1.156-13.17,78.746,78.746,0,0,1,3.778-12.672c.635-1.572,1.2-2.819,1.61-3.672q.317-.652.5-.976c.113-.219.181-.332.2-.325a1.193,1.193,0,0,1-.128.363l-.423,1c-.37.869-.9,2.13-1.511,3.71a88.2,88.2,0,0,0-3.688,12.657,49.686,49.686,0,0,0-1.262,13.057,13.246,13.246,0,0,0,.793,3.885C358.58,4303.15,358.92,4303.551,358.883,4303.581Z" transform="translate(-224.385 -4098.661)" fill="#0a4b6e"/>
          <g id="Grupo_49709" data-name="Grupo 49709" transform="translate(140.089 165.656)" opacity="0.3">
            <path id="Trazado_102606" data-name="Trazado 102606" d="M367.119,4265.951l-.242.99c9.778,5.017,21.422,5.727,32.153,3.332,4.889-1.088,9.929-3.022,12.929-7.02A273.072,273.072,0,0,1,367.119,4265.951Z" transform="translate(-366.877 -4263.252)"/>
          </g>
          <path id="Trazado_102607" data-name="Trazado 102607" d="M365.8,4185.063s-9.068,1.2-11.917,14.546c-2.683,12.62-3.778,18.09-3.778,18.09h17.017Z" transform="translate(-222.69 -4078.491)" fill="#69f"/>
          <path id="Trazado_102608" data-name="Trazado 102608" d="M401.727,4176.215s12.287-2.509,19.027,4.632c5.562,5.9,10.186,15.559,10.186,15.559l-13.6,6.929Z" transform="translate(-235.303 -4076.224)" fill="#69f"/>
          <path id="Trazado_102609" data-name="Trazado 102609" d="M369.7,4182.932l4.088-1.27s5.645,2.411,10.738.96c6.362-1.821,8.312-6.279,8.312-6.279l10.269.627,6.642,31.949,3.861,33.037c-16.768,5.947-32.893,8.486-47.53,3.159l1.292-4.368-1.3-37.51Z" transform="translate(-226.592 -4076.36)" fill="#69f"/>
          <path id="Trazado_102610" data-name="Trazado 102610" d="M366.149,4241.41a1.746,1.746,0,0,1-.053-.424l-.083-1.208c-.053-1.11-.121-2.622-.212-4.465s-.174-4.149-.272-6.627c-.045-1.246-.1-2.554-.144-3.914s-.083-2.758-.219-4.187a145.2,145.2,0,0,0-2.4-14.523c-.355-1.859-.612-3.363-.756-4.405-.068-.492-.128-.884-.174-1.2a2.351,2.351,0,0,1-.038-.431,1.685,1.685,0,0,1,.113.416c.068.31.151.709.249,1.186l.914,4.375a125.051,125.051,0,0,1,2.509,14.554c.144,1.436.174,2.849.219,4.2s.083,2.667.121,3.914c.068,2.487.128,4.723.189,6.628s.068,3.362.091,4.473v1.216A1.491,1.491,0,0,1,366.149,4241.41Z" transform="translate(-225.546 -4082.146)" fill="#263238"/>
          <path id="Trazado_102611" data-name="Trazado 102611" d="M405,4247.933a7.137,7.137,0,0,1-1,.552c-.65.34-1.617.793-2.811,1.33a86.9,86.9,0,0,1-9.627,3.528,99.089,99.089,0,0,1-9.959,2.456c-1.285.258-2.335.423-3.023.529a7.235,7.235,0,0,1-1.133.128,5.516,5.516,0,0,1,1.1-.279l3.023-.649c2.554-.56,6.045-1.406,9.891-2.562s7.216-2.418,9.634-3.407c1.209-.5,2.191-.914,2.856-1.209A5.84,5.84,0,0,1,405,4247.933Z" transform="translate(-229.37 -4093.853)" fill="#263238"/>
          <g id="Grupo_49710" data-name="Grupo 49710" transform="translate(135.866 121.118)" opacity="0.3">
            <path id="Trazado_102612" data-name="Trazado 102612" d="M362.224,4204.313l-.189.348a15.425,15.425,0,0,0,2.894,14.7A94.865,94.865,0,0,0,362.224,4204.313Z" transform="translate(-361.287 -4204.313)"/>
          </g>
          <path id="Trazado_102613" data-name="Trazado 102613" d="M406.26,4244.143a12.059,12.059,0,0,1-1.934,1.307,44.934,44.934,0,0,1-10.292,4.481,11.2,11.2,0,0,1-2.267.522,17.747,17.747,0,0,1,2.191-.756c1.353-.468,3.211-1.149,5.214-2.017s3.778-1.769,5.025-2.449A16.555,16.555,0,0,1,406.26,4244.143Z" transform="translate(-232.87 -4092.928)" fill="#263238"/>
          <path id="Trazado_102614" data-name="Trazado 102614" d="M434.061,4199.763s2.267,5.69,4.035,10.579c1.9,5.2,5.471,16.76-2.086,19.5-5.743,2.07-8.6-4.481-8.6-4.481l-4.625-16.262,4.269-2.266-1.368-4.027Z" transform="translate(-240.45 -4082.083)" fill="#ffbe9d"/>
          <path id="Trazado_102615" data-name="Trazado 102615" d="M425.763,4199.543s-3.325-3.431-3.778-4.64l-1.738-7.353s.627-1.027,1.806,0a8.766,8.766,0,0,1,1.413,1.874l.967,2.055.453-1.315-.756-5.04s-.635-3.612.159-3.469,1.39,1.058,1.67,2.623l.62,3.536s.151.6.431-.582-.68-5.479-.642-6.113-.469-2.116.6-2.365,1.232,1.791,1.232,1.791l1.511,6.324v-3.2c0-.476-.242-1.881-.2-2.712s.416-1.368.892-1.466a.868.868,0,0,1,1.1.423l.6,5.629a23.32,23.32,0,0,0,.242,2.743c.113.129.756-1.338.756-1.338l.128-1.926s-.295-2.584.468-2.9.99.151.99.151l.5,4.731-.355,5.645-1.141,5.191-2.63.755Z" transform="translate(-239.829 -4076.944)" fill="#ffbe9d"/>
          <path id="Trazado_102616" data-name="Trazado 102616" d="M431.213,4227.093s-.076,0-.181-.121a2.9,2.9,0,0,1-.446-.453,6.1,6.1,0,0,1-1.05-2.086,22.929,22.929,0,0,1-.62-7.594,26.414,26.414,0,0,0-.6-7.5c-.438-1.881-.884-3.022-.824-3.022a3.152,3.152,0,0,1,.37.755,19.666,19.666,0,0,1,.756,2.191,24,24,0,0,1,.718,7.557,34.656,34.656,0,0,0,0,4.156,18.162,18.162,0,0,0,.506,3.348,6.825,6.825,0,0,0,.9,2.07C431.009,4226.866,431.236,4227.07,431.213,4227.093Z" transform="translate(-241.599 -4083.684)" fill="#eb996e"/>
          <path id="Trazado_102617" data-name="Trazado 102617" d="M430.732,4198.816c-.06,0-.234-.484-.756-1.134a4.972,4.972,0,0,0-2.637-1.738,7.008,7.008,0,0,0-.907-.144,2.853,2.853,0,0,1-.476-.106.592.592,0,0,1-.249-.121.776.776,0,0,1-.181-.2,9.918,9.918,0,0,1-.673-1.368,6.75,6.75,0,0,1-.476-1.3,3.933,3.933,0,0,1,.756,1.179,14.191,14.191,0,0,0,.756,1.284c.091.121.083.128.242.173a2.162,2.162,0,0,0,.408.076,5.674,5.674,0,0,1,.96.151,4.8,4.8,0,0,1,2.766,1.949A2.474,2.474,0,0,1,430.732,4198.816Z" transform="translate(-240.838 -4080.358)" fill="#eb996e"/>
          <path id="Trazado_102618" data-name="Trazado 102618" d="M354.8,4235.563a1.909,1.909,0,0,0-1.549-.839,8.12,8.12,0,0,1-1.821-.227c-.461-.174-.854-.491-1.3-.7a3.021,3.021,0,0,0-3.453.68l-.348-.219a1.819,1.819,0,0,0-1.859-.174,4.1,4.1,0,0,0-1.511,1.247,11.052,11.052,0,0,0-2.267,5.237c-.113.755-.076,1.64.559,2.033a1.414,1.414,0,0,0,1.466-.106,3.577,3.577,0,0,0,1.02-1.156,19.035,19.035,0,0,0,2.055-4.413,36.733,36.733,0,0,0-.982,5.638,3.419,3.419,0,0,0,.136,1.435,1.194,1.194,0,0,0,2.108.438,3.645,3.645,0,0,0,.612-1.02,36.688,36.688,0,0,0,1.889-5.032,31.4,31.4,0,0,0-.6,5.387,1.869,1.869,0,0,0,.559,1.686,1.232,1.232,0,0,0,1.285-.061,2.566,2.566,0,0,0,.854-1.027c.96-1.866.907-4.179,2.093-5.909a15.96,15.96,0,0,0,.952-1.33A1.678,1.678,0,0,0,354.8,4235.563Z" transform="translate(-220.377 -4090.332)" fill="#ffbe9d"/>
          <path id="Trazado_102619" data-name="Trazado 102619" d="M354.724,4235.52a.808.808,0,0,1,.151.34,1.85,1.85,0,0,1-.136,1.065,7.617,7.617,0,0,1-.96,1.436,6.813,6.813,0,0,0-.914,2.071c-.242.824-.408,1.768-.718,2.765a7.153,7.153,0,0,1-.65,1.512,1.883,1.883,0,0,1-1.511,1.013,1.153,1.153,0,0,1-.922-.377,1.729,1.729,0,0,1-.378-.937,14.205,14.205,0,0,1,0-1.965,30.577,30.577,0,0,1,.544-4.133l.348.083c-.28.96-.6,1.935-.982,2.917-.189.491-.393.99-.6,1.511a9.657,9.657,0,0,1-.756,1.511,1.572,1.572,0,0,1-1.6.756,1.678,1.678,0,0,1-1.149-1.391,6.809,6.809,0,0,1,0-1.753c.06-.582.144-1.156.242-1.73.189-1.126.446-2.267.7-3.31l.378.1a18.106,18.106,0,0,1-2.569,5.131,2.175,2.175,0,0,1-1.164.718,1.347,1.347,0,0,1-1.383-.476,2.142,2.142,0,0,1-.34-1.36,7.1,7.1,0,0,1,.2-1.292,11.176,11.176,0,0,1,2.055-4.352,4.626,4.626,0,0,1,1.67-1.467,1.988,1.988,0,0,1,2.048.189h0l.348.212H346.5a3.174,3.174,0,0,1,3.574-.688c.514.25.907.582,1.33.756a4.328,4.328,0,0,0,1.247.166,2.975,2.975,0,0,1,1.708.469.965.965,0,0,1,.378.483,1.574,1.574,0,0,0-.423-.423,3.023,3.023,0,0,0-1.67-.378,4.882,4.882,0,0,1-1.285-.174,15.042,15.042,0,0,1-1.36-.7,2.931,2.931,0,0,0-3.287.679l-.076.076-.091-.053-.355-.211h0a1.7,1.7,0,0,0-1.753-.128,4.374,4.374,0,0,0-1.511,1.391,10.889,10.889,0,0,0-1.972,4.231,7.714,7.714,0,0,0-.181,1.232,1.84,1.84,0,0,0,.28,1.126.97.97,0,0,0,1.013.332,1.831,1.831,0,0,0,1.013-.672,17.846,17.846,0,0,0,2.479-5.01l.378.106c-.242,1.08-.5,2.168-.688,3.287-.1.566-.181,1.133-.234,1.7a6.75,6.75,0,0,0,0,1.647,1.31,1.31,0,0,0,.854,1.081,1.209,1.209,0,0,0,1.2-.6,10.2,10.2,0,0,0,.7-1.413c.212-.491.416-.975.6-1.458.378-.975.7-1.941.99-2.887l.348.083a31.178,31.178,0,0,0-.559,4.088,12.513,12.513,0,0,0-.045,1.9,1.515,1.515,0,0,0,.287.755.84.84,0,0,0,.688.28,1.567,1.567,0,0,0,1.247-.861,6.733,6.733,0,0,0,.642-1.436c.317-.968.5-1.912.756-2.743a6.908,6.908,0,0,1,.99-2.108,8.409,8.409,0,0,0,.99-1.383A1.668,1.668,0,0,0,354.724,4235.52Z" transform="translate(-220.302 -4090.289)" fill="#eb996e"/>
        </g>
      </g>
    </g>
  </g>
</svg>
