<svg id="Icon" xmlns="http://www.w3.org/2000/svg" width="103.304" height="103.304" viewBox="0 0 103.304 103.304">
  <circle id="Base" cx="51.652" cy="51.652" r="51.652" fill="#ea3065"/>
  <path id="Trazado_100518" data-name="Trazado 100518" d="M86.914,9.172,84,6.605l2.916-2.567a1.439,1.439,0,0,0-.951-2.52H73.9V1a1,1,0,1,0-2,0V14.487l-8.213,4.46a3.162,3.162,0,0,0-.325-1.051L62.2,15.637a3.164,3.164,0,0,0-4.253-1.372l-.895.458a3.16,3.16,0,0,0-1.372,4.254l1.157,2.26a3.141,3.141,0,0,0,1.139,1.237,8.762,8.762,0,0,0-1.206,2.9l-.216.763a1,1,0,0,0,.69,1.234.986.986,0,0,0,.272.038,1,1,0,0,0,.962-.728l.215-.762c.438-1.546.708-2.373,1.564-2.839l1.536-.834.189-.1c.063-.032.122-.069.182-.1L73.118,16.1A4.232,4.232,0,0,1,71.1,19.5l-7.12,4.326-.025.015-2.216,1.346a1,1,0,0,0,.956,1.754l-1.681,5.083-1.229.5L56.442,33.9l.963-3.4a1,1,0,0,0-1.925-.545l-1.522,5.381a.952.952,0,0,0-.036.218l-.4,7.315a3.347,3.347,0,0,1-.082,1.079l-4.423,9.3H45.805a3.418,3.418,0,0,0-3.414,3.414v2.887a3.387,3.387,0,0,0-1.414-.308H32.815A3.417,3.417,0,0,0,29.4,62.651v3.582H27a1,1,0,1,0,0,2H85.962a1,1,0,1,0,0-2h-2.6V40.456a3.418,3.418,0,0,0-3.414-3.414H73.9V19.6a6.237,6.237,0,0,0,1-5.345,1,1,0,0,0-1-.734V11.692H85.963a1.439,1.439,0,0,0,.952-2.52ZM57.391,17.18a1.152,1.152,0,0,1,.575-.677l.895-.458a1.16,1.16,0,0,1,1.561.5l1.158,2.26a1.162,1.162,0,0,1-.385,1.491l-.326.177-.688.352a1.161,1.161,0,0,1-1.561-.5l-1.158-2.259A1.153,1.153,0,0,1,57.391,17.18ZM55.381,53.552a3.393,3.393,0,0,0-1.1-.293l1.1-1.458Zm4.748-8.058A3.768,3.768,0,0,0,60.85,43.7c.027-.129.521-2.825.521-2.825s.467.291.516.312a.107.107,0,0,1,.061.087l.544,5.53H59.141Zm5.914-5.52L65.2,46.8h-.7l-.563-5.721a2.107,2.107,0,0,0-1.178-1.691l-1.006-.638.67-3.713s2.822,3.353,2.888,3.438C65.9,39.237,66.1,39.541,66.043,39.974Zm-10.8,4.84a5.42,5.42,0,0,0,.28-1.856l.363-6.672,4.625-1.9-.841,4.657c0,.013-.005.025-.007.038l-.7,3.851a3.808,3.808,0,0,1-.418,1.332l-6.758,8.976h-.557ZM31.4,62.65a1.415,1.415,0,0,1,1.414-1.413h8.162a1.416,1.416,0,0,1,1.414,1.413v3.582H31.4Zm12.99,0V56.658a1.416,1.416,0,0,1,1.414-1.414h8.162a1.415,1.415,0,0,1,1.414,1.414v9.574H44.391V62.65ZM81.361,40.456V66.233H70.372v-6a1,1,0,0,0-2,0v6H57.381V50.22A1.415,1.415,0,0,1,58.8,48.807h8.162a1.415,1.415,0,0,1,1.414,1.413v5.013a1,1,0,0,0,2,0V40.456a1.416,1.416,0,0,1,1.414-1.414h8.162A1.416,1.416,0,0,1,81.361,40.456Zm-9.576-3.414a3.418,3.418,0,0,0-3.414,3.414v6.658a3.385,3.385,0,0,0-1.159-.3l.816-6.6a3.862,3.862,0,0,0-1.13-2.963c-.067-.087-3.954-4.7-3.954-4.7l2.385-7.21L71.9,21.354V37.042ZM73.9,9.692V3.519h10.58L82.2,5.525a1.439,1.439,0,0,0,0,2.16l2.278,2.006H73.9Z" transform="translate(-5.05 17.536)" fill="#fff"/>
</svg>
