<svg xmlns="http://www.w3.org/2000/svg" width="384" height="366.163" viewBox="0 0 384 366.163">
  <g id="Grupo_49128" data-name="Grupo 49128" transform="translate(-197.455 -1127.944)">
    <g id="Grupo_49096" data-name="Grupo 49096" transform="translate(197.455 1127.944)" opacity="0.11">
      <path id="Trazado_98953" data-name="Trazado 98953" d="M522.543,1195.077s-43.307-64.491-137.716-67.071c-48.958-1.337-96.942,18.826-131.522,52.976-38.252,37.778-52.143,90.946-55.346,143.158-1.79,29.178.692,59.813,15.708,84.959,10.813,18.109,27.5,32.2,45.748,42.922,40.519,23.818,88.636,39.82,135.806,41.435,125.59,4.3,185.353-85.988,186.219-140.161s-36.378-57.612-41.575-99.746S533.8,1217.434,522.543,1195.077Z" transform="translate(-197.455 -1127.944)" fill="#e36099"/>
    </g>
    <g id="Grupo_49098" data-name="Grupo 49098" transform="translate(246.004 1292.87)">
      <path id="Trazado_98954" data-name="Trazado 98954" d="M572.2,1466.871c1.893-.7,4.113-2.106,4.734-4.15a3.579,3.579,0,0,0-2.6-4.65c-2.967-.585-6.887,3.21-8.2,5.572-.114.2-1.516,3.6-1.461,3.605C564.681,1467.248,569.972,1467.686,572.2,1466.871Z" transform="translate(-295.16 -1337.052)" fill="#69f"/>
      <path id="Trazado_98955" data-name="Trazado 98955" d="M593.464,1433.088c1.535,1.906,3.1,3.764,4.727,5.52.717.741,1.4,1.545,2.133,2.218l2.143,2.061c.856.768,1.675,1.5,2.487,2.221.4-.653.8-1.305,1.192-1.958-.728-.619-1.456-1.246-2.175-1.861l-2.185-2.014c-.758-.669-1.4-1.4-2.112-2.1-1.023-1.056-2.025-2.2-3.028-3.335,1.273-1.386,4.94-5.519,5.833-8.149.924-2.717,1.346-6.435-.359-8.949a5.094,5.094,0,0,0-7.47-1.283c-3.3,2.761-2.6,10.49-1.158,14.051.047.115.43.836.892,1.686-.945-1.139-1.893-2.274-2.812-3.46-2.609-3.367-5.16-6.876-7.734-10.383-.535-.731-1.083-1.453-1.621-2.182,1.077-1.161,5.088-5.6,6.025-8.359.924-2.717,1.346-6.434-.359-8.949a5.091,5.091,0,0,0-7.468-1.283c-3.3,2.762-2.6,10.49-1.16,14.051.05.127.51.987,1.033,1.944-1.425-1.885-2.869-3.747-4.359-5.55a90.289,90.289,0,0,0-8.213-8.786c.384-.406,5.192-5.519,6.234-8.583.923-2.717,1.345-6.435-.359-8.949a5.093,5.093,0,0,0-7.469-1.284c-3.3,2.762-2.6,10.491-1.16,14.052.1.252,1.788,3.35,2.427,4.437-.035-.031-.067-.068-.1-.1a66.392,66.392,0,0,0-9.479-7.039,90.4,90.4,0,0,0-9.281-5.024c-2.943-1.418-5.723-2.534-8.191-3.5-1.341-.513-2.576-.958-3.733-1.361l.08-.043c.068-.038-3.748-3.609-4.015-3.808-3.087-2.288-10.4-4.894-13.9-2.388a5.092,5.092,0,0,0-.625,7.552c2.009,2.279,5.715,2.8,8.576,2.586,2.933-.222,8.325-3.054,9.654-3.774,1.194.442,2.464.928,3.857,1.5,2.441,1.019,5.187,2.191,8.088,3.667.773.391,1.589.843,2.388,1.267-1.494-.435-3.555-1-3.761-1.037-3.794-.607-11.482.448-13.433,4.283a5.093,5.093,0,0,0,2.926,6.99c2.832,1.1,6.361-.148,8.8-1.658,2.546-1.575,6.094-6.709,6.859-7.841,1.755.966,3.536,2,5.329,3.186a65.582,65.582,0,0,1,9.206,7.149c.164.155.314.335.476.491-.7-.342-4.686-1.947-4.976-2.027-3.7-1.021-11.462-.817-13.823,2.782a5.091,5.091,0,0,0,2.14,7.269c2.695,1.4,6.339.552,8.931-.681,2.987-1.421,7.662-7.017,7.838-7.229a89.816,89.816,0,0,1,7.747,8.676c1.782,2.254,3.495,4.609,5.192,6.99-.923-.426-4.627-1.914-4.906-1.991-3.7-1.021-11.462-.816-13.822,2.781a5.092,5.092,0,0,0,2.14,7.269c2.695,1.4,6.339.553,8.93-.681,2.916-1.386,7.419-6.73,7.8-7.181.77,1.081,1.543,2.158,2.307,3.247,2.493,3.557,4.975,7.133,7.534,10.588.886,1.2,1.8,2.343,2.717,3.5-1.4-.594-3.979-1.626-4.21-1.689-3.7-1.021-11.462-.816-13.822,2.781a5.092,5.092,0,0,0,2.139,7.27c2.7,1.4,6.339.553,8.931-.68S592.388,1434.344,593.464,1433.088Z" transform="translate(-288.747 -1325.756)" fill="#69f"/>
      <path id="Trazado_98956" data-name="Trazado 98956" d="M510.5,1460c.019.232.721,3.839.77,3.813,0,0,4.66-2.555,6.064-4.462,1.2-1.625,2.268-4.027,1.66-6.073a3.578,3.578,0,0,0-4.731-2.446C511.467,1451.978,510.291,1457.3,510.5,1460Z" transform="translate(-287.905 -1336.056)" fill="#69f"/>
      <path id="Trazado_98957" data-name="Trazado 98957" d="M622.443,1434.158a5.093,5.093,0,0,0-3.3,6.823,6.093,6.093,0,0,0,.492,1.015,19.661,19.661,0,0,0,1.31,7.278,144.8,144.8,0,0,0,7.046-13.922A7.82,7.82,0,0,0,622.443,1434.158Z" transform="translate(-302.404 -1333.84)" fill="#69f"/>
      <path id="Trazado_98958" data-name="Trazado 98958" d="M541.11,1511.513c.216-.676.507-1.292.76-1.951.392-.956.844-1.924,1.295-2.889,1.251.429,4.945,1.627,6.891,1.462,2.01-.169,4.523-.945,5.663-2.751a3.578,3.578,0,0,0-1.278-5.171c-2.708-1.348-7.49,1.277-9.376,3.209-.061.063-.418.513-.835,1.051.468-.929.931-1.86,1.437-2.785,1.433-2.628,2.975-5.26,4.509-7.9.32-.551.631-1.1.948-1.658,1.052.366,5.041,1.7,7.081,1.526,2.009-.17,4.524-.945,5.663-2.751a3.579,3.579,0,0,0-1.278-5.171c-2.708-1.349-7.489,1.276-9.376,3.209-.067.069-.492.607-.961,1.212.813-1.448,1.606-2.9,2.346-4.369a63.3,63.3,0,0,0,3.347-7.764c.37.133,5.016,1.79,7.282,1.6,2.01-.171,4.523-.946,5.663-2.751a3.58,3.58,0,0,0-1.278-5.172c-2.708-1.348-7.489,1.277-9.376,3.21-.133.137-1.654,2.094-2.175,2.813.01-.031.026-.062.036-.094a46.773,46.773,0,0,0,1.864-8.086,63.525,63.525,0,0,0,.623-7.391c.084-2.3.021-4.4-.052-6.261-.047-1.008-.108-1.93-.175-2.788l.05.04c.044.033,1.27-3.431,1.323-3.658.6-2.632.223-8.073-2.375-9.622a3.58,3.58,0,0,0-5.04,1.725c-.9,1.934-.194,4.468.751,6.25.968,1.826,4.31,4.5,5.148,5.155.052.892.1,1.847.123,2.905.031,1.859.049,3.958-.084,6.241-.034.607-.1,1.261-.144,1.9-.14-1.085-.354-2.572-.391-2.714-.677-2.614-3.522-7.269-6.541-7.446a3.581,3.581,0,0,0-3.678,3.853c.092,2.133,1.886,4.055,3.547,5.2,1.732,1.2,6.037,2.036,6.981,2.209-.128,1.4-.292,2.84-.551,4.329a46.145,46.145,0,0,1-2.012,7.943c-.054.149-.128.3-.184.443.023-.548-.065-3.565-.1-3.775-.385-2.673-2.7-7.612-5.683-8.119a3.58,3.58,0,0,0-4.079,3.426c-.145,2.13,1.429,4.238,2.953,5.56,1.757,1.524,6.677,2.958,6.863,3.012a63.15,63.15,0,0,1-3.4,7.432c-.95,1.783-1.985,3.549-3.04,5.312.014-.713-.07-3.518-.1-3.72-.386-2.673-2.7-7.611-5.684-8.118a3.579,3.579,0,0,0-4.079,3.426c-.144,2.13,1.43,4.237,2.954,5.559,1.714,1.487,6.423,2.884,6.821,3-.48.8-.955,1.6-1.442,2.4-1.589,2.606-3.193,5.212-4.7,7.833-.522.907-1,1.822-1.487,2.734-.013-1.071-.074-3.02-.1-3.187-.386-2.673-2.7-7.611-5.684-8.118a3.58,3.58,0,0,0-4.079,3.426c-.143,2.13,1.43,4.238,2.954,5.56s5.465,2.588,6.578,2.927c-.8,1.525-1.552,3.056-2.224,4.6-.275.671-.6,1.339-.828,2q-.365.99-.724,1.96c-.326.991-.633,1.927-.927,2.858.66-.322,1.314-.65,1.967-.979.139-.455.278-.911.415-1.361Q540.766,1512.511,541.11,1511.513Z" transform="translate(-290.948 -1334.558)" fill="#69f"/>
      <path id="Trazado_98959" data-name="Trazado 98959" d="M531.831,1516.188c.024-2.7-1.518-7.933-4.388-8.886a3.579,3.579,0,0,0-4.552,2.767,4.333,4.333,0,0,0-.1.787,13.907,13.907,0,0,0-2.267,6.636c-.006.172.149,2.223.249,3.268-.275-.82-.55-1.635-.822-2.5-.4-1.234-.782-2.55-1.161-3.824q-.258-1-.521-2.023c-.191-.684-.29-1.358-.443-2.048-.2-1.014-.356-2.07-.514-3.124,1.28-.332,5.023-1.371,6.554-2.583,1.583-1.251,3.251-3.284,3.206-5.418a3.58,3.58,0,0,0-3.919-3.609c-3,.37-5.542,5.2-6.049,7.85-.017.086-.066.657-.118,1.335-.122-1.032-.249-2.064-.338-3.115-.255-2.982-.42-6.028-.6-9.08-.037-.637-.084-1.271-.124-1.906,1.079-.274,5.142-1.364,6.748-2.633,1.583-1.251,3.251-3.284,3.2-5.419a3.579,3.579,0,0,0-3.918-3.609c-3,.37-5.542,5.2-6.05,7.849-.018.095-.075.778-.132,1.543-.121-1.657-.263-3.307-.453-4.94a63.481,63.481,0,0,0-1.491-8.32c.381-.094,5.171-1.275,6.955-2.686,1.583-1.251,3.251-3.284,3.206-5.419a3.581,3.581,0,0,0-3.918-3.609c-3,.371-5.542,5.2-6.05,7.851-.035.187-.224,2.659-.262,3.545-.009-.032-.013-.066-.022-.1A46.663,46.663,0,0,0,510.84,1467a63.387,63.387,0,0,0-3.559-6.509c-1.2-1.961-2.41-3.68-3.5-5.193-.6-.815-1.155-1.549-1.684-2.229l.063,0c.055,0-.833-3.561-.915-3.78-.948-2.529-4.268-6.858-7.289-6.715a3.579,3.579,0,0,0-3.252,4.218c.314,2.112,2.3,3.835,4.073,4.8,1.815.989,6.079,1.377,7.138,1.458.536.718,1.1,1.489,1.705,2.356,1.052,1.533,2.224,3.274,3.373,5.252.308.525.617,1.1.926,1.66-.716-.828-1.715-1.95-1.824-2.048-2.007-1.807-6.947-4.119-9.562-2.6a3.579,3.579,0,0,0-.943,5.242c1.252,1.729,3.811,2.342,5.827,2.383,2.1.043,6.158-1.633,7.042-2.008.667,1.24,1.324,2.53,1.929,3.915a46.1,46.1,0,0,1,2.7,7.735c.037.153.057.318.093.471-.283-.469-2.022-2.938-2.162-3.1-1.8-2.016-6.453-4.858-9.22-3.635a3.578,3.578,0,0,0-1.512,5.106c1.055,1.856,3.53,2.746,5.53,3.008,2.3.3,7.2-1.216,7.386-1.273a62.991,62.991,0,0,1,1.259,8.078c.191,2.011.3,4.056.395,6.108-.383-.6-2-2.9-2.135-3.049-1.8-2.017-6.453-4.858-9.218-3.636a3.579,3.579,0,0,0-1.513,5.107c1.055,1.857,3.53,2.746,5.53,3.009,2.25.294,6.948-1.139,7.344-1.261.042.932.087,1.862.12,2.8.114,3.051.213,6.109.4,9.126.067,1.044.17,2.071.269,3.1-.6-.886-1.727-2.479-1.84-2.6-1.8-2.016-6.453-4.857-9.219-3.636a3.58,3.58,0,0,0-1.513,5.108c1.056,1.856,3.53,2.745,5.53,3.008s5.987-.857,7.1-1.187c.178,1.711.391,3.4.682,5.062.14.712.238,1.448.411,2.124l.478,2.034c.374,1.377.717,2.658,1.1,3.931.189.645.381,1.248.572,1.873-.475-.99-1.253-2.545-1.341-2.679-1.47-2.266-5.642-5.779-8.561-4.99a3.578,3.578,0,0,0-2.27,4.818c.762,1.995,3.075,3.25,5.012,3.812,2.136.619,6.839-.044,7.414-.129.054.173.108.338.162.51.527-.208,1.061-.411,1.584-.622l0-.011c.528-.218,4.605-1.938,6.252-3.518.264.17.534.333.8.492q1.913-.871,3.783-1.777C531.819,1516.349,531.831,1516.224,531.831,1516.188Z" transform="translate(-285.253 -1334.987)" fill="#69f"/>
      <path id="Trazado_98960" data-name="Trazado 98960" d="M630.92,1351.351a20.049,20.049,0,0,0-4.147,8.194c-.055.268-.358,3.781-.424,5.04-.011-.045-.017-.094-.029-.139a66.386,66.386,0,0,0-4.023-11.1,90.446,90.446,0,0,0-4.969-9.311c-1.673-2.807-3.375-5.271-4.9-7.439-.834-1.167-1.62-2.221-2.363-3.194l.09.008c.079.006-1.135-5.079-1.247-5.391-1.313-3.611-5.972-9.817-10.272-9.657a5.092,5.092,0,0,0-4.687,5.954c.418,3.008,3.22,5.487,5.726,6.887,2.567,1.433,8.628,2.045,10.133,2.179.752,1.026,1.543,2.132,2.392,3.375,1.474,2.2,3.118,4.689,4.723,7.52.429.752.86,1.581,1.292,2.375-1.006-1.188-2.41-2.8-2.565-2.94-2.829-2.6-9.824-5.961-13.566-3.838a5.092,5.092,0,0,0-1.417,7.445c1.757,2.477,5.387,3.386,8.256,3.472,2.993.091,8.785-2.234,10.046-2.756.931,1.775,1.846,3.619,2.688,5.6a65.718,65.718,0,0,1,3.736,11.043c.05.218.075.452.123.671-.4-.672-2.832-4.208-3.032-4.435-2.526-2.9-9.109-7-13.062-5.305a5.091,5.091,0,0,0-2.226,7.243c1.475,2.656,4.983,3.958,7.825,4.359,3.274.463,10.262-1.626,10.525-1.7a89.627,89.627,0,0,1,1.676,11.508c.243,2.864.372,5.774.475,8.694-.536-.863-2.8-4.149-2.993-4.367-2.527-2.9-9.11-7-13.063-5.3a5.091,5.091,0,0,0-2.226,7.243c1.475,2.656,4.983,3.957,7.825,4.359,3.2.452,9.9-1.52,10.466-1.688.046,1.326.1,2.65.132,3.981.116,4.342.214,8.694.443,12.987.079,1.488.212,2.95.338,4.416-.844-1.27-2.423-3.55-2.58-3.731-2.527-2.895-9.11-7-13.064-5.3a5.092,5.092,0,0,0-2.225,7.243c1.475,2.655,4.983,3.957,7.825,4.358s8.527-1.132,10.119-1.588c.03.328.072.651.1.977.521-1.531,1-3.051,1.446-4.564-.063-.639-.125-1.279-.172-1.925-.319-4.247-.511-8.582-.722-12.926-.043-.905-.1-1.808-.149-2.713.817-.2,2.832-.713,4.887-1.417.241-2.374.389-4.7.425-6.957.035-2.188,0-4.284-.083-6.313a19.4,19.4,0,0,0-5.2,9.265c-.027.135-.118,1.106-.211,2.192-.148-2.358-.326-4.707-.574-7.032a90.25,90.25,0,0,0-2-11.86,52.436,52.436,0,0,0,7.089-2.2A75.033,75.033,0,0,0,630.92,1351.351Z" transform="translate(-299.071 -1318.359)" fill="#69f"/>
      <path id="Trazado_98961" data-name="Trazado 98961" d="M549.681,1368.629c-2.454,3.535.259,10.806,2.591,13.859.2.263,3.828,4.028,3.866,3.959,0-.005,3.591-6.653,3.794-10.016.174-2.865-.4-6.563-2.709-8.536A5.09,5.09,0,0,0,549.681,1368.629Z" transform="translate(-293.023 -1324.812)" fill="#69f"/>
      <path id="Trazado_98962" data-name="Trazado 98962" d="M602.5,1458.035a5.092,5.092,0,0,0,1.012,7.51,8.436,8.436,0,0,0,5.521,1.3q3.58-4.863,6.667-9.814C611.923,1455.687,605.161,1455.081,602.5,1458.035Z" transform="translate(-300.058 -1336.772)" fill="#69f"/>
      <path id="Trazado_98963" data-name="Trazado 98963" d="M621.905,1343.8c.022.331.971,5.471,1.04,5.435,0,0,5.381-2.885,7.939-5.424a83.591,83.591,0,0,0-6.211-10.632A19.133,19.133,0,0,0,621.905,1343.8Z" transform="translate(-302.817 -1320.342)" fill="#69f"/>
      <g id="Grupo_49097" data-name="Grupo 49097" transform="translate(0 104.843)">
        <path id="Trazado_98964" data-name="Trazado 98964" d="M315.419,1521.588c-.456-3.163-3.2-9.008-6.726-9.607a4.237,4.237,0,0,0-4.828,4.053,6.265,6.265,0,0,0,.888,3.416q5.325,2.385,10.756,4.575C315.479,1522.9,315.439,1521.727,315.419,1521.588Z" transform="translate(-260.246 -1449.112)" fill="#69f"/>
        <path id="Trazado_98965" data-name="Trazado 98965" d="M334.539,1485.133c.437.159,5.936,2.119,8.619,1.891,2.378-.2,5.352-1.119,6.7-3.256a4.237,4.237,0,0,0-1.511-6.12c-3.2-1.594-8.862,1.511-11.1,3.8-.158.162-1.958,2.479-2.574,3.328.012-.036.03-.073.042-.11a55.248,55.248,0,0,0,2.206-9.569,75.362,75.362,0,0,0,.737-8.748c.1-2.716.024-5.206-.062-7.41-.055-1.192-.127-2.283-.207-3.3l.06.046c.052.04,1.5-4.059,1.565-4.328.714-3.115.264-9.554-2.811-11.387a4.236,4.236,0,0,0-5.964,2.041c-1.067,2.289-.23,5.287.888,7.4,1.145,2.162,5.1,5.328,6.092,6.1.061,1.057.114,2.186.146,3.438.036,2.2.058,4.684-.1,7.385-.04.72-.113,1.493-.171,2.243-.165-1.284-.419-3.044-.463-3.212-.8-3.094-4.167-8.6-7.74-8.81a4.236,4.236,0,0,0-4.353,4.559c.107,2.524,2.232,4.8,4.2,6.156,2.049,1.415,7.145,2.409,8.262,2.614-.152,1.66-.346,3.361-.652,5.123a54.677,54.677,0,0,1-2.381,9.4c-.063.176-.151.35-.216.525.027-.648-.077-4.22-.113-4.468-.456-3.163-3.2-9.008-6.726-9.607a4.235,4.235,0,0,0-4.827,4.053c-.171,2.521,1.691,5.015,3.494,6.579,2.079,1.8,7.9,3.5,8.122,3.565a74.588,74.588,0,0,1-4.03,8.8c-1.124,2.11-2.349,4.2-3.6,6.286.016-.845-.083-4.164-.118-4.4-.456-3.164-3.2-9.008-6.726-9.607a4.235,4.235,0,0,0-4.827,4.053c-.17,2.521,1.692,5.015,3.495,6.579,2.029,1.761,7.6,3.412,8.072,3.55-.567.948-1.13,1.9-1.707,2.84-1.88,3.084-3.779,6.168-5.558,9.27-.411.713-.8,1.429-1.18,2.146.479.192.956.389,1.436.579.339-.668.683-1.335,1.045-2,1.7-3.11,3.521-6.225,5.336-9.354.378-.651.747-1.309,1.123-1.962,1.244.434,5.965,2.011,8.379,1.806,2.378-.2,5.354-1.119,6.7-3.256a4.235,4.235,0,0,0-1.512-6.119c-3.2-1.6-8.861,1.51-11.1,3.8-.08.081-.582.719-1.137,1.435.961-1.713,1.9-3.434,2.776-5.171A74.867,74.867,0,0,0,334.539,1485.133Z" transform="translate(-261.657 -1439.405)" fill="#69f"/>
        <path id="Trazado_98966" data-name="Trazado 98966" d="M283.551,1502.422c-.044-.753-.1-1.5-.146-2.257,1.277-.324,6.086-1.614,7.986-3.115,1.873-1.48,3.847-3.885,3.792-6.412a4.235,4.235,0,0,0-4.636-4.27c-3.552.437-6.558,6.15-7.159,9.289-.023.112-.089.92-.157,1.825-.143-1.961-.311-3.913-.536-5.846a74.994,74.994,0,0,0-1.766-9.847c.452-.11,6.119-1.508,8.232-3.178,1.873-1.48,3.847-3.886,3.793-6.412a4.237,4.237,0,0,0-4.636-4.271c-3.553.438-6.558,6.151-7.16,9.29-.042.222-.265,3.147-.31,4.195-.009-.037-.015-.078-.025-.115a55.333,55.333,0,0,0-3.439-9.2,75.262,75.262,0,0,0-4.212-7.7c-1.414-2.32-2.851-4.355-4.138-6.146-.705-.964-1.366-1.833-1.993-2.637l.076.005c.065.005-.987-4.214-1.083-4.473-1.122-2.993-5.051-8.116-8.625-7.947a4.236,4.236,0,0,0-3.849,4.991c.372,2.5,2.726,4.537,4.821,5.68,2.148,1.171,7.194,1.629,8.447,1.727.634.848,1.3,1.762,2.017,2.787,1.245,1.814,2.633,3.874,3.992,6.215.364.623.729,1.307,1.095,1.964-.847-.979-2.028-2.307-2.158-2.423-2.375-2.138-8.221-4.875-11.317-3.078a4.236,4.236,0,0,0-1.116,6.2c1.483,2.046,4.51,2.771,6.9,2.82,2.49.05,7.288-1.932,8.333-2.377.789,1.468,1.566,2.995,2.282,4.634a54.523,54.523,0,0,1,3.2,9.154c.044.181.068.375.11.558-.335-.557-2.393-3.478-2.559-3.664-2.126-2.387-7.636-5.749-10.91-4.3a4.236,4.236,0,0,0-1.79,6.044c1.249,2.2,4.177,3.25,6.545,3.56,2.727.358,8.522-1.439,8.739-1.507a74.693,74.693,0,0,1,1.491,9.56c.226,2.379.358,4.8.468,7.228-.453-.714-2.367-3.428-2.527-3.608-2.125-2.386-7.637-5.749-10.91-4.3a3.946,3.946,0,0,0-2.282,2.865c.165.1.327.2.492.3q5.323,3.13,10.817,6.07c2.147-.426,4.145-1.035,4.418-1.119.049,1.1.1,2.2.143,3.309l.008.215c.433.224.87.441,1.3.662C283.588,1503.045,283.57,1502.735,283.551,1502.422Z" transform="translate(-253.507 -1439.912)" fill="#69f"/>
        <path id="Trazado_98967" data-name="Trazado 98967" d="M297.63,1515.683a4.465,4.465,0,0,0-1.747.648q3.135,1.507,6.314,2.943A4.18,4.18,0,0,0,297.63,1515.683Z" transform="translate(-259.179 -1449.611)" fill="#69f"/>
        <path id="Trazado_98968" data-name="Trazado 98968" d="M352.52,1461.528c-3.511-.692-8.149,3.8-9.7,6.594-.134.242-1.795,4.26-1.73,4.266.005,0,6.267.52,8.9-.446,2.242-.823,4.867-2.493,5.6-4.91A4.236,4.236,0,0,0,352.52,1461.528Z" transform="translate(-265.23 -1442.356)" fill="#69f"/>
        <path id="Trazado_98969" data-name="Trazado 98969" d="M332.652,1528.576a4.235,4.235,0,0,0-1.511-6.119c-3.2-1.6-8.863,1.511-11.1,3.8-.009.009-.035.041-.051.06q5.357,2.115,10.8,4.026A5.714,5.714,0,0,0,332.652,1528.576Z" transform="translate(-262.407 -1450.463)" fill="#69f"/>
        <path id="Trazado_98970" data-name="Trazado 98970" d="M281.433,1452.957c-3.31,1.36-4.7,7.663-4.453,10.85.023.275.854,4.543.911,4.512,0,0,5.515-3.023,7.176-5.281,1.416-1.923,2.685-4.765,1.964-7.186A4.234,4.234,0,0,0,281.433,1452.957Z" transform="translate(-256.645 -1441.178)" fill="#69f"/>
      </g>
    </g>
    <g id="Grupo_49127" data-name="Grupo 49127" transform="translate(200.959 1177.147)">
      <g id="Grupo_49115" data-name="Grupo 49115" transform="translate(0 0)">
        <path id="Trazado_98971" data-name="Trazado 98971" d="M415.23,1253.243l-14.436,8.084-19.344-16.168,9.239-11.549Z" transform="translate(-225.589 -1191.291)" fill="#fff" stroke="#1a2e35" stroke-miterlimit="10" stroke-width="1"/>
        <g id="Grupo_49099" data-name="Grupo 49099" transform="translate(81.894 91.667)">
          <path id="Trazado_98972" data-name="Trazado 98972" d="M297.268,1458.139s-.727,3.632,7.626,4.358a143.019,143.019,0,0,1,15.254,2.179s-10.532-12.348-8.716-23.969-4-7.99-7.627,0A170.15,170.15,0,0,0,297.268,1458.139Z" transform="translate(-296.212 -1309.687)" fill="#69f" stroke="#1a2e35" stroke-miterlimit="10" stroke-width="1"/>
          <path id="Trazado_98973" data-name="Trazado 98973" d="M381,1297.034s-1.09,20.338.727,25.423,19.611,41.039,23.97,46.123a57.926,57.926,0,0,1,5.811,7.627s-7.627-1.453-13.8,2.179-6.9,13.437-6.537,18.521S385,1425.6,374.1,1432.862s-29.78,11.259-39.949,4.722-23.97-6.537-29.418-4.722a13.759,13.759,0,0,0-7.626,6.174s-4.721-21.064,5.811-46.123,16.706-59.561,16.706-59.561,53.386-37.771,54.113-39.95S381.363,1286.866,381,1297.034Z" transform="translate(-296.052 -1290.584)" fill="#69f" stroke="#1a2e35" stroke-miterlimit="10" stroke-width="1"/>
          <path id="Trazado_98974" data-name="Trazado 98974" d="M384.649,1347.306c.3,1.789.673,3.576,1.113,5.335" transform="translate(-307.911 -1298.177)" fill="none" stroke="#1a2e35" stroke-miterlimit="10" stroke-width="1"/>
          <path id="Trazado_98975" data-name="Trazado 98975" d="M384.194,1308.39a124.368,124.368,0,0,0-.455,28.651" transform="translate(-307.706 -1292.967)" fill="none" stroke="#1a2e35" stroke-miterlimit="10" stroke-width="1"/>
          <path id="Trazado_98976" data-name="Trazado 98976" d="M324.3,1406.414a76.022,76.022,0,0,0,1.177,11.34" transform="translate(-299.833 -1306.089)" fill="none" stroke="#1a2e35" stroke-miterlimit="10" stroke-width="1"/>
          <path id="Trazado_98977" data-name="Trazado 98977" d="M332.284,1346.652s-7.366,22.665-8,45.39" transform="translate(-299.831 -1298.089)" fill="none" stroke="#1a2e35" stroke-miterlimit="10" stroke-width="1"/>
        </g>
        <path id="Trazado_98978" data-name="Trazado 98978" d="M369.482,1311.944l-2.888,19.633s16.746,47.926,17.9,51.391,35.8,23.1,38.11,23.674,28.871,12.126,28.871,12.126l-29.449,38.688L372.369,1438.4h-8.084c-3.465,0-10.971-8.084-10.971-9.816v-18.478s-3.465-19.055-3.465-32.913.578-38.687.578-38.687l-2.31-15.014Z" transform="translate(-221.127 -1201.777)" fill="#fff" stroke="#1a2e35" stroke-miterlimit="10" stroke-width="1"/>
        <g id="Grupo_49100" data-name="Grupo 49100" transform="translate(95.809 44.71)">
          <path id="Trazado_98979" data-name="Trazado 98979" d="M390.936,1255.922a100.739,100.739,0,0,1-17.323-11.838c-8.373-7.218-15.013-8.95-19.344-6.929s-7.218,7.507-7.218,7.507-7.506,2.021-11.26,6.063-19.055,23.1-21.076,28.871-2.6,7.507-2.6,7.507,40.131-24.54,51.68-28,25.118,2.6,27.716,2.6S394.978,1261.119,390.936,1255.922Z" transform="translate(-312.117 -1236.371)" fill="#69f" stroke="#1a2e35" stroke-miterlimit="10" stroke-width="1"/>
          <path id="Trazado_98980" data-name="Trazado 98980" d="M352.45,1245.925s15.014-1.732,31.47,7.8" transform="translate(-317.516 -1237.633)" fill="none" stroke="#1a2e35" stroke-miterlimit="10" stroke-width="1"/>
        </g>
        <g id="Grupo_49102" data-name="Grupo 49102" transform="translate(0 136.152)">
          <path id="Trazado_98981" data-name="Trazado 98981" d="M270.748,1341.944s-34.068,6.351-39.265,6.351-16.168.578-21.076-.577-10.105-.866-8.661,8.084,3.411,8.254,3.175,14.724c-.18,4.964,2.888,17.611,6.929,20.21s5.775.578,5.2-4.907,3.465-17.612,5.486-19.921a31.851,31.851,0,0,1,4.908-4.331s19.921,1.155,30.6,2.309,16.745,3.176,18.189,3.176,6.929-9.816,4.908-15.591C281.142,1351.471,279.409,1345.12,270.748,1341.944Z" transform="translate(-201.501 -1341.944)" fill="#fff" stroke="#1a2e35" stroke-miterlimit="10" stroke-width="1"/>
          <g id="Grupo_49101" data-name="Grupo 49101" transform="translate(0 5.291)">
            <path id="Trazado_98982" data-name="Trazado 98982" d="M226.046,1363.451c-1.153-.466-6.243-2.5-7.266-2.5-.989,0-9.593-4.03-4.6-11.9a25.778,25.778,0,0,1-3.772-.515c-4.908-1.155-10.105-.866-8.661,8.084s3.717,11.013,3.175,14.724c-.717,4.915,2.888,17.611,6.929,20.21s5.775.578,5.2-4.908,3.465-17.611,5.486-19.921A28.269,28.269,0,0,1,226.046,1363.451Z" transform="translate(-201.501 -1348.053)" fill="#fff" stroke="#1a2e35" stroke-miterlimit="10" stroke-width="1"/>
            <path id="Trazado_98983" data-name="Trazado 98983" d="M208.835,1372.877c0-6.438-3.065-8.583-3.985-18.086a20.626,20.626,0,0,1,.142-6.5c-2.515.635-4.132,2.863-3.246,8.357,1.443,8.95,3.717,11.013,3.175,14.724-.717,4.916,2.888,17.611,6.929,20.21a5.494,5.494,0,0,0,3.1,1.117C210.453,1387.376,208.835,1378.914,208.835,1372.877Z" transform="translate(-201.501 -1348.085)" fill="#fff" stroke="#1a2e35" stroke-miterlimit="10" stroke-width="1"/>
          </g>
        </g>
        <g id="Grupo_49104" data-name="Grupo 49104" transform="translate(19.543 151.989)">
          <path id="Trazado_98984" data-name="Trazado 98984" d="M273.822,1365.361s2.25,2.66,11.457,3.478,17.6,2.865,22.506,3.682,9.207,1.637,10.434-.2-.2-1.432-11.048-7.365-25.779-3.887-28.439-3.478S273.822,1365.361,273.822,1365.361Z" transform="translate(-230.725 -1360.305)" fill="#12263f" stroke="#1a2e35" stroke-miterlimit="10" stroke-width="1"/>
          <path id="Trazado_98985" data-name="Trazado 98985" d="M303.795,1367.489s2.31,4.331-4.619,8.661-47.349,30.026-47.349,30.026,2.021,15.88,3.465,20.787,4.908,6.641,3.753,8.662-7.506,2.6-14.435-1.155-19.633-19.633-20.5-22.808,10.971-10.971,10.971-10.971,5.2-2.887,9.816-6.063,12.7-17.035,18.477-21.365a33.129,33.129,0,0,1,10.105-5.485l.578-6.351S295.133,1356.229,303.795,1367.489Z" transform="translate(-224.065 -1360.229)" fill="#fff" stroke="#1a2e35" stroke-miterlimit="10" stroke-width="1"/>
          <g id="Grupo_49103" data-name="Grupo 49103" transform="translate(0 40.136)">
            <path id="Trazado_98986" data-name="Trazado 98986" d="M244.9,1412.957a18.025,18.025,0,0,0-4.908,4.619s-2.442-6.259-4.331-11.008c-.365.208-.577.326-.577.326s-11.838,7.8-10.971,10.97,13.57,19.055,20.5,22.809,13.28,3.175,14.435,1.155-2.309-3.753-3.753-8.661-3.465-20.787-3.465-20.787S248.074,1410.935,244.9,1412.957Z" transform="translate(-224.065 -1406.568)" fill="#fff" stroke="#1a2e35" stroke-miterlimit="10" stroke-width="1"/>
            <path id="Trazado_98987" data-name="Trazado 98987" d="M259.044,1443a1.727,1.727,0,0,0,.083-1.563,23.727,23.727,0,0,1-16-6.555c-7.16-6.649-14.742-16.491-17.061-19.574-1.342,1.433-2.21,2.786-1.952,3.729.866,3.176,13.57,19.055,20.5,22.809S257.889,1445.018,259.044,1443Z" transform="translate(-224.065 -1407.738)" fill="#fff" stroke="#1a2e35" stroke-miterlimit="10" stroke-width="1"/>
          </g>
        </g>
        <g id="Grupo_49106" data-name="Grupo 49106" transform="translate(62.291 91.978)">
          <path id="Trazado_98988" data-name="Trazado 98988" d="M291.05,1305.19a20.408,20.408,0,0,0-6.175,7.674c-3.392,7.39-6.377,17.887-6.377,22.686,0,6.063-4.331,17.756-4.331,17.756s-2.165,3.9.866,3.032,12.559-2.6,20.787-1.3c6.385,1.008,16.161,6.189,20.22,8.46a3.353,3.353,0,0,0,4.515-1.087,2.543,2.543,0,0,0,.383-1.311c0-2.165.433-12.559.433-12.559l19.921-20.354-31.614-37.244Z" transform="translate(-273.419 -1290.944)" fill="#fff" stroke="#1a2e35" stroke-miterlimit="10" stroke-width="1"/>
          <g id="Grupo_49105" data-name="Grupo 49105" transform="translate(11.042 33.246)">
            <path id="Trazado_98989" data-name="Trazado 98989" d="M291.19,1333.974s-5.933,16.769-4.9,18.574,4.386.257,11.867,1.805,16.768,2.322,17.026.516-3.1-21.928-3.1-21.928Z" transform="translate(-286.168 -1329.812)" fill="#fff" stroke="#1a2e35" stroke-miterlimit="10" stroke-width="1"/>
            <path id="Trazado_98990" data-name="Trazado 98990" d="M291.489,1330.295l-1.906,6.549s7.969-.919,14.465-.919,9.527,1.732,9.527,1.732v-6.5S298.418,1327.7,291.489,1330.295Z" transform="translate(-286.625 -1329.328)" fill="#fff" stroke="#1a2e35" stroke-miterlimit="10" stroke-width="1"/>
          </g>
          <path id="Trazado_98991" data-name="Trazado 98991" d="M297.03,1313.284s16.509,1.032,25.023,6.449" transform="translate(-276.58 -1293.934)" fill="none" stroke="#1a2e35" stroke-miterlimit="10" stroke-width="1"/>
          <path id="Trazado_98992" data-name="Trazado 98992" d="M308.347,1303.455s11.094,9.03,17.027,16.769" transform="translate(-278.094 -1292.619)" fill="none" stroke="#1a2e35" stroke-miterlimit="10" stroke-width="1"/>
          <line id="Línea_109" data-name="Línea 109" x1="0.159" y1="25.35" transform="translate(47.795 32.248)" fill="none" stroke="#1a2e35" stroke-miterlimit="10" stroke-width="1"/>
        </g>
        <path id="Trazado_98993" data-name="Trazado 98993" d="M416.622,1263.6l1.3,16.024-16.89,3.465L346.9,1323.362l-31.614-37.244s22.087-19.488,35.512-24.252,19.777-10.394,33.057-4.331,22.809,6.5,22.809,6.5Z" transform="translate(-216.732 -1194.14)" fill="#12263f" stroke="#1a2e35" stroke-miterlimit="10" stroke-width="1"/>
        <g id="Grupo_49108" data-name="Grupo 49108" transform="translate(140.131)">
          <g id="Grupo_49107" data-name="Grupo 49107" transform="translate(16.627 11.612)">
            <path id="Trazado_98994" data-name="Trazado 98994" d="M426.141,1208.093c.476,3.02,1.368,5.96,1.836,8.981.451,2.91-.494,5.06-.494,7.667,0,1.612,5.371,4.3,3.759,6.713a5.2,5.2,0,0,1-4.028,2.417c-1.721,1.3-2.688,8.177-3.392,10.23-.688,2-.909,3.33-2.658,4.459-2.227,1.437-5.909,1.749-8.451,1.96-6.445.537-12.084-4.3-14.232-5.64s-5.371-6.982-5.371-6.982-10.346-3.832-10.615-4.637,4.438-17.114,8.2-19.8,8.861-15.306,18.528-15.306S426.141,1208.092,426.141,1208.093Z" transform="translate(-382.485 -1198.157)" fill="#fff" stroke="#1a2e35" stroke-miterlimit="10" stroke-width="1"/>
            <path id="Trazado_98995" data-name="Trazado 98995" d="M429.821,1227.87c.162,1.145-.346,2.163-1.135,2.275s-1.56-.726-1.722-1.871.346-2.164,1.135-2.275S429.659,1226.724,429.821,1227.87Z" transform="translate(-388.435 -1201.883)" fill="#12263f"/>
            <path id="Trazado_98996" data-name="Trazado 98996" d="M424.827,1221.356s2.685-5.64,7.251.537" transform="translate(-388.153 -1200.947)" fill="none" stroke="#1a2e35" stroke-miterlimit="10" stroke-width="1"/>
            <path id="Trazado_98997" data-name="Trazado 98997" d="M429.079,1245.175s-7.787-1.612-8.593-6.713" transform="translate(-387.572 -1203.552)" fill="none" stroke="#1a2e35" stroke-miterlimit="10" stroke-width="1"/>
          </g>
          <path id="Trazado_98998" data-name="Trazado 98998" d="M401.552,1214.085l-1.288,12.226-2.171-2.655s.833,2.841-.242,3.378-3.054-5.012-3.86-5.549-5.818.861-4.12,8.578c1.75,7.962,1.7,8.187.134,7.52a5.68,5.68,0,0,1-5.1,3.893c-4.3.537-15.075-10.461-17.084-15.192-2.917-6.873-.217-21.167-.217-21.167l-4.3.269a2.23,2.23,0,0,1,1.342-2.417c1.611-.537,5.908-2.148,5.908-2.148a6.866,6.866,0,0,1,.806-6.713c2.417-3.491,3.491,2.148,3.491,2.148a32.6,32.6,0,0,1,13.81-9.829c8.861-3.222,23.9-.805,23.9-.805l-5.1,1.074s9.131.269,12.89,1.344,11.547,8.593,8.324,8.862a37.1,37.1,0,0,0-5.37.805s8.056,5.37,8.324,7.787-12.353,2.148-16.65,2.417-8.324.537-8.324.537,3.491,5.908,2.149,6.176S401.552,1214.085,401.552,1214.085Z" transform="translate(-363.289 -1184.75)" fill="#12263f" stroke="#1a2e35" stroke-miterlimit="10" stroke-width="1"/>
          <path id="Trazado_98999" data-name="Trazado 98999" d="M400.2,1232.359s-2.969-8.918-7.238-7.161c-3.829,1.577-5.435,7.372-1,11.8s9.45,1,9.45,1" transform="translate(-366.768 -1190.134)" fill="#fff" stroke="#1a2e35" stroke-miterlimit="10" stroke-width="1"/>
        </g>
        <g id="Grupo_49111" data-name="Grupo 49111" transform="translate(199.891 50.885)">
          <path id="Trazado_99000" data-name="Trazado 99000" d="M432.428,1274.774l20.787-6.352s5.774-1.732,11.549-2.887,25.984-8.084,25.984-8.084l-1.732-7.507-56.732,12.992Z" transform="translate(-432.284 -1244.362)" fill="#fff" stroke="#1a2e35" stroke-miterlimit="10" stroke-width="1"/>
          <g id="Grupo_49110" data-name="Grupo 49110" transform="translate(65.394)">
            <g id="Grupo_49109" data-name="Grupo 49109">
              <path id="Trazado_99001" data-name="Trazado 99001" d="M507.784,1243.885s5.413-.866,6.713,0,4.331,8.228,4.547,9.961-8.012,2.6-8.012,2.6Z" transform="translate(-507.784 -1243.5)" fill="#fff" stroke="#1a2e35" stroke-miterlimit="10" stroke-width="1"/>
              <path id="Trazado_99002" data-name="Trazado 99002" d="M513.034,1244.194s4.98,9.311,4.98,11.26" transform="translate(-508.487 -1243.592)" fill="none" stroke="#1a2e35" stroke-miterlimit="10" stroke-width="1"/>
              <path id="Trazado_99003" data-name="Trazado 99003" d="M507.784,1243.944s5.846,9.095,6.5,11.91" transform="translate(-507.784 -1243.559)" fill="none" stroke="#1a2e35" stroke-miterlimit="10" stroke-width="1"/>
            </g>
            <path id="Trazado_99004" data-name="Trazado 99004" d="M508.218,1257.187s1.14,2.747,2.006,3.18,6.713,1.082,7.8.433-3.9-4.114-5.846-5.2S509.028,1254.874,508.218,1257.187Z" transform="translate(-507.842 -1245.041)" fill="#fff" stroke="#1a2e35" stroke-miterlimit="10" stroke-width="1"/>
          </g>
        </g>
        <g id="Grupo_49112" data-name="Grupo 49112" transform="translate(167.843 72.231)">
          <path id="Trazado_99005" data-name="Trazado 99005" d="M395.284,1273.475l16.457,11.693-6.063-14.724Z" transform="translate(-395.284 -1268.453)" fill="#69f" stroke="#1a2e35" stroke-miterlimit="10" stroke-width="1"/>
          <path id="Trazado_99006" data-name="Trazado 99006" d="M412.28,1285.252s-4.082,9.041-7.25,15.586,4.012,21.958,4.012,21.958a46.257,46.257,0,0,0,6.967-11.19c2.534-6.123,2.852-16.876,2.852-16.876Z" transform="translate(-396.48 -1270.435)" fill="#69f" stroke="#1a2e35" stroke-miterlimit="10" stroke-width="1"/>
          <path id="Trazado_99007" data-name="Trazado 99007" d="M420.495,1284.649s3.8-1.056,10.556,0,12.668,7.178,15.2,11.4,3.8,6.967,3.8,6.967-15.413,4.222-23.225-3.167S420.495,1284.649,420.495,1284.649Z" transform="translate(-398.644 -1270.292)" fill="#69f" stroke="#1a2e35" stroke-miterlimit="10" stroke-width="1"/>
          <path id="Trazado_99008" data-name="Trazado 99008" d="M411.284,1279.944l3.464,8.661s5.058,6.713,5.058,5.413.139-11.476.139-11.476Z" transform="translate(-397.426 -1269.724)" fill="#69f" stroke="#1a2e35" stroke-miterlimit="10" stroke-width="1"/>
          <path id="Trazado_99009" data-name="Trazado 99009" d="M420.691,1280.963l6.3-12.4-7.39-.422-2.745,11.19Z" transform="translate(-398.171 -1268.145)" fill="#69f" stroke="#1a2e35" stroke-miterlimit="10" stroke-width="1"/>
          <path id="Trazado_99010" data-name="Trazado 99010" d="M421.117,1287.611a42.5,42.5,0,0,1,13.2,9.109" transform="translate(-398.742 -1270.751)" fill="none" stroke="#1a2e35" stroke-miterlimit="10" stroke-width="1"/>
          <path id="Trazado_99011" data-name="Trazado 99011" d="M416.252,1293.009s-.423,16.89-5.49,21.535" transform="translate(-397.356 -1271.473)" fill="none" stroke="#1a2e35" stroke-miterlimit="10" stroke-width="1"/>
        </g>
        <g id="Grupo_49114" data-name="Grupo 49114" transform="translate(129.011 50.404)">
          <g id="Grupo_49113" data-name="Grupo 49113" transform="translate(26.85)">
            <path id="Trazado_99012" data-name="Trazado 99012" d="M510.874,1254.74s1.112,3.337.185,3.894-6.861,4.451-7.788,2.6,2.781-4.265,2.781-4.265Z" transform="translate(-397.737 -1244.523)" fill="#fff" stroke="#1a2e35" stroke-miterlimit="10" stroke-width="1"/>
            <path id="Trazado_99013" data-name="Trazado 99013" d="M390.4,1256.225l24.829-1.732s14.148-3.175,26.562-4.619,26.85-3.176,26.85-3.176,20.21-3.753,21.654-3.753,5.2,7.8,5.2,9.816-4.042,2.6-6.063,4.042a8.723,8.723,0,0,1-5.485,1.732,13.926,13.926,0,0,1-4.331-1.155,65.191,65.191,0,0,1-7.218,1.732c-3.465.577-9.146-1.5-9.146-1.5s-49.463,14.781-59.568,15.07-22.231,1.444-22.231,1.444Z" transform="translate(-381.45 -1242.944)" fill="#fff" stroke="#1a2e35" stroke-miterlimit="10" stroke-width="1"/>
            <path id="Trazado_99014" data-name="Trazado 99014" d="M494.591,1259.236s-2.643-1.623-.231-2.179a5.655,5.655,0,0,1,3.523,0" transform="translate(-396.428 -1244.8)" fill="none" stroke="#1a2e35" stroke-miterlimit="10" stroke-width="1"/>
            <line id="Línea_110" data-name="Línea 110" x2="1.854" y2="10.199" transform="translate(104.236 4.839)" fill="none" stroke="#1a2e35" stroke-miterlimit="10" stroke-width="1"/>
            <line id="Línea_111" data-name="Línea 111" x2="1.298" y2="10.199" transform="translate(108.501 2.429)" fill="none" stroke="#1a2e35" stroke-miterlimit="10" stroke-width="1"/>
          </g>
          <path id="Trazado_99015" data-name="Trazado 99015" d="M350.45,1267.031s7.8-9.816,19.055-11.838,19.055,2.31,19.055,2.31l-13.281,27.139-12.126-8.372" transform="translate(-350.45 -1244.512)" fill="#12263f" stroke="#1a2e35" stroke-miterlimit="10" stroke-width="1"/>
        </g>
      </g>
      <g id="Grupo_49126" data-name="Grupo 49126" transform="translate(96.012 77.89)">
        <g id="Grupo_49117" data-name="Grupo 49117" transform="translate(123.417 6.426)">
          <g id="Grupo_49116" data-name="Grupo 49116" transform="translate(0 18.881)">
            <path id="Trazado_99016" data-name="Trazado 99016" d="M507.2,1303.9s-14.853,3.964-18.829,8.814c-7.3,8.906-11.618,8.813-11.618,8.813s-12.42-.4-12.42,2.8a94.641,94.641,0,0,0,1.2,10.416s-8.814,15.624-10.416,22.034,4.006,9.615,8.413,10.416a19.5,19.5,0,0,1,6.811,2.4l-.4,15.224s4.407,0,19.229,1.6a81.466,81.466,0,0,1,25.239,6.811s-4.807-9.615-.4-22.034,17.227-36.057,18.028-38.059,2.8-15.224-4.407-22.035S513.211,1303.9,507.2,1303.9Z" transform="translate(-454.842 -1303.896)" fill="#fff" stroke="#1a2e35" stroke-miterlimit="10" stroke-width="1"/>
            <path id="Trazado_99017" data-name="Trazado 99017" d="M488.311,1327.469c-1.489.858-3.059.924-3.507.147s.4-2.1,1.886-2.961,3.06-.923,3.508-.146S489.8,1326.61,488.311,1327.469Z" transform="translate(-458.837 -1306.583)" fill="#12263f"/>
            <path id="Trazado_99018" data-name="Trazado 99018" d="M463.877,1347.122s4.06,2.707,9.472-.27" transform="translate(-456.051 -1309.646)" fill="none" stroke="#1a2e35" stroke-miterlimit="10" stroke-width="1"/>
            <line id="Línea_112" data-name="Línea 112" x2="1.624" y2="2.165" transform="translate(17.027 35.582)" fill="none" stroke="#1a2e35" stroke-miterlimit="10" stroke-width="1"/>
            <path id="Trazado_99019" data-name="Trazado 99019" d="M492.623,1318.687s5.684-1.9,3.518,4.059" transform="translate(-459.899 -1305.838)" fill="none" stroke="#1a2e35" stroke-miterlimit="10" stroke-width="1"/>
          </g>
          <path id="Trazado_99020" data-name="Trazado 99020" d="M516.522,1286.155s-10.016,4.006-8.413,10.015,8.012,15.224,8.012,15.224-6.81-1.6-8.413,4.807a119.654,119.654,0,0,0-2.4,14.022s-8.814,7.211-10.416,8.012,2.8,5.208,2.8,5.208,10.816-5.608,17.627,1.2-7.612,15.223-7.612,15.223l-8.814,1.6a18.364,18.364,0,0,0,10.817,14.423c10.015,4.407,18.028,4.407,21.634,2.4s9.614-5.609,10.816-6.811,8.413,1.6,16.426-9.615,4.807-35.656,2-44.068a32.588,32.588,0,0,0-9.215-13.621s5.609-2.4.8-4.407a52.1,52.1,0,0,0-8.813-2.8s1.2-14.021-4.808-14.823-14.823,8.012-14.823,8.012S529.342,1278.142,516.522,1286.155Z" transform="translate(-460.156 -1282.097)" fill="#12263f" stroke="#1a2e35" stroke-miterlimit="10" stroke-width="1"/>
        </g>
        <g id="Grupo_49125" data-name="Grupo 49125">
          <g id="Grupo_49118" data-name="Grupo 49118">
            <path id="Trazado_99021" data-name="Trazado 99021" d="M367.293,1381.732s-12.415-50.236-14.148-56.588.289-9.239,1.155-12.126,5.774-13.281,4.041-16.457-2.6-4.909-2.309-7.8-2.31-4.331-4.908-1.732-2.31,5.485-1.444,8.373,0,4.041,0,4.041-8.661-7.506-9.238-8.661-2.31-7.218-2.31-7.218-2.887-8.084-4.042-8.661-3.175-.288-2.6,3.465,1.155,8.373,1.155,8.373l.288,5.2-1.444,2.886-4.041-7.218s.866-7.795-.866-8.084-2.888,3.754-3.465,5.486a26.5,26.5,0,0,0-.578,5.774s-4.908.866-4.908,4.62,6.641,12.7,6.641,12.7l-.288,2.6-5.486-1.155a18.27,18.27,0,0,0-3.175-4.908c-2.6-3.175-4.042,3.465-2.022,6.063s4.62,5.486,7.507,6.063,10.682,3.754,10.682,3.754l2.31,2.309s1.732,43.885,1.444,57.165.866,26.85,3.465,32.625,9.816,3.176,9.816,3.176,9.528-19.632,11.838-24.541A40.421,40.421,0,0,1,367.293,1381.732Z" transform="translate(-312.351 -1274.678)" fill="#fff" stroke="#1a2e35" stroke-miterlimit="10" stroke-width="1"/>
            <path id="Trazado_99022" data-name="Trazado 99022" d="M324.117,1293.277l1.155,4.908,2.887,4.042" transform="translate(-313.926 -1277.168)" fill="none" stroke="#1a2e35" stroke-miterlimit="10" stroke-width="1"/>
          </g>
          <g id="Grupo_49124" data-name="Grupo 49124" transform="translate(30.874 100.672)">
            <g id="Grupo_49120" data-name="Grupo 49120" transform="translate(24.023 5.485)">
              <path id="Trazado_99023" data-name="Trazado 99023" d="M497.9,1494.424c0-2.165,14.291-39.409,13.858-52.834s-2.579-30.077-2.579-30.077-5.358-5.784-9.547-7.167-29.882-6.5-40.28-7.03-14.287,1.833-22.948,5.3-22.953,28.583-25.984,35.512-6.929,28.15-10.827,37.677c-2.864,7-16.717,34.343-23.864,48.354a254.985,254.985,0,0,0,43.353,5.347c27.11.929,51.146-2.558,72.192-9.131C494.172,1509.726,497.9,1495.75,497.9,1494.424Z" transform="translate(-375.732 -1397.241)" fill="#69f" stroke="#1a2e35" stroke-miterlimit="10" stroke-width="1"/>
              <g id="Grupo_49119" data-name="Grupo 49119" transform="translate(41.042 50.845)">
                <path id="Trazado_99024" data-name="Trazado 99024" d="M458.436,1470.612a163.817,163.817,0,0,0,16.18,5.484" transform="translate(-427.845 -1457.907)" fill="none" stroke="#1a2e35" stroke-miterlimit="10" stroke-width="1"/>
                <path id="Trazado_99025" data-name="Trazado 99025" d="M428.117,1456.944s9.352,4.849,21.045,9.728" transform="translate(-423.786 -1456.078)" fill="none" stroke="#1a2e35" stroke-miterlimit="10" stroke-width="1"/>
                <path id="Trazado_99026" data-name="Trazado 99026" d="M462.889,1491.518c1.319.851,2.638,1.652,3.951,2.39" transform="translate(-428.441 -1460.706)" fill="none" stroke="#1a2e35" stroke-miterlimit="10" stroke-width="1"/>
                <path id="Trazado_99027" data-name="Trazado 99027" d="M423.117,1455.944s14.394,16.481,30.061,27.807" transform="translate(-423.117 -1455.944)" fill="none" stroke="#1a2e35" stroke-miterlimit="10" stroke-width="1"/>
              </g>
            </g>
            <path id="Trazado_99028" data-name="Trazado 99028" d="M519.93,1409.042s2.165-8.119-.271-10.826-19.486-7.307-39.783-7.307-31.935,8.39-31.935,8.39,24.9-1.083,44.926,4.059,25.981,7.308,25.981,7.308Z" transform="translate(-361.375 -1390.909)" fill="#69f" stroke="#1a2e35" stroke-miterlimit="10" stroke-width="1"/>
            <g id="Grupo_49123" data-name="Grupo 49123" transform="translate(0 3.815)">
              <g id="Grupo_49122" data-name="Grupo 49122" transform="translate(9.308 3.997)">
                <path id="Trazado_99029" data-name="Trazado 99029" d="M486.967,1416.4s-8.661-9.96-24.685-14.724-84.882,1.732-84.882,1.732-6.063-2.165-10.827,5.63-9.961,22.52-6.929,26.417,4.764,8.661,6.063,9.094,92.244,12.559,92.244,12.559" transform="translate(-358.743 -1399.928)" fill="#69f" stroke="#1a2e35" stroke-miterlimit="10" stroke-width="1"/>
                <g id="Grupo_49121" data-name="Grupo 49121" transform="translate(14.471 13.872)">
                  <path id="Trazado_99030" data-name="Trazado 99030" d="M395.28,1423.7c7.792,3.987,18.149,8.774,27.575,11.468" transform="translate(-378.105 -1416.983)" fill="none" stroke="#1a2e35" stroke-miterlimit="10" stroke-width="1"/>
                  <path id="Trazado_99031" data-name="Trazado 99031" d="M381.117,1415.944s2.147,1.288,5.657,3.215" transform="translate(-376.209 -1415.944)" fill="none" stroke="#1a2e35" stroke-miterlimit="10" stroke-width="1"/>
                  <path id="Trazado_99032" data-name="Trazado 99032" d="M422.307,1448.7a58.746,58.746,0,0,0,8.785,3.963" transform="translate(-381.722 -1420.329)" fill="none" stroke="#1a2e35" stroke-miterlimit="10" stroke-width="1"/>
                  <path id="Trazado_99033" data-name="Trazado 99033" d="M375.45,1416.277s17.814,14.376,33.784,24.16" transform="translate(-375.45 -1415.988)" fill="none" stroke="#1a2e35" stroke-miterlimit="10" stroke-width="1"/>
                </g>
              </g>
              <path id="Trazado_99034" data-name="Trazado 99034" d="M377.261,1403.077s-10.105,9.239-13.281,21.077,1.444,19.055,1.444,19.055l3.176,1.155s0,1.732-2.31,1.444-10.682,1.155-14.724-2.021-5.2-18.189-.578-32.624,17.034-16.746,21.077-15.591,12.126,3.753,12.126,5.2S377.261,1403.077,377.261,1403.077Z" transform="translate(-347.996 -1395.313)" fill="#69f" stroke="#1a2e35" stroke-miterlimit="10" stroke-width="1"/>
            </g>
          </g>
        </g>
      </g>
    </g>
  </g>
</svg>
