<svg xmlns="http://www.w3.org/2000/svg" xmlns:xlink="http://www.w3.org/1999/xlink" width="162" height="162" viewBox="0 0 162 162">
  <defs>
    <clipPath id="clip-path">
      <path id="Trazado_112082" data-name="Trazado 112082" d="M464.157,836.6a45.973,45.973,0,0,1,45.973-45.973c15.006,0,48.244-.846,56.635,10.276,5.807,7.7-10.662,25.313-10.662,35.7a45.973,45.973,0,1,1-91.946,0Z" fill="none"/>
    </clipPath>
  </defs>
  <g id="Grupo_53059" data-name="Grupo 53059" transform="translate(6765 8648)">
    <rect id="Rectángulo_28722" data-name="Rectángulo 28722" width="162" height="162" transform="translate(-6765 -8648)" fill="none"/>
    <g id="Grupo_53053" data-name="Grupo 53053" transform="translate(-7196.157 -9403.612)">
      <path id="Trazado_112083" data-name="Trazado 112083" d="M45.973,0A45.973,45.973,0,1,1,0,45.973,45.973,45.973,0,0,1,45.973,0Z" transform="translate(464.157 790.627)" fill="#0f2771"/>
      <g id="Grupo_50522" data-name="Grupo 50522">
        <g id="Grupo_50521" data-name="Grupo 50521" clip-path="url(#clip-path)">
          <g id="Grupo_50520" data-name="Grupo 50520">
            <g id="Grupo_50503" data-name="Grupo 50503">
              <g id="Grupo_50496" data-name="Grupo 50496">
                <path id="Trazado_111974" data-name="Trazado 111974" d="M504.91,929.855s7.881,26.362,8.019,48.855c0,0,4.016,1.716,6.738-.859,0,0-1.432-31.237-9.313-49.722Z" fill="#ffbea7"/>
                <path id="Trazado_111975" data-name="Trazado 111975" d="M512.269,933.265c-.588-1.783-1.223-3.514-1.915-5.136l-5.444,1.726s.621,2.077,1.517,5.558A17.207,17.207,0,0,0,512.269,933.265Z" fill="#ffbea7" style="mix-blend-mode: multiply;isolation: isolate"/>
                <path id="Trazado_111976" data-name="Trazado 111976" d="M511.971,964.393a127.187,127.187,0,0,1,.958,14.317s4.016,1.716,6.738-.859c0,0-.27-5.828-1.209-13.947A24.48,24.48,0,0,1,511.971,964.393Z" fill="#f3f0ed"/>
                <path id="Trazado_111977" data-name="Trazado 111977" d="M510.828,983.153c-.285-1.437-.527-6.023.147-6.592a3.317,3.317,0,0,1,1.859-.9s.526,1.384,3.774,1.384c.053,0-1.095-.815.859-1.095s2.864-.579,3.874-.773,1.143.531,1.1,1.1c0,0,7.4.242,10.646.048s7.118.431,8.408,3.006-.232,3.633-4.3,4.733-17.916,2.423-22.113,2.248C511.738,986.16,511.179,984.894,510.828,983.153Z" fill="#1a7e99"/>
                <path id="Trazado_111978" data-name="Trazado 111978" d="M541.491,979.326c-1.171-2.347-4.505-3.068-7.55-3.03-2.375,1.83-4.453,3.642-4.249,7.18a12.659,12.659,0,0,0,.242,1.768,61.844,61.844,0,0,0,7.26-1.185C541.259,982.959,542.786,981.91,541.491,979.326Z" fill="#f4f5ef"/>
                <path id="Trazado_111979" data-name="Trazado 111979" d="M524.528,984.325a80.647,80.647,0,0,1-10.144.161,6.864,6.864,0,0,1-3.523-1.181c.356,1.66.977,2.855,4.22,3,4.2.175,18.049-1.148,22.113-2.248,3.524-.953,5.136-1.878,4.662-3.78C536.863,983.352,530.01,984.073,524.528,984.325Z" fill="#f4f5ef"/>
              </g>
              <g id="Grupo_50497" data-name="Grupo 50497">
                <path id="Trazado_111980" data-name="Trazado 111980" d="M481.5,931.169s-7.11,26.571-8.237,46.289c0,0-2.568,4.059-6.736-.318,0,0,2.407-27.837,9.589-48.015Z" fill="#ffbea7"/>
                <path id="Trazado_111981" data-name="Trazado 111981" d="M474.381,934.432c.546-1.8,1.122-3.586,1.734-5.307l5.384,2.044s-.424,1.574-1.074,4.249A22.683,22.683,0,0,1,474.381,934.432Z" fill="#ffbea7" style="mix-blend-mode: multiply;isolation: isolate"/>
                <path id="Trazado_111982" data-name="Trazado 111982" d="M474.562,965c-.6,4.245-1.07,8.494-1.3,12.454,0,0-2.568,4.059-6.736-.318,0,0,.455-5.3,1.565-12.937A12.689,12.689,0,0,0,474.562,965Z" fill="#f3f0ed"/>
                <path id="Trazado_111983" data-name="Trazado 111983" d="M470.225,976.248s2.684.328,3.139-.644l-.005-1.087s2.22.2,2.068,2.234a57.506,57.506,0,0,1-1.366,7.351c-.327,1.19.01,1.778-2.077,2.209a45.784,45.784,0,0,1-15.469-.578c-6.75-1.408-10.079-3-10.765-4.856s3.891-5.681,9.525-4.567,7.68-.223,8.61-.768.258-1.314,1.693-1.523S471.818,975.091,470.225,976.248Z" fill="#1a7e99"/>
                <path id="Trazado_111984" data-name="Trazado 111984" d="M454.267,976.158a10.985,10.985,0,0,1,2.964,2.049c2.386,2.39,1.985,5.188.659,7.787-.455-.081-.917-.162-1.375-.261-6.75-1.408-10.079-3-10.765-4.856C445.1,979.127,449.112,975.646,454.267,976.158Z" fill="#f4f5ef"/>
                <path id="Trazado_111985" data-name="Trazado 111985" d="M458.756,984.358a35.511,35.511,0,0,0,15.419-.731c-.04.185-.085.342-.114.475-.327,1.19.01,1.778-2.077,2.209a45.784,45.784,0,0,1-15.469-.578c-6.75-1.408-10.079-3-10.765-4.856a1.869,1.869,0,0,1,.415-1.669C449.6,982.361,454.2,983.608,458.756,984.358Z" fill="#f4f5ef"/>
              </g>
              <g id="Grupo_50499" data-name="Grupo 50499">
                <path id="Trazado_111986" data-name="Trazado 111986" d="M469.182,864.541s-18.121-8.442-28.9-23.742a65.37,65.37,0,0,1-4.081-7.823c-2.047-4.635-3.621-6.568-4.622-6.437-.443.061-1.045.441-.3,1.939a68.115,68.115,0,0,1,3.07,7.7,44.864,44.864,0,0,0-5.071-5.084c-2.514-2.034-3.661-2.034-4.268-1.128s1.493,2.138,2.857,3.6,3.9,4.306,3.9,4.306-4.936-2.974-7.45-3.7c-.939-.265-1.527-.081-1.766.432-.23.5-.088,1.043,1.75,1.968s5.382,3.236,5.382,3.236a33.69,33.69,0,0,0-4.287-.889c-1.8-.2-3.514.176-3.585.987-.036.474.875,1.033,3.26,1.185a14.978,14.978,0,0,1,4.283.946s2.122,5.409,7.231,3.915c0,0,8.067,13.963,30.185,23.329Z" fill="#ffbea7"/>
                <path id="Trazado_111987" data-name="Trazado 111987" d="M464.582,862.079c-.185.65-.413,1.285-.65,1.926-.413,1.138-.825,2.276-1.243,3.423,1.3.627,2.661,1.243,4.079,1.845l2.414-4.732S467.384,863.7,464.582,862.079Z" fill="#ec9246" opacity="0.5" style="mix-blend-mode: multiply;isolation: isolate"/>
                <g id="Grupo_50498" data-name="Grupo 50498">
                  <path id="Trazado_111988" data-name="Trazado 111988" d="M435.234,837.422a4.9,4.9,0,0,1,3.389-1.029,3.029,3.029,0,0,0,.109-.768,21.739,21.739,0,0,1,.185-3.291c.289-1.617,1.821-3.1,3.443-1.907a.342.342,0,0,1,.132.257.457.457,0,0,1-.166.694c-1.6.908-.82,3.436-.507,4.863.417,1.883.669,3.424-.417,5.108a7.543,7.543,0,0,1-2.393,2.224l-5.3-3.306A5.211,5.211,0,0,1,435.234,837.422Z" fill="#ffbea7"/>
                  <path id="Trazado_111989" data-name="Trazado 111989" d="M433.729,840.275l.279-.819c.136-.246.257-.5.394-.744l.244-.346a2.56,2.56,0,0,1,.242-.337l.292-.3a2.839,2.839,0,0,1,.652-.493,2.359,2.359,0,0,1,.365-.185,3.665,3.665,0,0,1,.78-.275,4.789,4.789,0,0,1,.816-.142l.4-.036.406.01h.194l.036-.159a4.356,4.356,0,0,0,.107-1.2l-.024-1.146a5.2,5.2,0,0,1,.024-.559l.028-.572a3.551,3.551,0,0,1,.164-1.107,2.662,2.662,0,0,1,.213-.512,2.181,2.181,0,0,1,.308-.465,2.226,2.226,0,0,1,.865-.666,1.262,1.262,0,0,1,.525-.112.613.613,0,0,1,.263.01.832.832,0,0,1,.265.052,1.757,1.757,0,0,1,.479.228l.2.137c.031.038.066.076.09.109a.078.078,0,0,0,0,.067l.038.08h0a.22.22,0,0,1,.014.256.373.373,0,0,1-.085.114c-.019.019-.048.019-.062.047l-.107.072-.187.118-.2.176a1.991,1.991,0,0,0-.3.417,2.71,2.71,0,0,0-.3.948,5.188,5.188,0,0,0-.017.963,13.536,13.536,0,0,0,.3,1.835c.15.593.275,1.2.382,1.783.04.285.083.584.1.871l.024.443-.024.432a4.391,4.391,0,0,1-.164.856,3.875,3.875,0,0,1-.329.811,3.386,3.386,0,0,1-.2.377l-.258.379c-.181.256-.382.446-.582.683l-.656.626-.726.55.036.042.787-.474c.237-.194.5-.36.73-.569s.474-.427.669-.664l.287-.355a3.113,3.113,0,0,0,.246-.408,3.768,3.768,0,0,0,.411-.868,4.484,4.484,0,0,0,.218-.929,4.19,4.19,0,0,0,.038-.954,8.6,8.6,0,0,0-.1-.929c-.1-.626-.219-1.219-.361-1.821a13.97,13.97,0,0,1-.341-1.76,4.89,4.89,0,0,1-.007-.863,2.338,2.338,0,0,1,.213-.8,1.821,1.821,0,0,1,.22-.332l.129-.142.192-.131.078-.054a.859.859,0,0,0,.118-.107.715.715,0,0,0,.169-.256.578.578,0,0,0-.109-.6l.042.09a.86.86,0,0,0-.085-.218c-.033-.043-.057-.071-.085-.114-.14-.1-.2-.118-.285-.185a2.362,2.362,0,0,0-.574-.213.824.824,0,0,0-.3-.05,1.467,1.467,0,0,0-.3.007,1.7,1.7,0,0,0-.588.161,2.456,2.456,0,0,0-.911.74,2.952,2.952,0,0,0-.322.489,3.516,3.516,0,0,0-.242.531,4.172,4.172,0,0,0-.213,1.138l-.076.574a5.773,5.773,0,0,0-.071.578l-.057,1.146a5.482,5.482,0,0,1-.128,1.083l.227-.161a4.458,4.458,0,0,0-.9.009,5.948,5.948,0,0,0-.884.183,4.525,4.525,0,0,0-.835.325,3.6,3.6,0,0,0-.406.213,3.667,3.667,0,0,0-.367.256,2.176,2.176,0,0,0-.313.33l-.292.348a2.462,2.462,0,0,0-.237.365l-.23.385c-.123.265-.22.55-.322.83-.067.27-.121.559-.178.839Z" fill="#d9a376"/>
                </g>
              </g>
              <path id="Trazado_111990" data-name="Trazado 111990" d="M514.09,905.921l-36.683.285c-2.772,6.212-7.253,22.255-7.253,22.255l20.538,3.059,3.438-11.661,2.386,12.04,20.538-6.208Z" fill="#368e43"/>
              <path id="Trazado_111991" data-name="Trazado 111991" d="M477.424,913.4A6.57,6.57,0,0,0,480,909.748a26.049,26.049,0,0,0,.887-3.575l-3.483.033c-.87,1.963-1.914,4.908-2.943,8.009A5.561,5.561,0,0,0,477.424,913.4Z" fill="#b8a131" opacity="0.7" style="mix-blend-mode: multiply;isolation: isolate"/>
              <path id="Trazado_111992" data-name="Trazado 111992" d="M509.908,908c.218,1.518.289,3.325,1.484,4.439a7.075,7.075,0,0,0,3.927,1.664l-1.229-8.18-4.585.033C509.685,906.628,509.8,907.325,509.908,908Z" fill="#b8a131" opacity="0.7" style="mix-blend-mode: multiply;isolation: isolate"/>
              <path id="Trazado_111993" data-name="Trazado 111993" d="M503.283,912.949a34.7,34.7,0,0,0,11.334-3.519l-.527-3.509-36.683.285c-.491,1.1-1.031,2.509-1.6,4.078A69.818,69.818,0,0,0,503.283,912.949Z" fill="#368e43" opacity="0.4" style="mix-blend-mode: multiply;isolation: isolate"/>
              <path id="Trazado_111994" data-name="Trazado 111994" d="M468.145,860.358s7.453,5.349,28.271,5.349c0,0,18.723-.194,28.468-6.113,0,0,4.2,9.352,5.349,12.416,0,0-8.6,5.733-15.664,6.686l.57,28.079s-15.859,5.733-38.583.574c0,0,2.285-16.807,4.77-27.315,0,0-10.888-1.907-16.813-5.924Z" fill="#69f"/>
              <path id="Trazado_111995" data-name="Trazado 111995" d="M500.428,864.559l-8.787.186s-.764,6.212,4.306,6.306S500.428,864.559,500.428,864.559Z" fill="#d9a376"/>
              <path id="Trazado_111996" data-name="Trazado 111996" d="M496.16,870.013c4.61-.147,9.5-.74,13.681-2.831a18.182,18.182,0,0,0,5.07-3.77,93.53,93.53,0,0,1-18.5,2.295,83.606,83.606,0,0,1-19.135-1.935C480.748,869.392,490.351,870.189,496.16,870.013Z" fill="#ec9246" opacity="0.5" style="mix-blend-mode: multiply;isolation: isolate"/>
              <path id="Trazado_111997" data-name="Trazado 111997" d="M476.556,907.349c.3.075.621.137.934.2.709-5.244,1.413-10.489,2.371-15.7.716-3.922,1.638-7.787,2.613-11.642a65.968,65.968,0,0,1,2.8-9.129c-1.286,1.162-2.167,2.8-3.733,3.609-1.251.649-4.206.2-5.425-.162a81.951,81.951,0,0,1-10.755-3.637l-.851,3.215c5.925,4.017,16.813,5.924,16.813,5.924C478.841,890.542,476.556,907.349,476.556,907.349Z" fill="#36c" style="mix-blend-mode: multiply;isolation: isolate"/>
              <path id="Trazado_111998" data-name="Trazado 111998" d="M528.483,867.765a84.289,84.289,0,0,1-9.66,4.852c-1.147.488-3.628,1.9-4.709.616-1.114-1.3-1.442-3.071-2.143-4.6a64.879,64.879,0,0,1,.422,11.434c-.076,4.675-.406,9.318-.5,13.989-.1,4.553-.09,9.157-.4,13.729a36.042,36.042,0,0,0,3.647-1.01l-.57-28.079c7.066-.953,15.664-6.686,15.664-6.686C529.873,871.051,529.218,869.482,528.483,867.765Z" fill="#36c" style="mix-blend-mode: multiply;isolation: isolate"/>
              <path id="Trazado_111999" data-name="Trazado 111999" d="M493.955,796.241s.147-1.864,2.8-2.08,3,1.861,3,1.861Z" fill="#fbb323"/>
              <path id="Trazado_112000" data-name="Trazado 112000" d="M529.707,826.88s8.55,3.009,13.083,7.588,3.775,10.893-.711,12.424a15.307,15.307,0,0,1-8.024.617Z" fill="#ed9022"/>
              <path id="Trazado_112001" data-name="Trazado 112001" d="M545.081,844.365c1.456-2.67.877-6.706-2.291-9.9-4.533-4.579-13.083-7.588-13.083-7.588l.27,1.262c2.12.815,8.626,3.528,12.4,7.329C545.152,838.295,545.93,841.752,545.081,844.365Z" fill="#fbb323"/>
              <path id="Trazado_112002" data-name="Trazado 112002" d="M468.048,826.823c0,1.437-1.147,2.68-3.438,4.88-3.049,2.917-7.644,5.534-6.492,13.752,0,0,1.333-2.679,3.144-3.438,0,0-3.72,6.493,1.918,11.275a14.013,14.013,0,0,1,.757-5.169s-.47,9.371,12.424,10.419l38.687,1.631s13.374,1.328,16.328-10.333a15.158,15.158,0,0,1-.19,3.921s6.307-4.3,2.675-13.368a9.205,9.205,0,0,1,2.2,2.867,11.282,11.282,0,0,0-1.617-9.456c-3.253-4.493-4.012-4.012-4.5-8.119s-7.256-23.024-31.138-20.728S468.048,826.823,468.048,826.823Z" fill="#12263f"/>
              <path id="Trazado_112003" data-name="Trazado 112003" d="M536.056,843.26a11.282,11.282,0,0,0-1.617-9.456c-2.821-3.9-3.77-4.06-4.282-6.72a8.685,8.685,0,0,0,1.465,5.363c1.774,2.447,3.932,4.42,4.027,7.636.018.336-.46.369-.555.071-.56-1.579-1.741-3.344-3.419-3.875,2.864,4.05,2.854,9.546,1.033,14.054a.288.288,0,0,1-.564-.081,13.589,13.589,0,0,0-.474-3.673c-1.091,3.543-3.419,6.125-6.2,8.605a.29.29,0,0,1-.456-.346,18.454,18.454,0,0,0,2.613-8.951.293.293,0,0,1,.508-.185c2.314-1.167,3.248-4.448,2.722-6.872-.37-1.7-1.556-5.131-3.87-4.419a.285.285,0,0,1-.36-.27,55.439,55.439,0,0,0-.171-6.225,23.483,23.483,0,0,1-.337-3.137c-1.527-.434-3-1.323-4.486-1.8a44.817,44.817,0,0,0-7.848-1.994,83.391,83.391,0,0,0-16-.308,119.05,119.05,0,0,0-15.142,2.152,39.5,39.5,0,0,0-11.179,3.367,64.266,64.266,0,0,1-1.231,9.025c-.052.261-.408.254-.526.071-1.456-2.224-4.633.626-5.131,2.219-.636,2.016-.83,5.011.422,6.844.9,1.323,2.546,1.745,2.366,3.606a13.489,13.489,0,0,0,.787,6.231c.1.275-.222.408-.422.327-3.058-1.3-3.552-5.083-3.739-8.135a22.554,22.554,0,0,0-1.14,4.024.292.292,0,0,1-.556,0c-.946-3.578-1.247-7.012.243-10.359a10.352,10.352,0,0,0-3.3,3.115.284.284,0,0,1-.529-.142,15.647,15.647,0,0,1,2.817-8.287c.188-.254.373-.512.565-.761-2.5,2.352-4.837,5.359-3.979,11.485,0,0,1.333-2.679,3.144-3.438,0,0-3.72,6.493,1.918,11.275a14.013,14.013,0,0,1,.757-5.169s-.47,9.371,12.424,10.419l38.687,1.631s13.374,1.328,16.328-10.333a15.158,15.158,0,0,1-.19,3.921s6.307-4.3,2.675-13.368A9.205,9.205,0,0,1,536.056,843.26Z" fill="#b94e27" opacity="0.5" style="mix-blend-mode: multiply;isolation: isolate"/>
              <g id="Grupo_50500" data-name="Grupo 50500">
                <path id="Trazado_112004" data-name="Trazado 112004" d="M471.036,838.276s-1-2.068-2.1-2.22-3.6,1.034-3.958,4.169a5.32,5.32,0,0,0,3.227,5.809c1.636.465,2.383-1.6,2.383-1.6Z" fill="#ffbea7"/>
                <path id="Trazado_112005" data-name="Trazado 112005" d="M468.342,839.6c-1.477-.683-1.944,1.27-2.1,2.537-.009.066.067.066.083.016.178-.488.339-1,.545-1.482.356-.815,1.089-.649,1.563-.175a2.883,2.883,0,0,1,.436.607,1.581,1.581,0,0,0-.768.666,3.48,3.48,0,0,0-.465,1.292.061.061,0,0,0,.109.043c.186-.332.342-.668.546-.974a1.534,1.534,0,0,1,.806-.553,21.383,21.383,0,0,1,.564,2.182.109.109,0,0,0,.218-.015C470.007,842.261,469.689,840.234,468.342,839.6Z" fill="#12263f"/>
              </g>
              <g id="Grupo_50501" data-name="Grupo 50501">
                <path id="Trazado_112006" data-name="Trazado 112006" d="M524.457,837.548s1.351-1.814,2.565-1.828a4.186,4.186,0,0,1,3.7,4.325,5.2,5.2,0,0,1-4.249,5.026c-1.831.256-2.353-1.74-2.353-1.74Z" fill="#ffbea7"/>
                <path id="Trazado_112007" data-name="Trazado 112007" d="M527.179,839.087c1.679-.47,1.925,1.4,1.911,2.589a.043.043,0,0,1-.085.009c-.133-.474-.233-.976-.394-1.441-.27-.8-1.09-.721-1.65-.337a2.5,2.5,0,0,0-.56.519,1.594,1.594,0,0,1,.74.7,2.736,2.736,0,0,1,.327,1.252.065.065,0,0,1-.123.023c-.161-.313-.285-.649-.46-.953a1.535,1.535,0,0,0-.792-.6,18.752,18.752,0,0,0-.9,1.963.121.121,0,0,1-.233-.047C525.031,841.372,525.642,839.523,527.179,839.087Z" fill="#12263f"/>
              </g>
              <path id="Trazado_112008" data-name="Trazado 112008" d="M471.012,827.117a89.467,89.467,0,0,1-.574,12.42c-.763,5.34-3.822,17.193,11.078,23.69s34.135,2.584,41.077-9.75a29,29,0,0,0,2.67-16.041,76.733,76.733,0,0,1-.763-12.8c0-.579-16.617-5.544-34.576-1.534S471.012,827.117,471.012,827.117Z" fill="#ffbea7"/>
              <path id="Trazado_112009" data-name="Trazado 112009" d="M525.458,822.721c-1.527-4.687-17.67-6.592-26.652-6.113s-28.847,3.818-28.368,9.642a63.191,63.191,0,0,0,1.433,8.6s3.056-6.689,9.266-7.64a12.191,12.191,0,0,0-3.154,4.2l16.147-5.255a9.586,9.586,0,0,0-2.679,2.865s11.562-1.148,17.579-4.2c0,0-1.342,1.617-1.911,2.295a24.6,24.6,0,0,0,7.256-2.58s-.379,2.58,5.544,6.4a10.951,10.951,0,0,0-.19-4.305s3.248,5.162,5.729,6.5C525.458,833.135,526.985,827.4,525.458,822.721Z" fill="#12263f"/>
              <path id="Trazado_112010" data-name="Trazado 112010" d="M498.285,795.525c-9.456,0-33.628,8.588-31.238,33.333,0,0,32.67-11.939,64.187-1.238C531.234,827.62,533.434,795.525,498.285,795.525Zm11.438,24.787c-10.6-1.057-23.147,1.283-23.147,1.283s-.621-12.23,10.656-13.086C509.9,807.546,509.723,820.312,509.723,820.312Z" fill="#7cc5ff"/>
              <path id="Trazado_112011" data-name="Trazado 112011" d="M478.657,813.095a21.738,21.738,0,0,1,5.567-11.574,29.82,29.82,0,0,1,6.231-4.707c-10.879,3.211-25.283,12.681-23.408,32.044a92,92,0,0,1,10.941-2.988A57.584,57.584,0,0,1,478.657,813.095Z" fill="#0f2771"/>
              <path id="Trazado_112012" data-name="Trazado 112012" d="M503.321,795.764a22.6,22.6,0,0,1,6.17,3.306c3.395,2.52,5.638,6.2,7.274,10.048a48.175,48.175,0,0,1,3.225,14.1c.052.5.085,1.006.128,1.509a80.666,80.666,0,0,1,11.116,2.9S533.211,798.683,503.321,795.764Z" fill="#0f2771"/>
              <path id="Trazado_112013" data-name="Trazado 112013" d="M495.61,820.1s3.144-1.216,5.515-.215l.214,3.153a6.906,6.906,0,0,1-5.44.214Z" fill="#ffe11e"/>
              <path id="Trazado_112014" data-name="Trazado 112014" d="M474.166,809.149a99.954,99.954,0,0,0,13.828,2.248c.711.061,1.413.116,2.115.175a10.8,10.8,0,0,1,7.123-3.063c4.733-.361,7.668,1.2,9.5,3.3a90.978,90.978,0,0,0,10.4-1.229c3.087-.552,6.155-1.178,9.224-1.873-4.368-6.961-12.6-13.178-28.074-13.178-6.2,0-18.723,3.7-25.94,13.207C472.983,808.888,473.6,809.016,474.166,809.149Z" fill="#f9f3a2" opacity="0.3" style="mix-blend-mode: screen;isolation: isolate"/>
              <path id="Trazado_112015" data-name="Trazado 112015" d="M469.388,927.128s14.9,3.149,22.85,3.287l-1.072,3.3a84.769,84.769,0,0,1-22.283-3.718Z" fill="#c6d92c"/>
              <path id="Trazado_112016" data-name="Trazado 112016" d="M495.029,931.643l1.292,2.926s16.335-3.215,22.426-6.582l-.645-3.007Z" fill="#c6d92c"/>
              <path id="Trazado_112017" data-name="Trazado 112017" d="M500.144,877.164l-6.786.3-6.782,21.577,5.738.574,1.338-6.971,4.96.185,1.626,7.071,5.16-1.143Zm-6.113,11.846,1.342-5.543,2.186.1.673,5.444Z" fill="#f8ee6a"/>
              <g id="Grupo_50502" data-name="Grupo 50502">
                <path id="Trazado_112018" data-name="Trazado 112018" d="M485.011,846a1.93,1.93,0,0,0,1.961,1.844,1.839,1.839,0,0,0,1.9-1.783v-.052a1.928,1.928,0,0,0-1.953-1.845,1.848,1.848,0,0,0-1.9,1.791Z" fill="#263238"/>
                <path id="Trazado_112019" data-name="Trazado 112019" d="M481.219,841.32c.252.243,1.655-.919,3.731-1.022s3.652.873,3.867.588c.1-.115-.165-.559-.852-1.005a5.313,5.313,0,0,0-3.146-.773,5.1,5.1,0,0,0-2.953,1.121C481.293,840.75,481.1,841.214,481.219,841.32Z" fill="#263238"/>
                <path id="Trazado_112020" data-name="Trazado 112020" d="M503.956,845.215a1.936,1.936,0,0,0,1.962,1.851,1.855,1.855,0,0,0,1.9-1.813v-.021a1.929,1.929,0,0,0-1.954-1.853,1.848,1.848,0,0,0-1.9,1.791Z" fill="#263238"/>
                <path id="Trazado_112021" data-name="Trazado 112021" d="M501.325,840.934c.253.242,1.655-.919,3.731-1.022s3.653.873,3.867.588c.107-.117-.156-.553-.852-1.005a5.261,5.261,0,0,0-3.1-.781,5.083,5.083,0,0,0-2.953,1.122C501.4,840.364,501.223,840.824,501.325,840.934Z" fill="#263238"/>
                <path id="Trazado_112022" data-name="Trazado 112022" d="M494.871,855.892a15.945,15.945,0,0,0-3.407-.367c-.531-.021-1.038-.083-1.144-.389a2.232,2.232,0,0,1,.272-1.342l1.361-3.489c1.882-4.964,3.217-9.036,2.944-9.094s-1.95,3.915-3.833,8.872q-.684,1.835-1.3,3.507a2.227,2.227,0,0,0-.167,1.776,1.329,1.329,0,0,0,.909.6,4.306,4.306,0,0,0,.907.061A15.927,15.927,0,0,0,494.871,855.892Z" fill="#263238"/>
                <path id="Trazado_112023" data-name="Trazado 112023" d="M500.44,855.093c-.331,0-.22,2.252-2.064,3.949s-4.246,1.571-4.259,1.89c-.02.146.56.407,1.572.383a5.6,5.6,0,0,0,3.559-1.452,4.844,4.844,0,0,0,1.592-3.288C500.881,855.634,500.594,855.067,500.44,855.093Z" fill="#263238"/>
                <path id="Trazado_112024" data-name="Trazado 112024" d="M500.586,836.755c.317.7,2.312.044,4.786.067s4.546.6,4.769-.118c.091-.339-.352-.985-1.246-1.584a6.793,6.793,0,0,0-3.713-1.089,6.109,6.109,0,0,0-3.57,1.123C500.8,835.76,500.46,836.415,500.586,836.755Z" fill="#263238"/>
                <path id="Trazado_112025" data-name="Trazado 112025" d="M481.11,836.256c.392.746,2.3.257,4.564.483s4.057.946,4.566.278c.237-.327.022-1.05-.726-1.8a5.819,5.819,0,0,0-3.569-1.566,5.886,5.886,0,0,0-3.8.958C481.284,835.217,480.939,835.879,481.11,836.256Z" fill="#263238"/>
              </g>
            </g>
            <g id="Grupo_50517" data-name="Grupo 50517">
              <path id="Trazado_112026" data-name="Trazado 112026" d="M528.445,845.825s-1.475,1.38-1.546,1.942c0,0,4.648,3.528,27.344-.1C554.243,847.663,533.012,842.3,528.445,845.825Z" fill="#2f201d"/>
              <g id="Grupo_50516" data-name="Grupo 50516">
                <path id="Trazado_112027" data-name="Trazado 112027" d="M546.883,801.258s.308-4.714,5.923-4.994,7.839,9.091.778,11.211Z" fill="#c1507f"/>
                <path id="Trazado_112028" data-name="Trazado 112028" d="M549.23,801.934a2.91,2.91,0,0,1,3.04-2.568c2.888-.138,4.036,4.676.408,5.766Z" fill="#a22f5f"/>
                <path id="Trazado_112029" data-name="Trazado 112029" d="M555.111,797.464a5.97,5.97,0,0,0-4.188-.569,5.248,5.248,0,0,1,4.814.73c2.594,1.916,1.735,5.575,1.735,5.575S557.875,799.133,555.111,797.464Z" fill="#e36099" style="mix-blend-mode: screen;isolation: isolate"/>
                <path id="Trazado_112030" data-name="Trazado 112030" d="M554.006,804.193a13.238,13.238,0,0,0-1.124-1.683c-1.219-1.541-3.158-3.208-5.212-3.528a5.588,5.588,0,0,0-.787,2.276l6.7,6.217a8.015,8.015,0,0,0,1.446-.595,6.289,6.289,0,0,0-.36-1.29C554.471,805.123,554.248,804.654,554.006,804.193Z" fill="#e36099" opacity="0.5" style="mix-blend-mode: multiply;isolation: isolate"/>
                <path id="Trazado_112031" data-name="Trazado 112031" d="M531.988,801.988s-.769-4.657-6.383-4.386-6.91,9.816.327,11.229Z" fill="#c1507f"/>
                <path id="Trazado_112032" data-name="Trazado 112032" d="M529.721,802.889a2.928,2.928,0,0,0-3.287-2.257c-2.883.137-3.551,5.046.166,5.785Z" fill="#a22f5f"/>
                <path id="Trazado_112033" data-name="Trazado 112033" d="M529.977,800.665a9.7,9.7,0,0,0-3.106,2.461,9.451,9.451,0,0,0-2.362,5.288,7.472,7.472,0,0,0,1.423.417l6.056-6.843a5.508,5.508,0,0,0-.74-1.8A8.573,8.573,0,0,0,529.977,800.665Z" fill="#c1507f" opacity="0.5" style="mix-blend-mode: multiply;isolation: isolate"/>
                <path id="Trazado_112034" data-name="Trazado 112034" d="M523.513,799.015a5.941,5.941,0,0,1,4.1-.972,5.213,5.213,0,0,0-4.709,1.195c-2.4,2.155-1.185,5.719-1.185,5.719S520.915,800.945,523.513,799.015Z" fill="#e36099" style="mix-blend-mode: screen;isolation: isolate"/>
                <path id="Trazado_112035" data-name="Trazado 112035" d="M563.215,815.319c-.735-3.965-5.572-3.733-8.64-.114a26.05,26.05,0,0,1-6.981,5.439c-8.763-1.2-14.217,1.442-14.217,1.442l-.768-.256a27.331,27.331,0,0,1-8.494-5.127c-3.4-3.3-8.242-3.063-8.583.956s3.628,9.608,14.545,10.611c0,0-.005.023-.01.066-2.6,6.236-3.168,19.431-3.168,19.431,2.779-3.066,9.992-2.032,16.555-.275s10.789.171,10.789.171c-1.072-7.732-4.458-20.356-4.458-20.356C560.541,825.239,563.95,819.3,563.215,815.319Z" fill="#e36099"/>
                <path id="Trazado_112036" data-name="Trazado 112036" d="M548.263,823.063s.825,1.937,1.522,4.244A14.259,14.259,0,0,0,548.263,823.063Z" fill="#68462b"/>
                <path id="Trazado_112037" data-name="Trazado 112037" d="M531.888,824.17a44.023,44.023,0,0,0-1.845,4.114A14.353,14.353,0,0,1,531.888,824.17Z" fill="#68462b"/>
                <g id="Grupo_50504" data-name="Grupo 50504" opacity="0.5">
                  <path id="Trazado_112038" data-name="Trazado 112038" d="M554.575,815.205a26.05,26.05,0,0,1-6.981,5.439c-8.763-1.2-14.217,1.442-14.217,1.442l-.768-.256a27.331,27.331,0,0,1-8.494-5.127,7.6,7.6,0,0,0-4.851-2.285,12.19,12.19,0,0,1,5.577,3.9c4.04,4.652,7.568,5.93,14.758,5.223s10.912-2.551,13.022-4.277c1.84-1.5,5.245-6.748,8.142-6.734C558.914,812.079,556.424,813.033,554.575,815.205Z" fill="#e36099" style="mix-blend-mode: multiply;isolation: isolate"/>
                </g>
                <path id="Trazado_112039" data-name="Trazado 112039" d="M554.262,810.176c.327,6.859-5.9,12.735-13.923,13.129s-14.8-4.852-15.133-11.7,5.9-12.737,13.919-13.131S553.92,803.321,554.262,810.176Z" fill="#e36099"/>
                <g id="Grupo_50505" data-name="Grupo 50505">
                  <path id="Trazado_112040" data-name="Trazado 112040" d="M545.28,805.237c.195,1.209-.076,2.259-.612,2.352s-1.119-.837-1.309-2.049.076-2.267.6-2.357S545.081,804.018,545.28,805.237Z" fill="#543921"/>
                  <path id="Trazado_112041" data-name="Trazado 112041" d="M544.033,804.49c.028.372-.076.685-.242.7s-.327-.28-.351-.659.081-.673.242-.688S544,804.113,544.033,804.49Z" fill="#fff"/>
                </g>
                <g id="Grupo_50506" data-name="Grupo 50506">
                  <path id="Trazado_112042" data-name="Trazado 112042" d="M535.677,805.974c-.147,1.221-.7,2.16-1.238,2.094s-.844-1.107-.7-2.324.707-2.16,1.238-2.1S535.833,804.758,535.677,805.974Z" fill="#543921"/>
                  <path id="Trazado_112043" data-name="Trazado 112043" d="M534.691,804.914c-.081.363-.271.636-.432.6s-.228-.36-.152-.72.271-.636.427-.6S534.762,804.549,534.691,804.914Z" fill="#fff"/>
                </g>
                <g id="Grupo_50507" data-name="Grupo 50507">
                  <path id="Trazado_112044" data-name="Trazado 112044" d="M532.945,816.248s.773,3.087,3.491,2.9c2.594-.192,2.94-2.52,3.04-5.126,0,0-.3,4.479-2.708,4.816A3.354,3.354,0,0,1,532.945,816.248Z" fill="#68462b"/>
                  <path id="Trazado_112045" data-name="Trazado 112045" d="M546.143,815.6s-.465,3.154-3.191,3.227c-2.6.071-3.173-2.215-3.533-4.794,0,0,.744,4.415,3.172,4.519A3.357,3.357,0,0,0,546.143,815.6Z" fill="#68462b"/>
                </g>
                <g id="Grupo_50508" data-name="Grupo 50508">
                  <path id="Trazado_112046" data-name="Trazado 112046" d="M545.522,811.179c.08,1.659-2.485,3.13-5.729,3.291s-5.951-1.055-6.032-2.7,2.49-3.13,5.734-3.3C542.743,808.314,545.441,809.528,545.522,811.179Z" fill="#a22f5f"/>
                  <path id="Trazado_112047" data-name="Trazado 112047" d="M544.64,809.7a3.308,3.308,0,0,1-.806.744,9.637,9.637,0,0,1-5.293,1.459c-1.062.035-3.286.253-3.978-.838a1.146,1.146,0,0,1-.2-.725,1.961,1.961,0,0,0-.6,1.423c.081,1.648,2.779,2.859,6.032,2.7s5.809-1.632,5.729-3.291A2.03,2.03,0,0,0,544.64,809.7Z" fill="#68462b" opacity="0.5" style="mix-blend-mode: multiply;isolation: isolate"/>
                  <path id="Trazado_112048" data-name="Trazado 112048" d="M536.867,809.343a6.484,6.484,0,0,0-2.015,1.02,10.758,10.758,0,0,1,2.115-.733C536.934,809.538,536.905,809.438,536.867,809.343Z" fill="#fff"/>
                  <path id="Trazado_112049" data-name="Trazado 112049" d="M537.346,809.2c.033.109.062.221.09.337a20.143,20.143,0,0,1,6.028-.157A11.3,11.3,0,0,0,537.346,809.2Z" fill="#fff"/>
                </g>
                <g id="Grupo_50509" data-name="Grupo 50509" opacity="0.4" style="mix-blend-mode: multiply;isolation: isolate">
                  <path id="Trazado_112050" data-name="Trazado 112050" d="M531.409,824.974a13.262,13.262,0,0,1-10.793-1.783c-4.624-3.012-4.268-6.758-4.026-7.872a3.452,3.452,0,0,0-1.058,2.34c-.341,4.026,3.628,9.608,14.545,10.611,0,0-.005.023-.01.066-2.6,6.236-3.168,19.431-3.168,19.431a6.016,6.016,0,0,1,3.32-1.7C528.009,840.016,531.409,824.974,531.409,824.974Z" fill="#e36099"/>
                  <path id="Trazado_112051" data-name="Trazado 112051" d="M562.233,813.351c.152.54.726,3.369-3.167,6.473-4.344,3.447-10.689,3.642-10.689,3.642s5.116,20.946.55,24.842a15.431,15.431,0,0,0,5.316-.645c-1.072-7.732-4.458-20.356-4.458-20.356,10.756-2.068,14.165-8.01,13.43-11.988A3.613,3.613,0,0,0,562.233,813.351Z" fill="#e36099"/>
                </g>
                <path id="Trazado_112052" data-name="Trazado 112052" d="M534.392,799.774s-8.764,2.85-8.859,11.471a12.774,12.774,0,0,0,3.747,8.074S518.9,807.925,534.392,799.774Z" fill="#e36099" style="mix-blend-mode: screen;isolation: isolate"/>
                <g id="Grupo_50510" data-name="Grupo 50510" style="mix-blend-mode: multiply;isolation: isolate">
                  <path id="Trazado_112053" data-name="Trazado 112053" d="M538.152,827.748c-7.156,2.608-7.141,16.64-7.118,18.158,3.472-.536,8.233.318,12.7,1.513a22.9,22.9,0,0,0,6.189.827C549.591,834.155,545.437,825.088,538.152,827.748Z" fill="#e36099"/>
                </g>
                <g id="Grupo_50511" data-name="Grupo 50511">
                  <path id="Trazado_112054" data-name="Trazado 112054" d="M537.868,827.814c-7.161,2.613-7.147,16.639-7.123,18.163,3.467-.536,8.237.322,12.709,1.515a22.751,22.751,0,0,0,6.184.825C549.3,834.226,545.152,825.159,537.868,827.814Z" fill="#cd9374"/>
                </g>
                <g id="Grupo_50512" data-name="Grupo 50512">
                  <path id="Trazado_112055" data-name="Trazado 112055" d="M531.144,845.522h-.01a.12.12,0,0,1-.109-.124s0-.161.005-.457a.122.122,0,0,1,.123-.121.126.126,0,0,1,.109.121c-.009.3-.009.457-.009.457A.114.114,0,0,1,531.144,845.522Z" fill="#e36099"/>
                  <path id="Trazado_112056" data-name="Trazado 112056" d="M549.083,846.793h0a.12.12,0,0,1-.119-.109c-.005-.3-.019-.612-.028-.906a.117.117,0,0,1,.113-.123h0a.124.124,0,0,1,.124.113c.009.3.019.6.023.916A.111.111,0,0,1,549.083,846.793Zm-.075-1.816a.107.107,0,0,1-.119-.1c-.024-.308-.043-.612-.076-.905a.125.125,0,0,1,.1-.133.126.126,0,0,1,.128.1c.029.306.053.609.071.915a.111.111,0,0,1-.108.124Zm-17.826-.83h-.005a.109.109,0,0,1-.114-.119c.014-.275.033-.578.057-.915a.116.116,0,0,1,.232.016c-.024.328-.047.634-.057.909A.116.116,0,0,1,531.182,844.147Zm17.655-.987a.118.118,0,0,1-.119-.1c-.033-.3-.076-.6-.114-.906a.115.115,0,0,1,.1-.128.113.113,0,0,1,.128.1c.043.3.081.61.118.908a.115.115,0,0,1-.1.133Zm-17.523-.839H531.3a.108.108,0,0,1-.1-.124c.024-.293.058-.592.091-.91a.123.123,0,0,1,.132-.1.125.125,0,0,1,.1.129c-.038.312-.071.621-.1.905A.113.113,0,0,1,531.314,842.321Zm17.276-.972a.112.112,0,0,1-.118-.095c-.057-.3-.1-.593-.162-.892a.129.129,0,0,1,.09-.137.112.112,0,0,1,.138.1c.057.3.1.593.157.9a.106.106,0,0,1-.091.128Zm-17.067-.835h-.014a.113.113,0,0,1-.1-.133c.038-.289.086-.6.133-.91a.114.114,0,0,1,.223.042c-.043.3-.09.608-.128.9A.126.126,0,0,1,531.523,840.514Zm16.73-.953a.116.116,0,0,1-.118-.095c-.062-.3-.128-.593-.2-.882a.108.108,0,0,1,.09-.138.1.1,0,0,1,.133.081c.067.294.138.593.195.892a.12.12,0,0,1-.086.142Zm-16.446-.849h-.023a.113.113,0,0,1-.09-.137c.052-.3.113-.6.175-.9a.118.118,0,0,1,.137-.09.106.106,0,0,1,.086.138c-.057.294-.119.6-.176.891A.108.108,0,0,1,531.807,838.712Zm16.039-.929a.124.124,0,0,1-.124-.091c-.076-.3-.156-.583-.237-.872a.136.136,0,0,1,.081-.147.127.127,0,0,1,.147.081c.081.289.156.587.237.881a.125.125,0,0,1-.09.148Zm-15.65-.854-.033-.005a.115.115,0,0,1-.085-.137c.076-.3.151-.6.232-.894a.114.114,0,0,1,.147-.071.108.108,0,0,1,.076.137c-.081.289-.161.586-.232.885A.114.114,0,0,1,532.2,836.929Zm15.156-.906a.1.1,0,0,1-.113-.08c-.1-.3-.19-.584-.28-.866a.109.109,0,0,1,.076-.144.105.105,0,0,1,.142.073c.095.282.19.571.28.865a.127.127,0,0,1-.076.152Zm-14.658-.849a.054.054,0,0,1-.038-.009.112.112,0,0,1-.08-.142c.1-.3.2-.588.3-.868a.115.115,0,0,1,.147-.062.105.105,0,0,1,.071.142c-.1.28-.2.565-.3.859A.119.119,0,0,1,532.694,835.174Zm14.085-.872a.138.138,0,0,1-.119-.083c-.1-.3-.213-.586-.313-.849a.117.117,0,0,1,.066-.154.111.111,0,0,1,.143.066c.109.28.218.56.322.859a.12.12,0,0,1-.066.151C546.8,834.292,546.788,834.3,546.779,834.3Zm-13.445-.837a.118.118,0,0,1-.052-.008.119.119,0,0,1-.061-.151c.128-.289.256-.571.393-.825a.109.109,0,0,1,.157-.057.123.123,0,0,1,.052.152c-.138.265-.261.535-.389.825A.1.1,0,0,1,533.334,833.465Zm12.776-.866a.1.1,0,0,1-.109-.071c-.138-.289-.261-.569-.384-.82a.115.115,0,0,1,.052-.157.118.118,0,0,1,.152.057c.133.256.26.536.388.83a.11.11,0,0,1-.066.152A.041.041,0,0,1,546.11,832.6Zm-11.951-.763a.121.121,0,0,1-.066-.014.107.107,0,0,1-.038-.152,8.989,8.989,0,0,1,.5-.769.112.112,0,0,1,.157-.033.116.116,0,0,1,.028.162,8.5,8.5,0,0,0-.489.754A.115.115,0,0,1,534.159,831.836Zm11.13-.873a.1.1,0,0,1-.1-.057,6.013,6.013,0,0,0-.37-.55c-.047-.057-.094-.114-.147-.17a.119.119,0,0,1,.014-.162.112.112,0,0,1,.157.01c.057.061.1.118.152.175a5.057,5.057,0,0,1,.393.588.1.1,0,0,1-.042.15A.064.064,0,0,1,545.289,830.963Zm-10.067-.6a.1.1,0,0,1-.081-.029.109.109,0,0,1-.009-.161c.2-.242.417-.46.63-.668a.127.127,0,0,1,.166,0,.124.124,0,0,1,0,.17c-.209.2-.422.418-.621.65A.1.1,0,0,1,535.222,830.361Zm8.882-.771a.126.126,0,0,1-.071-.021,7.173,7.173,0,0,0-.73-.531.119.119,0,0,1-.034-.161.121.121,0,0,1,.162-.038,6.924,6.924,0,0,1,.744.555.107.107,0,0,1,.014.156A.1.1,0,0,1,544.1,829.59Zm-7.559-.472a.109.109,0,0,1-.095-.052.112.112,0,0,1,.024-.156,7.44,7.44,0,0,1,.782-.5.116.116,0,0,1,.109.2,6.719,6.719,0,0,0-.754.479A.088.088,0,0,1,536.545,829.118Zm6.032-.5a.1.1,0,0,1-.052-.019,5.769,5.769,0,0,0-.835-.327.125.125,0,0,1-.076-.152.117.117,0,0,1,.147-.074,8.091,8.091,0,0,1,.859.344.107.107,0,0,1,.052.152A.133.133,0,0,1,542.577,828.616Zm-4.425-.356a.1.1,0,0,1-.118-.071.122.122,0,0,1,.071-.152,5.12,5.12,0,0,1,.906-.223.1.1,0,0,1,.128.095.115.115,0,0,1-.09.128,4.732,4.732,0,0,0-.868.223Zm2.694-.208h-.029a4.574,4.574,0,0,0-.886-.081.118.118,0,0,1-.109-.119.115.115,0,0,1,.109-.118,7.1,7.1,0,0,1,.934.085.118.118,0,0,1,.09.135A.116.116,0,0,1,540.846,828.052Z" fill="#e36099"/>
                  <path id="Trazado_112057" data-name="Trazado 112057" d="M549.074,848.156h-.014a.1.1,0,0,1-.11-.109c.005-.152.01-.308.01-.46a.124.124,0,0,1,.119-.116.11.11,0,0,1,.109.116c0,.152-.01.308-.01.465A.1.1,0,0,1,549.074,848.156Z" fill="#e36099"/>
                </g>
                <path id="Trazado_112058" data-name="Trazado 112058" d="M549.135,822.024a11.78,11.78,0,0,0,4.307-2.487c1.991-1.828,5.42-7.275,7.962-6.395,0,0-1.252-.337-3.349,1.612S553.92,821.171,549.135,822.024Z" fill="#e36099" opacity="0.4" style="mix-blend-mode: screen;isolation: isolate"/>
                <path id="Trazado_112059" data-name="Trazado 112059" d="M530.93,823.267a11.8,11.8,0,0,1-4.453-2.224c-2.1-1.7-5.847-6.931-8.332-5.9,0,0,1.233-.413,3.438,1.408C523.807,818.372,526.1,822.7,530.93,823.267Z" fill="#e36099" opacity="0.4" style="mix-blend-mode: screen;isolation: isolate"/>
                <path id="Trazado_112060" data-name="Trazado 112060" d="M553.626,808.355s.859,8.785-5.9,12.351C547.722,820.706,554.836,818,553.626,808.355Z" fill="#e36099" style="mix-blend-mode: multiply;isolation: isolate"/>
                <g id="Grupo_50513" data-name="Grupo 50513">
                  <path id="Trazado_112061" data-name="Trazado 112061" d="M513.7,817.249s-1.01,3.058,1.394,4.846A5.517,5.517,0,0,1,513.7,817.249Z" fill="#e36099"/>
                  <path id="Trazado_112062" data-name="Trazado 112062" d="M512.511,817.941a3.923,3.923,0,0,0,1.219,4.216A4.8,4.8,0,0,1,512.511,817.941Z" fill="#e36099"/>
                </g>
                <g id="Grupo_50514" data-name="Grupo 50514">
                  <path id="Trazado_112063" data-name="Trazado 112063" d="M562.575,810.7s2.812,1.569,2.257,4.514A5.548,5.548,0,0,0,562.575,810.7Z" fill="#e36099"/>
                  <path id="Trazado_112064" data-name="Trazado 112064" d="M563.926,810.418a3.914,3.914,0,0,1,1.945,3.928A4.8,4.8,0,0,0,563.926,810.418Z" fill="#e36099"/>
                </g>
                <path id="Trazado_112065" data-name="Trazado 112065" d="M546.84,819.48c-1.4-.8-4.05,1.249-5.06,2.108h0a.594.594,0,0,1-.095.08c0,.01-.005.01-.01.01a.208.208,0,0,1-.047.047,2.574,2.574,0,0,0-3.443.136c-.972-.681-4-2.663-5.368-1.691-1.646,1.152-.043,4.121-.043,4.121a4.877,4.877,0,0,0-.128,2.793h.01a1.326,1.326,0,0,0,.094.2c.005,0,.015.016.015.016a.649.649,0,0,0,.132.171.127.127,0,0,1,.019.033,1.092,1.092,0,0,0,.162.133.029.029,0,0,0,.028.017,1.282,1.282,0,0,0,.2.121c1.138.5,3.685-1.726,4.814-2.8h.009c.043-.038.076-.083.119-.114,0,0,0-.005,0-.005a.459.459,0,0,1,.048-.052,2.544,2.544,0,0,0,1.769.6,2.575,2.575,0,0,0,1.735-.8c1.077.858,4.136,3.144,5.293,2.485,1.417-.8.189-3.509.189-3.509S548.59,820.464,546.84,819.48Z" fill="#e36099" opacity="0.5" style="mix-blend-mode: multiply;isolation: isolate"/>
                <g id="Grupo_50515" data-name="Grupo 50515">
                  <path id="Trazado_112066" data-name="Trazado 112066" d="M538.447,821.619s-3.846-3.078-5.416-1.923-.024,4.116-.024,4.116-.9,2.822.517,3.485,5.112-3.336,5.112-3.336Z" fill="#f27671"/>
                  <path id="Trazado_112067" data-name="Trazado 112067" d="M541.2,821.483s3.528-3.449,5.192-2.442c1.67.989.432,4.095.432,4.095s1.176,2.72-.171,3.512-5.42-2.813-5.42-2.813Z" fill="#f27671"/>
                  <path id="Trazado_112068" data-name="Trazado 112068" d="M538.447,821.619a17.553,17.553,0,0,0-1.788-1.212,2.181,2.181,0,0,1,.521.877.136.136,0,0,1-.118.152,16.266,16.266,0,0,1-1.959-.2c.773.358,2.257.792,2,1.693-.195.662-.882.882-1.6,1.015a2.7,2.7,0,0,1,1.721.275c.057.033.024.1-.019.142-.7.579-1.418,1.124-2.144,1.653a4.153,4.153,0,0,1-1.218.69.984.984,0,0,1-.944-.1,1.253,1.253,0,0,0,.626.687c1.418.657,5.112-3.336,5.112-3.336Z" fill="#f27671" opacity="0.4" style="mix-blend-mode: multiply;isolation: isolate"/>
                  <path id="Trazado_112069" data-name="Trazado 112069" d="M538.447,821.619l-.2-.152a1.948,1.948,0,0,0-.147,3.047c.328-.332.536-.553.536-.553Z" fill="#f27671" opacity="0.4" style="mix-blend-mode: multiply;isolation: isolate"/>
                  <path id="Trazado_112070" data-name="Trazado 112070" d="M543.061,825c-.034-.064.057-.145.118-.164a3.125,3.125,0,0,1,1.062.024c-.877-.375-1.968-.9-1.934-1.769.019-.541.668-.787,1.09-.934.56-.18,1.086-.432,1.627-.65-.375.081-.754.152-1.138.209-.465.047-1.423.239-1.764-.2-.489-.64,2.39-2.03,3.832-2.637-1.779-.289-4.752,2.6-4.752,2.6l.033,2.352a24.371,24.371,0,0,0,2.252,1.741A2.279,2.279,0,0,1,543.061,825Z" fill="#f27671" opacity="0.4" style="mix-blend-mode: multiply;isolation: isolate"/>
                  <path id="Trazado_112071" data-name="Trazado 112071" d="M541.439,821.258l-.237.225.033,2.352s.237.209.616.51C542.349,823.347,542.577,821.635,541.439,821.258Z" fill="#f27671" opacity="0.4" style="mix-blend-mode: multiply;isolation: isolate"/>
                  <path id="Trazado_112072" data-name="Trazado 112072" d="M542.122,822.7a2.274,2.274,0,1,1-2.371-2.024A2.212,2.212,0,0,1,542.122,822.7Z" fill="#f27671"/>
                  <path id="Trazado_112073" data-name="Trazado 112073" d="M539.793,823.423a2.556,2.556,0,0,1-2.067-.782c-.043-.057-.076-.124-.109-.176a1.558,1.558,0,0,0-.029.446,2.273,2.273,0,0,0,4.534-.214,2.262,2.262,0,0,0-.124-.6A2.651,2.651,0,0,1,539.793,823.423Z" fill="#f27671" opacity="0.4" style="mix-blend-mode: multiply;isolation: isolate"/>
                  <path id="Trazado_112074" data-name="Trazado 112074" d="M537.782,822.271a2.408,2.408,0,0,1,2.964-1.323A3.541,3.541,0,0,0,537.782,822.271Z" fill="#f27671" style="mix-blend-mode: screen;isolation: isolate"/>
                  <path id="Trazado_112075" data-name="Trazado 112075" d="M542.449,821.1c.052-.037,3.258-2.319,3.931-1.844s.669,1.83.669,1.83-.3-1.487-1.039-1.527S542.449,821.1,542.449,821.1Z" fill="#f27671" style="mix-blend-mode: screen;isolation: isolate"/>
                  <path id="Trazado_112076" data-name="Trazado 112076" d="M536.749,820.763c-.062-.034-3.016-1.4-3.647-.859s-.484,1.892-.484,1.892.162-1.512.883-1.626A14.613,14.613,0,0,1,536.749,820.763Z" fill="#f27671" style="mix-blend-mode: screen;isolation: isolate"/>
                  <path id="Trazado_112077" data-name="Trazado 112077" d="M533.254,823.817a4.024,4.024,0,0,0-.233,2.575s-.071-1.845.541-2.319Z" fill="#f27671" style="mix-blend-mode: screen;isolation: isolate"/>
                  <path id="Trazado_112078" data-name="Trazado 112078" d="M546.821,823.874a4.029,4.029,0,0,1-.213,2.575s.389-1.807-.128-2.376Z" fill="#f27671" style="mix-blend-mode: screen;isolation: isolate"/>
                </g>
              </g>
            </g>
            <g id="Grupo_50518" data-name="Grupo 50518">
              <path id="Trazado_112079" data-name="Trazado 112079" d="M536.426,855.535c-.113,2.831-6.933,5.568-10.319,6.753l2.789,6.449c3.6-1.564,10.48-4.742,12.339-7.032,1.9-2.362,1.973-10.381,1.888-14.324a43.713,43.713,0,0,0-6.9-1.314C536.336,848.455,536.531,852.889,536.426,855.535Z" fill="#ffbea7"/>
            </g>
            <g id="Grupo_50519" data-name="Grupo 50519" opacity="0.5" style="mix-blend-mode: multiply;isolation: isolate">
              <path id="Trazado_112080" data-name="Trazado 112080" d="M529.469,860.989c-1.242.521-2.428.972-3.362,1.3l2.789,6.449c1.014-.441,2.286-1.01,3.637-1.655Q531.068,864,529.469,860.989Z" fill="#ffbea7"/>
              <path id="Trazado_112081" data-name="Trazado 112081" d="M543.136,850.7c.015-1.252.005-2.4-.013-3.317a43.713,43.713,0,0,0-6.9-1.314c.042.84.095,1.956.137,3.151C538.636,849.626,540.875,850.2,543.136,850.7Z" fill="#ffbea7"/>
            </g>
          </g>
        </g>
      </g>
    </g>
  </g>
</svg>
