<svg xmlns="http://www.w3.org/2000/svg" width="86" height="86" viewBox="0 0 86 86">
  <g id="Grupo_53052" data-name="Grupo 53052" transform="translate(10797 2485)">
    <rect id="Rectángulo_28716" data-name="Rectángulo 28716" width="86" height="86" transform="translate(-10797 -2485)" fill="none"/>
    <g id="brujula" transform="translate(-10791 -2479)">
      <path id="Trazado_102959" data-name="Trazado 102959" d="M231.933,384.522v2.556a3.488,3.488,0,0,0,6.976,0v-2.556a3.488,3.488,0,0,0-6.976,0Zm4.8,0v2.556a1.314,1.314,0,1,1-2.628,0v-2.556a1.314,1.314,0,0,1,2.628,0Z" transform="translate(-198.32 -325.812)" fill="#00223d"/>
      <path id="Trazado_102960" data-name="Trazado 102960" d="M75.643,235.422a3.492,3.492,0,0,0-3.488-3.488h-2.4a3.488,3.488,0,1,0,0,6.976h2.4A3.492,3.492,0,0,0,75.643,235.422Zm-3.488,1.314h-2.4a1.314,1.314,0,1,1,0-2.628h2.4a1.314,1.314,0,1,1,0,2.628Z" transform="translate(-56.662 -198.321)" fill="#00223d"/>
      <path id="Trazado_102961" data-name="Trazado 102961" d="M386.922,238.91a3.488,3.488,0,1,0,0-6.976h-2.4a3.488,3.488,0,1,0,0,6.976Zm-3.715-3.488a1.315,1.315,0,0,1,1.314-1.314h2.4a1.314,1.314,0,1,1,0,2.628h-2.4A1.316,1.316,0,0,1,383.207,235.422Z" transform="translate(-325.812 -198.321)" fill="#00223d"/>
      <path id="Trazado_102962" data-name="Trazado 102962" d="M166.761,167.895l-7.64,16.808a1.69,1.69,0,0,0,1.531,2.388,1.7,1.7,0,0,0,.7-.154l16.808-7.64h0a2.287,2.287,0,0,0,1.136-1.136l7.64-16.808a1.687,1.687,0,0,0-2.234-2.234l-16.808,7.64A2.287,2.287,0,0,0,166.761,167.895Zm1.516,1.918,7.968,7.968-14.608,6.64Zm9.505,6.431-7.968-7.968,14.608-6.64Z" transform="translate(-135.929 -135.927)" fill="#00223d"/>
      <path id="Trazado_102963" data-name="Trazado 102963" d="M63.335,10.866A37.1,37.1,0,0,0,12.5,9.331a1.087,1.087,0,0,0,1.442,1.627,34.924,34.924,0,1,1-2.982,2.982A1.087,1.087,0,1,0,9.331,12.5a37.1,37.1,0,1,0,54-1.631Z" transform="translate(0)" fill="#00223d"/>
      <path id="Trazado_102964" data-name="Trazado 102964" d="M44.239,89.807a32.3,32.3,0,1,0-3.181-3.181A1.087,1.087,0,0,0,42.7,85.2a30.123,30.123,0,1,1,2.968,2.968,1.087,1.087,0,1,0-1.427,1.64Z" transform="translate(-28.331 -28.332)" fill="#00223d"/>
      <path id="Trazado_102965" data-name="Trazado 102965" d="M220.23,66.44a1.087,1.087,0,0,0-.763,1.038V79.464a1.087,1.087,0,1,0,2.174,0v-8.5l6.123,8.867a1.252,1.252,0,0,0,1.41.531,1.309,1.309,0,0,0,.881-1.3l-.009-11.5a1.087,1.087,0,0,0-1.087-1.086h0a1.087,1.087,0,0,0-1.086,1.088l.007,8.614-6.432-9.313a1.088,1.088,0,0,0-1.218-.42Z" transform="translate(-187.661 -56.769)" fill="#00223d"/>
    </g>
  </g>
</svg>
