<svg xmlns="http://www.w3.org/2000/svg" width="243.881" height="243.944" viewBox="0 0 243.881 243.944">
  <g id="Grupo_52905" data-name="Grupo 52905" transform="translate(-646.147 -5394.668)">
    <g id="freepik--background-complete--inject-195" transform="translate(673.012 5394.668)">
      <circle id="Elipse_5301" data-name="Elipse 5301" cx="29.555" cy="29.555" r="29.555" transform="translate(133.422 41.797) rotate(-45)" fill="#fafafa"/>
      <path id="Trazado_114457" data-name="Trazado 114457" d="M996.436,5476.587a29.975,29.975,0,1,1,29.361-33.214h0a30.013,30.013,0,0,1-26.563,33.042C998.3,5476.517,997.367,5476.571,996.436,5476.587Zm-.866-59.11a24.29,24.29,0,0,0-2.717.172,29.085,29.085,0,1,0,2.717-.172Z" transform="translate(-820.78 -5404.818)" fill="#69f"/>
      <path id="Trazado_114458" data-name="Trazado 114458" d="M1025.215,5452.554a2.078,2.078,0,0,0-2.887-.542,2.107,2.107,0,0,0-.455.423,7.205,7.205,0,0,0-.877,2.05c-.538,1.8-1.038,3.616-1.571,5.418-.059.193-.285.339-.436.506-.124-.183-.328-.355-.361-.538q-.236-1.534-.393-3.078c-.221-2.018-.414-4.041-.63-6.059-.366-3.4-.732-6.785-1.124-10.175a2.031,2.031,0,0,0-.468-1.044,1.963,1.963,0,0,0-2.3-.375,1.876,1.876,0,0,0-.99,1.937q.581,5.38,1.167,10.793a1.261,1.261,0,0,1,.032.505c-.043.134-.194.317-.317.328a.509.509,0,0,1-.377-.253,1.22,1.22,0,0,1-.081-.495q-.684-6.268-1.367-12.542a6.246,6.246,0,0,0-.108-.779,1.463,1.463,0,0,0-1.324-1.281,1.935,1.935,0,0,0-2.394,2.287q.662,6.188,1.34,12.375a3.016,3.016,0,0,1,.043.726.451.451,0,0,1-.28.328.471.471,0,0,1-.382-.226,2.426,2.426,0,0,1-.118-.662c-.36-3.3-.7-6.6-1.076-9.9a1.9,1.9,0,0,0-3.766.425c.371,3.508.759,6.995,1.135,10.519a2,2,0,0,1,.054.614,2.035,2.035,0,0,1-.3.538c-.151-.156-.42-.291-.441-.462-.161-1.27-.275-2.551-.409-3.821-.145-1.35-.28-2.69-.447-4.051a1.792,1.792,0,0,0-2.006-1.548c-.049.007-.1.015-.146.025a1.641,1.641,0,0,0-1.506,1.765c0,.045.009.09.016.134q.318,3.97.635,7.946h0c.172,1.615.328,3.229.436,4.843a24.575,24.575,0,0,0,2.244,9.352,8.726,8.726,0,0,0,6.613,5.036,12.608,12.608,0,0,0,9.147-1.991,8.427,8.427,0,0,0,3.8-5.1c1.012-4.105,1.937-8.238,2.852-12.375A2.378,2.378,0,0,0,1025.215,5452.554Z" transform="translate(-836.312 -5414.371)" fill="#69f"/>
      <path id="Trazado_114459" data-name="Trazado 114459" d="M1052.215,5597.419l-4.143-4.143,4.143-4.143-2.378-2.378-4.149,4.143-4.143-4.143-2.378,2.378,4.143,4.143-4.143,4.143,2.378,2.383,4.143-4.143,4.149,4.143Z" transform="translate(-854.568 -5483.403)" fill="#69f"/>
      <path id="Trazado_114460" data-name="Trazado 114460" d="M860.935,5431.72l-4.25-4.256,4.25-4.256-2.443-2.443-4.256,4.256-4.256-4.256-2.443,2.443,4.256,4.256-4.256,4.256,2.443,2.443,4.256-4.256,4.256,4.256Z" transform="translate(-766.044 -5406.724)" fill="#69f"/>
      <path id="Trazado_114461" data-name="Trazado 114461" d="M713.058,5603.7l-5.633-4.31,4.31-5.633-3.239-2.476-4.31,5.634-5.633-4.311-2.475,3.239,5.633,4.3-4.31,5.639,3.239,2.476,4.31-5.634,5.633,4.31Z" transform="translate(-696.077 -5485.496)" fill="#12263f"/>
    </g>
    <g id="freepik--speech-bubble--inject-195" transform="translate(665.396 5418.48)">
      <path id="Trazado_114462" data-name="Trazado 114462" d="M753.722,5494.521l-8.872-10.815a32.622,32.622,0,1,0-6.22,9.884h0Z" transform="translate(-681.933 -5438.924)" fill="#fafafa"/>
      <path id="Trazado_114463" data-name="Trazado 114463" d="M753.711,5494.536l-15.1-.845H738.5l.048-.1h0l.113.081a33.4,33.4,0,0,1-5.919,5.106,32.6,32.6,0,0,1-8.356,4.019,33.108,33.108,0,0,1-5.031,1.151,31.938,31.938,0,0,1-5.461.355,32.7,32.7,0,0,1-29.775-20.854,33.283,33.283,0,0,1-2.109-14.318,32.6,32.6,0,0,1,4.616-14.36,31.524,31.524,0,0,1,4.81-6.166,31.9,31.9,0,0,1,6.031-4.794,32.613,32.613,0,0,1,6.806-3.18,33.152,33.152,0,0,1,7.172-1.512,32.663,32.663,0,0,1,35.479,37.146,32.988,32.988,0,0,1-2.023,7.457v-.069c5.682,6.994,8.517,10.486,8.824,10.857l-8.926-10.761-.027-.032v-.038a33.045,33.045,0,0,0,1.98-7.425,32.419,32.419,0,0,0-35.264-36.884,32.967,32.967,0,0,0-7.113,1.5,32.315,32.315,0,0,0-6.763,3.152,31.533,31.533,0,0,0-5.961,4.735,34.668,34.668,0,0,0-2.567,2.895,34.215,34.215,0,0,0-2.206,3.229,32.334,32.334,0,0,0-4.573,14.236,32.911,32.911,0,0,0,2.1,14.21,32.455,32.455,0,0,0,29.528,20.731,31.556,31.556,0,0,0,5.429-.345,32.218,32.218,0,0,0,13.317-5.1,33.3,33.3,0,0,0,5.919-5.058l.366-.393-.253.468h0l-.059-.1Z" transform="translate(-681.923 -5438.939)" fill="#12263f"/>
      <path id="Trazado_114464" data-name="Trazado 114464" d="M743.777,5497.575l-6.042-6.043,6.042-6.037-3.47-3.47-6.042,6.036-6.037-6.036-3.47,3.47,6.037,6.037-6.037,6.043,3.47,3.47,6.037-6.042,6.042,6.042Z" transform="translate(-701.71 -5458.835)" fill="#ea3065"/>
    </g>
    <g id="freepik--Characters--inject-195" transform="translate(647.438 5429.324)">
      <path id="Trazado_114465" data-name="Trazado 114465" d="M898.849,5537.766c4.73,2.582,10.939-.14,14.032-4.547s3.858-9.986,4.536-15.329q1.313-10.341,2.626-20.672c.764-6.053,2.152-11.024.172-18.212-2.292-8.334-12.881-10.686-12.881-10.686a83.522,83.522,0,0,0-7.377-6.09,19.039,19.039,0,0,0-13.8-2.905,48.12,48.12,0,0,0-20.5,8.216,20.982,20.982,0,0,1-12.311,3.825,12.081,12.081,0,0,1-1.566-.1c-2.975-.42-8.609-2.346-10.083,1.442s3.228,10.54,3.228,10.54-5.267-1.345-5.542,2.976,5.66,14.748,16.007,14.872" transform="translate(-736.703 -5459.078)" fill="#ea3065"/>
      <g id="Grupo_52893" data-name="Grupo 52893" transform="translate(102.677 0)" opacity="0.3">
        <path id="Trazado_114466" data-name="Trazado 114466" d="M898.849,5537.766c4.73,2.582,10.939-.14,14.032-4.547s3.858-9.986,4.536-15.329q1.313-10.341,2.626-20.672c.764-6.053,2.152-11.024.172-18.212-2.292-8.334-12.881-10.686-12.881-10.686a83.522,83.522,0,0,0-7.377-6.09,19.039,19.039,0,0,0-13.8-2.905,48.12,48.12,0,0,0-20.5,8.216,20.982,20.982,0,0,1-12.311,3.825,12.081,12.081,0,0,1-1.566-.1c-2.975-.42-8.609-2.346-10.083,1.442s3.228,10.54,3.228,10.54-5.267-1.345-5.542,2.976,5.66,14.748,16.007,14.872" transform="translate(-839.38 -5459.078)"/>
      </g>
      <path id="Trazado_114467" data-name="Trazado 114467" d="M875.367,5591.074a26.132,26.132,0,0,0-16.588-17.88v.037c-11.751-4.68-18.428-5.1-35.081-9.8l1.076-57.033c.823-18.138-9.055-33.725-27.188-34.016l-1.679.07a32.45,32.45,0,0,0-31.115,31.137c-.619,15.727-1.076,33.117-.646,41.527.931,17.4,18.455,19.37,18.455,19.37,0,.264,0,1.474-.032,3.261-.786,0-10.185,1.27-20.231,3.314-6.349-1.932-25.132-6.995-37.125-3.374h0c-10.551.539-37.663,2.464-55.839,8.91-10.067,3.557-20.828,11.891-20.828,24.207,0,11.6,14.027,14.759,28.178,15.662,10.024.641,27.51-.769,36.872-1.646l34.629,18.041,2.626,13.359L753,5673.943l97.645-.14h32.746S879.068,5605.154,875.367,5591.074Z" transform="translate(-648.547 -5465.225)" fill="#e36099"/>
      <g id="Grupo_52894" data-name="Grupo 52894" transform="translate(134.006 91.617)" opacity="0.3">
        <path id="Trazado_114468" data-name="Trazado 114468" d="M897.655,5637a42.075,42.075,0,0,0,22.383-7.64s-5,12.913-22.431,12.041Z" transform="translate(-897.607 -5629.355)"/>
      </g>
      <g id="Grupo_52895" data-name="Grupo 52895" transform="translate(120.216 36.757)" opacity="0.3">
        <path id="Trazado_114469" data-name="Trazado 114469" d="M876.547,5553.369a2.481,2.481,0,0,0,2.5,2.411,2.384,2.384,0,0,0,2.469-2.3c0-.017,0-.034,0-.051a2.492,2.492,0,0,0-2.5-2.411,2.374,2.374,0,0,0-2.468,2.275C876.548,5553.321,876.548,5553.345,876.547,5553.369Z" transform="translate(-874.088 -5538.307)"/>
        <path id="Trazado_114470" data-name="Trazado 114470" d="M872.02,5543.185c.323.312,2.152-1.162,4.842-1.265s4.692,1.151,4.966.813c.134-.151-.2-.721-1.076-1.308a6.821,6.821,0,0,0-3.992-1.076,6.577,6.577,0,0,0-3.825,1.41C872.116,5542.447,871.864,5543.056,872.02,5543.185Z" transform="translate(-871.976 -5533.374)"/>
        <path id="Trazado_114471" data-name="Trazado 114471" d="M920.687,5553.369a2.492,2.492,0,0,0,2.5,2.411,2.384,2.384,0,0,0,2.469-2.3c0-.017,0-.034,0-.051a2.492,2.492,0,0,0-2.5-2.411,2.378,2.378,0,0,0-2.473,2.28C920.688,5553.325,920.688,5553.347,920.687,5553.369Z" transform="translate(-894.478 -5538.307)"/>
        <path id="Trazado_114472" data-name="Trazado 114472" d="M919.89,5542.4c.323.312,2.152-1.157,4.842-1.26s4.692,1.152,4.966.813c.135-.151-.2-.727-1.076-1.313a6.867,6.867,0,0,0-3.992-1.076,6.55,6.55,0,0,0-3.826,1.41C919.992,5541.658,919.734,5542.261,919.89,5542.4Z" transform="translate(-894.09 -5533.01)"/>
        <path id="Trazado_114473" data-name="Trazado 114473" d="M898.655,5563.273c0-.156-1.668-.371-4.38-.608-.683-.038-1.334-.15-1.469-.608a3.964,3.964,0,0,1,.371-2.044q.866-2.518,1.8-5.284c2.5-7.533,4.3-13.693,3.976-13.8s-2.577,5.919-5.074,13.452l-1.684,5.3a3.942,3.942,0,0,0-.242,2.69,1.693,1.693,0,0,0,1.168.952,4.411,4.411,0,0,0,1.162.113C896.987,5563.483,898.655,5563.424,898.655,5563.273Z" transform="translate(-881.13 -5533.647)"/>
        <path id="Trazado_114474" data-name="Trazado 114474" d="M909.331,5596.772c.436.043.538-2.857,3.126-4.842s5.644-1.518,5.682-1.921c.048-.183-.667-.592-1.969-.684a7.265,7.265,0,0,0-4.74,1.442A6.306,6.306,0,0,0,909,5594.82C908.836,5596.051,909.132,5596.784,909.331,5596.772Z" transform="translate(-889.056 -5555.998)"/>
        <path id="Trazado_114475" data-name="Trazado 114475" d="M930.674,5527.513c-.538-.538-2.836.86-5.854,1.808s-5.687,1.216-5.795,1.985c-.043.361.646.8,1.867,1.022a10.625,10.625,0,0,0,8.872-2.89C930.6,5528.54,930.916,5527.776,930.674,5527.513Z" transform="translate(-893.71 -5527.393)"/>
        <path id="Trazado_114476" data-name="Trazado 114476" d="M881.744,5530.941c-.242-.731-2.19-.742-4.3-1.447s-3.729-1.743-4.348-1.286c-.28.231-.2.9.382,1.716a6.565,6.565,0,0,0,6.962,2.2C881.394,5531.787,881.873,5531.281,881.744,5530.941Z" transform="translate(-872.419 -5527.718)"/>
      </g>
      <path id="Trazado_114477" data-name="Trazado 114477" d="M974.447,5559.059c.291-.14,11.837-4.035,11.928,7.882s-11.875,9.572-11.875,9.228S974.447,5559.059,974.447,5559.059Z" transform="translate(-799.097 -5504.932)" fill="#ea3065"/>
      <g id="Grupo_52896" data-name="Grupo 52896" transform="translate(178.965 57.22)" opacity="0.3">
        <path id="Trazado_114478" data-name="Trazado 114478" d="M981.177,5574.895c.048-.038.21.14.538.3a2.107,2.107,0,0,0,1.555,0c1.254-.474,2.292-2.48,2.33-4.632a6.832,6.832,0,0,0-.608-2.965,2.387,2.387,0,0,0-1.576-1.576,1.076,1.076,0,0,0-1.221.581c-.156.333-.075.57-.14.592s-.258-.2-.167-.694a1.318,1.318,0,0,1,.463-.748,1.566,1.566,0,0,1,1.146-.317,2.921,2.921,0,0,1,2.184,1.829,7.029,7.029,0,0,1,.753,3.314c-.054,2.4-1.264,4.66-2.981,5.176a2.219,2.219,0,0,1-1.9-.3C981.2,5575.18,981.134,5574.917,981.177,5574.895Z" transform="translate(-981.165 -5565.425)"/>
      </g>
      <path id="Trazado_114479" data-name="Trazado 114479" d="M861.917,5493.268c5.488,4.481,15.969.538,22.673-1.771s11.59-7.21,18.181-9.8a14.813,14.813,0,0,1,5.467-1.254,6.248,6.248,0,0,1,4.982,2.212,7.162,7.162,0,0,1,.85,5.95c-.468,2.018-1.41,3.9-1.991,5.881-1.076,3.647-.915,7.532-.748,11.331.237,5.348.538,10.917,3.153,15.6,1.033,1.84,3.1,3.68,5.025,2.813,2.2-.989,1.781-4.181,2.588-6.456s3.094-3.8,4.407-5.886,1.614-4.763,1.679-7.28c.226-8.265-1.281-16.68-5.273-23.927s-10.616-13.215-18.59-15.464c-8.275-2.347-17.449-.512-24.707,4.11s-12.649,11.837-15.91,19.795" transform="translate(-747.114 -5461.443)" fill="#ea3065"/>
      <g id="Grupo_52897" data-name="Grupo 52897" transform="translate(114.803 2.755)" opacity="0.3">
        <path id="Trazado_114480" data-name="Trazado 114480" d="M861.917,5493.268c5.488,4.481,15.969.538,22.673-1.771s11.59-7.21,18.181-9.8a14.813,14.813,0,0,1,5.467-1.254,6.248,6.248,0,0,1,4.982,2.212,7.162,7.162,0,0,1,.85,5.95c-.468,2.018-1.41,3.9-1.991,5.881-1.076,3.647-.915,7.532-.748,11.331.237,5.348.538,10.917,3.153,15.6,1.033,1.84,3.1,3.68,5.025,2.813,2.2-.989,1.781-4.181,2.588-6.456s3.094-3.8,4.407-5.886,1.614-4.763,1.679-7.28c.226-8.265-1.281-16.68-5.273-23.927s-10.616-13.215-18.59-15.464c-8.275-2.347-17.449-.512-24.707,4.11s-12.649,11.837-15.91,19.795" transform="translate(-861.917 -5464.198)"/>
      </g>
      <g id="Grupo_52898" data-name="Grupo 52898" transform="translate(193.269 159.067)" opacity="0.3">
        <path id="Trazado_114481" data-name="Trazado 114481" d="M1011.241,5804.694c-.075,0-.915-11.181-1.872-24.982s-1.668-24.992-1.614-25,.92,11.175,1.872,24.981S1011.322,5804.689,1011.241,5804.694Z" transform="translate(-1007.752 -5754.715)"/>
      </g>
      <g id="Grupo_52899" data-name="Grupo 52899" transform="translate(193.843 115.227)" opacity="0.3">
        <path id="Trazado_114482" data-name="Trazado 114482" d="M1022.71,5673.234a1.664,1.664,0,0,1-.269.2l-.807.539-.581.376c-.21.146-.425.317-.662.5a19.2,19.2,0,0,0-1.566,1.254l-.877.774c-.3.274-.581.592-.893.9a27.062,27.062,0,0,0-1.845,2.093,28.588,28.588,0,0,0-5.493,11.444,27.138,27.138,0,0,0-.474,2.754c-.048.431-.118.85-.145,1.254s-.038.8-.054,1.167a19.352,19.352,0,0,0,0,2.013,7.955,7.955,0,0,0,.027.823c.027.253.048.479.07.689.038.393.07.71.091.958a1.47,1.47,0,0,1,0,.339,1.889,1.889,0,0,1-.065-.328l-.145-.958c-.032-.21-.065-.441-.1-.688s-.032-.539-.048-.829a17.262,17.262,0,0,1-.048-2.023c0-.376.027-.77.038-1.178s.086-.829.129-1.27a27.375,27.375,0,0,1,.452-2.776,28.093,28.093,0,0,1,5.542-11.552,26.109,26.109,0,0,1,1.883-2.093c.318-.308.6-.625.915-.894l.893-.77a18.584,18.584,0,0,1,1.614-1.231c.242-.167.463-.339.678-.474l.613-.388.834-.484A1.352,1.352,0,0,1,1022.71,5673.234Z" transform="translate(-1008.818 -5673.234)"/>
      </g>
      <path id="Trazado_114483" data-name="Trazado 114483" d="M769.052,5584.315c-6.15,3.917-8.609,12.117-7.43,16.959.592,2.443,1.7,4.9,1.216,7.366-.42,2.152-1.953,3.836-3.1,5.682a17.125,17.125,0,0,0,21.409,24.712" transform="translate(-698.772 -5516.932)" fill="#12263f"/>
      <path id="Trazado_114484" data-name="Trazado 114484" d="M769.335,5605.174c-14.963-32.9,20.623-49.431,40.036-43.948,18.245,5.154,26.031,14.237,29.055,26.439s2.857,25.434-1.926,37.061c-2.357,5.73-6.607,11.558-12.768,12.273" transform="translate(-702.692 -5505.787)" fill="#12263f"/>
      <path id="Trazado_114485" data-name="Trazado 114485" d="M715.314,5771.018c-5.02-3.1-8.5-10.33-7.7-15.506s3.422-10.336,7.979-12.914c3.072-1.744,7.032-2.405,8.975-5.354,1.722-2.6,1.221-6.118,2.5-8.963a10.29,10.29,0,0,1,5.494-4.94,30.429,30.429,0,0,1,7.334-1.765l16.034-2.485c1.77-.275,3.766-.5,5.192.586s1.749,3.088,1.932,4.886a303.492,303.492,0,0,1,1.544,37.593" transform="translate(-675.779 -5579.086)" fill="#12263f"/>
      <path id="Trazado_114486" data-name="Trazado 114486" d="M789.666,5682.784c-.258-15.717-.3-25.073-.3-24.982,0,0-13.51-2.243-16.314-19.871-1.388-8.77-.947-23.136-.21-34.892.667-10.578,7.673-23.555,18.213-22.442l32.907,8.319a6.2,6.2,0,0,1,5.547,6.29h0l-2.045,77.893" transform="translate(-705.644 -5515.183)" fill="#ffbe9d"/>
      <path id="Trazado_114487" data-name="Trazado 114487" d="M789.306,5643.838c-.285-.29-1.98,1-4.412,1.022s-4.234-1.172-4.493-.872c-.129.135.161.662.947,1.222a6.212,6.212,0,0,0,3.6,1.077,5.917,5.917,0,0,0,3.508-1.184C789.2,5644.506,789.446,5643.968,789.306,5643.838Z" transform="translate(-709.444 -5544.408)" fill="#12263f"/>
      <path id="Trazado_114488" data-name="Trazado 114488" d="M833.759,5642.065c-.3-.269-1.91,1.124-4.337,1.307s-4.3-.893-4.536-.576c-.118.141.2.651,1.022,1.157a6.225,6.225,0,0,0,3.664.822,5.943,5.943,0,0,0,3.422-1.4C833.694,5642.759,833.91,5642.189,833.759,5642.065Z" transform="translate(-729.996 -5543.594)" fill="#12263f"/>
      <path id="Trazado_114489" data-name="Trazado 114489" d="M801.937,5653.231c0-.14-1.5-.4-3.949-.71-.624-.064-1.211-.187-1.313-.613a3.588,3.588,0,0,1,.414-1.839q.872-2.26,1.835-4.729c2.55-6.737,4.4-12.279,4.127-12.375s-2.561,5.278-5.112,12.009l-1.77,4.761a3.581,3.581,0,0,0-.323,2.438,1.564,1.564,0,0,0,1.022.909,4.265,4.265,0,0,0,1.076.146C800.4,5653.361,801.932,5653.371,801.937,5653.231Z" transform="translate(-716.538 -5539.404)" fill="#12263f"/>
      <path id="Trazado_114490" data-name="Trazado 114490" d="M804.147,5718.735a44.834,44.834,0,0,0,23.61-6.3s-5.967,12.268-23.61,10.616Z" transform="translate(-720.427 -5576.116)" fill="#eb996e"/>
      <path id="Trazado_114491" data-name="Trazado 114491" d="M808.977,5680.125a4.384,4.384,0,0,1,3.928-1.615A4,4,0,0,1,815.67,5680a2.538,2.538,0,0,1,.194,2.9,2.958,2.958,0,0,1-3.191.808,9.291,9.291,0,0,1-3.11-1.856,2.609,2.609,0,0,1-.694-.721.813.813,0,0,1,0-.9" transform="translate(-722.545 -5560.431)" fill="#eb996e"/>
      <path id="Trazado_114492" data-name="Trazado 114492" d="M810.182,5685.148c.377.124,1.044-2.432,3.7-3.686s5.305-.264,5.418-.619c.075-.15-.479-.651-1.614-.979a6.567,6.567,0,0,0-4.487.371,5.733,5.733,0,0,0-2.932,3.132C809.881,5684.412,810,5685.122,810.182,5685.148Z" transform="translate(-723.136 -5560.963)" fill="#12263f"/>
      <path id="Trazado_114493" data-name="Trazado 114493" d="M821.636,5627.629c.242.662,2.69.349,5.52.694s5.165,1.119,5.542.538c.172-.285-.231-.9-1.162-1.544a9.641,9.641,0,0,0-8.426-.931C822.061,5626.8,821.534,5627.317,821.636,5627.629Z" transform="translate(-728.5 -5536.104)" fill="#12263f"/>
      <path id="Trazado_114494" data-name="Trazado 114494" d="M787.416,5625.506c-.538-.441-2.045.5-4,.979s-3.707.479-3.96,1.13c-.1.313.285.792,1.13,1.13a5.917,5.917,0,0,0,6.414-1.7C787.567,5626.334,787.664,5625.727,787.416,5625.506Z" transform="translate(-709.012 -5535.907)" fill="#12263f"/>
      <path id="Trazado_114495" data-name="Trazado 114495" d="M872.287,5649.989c.258-.124,9.437-4.181,9.545,6.371s-10.513,8.506-10.535,8.183S872.287,5649.989,872.287,5649.989Z" transform="translate(-751.446 -5546.869)" fill="#ffbe9d"/>
      <path id="Trazado_114496" data-name="Trazado 114496" d="M877.208,5663.1c.043-.033.183.129.5.264a1.836,1.836,0,0,0,1.377,0c1.108-.42,2.028-2.2,2.061-4.106a6.06,6.06,0,0,0-.538-2.625,2.154,2.154,0,0,0-1.4-1.394.941.941,0,0,0-1.076.511c-.14.3-.07.506-.124.538s-.226-.177-.145-.613a1.158,1.158,0,0,1,.4-.662,1.4,1.4,0,0,1,1.017-.279,2.581,2.581,0,0,1,1.937,1.614,6.254,6.254,0,0,1,.667,2.938c-.043,2.125-1.114,4.127-2.636,4.585a1.981,1.981,0,0,1-1.684-.264C877.23,5663.355,877.171,5663.151,877.208,5663.1Z" transform="translate(-754.173 -5549.458)" fill="#eb996e"/>
      <path id="Trazado_114497" data-name="Trazado 114497" d="M794.921,5570.785c-5.875,3.034-8.291,15.065-5.859,21.193s8.975,9.147,15.431,10.562a38.972,38.972,0,0,0,19.154-.188c.441,4.3,3.013,8.679,7.167,9.809,5.5,1.5,11.041-3.541,12.268-9.109s-.608-11.3-2.421-16.707" transform="translate(-713.025 -5510.681)" fill="#12263f"/>
      <path id="Trazado_114498" data-name="Trazado 114498" d="M871.088,5635.414c.027.033-.264.307-.812.77a29.6,29.6,0,0,1-2.437,1.835,14.882,14.882,0,0,1-4.1,1.985,8.884,8.884,0,0,1-5.6-.081,8.681,8.681,0,0,1-4.24-3.664,11.84,11.84,0,0,1-1.523-4.3,15.7,15.7,0,0,1-.161-3.056,3.558,3.558,0,0,1,.134-1.114c.118,0,0,1.614.452,4.095a12.181,12.181,0,0,0,1.571,4.089,8.339,8.339,0,0,0,3.982,3.389,8.552,8.552,0,0,0,5.235.113,15.493,15.493,0,0,0,4.019-1.813C869.765,5636.308,871.024,5635.328,871.088,5635.414Z" transform="translate(-742.624 -5537.012)" fill="#12263f"/>
      <path id="Trazado_114499" data-name="Trazado 114499" d="M843.319,5647.445a7.552,7.552,0,0,0-1.017,3.734,2.153,2.153,0,0,0,.4,1.114,1.23,1.23,0,0,0,1.028.511,1.393,1.393,0,0,0,1.141-1.377,4.031,4.031,0,0,0-.538-1.856l-1.012-2.125" transform="translate(-738.044 -5546.094)" fill="#e36099"/>
      <path id="Trazado_114500" data-name="Trazado 114500" d="M834.941,5647.443a2.927,2.927,0,0,1-.872.861,6.324,6.324,0,0,1-5.676.866,2.989,2.989,0,0,1-1.076-.538c0-.043.43.178,1.141.372a6.923,6.923,0,0,0,5.51-.845C834.575,5647.739,834.9,5647.411,834.941,5647.443Z" transform="translate(-731.13 -5546.092)" fill="#eb996e"/>
      <path id="Trazado_114501" data-name="Trazado 114501" d="M789.6,5649.515a2.365,2.365,0,0,1-.818.613,5.772,5.772,0,0,1-2.378.667,5.7,5.7,0,0,1-2.437-.4,2.329,2.329,0,0,1-.882-.538q.482.143.947.333a6.6,6.6,0,0,0,2.357.307,6.775,6.775,0,0,0,2.308-.565A7.676,7.676,0,0,1,789.6,5649.515Z" transform="translate(-710.698 -5547.051)" fill="#eb996e"/>
      <path id="Trazado_114502" data-name="Trazado 114502" d="M920.417,5703.813c-.177-3.809-2.787-7.172-5.988-9.244s-6.962-3.061-10.659-4.008a11.738,11.738,0,0,0-3.809-14.656c-2.491-1.652-5.666-2.352-7.646-4.595a9.566,9.566,0,0,1-2.039-6.613,43.12,43.12,0,0,1,1.108-7,57.371,57.371,0,0,0-.651-24.777l-1.151,4.665-2.69,7.177-4.229,14.71-6.457,3.3c-.344,5.918-.134,12.375-.479,18.293l11.649,5.762.124.253Z" transform="translate(-753.493 -5539.387)" fill="#12263f"/>
      <path id="Trazado_114503" data-name="Trazado 114503" d="M847.966,5616.228a1.022,1.022,0,0,1,.027-.194c.027-.124.054-.333.092-.57a21.946,21.946,0,0,0,.221-2.2,19.9,19.9,0,0,0-1.27-7.941,19.074,19.074,0,0,0-2.69-4.842,19.84,19.84,0,0,0-4.676-4.337,19.165,19.165,0,0,0-6.457-2.755,32.979,32.979,0,0,0-7.57-.6c-2.62.032-5.181.156-7.656.043a22.456,22.456,0,0,1-6.995-1.313,18.882,18.882,0,0,1-5.52-3.352,19.557,19.557,0,0,1-3.675-4.261,18.974,18.974,0,0,1-2.862-7.582l-.129-1.275a8.978,8.978,0,0,1,0-.936v-.576a.771.771,0,0,1,0-.193.89.89,0,0,1,0,.193v.576a7.7,7.7,0,0,0,.043.931c.043.366.1.792.156,1.265a19.67,19.67,0,0,0,6.586,11.681,18.543,18.543,0,0,0,5.445,3.266,22.2,22.2,0,0,0,6.935,1.281c2.459.107,5.015,0,7.64-.054a33.023,33.023,0,0,1,7.635.618,19.374,19.374,0,0,1,6.559,2.809,19.866,19.866,0,0,1,4.713,4.412,19.243,19.243,0,0,1,2.717,4.934,19.687,19.687,0,0,1,1.189,8.017A14.241,14.241,0,0,1,847.966,5616.228Z" transform="translate(-717.952 -5511.864)" fill="#e36099"/>
      <path id="Trazado_114504" data-name="Trazado 114504" d="M858.861,5602.051a.745.745,0,0,1,0-.177,3.572,3.572,0,0,1,.032-.539c.048-.463.043-1.146.032-2.028a19.4,19.4,0,0,0-.409-3.169,19,19,0,0,0-1.313-4.02,19.269,19.269,0,0,0-7.021-8.275,22.571,22.571,0,0,0-5.918-2.608,42.408,42.408,0,0,0-6.865-1.324c-4.767-.538-9.373-.711-13.478-1.561a29.241,29.241,0,0,1-5.682-1.722,19.99,19.99,0,0,1-4.444-2.642,16.34,16.34,0,0,1-2.992-3.046,13.672,13.672,0,0,1-1.614-2.792,10.431,10.431,0,0,1-.393-1.108,6.461,6.461,0,0,1-.215-.834c-.043-.216-.075-.395-.1-.538a.907.907,0,0,1-.027-.184,1.013,1.013,0,0,1,.054.178c.032.13.07.3.124.512a6.747,6.747,0,0,0,.242.817,9.264,9.264,0,0,0,.414,1.076,13.568,13.568,0,0,0,1.614,2.744,16.3,16.3,0,0,0,2.986,2.981,20.078,20.078,0,0,0,4.412,2.582,28.838,28.838,0,0,0,5.639,1.684c4.084.829,8.673.979,13.451,1.534a41.882,41.882,0,0,1,6.909,1.34,22.772,22.772,0,0,1,5.994,2.657,19.377,19.377,0,0,1,7.065,8.41,19.619,19.619,0,0,1,1.673,7.328,16.251,16.251,0,0,1-.086,2.028,3.994,3.994,0,0,1-.059.538A.67.67,0,0,1,858.861,5602.051Z" transform="translate(-722.418 -5508.232)" fill="#e36099"/>
      <path id="Trazado_114505" data-name="Trazado 114505" d="M892.371,5706.932a1.859,1.859,0,0,1-.3-.177c-.183-.129-.468-.3-.807-.565a21.612,21.612,0,0,1-2.69-2.4,23.135,23.135,0,0,1-5.73-22.205,21.839,21.839,0,0,1,1.221-3.411c.167-.393.333-.684.436-.883a1.269,1.269,0,0,1,.172-.3,1.37,1.37,0,0,1-.124.317c-.081.209-.231.506-.387.9a24.3,24.3,0,0,0-1.125,3.417,23.539,23.539,0,0,0,5.66,22.021,24.348,24.348,0,0,0,2.636,2.448c.328.275.6.463.775.6A1.477,1.477,0,0,1,892.371,5706.932Z" transform="translate(-756.407 -5559.745)" fill="#e36099"/>
      <path id="Trazado_114506" data-name="Trazado 114506" d="M697.711,5756.755l-.059-.177a1.7,1.7,0,0,1-.075-.538,2.57,2.57,0,0,1,.915-1.879,2.54,2.54,0,0,1,1.393-.635,2.9,2.9,0,0,1,1.786.415,3.616,3.616,0,0,1,1.41,1.566,3.553,3.553,0,0,1,.188,2.351,4.48,4.48,0,0,1-1.35,2.217,4.258,4.258,0,0,1-2.566,1.14,5.541,5.541,0,0,1-5.149-3.019,7.28,7.28,0,0,1,.269-6.667,11.456,11.456,0,0,1,5.483-4.778,30.054,30.054,0,0,1,7.059-1.937,18.153,18.153,0,0,0,6.4-2.044,7.847,7.847,0,0,0,2.287-2.093,6.282,6.282,0,0,0,1.076-2.69c.161-.941.2-1.872.328-2.765a11.193,11.193,0,0,1,.258-1.3,5.935,5.935,0,0,1,.21-.613,4.329,4.329,0,0,1,.253-.582,7.182,7.182,0,0,1,1.372-1.915,10.3,10.3,0,0,1,1.614-1.334,17.589,17.589,0,0,1,2.954-1.577c.845-.366,1.517-.6,1.969-.77l.538-.177a.74.74,0,0,1,.183-.049l-.172.076-.511.2c-.447.183-1.114.436-1.948.813a18.216,18.216,0,0,0-2.911,1.614,10.136,10.136,0,0,0-1.582,1.329,6.913,6.913,0,0,0-1.324,1.883,4.86,4.86,0,0,0-.242.538,5.6,5.6,0,0,0-.2.6,10.455,10.455,0,0,0-.242,1.275c-.118.882-.156,1.818-.317,2.781a6.505,6.505,0,0,1-1.076,2.8,8.074,8.074,0,0,1-2.351,2.152,18.166,18.166,0,0,1-6.489,2.1,29.722,29.722,0,0,0-6.995,1.926,11.2,11.2,0,0,0-5.38,4.649,7,7,0,0,0-.28,6.419,5.3,5.3,0,0,0,4.9,2.905,4.028,4.028,0,0,0,2.437-1.076,4.258,4.258,0,0,0,1.3-2.109,3.318,3.318,0,0,0-.161-2.222,3.408,3.408,0,0,0-1.307-1.5,2.758,2.758,0,0,0-1.69-.419,2.447,2.447,0,0,0-1.34.6,2.542,2.542,0,0,0-.931,1.792A3.764,3.764,0,0,0,697.711,5756.755Z" transform="translate(-669.324 -5582.801)" fill="#12263f"/>
      <path id="Trazado_114507" data-name="Trazado 114507" d="M911.193,5688.832s.178.2.538.538a4.8,4.8,0,0,0,1.932,1.028,6.182,6.182,0,0,0,1.566.232,6.745,6.745,0,0,0,1.867-.264,5.669,5.669,0,0,0,1.915-.975,5.876,5.876,0,0,0,1.528-1.861,7.623,7.623,0,0,0,.57-5.413,8.763,8.763,0,0,0-3.734-5,11.8,11.8,0,0,0-3.137-1.448,22.838,22.838,0,0,0-3.578-.624,9.08,9.08,0,0,1-3.648-1.108,5.581,5.581,0,0,1-2.3-3.164,9.067,9.067,0,0,1-.258-3.922,23.37,23.37,0,0,1,.9-3.7,29.7,29.7,0,0,0,1.463-6.994,27.649,27.649,0,0,0-.269-6.457,26.588,26.588,0,0,0-1.426-5.381l-.215-.6-.247-.571c-.161-.376-.323-.743-.479-1.076-.366-.684-.656-1.356-1.022-1.932s-.662-1.141-1.011-1.615-.619-.936-.931-1.307l-.791-1.006-.624-.7-.377-.437a.874.874,0,0,1-.124-.156,1.817,1.817,0,0,1,.145.135c.092.091.231.242.4.419l.646.684.812,1c.318.366.613.812.958,1.3s.672,1.022,1.033,1.614.678,1.254,1.049,1.938c.161.355.323.72.49,1.076.086.188.167.382.253.57l.226.6a27.138,27.138,0,0,1,1.469,5.445,27.522,27.522,0,0,1,.291,6.488,29.581,29.581,0,0,1-1.447,7.022,24.337,24.337,0,0,0-.877,3.658,8.769,8.769,0,0,0,.253,3.8,5.3,5.3,0,0,0,2.179,3.008,8.83,8.83,0,0,0,3.54,1.076,23.445,23.445,0,0,1,3.616.64,11.864,11.864,0,0,1,3.2,1.491,8.967,8.967,0,0,1,3.82,5.166,7.8,7.8,0,0,1-.624,5.563,5.958,5.958,0,0,1-1.614,1.9,5.786,5.786,0,0,1-1.98.985,6.784,6.784,0,0,1-1.91.247,6.627,6.627,0,0,1-1.614-.258,4.789,4.789,0,0,1-1.937-1.076,3.134,3.134,0,0,1-.393-.42A1.193,1.193,0,0,1,911.193,5688.832Z" transform="translate(-764.381 -5540.311)" fill="#12263f"/>
      <path id="Trazado_114508" data-name="Trazado 114508" d="M858.891,5789.668s-9.965-41.4-18.832-45.9-42.925-21.323-42.925-21.323-2.082,15.749-18.611,15.83c-16.895.085-19.859-8.609-19.859-8.609s-40.251,16.309-43.969,20.532c-5.542,6.263-9.147,39.454-9.147,39.454H858.891" transform="translate(-674.878 -5580.741)" fill="#69f"/>
      <path id="Trazado_114509" data-name="Trazado 114509" d="M819.492,5794.348a19.137,19.137,0,0,0-2.265-3.5,3.173,3.173,0,0,0-.85-.8,1.229,1.229,0,0,0-1.13-.1,1.26,1.26,0,0,0-.646,1,1.614,1.614,0,0,0,.264,1.152,12.91,12.91,0,0,0,3.632,3.766,1.072,1.072,0,0,0,.657.253.769.769,0,0,0,.635-.753A2.117,2.117,0,0,0,819.492,5794.348Z" transform="translate(-725.248 -5611.88)" fill="#fff"/>
      <path id="Trazado_114510" data-name="Trazado 114510" d="M864.973,5825.045a19.419,19.419,0,0,0-2.265-3.5,3.347,3.347,0,0,0-.85-.8,1.125,1.125,0,0,0-1.776.894,1.653,1.653,0,0,0,.264,1.157,12.968,12.968,0,0,0,3.632,3.766,1.075,1.075,0,0,0,.656.253.769.769,0,0,0,.635-.754A2.154,2.154,0,0,0,864.973,5825.045Z" transform="translate(-746.258 -5626.056)" fill="#fff"/>
      <path id="Trazado_114511" data-name="Trazado 114511" d="M902.787,5832.707a19.14,19.14,0,0,0-2.26-3.5,3.276,3.276,0,0,0-.856-.8,1.216,1.216,0,0,0-1.124-.1,1.25,1.25,0,0,0-.646,1,1.612,1.612,0,0,0,.264,1.151,12.9,12.9,0,0,0,3.632,3.767,1.078,1.078,0,0,0,.651.253.763.763,0,0,0,.635-.753A2.058,2.058,0,0,0,902.787,5832.707Z" transform="translate(-763.728 -5629.6)" fill="#fff"/>
      <path id="Trazado_114512" data-name="Trazado 114512" d="M938.337,5818.527a18.814,18.814,0,0,0-2.26-3.5,3.172,3.172,0,0,0-.855-.8,1.216,1.216,0,0,0-1.125-.1,1.25,1.25,0,0,0-.646,1,1.614,1.614,0,0,0,.264,1.151,12.9,12.9,0,0,0,3.632,3.767,1.078,1.078,0,0,0,.651.253.764.764,0,0,0,.635-.753A2.06,2.06,0,0,0,938.337,5818.527Z" transform="translate(-780.151 -5623.05)" fill="#fff"/>
      <path id="Trazado_114513" data-name="Trazado 114513" d="M943.332,5776.4a19.4,19.4,0,0,0-2.265-3.5,3.288,3.288,0,0,0-.855-.8,1.248,1.248,0,0,0-1.125-.1,1.272,1.272,0,0,0-.646,1,1.615,1.615,0,0,0,.264,1.156,12.91,12.91,0,0,0,3.632,3.767,1.077,1.077,0,0,0,.656.253.769.769,0,0,0,.635-.754A2.154,2.154,0,0,0,943.332,5776.4Z" transform="translate(-782.456 -5603.591)" fill="#fff"/>
      <path id="Trazado_114514" data-name="Trazado 114514" d="M972.586,5823.207a18.888,18.888,0,0,0-2.265-3.5,3.184,3.184,0,0,0-.85-.8,1.226,1.226,0,0,0-1.13-.1,1.253,1.253,0,0,0-.64,1,1.614,1.614,0,0,0,.258,1.151,12.987,12.987,0,0,0,3.632,3.766,1.072,1.072,0,0,0,.656.253.764.764,0,0,0,.635-.754A2.061,2.061,0,0,0,972.586,5823.207Z" transform="translate(-795.972 -5625.211)" fill="#fff"/>
      <path id="Trazado_114515" data-name="Trazado 114515" d="M717.177,5830.521a19.151,19.151,0,0,0-2.26-3.5,3.285,3.285,0,0,0-.855-.807,1.234,1.234,0,0,0-1.124-.108,1.266,1.266,0,0,0-.646,1,1.613,1.613,0,0,0,.264,1.151,12.837,12.837,0,0,0,3.632,3.766,1.039,1.039,0,0,0,.651.258.768.768,0,0,0,.635-.753A2.061,2.061,0,0,0,717.177,5830.521Z" transform="translate(-677.986 -5628.588)" fill="#fff"/>
      <path id="Trazado_114516" data-name="Trazado 114516" d="M728.337,5797.736a18.84,18.84,0,0,0-2.265-3.5,3.165,3.165,0,0,0-.85-.8,1.233,1.233,0,0,0-1.125-.108,1.26,1.26,0,0,0-.646,1,1.617,1.617,0,0,0,.264,1.157,12.911,12.911,0,0,0,3.626,3.767,1.141,1.141,0,0,0,.656.258.774.774,0,0,0,.635-.753A2.045,2.045,0,0,0,728.337,5797.736Z" transform="translate(-683.141 -5613.445)" fill="#fff"/>
      <path id="Trazado_114517" data-name="Trazado 114517" d="M748.256,5834.866a18.882,18.882,0,0,0-2.265-3.5,3.162,3.162,0,0,0-.85-.8,1.239,1.239,0,0,0-1.13-.107,1.274,1.274,0,0,0-.64,1,1.616,1.616,0,0,0,.258,1.152,12.838,12.838,0,0,0,3.632,3.766,1.141,1.141,0,0,0,.656.258.778.778,0,0,0,.635-.752A2.048,2.048,0,0,0,748.256,5834.866Z" transform="translate(-692.342 -5630.597)" fill="#fff"/>
      <path id="Trazado_114518" data-name="Trazado 114518" d="M748.837,5769.825a19.341,19.341,0,0,0-2.26-3.5,3.276,3.276,0,0,0-.856-.8,1.119,1.119,0,0,0-1.77.893,1.617,1.617,0,0,0,.264,1.157,12.979,12.979,0,0,0,3.632,3.766,1.081,1.081,0,0,0,.651.252.764.764,0,0,0,.635-.753A2.076,2.076,0,0,0,748.837,5769.825Z" transform="translate(-692.61 -5600.545)" fill="#fff"/>
      <path id="Trazado_114519" data-name="Trazado 114519" d="M782.8,5836.355a18.915,18.915,0,0,0-2.265-3.5,3.18,3.18,0,0,0-.85-.8,1.234,1.234,0,0,0-1.125-.107,1.264,1.264,0,0,0-.646,1,1.613,1.613,0,0,0,.264,1.151,12.848,12.848,0,0,0,3.632,3.767,1.116,1.116,0,0,0,.651.258.775.775,0,0,0,.635-.754A2.05,2.05,0,0,0,782.8,5836.355Z" transform="translate(-708.299 -5631.286)" fill="#fff"/>
      <path id="Trazado_114520" data-name="Trazado 114520" d="M897.876,5751.319a18.909,18.909,0,0,0-2.265-3.5,3.347,3.347,0,0,0-.85-.8,1.119,1.119,0,0,0-1.77.893,1.618,1.618,0,0,0,.264,1.157,12.954,12.954,0,0,0,3.626,3.766,1.075,1.075,0,0,0,.656.254.765.765,0,0,0,.635-.754A2.046,2.046,0,0,0,897.876,5751.319Z" transform="translate(-761.46 -5591.995)" fill="#fff"/>
      <path id="Trazado_114521" data-name="Trazado 114521" d="M886.148,5803.525a18.7,18.7,0,0,0-2.26-3.5,3.237,3.237,0,0,0-.877-.807,1.25,1.25,0,0,0-1.125-.1,1.273,1.273,0,0,0-.646,1,1.615,1.615,0,0,0,.264,1.156,12.905,12.905,0,0,0,3.632,3.767,1.081,1.081,0,0,0,.651.253.758.758,0,0,0,.635-.748A2.05,2.05,0,0,0,886.148,5803.525Z" transform="translate(-756.032 -5616.119)" fill="#fff"/>
      <path id="Trazado_114522" data-name="Trazado 114522" d="M913.337,5784.156a18.887,18.887,0,0,0-2.26-3.5,3.361,3.361,0,0,0-.856-.8,1.248,1.248,0,0,0-1.125-.1,1.273,1.273,0,0,0-.646,1,1.615,1.615,0,0,0,.264,1.156,12.905,12.905,0,0,0,3.632,3.767,1.082,1.082,0,0,0,.651.253.764.764,0,0,0,.635-.753A2.044,2.044,0,0,0,913.337,5784.156Z" transform="translate(-768.602 -5607.171)" fill="#fff"/>
      <path id="Trazado_114523" data-name="Trazado 114523" d="M853.4,5788.627a18.885,18.885,0,0,0-2.265-3.5,3.238,3.238,0,0,0-.85-.8,1.23,1.23,0,0,0-1.13-.1,1.254,1.254,0,0,0-.64,1,1.577,1.577,0,0,0,.264,1.151,12.913,12.913,0,0,0,3.626,3.767,1.074,1.074,0,0,0,.656.253.764.764,0,0,0,.635-.753A2.074,2.074,0,0,0,853.4,5788.627Z" transform="translate(-740.911 -5609.238)" fill="#fff"/>
      <path id="Trazado_114524" data-name="Trazado 114524" d="M866.582,5763.626a19.159,19.159,0,0,0-2.265-3.5,3.259,3.259,0,0,0-.855-.8,1.248,1.248,0,0,0-1.125-.1,1.27,1.27,0,0,0-.646,1,1.617,1.617,0,0,0,.264,1.157,12.91,12.91,0,0,0,3.632,3.767,1.071,1.071,0,0,0,.656.252.768.768,0,0,0,.635-.742A2.1,2.1,0,0,0,866.582,5763.626Z" transform="translate(-747.001 -5597.688)" fill="#fff"/>
      <path id="Trazado_114525" data-name="Trazado 114525" d="M822.176,5762.95a18.955,18.955,0,0,0-2.265-3.5,3.344,3.344,0,0,0-.85-.8,1.119,1.119,0,0,0-1.77.893,1.614,1.614,0,0,0,.258,1.156,12.97,12.97,0,0,0,3.632,3.767,1.074,1.074,0,0,0,.656.253.764.764,0,0,0,.635-.753A2.044,2.044,0,0,0,822.176,5762.95Z" transform="translate(-726.489 -5597.367)" fill="#fff"/>
      <path id="Trazado_114526" data-name="Trazado 114526" d="M825.522,5830.888a19.314,19.314,0,0,0-2.265-3.5,3.178,3.178,0,0,0-.855-.8,1.217,1.217,0,0,0-1.125-.1,1.258,1.258,0,0,0-.646,1,1.615,1.615,0,0,0,.264,1.152,12.919,12.919,0,0,0,3.632,3.766,1.073,1.073,0,0,0,.656.252.768.768,0,0,0,.635-.752A2.153,2.153,0,0,0,825.522,5830.888Z" transform="translate(-728.033 -5628.76)" fill="#fff"/>
      <path id="Trazado_114527" data-name="Trazado 114527" d="M788.676,5806.875a19.055,19.055,0,0,0-2.265-3.5,3.327,3.327,0,0,0-.85-.8,1.119,1.119,0,0,0-1.77.893,1.615,1.615,0,0,0,.258,1.157,12.969,12.969,0,0,0,3.632,3.767,1.074,1.074,0,0,0,.656.252.768.768,0,0,0,.635-.753A2.072,2.072,0,0,0,788.676,5806.875Z" transform="translate(-711.014 -5617.661)" fill="#fff"/>
      <path id="Trazado_114528" data-name="Trazado 114528" d="M926.82,5824.426c-.075,0-.344-5.919-.6-13.188s-.4-13.193-.323-13.193.35,5.918.6,13.182S926.9,5824.42,926.82,5824.426Z" transform="translate(-776.661 -5615.665)" fill="#12263f"/>
      <path id="Trazado_114529" data-name="Trazado 114529" d="M739.845,5830.926c-.075,0-.635-4.45-1.243-9.96s-1.076-9.98-.969-9.991.635,4.45,1.243,9.959S739.926,5830.915,739.845,5830.926Z" transform="translate(-689.694 -5621.637)" fill="#12263f"/>
      <path id="Trazado_114530" data-name="Trazado 114530" d="M933.375,5763.9c.027.049-.694.371-1.727,1.076a13.936,13.936,0,0,0-4.794,5.784,14.5,14.5,0,0,0-.737,2.077c-.323,1.215-.382,2-.436,2a1.928,1.928,0,0,1,0-.538,4.848,4.848,0,0,1,.075-.646c.043-.248.075-.538.156-.845a12.43,12.43,0,0,1,.7-2.152,13.105,13.105,0,0,1,3.142-4.471,12.525,12.525,0,0,1,1.77-1.377,8.451,8.451,0,0,1,.743-.436,4.277,4.277,0,0,1,.581-.285A2.25,2.25,0,0,1,933.375,5763.9Z" transform="translate(-776.561 -5599.893)" fill="#12263f"/>
      <path id="Trazado_114531" data-name="Trazado 114531" d="M839.168,5757.319a11.84,11.84,0,0,1,0-5.794c.081,0-.081,1.3-.075,2.9S839.249,5757.309,839.168,5757.319Z" transform="translate(-736.438 -5594.174)" fill="#12263f"/>
      <path id="Trazado_114532" data-name="Trazado 114532" d="M852.918,5755.454a10.674,10.674,0,0,1-.673-2.33,10.535,10.535,0,0,1-.4-2.389,10.391,10.391,0,0,1,.673,2.33A10.529,10.529,0,0,1,852.918,5755.454Z" transform="translate(-742.462 -5593.809)" fill="#12263f"/>
      <path id="Trazado_114533" data-name="Trazado 114533" d="M867.95,5746c-.081.027-.4-.872-1-1.873s-1.211-1.716-1.151-1.775a6.216,6.216,0,0,1,2.152,3.648Z" transform="translate(-748.907 -5589.938)" fill="#12263f"/>
      <path id="Trazado_114534" data-name="Trazado 114534" d="M876.061,5737.579a24.791,24.791,0,0,0-1.4-2.5,23.647,23.647,0,0,0-1.915-2.152,7.108,7.108,0,0,1,3.314,4.633Z" transform="translate(-752.117 -5585.582)" fill="#12263f"/>
      <path id="Trazado_114535" data-name="Trazado 114535" d="M818.357,5754.416a5.5,5.5,0,0,1,.829-2.518,5.388,5.388,0,0,1,1.706-2.023c.059.06-.769.9-1.463,2.152S818.459,5754.454,818.357,5754.416Z" transform="translate(-726.991 -5593.412)" fill="#12263f"/>
      <path id="Trazado_114536" data-name="Trazado 114536" d="M804.367,5749.129a11.387,11.387,0,0,1,1.829-1.727,11.57,11.57,0,0,1,2.034-1.518,22.121,22.121,0,0,1-3.842,3.228Z" transform="translate(-720.528 -5591.569)" fill="#12263f"/>
      <path id="Trazado_114537" data-name="Trazado 114537" d="M753.78,5739.028c.339,4.122-1.991,7.979-4.616,11.18s-5.671,6.183-7.248,10.008a22.292,22.292,0,0,0-1.119,10.76c.441,4.187,1.566,8.416,4.095,11.784a8.547,8.547,0,0,0,4.934,3.519c3.035.587,6.134-1.474,7.533-4.234s1.367-6.026.845-9.071a24.93,24.93,0,0,1-.689-5.434,5.457,5.457,0,0,1,2.5-4.622c1.151-.619,2.534-.614,3.766-1,2.841-.877,4.643-3.616,5.945-6.285a46.808,46.808,0,0,0,4.627-23.507,1.637,1.637,0,0,0-2.3-1.743,96.282,96.282,0,0,0-15.437,3.228" transform="translate(-691.076 -5584.384)" fill="#12263f"/>
      <path id="Trazado_114538" data-name="Trazado 114538" d="M754.384,5673.811c4.466-4.122,2.9-5.466,2.26-6.327-.71-.953-2.965-.3-2.965-.3s.866-1.179,1.614-2.335a3.391,3.391,0,0,0-.71-4.681c-1.872-1.512-5.068,2.114-4.719,1.463s1.942-2.986.1-5.251-5.531,2.179-8.7,2.943c-2.152.538-10.761.947-17.045.538-3.928-.242-5.434-1.781-6.457-5.1l2.636-5.191c1.372-4.3-2.5-4.391-2.636-4.266l-6.252,4.233a3.146,3.146,0,0,0-1.34,2.11,29.041,29.041,0,0,0,.4,11.938l-45.885.281a13.639,13.639,0,0,0-13.559,13.634h0a11.12,11.12,0,0,0,.091,1.41c-.118,5.1,3.2,9.916,7.57,12.623,4.557,2.825,10.067,3.686,15.431,3.869a75.808,75.808,0,0,0,33.7-6.656l12.45-.119,19.467-.962a24.542,24.542,0,0,0,13.72-7.856,13.379,13.379,0,0,0,1.345-1.771C756.676,5675.108,754.384,5673.811,754.384,5673.811Z" transform="translate(-649.739 -5545.09)" fill="#e36099"/>
      <g id="Grupo_52900" data-name="Grupo 52900" transform="translate(81.783 116.538)" opacity="0.3">
        <path id="Trazado_114539" data-name="Trazado 114539" d="M818.868,5675.674a3.8,3.8,0,0,1-.538.591,8,8,0,0,1-.651.652,8.328,8.328,0,0,1-.931.79,13.174,13.174,0,0,1-1.205.856,15.558,15.558,0,0,1-1.474.844,18.51,18.51,0,0,1-3.653,1.346,22.861,22.861,0,0,1-6.995.538c-.9-.07-1.614-.156-2.12-.242a4.212,4.212,0,0,1-.753-.15,4.407,4.407,0,0,1,.786.054c.495.054,1.221.107,2.115.15a24.766,24.766,0,0,0,6.941-.624,19.373,19.373,0,0,0,3.6-1.3,16.375,16.375,0,0,0,1.464-.813,13.238,13.238,0,0,0,1.211-.812C818.087,5676.475,818.841,5675.63,818.868,5675.674Z" transform="translate(-800.547 -5675.672)"/>
      </g>
      <g id="Grupo_52901" data-name="Grupo 52901" transform="translate(81.218 121.98)" opacity="0.3">
        <path id="Trazado_114540" data-name="Trazado 114540" d="M822.09,5685.785a7.132,7.132,0,0,1-.683.673,9.578,9.578,0,0,1-.856.731,14.535,14.535,0,0,1-1.189.9l-.716.5c-.247.167-.538.323-.8.5-.538.35-1.173.662-1.819,1a30.177,30.177,0,0,1-4.434,1.738,31.661,31.661,0,0,1-4.654.984c-.726.081-1.415.172-2.066.193s-1.254.06-1.808.065-1.076,0-1.49-.038-.818-.048-1.125-.08a5.969,5.969,0,0,1-.952-.129,7.289,7.289,0,0,1,.958,0c.312,0,.683.038,1.124.038h1.48c.549,0,1.151-.033,1.8-.1s1.329-.129,2.05-.215a34.575,34.575,0,0,0,4.611-1,31.266,31.266,0,0,0,4.4-1.7c.64-.333,1.264-.629,1.813-.968.28-.167.538-.317.807-.479l.716-.473c.468-.291.856-.6,1.205-.861s.646-.5.877-.694A5.256,5.256,0,0,1,822.09,5685.785Z" transform="translate(-799.497 -5685.785)"/>
      </g>
      <g id="Grupo_52902" data-name="Grupo 52902" transform="translate(83.467 128.721)" opacity="0.3">
        <path id="Trazado_114541" data-name="Trazado 114541" d="M824.855,5698.315a5.553,5.553,0,0,1-.7.538c-.463.344-1.151.813-2.018,1.367a37.949,37.949,0,0,1-7.231,3.562,31.547,31.547,0,0,1-4.272,1.188,24.72,24.72,0,0,1-3.6.441,9.936,9.936,0,0,1-1.394,0,9.544,9.544,0,0,1-1.076-.048,5.223,5.223,0,0,1-.888-.1,4.961,4.961,0,0,1,.893,0h1.044A10.651,10.651,0,0,0,807,5705.2a26.6,26.6,0,0,0,3.557-.495,33.264,33.264,0,0,0,4.229-1.2,41.483,41.483,0,0,0,7.21-3.455c.882-.538,1.582-.968,2.061-1.286A5.722,5.722,0,0,1,824.855,5698.315Z" transform="translate(-803.677 -5698.315)"/>
      </g>
      <g id="Grupo_52903" data-name="Grupo 52903" transform="translate(2.41 113.693)" opacity="0.3">
        <path id="Trazado_114542" data-name="Trazado 114542" d="M710.63,5670.385a3.238,3.238,0,0,1,.07.317c.043.231.1.538.172.937.151.844.361,2.05.63,3.589v.081h-.086c-5.709.146-16.2.372-28.161.6l-14.247.253h0a20.886,20.886,0,0,0-7.533.6,14.067,14.067,0,0,0-5.241,2.642,12.092,12.092,0,0,0-2.518,2.873c-.248.376-.4.684-.511.882l-.129.232a.373.373,0,0,1-.048.069l.032-.081.108-.237a8.287,8.287,0,0,1,.463-.92,11.554,11.554,0,0,1,2.491-2.949,13.953,13.953,0,0,1,5.257-2.723,20.936,20.936,0,0,1,7.635-.656h0l14.248-.281c11.966-.225,22.453-.4,28.167-.462l-.07.081c-.242-1.544-.43-2.755-.538-3.6l-.135-.941A1.639,1.639,0,0,1,710.63,5670.385Z" transform="translate(-653.027 -5670.385)"/>
      </g>
      <g id="Grupo_52904" data-name="Grupo 52904" transform="translate(6.01 144.077)" opacity="0.3">
        <path id="Trazado_114543" data-name="Trazado 114543" d="M710.74,5726.854a.794.794,0,0,1-.124.065l-.361.183c-.328.146-.8.382-1.42.646-1.243.538-3.072,1.275-5.38,2.044a76.477,76.477,0,0,1-18.541,3.691,54.932,54.932,0,0,1-10.433-.215,32.191,32.191,0,0,1-8.27-2.05,19.072,19.072,0,0,1-4.972-2.884c-.258-.221-.5-.4-.689-.586l-.463-.468-.285-.3a.627.627,0,0,1-.086-.1s.038,0,.108.085l.3.27.484.452a7.716,7.716,0,0,0,.7.539,19.834,19.834,0,0,0,4.966,2.787,32.642,32.642,0,0,0,8.221,1.974,55.816,55.816,0,0,0,10.384.194,79.266,79.266,0,0,0,18.514-3.6c2.3-.743,4.138-1.442,5.38-1.954.63-.247,1.108-.468,1.437-.6l.377-.15A.465.465,0,0,1,710.74,5726.854Z" transform="translate(-659.717 -5726.854)"/>
      </g>
    </g>
    <g id="freepik--Desk--inject-195" transform="translate(646.147 5637.945)">
      <path id="Trazado_114544" data-name="Trazado 114544" d="M884.395,5846.955c0,.075-53.337.14-119.118.14s-119.129-.065-119.129-.14,53.326-.14,119.129-.14S884.395,5846.879,884.395,5846.955Z" transform="translate(-646.147 -5846.815)" fill="#12263f"/>
    </g>
  </g>
</svg>
