<svg xmlns="http://www.w3.org/2000/svg" width="272.64" height="280.834" viewBox="0 0 272.64 280.834">
  <g id="Grupo_49066" data-name="Grupo 49066" transform="translate(-808.603 -231.602)">
    <g id="freepik--background-complete--inject-18" transform="translate(808.603 231.602)">
      <path id="Trazado_98568" data-name="Trazado 98568" d="M1134.813,496.552c4.106-2.12,8.942-2.4,13.521-1.641,2.458.406,5,1.137,6.668,2.975s1.985,5.076.067,6.662a6.365,6.365,0,0,1-4.2,1.063c-3.57-.043-7.529-.67-10.38,1.482-1.629,1.229-2.709,3.257-4.652,3.86a4.55,4.55,0,0,1-5.058-2.25,7.852,7.852,0,0,1-.572-5.8A8.836,8.836,0,0,1,1134.813,496.552Z" transform="translate(-883.744 -293.093)" fill="#fcebd5"/>
      <path id="Trazado_98569" data-name="Trazado 98569" d="M1123.311,462.094c2.514,3.583,7.376,2.4,9.656.209s3.22-5.365,4.093-8.389c1.986-6.914,4-14.167,2.514-21.2a11.754,11.754,0,0,0-2.71-5.764A6.156,6.156,0,0,0,1131.03,425c-2.458.651-3.989,3.073-5.095,5.353a50.565,50.565,0,0,0-4.99,21.688c0,3.5.4,7.16,2.366,10.049" transform="translate(-881.651 -276.796)" fill="#fcebd5"/>
      <path id="Trazado_98570" data-name="Trazado 98570" d="M1106.206,470.776c2.729-3.239,3.245-7.959,2.034-12.009a23.151,23.151,0,0,0-7.116-10.319,38.26,38.26,0,0,0-12.735-7.516,13.622,13.622,0,0,0-5.728-.971,6.007,6.007,0,0,0-4.806,2.907c-1.34,2.557-.056,5.66,1.333,8.186a97.7,97.7,0,0,0,8.365,12.741c2.507,3.232,5.384,6.422,9.219,7.885s7.793,1.284,9.833-1.365" transform="translate(-871.441 -280.328)" fill="#fcebd5"/>
      <path id="Trazado_98571" data-name="Trazado 98571" d="M1123.8,534a8.175,8.175,0,0,0,.227-1.628c.11-1.187.258-2.674.43-4.45a64.2,64.2,0,0,1,1-6.521,49.771,49.771,0,0,1,2.372-7.7,28.221,28.221,0,0,1,3.927-6.963,14.762,14.762,0,0,1,4.972-4.136,14.064,14.064,0,0,1,4.185-1.3,7.4,7.4,0,0,0,1.623-.234,7.209,7.209,0,0,0-1.647,0,12.6,12.6,0,0,0-4.37,1.137,14.646,14.646,0,0,0-5.242,4.167,27.944,27.944,0,0,0-4.075,7.1,47.466,47.466,0,0,0-2.354,7.83,55.159,55.159,0,0,0-.866,6.6c-.142,1.892-.2,3.417-.221,4.48A7.111,7.111,0,0,0,1123.8,534Z" transform="translate(-882.302 -294.612)" fill="#dee7f3"/>
      <path id="Trazado_98572" data-name="Trazado 98572" d="M1124.112,517.165a3.6,3.6,0,0,0,.043-.756v-2.157c0-1.881,0-4.6.092-7.947.166-6.711.744-13.926,1.844-24.1,1.057-9.569,2.458-20.705,3.97-27.944.319-1.647.645-3.129.947-4.425s.54-2.422.78-3.331.369-1.549.5-2.1a3.177,3.177,0,0,0,.13-.743,3.3,3.3,0,0,0-.258.706l-.615,2.072c-.277.9-.559,2.016-.885,3.312s-.7,2.766-1.05,4.413a244.479,244.479,0,0,0-4.173,25.93c-1.119,10.2-1.623,19.482-1.666,26.205-.037,3.362.031,6.085.116,7.99.055.873.1,1.592.136,2.157A2.891,2.891,0,0,0,1124.112,517.165Z" transform="translate(-882.31 -281.195)" fill="#dee7f3"/>
      <path id="Trazado_98573" data-name="Trazado 98573" d="M1116.966,500.916a14.026,14.026,0,0,0,0-2.255c-.08-1.45-.283-3.553-.688-6.146a81.585,81.585,0,0,0-1.991-8.918,73.021,73.021,0,0,0-3.731-10.546A55.966,55.966,0,0,0,1099.61,456a27.633,27.633,0,0,0-2.581-2.391c-.394-.338-.744-.67-1.1-.934l-1-.689a14.57,14.57,0,0,0-1.9-1.229,66.744,66.744,0,0,1,6.238,5.562,59.214,59.214,0,0,1,10.675,16.987,84.03,84.03,0,0,1,3.749,10.448c.978,3.276,1.629,6.287,2.121,8.825s.732,4.622.9,6.06A14.077,14.077,0,0,0,1116.966,500.916Z" transform="translate(-875.121 -282.856)" fill="#dee7f3"/>
      <path id="Trazado_98574" data-name="Trazado 98574" d="M1101.676,557.47l1.794,24.583h31.583l1.795-24.583Z" transform="translate(-877.144 -307.813)" fill="#dee7f3"/>
      <rect id="Rectángulo_28361" data-name="Rectángulo 28361" width="41.995" height="9.692" transform="translate(221.484 239.965)" fill="#dee7f3"/>
      <path id="Trazado_98575" data-name="Trazado 98575" d="M1097.7,588.33v2.686H1139V588.33Z" transform="translate(-876.214 -315.031)" fill="#fcebd5"/>
      <path id="Trazado_98576" data-name="Trazado 98576" d="M1102.208,596.562l-1.936-4.726h37.821l-2.255,4.726Z" transform="translate(-876.816 -315.851)" fill="#dee7f3"/>
      <path id="Trazado_98577" data-name="Trazado 98577" d="M1136.434,566.9a1.194,1.194,0,0,1-.148.228l-.473.614-1.844,2.353-.08.1-.08-.111c-1.161-1.6-2.7-3.736-4.523-6.25h.258c-1.34,1.905-2.839,4.025-4.45,6.3l-.135.2-.16-.185-5.28-6.281h.307l-.289.362-4.719,5.918-.16.2-.141-.209-4.431-6.287h.258l-5.483,6.25-.1.111-.074-.123-1.714-2.888-.442-.769a1.222,1.222,0,0,1-.136-.27,1.714,1.714,0,0,1,.185.24l.486.744,1.807,2.827h-.172l5.384-6.324.135-.159.123.172,4.492,6.275h-.3l4.707-5.925.289-.362.148-.191.16.185,5.26,6.294h-.295l4.493-6.269.136-.185.129.185,4.419,6.318h-.16l1.918-2.292.51-.615A1.041,1.041,0,0,1,1136.434,566.9Z" transform="translate(-877.313 -309.215)" fill="#f5f5f5"/>
      <path id="Trazado_98578" data-name="Trazado 98578" d="M1137.372,557.193c0,.111-7.916.2-17.675.2s-17.675-.086-17.675-.2,7.916-.2,17.675-.2S1137.372,557.089,1137.372,557.193Z" transform="translate(-877.225 -307.703)" fill="#f5f5f5"/>
      <path id="Trazado_98579" data-name="Trazado 98579" d="M1138.521,592.121c0,.11-8.6.2-19.212.2s-19.206-.087-19.206-.2,8.6-.2,19.206-.2S1138.521,592.011,1138.521,592.121Z" transform="translate(-876.776 -315.871)" fill="#f5f5f5"/>
      <rect id="Rectángulo_28362" data-name="Rectángulo 28362" width="76.589" height="79.834" transform="translate(194.19 23.668)" fill="#dee7f3"/>
      <rect id="Rectángulo_28363" data-name="Rectángulo 28363" width="76.589" height="79.834" transform="translate(189.003 23.668)" fill="#fafafa"/>
      <path id="Trazado_98580" data-name="Trazado 98580" d="M1131.91,342.343h-76.633v-79.9h76.633Zm-76.59-.049h76.541V262.508H1055.32Z" transform="translate(-866.293 -238.816)" fill="#dee7f3"/>
      <rect id="Rectángulo_28364" data-name="Rectángulo 28364" width="55.995" height="58.373" transform="translate(199.303 34.399)" fill="#fafafa"/>
      <path id="Trazado_98581" data-name="Trazado 98581" d="M1065.619,353.2a9.2,9.2,0,0,1-1.383,1.6c-.9.946-2.151,2.225-3.558,3.614s-2.7,2.624-3.688,3.5a8.856,8.856,0,0,1-1.616,1.352,8.842,8.842,0,0,1,1.376-1.6c.892-.94,2.151-2.218,3.565-3.613s2.71-2.631,3.687-3.51A8.723,8.723,0,0,1,1065.619,353.2Z" transform="translate(-866.315 -260.04)" fill="#dee7f3"/>
      <path id="Trazado_98582" data-name="Trazado 98582" d="M1141.834,353.015a8.845,8.845,0,0,1,1.6,1.383c.946.891,2.225,2.151,3.614,3.558s2.624,2.7,3.5,3.688a8.855,8.855,0,0,1,1.352,1.616,8.89,8.89,0,0,1-1.6-1.371c-.94-.9-2.219-2.157-3.614-3.57s-2.63-2.711-3.509-3.687A8.8,8.8,0,0,1,1141.834,353.015Z" transform="translate(-886.536 -259.997)" fill="#dee7f3"/>
      <path id="Trazado_98583" data-name="Trazado 98583" d="M1141.634,273.636a9.389,9.389,0,0,1,1.382-1.6c.892-.946,2.151-2.219,3.559-3.608s2.7-2.624,3.657-3.5a8.8,8.8,0,0,1,1.6-1.328,8.669,8.669,0,0,1-1.377,1.6c-.891.946-2.151,2.225-3.565,3.614s-2.71,2.63-3.687,3.509A8.463,8.463,0,0,1,1141.634,273.636Z" transform="translate(-886.489 -239.084)" fill="#dee7f3"/>
      <path id="Trazado_98584" data-name="Trazado 98584" d="M1065.473,273.784a9.368,9.368,0,0,1-1.611-1.383c-.94-.9-2.219-2.151-3.608-3.559s-2.624-2.7-3.5-3.687a9.017,9.017,0,0,1-1.345-1.561,8.663,8.663,0,0,1,1.6,1.377c.947.891,2.225,2.151,3.62,3.565s2.631,2.71,3.5,3.687A9.032,9.032,0,0,1,1065.473,273.784Z" transform="translate(-866.323 -239.084)" fill="#dee7f3"/>
      <path id="Trazado_98585" data-name="Trazado 98585" d="M1124.53,334.76a2.427,2.427,0,0,1,0-.283v-3.97c0-2.76-.031-6.76-.056-11.893,0-10.226-.067-24.786-.11-42.228l.215.215h-55.836l.246-.246c0,21.425,0,41.466-.037,58.386l-.209-.215,40.434.11,11.357.056h4.051a1.86,1.86,0,0,1-.246,0h-3.718l-11.309.055-40.563.11h-.214v-.215c0-16.907,0-36.949-.037-58.385v-.246h56.308v.215c-.044,17.5-.08,32.105-.111,42.363,0,5.089-.043,9.1-.055,11.849v3.9A1.962,1.962,0,0,1,1124.53,334.76Z" transform="translate(-869.385 -241.988)" fill="#dee7f3"/>
      <rect id="Rectángulo_28365" data-name="Rectángulo 28365" width="18.683" height="18.683" transform="translate(217.956 54.244)" fill="#fcebd5"/>
      <rect id="Rectángulo_28366" data-name="Rectángulo 28366" width="144.335" height="4.573" transform="translate(0 94.29)" fill="#dee7f3"/>
      <rect id="Rectángulo_28367" data-name="Rectángulo 28367" width="7.307" height="14.473" transform="translate(24.374 96.576)" fill="#dee7f3"/>
      <rect id="Rectángulo_28368" data-name="Rectángulo 28368" width="7.307" height="16.76" transform="translate(111.031 94.29)" fill="#dee7f3"/>
      <path id="Trazado_98586" data-name="Trazado 98586" d="M836.094,314.6l4.726,31.055h27.453l6.373-30.606Z" transform="translate(-815.032 -251.012)" fill="#fcebd5"/>
      <path id="Trazado_98587" data-name="Trazado 98587" d="M871.809,340.556c0,.092-7.037.159-15.709.159s-15.716-.067-15.716-.159,7.038-.16,15.716-.16S871.809,340.445,871.809,340.556Z" transform="translate(-816.036 -257.046)" fill="#fafafa"/>
      <path id="Trazado_98588" data-name="Trazado 98588" d="M871.882,338.534c0,.087-7.08.16-15.813.16s-15.82-.074-15.82-.16,7.08-.159,15.82-.159S871.882,338.442,871.882,338.534Z" transform="translate(-816.004 -256.573)" fill="#fafafa"/>
      <path id="Trazado_98589" data-name="Trazado 98589" d="M871.816,336.28c0,.092-7.086.16-15.82.16s-15.819-.068-15.819-.16,7.08-.159,15.819-.159S871.816,336.195,871.816,336.28Z" transform="translate(-815.987 -256.046)" fill="#fafafa"/>
      <path id="Trazado_98590" data-name="Trazado 98590" d="M845.967,350.411a25.5,25.5,0,0,1-.824-3.909,25.216,25.216,0,0,1-.522-3.964,25.69,25.69,0,0,1,.842,3.909A25.369,25.369,0,0,1,845.967,350.411Z" transform="translate(-817.026 -257.547)" fill="#fafafa"/>
      <path id="Trazado_98591" data-name="Trazado 98591" d="M848.657,350.055a29.625,29.625,0,0,1-.339-3.817,32.259,32.259,0,0,1-.184-3.828,17.784,17.784,0,0,1,.5,3.8A18.337,18.337,0,0,1,848.657,350.055Z" transform="translate(-817.847 -257.517)" fill="#fafafa"/>
      <path id="Trazado_98592" data-name="Trazado 98592" d="M852.972,349.976a18.872,18.872,0,0,1-.713-3.909,19.122,19.122,0,0,1-.209-3.97,36.147,36.147,0,0,1,.529,3.933A35.69,35.69,0,0,1,852.972,349.976Z" transform="translate(-818.758 -257.444)" fill="#fafafa"/>
      <path id="Trazado_98593" data-name="Trazado 98593" d="M856.249,350.206a19.308,19.308,0,0,1-.381-3.976,18.934,18.934,0,0,1,.123-3.989,117.156,117.156,0,0,1,.258,7.965Z" transform="translate(-819.644 -257.477)" fill="#fafafa"/>
      <path id="Trazado_98594" data-name="Trazado 98594" d="M861.787,350.081a21.684,21.684,0,0,1-.289-3.773,22.485,22.485,0,0,1,0-3.786,21.627,21.627,0,0,1,.289,3.774A22.451,22.451,0,0,1,861.787,350.081Z" transform="translate(-820.955 -257.543)" fill="#fafafa"/>
      <path id="Trazado_98595" data-name="Trazado 98595" d="M865.885,350.257a23.638,23.638,0,0,1-.135-3.9,23.1,23.1,0,0,1,.2-3.9,24.056,24.056,0,0,1,.129,3.9A24.365,24.365,0,0,1,865.885,350.257Z" transform="translate(-821.961 -257.528)" fill="#fafafa"/>
      <path id="Trazado_98596" data-name="Trazado 98596" d="M869.712,349.58a25.664,25.664,0,0,1,.234-4.08,25.961,25.961,0,0,1,.552-4.044,24.986,24.986,0,0,1-.233,4.075A26.323,26.323,0,0,1,869.712,349.58Z" transform="translate(-822.893 -257.294)" fill="#fafafa"/>
      <path id="Trazado_98597" data-name="Trazado 98597" d="M874.591,349.45a13.5,13.5,0,0,1,.461-3.473,13.664,13.664,0,0,1,1.02-3.343,32.032,32.032,0,0,1-.706,3.418A33.3,33.3,0,0,1,874.591,349.45Z" transform="translate(-824.035 -257.569)" fill="#fafafa"/>
      <path id="Trazado_98598" data-name="Trazado 98598" d="M868.939,234.619a.565.565,0,0,1,0,.153c-.037.117-.074.258-.129.437l-.523,1.678c-.234.726-.516,1.617-.805,2.655s-.663,2.219-.989,3.54-.725,2.76-1.069,4.3-.732,3.288-1.088,5.027c-.657,3.54-1.26,7.48-1.666,11.585s-.615,8.094-.615,11.677c0,1.8,0,3.51.049,5.114s.111,3.073.191,4.45.191,2.587.271,3.687.178,2.01.264,2.766.141,1.321.184,1.745a1.624,1.624,0,0,0,.037.454c.037.123,0,.16,0,.16a.626.626,0,0,1-.037-.153,3.194,3.194,0,0,0-.074-.449c-.055-.424-.135-1.008-.24-1.745s-.221-1.678-.32-2.76-.246-2.3-.319-3.687-.191-2.852-.234-4.456-.067-3.319-.08-5.12c.037-3.613.215-7.578.615-11.726s1.033-8.07,1.708-11.61c.369-1.77.7-3.454,1.094-5.009s.744-3,1.106-4.3.726-2.5,1.039-3.534.615-1.924.86-2.642l.578-1.659c.067-.172.116-.313.159-.431S868.939,234.619,868.939,234.619Z" transform="translate(-821.032 -232.308)" fill="#fcebd5"/>
      <path id="Trazado_98599" data-name="Trazado 98599" d="M864.527,257.9a10.239,10.239,0,0,1,4.3-5.4,2.438,2.438,0,0,1,2.255-.411c.959.46,1.033,1.843.75,2.833a7.487,7.487,0,0,1-3.11,4.234,6.329,6.329,0,0,1-4.659,1.18" transform="translate(-821.574 -236.361)" fill="#fcebd5"/>
      <path id="Trazado_98600" data-name="Trazado 98600" d="M862.413,273.971c.706-2.68,2.845-6.49,5.064-8.149a3.428,3.428,0,0,1,1.155-.614,1.334,1.334,0,0,1,1.23.27,1.844,1.844,0,0,1,.277,1.776,10.805,10.805,0,0,1-7.99,8.063" transform="translate(-821.126 -239.45)" fill="#fcebd5"/>
      <path id="Trazado_98601" data-name="Trazado 98601" d="M861.892,289.431A15.668,15.668,0,0,1,867.006,283a2.419,2.419,0,0,1,1.782-.614c.971.178,1.414,1.364,1.328,2.341-.178,2.022-1.721,3.645-3.319,4.916a20.316,20.316,0,0,1-4.726,2.458" transform="translate(-821.065 -243.478)" fill="#fcebd5"/>
      <path id="Trazado_98602" data-name="Trazado 98602" d="M862.229,300.6a15.136,15.136,0,0,1,4.352-4.954,3.123,3.123,0,0,1,1.3-.614,1.334,1.334,0,0,1,1.285.486c.431.614,0,1.505-.449,2.126a12.4,12.4,0,0,1-6.207,4.548" transform="translate(-821.144 -246.432)" fill="#fcebd5"/>
      <path id="Trazado_98603" data-name="Trazado 98603" d="M859.5,295.87a48.077,48.077,0,0,0-6.219-6.337,1.4,1.4,0,0,0-1.229-.473.934.934,0,0,0-.572.836,2.447,2.447,0,0,0,.24,1.038,12.051,12.051,0,0,0,7.989,6.761" transform="translate(-818.63 -245.038)" fill="#fcebd5"/>
      <path id="Trazado_98604" data-name="Trazado 98604" d="M859.365,281.608l-4.886-5.955a5.786,5.786,0,0,0-1.586-1.506,1.77,1.77,0,0,0-2.753,1.942,5.26,5.26,0,0,0,.953,1.954,14.528,14.528,0,0,0,3.564,3.786,5.972,5.972,0,0,0,4.462,1.377" transform="translate(-818.298 -241.469)" fill="#fcebd5"/>
      <path id="Trazado_98605" data-name="Trazado 98605" d="M860.472,265.792a17.085,17.085,0,0,0-4.917-7.375,2.861,2.861,0,0,0-1.285-.744,2.132,2.132,0,0,0-2.237,1.574,4.034,4.034,0,0,0,.443,3.232,8.568,8.568,0,0,0,2.3,2.458,19.7,19.7,0,0,0,5.433,2.937" transform="translate(-818.723 -237.693)" fill="#fcebd5"/>
      <path id="Trazado_98606" data-name="Trazado 98606" d="M863.4,251.146c-.473-3.454-2.275-6.324-4.358-9.121-.437-.614-1.051-1.229-1.776-1.106a1.427,1.427,0,0,0-1.021.879,3.269,3.269,0,0,0-.2,1.377,10.682,10.682,0,0,0,6.927,9.532" transform="translate(-819.697 -233.777)" fill="#fcebd5"/>
      <path id="Trazado_98607" data-name="Trazado 98607" d="M867.357,243.488a28.223,28.223,0,0,1-.178-5.335,9.582,9.582,0,0,1,1.77-4.978,4.154,4.154,0,0,1,1.776-1.414,2.238,2.238,0,0,1,2.176.289,2.373,2.373,0,0,1,.75,1.936,6.173,6.173,0,0,1-.553,2.046c-1.3,3.129-3.472,6.6-5.741,7.474" transform="translate(-822.289 -231.602)" fill="#fcebd5"/>
      <path id="Trazado_98608" data-name="Trazado 98608" d="M839.606,252.492a1.886,1.886,0,0,1,0,.436v3.215c0,.755,0,1.647.093,2.618.086,1.942.276,4.253.572,6.8s.749,5.348,1.352,8.248,1.339,5.636,2.077,8.1,1.512,4.646,2.213,6.459c.332.909.676,1.721.965,2.458s.547,1.327.768,1.843l.492,1.155a2.532,2.532,0,0,1,.153.412,2.2,2.2,0,0,1-.215-.388c-.136-.289-.319-.663-.541-1.131s-.523-1.094-.824-1.807-.664-1.518-1.014-2.458c-.731-1.807-1.512-3.995-2.286-6.453s-1.413-5.187-2.028-8.1-1.033-5.715-1.334-8.278-.443-4.88-.5-6.828c-.049-.977-.037-1.843-.043-2.63s0-1.438,0-1.985a9.562,9.562,0,0,1,.043-1.23A4.059,4.059,0,0,1,839.606,252.492Z" transform="translate(-815.828 -236.488)" fill="#dee7f3"/>
      <path id="Trazado_98609" data-name="Trazado 98609" d="M840.642,269.338a7.276,7.276,0,0,1,1.727-4.591,1.767,1.767,0,0,1,1.451-.768c.749.111,1.093,1.008,1.119,1.77a5.371,5.371,0,0,1-1.23,3.553,4.53,4.53,0,0,1-2.919,1.8" transform="translate(-816.096 -239.174)" fill="#dee7f3"/>
      <path id="Trazado_98610" data-name="Trazado 98610" d="M842.805,280.7a12.3,12.3,0,0,1,1.7-6.638,2.316,2.316,0,0,1,.651-.663.96.96,0,0,1,.9-.086,1.366,1.366,0,0,1,.571,1.143,7.709,7.709,0,0,1-3.687,7.209" transform="translate(-816.6 -241.339)" fill="#dee7f3"/>
      <path id="Trazado_98611" data-name="Trazado 98611" d="M845.608,291.35a11.225,11.225,0,0,1,2.1-5.482,1.763,1.763,0,0,1,1.082-.817c.695-.086,1.229.614,1.407,1.309a5.346,5.346,0,0,1-1.229,4.051,14.786,14.786,0,0,1-2.7,2.674" transform="translate(-817.257 -244.101)" fill="#dee7f3"/>
      <path id="Trazado_98612" data-name="Trazado 98612" d="M848.151,298.94a10.749,10.749,0,0,1,1.892-4.3,2.31,2.31,0,0,1,.762-.683.96.96,0,0,1,.978.055c.436.345.338,1.02.153,1.543a8.859,8.859,0,0,1-3.245,4.437" transform="translate(-817.852 -246.16)" fill="#dee7f3"/>
      <path id="Trazado_98613" data-name="Trazado 98613" d="M844.944,296.632a34.914,34.914,0,0,0-5.617-2.975,1.025,1.025,0,0,0-.947-.049.653.653,0,0,0-.209.689,1.666,1.666,0,0,0,.388.657,8.6,8.6,0,0,0,6.914,2.864" transform="translate(-815.511 -246.082)" fill="#dee7f3"/>
      <path id="Trazado_98614" data-name="Trazado 98614" d="M841.854,286.89l-4.61-3.006a4.183,4.183,0,0,0-1.4-.682,1.452,1.452,0,0,0-1.426.43,1.421,1.421,0,0,0,0,1.488,3.744,3.744,0,0,0,1.07,1.125,10.447,10.447,0,0,0,3.239,1.843,4.385,4.385,0,0,0,3.337,0" transform="translate(-814.591 -243.66)" fill="#dee7f3"/>
      <path id="Trazado_98615" data-name="Trazado 98615" d="M839.234,275.859a12.155,12.155,0,0,0-4.916-3.97,2.12,2.12,0,0,0-1.033-.234,1.542,1.542,0,0,0-1.186,1.555,2.857,2.857,0,0,0,.977,2.1,6.145,6.145,0,0,0,2.09,1.161,14.077,14.077,0,0,0,4.3.824" transform="translate(-814.097 -240.969)" fill="#dee7f3"/>
      <path id="Trazado_98616" data-name="Trazado 98616" d="M838.031,265.313a14.287,14.287,0,0,0-4.917-5.273,1.524,1.524,0,0,0-1.45-.369,1.01,1.01,0,0,0-.5.817,2.373,2.373,0,0,0,.166.984,7.614,7.614,0,0,0,6.76,5" transform="translate(-813.877 -238.154)" fill="#dee7f3"/>
      <path id="Trazado_98617" data-name="Trazado 98617" d="M839.358,259.028a20.121,20.121,0,0,1-1.273-3.6,6.819,6.819,0,0,1,.136-3.767,2.993,2.993,0,0,1,.9-1.346,1.61,1.61,0,0,1,1.549-.27,1.677,1.677,0,0,1,.915,1.137,4.288,4.288,0,0,1,.067,1.512c-.209,2.415-.946,5.242-2.3,6.324" transform="translate(-815.45 -235.895)" fill="#dee7f3"/>
      <path id="Trazado_98618" data-name="Trazado 98618" d="M882.268,252.1a1.977,1.977,0,0,1,.037.436,11.674,11.674,0,0,0,.05,1.23,15.169,15.169,0,0,1,0,1.985c-.037.755,0,1.653-.05,2.63-.055,1.948-.221,4.265-.5,6.828s-.725,5.366-1.328,8.279-1.358,5.654-2.108,8.119-1.554,4.647-2.286,6.453c-.344.909-.713,1.715-1.014,2.459s-.584,1.315-.818,1.807-.412.842-.547,1.131a3.427,3.427,0,0,1-.209.388,2.121,2.121,0,0,1,.148-.412c.129-.295.289-.682.491-1.155s.486-1.106.768-1.843.614-1.531.964-2.459c.707-1.844,1.463-4.008,2.219-6.459s1.469-5.169,2.084-8.07,1.039-5.7,1.352-8.248.485-4.861.572-6.8c.061-.971.068-1.843.092-2.618s0-1.438,0-1.985v-1.23A2.243,2.243,0,0,1,882.268,252.1Z" transform="translate(-823.778 -236.396)" fill="#fcebd5"/>
      <path id="Trazado_98619" data-name="Trazado 98619" d="M882.631,268.947a7.246,7.246,0,0,0-1.746-4.591,1.743,1.743,0,0,0-1.432-.762c-.755.111-1.094,1.008-1.125,1.77a5.372,5.372,0,0,0,1.23,3.553,4.524,4.524,0,0,0,2.925,1.8" transform="translate(-824.909 -239.084)" fill="#fcebd5"/>
      <path id="Trazado_98620" data-name="Trazado 98620" d="M880.608,280.3a12.241,12.241,0,0,0-1.7-6.638,2.242,2.242,0,0,0-.652-.663.951.951,0,0,0-.9-.086,1.344,1.344,0,0,0-.566,1.155,7.71,7.71,0,0,0,3.687,7.209" transform="translate(-824.546 -241.247)" fill="#fcebd5"/>
      <path id="Trazado_98621" data-name="Trazado 98621" d="M877.574,290.949a11.225,11.225,0,0,0-2.1-5.482,1.762,1.762,0,0,0-1.082-.817c-.695-.087-1.23.614-1.4,1.308a5.322,5.322,0,0,0,1.229,4.051,14.735,14.735,0,0,0,2.7,2.673" transform="translate(-823.644 -244.007)" fill="#fcebd5"/>
      <path id="Trazado_98622" data-name="Trazado 98622" d="M875.239,298.547a10.757,10.757,0,0,0-1.9-4.3,2.188,2.188,0,0,0-.761-.683.961.961,0,0,0-.978.055c-.43.345-.338,1.02-.153,1.543a8.856,8.856,0,0,0,3.245,4.437" transform="translate(-823.264 -246.068)" fill="#fcebd5"/>
      <path id="Trazado_98623" data-name="Trazado 98623" d="M877.4,296.231a35.171,35.171,0,0,1,5.6-3,1.021,1.021,0,0,1,.947-.049.652.652,0,0,1,.208.689,1.655,1.655,0,0,1-.387.657,8.6,8.6,0,0,1-6.9,2.864" transform="translate(-824.568 -245.982)" fill="#fcebd5"/>
      <path id="Trazado_98624" data-name="Trazado 98624" d="M880.346,286.521l4.609-3.005a4.247,4.247,0,0,1,1.4-.682,1.443,1.443,0,0,1,1.426.43,1.421,1.421,0,0,1,.031,1.488,3.744,3.744,0,0,1-1.069,1.125,10.4,10.4,0,0,1-3.239,1.843,4.369,4.369,0,0,1-3.331,0" transform="translate(-825.341 -243.573)" fill="#fcebd5"/>
      <path id="Trazado_98625" data-name="Trazado 98625" d="M883.1,275.466a12.2,12.2,0,0,1,4.916-3.97,2.143,2.143,0,0,1,1.039-.234,1.543,1.543,0,0,1,1.186,1.555,2.88,2.88,0,0,1-1,2.108,6.18,6.18,0,0,1-2.083,1.161,14.076,14.076,0,0,1-4.3.824" transform="translate(-825.968 -240.877)" fill="#fcebd5"/>
      <path id="Trazado_98626" data-name="Trazado 98626" d="M884.443,264.92a14.274,14.274,0,0,1,4.917-5.273,1.511,1.511,0,0,1,1.444-.369,1.035,1.035,0,0,1,.516.836,2.465,2.465,0,0,1-.166.984,7.622,7.622,0,0,1-6.76,5" transform="translate(-826.328 -238.062)" fill="#fcebd5"/>
      <path id="Trazado_98627" data-name="Trazado 98627" d="M884.066,258.636a20.179,20.179,0,0,0,1.272-3.6,6.811,6.811,0,0,0-.135-3.767,2.994,2.994,0,0,0-.9-1.346,1.6,1.6,0,0,0-1.543-.27,1.691,1.691,0,0,0-.922,1.143,4.29,4.29,0,0,0-.068,1.512c.214,2.415.946,5.242,2.3,6.324" transform="translate(-825.705 -235.803)" fill="#fcebd5"/>
      <path id="Trazado_98628" data-name="Trazado 98628" d="M831.986,306.57v5.789a2.287,2.287,0,0,0,2.287,2.287h39.751a2.287,2.287,0,0,0,2.286-2.287h0v-5.807Z" transform="translate(-814.071 -249.131)" fill="#fcebd5"/>
      <path id="Trazado_98629" data-name="Trazado 98629" d="M836.479,317.141l.332,1.85L873.5,321.6l.928-4.462Z" transform="translate(-815.122 -251.607)" fill="#dee7f3"/>
      <path id="Trazado_98630" data-name="Trazado 98630" d="M912.321,301.062s-6.595,5.015-.277,11.677a.553.553,0,0,0,.418.172l57.575-.332s4.916-5.531.836-11.867Z" transform="translate(-832.154 -247.765)" fill="#fcebd5"/>
      <path id="Trazado_98631" data-name="Trazado 98631" d="M962.2,307.968c0,.067-7.166.116-15.979.116s-16.01-.049-16.01-.116,7.166-.117,16.01-.117S962.2,307.906,962.2,307.968Z" transform="translate(-837.042 -249.435)" fill="#dee7f3"/>
      <path id="Trazado_98632" data-name="Trazado 98632" d="M955.677,310.687c0,.067-3.368.116-7.528.116s-7.529-.049-7.529-.116,3.374-.116,7.529-.116S955.677,310.626,955.677,310.687Z" transform="translate(-839.478 -250.071)" fill="#dee7f3"/>
      <path id="Trazado_98633" data-name="Trazado 98633" d="M979.611,312.314c-.037,0,.129-.663.308-1.727a23.883,23.883,0,0,0-.08-8.4c-.2-1.063-.375-1.715-.338-1.721a1.969,1.969,0,0,1,.166.443c.1.289.208.713.332,1.229a20.318,20.318,0,0,1,.08,8.463,11.709,11.709,0,0,1-.307,1.23A1.659,1.659,0,0,1,979.611,312.314Z" transform="translate(-848.57 -247.709)" fill="#dee7f3"/>
      <path id="Trazado_98634" data-name="Trazado 98634" d="M985.253,300.583a1.867,1.867,0,0,1,.258.418,5.171,5.171,0,0,1,.258.516c.086.2.2.436.289.7a12.129,12.129,0,0,1,.553,1.911,14.64,14.64,0,0,1,.245,2.458,13.585,13.585,0,0,1-.208,2.421,12.425,12.425,0,0,1-.516,1.924c-.086.27-.2.5-.283.707s-.172.381-.246.522a2.023,2.023,0,0,1-.252.418c-.043,0,.283-.614.615-1.7a13.375,13.375,0,0,0,.467-1.905,15.151,15.151,0,0,0,.184-2.384,14.293,14.293,0,0,0-.228-2.385,13.223,13.223,0,0,0-.492-1.9C985.548,301.217,985.216,300.6,985.253,300.583Z" transform="translate(-849.916 -247.735)" fill="#dee7f3"/>
      <path id="Trazado_98635" data-name="Trazado 98635" d="M924.6,312.576a1.728,1.728,0,0,1-.27-.382,5.314,5.314,0,0,1-.271-.48c-.092-.2-.208-.411-.307-.663a10.2,10.2,0,0,1-.559-1.843,11.432,11.432,0,0,1-.221-2.318,11.129,11.129,0,0,1,.283-2.311,10.091,10.091,0,0,1,.615-1.8c.1-.252.227-.467.326-.658a4.665,4.665,0,0,1,.283-.473,1.661,1.661,0,0,1,.276-.375c.043,0-.326.578-.732,1.567a11.871,11.871,0,0,0-.553,1.782,12.274,12.274,0,0,0-.258,2.268,12.5,12.5,0,0,0,.2,2.274,11.5,11.5,0,0,0,.5,1.8C924.311,311.985,924.636,312.557,924.6,312.576Z" transform="translate(-835.35 -247.896)" fill="#dee7f3"/>
      <path id="Trazado_98636" data-name="Trazado 98636" d="M916.391,313.961a2.548,2.548,0,0,1-.295-.437,5.6,5.6,0,0,1-.3-.541,7.484,7.484,0,0,1-.344-.744,12.378,12.378,0,0,1-.664-2.034,13.944,13.944,0,0,1-.319-2.593,13.44,13.44,0,0,1,.209-2.612,11.49,11.49,0,0,1,.565-2.059c.1-.289.221-.535.313-.755a5.079,5.079,0,0,1,.277-.553,2.528,2.528,0,0,1,.277-.455c.043,0-.326.682-.713,1.844a13.156,13.156,0,0,0-.509,2.04,15.173,15.173,0,0,0-.191,2.569,16.03,16.03,0,0,0,.3,2.557,14.237,14.237,0,0,0,.614,2.016C916.035,313.3,916.434,313.935,916.391,313.961Z" transform="translate(-833.361 -247.874)" fill="#dee7f3"/>
      <path id="Trazado_98637" data-name="Trazado 98637" d="M979.307,339.057v11.019h-21.32V339.057Z" transform="translate(-843.539 -256.733)" fill="#fcebd5"/>
      <path id="Trazado_98638" data-name="Trazado 98638" d="M895.943,344.3v.289a6.313,6.313,0,0,0,6.343,5.912h63.505V349.7H950.715a5.531,5.531,0,0,1-5.531-5.531h0a5.532,5.532,0,0,1,5.531-5.531h15.076v-1.174l-63.511.215a6.349,6.349,0,0,0-6.342,6.356C895.938,344.125,895.94,344.211,895.943,344.3Z" transform="translate(-829.028 -256.361)" fill="#dee7f3"/>
      <path id="Trazado_98639" data-name="Trazado 98639" d="M979.838,346.4c0,.067-4.382.116-9.791.116s-9.79-.049-9.79-.116,4.382-.117,9.79-.117S979.838,346.34,979.838,346.4Z" transform="translate(-844.07 -258.423)" fill="#dee7f3"/>
      <path id="Trazado_98640" data-name="Trazado 98640" d="M979.758,349.642c0,.067-4.149.116-9.262.116s-9.268-.049-9.268-.116,4.148-.117,9.268-.117S979.758,349.58,979.758,349.642Z" transform="translate(-844.297 -259.181)" fill="#dee7f3"/>
      <path id="Trazado_98641" data-name="Trazado 98641" d="M980.731,352.6c0,.067-3.73.116-8.327.116s-8.328-.049-8.328-.116,3.724-.111,8.328-.111S980.731,352.542,980.731,352.6Z" transform="translate(-844.964 -259.875)" fill="#dee7f3"/>
      <path id="Trazado_98642" data-name="Trazado 98642" d="M979.96,343.489c0,.067-4.3.116-9.587.116s-9.594-.049-9.594-.116,4.3-.117,9.594-.117S979.96,343.428,979.96,343.489Z" transform="translate(-844.192 -257.742)" fill="#dee7f3"/>
      <path id="Trazado_98643" data-name="Trazado 98643" d="M980.2,340.569c0,.067-3.822.116-8.536.116s-8.537-.049-8.537-.116,3.823-.117,8.537-.117S980.2,340.514,980.2,340.569Z" transform="translate(-844.742 -257.059)" fill="#dee7f3"/>
      <path id="Trazado_98644" data-name="Trazado 98644" d="M905.054,338.046a15.207,15.207,0,0,0-1.346,1.6,8.161,8.161,0,0,0,.11,9.446,13.825,13.825,0,0,0,1.389,1.568,1.975,1.975,0,0,1-.46-.338,6.845,6.845,0,0,1-1.057-1.137,7.99,7.99,0,0,1-.117-9.631A7.249,7.249,0,0,1,904.6,338.4,2.543,2.543,0,0,1,905.054,338.046Z" transform="translate(-830.449 -256.496)" fill="#f5f5f5"/>
      <path id="Trazado_98645" data-name="Trazado 98645" d="M902.264,337.741a14.387,14.387,0,0,0-1.321,1.58,8.147,8.147,0,0,0,.11,9.439,13.98,13.98,0,0,0,1.383,1.574,2.006,2.006,0,0,1-.455-.338,7.15,7.15,0,0,1-1.063-1.137,8.033,8.033,0,0,1-.11-9.631,6.948,6.948,0,0,1,1.033-1.161A2.225,2.225,0,0,1,902.264,337.741Z" transform="translate(-829.804 -256.425)" fill="#f5f5f5"/>
      <path id="Trazado_98646" data-name="Trazado 98646" d="M958.57,338.046a14.862,14.862,0,0,0-1.352,1.6,8.186,8.186,0,0,0,.111,9.446,14.5,14.5,0,0,0,1.389,1.568,2.12,2.12,0,0,1-.461-.338,7.174,7.174,0,0,1-1.057-1.137,8.046,8.046,0,0,1-.116-9.631,7.232,7.232,0,0,1,1.039-1.161A2.093,2.093,0,0,1,958.57,338.046Z" transform="translate(-842.967 -256.496)" fill="#f5f5f5"/>
      <path id="Trazado_98647" data-name="Trazado 98647" d="M955.761,337.741a15.284,15.284,0,0,0-1.346,1.6,8.149,8.149,0,0,0,.11,9.439,13.589,13.589,0,0,0,1.389,1.6,1.941,1.941,0,0,1-.46-.338,7.117,7.117,0,0,1-1.057-1.137,7.99,7.99,0,0,1-.117-9.631,7.028,7.028,0,0,1,1.033-1.161A2.241,2.241,0,0,1,955.761,337.741Z" transform="translate(-842.308 -256.425)" fill="#f5f5f5"/>
      <path id="Trazado_98648" data-name="Trazado 98648" d="M914.388,346.442q0-2.243-.062-4.48a3.143,3.143,0,0,0-.153-1.155,1.1,1.1,0,0,0-.854-.719c-.559-.245-1.432.221-1.844.867a4.228,4.228,0,0,0-.442,2.193,32.342,32.342,0,0,0,.172,3.54,4.165,4.165,0,0,0,.418,1.623,1.351,1.351,0,0,0,2.563-.221A4.492,4.492,0,0,0,914.388,346.442Z" transform="translate(-832.556 -256.958)" fill="#f5f5f5"/>
      <path id="Trazado_98649" data-name="Trazado 98649" d="M941.34,346.682c0,.067-4.585.116-10.245.116s-10.257-.049-10.257-.116,4.591-.117,10.257-.117S941.34,346.62,941.34,346.682Z" transform="translate(-834.851 -258.489)" fill="#f5f5f5"/>
      <path id="Trazado_98650" data-name="Trazado 98650" d="M909.828,334.287l-.117-10.448H915.4l.2,10.448Z" transform="translate(-832.249 -253.174)" fill="#f5f5f5"/>
      <path id="Trazado_98651" data-name="Trazado 98651" d="M915.086,326.229a29.976,29.976,0,0,1-5.279,0,29.781,29.781,0,0,1,5.279,0Z" transform="translate(-832.271 -253.702)" fill="#dee7f3"/>
      <path id="Trazado_98652" data-name="Trazado 98652" d="M915.086,328.331a29.774,29.774,0,0,1-5.279,0,29.976,29.976,0,0,1,5.279,0Z" transform="translate(-832.271 -254.194)" fill="#dee7f3"/>
      <path id="Trazado_98653" data-name="Trazado 98653" d="M915.086,330.433a29.976,29.976,0,0,1-5.279,0,29.983,29.983,0,0,1,5.279,0Z" transform="translate(-832.271 -254.685)" fill="#dee7f3"/>
      <path id="Trazado_98654" data-name="Trazado 98654" d="M915.086,332.543a31.653,31.653,0,0,1-5.279,0,29.766,29.766,0,0,1,5.279,0Z" transform="translate(-832.271 -255.178)" fill="#dee7f3"/>
      <path id="Trazado_98655" data-name="Trazado 98655" d="M915.086,334.644a29.976,29.976,0,0,1-5.279,0,29.781,29.781,0,0,1,5.279,0Z" transform="translate(-832.271 -255.67)" fill="#dee7f3"/>
      <path id="Trazado_98656" data-name="Trazado 98656" d="M909.318,323.478h63.007a29.774,29.774,0,0,1,0,11.29H909.588V334h3.829a1.844,1.844,0,0,0,1.813-1.807v-6.25a1.807,1.807,0,0,0-1.807-1.807h-4.106Z" transform="translate(-832.157 -253.089)" fill="#fcebd5"/>
      <path id="Trazado_98657" data-name="Trazado 98657" d="M928.269,330.177h1.051a.244.244,0,0,1,.11,0,.229.229,0,0,1,.111.2.259.259,0,0,1,0,.067,2.137,2.137,0,0,1-.074.264,2.866,2.866,0,0,1-.657,1.192,1.228,1.228,0,0,1-.891.461h-.13a1,1,0,0,1-.713-.516,2.309,2.309,0,0,1-.319-1.266,3.309,3.309,0,0,1,.129-.9,2.918,2.918,0,0,1,.614-1.229,1.269,1.269,0,0,1,.947-.5.889.889,0,0,1,.4.092,1.284,1.284,0,0,1,.615.768.2.2,0,0,1,0,.1.189.189,0,0,1-.031.11.212.212,0,0,1-.2.11h-.068a.227.227,0,0,1-.147-.141h0a1.286,1.286,0,0,0-.13-.246.614.614,0,0,0-.5-.3.561.561,0,0,0-.345.129,1.814,1.814,0,0,0-.578.824,3.094,3.094,0,0,0-.246,1.187,2.169,2.169,0,0,0,.178.928.614.614,0,0,0,.547.411.736.736,0,0,0,.51-.3,2.752,2.752,0,0,0,.541-.977h-.756a.258.258,0,0,1-.252-.252.2.2,0,0,1,0-.074A.246.246,0,0,1,928.269,330.177Z" transform="translate(-836.235 -254.134)" fill="#fafafa"/>
      <path id="Trazado_98658" data-name="Trazado 98658" d="M932.746,328.145a.616.616,0,0,1,0,.074c.043.154.295,1.456.744,3.909a.219.219,0,0,1,0,.055.3.3,0,0,1,0,.117.221.221,0,0,1-.191.11h-.037a.2.2,0,0,1-.172-.154l-.252-1.3h-1.3l-.614,1.3v.044a.254.254,0,0,1-.2.11.229.229,0,0,1-.124-.037.216.216,0,0,1-.1-.185.126.126,0,0,1,0-.067c.037-.092.1-.234.191-.431q1.358-2.968,1.622-3.5a.248.248,0,0,1,.221-.154A.235.235,0,0,1,932.746,328.145Zm-.283.873-.7,1.475h.99Z" transform="translate(-837.11 -254.155)" fill="#fafafa"/>
      <path id="Trazado_98659" data-name="Trazado 98659" d="M937.364,332.408h-1.9a.206.206,0,0,1-.117-.037.332.332,0,0,1-.11-.234h0c0-.074.178-1.371.522-3.884v-.086a.209.209,0,0,1,.2-.136.2.2,0,0,1,.1,0,.209.209,0,0,1,.123.2,8.766,8.766,0,0,1-.129,1.07c-.215,1.659-.332,2.538-.344,2.624h1.616a.413.413,0,0,1,.123,0,.215.215,0,0,1,.141.215.3.3,0,0,1,0,.074A.271.271,0,0,1,937.364,332.408Z" transform="translate(-838.219 -254.153)" fill="#fafafa"/>
      <path id="Trazado_98660" data-name="Trazado 98660" d="M940.724,328.145a.672.672,0,0,1,0,.074q.073.233.743,3.909a.167.167,0,0,1,0,.055.3.3,0,0,1,0,.117.22.22,0,0,1-.19.11h-.037a.21.21,0,0,1-.172-.154l-.252-1.3h-1.29l-.615,1.3a.085.085,0,0,1,0,.044.251.251,0,0,1-.2.11.242.242,0,0,1-.123-.037.209.209,0,0,1-.1-.185.126.126,0,0,1,0-.067c.037-.092.1-.234.191-.431q1.364-2.968,1.628-3.5a.241.241,0,0,1,.215-.154A.234.234,0,0,1,940.724,328.145Zm-.283.873-.7,1.475h.99Z" transform="translate(-838.979 -254.155)" fill="#fafafa"/>
      <path id="Trazado_98661" data-name="Trazado 98661" d="M944.8,330.382l.344.946c.2.541.295.83.295.86a.188.188,0,0,1-.037.111.214.214,0,0,1-.191.1.2.2,0,0,1-.191-.148l-.031-.1c-.1-.24-.276-.682-.51-1.34l-1.075,1.469a.247.247,0,0,1-.2.116.218.218,0,0,1-.117,0,.21.21,0,0,1-.1-.191v-.086a.483.483,0,0,1,.117-.185c.356-.467.755-1.02,1.192-1.666-.049-.123-.093-.245-.13-.356q-.614-1.623-.614-1.678a.258.258,0,0,1,.031-.116.192.192,0,0,1,.185-.111.222.222,0,0,1,.209.123l.615,1.708,1.266-1.721a.247.247,0,0,1,.2-.111.2.2,0,0,1,.1,0,.216.216,0,0,1,.111.2.238.238,0,0,1,0,.1Z" transform="translate(-840.029 -254.149)" fill="#fafafa"/>
      <path id="Trazado_98662" data-name="Trazado 98662" d="M950.508,328.044a.221.221,0,0,1,.1,0,.235.235,0,0,1,.123.2q-.474,3.688-.516,3.976a2.449,2.449,0,0,1-.405,1.039,1.47,1.47,0,0,1-1.844.461,1.368,1.368,0,0,1-.67-.614.248.248,0,0,1,0-.111.177.177,0,0,1,.031-.11.209.209,0,0,1,.362,0,1.23,1.23,0,0,0,.978.553.953.953,0,0,0,.75-.382,2.07,2.07,0,0,0,.417-1.192,1.151,1.151,0,0,1-.276.295,1.132,1.132,0,0,1-.682.221h-.129a1.023,1.023,0,0,1-.719-.516,2.372,2.372,0,0,1-.314-1.266,7.093,7.093,0,0,1,.031-.713c.037-.387.116-.928.251-1.635a.346.346,0,0,1,0-.067.2.2,0,0,1,.2-.154.247.247,0,0,1,.111.031.2.2,0,0,1,.11.178c0,.117-.037.406-.1.866a12.12,12.12,0,0,0-.148,1.328,2.686,2.686,0,0,0,.166,1.027c.135.313.319.467.565.467h.074a1.051,1.051,0,0,0,.571-.454,2.845,2.845,0,0,0,.467-1.045l.289-2.164a.251.251,0,0,1,.031-.1A.2.2,0,0,1,950.508,328.044Z" transform="translate(-841.039 -254.153)" fill="#fafafa"/>
      <path id="Trazado_98663" data-name="Trazado 98663" d="M988.435,334.872c-.068,0-.117-2.593-.117-5.79s.049-5.79.117-5.79.116,2.588.116,5.79S988.5,334.872,988.435,334.872Z" transform="translate(-850.633 -253.046)" fill="#f5f5f5"/>
      <path id="Trazado_98664" data-name="Trazado 98664" d="M921.139,334.872c-.068,0-.117-2.593-.117-5.79s.049-5.79.117-5.79.111,2.588.111,5.79S921.2,334.872,921.139,334.872Z" transform="translate(-834.894 -253.046)" fill="#dee7f3"/>
      <path id="Trazado_98665" data-name="Trazado 98665" d="M989.872,334.872c-.061,0-.11-2.593-.11-5.79s.049-5.79.11-5.79.117,2.588.117,5.79S989.94,334.872,989.872,334.872Z" transform="translate(-850.971 -253.046)" fill="#f5f5f5"/>
      <path id="Trazado_98666" data-name="Trazado 98666" d="M919.785,334.872c-.061,0-.111-2.593-.111-5.79s.05-5.79.111-5.79.116,2.588.116,5.79S919.852,334.872,919.785,334.872Z" transform="translate(-834.579 -253.046)" fill="#dee7f3"/>
      <path id="Trazado_98667" data-name="Trazado 98667" d="M966.417,325.78h0l6.662,5.371.055.05h-.074l-.885.233-5.624,1.476h0l-5.095-2.157-1.444-.614-.381-.166-.1-.043h.006l.1.043.381.154,1.45.614,5.108,2.133h0l5.617-1.482.885-.234v.068l-6.644-5.39h0" transform="translate(-843.894 -253.628)" fill="#dee7f3"/>
      <path id="Trazado_98668" data-name="Trazado 98668" d="M976.271,331.676l.363.338.485-.1-.209.455.246.43-.492-.068-.332.375-.092-.492-.461-.2.443-.234Z" transform="translate(-847.701 -255.007)" fill="#dee7f3"/>
      <path id="Trazado_98669" data-name="Trazado 98669" d="M967.992,334.436l.252.209.307-.086-.117.3.178.27-.326-.018-.2.252-.08-.313-.3-.111.27-.172Z" transform="translate(-845.813 -255.652)" fill="#dee7f3"/>
      <path id="Trazado_98670" data-name="Trazado 98670" d="M958.87,330.571l.4.025.246-.307.1.381.369.135-.332.215-.018.393-.3-.252-.381.111.141-.369Z" transform="translate(-843.746 -254.682)" fill="#dee7f3"/>
      <path id="Trazado_98671" data-name="Trazado 98671" d="M980.32,325.8l.393.025.246-.313.1.381.369.141-.332.209-.019.4-.3-.252-.381.1.141-.369Z" transform="translate(-848.762 -253.566)" fill="#dee7f3"/>
      <path id="Trazado_98672" data-name="Trazado 98672" d="M968.1,325.5l.252.012.16-.2.062.246.24.086-.215.135-.012.252-.19-.16-.246.068.092-.234Z" transform="translate(-845.905 -253.519)" fill="#dee7f3"/>
      <path id="Trazado_98673" data-name="Trazado 98673" d="M978.106,326.127s-2.157-.05-4.812-.16-4.806-.228-4.806-.252,2.151.043,4.812.16S978.106,326.1,978.106,326.127Z" transform="translate(-845.995 -253.611)" fill="#dee7f3"/>
      <path id="Trazado_98674" data-name="Trazado 98674" d="M964.476,321.727H900.56c-.836-1.9-1.039-3.688,0-5.316h63.917A6.184,6.184,0,0,1,964.476,321.727Z" transform="translate(-829.944 -251.437)" fill="#dee7f3"/>
      <rect id="Rectángulo_28369" data-name="Rectángulo 28369" width="34.619" height="1.936" transform="translate(83.86 66.492)" fill="#fcebd5"/>
      <path id="Trazado_98675" data-name="Trazado 98675" d="M903.653,321.808a1.841,1.841,0,0,1-.5-.615,4.681,4.681,0,0,1-.339-3.847,1.845,1.845,0,0,1,.388-.719,7.058,7.058,0,0,1-.228.768,5.364,5.364,0,0,0,.326,3.724A5.8,5.8,0,0,1,903.653,321.808Z" transform="translate(-830.574 -251.487)" fill="#dee7f3"/>
      <path id="Trazado_98676" data-name="Trazado 98676" d="M905.458,321.808a1.837,1.837,0,0,1-.5-.615,4.681,4.681,0,0,1-.339-3.847,1.848,1.848,0,0,1,.388-.719,7.03,7.03,0,0,1-.227.768,5.363,5.363,0,0,0,.326,3.724A5.8,5.8,0,0,1,905.458,321.808Z" transform="translate(-830.996 -251.487)" fill="#dee7f3"/>
      <path id="Trazado_98677" data-name="Trazado 98677" d="M980.826,321.64a8.041,8.041,0,0,0,.031-5.205A5.417,5.417,0,0,1,980.826,321.64Z" transform="translate(-848.881 -251.442)" fill="#f5f5f5"/>
      <path id="Trazado_98678" data-name="Trazado 98678" d="M979.264,321.658c-.068,0,.2-1.137.2-2.55s-.271-2.526-.2-2.544a7.8,7.8,0,0,1,0,5.095Z" transform="translate(-848.511 -251.472)" fill="#f5f5f5"/>
    </g>
    <g id="freepik--Plant--inject-18" transform="translate(817.668 390.061)">
      <path id="Trazado_98679" data-name="Trazado 98679" d="M889.1,505.375a27.475,27.475,0,0,1-2.8,2.169,65.338,65.338,0,0,0-12.089,11.88,28.585,28.585,0,0,1-2.213,2.76,14.056,14.056,0,0,1,1.844-3.036,48.951,48.951,0,0,1,5.574-6.521,48.356,48.356,0,0,1,6.613-5.457A14.24,14.24,0,0,1,889.1,505.375Z" transform="translate(-832.495 -454.088)" fill="#12263f"/>
      <path id="Trazado_98680" data-name="Trazado 98680" d="M890.313,493.126c.178.043-.418,3.073-1.328,6.76s-1.788,6.681-1.979,6.632.424-3.073,1.328-6.76S890.141,493.083,890.313,493.126Z" transform="translate(-835.996 -451.224)" fill="#12263f"/>
      <path id="Trazado_98681" data-name="Trazado 98681" d="M889.9,492.341c-.448.2-.578,1.3-.208,1.844a1.377,1.377,0,0,0,1.758.307,1.482,1.482,0,0,0,.584-1.979,1.457,1.457,0,0,0-2.044-.257,1.6,1.6,0,0,0-.138.122" transform="translate(-836.583 -450.949)" fill="#455a64"/>
      <path id="Trazado_98682" data-name="Trazado 98682" d="M894.681,498.017c.074.16-1.014.818-2.458,1.463s-2.631,1.038-2.7.879,1.014-.824,2.458-1.469A6.814,6.814,0,0,1,894.681,498.017Z" transform="translate(-836.591 -452.361)" fill="#12263f"/>
      <path id="Trazado_98683" data-name="Trazado 98683" d="M895.837,496.618a2.189,2.189,0,0,0-.86,1.1.977.977,0,0,0,.51,1.18.934.934,0,0,0,.86-.185,1.758,1.758,0,0,0,.491-.762,1.373,1.373,0,0,0,.056-.965.676.676,0,0,0-.787-.424" transform="translate(-837.857 -452.024)" fill="#455a64"/>
      <path id="Trazado_98684" data-name="Trazado 98684" d="M895.629,503.771a1.315,1.315,0,1,1-.283,0" transform="translate(-837.68 -453.714)" fill="#455a64"/>
      <path id="Trazado_98685" data-name="Trazado 98685" d="M858.214,455.639a14.784,14.784,0,0,1,.16,2.2c.049,1.518.116,3.54.2,5.987.135,5.058.276,12.04.393,19.752s.185,14.7.2,19.759v5.986a13.2,13.2,0,0,1-.1,2.2,14.809,14.809,0,0,1-.159-2.194c-.049-1.518-.111-3.54-.191-5.986-.135-5.058-.276-12.046-.4-19.759s-.185-14.707-.185-19.758v-5.993A14.769,14.769,0,0,1,858.214,455.639Z" transform="translate(-829.249 -442.457)" fill="#12263f"/>
      <path id="Trazado_98686" data-name="Trazado 98686" d="M865.144,447.4a9.747,9.747,0,1,1-10.5-8.935h.012A9.752,9.752,0,0,1,865.144,447.4Z" transform="translate(-826.339 -438.433)" fill="#7cc5ff"/>
      <g id="Grupo_49048" data-name="Grupo 49048" transform="translate(20.693 4.571)" opacity="0.3">
        <path id="Trazado_98687" data-name="Trazado 98687" d="M855.44,459.341a16.236,16.236,0,0,1,.081-2.821,15.9,15.9,0,0,0-1-6.557,9.1,9.1,0,0,0-4.419-4.72,13.283,13.283,0,0,0-2.661-.738c.006-.123.27-.1.768-.1a5.889,5.889,0,0,1,2.071.424,8.929,8.929,0,0,1,4.843,4.868,14.516,14.516,0,0,1,.854,6.834A9,9,0,0,1,855.44,459.341Z" transform="translate(-847.445 -444.4)"/>
      </g>
      <g id="Grupo_49049" data-name="Grupo 49049" transform="translate(28.534 5.745)" opacity="0.3">
        <path id="Trazado_98688" data-name="Trazado 98688" d="M866.924,446.117c0,.2-2.735,0-5.409,1.751s-3.644,4.3-3.816,4.216c-.074-.031.049-.7.572-1.659a8.725,8.725,0,0,1,6.908-4.474A3.219,3.219,0,0,1,866.924,446.117Z" transform="translate(-857.68 -445.932)"/>
      </g>
      <g id="Grupo_49050" data-name="Grupo 49050" transform="translate(24.647 2.636)" opacity="0.3">
        <path id="Trazado_98689" data-name="Trazado 98689" d="M861.38,445.942c-.11,0-.234-.645-.836-1.475a4.393,4.393,0,0,0-6.834-.565c-.732.713-.965,1.352-1.07,1.309s0-.738.732-1.623a4.573,4.573,0,0,1,7.553.614C861.491,445.211,861.447,445.942,861.38,445.942Z" transform="translate(-852.606 -441.874)"/>
      </g>
      <g id="Grupo_49051" data-name="Grupo 49051" transform="translate(27.748 3.426)" opacity="0.3">
        <path id="Trazado_98690" data-name="Trazado 98690" d="M859.635,448.052c-.191,0-.4-1.322-1.23-2.717s-1.843-2.255-1.745-2.409,1.42.529,2.311,2.083S859.806,448.064,859.635,448.052Z" transform="translate(-856.653 -442.905)"/>
      </g>
      <g id="Grupo_49052" data-name="Grupo 49052" transform="translate(26.998 5.582)" opacity="0.3">
        <path id="Trazado_98691" data-name="Trazado 98691" d="M858.459,445.809c.043.19-.762.448-1.426,1.1s-1.131,1.4-1.3,1.3.044-.946.849-1.776S858.453,445.655,858.459,445.809Z" transform="translate(-855.675 -445.719)"/>
      </g>
      <path id="Trazado_98692" data-name="Trazado 98692" d="M831.141,494.69c.172-.055,2.852,7.842,5.987,17.626s5.531,17.774,5.371,17.823-2.852-7.842-5.987-17.62S830.97,494.746,831.141,494.69Z" transform="translate(-822.937 -451.59)" fill="#12263f"/>
      <path id="Trazado_98693" data-name="Trazado 98693" d="M835.544,517.138a76.688,76.688,0,0,1-6.269-4.677c-3.423-2.63-6.1-4.916-5.986-5.058s2.962,1.887,6.416,4.548S835.68,516.99,835.544,517.138Z" transform="translate(-821.102 -454.562)" fill="#12263f"/>
      <path id="Trazado_98694" data-name="Trazado 98694" d="M821.215,506.166a1.625,1.625,0,0,0,.258,2.157,1.824,1.824,0,0,0,2.458-.406,1.6,1.6,0,0,0-.614-2.163,1.769,1.769,0,0,0-2.225.584" transform="translate(-820.545 -454.136)" fill="#455a64"/>
      <path id="Trazado_98695" data-name="Trazado 98695" d="M838.177,489.669c.2.037-.387,2.852-1.548,6.146s-1.844,6-2.04,5.973.264-2.87,1.426-6.183A55.907,55.907,0,0,1,838.177,489.669Z" transform="translate(-823.735 -450.416)" fill="#12263f"/>
      <path id="Trazado_98696" data-name="Trazado 98696" d="M838.578,486.431c-.651.467-.682.744-.928,1.505a1.485,1.485,0,0,0,.885,1.924,1.658,1.658,0,0,0,1.715-1.161,2.039,2.039,0,0,0,0-1.954,1.139,1.139,0,0,0-1.745-.191" transform="translate(-824.443 -449.612)" fill="#455a64"/>
      <path id="Trazado_98697" data-name="Trazado 98697" d="M824.308,516.238c-.061-.166,1.088-.805,2.576-1.432s2.747-1,2.821-.842-1.076.811-2.569,1.438S824.377,516.4,824.308,516.238Z" transform="translate(-821.34 -456.089)" fill="#12263f"/>
      <path id="Trazado_98698" data-name="Trazado 98698" d="M821.049,515.422c-.443.234-.614,1.315-.614,1.764a1.458,1.458,0,0,0,.688,1.113,1.739,1.739,0,1,0-.086-2.877" transform="translate(-820.435 -456.362)" fill="#455a64"/>
      <path id="Trazado_98699" data-name="Trazado 98699" d="M827.372,491.936a2.317,2.317,0,0,0,4,2.04,1.668,1.668,0,0,0,.449-1.322,2.681,2.681,0,0,0-2.09-1.924,2.391,2.391,0,0,0-2.36,1.23" transform="translate(-822.044 -450.661)" fill="#455a64"/>
      <path id="Trazado_98700" data-name="Trazado 98700" d="M869.091,504.974a11.96,11.96,0,0,1-.775,2.582q-.953,2.716-2.144,6.108c-.817,2.25-1.549,4.3-2.2,6.1a10.519,10.519,0,0,1-1.039,2.458,61.121,61.121,0,0,1,2.625-8.794C867.273,508.656,868.92,504.9,869.091,504.974Z" transform="translate(-830.373 -453.995)" fill="#12263f"/>
      <path id="Trazado_98701" data-name="Trazado 98701" d="M879.449,496.057a8.346,8.346,0,1,1-6.433-9.9h0A8.352,8.352,0,0,1,879.449,496.057Z" transform="translate(-830.375 -449.553)" fill="#7cc5ff"/>
      <g id="Grupo_49053" data-name="Grupo 49053" transform="translate(35.245 38.539)" opacity="0.3">
        <path id="Trazado_98702" data-name="Trazado 98702" d="M869.4,502.892a14.522,14.522,0,0,1,.726-2.305,13.77,13.77,0,0,0,.762-5.611,7.806,7.806,0,0,0-2.459-4.916,14.817,14.817,0,0,0-1.985-1.285c.037-.116,1.02,0,2.274.928a7.659,7.659,0,0,1,2.79,5.206,12.226,12.226,0,0,1-.978,5.833A6.477,6.477,0,0,1,869.4,502.892Z" transform="translate(-866.44 -488.737)"/>
      </g>
      <g id="Grupo_49054" data-name="Grupo 49054" transform="translate(39.924 43.04)" opacity="0.3">
        <path id="Trazado_98703" data-name="Trazado 98703" d="M881.592,495.336c-.037.19-2.249-.615-4.85.159s-4.031,2.631-4.166,2.489.184-.578.842-1.229a7.428,7.428,0,0,1,3.14-1.844,7.308,7.308,0,0,1,3.645-.129C881.119,494.954,881.623,495.237,881.592,495.336Z" transform="translate(-872.546 -494.612)"/>
      </g>
      <g id="Grupo_49055" data-name="Grupo 49055" transform="translate(38.175 38.715)" opacity="0.3">
        <path id="Trazado_98704" data-name="Trazado 98704" d="M877.291,493.591c-.1,0-.055-.614-.356-1.407a3.749,3.749,0,0,0-4.719-2.416,3.657,3.657,0,0,0-.7.309c-.775.393-1.125.854-1.23.786s.172-.614.978-1.18a3.921,3.921,0,0,1,6.091,2.373C877.567,493.013,877.359,493.61,877.291,493.591Z" transform="translate(-870.264 -488.966)"/>
      </g>
      <g id="Grupo_49056" data-name="Grupo 49056" transform="translate(41.339 39.272)" opacity="0.3">
        <path id="Trazado_98705" data-name="Trazado 98705" d="M875.6,494.64c-.191-.043-.055-1.186-.388-2.52s-.946-2.292-.8-2.415,1.075.762,1.432,2.268S875.761,494.7,875.6,494.64Z" transform="translate(-874.393 -489.694)"/>
      </g>
      <g id="Grupo_49057" data-name="Grupo 49057" transform="translate(39.619 41.367)" opacity="0.3">
        <path id="Trazado_98706" data-name="Trazado 98706" d="M875,492.662c0,.2-.726.234-1.414.614s-1.272.854-1.407.713.234-.8,1.112-1.291S875.034,492.508,875,492.662Z" transform="translate(-872.149 -492.429)"/>
      </g>
      <path id="Trazado_98707" data-name="Trazado 98707" d="M845.908,482.136a6.409,6.409,0,0,1,.319,1.389c.178,1.033.393,2.3.614,3.8.51,3.215,1.174,7.658,1.843,12.568s1.279,9.361,1.678,12.587c.172,1.506.314,2.784.437,3.829a5.606,5.606,0,0,1,.067,1.414,6.245,6.245,0,0,1-.32-1.383q-.257-1.549-.614-3.8c-.51-3.208-1.174-7.658-1.844-12.574s-1.278-9.367-1.678-12.562c-.172-1.506-.313-2.784-.436-3.823A5.987,5.987,0,0,1,845.908,482.136Z" transform="translate(-826.389 -448.654)" fill="#12263f"/>
      <path id="Trazado_98708" data-name="Trazado 98708" d="M850.164,468.836a8.34,8.34,0,1,1-10.282-5.784,8.34,8.34,0,0,1,10.282,5.784Z" transform="translate(-823.558 -444.118)" fill="#7cc5ff"/>
      <g id="Grupo_49058" data-name="Grupo 49058" transform="translate(10.706 23.777)" opacity="0.3">
        <path id="Trazado_98709" data-name="Trazado 98709" d="M843.554,480.931a14.072,14.072,0,0,1-.431-2.378,13.791,13.791,0,0,0-1.924-5.322A7.838,7.838,0,0,0,836.757,470a15.076,15.076,0,0,0-2.348-.215c-.012-.123.891-.485,2.458-.233a7.65,7.65,0,0,1,4.886,3.318,12.236,12.236,0,0,1,1.844,5.618A7.06,7.06,0,0,1,843.554,480.931Z" transform="translate(-834.409 -469.468)"/>
      </g>
      <g id="Grupo_49059" data-name="Grupo 49059" transform="translate(18.435 22.272)" opacity="0.3">
        <path id="Trazado_98710" data-name="Trazado 98710" d="M851.3,467.565c.055.191-2.274.5-4.216,2.4s-2.353,4.2-2.538,4.136c-.08,0-.1-.614.172-1.5a7.372,7.372,0,0,1,5.083-4.916C850.714,467.449,851.3,467.486,851.3,467.565Z" transform="translate(-844.497 -467.505)"/>
      </g>
      <g id="Grupo_49060" data-name="Grupo 49060" transform="translate(14.19 20.908)" opacity="0.3">
        <path id="Trazado_98711" data-name="Trazado 98711" d="M846.479,468.519c-.1.043-.326-.486-.971-1.076a3.752,3.752,0,0,0-5.777.645c-.5.713-.614,1.279-.712,1.26s-.136-.614.319-1.5a3.934,3.934,0,0,1,6.5-.726C846.473,467.88,846.548,468.507,846.479,468.519Z" transform="translate(-838.956 -465.723)"/>
      </g>
      <g id="Grupo_49061" data-name="Grupo 49061" transform="translate(16.413 21.862)" opacity="0.3">
        <path id="Trazado_98712" data-name="Trazado 98712" d="M845.21,470.826c-.184.049-.614-1.026-1.505-2.052s-1.905-1.592-1.843-1.764,1.3.172,2.317,1.339S845.376,470.8,845.21,470.826Z" transform="translate(-841.858 -466.968)"/>
      </g>
      <g id="Grupo_49062" data-name="Grupo 49062" transform="translate(16.481 23.383)" opacity="0.3">
        <path id="Trazado_98713" data-name="Trazado 98713" d="M843.953,469.011c.08.179-.541.541-.978,1.186s-.731,1.346-.922,1.279-.159-.811.387-1.653S843.9,468.857,843.953,469.011Z" transform="translate(-841.947 -468.954)"/>
      </g>
      <path id="Trazado_98714" data-name="Trazado 98714" d="M845.156,581.282l-7.578-54.624h32.591l-6.65,54.624Z" transform="translate(-824.444 -459.066)" fill="#12263f"/>
      <path id="Trazado_98715" data-name="Trazado 98715" d="M868.726,554.458c0,.148-6.109.271-13.638.271s-13.644-.123-13.644-.271,6.109-.276,13.644-.276S868.726,554.3,868.726,554.458Z" transform="translate(-825.348 -465.503)" fill="#fafafa"/>
      <path id="Trazado_98716" data-name="Trazado 98716" d="M868.2,559.048c0,.153-5.845.277-13.053.277s-13.048-.123-13.048-.277,5.839-.246,13.048-.246S868.2,558.9,868.2,559.048Z" transform="translate(-825.5 -466.584)" fill="#fafafa"/>
      <path id="Trazado_98717" data-name="Trazado 98717" d="M867.929,563.428c0,.153-5.654.277-12.617.277s-12.623-.123-12.623-.277,5.654-.27,12.623-.27S867.929,563.281,867.929,563.428Z" transform="translate(-825.639 -467.603)" fill="#fafafa"/>
      <path id="Trazado_98718" data-name="Trazado 98718" d="M867.636,568.193c0,.153-5.433.277-12.138.277s-12.144-.123-12.144-.277,5.433-.27,12.144-.27S867.636,568.046,867.636,568.193Z" transform="translate(-825.795 -468.717)" fill="#fafafa"/>
      <path id="Trazado_98719" data-name="Trazado 98719" d="M867.446,572.548c0,.153-5.187.277-11.585.277s-11.585-.123-11.585-.277,5.187-.277,11.585-.277S867.446,572.4,867.446,572.548Z" transform="translate(-826.011 -469.734)" fill="#fafafa"/>
      <path id="Trazado_98720" data-name="Trazado 98720" d="M866.867,576.9c0,.148-5,.271-11.155.271s-11.155-.123-11.155-.271,5-.277,11.155-.277S866.867,576.749,866.867,576.9Z" transform="translate(-826.077 -470.753)" fill="#fafafa"/>
      <path id="Trazado_98721" data-name="Trazado 98721" d="M866.843,581.259c0,.148-4.855.27-10.841.27s-10.835-.122-10.835-.27A108.323,108.323,0,0,1,856,580.982,106.372,106.372,0,0,1,866.843,581.259Z" transform="translate(-826.219 -471.771)" fill="#fafafa"/>
      <path id="Trazado_98722" data-name="Trazado 98722" d="M866.578,585.615a200.33,200.33,0,0,1-20.81,0,99.945,99.945,0,0,1,10.4-.277A97.944,97.944,0,0,1,866.578,585.615Z" transform="translate(-826.36 -472.79)" fill="#fafafa"/>
    </g>
    <g id="freepik--Character--inject-18" transform="translate(878.93 258.322)">
      <path id="Trazado_98723" data-name="Trazado 98723" d="M961.238,284.354c-.978,1.591-3.294,1.9-4.984,1.125a9.1,9.1,0,0,1-3.78-4,26.72,26.72,0,0,0-2.919-4.751,8.672,8.672,0,0,0-8.6-2.618,7.924,7.924,0,0,0-5.679,6.835c-.264,3.8,2.526,7.3,5.955,8.941s7.375,1.777,11.179,1.623" transform="translate(-908.55 -268.201)" fill="#12263f"/>
      <path id="Trazado_98724" data-name="Trazado 98724" d="M1024.8,290.821c3.688-1.764,8.389.394,10.491,3.909s2.108,7.922,1.291,11.936c-.769,3.8-2.023,8.327.688,11.105,2.121,2.182,6,2.305,7.5,4.948,2.162,3.792-2.686,8.235-2.022,12.55.424,2.729,2.95,4.621,5.476,5.728s5.31,1.764,7.473,3.473,3.472,5,1.843,7.258l-14.135,4.437-2.876-4.965a7.292,7.292,0,0,1-.615,6.649,17.118,17.118,0,0,1-4.885,4.886c-7.314,5.341-16.182,9.053-25.2,8.555" transform="translate(-925.992 -272.025)" fill="#12263f"/>
      <path id="Trazado_98725" data-name="Trazado 98725" d="M948.78,292.632c-.11-3.779,3.4-6.686,6.89-8.081s7.412-1.905,10.54-4.014c2.772-1.843,4.634-4.775,6.982-7.147a23.219,23.219,0,0,1,39.051,10.669c1.351,5.371.43,11.72-3.8,15.29-4.916,4.142-12.2,3.221-18.493,1.936s-13.423-2.563-18.677,1.137c-3.171,2.231-4.984,5.857-6.926,9.219s-4.37,6.76-8.033,8.045-8.641-.916-8.782-4.794" transform="translate(-911.42 -266.479)" fill="#12263f"/>
      <path id="Trazado_98726" data-name="Trazado 98726" d="M945.635,298.154c.411,3.159-1.844,5.992-4.149,8.223s-4.849,4.6-5.255,7.756c-.467,3.687,2.231,7.338,1.445,10.976-.492,2.311-2.293,4.093-3.381,6.189a13.145,13.145,0,0,0-.67,9.692c.934,3.183,2.458,10.288,4.646,12.764a51.1,51.1,0,0,0,24.8,14.8c8.942,2.059,18.235,2.065,27.4,1.506,7.5-.467,16.121-.117,22.371-10.448,3.238-5.347,4.843-12.451,6.563-18.438,1.482-5.168,2.76-10.706,1.229-15.862-.9-3.005-2.7-5.672-3.589-8.678-1.106-3.762-.7-7.775-1.149-11.677a26.758,26.758,0,0,0-38.073-21.129" transform="translate(-908.023 -269.93)" fill="#12263f"/>
      <path id="Trazado_98727" data-name="Trazado 98727" d="M1018.9,313.256c-.7-10.767-7.86-23.969-18.585-22.795L966.849,299a6.306,6.306,0,0,0-5.629,6.41l2.151,73.541a19.4,19.4,0,0,0,19.82,18.825h0a19.409,19.409,0,0,0,18.985-19.372V367.014c0,.025,13.748-2.311,16.557-20.281C1020.164,337.828,1019.685,325.21,1018.9,313.256Z" transform="translate(-914.622 -272.071)" fill="#ffbe9d"/>
      <path id="Trazado_98728" data-name="Trazado 98728" d="M1027.316,337.719a2.3,2.3,0,0,1-2.243,2.341,2.2,2.2,0,0,1-2.369-2.018l0-.053a2.3,2.3,0,0,1,2.206-2.33,2.207,2.207,0,0,1,2.4,1.99C1027.312,337.673,1027.314,337.7,1027.316,337.719Z" transform="translate(-929.001 -282.656)" fill="#12263f"/>
      <path id="Trazado_98729" data-name="Trazado 98729" d="M1029.622,329.448c-.289.3-2.035-.983-4.511-.971s-4.3,1.229-4.555.946c-.135-.129.16-.676.947-1.229a6.357,6.357,0,0,1,3.645-1.131,6.078,6.078,0,0,1,3.589,1.149C1029.48,328.772,1029.763,329.313,1029.622,329.448Z" transform="translate(-928.492 -280.648)" fill="#12263f"/>
      <path id="Trazado_98730" data-name="Trazado 98730" d="M996.318,337.716a2.3,2.3,0,0,1-2.213,2.329,2.206,2.206,0,0,1-2.375-2.023l0-.047a2.306,2.306,0,0,1,2.213-2.33,2.2,2.2,0,0,1,2.374,2.011C996.316,337.676,996.317,337.7,996.318,337.716Z" transform="translate(-921.757 -282.653)" fill="#12263f"/>
      <path id="Trazado_98731" data-name="Trazado 98731" d="M997.855,330.122c-.289.3-2.034-.983-4.511-.971s-4.3,1.229-4.555.946c-.135-.129.154-.676.947-1.229a6.315,6.315,0,0,1,3.645-1.131,6.078,6.078,0,0,1,3.589,1.149C997.732,329.446,997.99,329.987,997.855,330.122Z" transform="translate(-921.063 -280.806)" fill="#12263f"/>
      <path id="Trazado_98732" data-name="Trazado 98732" d="M1012.042,348.495a17.115,17.115,0,0,1,4.025-.732c.615-.067,1.23-.2,1.334-.614a3.686,3.686,0,0,0-.424-1.875q-.9-2.286-1.881-4.806c-2.612-6.853-4.5-12.483-4.228-12.587s2.618,5.365,5.23,12.218l1.8,4.837a3.626,3.626,0,0,1,.332,2.458,1.561,1.561,0,0,1-1.039.922,4,4,0,0,1-1.069.153C1013.609,348.624,1012.054,348.636,1012.042,348.495Z" transform="translate(-926.228 -280.839)" fill="#12263f"/>
      <path id="Trazado_98733" data-name="Trazado 98733" d="M983.665,382.07s5.851,12.322,23.791,10.638v-4.222A45.23,45.23,0,0,1,983.665,382.07Z" transform="translate(-919.872 -293.513)" fill="#eb996e"/>
      <path id="Trazado_98734" data-name="Trazado 98734" d="M1008.808,362.073a4.455,4.455,0,0,0-4-1.647,4.076,4.076,0,0,0-2.809,1.512,2.576,2.576,0,0,0-.191,2.95,2.99,2.99,0,0,0,3.245.817,9.365,9.365,0,0,0,3.165-1.9,2.731,2.731,0,0,0,.7-.731.826.826,0,0,0,0-.922" transform="translate(-924.027 -288.444)" fill="#c1507f"/>
      <path id="Trazado_98735" data-name="Trazado 98735" d="M1002.787,357.05c.405,0,.418,2.661,2.723,4.566s5.162,1.6,5.187,1.973c.037.172-.614.522-1.843.559a6.662,6.662,0,0,1-4.3-1.5,5.8,5.8,0,0,1-2.108-3.823C1002.307,357.7,1002.608,357.031,1002.787,357.05Z" transform="translate(-924.255 -287.661)" fill="#12263f"/>
      <path id="Trazado_98736" data-name="Trazado 98736" d="M997.961,320.788c-.246.676-2.717.362-5.617.719s-5.255,1.155-5.642.547c-.172-.289.234-.922,1.18-1.574a9.832,9.832,0,0,1,8.6-.965C997.525,319.964,998.065,320.493,997.961,320.788Z" transform="translate(-920.573 -278.748)" fill="#12263f"/>
      <path id="Trazado_98737" data-name="Trazado 98737" d="M1028.613,320.043c-.436.565-2.138,0-4.192-.037s-3.785.387-4.192-.2c-.172-.283.1-.848.855-1.383a5.862,5.862,0,0,1,3.411-.928,5.766,5.766,0,0,1,3.343,1.125C1028.564,319.219,1028.785,319.772,1028.613,320.043Z" transform="translate(-928.412 -278.409)" fill="#12263f"/>
      <path id="Trazado_98738" data-name="Trazado 98738" d="M952.219,356.862a15.937,15.937,0,0,0,18.954-17.62c-.559-4.407-2.937-8.893-1.407-13.06,2.022-5.531,9.747-7.209,11.8-12.715,1.192-3.2.123-6.939,1.475-10.073,1.272-2.943,4.37-4.647,7.375-5.734s6.256-1.844,8.788-3.817,4.118-5.685,2.459-8.444a169.823,169.823,0,0,0-39.21,9.526c-2.926,1.088-6,2.4-7.732,5.009-1.843,2.753-1.745,6.311-1.591,9.612q1.137,24.172,2.255,48.331" transform="translate(-912.517 -270.904)" fill="#12263f"/>
      <path id="Trazado_98739" data-name="Trazado 98739" d="M991.247,276.525c.461,4.524.916,9.176-.319,13.521s-4.561,8.469-9.047,9.219c-2.12.356-4.5,0-6.25,1.229-3.687,2.674-.676,8.93-2.858,12.943-1.961,3.6-7.228,3.921-9.833,7.074-2.876,3.478-1.389,8.715.615,12.752s4.486,8.493,3.146,12.8c-1.5,4.812-7.252,7.375-8.666,12.211-.909,3.123.049,6.963-2.182,9.33-1.721,1.843-4.578,1.843-7.074,1.629a70.781,70.781,0,0,1-29.192-9.287A16.641,16.641,0,0,0,922,351.683l-5.021,3.687L905.4,340.94a23.493,23.493,0,0,1,13.011-13.06c3.5-1.4,7.989-2.575,8.807-6.256.455-2.035-1.991-5.741-.67-10.448,0,0,2.2-9,7.411-11.542s4.486-4.062,5.623-7.529" transform="translate(-901.567 -268.829)" fill="#12263f"/>
      <path id="Trazado_98740" data-name="Trazado 98740" d="M909.142,342.071a29.466,29.466,0,0,1,4.5-.037,42.376,42.376,0,0,0,5.217-.24,20.529,20.529,0,0,0,6.552-1.77,15.719,15.719,0,0,0,3.281-2.108,11.564,11.564,0,0,0,2.661-3.183,12.049,12.049,0,0,0,1.346-4.241c.246-1.561.332-3.227.615-4.972a13.473,13.473,0,0,1,1.77-5.249,7.5,7.5,0,0,1,2.078-2.169,8.486,8.486,0,0,1,2.8-1.174,47.944,47.944,0,0,1,5.734-.614,7.2,7.2,0,0,0,4.763-2.01,10.134,10.134,0,0,0,2.237-4.861c.387-1.8.51-3.688.885-5.6a12.17,12.17,0,0,1,2.219-5.354,10.526,10.526,0,0,1,2.084-1.967,12.149,12.149,0,0,1,2.458-1.315,20.1,20.1,0,0,1,9.9-1.027c3.073.338,5.851.811,8.389.916a20.805,20.805,0,0,0,3.6-.1,14.037,14.037,0,0,0,3.072-.744,11.6,11.6,0,0,0,4.3-2.673,7.983,7.983,0,0,0,1.782-2.68c.283-.688.375-1.082.443-1.069a2.53,2.53,0,0,1-.142,1.174,7.236,7.236,0,0,1-1.623,3,11.618,11.618,0,0,1-4.43,3.073,14.617,14.617,0,0,1-3.27.922,21.509,21.509,0,0,1-3.779.227c-2.643-.037-5.47-.485-8.47-.725a26.537,26.537,0,0,0-4.591,0,16.187,16.187,0,0,0-4.634,1.112,9.515,9.515,0,0,0-3.878,2.858,10.68,10.68,0,0,0-1.88,4.708c-.344,1.776-.461,3.687-.873,5.636a11.673,11.673,0,0,1-2.625,5.629,7.142,7.142,0,0,1-2.722,1.844,12.089,12.089,0,0,1-3.03.676,50.737,50.737,0,0,0-5.531.572,6.886,6.886,0,0,0-2.292.928,5.973,5.973,0,0,0-1.659,1.715,12.1,12.1,0,0,0-1.623,4.634c-.271,1.641-.375,3.313-.657,4.96a13.52,13.52,0,0,1-1.58,4.676,12.828,12.828,0,0,1-3.03,3.479,16.62,16.62,0,0,1-3.6,2.182,20.82,20.82,0,0,1-6.938,1.634,36.819,36.819,0,0,1-5.328,0A23.72,23.72,0,0,1,909.142,342.071Z" transform="translate(-902.443 -271.472)" fill="#dee7f3"/>
      <path id="Trazado_98741" data-name="Trazado 98741" d="M958.007,286.775c.191.086.1.8-.344,1.843a13.194,13.194,0,0,1-2.446,3.632,14.072,14.072,0,0,1-3.4,2.735c-.984.535-1.678.706-1.789.523-.233-.394,1.844-1.991,4.014-4.345S957.583,286.59,958.007,286.775Z" transform="translate(-912 -271.223)" fill="#7cc5ff"/>
      <path id="Trazado_98742" data-name="Trazado 98742" d="M1031.689,551.579,1035,585.645l-103.729-.037,20.042-40.452Z" transform="translate(-907.617 -331.654)" fill="#7cc5ff"/>
      <path id="Trazado_98743" data-name="Trazado 98743" d="M1066.452,491.315l20.183,29.752s4.124-32.646,4.5-31.915-22.617-31.257-22.617-31.257Z" transform="translate(-939.233 -311.246)" fill="#eb996e"/>
      <path id="Trazado_98744" data-name="Trazado 98744" d="M948.6,405.115c-.8,0-26.519,10.448-29.463,15.278S934.58,515.82,934.58,515.82l94.2,1.936.928-43.3,7.025-57.937-38.952-13.128-5.193-4.523L982.032,417.24l-28.99-18.573Z" transform="translate(-904.706 -297.394)" fill="#7cc5ff"/>
      <g id="Grupo_49063" data-name="Grupo 49063" transform="translate(39.984 175.761)" opacity="0.3">
        <path id="Trazado_98745" data-name="Trazado 98745" d="M952.588,571.131c6.245-1.629,11.395-6.219,14.978-11.585s5.784-11.517,7.9-17.614,4.2-12.292,7.578-17.767a85.783,85.783,0,0,1,8.77-11.229,18.249,18.249,0,0,1,12.833-7.454l14.431-3.276a16.392,16.392,0,0,0,5.205-1.813,5.568,5.568,0,0,0,2.815-4.5c-7.2.725-14.461.5-21.652,1.272s-14.492,2.649-20.238,7.043-9.5,11.02-12.4,17.7c-7.062,16.243-10.368,34.184-19.722,49.222" transform="translate(-952.588 -495.894)"/>
      </g>
      <path id="Trazado_98746" data-name="Trazado 98746" d="M914.837,427.025s-7.811,5.126-9.833,21.443c-1.524,12.125-4.566,46.45-4.566,46.45l37.163-3.1Z" transform="translate(-900.407 -304.026)" fill="#7cc5ff"/>
      <path id="Trazado_98747" data-name="Trazado 98747" d="M900.4,503.815a.616.616,0,0,1,.19-.031l.547-.062,2.127-.208,7.818-.707,25.812-2.2.663-.055-.147.179c-1.309-9.871-2.458-18.776-3.344-25.235l-.978-7.628c-.1-.885-.184-1.579-.246-2.077a4.77,4.77,0,0,0-.055-.541.834.834,0,0,1,0-.185.911.911,0,0,1,.043.185,4.314,4.314,0,0,0,.086.535c.074.492.178,1.186.307,2.065.258,1.844.615,4.413,1.076,7.615.879,6.46,2.1,15.365,3.441,25.2v.166h-.172l-.663.055-25.812,2.108-7.824.614-2.133.147-.553.031Z" transform="translate(-900.398 -312.923)" fill="#12263f"/>
      <path id="Trazado_98748" data-name="Trazado 98748" d="M990.993,419.289a2.94,2.94,0,0,1-.615-.165l-1.7-.541-6.065-2.029.153-.061-2.839,4.812-.073.123-.13-.067c-1.487-.719-3.073-1.525-4.7-2.391a136.07,136.07,0,0,1-11.911-7.185c-1.475-.989-2.642-1.843-3.448-2.421l-.916-.652a1.947,1.947,0,0,1-.308-.258,1.742,1.742,0,0,1,.345.2l.946.645c.83.553,2.016,1.364,3.51,2.33,2.974,1.942,7.159,4.529,11.953,7.074,1.617.866,3.2,1.672,4.683,2.4l-.2.061,2.877-4.788.055-.093.1.038,6.029,2.132,1.678.614A4.294,4.294,0,0,1,990.993,419.289Z" transform="translate(-913.973 -299.683)" fill="#12263f"/>
      <path id="Trazado_98749" data-name="Trazado 98749" d="M1016.68,405.037a.956.956,0,0,1,0,.295,6.523,6.523,0,0,1-.092.848,28.666,28.666,0,0,1-.614,3.073,31.755,31.755,0,0,1-1.463,4.407c-.339.805-.719,1.641-1.162,2.459-.221.424-.454.848-.706,1.272a3.64,3.64,0,0,1-.437.614.966.966,0,0,1-.792.345,1.281,1.281,0,0,1-.738-.4c-.191-.184-.338-.381-.5-.559l-.94-1.1-1.776-2.077a3.244,3.244,0,0,0-.909-.8.866.866,0,0,0-.983.061,4.082,4.082,0,0,0-.713.805l-.614.83-1.9,2.459-.529.663a1.635,1.635,0,0,1-.2.221,2.1,2.1,0,0,1,.148-.258l.479-.7,1.843-2.533.614-.836a4.288,4.288,0,0,1,.75-.879,1.163,1.163,0,0,1,1.272-.1,3.446,3.446,0,0,1,1,.86c.572.657,1.174,1.346,1.789,2.065l.946,1.094c.319.357.615.8,1.026.854s.694-.424.928-.83.48-.836.7-1.229c.442-.83.83-1.653,1.168-2.458a34.429,34.429,0,0,0,1.511-4.345c.35-1.266.559-2.311.695-3.036A9.367,9.367,0,0,1,1016.68,405.037Z" transform="translate(-924.069 -298.884)" fill="#12263f"/>
      <path id="Trazado_98750" data-name="Trazado 98750" d="M1032.589,534.735c.043.08-8.113,4.646-18.216,10.208s-18.327,10-18.37,9.926,8.112-4.647,18.216-10.209S1032.546,534.63,1032.589,534.735Z" transform="translate(-922.757 -329.216)" fill="#12263f"/>
      <path id="Trazado_98751" data-name="Trazado 98751" d="M1029.243,558.128c0,.086-5.249.442-11.732.787s-11.739.553-11.745.467,5.249-.442,11.733-.786S1029.237,558.024,1029.243,558.128Z" transform="translate(-925.041 -334.682)" fill="#12263f"/>
      <path id="Trazado_98752" data-name="Trazado 98752" d="M1065.717,497.158l-5.273-5.427,5.292-27.748,5.3,18.628Z" transform="translate(-937.828 -312.67)" fill="#7cc5ff"/>
      <path id="Trazado_98753" data-name="Trazado 98753" d="M1062.191,534.682a.64.64,0,0,1,0-.142v-1.991c0-1.426.068-3.429.111-5.9.1-4.978.239-11.855.319-19.451s.068-14.486-.061-19.458c-.05-2.489-.154-4.5-.24-5.888-.05-.676-.086-1.229-.117-1.6v-.411a.477.477,0,0,1,0-.148.393.393,0,0,1,.031.142l.056.411c.043.394.1.929.178,1.6.117,1.389.258,3.4.338,5.894.185,4.978.234,11.861.154,19.464s-.252,14.479-.412,19.457c-.086,2.459-.159,4.474-.214,5.894-.031.677-.056,1.229-.081,1.6v.418A.557.557,0,0,1,1062.191,534.682Z" transform="translate(-938.236 -316.343)" fill="#12263f"/>
      <path id="Trazado_98754" data-name="Trazado 98754" d="M1037.689,402.414a3.283,3.283,0,0,0-3.276.663c-1.463,1.371-1.278,2.926-.824,4.388a3.166,3.166,0,0,0,1.371,1.918l6.029-2.833Z" transform="translate(-931.471 -298.228)" fill="#eb996e"/>
      <path id="Trazado_98755" data-name="Trazado 98755" d="M1031.068,414.96s-2.526,1.727-2.618,2.249c-.067.375.393.848,1.106.614a21.886,21.886,0,0,0,2.366-1.266Z" transform="translate(-930.344 -301.205)" fill="#7cc5ff"/>
      <g id="Grupo_49064" data-name="Grupo 49064" transform="translate(98.099 113.755)" opacity="0.3">
        <path id="Trazado_98756" data-name="Trazado 98756" d="M1031.068,414.96s-2.526,1.727-2.618,2.249c-.067.375.393.848,1.106.614a21.886,21.886,0,0,0,2.366-1.266Z" transform="translate(-1028.443 -414.96)"/>
      </g>
      <path id="Trazado_98757" data-name="Trazado 98757" d="M1037.495,400.224l-6.957,6.564,1.548,2.151,7.517-2.686,38.362-21.775a2.82,2.82,0,0,0,1.065-3.844c-.024-.043-.049-.084-.075-.126h0a2.815,2.815,0,0,0-3.737-.952Z" transform="translate(-930.834 -292.843)" fill="#455a64"/>
      <path id="Trazado_98758" data-name="Trazado 98758" d="M1112.319,484.417c-.43-6.232-39.45-60.119-41.89-63.481l-6.76-13.994-2.865-11.788s-15.3-8.825-16.508-8.825-7.166,7.615-7.271,8.825a2.892,2.892,0,0,0,.775,2.1l.768,7.713a4.3,4.3,0,0,0-.215,3.276c.657,1.574,3.3,1.574,3.3,1.574l-.99,3.331s.221,3.718.879,4.375a4.8,4.8,0,0,0,3.011.172c1.272-.234,1.629-2.084,1.567-2.969.405.658,1.788,0,1.788,0a4.448,4.448,0,0,0,1.764,2.735s2.335,9.428,2.667,10.638a9.932,9.932,0,0,0,5.531,5.4,6.832,6.832,0,0,1,.762.319c2.231,8.439,17.829,66.6,21.117,70.511,3.546,4.21,13.152,6.847,21.8,6.4S1112.762,490.846,1112.319,484.417Z" transform="translate(-932.351 -294.509)" fill="#ffbe9d"/>
      <path id="Trazado_98759" data-name="Trazado 98759" d="M1052.9,396.007a14.267,14.267,0,0,1-2.176.142c-1.346.043-3.2.08-5.255.086h-2.888a10.628,10.628,0,0,1-1.272-.049,1.9,1.9,0,0,0-.989.234,5.768,5.768,0,0,0-1.266.909c-.277.252-.418.406-.436.388s.1-.191.35-.473a4.929,4.929,0,0,1,1.229-1.027,2.112,2.112,0,0,1,1.113-.295h9.373A14.9,14.9,0,0,1,1052.9,396.007Z" transform="translate(-932.723 -296.75)" fill="#eb996e"/>
      <path id="Trazado_98760" data-name="Trazado 98760" d="M1050.024,395.085a1.737,1.737,0,0,1-.836-.381,8.644,8.644,0,0,1-1.647-1.487l-.171-.2.264-.172a.977.977,0,0,1,0,.683,1.88,1.88,0,0,1-.276.51,3.784,3.784,0,0,1-.615.67c-.4.338-.683.48-.707.449s.209-.24.559-.615a5.167,5.167,0,0,0,.547-.676.986.986,0,0,0,.2-.885l-.443-1.008.713.836.166.2a13.3,13.3,0,0,0,1.543,1.512C1049.741,394.876,1050.049,395.023,1050.024,395.085Z" transform="translate(-934.458 -295.828)" fill="#eb996e"/>
      <path id="Trazado_98761" data-name="Trazado 98761" d="M1052.041,404.973a18.7,18.7,0,0,1-1.9.074c-1.174.031-2.79.117-4.572.27a10.648,10.648,0,0,0-4.3,1.18c-1.026.553-1.573,1.039-1.609,1s.11-.154.356-.368a8.214,8.214,0,0,1,1.137-.824,9.873,9.873,0,0,1,4.425-1.3,45.221,45.221,0,0,1,4.591-.179A8.549,8.549,0,0,1,1052.041,404.973Z" transform="translate(-932.966 -298.832)" fill="#eb996e"/>
      <path id="Trazado_98762" data-name="Trazado 98762" d="M1045.451,404.626a3.072,3.072,0,0,1-3.073-2.4,10.612,10.612,0,0,0,1.3,1.506A10.861,10.861,0,0,0,1045.451,404.626Z" transform="translate(-933.603 -298.227)" fill="#eb996e"/>
      <path id="Trazado_98763" data-name="Trazado 98763" d="M1052.817,410.947a3.922,3.922,0,0,1-1.272.658,21.335,21.335,0,0,1-3.349.811,16.4,16.4,0,0,0-3.288.855c-.8.326-1.229.614-1.279.614a3.324,3.324,0,0,1,1.187-.8,13.218,13.218,0,0,1,3.319-.965,30.573,30.573,0,0,0,3.337-.706A14.234,14.234,0,0,1,1052.817,410.947Z" transform="translate(-933.896 -300.265)" fill="#eb996e"/>
      <path id="Trazado_98764" data-name="Trazado 98764" d="M1047.583,419.1a1.964,1.964,0,0,1,.725.424,2.758,2.758,0,0,1,.928,1.844,1.8,1.8,0,0,1-.215,1.149,2.647,2.647,0,0,1-.614.725c-.43.339-.793.345-.793.307a3.384,3.384,0,0,0,.615-.479,2.769,2.769,0,0,0,.485-.695,1.674,1.674,0,0,0,.16-.971,2.934,2.934,0,0,0-.775-1.69C1047.817,419.321,1047.552,419.143,1047.583,419.1Z" transform="translate(-934.82 -302.173)" fill="#eb996e"/>
      <path id="Trazado_98765" data-name="Trazado 98765" d="M1052.551,418.465c.037,0-.037.27-.215.663a3.241,3.241,0,0,1-1.051,1.334,1.881,1.881,0,0,1-.91.344,1.5,1.5,0,0,1-.787-.129c-.424-.2-.535-.5-.5-.51a2.82,2.82,0,0,0,.578.3,1.642,1.642,0,0,0,1.433-.27,3.981,3.981,0,0,0,1.038-1.155C1052.36,418.668,1052.508,418.428,1052.551,418.465Z" transform="translate(-935.172 -302.024)" fill="#eb996e"/>
      <path id="Trazado_98766" data-name="Trazado 98766" d="M1054.535,423.693c0,.037-.264.135-.707.086a2.458,2.458,0,0,1-1.53-.793,2.5,2.5,0,0,1-.614-1.61c0-.448.123-.7.159-.688s0,.27.068.676a2.669,2.669,0,0,0,.615,1.407,2.615,2.615,0,0,0,1.327.781C1054.265,423.656,1054.529,423.644,1054.535,423.693Z" transform="translate(-935.78 -302.544)" fill="#eb996e"/>
      <path id="Trazado_98767" data-name="Trazado 98767" d="M1088.549,387.171a14.239,14.239,0,0,1-3.454-5.446c.074,0,.725,1.23,1.684,2.747S1088.61,387.1,1088.549,387.171Z" transform="translate(-943.594 -293.432)" fill="#12263f"/>
      <path id="Trazado_98768" data-name="Trazado 98768" d="M1087.375,387.533q-4.917,2.871-10,5.458l-.062.037a.395.395,0,0,0,.221.565,1.016,1.016,0,0,0,.695-.061,11.352,11.352,0,0,0,1.629-.817l6.668-3.8a2.3,2.3,0,0,0,.713-.541A.792.792,0,0,0,1087.375,387.533Z" transform="translate(-941.762 -294.79)" fill="#12263f"/>
      <path id="Trazado_98769" data-name="Trazado 98769" d="M948.452,516.112l-10.8,16.661-.615-20.964-30.152,2.52c-.049.818,2.17,25.487,5.531,46.77,1.457,9.28,10.921,16.323,20.319,16.323h0a19.083,19.083,0,0,0,17.313-11.007l18.437-46.26Z" transform="translate(-901.915 -323.855)" fill="#ffbe9d"/>
      <path id="Trazado_98770" data-name="Trazado 98770" d="M990.292,429.772c-.044-.283.916-4.173.916-4.173s46.844-2.341,46.948-2.28l2.822,1.7Z" transform="translate(-921.421 -303.159)" fill="#fff"/>
      <path id="Trazado_98771" data-name="Trazado 98771" d="M990.292,429.735l.271-.043.774-.08,2.95-.3,10.828-1.063,35.849-3.429-.068.3-1.567-.947-.873-.522a1.672,1.672,0,0,0-.437-.227,3.271,3.271,0,0,1-.424.031l-2.01.092-3.952.185-7.609.362-13.742.651-19.052.879.055-.049c-.326,1.328-.578,2.36-.756,3.073a9.642,9.642,0,0,0-.221,1.082,4.552,4.552,0,0,1,.159-1.094c.148-.713.375-1.751.695-3.073v-.043h.049l19.052-1.014L1024,423.81l7.615-.375,3.952-.185,2.01-.092h.585a1.777,1.777,0,0,1,.454.233l.867.529,1.568.941.417.252-.485.043-35.966,3.307-10.81.965-2.92.252-.75.061Z" transform="translate(-921.422 -303.122)" fill="#12263f"/>
      <path id="Trazado_98772" data-name="Trazado 98772" d="M975.641,428.577l-.246-.762-.621-3.909-43.906-8.954-4.271,3.214,6.429,57,44.619,11.112Z" transform="translate(-906.525 -301.203)" fill="#fff"/>
      <path id="Trazado_98773" data-name="Trazado 98773" d="M975.6,428.544v.271a6.912,6.912,0,0,0,.038.793c0,.712.074,1.751.129,3.1.1,2.728.252,6.711.449,11.763.362,10.128.885,24.583,1.506,41.792v.185l-.185-.044L932.95,475.283h-.1v-.111l-.486-4.247c-2.164-19.249-4.2-37.317-5.931-52.743v-.08l.061-.05,4.3-3.208.05-.037h.055l43.894,9.04h.031v.031c.319,2.108.509,3.38.615,3.909h0c.209.67.234.768.234.768s-.037-.092-.258-.762h0c-.087-.535-.3-1.794-.652-3.9l.038.037-43.925-8.868h.1l-4.271,3.22.055-.123c1.745,15.426,3.792,33.488,5.974,52.737.166,1.456.333,2.907.48,4.253l-.116-.141,44.612,11.13-.178.142c-.572-17.208-1.05-31.62-1.389-41.742-.159-5.058-.283-9.04-.369-11.769-.037-1.358-.067-2.4-.086-3.11v-.805A.548.548,0,0,0,975.6,428.544Z" transform="translate(-906.486 -301.169)" fill="#12263f"/>
      <path id="Trazado_98774" data-name="Trazado 98774" d="M924.415,418.53l4.13,57.581,48.589,10.073,48.995-8.807.572-53.684-48.823,2.772s-.295,2.188-3.878,2.108l-2.409-.824-44.723-8.739Z" transform="translate(-906.015 -302.04)" fill="#455a64"/>
      <line id="Línea_71" data-name="Línea 71" x2="1.272" y2="62.288" transform="translate(71.863 124.425)" fill="none"/>
      <path id="Trazado_98775" data-name="Trazado 98775" d="M995.465,491.174c-.093,0-.443-13.945-.8-31.142s-.559-31.147-.473-31.147.443,13.939.793,31.141S995.55,491.168,995.465,491.174Z" transform="translate(-922.329 -304.462)" fill="#12263f"/>
      <path id="Trazado_98776" data-name="Trazado 98776" d="M987.3,489.92v-.148a2.2,2.2,0,0,0-.037-.448c0-.424-.061-1-.1-1.727-.092-1.5-.191-3.688-.3-6.361-.215-5.365-.424-12.79-.584-20.982s-.246-15.623-.277-20.994v-8.7a.5.5,0,0,1,0,.153v.449c0,.418.031,1,.049,1.727,0,1.531.067,3.687.123,6.361.093,5.4.221,12.808.369,20.994s.332,15.611.491,20.982c.08,2.667.148,4.83.2,6.361,0,.731.037,1.309.049,1.727v.448A.388.388,0,0,1,987.3,489.92Z" transform="translate(-920.418 -304.854)" fill="#12263f"/>
      <path id="Trazado_98777" data-name="Trazado 98777" d="M979.733,532.369l-.191.08Z" transform="translate(-918.908 -328.663)" fill="#ffbe9d"/>
      <path id="Trazado_98778" data-name="Trazado 98778" d="M979.855,532.329" transform="translate(-918.981 -328.654)" fill="#ffbe9d"/>
      <path id="Trazado_98779" data-name="Trazado 98779" d="M979.887,532.329" transform="translate(-918.988 -328.654)" fill="#ffbe9d"/>
      <path id="Trazado_98780" data-name="Trazado 98780" d="M979.823,532.329" transform="translate(-918.973 -328.654)" fill="#ffbe9d"/>
      <path id="Trazado_98781" data-name="Trazado 98781" d="M996.97,484.349a55.788,55.788,0,0,0,5.243-5.605c1.174-1.905-.738-3.227-2.053-3.817s-18.634,14.234-18.634,14.234,14.523-12.906,15.408-13.792,1.463-2.052.584-4.4-3.687-1.469-4.7-1.322-17.454,13.939-17.454,13.939,9.532-9.219,10.411-9.975,1.174-2.059.885-3.816-2.2-1.61-3.522-1.61-21.959,18.333-21.959,18.333l.984,9.68-3.5,14.83,16.256,6.3c2.79-1.174,8.07-8.044,9.1-9.39s6.9-11.3,6.9-11.3c2.348-1.321,5.722-6.6,7.043-8.069s.879-2.2.142-3.374c-.394-.615-4.222,2.458-7.683,5.4l.793-.7S994.119,487.151,996.97,484.349Z" transform="translate(-914.026 -313.652)" fill="#ffbe9d"/>
      <path id="Trazado_98782" data-name="Trazado 98782" d="M968.577,496.322a1.775,1.775,0,0,1-.909.424,3.581,3.581,0,0,1-2.415-.283,3.627,3.627,0,0,1-1.666-1.776,1.762,1.762,0,0,1-.2-.983c.055,0,.129.362.405.885a3.9,3.9,0,0,0,1.6,1.585,3.821,3.821,0,0,0,2.231.351C968.214,496.438,968.558,496.254,968.577,496.322Z" transform="translate(-915.127 -319.621)" fill="#eb996e"/>
      <path id="Trazado_98783" data-name="Trazado 98783" d="M977.75,503.247a1.459,1.459,0,0,1-.867.074,3.325,3.325,0,0,1-2.876-2.766,1.435,1.435,0,0,1,.037-.867c.055,0,.055.326.185.818a3.684,3.684,0,0,0,.977,1.684,3.637,3.637,0,0,0,1.721.9C977.412,503.185,977.75,503.185,977.75,503.247Z" transform="translate(-917.602 -321.02)" fill="#eb996e"/>
      <path id="Trazado_98784" data-name="Trazado 98784" d="M987.32,510.169a1.926,1.926,0,0,1-1.008-.093,4.363,4.363,0,0,1-3.153-3.552,1.878,1.878,0,0,1,.031-1.021c.049,0,.049.387.191.977a4.726,4.726,0,0,0,3,3.38A9.241,9.241,0,0,1,987.32,510.169Z" transform="translate(-919.74 -322.38)" fill="#eb996e"/>
      <path id="Trazado_98785" data-name="Trazado 98785" d="M945.379,534.84c.074.049-3.355,5.384-7.658,11.911s-7.842,11.788-7.916,11.739,3.349-5.384,7.651-11.911S945.305,534.791,945.379,534.84Z" transform="translate(-907.275 -329.241)" fill="#eb996e"/>
      <path id="Trazado_98786" data-name="Trazado 98786" d="M1036.82,457.073c0,.087-5.728,1-12.826,2.041s-12.857,1.807-12.869,1.721,5.728-1,12.826-2.04S1036.808,456.987,1036.82,457.073Z" transform="translate(-926.294 -311.052)" fill="#12263f"/>
      <path id="Trazado_98787" data-name="Trazado 98787" d="M1038.186,460.3c0,.087-5.157.978-11.548,1.985s-11.579,1.752-11.592,1.666,5.157-.971,11.542-1.985S1038.168,460.212,1038.186,460.3Z" transform="translate(-927.211 -311.806)" fill="#12263f"/>
      <g id="Grupo_49065" data-name="Grupo 49065" transform="translate(77.176 127.834)">
        <path id="Trazado_98788" data-name="Trazado 98788" d="M1003.628,437.474l1.028-.1a1.623,1.623,0,0,1,1.326.314,1.606,1.606,0,0,1,.394,1.046,2.741,2.741,0,0,1-.415,1.82,1.943,1.943,0,0,1-1.516.723l-1.062.1Zm.84,3.161a.971.971,0,0,0,.885-.565,2.4,2.4,0,0,0,.209-1.242,1.03,1.03,0,0,0-.222-.636.721.721,0,0,0-.645-.171l-.322.031-.165,2.608Z" transform="translate(-1001.659 -434.276)" fill="#fff"/>
        <path id="Trazado_98789" data-name="Trazado 98789" d="M1008.21,436.992l2.333-.228-.113.657-1.485.146-.067.949,1.178-.116-.054.67-1.176.116-.071,1,1.546-.152-.044.637-2.333.231Z" transform="translate(-1002.721 -434.138)" fill="#fff"/>
        <path id="Trazado_98790" data-name="Trazado 98790" d="M1012.122,436.64l1.174-.115a1.237,1.237,0,0,1,.929.2,1.086,1.086,0,0,1,.346.785,1.419,1.419,0,0,1-.139.741,1.474,1.474,0,0,1-.581.556l.633,1.476-.833.083-.495-1.346-.46.045-.113,1.407-.78.077Zm.931,1.748a.8.8,0,0,0,.592-.259.787.787,0,0,0,.152-.532.5.5,0,0,0-.124-.324.519.519,0,0,0-.43-.1l-.393.038-.1,1.2Z" transform="translate(-1003.628 -434.079)" fill="#fff"/>
        <path id="Trazado_98791" data-name="Trazado 98791" d="M1016.477,436.183l2.321-.227-.124.656-1.477.145-.084.948,1.173-.115-.067.67-1.171.115-.09,1,1.538-.153-.054.637-2.322.231Z" transform="translate(-1004.638 -433.949)" fill="#fff"/>
        <path id="Trazado_98792" data-name="Trazado 98792" d="M1019.909,438.269a3.269,3.269,0,0,1,.5-1.981,1.635,1.635,0,0,1,1.237-.686,2.642,2.642,0,0,1,.975.1l-.166.648a2.279,2.279,0,0,0-.711-.064.9.9,0,0,0-.788.568,2.82,2.82,0,0,0-.238,1.293,1.1,1.1,0,0,0,.178.617.661.661,0,0,0,.645.191,3.593,3.593,0,0,0,.678-.143l.012.634a3.057,3.057,0,0,1-.823.2C1020.479,439.732,1019.966,439.3,1019.909,438.269Z" transform="translate(-1005.523 -433.863)" fill="#fff"/>
        <path id="Trazado_98793" data-name="Trazado 98793" d="M1024.222,435.412l.778-.076-.173,1.6,1.2-.118.185-1.6.776-.076-.454,3.9-.767.077.184-1.633-1.2.118-.178,1.633-.773.077Z" transform="translate(-1006.434 -433.758)" fill="#fff"/>
        <path id="Trazado_98794" data-name="Trazado 98794" d="M1028.444,437.434a3.744,3.744,0,0,1,.307-1.6,1.7,1.7,0,0,1,1.447-1.067c.8-.078,1.348.313,1.376,1.4a3.772,3.772,0,0,1-.315,1.6,1.694,1.694,0,0,1-1.449,1.047C1029.031,438.886,1028.482,438.5,1028.444,437.434Zm2.111.057a3.3,3.3,0,0,0,.221-1.255c-.018-.621-.249-.8-.593-.771a.882.882,0,0,0-.719.643,3.255,3.255,0,0,0-.217,1.256c.02.61.246.8.588.762A.888.888,0,0,0,1030.555,437.491Z" transform="translate(-1007.52 -433.668)" fill="#fff"/>
        <path id="Trazado_98795" data-name="Trazado 98795" d="M1032.9,438.28l.136-.657a2.631,2.631,0,0,0,.978.106c.323-.032.7-.161.693-.536,0-.208-.123-.339-.441-.451l-.295-.1a.974.974,0,0,1-.765-.96,1.2,1.2,0,0,1,.394-.951,1.61,1.61,0,0,1,.939-.382,2.707,2.707,0,0,1,1.007.109l-.183.642a2.41,2.41,0,0,0-.784-.073c-.36.035-.642.191-.636.48,0,.189.137.3.51.443l.3.109a.947.947,0,0,1,.705.972,1.216,1.216,0,0,1-.373.951,1.775,1.775,0,0,1-1.049.418A2.854,2.854,0,0,1,1032.9,438.28Z" transform="translate(-1008.561 -433.57)" fill="#fff"/>
        <path id="Trazado_98796" data-name="Trazado 98796" d="M1038.8,434.031l1.005-.1a1.467,1.467,0,0,1,1.263.315,1.526,1.526,0,0,1,.3,1.043,2.956,2.956,0,0,1-.548,1.814,2.036,2.036,0,0,1-1.529.718l-1.038.1Zm.565,3.153a1.034,1.034,0,0,0,.9-.561,2.559,2.559,0,0,0,.3-1.238.982.982,0,0,0-.165-.635.65.65,0,0,0-.613-.171l-.315.031-.366,2.6Z" transform="translate(-1009.815 -433.472)" fill="#fff"/>
        <path id="Trazado_98797" data-name="Trazado 98797" d="M1043.285,433.559l2.282-.223-.161.654-1.453.142-.14.947,1.154-.113-.107.668-1.151.113-.148.994,1.512-.149-.092.635-2.284.227Z" transform="translate(-1010.854 -433.336)" fill="#fff"/>
        <path id="Trazado_98798" data-name="Trazado 98798" d="M1001.354,445.68l.562-.056,1.461,2.312.164-2.475.683-.068-.258,3.768-.6.062-1.412-2.177-.141,2.335-.677.068Z" transform="translate(-1001.133 -436.156)" fill="#fff"/>
        <path id="Trazado_98799" data-name="Trazado 98799" d="M1006.166,445.261l.777-.078-.271,3.768-.764.077Z" transform="translate(-1002.25 -436.107)" fill="#fff"/>
        <path id="Trazado_98800" data-name="Trazado 98800" d="M1008.262,444.621l.558-.056,1.416,2.312.2-2.474.68-.068-.316,3.766-.6.061-1.368-2.177-.178,2.334-.674.068Zm.555-.549c.03-.467.246-.788.581-.821.3-.03.49.195.7.174.126-.013.205-.112.251-.289l.348.026c-.037.469-.259.784-.588.817-.293.029-.484-.189-.7-.168-.126.012-.2.111-.245.286Z" transform="translate(-1002.735 -435.628)" fill="#fff"/>
        <path id="Trazado_98801" data-name="Trazado 98801" d="M1013.716,444.466l.85-.085.869,3.642-.781.08-.2-.91-1.087.11-.339.965-.765.078Zm.611,2.128-.254-1.277h-.009l-.465,1.35Z" transform="translate(-1003.737 -435.919)" fill="#fff"/>
        <path id="Trazado_98802" data-name="Trazado 98802" d="M1016.995,447.718l.113-.636a2.715,2.715,0,0,0,.976.1c.32-.033.692-.159.671-.521-.011-.2-.135-.327-.455-.433l-.3-.1a.986.986,0,0,1-.8-.922,1.106,1.106,0,0,1,.358-.92,1.574,1.574,0,0,1,.92-.372,2.788,2.788,0,0,1,1.006.1l-.159.621a2.479,2.479,0,0,0-.781-.067c-.358.036-.633.189-.616.466.011.183.148.294.524.425l.3.1a.954.954,0,0,1,.737.934,1.116,1.116,0,0,1-.337.919,1.727,1.727,0,0,1-1.028.408A2.964,2.964,0,0,1,1016.995,447.718Z" transform="translate(-1004.843 -435.807)" fill="#fff"/>
        <path id="Trazado_98803" data-name="Trazado 98803" d="M1020.992,448.5a.248.248,0,0,1-.259-.267.571.571,0,0,1,.153-.448.47.47,0,0,1,.262-.1.316.316,0,0,1,.267.071.374.374,0,0,1,.085.251,4.093,4.093,0,0,1-.254,1.258l-.344.035Z" transform="translate(-1005.717 -436.689)" fill="#fff"/>
        <path id="Trazado_98804" data-name="Trazado 98804" d="M1024.465,443.361l.554-.055,1.309,2.31.293-2.47.673-.067-.453,3.761-.6.061-1.268-2.175-.263,2.331-.667.068Z" transform="translate(-1006.492 -435.614)" fill="#fff"/>
        <path id="Trazado_98805" data-name="Trazado 98805" d="M1029.208,442.948l.765-.077-.466,3.76-.753.077Z" transform="translate(-1007.593 -435.566)" fill="#fff"/>
        <path id="Trazado_98806" data-name="Trazado 98806" d="M1031.275,442.312l.551-.055,1.265,2.309.33-2.469.67-.067-.51,3.759-.593.061-1.227-2.175-.3,2.33-.664.067Zm.574-.548c.054-.466.283-.785.613-.818.3-.03.47.194.674.174.125-.013.208-.111.262-.287l.339.026c-.061.467-.3.781-.62.814-.289.029-.464-.188-.673-.168-.124.012-.2.11-.256.286Z" transform="translate(-1008.071 -435.089)" fill="#fff"/>
        <path id="Trazado_98807" data-name="Trazado 98807" d="M1035.516,444.6a3.6,3.6,0,0,1,.325-1.544,1.707,1.707,0,0,1,1.43-1.034c.78-.078,1.311.3,1.321,1.341a3.648,3.648,0,0,1-.333,1.542,1.7,1.7,0,0,1-1.431,1.014C1036.065,446,1035.535,445.628,1035.516,444.6Zm2.058.047a3.157,3.157,0,0,0,.237-1.211c-.007-.6-.231-.774-.566-.74a.881.881,0,0,0-.713.622,3.153,3.153,0,0,0-.232,1.212c.01.587.228.765.562.732A.883.883,0,0,0,1037.574,444.648Z" transform="translate(-1009.174 -435.365)" fill="#fff"/>
        <path id="Trazado_98808" data-name="Trazado 98808" d="M1039.839,445.4l.144-.634a2.553,2.553,0,0,0,.952.1c.315-.031.687-.157.685-.519,0-.2-.115-.326-.423-.433l-.286-.1a.918.918,0,0,1-.732-.922,1.173,1.173,0,0,1,.4-.918,1.6,1.6,0,0,1,.922-.371,2.655,2.655,0,0,1,.981.1l-.189.619a2.372,2.372,0,0,0-.763-.067c-.353.035-.63.187-.628.464,0,.182.13.293.49.424l.286.1a.892.892,0,0,1,.673.934,1.182,1.182,0,0,1-.379.917,1.773,1.773,0,0,1-1.03.407A2.814,2.814,0,0,1,1039.839,445.4Z" transform="translate(-1010.185 -435.267)" fill="#fff"/>
        <path id="Trazado_98809" data-name="Trazado 98809" d="M1046.266,443.378l-.786-2.118.806-.08.48,1.46,1-1.609.8-.08-1.552,2.356-.249,1.518-.748.077Z" transform="translate(-1011.505 -435.117)" fill="#fff"/>
        <path id="Trazado_98810" data-name="Trazado 98810" d="M1002.79,453.307l.84-.087.953,3.512-.773.081-.217-.877-1.076.111-.312.933-.757.078Zm.66,2.05-.284-1.232-.008,0-.428,1.3Z" transform="translate(-1001.207 -437.986)" fill="#fff"/>
        <path id="Trazado_98811" data-name="Trazado 98811" d="M1006.416,452.958l.989-.1a1.589,1.589,0,0,1,1.274.281,1.441,1.441,0,0,1,.373.969,2.505,2.505,0,0,1-.411,1.7,1.924,1.924,0,0,1-1.463.684l-1.022.106Zm.79,2.932a.953.953,0,0,0,.854-.532,2.177,2.177,0,0,0,.208-1.157.921.921,0,0,0-.21-.59.7.7,0,0,0-.62-.153l-.31.031-.174,2.426Z" transform="translate(-1002.308 -437.897)" fill="#fff"/>
        <path id="Trazado_98812" data-name="Trazado 98812" d="M1010.49,454.771a3.273,3.273,0,0,1,.236-1.493,1.593,1.593,0,0,1,1.374-1.007c.778-.08,1.332.28,1.4,1.288a3.317,3.317,0,0,1-.244,1.492,1.585,1.585,0,0,1-1.377.987C1011.123,456.117,1010.57,455.763,1010.49,454.771Zm2.069.034a2.871,2.871,0,0,0,.166-1.17c-.042-.578-.276-.746-.611-.712a.814.814,0,0,0-.679.605,2.86,2.86,0,0,0-.162,1.172c.044.568.274.738.606.7A.819.819,0,0,0,1012.559,454.8Z" transform="translate(-1003.319 -437.762)" fill="#fff"/>
        <path id="Trazado_98813" data-name="Trazado 98813" d="M1015.333,452.054l.755-.077-.29,3.039,1.459-.151-.055.593-2.2.229Z" transform="translate(-1004.376 -437.696)" fill="#fff"/>
        <path id="Trazado_98814" data-name="Trazado 98814" d="M1018.969,451.634l2.234-.229-.123.61-1.422.146-.087.883,1.129-.117-.067.624-1.128.117-.091.928,1.482-.154-.056.592-2.236.233Z" transform="translate(-1005.219 -437.562)" fill="#fff"/>
        <path id="Trazado_98815" data-name="Trazado 98815" d="M1022.226,454.757l.117-.614a2.67,2.67,0,0,0,.953.091c.313-.033.679-.156.663-.5-.009-.194-.129-.315-.44-.416l-.29-.094a.935.935,0,0,1-.768-.886,1.076,1.076,0,0,1,.361-.888,1.576,1.576,0,0,1,.9-.363,2.771,2.771,0,0,1,.982.092l-.163.6a2.439,2.439,0,0,0-.764-.06c-.35.036-.621.184-.608.451.008.176.141.283.507.408l.29.1a.9.9,0,0,1,.71.9,1.084,1.084,0,0,1-.34.888,1.731,1.731,0,0,1-1.01.4A2.9,2.9,0,0,1,1022.226,454.757Z" transform="translate(-1006.066 -437.484)" fill="#fff"/>
        <path id="Trazado_98816" data-name="Trazado 98816" d="M1026.049,453.156a3.02,3.02,0,0,1,.5-1.845,1.627,1.627,0,0,1,1.2-.648,2.6,2.6,0,0,1,.934.083l-.168.6a2.238,2.238,0,0,0-.681-.055.894.894,0,0,0-.765.535,2.578,2.578,0,0,0-.246,1.2.983.983,0,0,0,.162.572.632.632,0,0,0,.616.172,3.5,3.5,0,0,0,.652-.139l0,.59a3.035,3.035,0,0,1-.792.191C1026.576,454.512,1026.09,454.119,1026.049,453.156Z" transform="translate(-1006.96 -437.385)" fill="#fff"/>
        <path id="Trazado_98817" data-name="Trazado 98817" d="M1030.218,450.478l2.218-.228-.137.61-1.413.146-.109.882,1.122-.116-.083.623-1.119.116-.116.926,1.471-.153-.071.592-2.22.231Z" transform="translate(-1007.828 -437.292)" fill="#fff"/>
        <path id="Trazado_98818" data-name="Trazado 98818" d="M1033.939,450.078l.541-.056,1.225,2.223.339-2.383.657-.067-.522,3.628-.582.061-1.188-2.093-.306,2.249-.651.067Z" transform="translate(-1008.691 -437.185)" fill="#fff"/>
        <path id="Trazado_98819" data-name="Trazado 98819" d="M1039.239,450.14l-1.011.1.088-.6,2.806-.287-.154.609-.984.1-.451,3.023-.739.077Z" transform="translate(-1009.808 -437.082)" fill="#fff"/>
        <path id="Trazado_98820" data-name="Trazado 98820" d="M1042.45,449.221l2.2-.226-.154.609-1.4.144-.133.881,1.113-.115-.1.622-1.111.115-.141.926,1.459-.152-.087.591-2.2.229Z" transform="translate(-1010.665 -436.998)" fill="#fff"/>
        <path id="Trazado_98821" data-name="Trazado 98821" d="M1045.471,452.343l.149-.612a2.546,2.546,0,0,0,.929.092c.309-.032.673-.155.677-.5,0-.194-.108-.314-.407-.416l-.279-.094a.867.867,0,0,1-.7-.886,1.143,1.143,0,0,1,.4-.886,1.613,1.613,0,0,1,.906-.362,2.615,2.615,0,0,1,.957.094l-.192.6a2.342,2.342,0,0,0-.745-.061c-.345.035-.618.182-.62.45,0,.176.122.283.474.408l.279.1a.843.843,0,0,1,.646.9,1.155,1.155,0,0,1-.383.886,1.77,1.77,0,0,1-1.012.4A2.768,2.768,0,0,1,1045.471,452.343Z" transform="translate(-1011.502 -436.921)" fill="#fff"/>
      </g>
    </g>
    <g id="freepik--Desk--inject-18" transform="translate(812.53 512.117)">
      <path id="Trazado_98822" data-name="Trazado 98822" d="M1079.671,597.908c0,.086-59.534.159-132.965.159s-132.977-.043-132.977-.159,59.522-.16,132.977-.16S1079.671,597.822,1079.671,597.908Z" transform="translate(-813.729 -597.748)" fill="#12263f"/>
    </g>
  </g>
</svg>
